<svg xmlns="http://www.w3.org/2000/svg" width="222" height="222" viewBox="0 0 222 222">
  <g id="Groupe_229" data-name="Groupe 229" transform="translate(-2874 -278)">
    <rect id="Rectangle_2120" data-name="Rectangle 2120" width="222" height="222" rx="44.5" transform="translate(2874 278)" fill="#f4f4f4"/>
    <g id="Groupe_228" data-name="Groupe 228">
      <path id="Tracé_1436" data-name="Tracé 1436" d="M3019.162,426.251l-5.343-7.119-.715-.976,5.4,7.727Z" fill="none"/>
      <path id="Tracé_1437" data-name="Tracé 1437" d="M2960.7,416.442l-.015,0,.075-5.968h.01c0-.009,0-.009,0,0s-18.233-3.769-21.094-27.867a110.188,110.188,0,0,1-.594-13.111l-.007,0c-2.7-3.248-4.274-10.812-4.123-19.678-2.694,12.57-5.775,29.6-6.228,43.491l-.276,8.456s16.222,13.467,32.169,17.543l.055-1.349C2960.677,417.407,2960.686,416.912,2960.7,416.442Z" fill="#00002f"/>
      <path id="Tracé_1438" data-name="Tracé 1438" d="M2966.212,303.024l.534.227a1.063,1.063,0,0,1,.035-.333l.2-.957a67.584,67.584,0,0,1,35.6,1.664c7.882,2.569,17.437,10.273,22.232,17.617-2.629-6.332-6.289-12.019-11.861-16.39-10.788-8.456-23.078-10.819-36.777-10.236-6.469.274-13.742,3.15-19.51,6.319C2960.475,299.456,2962.936,301.313,2966.212,303.024Z" fill="#00002f"/>
      <path id="Tracé_1439" data-name="Tracé 1439" d="M2939.069,369.49l.007,0c.035-7.251.5-15.372,1.151-23.257a14.5,14.5,0,0,1-4.227,4.44,65.731,65.731,0,0,1-.327-9.9,72.547,72.547,0,0,0-.727,9.036C2934.795,358.678,2936.368,366.242,2939.069,369.49Z" fill="#00002f"/>
      <path id="Tracé_1440" data-name="Tracé 1440" d="M2968.721,438.955c12.209,2.166,36.964-16.257,38.245-17.217l4.964-5.262.008.011,0-.029-13.2,3.685c.677-6.279-1.85-12.588-1.117-18.864.774-6.649,5.084-12.349,6.854-18.807,2.83-10.342-1.055-21.361-2.479-32.041-6-.739-11.571-4.339-15.576-8.994-.4-.469-.774-.961-1.151-1.448-.543-.139-1.1-.273-1.688-.39-.771-.17-1.521-.3-2.231-.409.34.508.678,1.018,1.047,1.508a8.716,8.716,0,0,1-7.464-2.425,19.453,19.453,0,0,1-4.379-6.8,53.133,53.133,0,0,1-4.245-19.158,68.847,68.847,0,0,0,3.115,27.978c-1.678-.516-3.476-.053-5.211.2s-3.73.2-4.953-1.049a6.19,6.19,0,0,1-1.357-3.2,71.773,71.773,0,0,1-.8-24.379,74.18,74.18,0,0,0-5.492,13.511,28.524,28.524,0,0,0-.836,11.1l.019,0a9.416,9.416,0,0,1,5.211.494c1.224.543,1.735,1.228,1.531,1.642-.471.852-3.073.61-6.034,1.152l.007.028a1.937,1.937,0,0,1-2.264.435c-1.981.489-3.473,1-4.037.516-.338-.321-.08-1.14.866-2.042a9.325,9.325,0,0,1,1.352-.974c-.079-.314-.145-.63-.194-.943-.631-4.005.081-8.126.788-12.136-2.394,4.246-3.191,9.172-4.519,13.863a29.241,29.241,0,0,1-3.28,7.731c-.647,7.885-1.116,16.006-1.151,23.257a110.188,110.188,0,0,0,.594,13.111c2.861,24.1,21.094,27.867,21.094,27.867s0-.008,0,0a60.972,60.972,0,0,0,32.4-7.295s-8.586,16.459-32.471,13.264c-.009.47-.018.965-.029,1.511l-.055,1.349-.278,6.87C2960.6,430.83,2962.133,437.789,2968.721,438.955Zm11.5-82.2.007-.071a2.945,2.945,0,0,1,3.272-2.577,3.07,3.07,0,0,1,2.835,3.217c0,.027,0,.053-.008.078a2.937,2.937,0,0,1-3.267,2.566,3.07,3.07,0,0,1-2.839-3.213Zm-1.526-8.37a8.063,8.063,0,0,1,4.846-1.358,8.406,8.406,0,0,1,4.811,1.7c1.032.828,1.383,1.549,1.2,1.718-.374.392-2.733-1.357-6.034-1.495s-5.7,1.49-6.066,1.076C2977.274,349.838,2977.647,349.127,2978.694,348.389Zm-11.535-4.4c.364.147-2.439,7.574-6.266,16.586q-1.416,3.311-2.75,6.328a4.907,4.907,0,0,0-.659,2.479c.12.57.912.769,1.753.89,3.323.556,5.341.992,5.341,1.179-.019.187-2.088.09-5.443-.2a5.633,5.633,0,0,1-1.428-.254,2.128,2.128,0,0,1-1.335-1.291,4.9,4.9,0,0,1,.569-3.293l2.63-6.4C2963.4,351.022,2966.794,343.844,2967.159,343.991Zm-11.624,13.649c0,.028,0,.055-.009.083a2.931,2.931,0,0,1-3.262,2.56,3.075,3.075,0,0,1-2.844-3.213h0c0-.03.006-.06.009-.09a2.946,2.946,0,0,1,3.271-2.58A3.071,3.071,0,0,1,2955.535,357.64ZM2946.181,348a8.129,8.129,0,0,1,4.846-1.357,8.448,8.448,0,0,1,4.81,1.695c1.028.81,1.389,1.548,1.206,1.722-.378.387-2.737-1.362-6.039-1.5s-5.7,1.5-6.065,1.077C2944.761,349.447,2945.134,348.735,2946.181,348Zm17.7,34.545c.014-.144.353-.2.894-.264l-.214-.2c-.4-.378-.23-.111-.444-.645a4.287,4.287,0,0,1,.4-3.089,6.9,6.9,0,0,1,6.412-2.87,5.3,5.3,0,0,1,2.852,1c.56-1.268.744-2.232,1.024-2.2.245-.009.588.894.4,2.389a7.448,7.448,0,0,1-.236.988c.1.133.2.267.281.41h0a5.3,5.3,0,0,1-.32,5.5,5.186,5.186,0,0,1-5.554,1.78,9.22,9.22,0,0,1-3.41-1.977C2964.583,383.2,2963.826,382.748,2963.883,382.542Z" fill="#ffbe9d"/>
      <path id="Tracé_1441" data-name="Tracé 1441" d="M2982.586,336.08a101.263,101.263,0,0,1-6.7-14,32.417,32.417,0,0,0,3.684,14.115A13.1,13.1,0,0,1,2982.586,336.08Z" fill="#ffbe9d"/>
      <path id="Tracé_1442" data-name="Tracé 1442" d="M2949.43,356.98c0,.03-.006.06-.009.09h0a3.075,3.075,0,0,0,2.844,3.213,2.931,2.931,0,0,0,3.262-2.56c0-.028.007-.055.009-.083a3.071,3.071,0,0,0-2.834-3.24A2.946,2.946,0,0,0,2949.43,356.98Z" fill="#00002f"/>
      <path id="Tracé_1443" data-name="Tracé 1443" d="M2944.939,349.634c.363.419,2.764-1.215,6.065-1.077s5.661,1.887,6.039,1.5c.183-.174-.178-.912-1.206-1.722a8.448,8.448,0,0,0-4.81-1.695,8.129,8.129,0,0,0-4.846,1.357C2945.134,348.735,2944.761,349.447,2944.939,349.634Z" fill="#00002f"/>
      <path id="Tracé_1444" data-name="Tracé 1444" d="M2983.059,359.972a2.937,2.937,0,0,0,3.267-2.566c0-.025.006-.051.008-.078a3.07,3.07,0,0,0-2.835-3.217,2.945,2.945,0,0,0-3.272,2.577l-.007.071h0A3.07,3.07,0,0,0,2983.059,359.972Z" fill="#00002f"/>
      <path id="Tracé_1445" data-name="Tracé 1445" d="M2983.518,348.949c3.3.138,5.66,1.887,6.034,1.495.182-.169-.169-.89-1.2-1.718a8.406,8.406,0,0,0-4.811-1.7,8.063,8.063,0,0,0-4.846,1.358c-1.047.738-1.42,1.449-1.242,1.636C2977.815,350.439,2980.216,348.811,2983.518,348.949Z" fill="#00002f"/>
      <path id="Tracé_1446" data-name="Tracé 1446" d="M2959.571,360.012l-2.63,6.4a4.9,4.9,0,0,0-.569,3.293,2.128,2.128,0,0,0,1.335,1.291,5.633,5.633,0,0,0,1.428.254c3.355.29,5.424.387,5.443.2,0-.187-2.018-.623-5.341-1.179-.841-.121-1.633-.32-1.753-.89a4.907,4.907,0,0,1,.659-2.479q1.335-3.016,2.75-6.328c3.827-9.012,6.63-16.439,6.266-16.586S2963.4,351.022,2959.571,360.012Z" fill="#00002f"/>
      <path id="Tracé_1447" data-name="Tracé 1447" d="M2960.68,416.44l.015,0c23.885,3.2,32.471-13.264,32.471-13.264a60.972,60.972,0,0,1-32.4,7.295h-.01Z" fill="#844e42"/>
      <path id="Tracé_1448" data-name="Tracé 1448" d="M2972.178,381.643a8.9,8.9,0,0,1-5.865,1.749c-.122-.008-.231-.023-.345-.036a9.22,9.22,0,0,0,3.41,1.977,5.186,5.186,0,0,0,5.554-1.78,5.3,5.3,0,0,0,.32-5.5h0c-.085-.143-.183-.277-.281-.41A7.767,7.767,0,0,1,2972.178,381.643Z" fill="#ffbe9d"/>
      <path id="Tracé_1449" data-name="Tracé 1449" d="M2972.178,381.643a8.9,8.9,0,0,1-5.865,1.749c-.122-.008-.231-.023-.345-.036a9.22,9.22,0,0,0,3.41,1.977,5.186,5.186,0,0,0,5.554-1.78,5.3,5.3,0,0,0,.32-5.5h0c-.085-.143-.183-.277-.281-.41A7.767,7.767,0,0,1,2972.178,381.643Z" fill="#f25f5f" opacity="0.57" style="isolation: isolate"/>
      <path id="Tracé_1450" data-name="Tracé 1450" d="M2973.784,376.468a5.3,5.3,0,0,0-2.852-1,6.9,6.9,0,0,0-6.412,2.87,4.287,4.287,0,0,0-.4,3.089c.214.534.041.267.444.645l.214.2a11.89,11.89,0,0,0,6.142-2.076A9.224,9.224,0,0,0,2973.784,376.468Z" fill="#ffbe9d"/>
      <path id="Tracé_1451" data-name="Tracé 1451" d="M2973.784,376.468a5.3,5.3,0,0,0-2.852-1,6.9,6.9,0,0,0-6.412,2.87,4.287,4.287,0,0,0-.4,3.089c.214.534.041.267.444.645l.214.2a11.89,11.89,0,0,0,6.142-2.076A9.224,9.224,0,0,0,2973.784,376.468Z" fill="#f25f5f" opacity="0.57" style="isolation: isolate"/>
      <path id="Tracé_1452" data-name="Tracé 1452" d="M2965.968,383.356c.114.013.223.028.345.036a8.9,8.9,0,0,0,5.865-1.749,7.767,7.767,0,0,0,2.794-4,7.448,7.448,0,0,0,.236-.988c.188-1.495-.155-2.4-.4-2.389-.28-.03-.464.934-1.024,2.2a9.224,9.224,0,0,1-2.865,3.734,11.89,11.89,0,0,1-6.142,2.076c-.541.065-.88.12-.894.264C2963.826,382.748,2964.583,383.2,2965.968,383.356Z" fill="#00002f"/>
      <path id="Tracé_1453" data-name="Tracé 1453" d="M2979.569,336.2a32.351,32.351,0,0,0,1.784,2.992c.71.109,1.46.239,2.231.409.587.117,1.145.251,1.688.39a43.074,43.074,0,0,1-2.686-3.909A13.1,13.1,0,0,0,2979.569,336.2Z" fill="#00002f"/>
      <path id="Tracé_1454" data-name="Tracé 1454" d="M2957.542,338.607c.2-.414-.307-1.1-1.531-1.642a9.416,9.416,0,0,0-5.211-.494l-.019,0a20.386,20.386,0,0,0,.727,3.284C2954.469,339.217,2957.071,339.459,2957.542,338.607Z" fill="#00002f"/>
      <path id="Tracé_1455" data-name="Tracé 1455" d="M2947.432,337.722a9.325,9.325,0,0,0-1.352.974c-.946.9-1.2,1.721-.866,2.042.564.486,2.056-.027,4.037-.516a2.376,2.376,0,0,1-.713-.435A4.036,4.036,0,0,1,2947.432,337.722Z" fill="#00002f"/>
      <path id="Tracé_1456" data-name="Tracé 1456" d="M2936,350.677a14.5,14.5,0,0,0,4.227-4.44,29.241,29.241,0,0,0,3.28-7.731c1.328-4.691,2.125-9.617,4.519-13.863-.707,4.01-1.419,8.131-.788,12.136.049.313.115.629.194.943a4.036,4.036,0,0,0,1.106,2.065,2.376,2.376,0,0,0,.713.435,1.937,1.937,0,0,0,2.264-.435l-.007-.028a20.386,20.386,0,0,1-.727-3.284,28.524,28.524,0,0,1,.836-11.1,74.18,74.18,0,0,1,5.492-13.511,71.773,71.773,0,0,0,.8,24.379,6.19,6.19,0,0,0,1.357,3.2c1.223,1.253,3.217,1.3,4.953,1.049s3.533-.712,5.211-.2a68.847,68.847,0,0,1-3.115-27.978,53.133,53.133,0,0,0,4.245,19.158,19.453,19.453,0,0,0,4.379,6.8,8.716,8.716,0,0,0,7.464,2.425c-.369-.49-.707-1-1.047-1.508a32.232,32.232,0,0,1-5.468-17.107,101.263,101.263,0,0,0,6.7,14,43.074,43.074,0,0,0,2.686,3.909c.377.487.748.979,1.151,1.448,4,4.655,9.581,8.255,15.576,8.994,1.424,10.68,5.309,21.7,2.479,32.041-1.77,6.458-6.08,12.158-6.854,18.807-.733,6.276,1.794,12.585,1.117,18.864l13.2-3.685,31.275-8.731c-.485-45.3-7.093-66.263-17.111-84.335l-.249-.444c-.313-.564-.665-1.134-1.038-1.706-4.795-7.344-14.35-15.048-22.232-17.617a67.584,67.584,0,0,0-35.6-1.664l-.2.957a1.063,1.063,0,0,0-.035.333l-.534-.227c-3.276-1.711-5.737-3.568-9.543-2.089a17.257,17.257,0,0,0-4.969,3.255,43.349,43.349,0,0,0-9.715,13.52c-2.2,4.582-4.582,9.568-5.389,14.587a75.713,75.713,0,0,0-.923,8.479A65.731,65.731,0,0,0,2936,350.677Z" fill="#00002f"/>
      <path id="Tracé_1457" data-name="Tracé 1457" d="M2949.246,480.211l29.514-28.579,28.206-29.894c-1.281.96-26.036,19.383-38.245,17.217-6.588-1.166-8.117-8.125-8.388-12.783a27.7,27.7,0,0,1,.062-4.265l0,.007-5.151,23.069S2950,479.494,2949.246,480.211Z" fill="#e0e0e0"/>
      <path id="Tracé_1458" data-name="Tracé 1458" d="M2946.786,485.316c.5-1.128.89-2.083,1.291-2.824l.029-.055-.346.124-.444.165-.031-.476c-.734-11.077-1.379-20.854-1.887-28.539v-.162l.143-.081,3.265-1.816c.471-4.574.849-8.233,1.114-10.818.143-1.224.249-2.189.334-2.905a5.73,5.73,0,0,1,.093-.673l-.093.144-3.37,11.838-19.714,33.2s.126-1.285.363-3.357c-1.329,2.981-2.609,6.133-3.741,9.473v.022A80.459,80.459,0,0,0,2920.364,500h21.743a80.729,80.729,0,0,1,3.117-10.732C2945.748,487.755,2946.287,486.444,2946.786,485.316Z" fill="#07b5e7"/>
      <path id="Tracé_1459" data-name="Tracé 1459" d="M3019.753,468.428c-.252.695-.487,1.4-.7,2.112-1.166,3.917-1.3,6.5-1.455,6.476a7.177,7.177,0,0,1,.049-1.781,29.771,29.771,0,0,1,.89-4.846,33.964,33.964,0,0,1,1.853-5.228c2.594-12.4,7.317-25.818,15.76-28.33a25.575,25.575,0,0,1,3.133.9L3019.5,426.658h-.036l-.022-.031-.282-.376-.663-.367-5.4-7.728-.713-.973a4.847,4.847,0,0,1-.444-.681l.011.013-.02-.028-.008-.011-4.964,5.262-28.206,29.894-29.514,28.579c.75-.717,5.994-35.228,5.994-35.228l5.151-23.069.128-.57-5.292,8.553s-1.909,2.751-4.85,7.312a6.054,6.054,0,0,1-.023.738q-.075,1.076-.209,2.915c-.218,2.612-.524,6.319-.912,10.96v.121l-.107.058-3.2,1.837c.551,7.546,1.255,17.091,2.051,27.887l.6-.219c.136-.279.248-.519.352-.723a4.454,4.454,0,0,1,.316-.57,3.556,3.556,0,0,1-.245.6c-.083.182-.179.4-.286.639l25.32-9.156,8.161-2.947-1.187-8.223-.094-.623.592.209,9.838,3.5,19.423-27.589c2.394-3.356,4.3-6.039,5.656-7.931l1.53-2.1a4.777,4.777,0,0,1,.561-.7,4.751,4.751,0,0,1-.444.761l-1.432,2.154-5.488,8.046-19.345,27.992-.155.223-.263-.09-1.066-.375-7.122-.23,1.726,8.376-33.687,8.558-2.937,1.055c-.03.065-.057.124-.089.192-.343.739-.774,1.7-1.215,2.848s-.992,2.452-1.492,3.961a83.49,83.49,0,0,0-2.96,10.633h21.181v-3.5a276.374,276.374,0,0,0,42.392.788V500h12.213a65.6,65.6,0,0,1-1.13-11.109l-.1-.217-.444-.965a1.8,1.8,0,0,1-.129-.338,1.457,1.457,0,0,1,.186.307l.5.943,1.9,3.676c1.025,2.035,2.327,4.622,3.884,7.7h.435l-6.033-12.455A166.166,166.166,0,0,1,3019.753,468.428Z" fill="#07b5e7"/>
      <path id="Tracé_1460" data-name="Tracé 1460" d="M2939.126,455.605c2.248-3.858,4.1-6.871,5.4-8.9l1.509-2.328a6.235,6.235,0,0,1,.551-.778,5.5,5.5,0,0,1-.443.841l-1.407,2.385c-1.236,2.078-3.026,5.124-5.22,9.007s-4.8,8.6-7.565,14.067c-1.447,2.858-2.961,5.92-4.416,9.187-.237,2.072-.363,3.357-.363,3.357l19.714-33.2,3.37-11.838.132-.462s-12.412,5.278-16.466,11.614c-2.911,4.552-5.123,20.048-6.138,28.419,1.217-2.586,2.45-5.039,3.628-7.352C2934.187,464.167,2936.879,459.464,2939.126,455.605Z" fill="#07b5e7"/>
      <path id="Tracé_1461" data-name="Tracé 1461" d="M2947,485.406c.441-1.143.872-2.109,1.215-2.848.032-.068.059-.127.089-.192l-.2.071-.029.055c-.4.741-.792,1.7-1.291,2.824s-1.038,2.439-1.562,3.952A80.729,80.729,0,0,0,2942.107,500h.441a83.49,83.49,0,0,1,2.96-10.633C2946.008,487.858,2946.56,486.55,2947,485.406Z" fill="#263238"/>
      <path id="Tracé_1462" data-name="Tracé 1462" d="M2949,480.818a3.556,3.556,0,0,0,.245-.6,4.454,4.454,0,0,0-.316.57c-.1.2-.216.444-.352.723l.137-.049C2948.824,481.217,2948.92,481,2949,480.818Z" fill="#263238"/>
      <path id="Tracé_1463" data-name="Tracé 1463" d="M2950.386,436.938c0,.016,0,.032,0,.048,0-.018,0-.036.008-.054Z" fill="#263238"/>
      <path id="Tracé_1464" data-name="Tracé 1464" d="M2949.92,440.834c-.265,2.585-.643,6.244-1.114,10.818l-3.265,1.816-.143.081v.162c.508,7.685,1.153,17.462,1.887,28.539l.031.476.444-.165.346-.124.2-.071,2.937-1.055-3.6.916,34.987-12.612-1.241-8.54,10.1,3.569-1.155-.037,1.066.375.263.09.155-.223,19.345-27.992,5.488-8.046,1.432-2.154a4.751,4.751,0,0,0,.444-.761,4.777,4.777,0,0,0-.561.7l-1.53,2.1c-1.353,1.892-3.262,4.575-5.656,7.931l-19.423,27.589-9.838-3.5-.592-.209.094.623,1.187,8.223-8.161,2.947-25.32,9.156-.137.049-.6.219c-.8-10.8-1.5-20.341-2.051-27.887l3.2-1.837.107-.058v-.121c.388-4.641.694-8.348.912-10.96q.133-1.839.209-2.915a6.054,6.054,0,0,0,.023-.738c0-.075.011-.149.007-.223-.019.089-.022.18-.037.27a5.73,5.73,0,0,0-.093.673C2950.169,438.645,2950.063,439.61,2949.92,440.834Z" fill="#263238"/>
      <path id="Tracé_1465" data-name="Tracé 1465" d="M2923.792,488.559c1.132-3.34,2.412-6.492,3.741-9.473,1.455-3.267,2.969-6.329,4.416-9.187,2.768-5.464,5.371-10.183,7.565-14.067s3.984-6.929,5.22-9.007l1.407-2.385a5.5,5.5,0,0,0,.443-.841,6.235,6.235,0,0,0-.551.778l-1.509,2.328c-1.295,2.029-3.15,5.042-5.4,8.9s-4.939,8.562-7.716,14.014c-1.178,2.313-2.411,4.766-3.628,7.352a113.513,113.513,0,0,0-4.672,11.339v-.031A80.438,80.438,0,0,0,2919.567,500h.8a80.459,80.459,0,0,1,3.428-11.419Z" fill="#263238"/>
      <path id="Tracé_1466" data-name="Tracé 1466" d="M3017.2,488.891a65.6,65.6,0,0,0,1.13,11.109h4.253l-3.7-7.592C3018.173,490.927,3017.618,489.764,3017.2,488.891Z"/>
      <path id="Tracé_1467" data-name="Tracé 1467" d="M3060.166,463.669c-1.749-4.223-3.44-8.318-5.064-12.247a25.456,25.456,0,0,0-7.666-9.11h.031l-8.18-4.579a25.575,25.575,0,0,0-3.133-.9c-8.443,2.512-13.166,15.928-15.76,28.33a33.99,33.99,0,0,1,19.263-18.033,29.792,29.792,0,0,1,4.735-1.335,7.222,7.222,0,0,1,1.78-.223c.036.147-2.519.534-6.328,2.079a35.363,35.363,0,0,0-20.091,20.779,166.166,166.166,0,0,0-2.352,19.117L3023.434,500H3051.5a44.292,44.292,0,0,0,21.34-5.445q-.794-2.043-1.593-4.1C3067.388,481.105,3063.681,472.128,3060.166,463.669Z" fill="#07b5e7"/>
      <path id="Tracé_1468" data-name="Tracé 1468" d="M3060.859,463.354q-2.647-6.347-5.109-12.243a26.023,26.023,0,0,0-7.93-9.345h-.022l-28.069-15.4-5.74-7.358-1.5-1.887a5.2,5.2,0,0,0-.527-.61l-.011-.013a4.847,4.847,0,0,0,.444.681l.713.973.715.976,5.343,7.119.282.376.022.031h.036l19.785,11.075,8.18,4.579h-.031a25.456,25.456,0,0,1,7.666,9.11c1.624,3.929,3.315,8.024,5.064,12.247,3.515,8.459,7.222,17.436,11.081,26.781q.8,2.065,1.593,4.1c.238-.13.47-.271.7-.406q-.775-2-1.56-4.014Z" fill="#263238"/>
      <path id="Tracé_1469" data-name="Tracé 1469" d="M3017.651,475.235a7.177,7.177,0,0,0-.049,1.781c.151.022.289-2.559,1.455-6.476.209-.714.444-1.417.7-2.112a35.363,35.363,0,0,1,20.091-20.779c3.809-1.545,6.364-1.932,6.328-2.079a7.222,7.222,0,0,0-1.78.223,29.792,29.792,0,0,0-4.735,1.335,34.165,34.165,0,0,0-21.116,23.261A29.771,29.771,0,0,0,3017.651,475.235Z" fill="#263238"/>
      <path id="Tracé_1470" data-name="Tracé 1470" d="M3017.219,488.621l-.5-.943a1.457,1.457,0,0,0-.186-.307,1.8,1.8,0,0,0,.129.338l.444.965.1.217c.414.873.969,2.036,1.678,3.517l3.7,7.592H3023c-1.557-3.081-2.859-5.668-3.884-7.7Z" fill="#263238"/>
      <path id="Tracé_1471" data-name="Tracé 1471" d="M2981.382,461.075l1.241,8.54-34.987,12.612,3.605-.916,33.687-8.559-1.727-8.375,7.123.23,1.155.037Z"/>
      <path id="Tracé_1472" data-name="Tracé 1472" d="M2963.729,496.5V500h42.392v-2.714A276.374,276.374,0,0,1,2963.729,496.5Z" fill="#fff"/>
    </g>
  </g>
</svg>
