<svg xmlns="http://www.w3.org/2000/svg" width="222" height="222" viewBox="0 0 222 222">
  <g id="Groupe_235" data-name="Groupe 235" transform="translate(-2874 -600)">
    <rect id="Rectangle_2123" data-name="Rectangle 2123" width="222" height="222" rx="44.5" transform="translate(2874 600)" fill="#f4f4f4"/>
    <g id="Groupe_234" data-name="Groupe 234">
      <path id="Tracé_1543" data-name="Tracé 1543" d="M3012.718,754.508a9.217,9.217,0,0,0-2.352-2.317c-.114-.07-.24-.117-.358-.181A14.431,14.431,0,0,1,3012.718,754.508Z" fill="none"/>
      <path id="Tracé_1544" data-name="Tracé 1544" d="M3031.356,664.787a15.9,15.9,0,0,0-1.413-.947,34.378,34.378,0,0,1-.746,5.351c.362,7.179.7,14.431.957,21.2.409-.254.812-.523,1.2-.818a15.743,15.743,0,0,0,5.762-8.563,27.093,27.093,0,0,0,.6-3.826,29.162,29.162,0,0,0-.6-3.83A15.751,15.751,0,0,0,3031.356,664.787Z" fill="none"/>
      <path id="Tracé_1545" data-name="Tracé 1545" d="M2931.635,690.711c.657,10.942,8.339,12.331,13.048,11.988l-.89-24.1C2939.182,678.185,2930.937,679.076,2931.635,690.711Zm11.006,6.261a2.968,2.968,0,0,1-2.5.571c-2.336-.526-4.151-3.422-4.442-6.613a9.392,9.392,0,0,1,.691-4.457,3.867,3.867,0,0,1,2.741-2.647,2.109,2.109,0,0,1,1.554.311,1.748,1.748,0,0,1,.685.96c.166.646-.072.956-.159.934s0-.344-.242-.779a1.411,1.411,0,0,0-1.679-.658,3.19,3.19,0,0,0-1.951,2.246,9.067,9.067,0,0,0-.536,4.007c.245,2.854,1.818,5.433,3.531,5.947a2.773,2.773,0,0,0,2.064-.166c.454-.242.647-.5.718-.45C2943.17,696.2,2943.109,696.563,2942.641,696.972Z" fill="#ffbe9d"/>
      <path id="Tracé_1546" data-name="Tracé 1546" d="M2942.4,696.628a2.773,2.773,0,0,1-2.064.166c-1.713-.514-3.286-3.093-3.531-5.947a9.067,9.067,0,0,1,.536-4.007,3.19,3.19,0,0,1,1.951-2.246,1.411,1.411,0,0,1,1.679.658c.238.435.155.756.242.779s.325-.288.159-.934a1.748,1.748,0,0,0-.685-.96,2.109,2.109,0,0,0-1.554-.311,3.867,3.867,0,0,0-2.741,2.647,9.392,9.392,0,0,0-.691,4.457c.291,3.191,2.106,6.087,4.442,6.613a2.968,2.968,0,0,0,2.5-.571c.468-.409.529-.772.472-.794C2943.042,696.129,2942.849,696.386,2942.4,696.628Z" fill="#aa6550"/>
      <path id="Tracé_1547" data-name="Tracé 1547" d="M3008.956,627.741a11.527,11.527,0,0,1,2.3,2.591,2.244,2.244,0,0,1,1.971-.031,6.255,6.255,0,0,1,2.189,1.244c.624.574,1.943.8,2.045,1.64a3.53,3.53,0,0,1-.408,1.543c-.212.14-.76.873-.93.688a5.557,5.557,0,0,0-2.136-1.6,42.653,42.653,0,0,1,14.842,28.945c.391.191.773.4,1.145.62.081-1.25.14-2.558.217-3.98a34.415,34.415,0,0,0-3.751-16.752c-3.319-6.37-7.289-11.64-13.655-14.963-9.381-4.9-17.13-5.243-24.651-5.268a61.2,61.2,0,0,1,10.693,1.166C3002.446,624.312,3006.121,625.394,3008.956,627.741Z" fill="#00002f"/>
      <path id="Tracé_1548" data-name="Tracé 1548" d="M3028.937,664.111q.132,2.526.26,5.08a34.378,34.378,0,0,0,.746-5.351c-.347-.208-.7-.4-1.061-.574,0,.025.006.05.007.075C3028.907,663.6,3028.923,663.854,3028.937,664.111Z" fill="#00002f"/>
      <path id="Tracé_1549" data-name="Tracé 1549" d="M2946.438,749.422h0l-.014-.451s5.478,25.243,34.18,24.914c27.433-.314,26.93-22.241,26.93-22.241l.007.086-.045-.544.011,0c-.343-4.87-.59-8.178-.59-8.178s23.278-3.429,23.75-26.672c.121-5.942-.1-15.1-.495-25.439a15.895,15.895,0,0,1-13.712,1.379,16.026,16.026,0,0,1-10.588-16.976c-.226-.09-.492-.194-.83-.3a9.4,9.4,0,0,0-3.147-.465c1.338,3.208,3.093,7.7,4.943,12.707q1.328,3.668,2.529,7.009c.337,1.04.923,2.219.446,3.584a2.3,2.3,0,0,1-1.512,1.32,6.192,6.192,0,0,1-1.55.2c-3.618.166-5.864.162-5.879-.038s2.212-.571,5.811-1c.915-.087,1.781-.261,1.94-.881a4.657,4.657,0,0,0-.59-2.711l-2.647-6.967c-1.905-5.153-3.529-9.816-4.6-13.14a9.4,9.4,0,0,0-2.814.849c-.569.277-.957.515-1.175.627,0,.029.007.058.006.088v.756a.735.735,0,0,1,0,.249.783.783,0,0,1,0,.257v.756a7.216,7.216,0,0,1-.094,1.222,11.429,11.429,0,0,1-.295,1.652,15.914,15.914,0,0,1-19.219,11.709,15.7,15.7,0,0,1-1.669-.5,16.031,16.031,0,1,1,20.888-18.974,11.539,11.539,0,0,1,.295,1.652,7.485,7.485,0,0,1,.071.924,5.313,5.313,0,0,1,.991-.777,8.078,8.078,0,0,1,2.836-1.046c-.872-2.748-1.315-4.45-1.135-4.515s1,1.615,2.178,4.41a8.085,8.085,0,0,1,3.543.66,6.025,6.025,0,0,1,.7.379,16.006,16.006,0,0,1,22.934-12.225,42.653,42.653,0,0,0-14.842-28.945.739.739,0,0,0-.639.089c-.629.447-.343,1.072-.475,2.118a7.355,7.355,0,0,1-.251,1.5,9.021,9.021,0,0,1-7.41,6.075,13.951,13.951,0,0,1-9.587-2.491c-3.127-2.08-5.637-5.062-8.995-6.745-5.44-2.729-12.351-1.414-17.141,2.333s-7.644,9.557-8.854,15.523a52.6,52.6,0,0,0-.774,12.692l.2,3.529c.049.656.1,1.311.154,1.964.378,4.446-3.092,14.222-4.914,18.294s-5.913,5.947-7.97,5.523c-2.393-.491-2.276-10.34-2.374-11.228-.288-2.423-1.3-7.8-1.3-7.8l.019-.015c-.011-.1-.021-.2-.032-.3l.137,3.725.89,24.1,1.723,46.721.031-.023Zm43.9-47.725c.582-.03.56,3.849,3.856,6.628s7.429,2.385,7.456,2.926c.049.246-.931.756-2.673.779a9.64,9.64,0,0,1-6.223-2.223,8.4,8.4,0,0,1-2.983-5.554C2989.637,702.65,2990.076,701.675,2990.333,701.7Zm16.574,41.292.424,5.815c-23.213,1.9-30.245-15.005-30.245-15.005C2992.62,743.745,3006.907,742.989,3006.907,742.989Zm14.726-85.453c1.051.843,1.387,1.683,1.107,2.076-.635.8-3.088-.057-6.049-.117-2.956-.171-5.466.5-6.049-.352-.249-.416.151-1.225,1.252-1.985A8.764,8.764,0,0,1,3021.633,657.536Zm-47.012.582a14.2,14.2,0,0,1,12.389-1.266c1.535.643,2.3,1.41,2.147,1.871-.359.968-3.924.48-8.117.953-4.207.378-7.595,1.584-8.143.711C2972.651,659.967,2973.249,659.06,2974.621,658.118Z" fill="#ffbe9d"/>
      <path id="Tracé_1550" data-name="Tracé 1550" d="M2996.6,676.152c-.017-.019.017-.08.078-.159a19.1,19.1,0,0,0-.475-2.643,15.738,15.738,0,0,0-5.757-8.563,15.444,15.444,0,1,0,5.757,16.219,27.2,27.2,0,0,0,.6-3.826,5.545,5.545,0,0,1-.114-1.046C2996.65,676.149,2996.609,676.164,2996.6,676.152Zm-11.606.877a3.323,3.323,0,0,1-3.229,3.323,3.175,3.175,0,0,1-3.4-2.937c0-.029,0-.058,0-.087a3.322,3.322,0,0,1,3.225-3.327,3.179,3.179,0,0,1,3.4,2.941c0,.029,0,.058,0,.087Zm3.13-4.314c-.415.431-2.918-1.451-6.487-1.47s-6.2,1.746-6.59,1.3c-.185-.193.235-.972,1.388-1.792a9.093,9.093,0,0,1,5.293-1.584,8.764,8.764,0,0,1,5.16,1.712C2987.959,671.736,2988.325,672.523,2988.121,672.715Z" fill="#ffbe9d"/>
      <path id="Tracé_1551" data-name="Tracé 1551" d="M2946.445,749.594l-.006-.172,0,0Z" fill="#ffbe9d"/>
      <path id="Tracé_1552" data-name="Tracé 1552" d="M3028.937,664.111c-.014-.257-.03-.513-.048-.77,0-.025,0-.05-.007-.075a15.532,15.532,0,1,0,1.272,27.121c-.261-6.765-.595-14.017-.957-21.2Q3029.07,666.641,3028.937,664.111Zm-12.14,16.234a3.176,3.176,0,0,1-3.4-2.938c0-.029,0-.058,0-.087a3.327,3.327,0,0,1,3.225-3.327,3.18,3.18,0,0,1,3.4,2.946c0,.03,0,.06,0,.09A3.323,3.323,0,0,1,3016.8,680.345Zm6.427-8.015c-.412.431-2.915-1.452-6.487-1.471s-6.2,1.747-6.586,1.3c-.189-.192.234-.971,1.384-1.8a9.127,9.127,0,0,1,5.292-1.581,8.759,8.759,0,0,1,5.161,1.713C3023.081,671.351,3023.447,672.137,3023.224,672.33Z" fill="#ffbe9d"/>
      <path id="Tracé_1553" data-name="Tracé 1553" d="M3007.331,748.8l-.424-5.815s-14.287.756-29.821-9.19C2977.086,733.8,2984.118,750.709,3007.331,748.8Z" fill="#aa6550"/>
      <path id="Tracé_1554" data-name="Tracé 1554" d="M3016.62,673.993a3.327,3.327,0,0,0-3.225,3.327c0,.029,0,.058,0,.087a3.176,3.176,0,0,0,3.4,2.938,3.323,3.323,0,0,0,3.225-3.316c0-.03,0-.06,0-.09A3.18,3.18,0,0,0,3016.62,673.993Z" fill="#00002f"/>
      <path id="Tracé_1555" data-name="Tracé 1555" d="M3021.988,670.5a8.759,8.759,0,0,0-5.161-1.713,9.127,9.127,0,0,0-5.292,1.581c-1.15.824-1.573,1.6-1.384,1.8.382.443,3.013-1.323,6.586-1.3s6.075,1.9,6.487,1.471C3023.447,672.137,3023.081,671.351,3021.988,670.5Z" fill="#00002f"/>
      <path id="Tracé_1556" data-name="Tracé 1556" d="M2981.585,674a3.322,3.322,0,0,0-3.225,3.327c0,.029,0,.058,0,.087a3.175,3.175,0,0,0,3.4,2.937,3.323,3.323,0,0,0,3.229-3.323h0c0-.029,0-.058,0-.087A3.179,3.179,0,0,0,2981.585,674Z" fill="#00002f"/>
      <path id="Tracé_1557" data-name="Tracé 1557" d="M2986.885,670.885a8.764,8.764,0,0,0-5.16-1.712,9.093,9.093,0,0,0-5.293,1.584c-1.153.82-1.573,1.6-1.388,1.792.386.442,3.021-1.323,6.59-1.3s6.072,1.9,6.487,1.47C2988.325,672.523,2987.959,671.736,2986.885,670.885Z" fill="#00002f"/>
      <path id="Tracé_1558" data-name="Tracé 1558" d="M3005.387,687.751l2.647,6.967a4.657,4.657,0,0,1,.59,2.711c-.159.62-1.025.794-1.94.881-3.6.431-5.811.8-5.811,1s2.261.2,5.879.038a6.192,6.192,0,0,0,1.55-.2,2.3,2.3,0,0,0,1.512-1.32c.477-1.365-.109-2.544-.446-3.584q-1.2-3.342-2.529-7.009c-1.85-5.006-3.605-9.5-4.943-12.707a9.547,9.547,0,0,0-1.108.085C3001.858,677.935,3003.482,682.6,3005.387,687.751Z" fill="#00002f"/>
      <path id="Tracé_1559" data-name="Tracé 1559" d="M2999.474,669.536c-.18.065.263,1.767,1.135,4.515a8.107,8.107,0,0,1,1.043-.105C3000.473,671.151,2999.66,669.469,2999.474,669.536Z" fill="#00002f"/>
      <path id="Tracé_1560" data-name="Tracé 1560" d="M2992.749,709.807a9.64,9.64,0,0,0,6.223,2.223c1.742-.023,2.722-.533,2.673-.779-.027-.541-4.159-.147-7.456-2.926s-3.274-6.658-3.856-6.628c-.257-.022-.7.953-.567,2.556A8.4,8.4,0,0,0,2992.749,709.807Z" fill="#00002f"/>
      <path id="Tracé_1561" data-name="Tracé 1561" d="M2981.04,659.676c4.193-.473,7.758.015,8.117-.953.155-.461-.612-1.228-2.147-1.871a14.2,14.2,0,0,0-12.389,1.266c-1.372.942-1.97,1.849-1.724,2.269C2973.445,661.26,2976.833,660.054,2981.04,659.676Z" fill="#00002f"/>
      <path id="Tracé_1562" data-name="Tracé 1562" d="M3010.642,659.143c.583.851,3.093.181,6.049.352,2.961.06,5.414.922,6.049.117.28-.393-.056-1.233-1.107-2.076a8.764,8.764,0,0,0-9.739-.378C3010.793,657.918,3010.393,658.727,3010.642,659.143Z" fill="#00002f"/>
      <path id="Tracé_1563" data-name="Tracé 1563" d="M2942.836,661.9c.071-1.356.252-3.366.338-4.274A39.872,39.872,0,0,0,2942.836,661.9Z" fill="#00002f"/>
      <path id="Tracé_1564" data-name="Tracé 1564" d="M2943.669,675.2s1.009,5.373,1.3,7.8c.1.888-.019,10.737,2.374,11.228,2.057.424,6.147-1.451,7.97-5.523s5.292-13.848,4.914-18.294c-.055-.653-.105-1.308-.154-1.964l.064,1.094c-5.811-2.463-16.858-6.519-17.306-6.684a111.821,111.821,0,0,0,.828,12.027c.011.1.021.2.032.3Z" fill="#00002f"/>
      <path id="Tracé_1565" data-name="Tracé 1565" d="M2959.8,663.71l.069,1.2a52.6,52.6,0,0,1,.774-12.692c1.21-5.966,4.064-11.777,8.854-15.523s11.7-5.062,17.141-2.333c3.358,1.683,5.868,4.665,8.995,6.745a13.951,13.951,0,0,0,9.587,2.491,9.021,9.021,0,0,0,7.41-6.075,7.355,7.355,0,0,0,.251-1.5c-.011.084-.018.166-.035.256l-.726-1.444a2.274,2.274,0,0,1-1.135-1.2,4.411,4.411,0,0,1-.317-1.637,2.034,2.034,0,0,1,.469-1.572,1.128,1.128,0,0,1,.127-.094,11.527,11.527,0,0,0-2.3-2.591c-2.835-2.347-6.51-3.429-10.124-4.158a61.2,61.2,0,0,0-10.693-1.166,50.929,50.929,0,0,0-19.484,3.275c-9.527,3.7-17.977,10.813-22.052,20.185a48.01,48.01,0,0,0-2.711,7.9,70.56,70.56,0,0,1,8.045,3.1,64.134,64.134,0,0,1,7.841,3.634,64.788,64.788,0,0,1-8.068-3.093,72.162,72.162,0,0,1-7.825-3.609c-.273,1.135-.488,2.246-.649,3.347Z" fill="#00002f"/>
      <path id="Tracé_1566" data-name="Tracé 1566" d="M2993.637,686.391a15.442,15.442,0,1,1-3.194-21.6,15.738,15.738,0,0,1,5.757,8.563,19.1,19.1,0,0,1,.475,2.643c.027-.034.066-.076.107-.119a7.485,7.485,0,0,0-.071-.924,11.539,11.539,0,0,0-.295-1.652,16,16,0,1,0-20.888,18.974,15.7,15.7,0,0,0,1.669.5,15.914,15.914,0,0,0,19.219-11.709,11.429,11.429,0,0,0,.295-1.652,7.216,7.216,0,0,0,.094-1.222v-.756a.783.783,0,0,0,0-.257,27.2,27.2,0,0,1-.6,3.826A15.444,15.444,0,0,1,2993.637,686.391Z" fill="#263238"/>
      <path id="Tracé_1567" data-name="Tracé 1567" d="M2996.8,677.18a.735.735,0,0,0,0-.249v-.756c0-.03-.006-.059-.006-.088a1.141,1.141,0,0,1-.108.047A5.545,5.545,0,0,0,2996.8,677.18Z" fill="#263238"/>
      <path id="Tracé_1568" data-name="Tracé 1568" d="M3027.11,662.033a16.044,16.044,0,0,0-21.21,12.952c.413.256.628.465.6.509s-.262-.05-.63-.2a16.026,16.026,0,0,0,10.588,16.976,15.913,15.913,0,0,0,20.884-11.2,11.012,11.012,0,0,0,.295-1.652,7.454,7.454,0,0,0,.1-1.222v-.756a.718.718,0,0,0-.019-.257,27.093,27.093,0,0,1-.6,3.826,15.743,15.743,0,0,1-5.762,8.563c-.39.3-.793.564-1.2.818a15.532,15.532,0,1,1-1.272-27.121c.358.178.714.366,1.061.574a15.743,15.743,0,0,1,7.175,9.51,29.162,29.162,0,0,1,.6,3.83.719.719,0,0,0,.019-.249v-.756a7.481,7.481,0,0,0-.1-1.225,11.092,11.092,0,0,0-.295-1.652,16.029,16.029,0,0,0-7.366-9.918c-.372-.221-.754-.429-1.145-.62A16.01,16.01,0,0,0,3027.11,662.033Z" fill="#263238"/>
      <path id="Tracé_1569" data-name="Tracé 1569" d="M3005.9,674.985a6.025,6.025,0,0,0-.7-.379,8.152,8.152,0,0,0-7.422.491,5.313,5.313,0,0,0-.991.777c-.041.043-.08.085-.107.119-.061.079-.095.14-.078.159s.053,0,.094-.018a1.141,1.141,0,0,0,.108-.047c.218-.112.606-.35,1.175-.627a9.4,9.4,0,0,1,2.814-.849,9.547,9.547,0,0,1,1.108-.085,9.4,9.4,0,0,1,3.147.465c.338.111.6.215.83.3.368.148.6.247.63.2S3006.313,675.241,3005.9,674.985Z" fill="#263238"/>
      <path id="Tracé_1570" data-name="Tracé 1570" d="M3016.128,635.416c.17.185.718-.548.93-.688a3.53,3.53,0,0,0,.408-1.543c-.1-.839-1.421-1.066-2.045-1.64a6.255,6.255,0,0,0-2.189-1.244,2.244,2.244,0,0,0-1.971.031,1.128,1.128,0,0,0-.127.094,2.034,2.034,0,0,0-.469,1.572,4.411,4.411,0,0,0,.317,1.637,2.274,2.274,0,0,0,1.135,1.2l.726,1.444c.017-.09.024-.172.035-.256.132-1.046-.154-1.671.475-2.118a.739.739,0,0,1,.639-.089A5.557,5.557,0,0,1,3016.128,635.416Z" fill="#00002f"/>
      <path id="Tracé_1571" data-name="Tracé 1571" d="M2960.134,669.532l-.064-1.094-.2-3.529-.069-1.2-16.561-6.553-.017-.006s-.018.183-.045.478c-.086.908-.267,2.918-.338,4.274-.019.374-.031.7-.029.937l.021.008C2943.276,663.013,2954.323,667.069,2960.134,669.532Z" fill="#ebebeb"/>
      <path id="Tracé_1572" data-name="Tracé 1572" d="M2951.71,657.419a64.788,64.788,0,0,0,8.068,3.093,64.134,64.134,0,0,0-7.841-3.634,70.56,70.56,0,0,0-8.045-3.1l-.023,0c0,.005.01.016.016.024A72.162,72.162,0,0,0,2951.71,657.419Z" fill="#ebebeb"/>
      <path id="Tracé_1573" data-name="Tracé 1573" d="M3007.841,763.956V755.3l-.3-3.574-.007-.086s.5,21.927-26.93,22.241c-28.7.329-34.18-24.914-34.18-24.914l.014.451.013-.009-.013.011.006.171,1.235,28.4L2964.807,822h34.705l5.2-20.918Zm-59.983,1.157,1.459,1.259c1.263,1.093,3.134,2.647,5.561,4.367a56.148,56.148,0,0,0,9.017,5.293,42.487,42.487,0,0,0,12.215,3.629,33.768,33.768,0,0,0,12.661-.832,29.718,29.718,0,0,0,9.452-4.3,25.091,25.091,0,0,0,5.172-4.749c1.036-1.293,1.539-2.075,1.588-2.041a2.7,2.7,0,0,1-.329.586,16.186,16.186,0,0,1-1.089,1.618,23.672,23.672,0,0,1-5.107,4.915,29.556,29.556,0,0,1-9.546,4.48,33.711,33.711,0,0,1-12.877.892,42.109,42.109,0,0,1-12.367-3.724,53.542,53.542,0,0,1-9.032-5.429,61.819,61.819,0,0,1-5.474-4.537c-.62-.559-1.07-1.032-1.383-1.342a2.865,2.865,0,0,1-.454-.5A2.956,2.956,0,0,1,2947.858,765.113Z" fill="#e0e0e0"/>
      <path id="Tracé_1574" data-name="Tracé 1574" d="M2949.162,766.542a61.819,61.819,0,0,0,5.474,4.537,53.542,53.542,0,0,0,9.032,5.429,42.109,42.109,0,0,0,12.367,3.724,33.711,33.711,0,0,0,12.877-.892,29.556,29.556,0,0,0,9.546-4.48,23.672,23.672,0,0,0,5.107-4.915,16.186,16.186,0,0,0,1.089-1.618,2.7,2.7,0,0,0,.329-.586c-.049-.034-.552.748-1.588,2.041a25.091,25.091,0,0,1-5.172,4.749,29.718,29.718,0,0,1-9.452,4.3,33.768,33.768,0,0,1-12.661.832,42.487,42.487,0,0,1-12.215-3.629,56.148,56.148,0,0,1-9.017-5.293c-2.427-1.72-4.3-3.274-5.561-4.367l-1.459-1.259a2.956,2.956,0,0,0-.533-.412,2.865,2.865,0,0,0,.454.5C2948.092,765.51,2948.542,765.983,2949.162,766.542Z" fill="#263238"/>
      <path id="Tracé_1575" data-name="Tracé 1575" d="M2928.811,788.492l-4.2-3.179h-.62v-.265c0-6.494.028-12.482.04-17.827l-14.748,53.817a44.674,44.674,0,0,0,9.221.962h18.976l-11.882-12.446Z" fill="#07b5e7"/>
      <path id="Tracé_1576" data-name="Tracé 1576" d="M2924.029,766.452v-.107l-.121.091-.063.217.184-.093Z" fill="#07b5e7"/>
      <path id="Tracé_1577" data-name="Tracé 1577" d="M2946.438,749.422V749.4l-.031.023-.261.2A3.045,3.045,0,0,1,2946.438,749.422Z" fill="#07b5e7"/>
      <path id="Tracé_1578" data-name="Tracé 1578" d="M2946.445,749.594l-.007-.169a2.553,2.553,0,0,1-.365.316c-.279.227-.654.53-1.134.911l-4.393,3.452c-3.842,2.973-9.331,7.233-16.071,12.455,0,5.435.025,11.557.041,18.221h10.6l-.091.352c-1.32,5.288-2.7,10.834-4.125,16.55l2.45,3.218L2946.33,822h18.477l-17.127-44.006Z" fill="#07b5e7"/>
      <path id="Tracé_1579" data-name="Tracé 1579" d="M2930.335,801.895l-.087-.11.034-.136,4.1-16.336h-9.777l4.2,3.18-3.217,21.062L2937.476,822h8.2l-12.808-16.778Z" fill="#09a4f4"/>
      <path id="Tracé_1580" data-name="Tracé 1580" d="M2888.234,810.111a44.563,44.563,0,0,0,12.528,8.2,45.373,45.373,0,0,0-4.407-3.649A41.588,41.588,0,0,0,2888.234,810.111Z" fill="#07b5e7"/>
      <path id="Tracé_1581" data-name="Tracé 1581" d="M2924.029,766.56l-.184.093c-3.514,1.778-30.139,15.445-45.947,29.056a44.6,44.6,0,0,0,9.309,13.423,39.888,39.888,0,0,1,9.488,5.057,43.032,43.032,0,0,1,5.459,4.7,44.241,44.241,0,0,0,7.125,2.15l14.748-53.817C2924.028,767,2924.028,766.777,2924.029,766.56Z" fill="#07b5e7"/>
      <path id="Tracé_1582" data-name="Tracé 1582" d="M2930.9,801.682c1.421-5.716,2.8-11.262,4.125-16.55l.091-.352h-10.6c-.016-6.664-.041-12.786-.041-18.221,6.74-5.222,12.229-9.482,16.071-12.455l4.393-3.452c.48-.381.855-.684,1.134-.911a2.553,2.553,0,0,0,.365-.316v0l.013-.011-.013.009h0a3.045,3.045,0,0,0-.293.2c-.035.025-.072.044-.1.07l-1.176.862L2940.4,753.9l-16.279,12.37-.087.068v.218c0,.217,0,.441,0,.661-.012,5.345-.04,11.333-.04,17.827v.265h10.4l-4.1,16.336-.034.136.087.11,2.533,3.327L2945.676,822h.654l-12.982-17.1Z" fill="#263238"/>
      <path id="Tracé_1583" data-name="Tracé 1583" d="M3016.01,759.012l1.164,1.914Q3016.574,759.9,3016.01,759.012Z" fill="#07b5e7"/>
      <path id="Tracé_1584" data-name="Tracé 1584" d="M3008.987,751.44a2.608,2.608,0,0,0-1.4-.275,5.689,5.689,0,0,1,.712.092A6.709,6.709,0,0,1,3008.987,751.44Z" fill="#07b5e7"/>
      <path id="Tracé_1585" data-name="Tracé 1585" d="M3051.113,814.2c.137-.971.273-1.9.408-2.789.522-3.467.994-6.265,1.365-8.193.177-.9.325-1.637.438-2.215a4,4,0,0,1,.193-.779,3.522,3.522,0,0,1-.064.786c-.079.583-.185,1.323-.314,2.235-.291,1.939-.692,4.744-1.157,8.215-.085.632-.171,1.294-.257,1.97l17.774-22.351.011.008v-.008l-51.956-29.525,14.2,23.321.169.279-.313.106-13.53,4.643q1.569,3.968,3.205,8.121l.064.162-.117.136c-1.577,1.826-3.119,3.747-4.643,5.713a137.763,137.763,0,0,0-8.4,12.1c-1.165,1.959-2.292,3.9-3.277,5.871h43.016l.093-3.917Z" fill="#07b5e7"/>
      <path id="Tracé_1586" data-name="Tracé 1586" d="M3007.686,815.819a136.335,136.335,0,0,1,8.427-12.159c1.476-1.926,3-3.8,4.552-5.6l-3.244-8.241-.11-.28.284-.1,13.522-4.594c-6.355-10.59-11.706-19.543-15.511-25.9a47.369,47.369,0,0,0-2.888-4.439,14.431,14.431,0,0,0-2.71-2.5,7,7,0,0,0-1.736-.669c-.237-.046-.471-.1-.7-.172-.029.005-.051.01-.062.013l-.011,0,.045.544.3,3.574v8.653l-3.131,37.126-5.2,20.918h4.766l0-.011Q3005.849,818.9,3007.686,815.819Z" fill="#07b5e7"/>
      <path id="Tracé_1587" data-name="Tracé 1587" d="M3069.51,791.083l-.011-.008-17.774,22.351c-.331,2.578-.672,5.454-1,8.574h.775a44.37,44.37,0,0,0,32.537-14.156A61.379,61.379,0,0,0,3069.51,791.083Z" fill="#07b5e7"/>
      <path id="Tracé_1588" data-name="Tracé 1588" d="M3048.021,818.083l-.093,3.917h2.192c.321-2.811.658-5.429.993-7.8Z" fill="#07b5e7"/>
      <path id="Tracé_1589" data-name="Tracé 1589" d="M3008.189,816.129a137.763,137.763,0,0,1,8.4-12.1c1.524-1.966,3.066-3.887,4.643-5.713l.117-.136-.064-.162q-1.637-4.158-3.205-8.121l13.53-4.643.313-.106-.169-.279-14.2-23.321-.38-.624-1.164-1.914-.139-.228a46.988,46.988,0,0,0-2.756-4.158,9.545,9.545,0,0,0-2.647-2.579,6.549,6.549,0,0,0-1.481-.607,6.709,6.709,0,0,0-.685-.183,5.689,5.689,0,0,0-.712-.092c-.025,0-.049-.008-.074-.01.018.006.036.008.054.014.231.067.465.126.7.172a7,7,0,0,1,1.736.669c.118.064.244.111.358.181a9.217,9.217,0,0,1,2.352,2.317,47.369,47.369,0,0,1,2.888,4.439c3.8,6.357,9.156,15.31,15.511,25.9l-13.522,4.594-.284.1.11.28,3.244,8.241c-1.556,1.8-3.076,3.677-4.552,5.6a136.335,136.335,0,0,0-8.427,12.159q-1.831,3.084-3.4,6.17l0,.011h.634C3005.9,820.031,3007.024,818.088,3008.189,816.129Z" fill="#263238"/>
      <path id="Tracé_1590" data-name="Tracé 1590" d="M2896.7,814.189a39.888,39.888,0,0,0-9.488-5.057c.336.332.681.657,1.027.979a41.588,41.588,0,0,1,8.121,4.555,45.373,45.373,0,0,1,4.407,3.649c.46.2.925.388,1.392.573A43.032,43.032,0,0,0,2896.7,814.189Z" fill="#263238"/>
      <path id="Tracé_1591" data-name="Tracé 1591" d="M3051.982,811.456c.465-3.471.866-6.276,1.157-8.215.129-.912.235-1.652.314-2.235a3.522,3.522,0,0,0,.064-.786,4,4,0,0,0-.193.779c-.113.578-.261,1.312-.438,2.215-.371,1.928-.843,4.726-1.365,8.193-.135.886-.271,1.818-.408,2.789-.335,2.375-.672,4.993-.993,7.8h.6c.328-3.12.669-6,1-8.574C3051.811,812.75,3051.9,812.088,3051.982,811.456Z" fill="#263238"/>
    </g>
  </g>
</svg>
