<svg xmlns="http://www.w3.org/2000/svg" width="222" height="222" viewBox="0 0 222 222">
  <g id="Groupe_237" data-name="Groupe 237" transform="translate(-2422 -600)">
    <rect id="Rectangle_2124" data-name="Rectangle 2124" width="222" height="222" rx="44.5" transform="translate(2422 600)" fill="#f4f4f4"/>
    <g id="Groupe_236" data-name="Groupe 236">
      <path id="Tracé_1592" data-name="Tracé 1592" d="M2550.926,756.613l.146,4.41c1.189.039,2.55.11,4.062.228a28.287,28.287,0,0,0-2.887-3.429C2551.685,757.274,2551.23,756.879,2550.926,756.613Z" fill="none"/>
      <path id="Tracé_1593" data-name="Tracé 1593" d="M2571.295,820.383a12.943,12.943,0,0,0-5.911-2.825,12.669,12.669,0,0,0-6.5.65,14.344,14.344,0,0,0-4.648,2.824c-.366.331-.681.653-.974.968h19.694A14.7,14.7,0,0,0,2571.295,820.383Z" fill="#07b5e7"/>
      <path id="Tracé_1594" data-name="Tracé 1594" d="M2554.817,816.263a14.366,14.366,0,0,1,6.515-3.394c2.272-3.017,3.368-7.139,3.725-10.864h.017c.007-.65.013-1.317.031-2.005.045-1.622-.08-3.357-.137-5.181a93.612,93.612,0,0,0-1.476-11.764c-1.614-8.247-4.39-15.465-7.238-20.137-.352-.571-.73-1.123-1.12-1.667-1.512-.118-2.873-.189-4.062-.228l.994,30.028-53.043-24.893a4.269,4.269,0,0,1-2.449-3.68l-.172-3.98c-.641.043-1.282.089-1.922.144-.323.439-.694.944-1.1,1.516a50.659,50.659,0,0,0-5.579,10.394L2490.74,772l43.747,21.69c8.784,4.387,17.207,8.392,24.747,12.093-.131-11.9-.55-21.982-1.02-29.1-.225-3.607-.508-6.456-.693-8.4-.1-.94-.186-1.679-.247-2.223a4.821,4.821,0,0,1-.072-.783,4.559,4.559,0,0,1,.149.758c.081.545.194,1.279.335,2.215.242,1.941.581,4.786.855,8.4.577,7.218,1.078,17.474,1.255,29.582v.464l-.4-.2c-7.666-3.728-16.26-7.786-25.2-12.253l-43.675-21.855-2.873-1.456a72.731,72.731,0,0,0-4.119,17.054c-.892,6.657-1.251,14.121-1.739,21.891-.216,4.159-.314,8.219-.366,12.136h69.482A14.741,14.741,0,0,1,2554.817,816.263Z" fill="#07b5e7"/>
      <path id="Tracé_1595" data-name="Tracé 1595" d="M2481.819,787.743a68.03,68.03,0,0,1,4.642-17.425l-9.144-4.632-3.575-1.844-.924-.5a1.517,1.517,0,0,1-.3-.185,1.763,1.763,0,0,1,.335.133l.952.436,3.631,1.743,9.183,4.5a44.09,44.09,0,0,1,6.185-10.248c.314-.372.6-.7.875-1.006a96.533,96.533,0,0,0-35.323,10.4,76.75,76.75,0,0,0-31.014,29.532A44.489,44.489,0,0,0,2466.5,822h13.083c.027-3.937.122-8.025.34-12.228C2480.411,801.957,2480.839,794.509,2481.819,787.743Zm-4.877,23.812a7.653,7.653,0,0,1-.941-1.279c-.556-.851-1.412-2.05-2.513-3.49a61.142,61.142,0,0,0-4.14-4.842,59.606,59.606,0,0,0-17.707-12.785c-1.642-.775-2.994-1.36-3.942-1.723a7.564,7.564,0,0,1-1.449-.65,8.132,8.132,0,0,1,1.534.4,39.935,39.935,0,0,1,4.034,1.549,53.216,53.216,0,0,1,5.729,2.945,59.429,59.429,0,0,1,6.456,4.495,58.515,58.515,0,0,1,5.749,5.374,52.273,52.273,0,0,1,4.075,4.971,39.388,39.388,0,0,1,2.364,3.631,7.871,7.871,0,0,1,.751,1.4Z" fill="#07b5e7"/>
      <path id="Tracé_1596" data-name="Tracé 1596" d="M2564.464,813.746a13.221,13.221,0,0,0-8.848,3.433,13.418,13.418,0,0,0-3.443,4.821h.128a13.678,13.678,0,0,1,1.318-1.6,13.929,13.929,0,0,1,4.841-3.228,13.175,13.175,0,0,1,7.137-.807,13.391,13.391,0,0,1,6.456,3.167,14.261,14.261,0,0,1,2.23,2.473h.973a11.378,11.378,0,0,0-2.319-4.252A11.539,11.539,0,0,0,2564.464,813.746Z" fill="#07b5e7"/>
      <path id="Tracé_1597" data-name="Tracé 1597" d="M2593.465,773.214a55.519,55.519,0,0,0-13.677-6.891,102.014,102.014,0,0,0-23.589-4.983c.265.352.531.717.8,1.11,3.192,4.708,6.052,11.991,7.722,20.378a83.907,83.907,0,0,1,1.4,11.951c.028,1.848.081,3.607.024,5.245-.023.69-.049,1.35-.079,2h.023a28.83,28.83,0,0,0,1.56,10.954,12.542,12.542,0,0,1,8.847,9.021h14.276c.012-.653.025-1.285.041-1.876.056-2.053.121-3.712.193-4.841a10.208,10.208,0,0,1,.17-1.779,9.5,9.5,0,0,1,.073,1.783v4.841c0,.59,0,1.221,0,1.872h8.25a44.288,44.288,0,0,0,20.842-5.182l-6.85-17.641A55.919,55.919,0,0,0,2593.465,773.214Zm-3.752,22.884h0a35.426,35.426,0,0,1-.782-3.631,64.144,64.144,0,0,0-6.02-16.78,31.992,31.992,0,0,1-1.706-3.308c.08-.053.258.258.629.783s.88,1.315,1.465,2.311a50.079,50.079,0,0,1,6.051,16.913c.186,1.138.3,2.066.339,2.712A3.1,3.1,0,0,1,2589.713,796.1Z" fill="#07b5e7"/>
      <path id="Tracé_1598" data-name="Tracé 1598" d="M2473.827,806.524a52.273,52.273,0,0,0-4.075-4.971,58.515,58.515,0,0,0-5.749-5.374,59.429,59.429,0,0,0-6.456-4.495,53.216,53.216,0,0,0-5.729-2.945,39.935,39.935,0,0,0-4.034-1.549,8.132,8.132,0,0,0-1.534-.4,7.564,7.564,0,0,0,1.449.65c.948.363,2.3.948,3.942,1.723a59.606,59.606,0,0,1,17.707,12.785,61.142,61.142,0,0,1,4.14,4.842c1.1,1.44,1.957,2.639,2.513,3.49a7.653,7.653,0,0,0,.941,1.279h0a7.871,7.871,0,0,0-.751-1.4A39.388,39.388,0,0,0,2473.827,806.524Z" fill="#263238"/>
      <path id="Tracé_1599" data-name="Tracé 1599" d="M2589.349,792.386a50.079,50.079,0,0,0-6.051-16.913c-.585-1-1.094-1.787-1.465-2.311s-.549-.836-.629-.783a31.992,31.992,0,0,0,1.706,3.308,64.144,64.144,0,0,1,6.02,16.78,35.426,35.426,0,0,0,.782,3.631h0a3.1,3.1,0,0,0-.025-1C2589.648,794.452,2589.535,793.524,2589.349,792.386Z" fill="#263238"/>
      <path id="Tracé_1600" data-name="Tracé 1600" d="M2591.246,815.287a9.5,9.5,0,0,0-.073-1.783,10.208,10.208,0,0,0-.17,1.779c-.072,1.129-.137,2.788-.193,4.841-.016.591-.029,1.223-.041,1.876h.481c0-.651,0-1.282,0-1.872Z" fill="#263238"/>
      <path id="Tracé_1601" data-name="Tracé 1601" d="M2473.8,763.729l-.952-.436a1.763,1.763,0,0,0-.335-.133,1.517,1.517,0,0,0,.3.185l.924.5,3.575,1.844,9.144,4.632c.015-.033.028-.069.042-.1.036-.082.078-.16.114-.242l-9.183-4.5Z" fill="#fff"/>
      <path id="Tracé_1602" data-name="Tracé 1602" d="M2487.649,770.919l2.873,1.456L2534.2,794.23c8.936,4.467,17.53,8.525,25.2,12.253l.4.2v-.464c-.177-12.108-.678-22.364-1.255-29.582-.274-3.61-.613-6.455-.855-8.4-.141-.936-.254-1.67-.335-2.215a4.559,4.559,0,0,0-.149-.758,4.821,4.821,0,0,0,.072.783c.061.544.142,1.283.247,2.223.185,1.944.468,4.793.693,8.4.47,7.121.889,17.2,1.02,29.1-7.54-3.7-15.963-7.706-24.747-12.093L2490.74,772l-2.944-1.444c-.022.056-.048.109-.07.165S2487.675,770.853,2487.649,770.919Z" fill="#fff"/>
      <path id="Tracé_1603" data-name="Tracé 1603" d="M2552.247,757.822a28.287,28.287,0,0,1,2.887,3.429c.39.544.768,1.1,1.12,1.667,2.848,4.672,5.624,11.89,7.238,20.137a93.612,93.612,0,0,1,1.476,11.764c.057,1.824.182,3.559.137,5.181-.018.688-.024,1.355-.031,2.005l.989.02c.03-.651.056-1.311.079-2,.057-1.638,0-3.4-.024-5.245a83.907,83.907,0,0,0-1.4-11.951c-1.67-8.387-4.53-15.67-7.722-20.378-.266-.393-.532-.758-.8-1.11a18.512,18.512,0,0,0-5.282-5.013l.009.286C2551.23,756.879,2551.685,757.274,2552.247,757.822Z" fill="#263238"/>
      <path id="Tracé_1604" data-name="Tracé 1604" d="M2483.53,787.973a72.731,72.731,0,0,1,4.119-17.054c.026-.066.05-.137.077-.2s.048-.109.07-.165a50.659,50.659,0,0,1,5.579-10.394c.411-.572.782-1.077,1.1-1.516.977-1.322,1.523-2.036,1.432-2.115a11.463,11.463,0,0,0-2.235,2.193c-.274.307-.561.634-.875,1.006a44.09,44.09,0,0,0-6.185,10.248c-.036.082-.078.16-.114.242-.014.033-.027.069-.042.1a68.03,68.03,0,0,0-4.642,17.425c-.98,6.766-1.408,14.214-1.9,22.029-.218,4.2-.313,8.291-.34,12.228h1.842c.052-3.917.15-7.977.366-12.136C2482.279,802.094,2482.638,794.63,2483.53,787.973Z" fill="#263238"/>
      <path id="Tracé_1605" data-name="Tracé 1605" d="M2567.646,812.979c.156.389.318.776.506,1.15a16.836,16.836,0,0,0-7.751-.149,12.6,12.6,0,0,0,.931-1.111,14.366,14.366,0,0,0-6.515,3.394,14.741,14.741,0,0,0-3.91,5.737h1.266a13.418,13.418,0,0,1,3.443-4.821,13.221,13.221,0,0,1,8.848-3.433,11.539,11.539,0,0,1,8.473,4,11.378,11.378,0,0,1,2.319,4.252h1.237a12.542,12.542,0,0,0-8.847-9.021Z" fill="#263238"/>
      <path id="Tracé_1606" data-name="Tracé 1606" d="M2565.057,802.005c-.357,3.725-1.453,7.847-3.725,10.864a12.6,12.6,0,0,1-.931,1.111,16.836,16.836,0,0,1,7.751.149c-.188-.374-.35-.761-.506-1.15a28.83,28.83,0,0,1-1.56-10.954h-.023l-.989-.02Z" fill="#263238"/>
      <path id="Tracé_1607" data-name="Tracé 1607" d="M2572.053,819.527a13.391,13.391,0,0,0-6.456-3.167,13.175,13.175,0,0,0-7.137.807,13.929,13.929,0,0,0-4.841,3.228,13.678,13.678,0,0,0-1.318,1.6h.957c.293-.315.608-.637.974-.968a14.344,14.344,0,0,1,4.648-2.824,12.669,12.669,0,0,1,6.5-.65,12.943,12.943,0,0,1,5.911,2.825,14.7,14.7,0,0,1,1.657,1.617h1.331A14.261,14.261,0,0,0,2572.053,819.527Z" fill="#263238"/>
      <path id="Tracé_1608" data-name="Tracé 1608" d="M2481.985,693.612c.123-10.127,6.647-11.34,11.146-10.955l-.116-2.688a12.8,12.8,0,0,1-.9-1.245c-1.723-2.74-2.05-6.108-2.135-9.344-.262-10.575,1.687-21.388,6.827-30.659a32,32,0,0,1,9.961-10.946,46.275,46.275,0,0,1,14.706-8.327c8.4-2.788,17.966-2.623,25.822,1.472a20.1,20.1,0,0,1,7.278,6.234c5.475,3.4,10.926,9.739,8.751,10.933l-3.034-3.227a7.691,7.691,0,0,1-.721,1.1,42.177,42.177,0,0,1,10.945,25.218c1.479,19.027,2.892,39.935,2.966,51.6l7.524-2.075c3.425-.835,4.793-5.031,4.692-8.557s-1.049-7.178.161-10.49c1.659-4.539,6.859-7.012,8.614-11.523,1.961-5.124-1.246-10.76-4.922-14.847s-8.142-7.969-9.348-13.315c-1.114-4.93.726-10.518-1.787-14.9-3.095-5.4-11.055-5.988-14.8-10.95-1.816-2.421-2.421-5.552-4.2-7.973-3.054-4.119-8.876-5.144-13.96-4.534s-9.981,2.513-15.093,2.937c-7.012.585-14.287-1.614-21,.5-7.408,2.324-11.866,8.969-16.619,15.4l-6.209,7.472a27.9,27.9,0,0,1-4.16,3.47c-2.63,1.751-5.648,2.977-7.9,5.192-4.817,4.749-4.284,13.746,1.057,17.894a13.285,13.285,0,0,0-8.779,13.153c.222,3.114,1.554,6.019,2.53,8.985s1.581,6.273.375,9.154-4.841,4.89-7.577,3.393a13.964,13.964,0,0,0,7.747,9.211,8.344,8.344,0,0,1-5.588,2.574c5.218,11.793,18.072,18.479,31.056,19.747l-1.152-26.707C2489.645,706.118,2481.853,704.512,2481.985,693.612Z" fill="#00002f"/>
      <path id="Tracé_1609" data-name="Tracé 1609" d="M2499.023,766.158l53.043,24.893-.994-30.028-.146-4.41-.009-.286-.493-14.9s22.726-3.486,23.053-26.2c.01-.761.011-1.584,0-2.452-.074-11.661-1.487-32.569-2.966-51.6a42.177,42.177,0,0,0-10.945-25.218,30.885,30.885,0,0,1-6.138,5.828,3.025,3.025,0,0,1-.4.254,7.467,7.467,0,0,1-1.614.9l-.3.19c-6.528,2.182-10.765,1.3-17.261-.969-4.494-1.565-8.581-4.119-12.934-6.027a15.894,15.894,0,0,0-10.462,3.9,9.579,9.579,0,0,0-1.243,1.255c-1.614,2.11-1.7,5.043-1.1,7.629s1.8,4.995,2.538,7.545c1.367,4.688,1.158,9.683.936,14.525-.311,6.858-.7,14.008-4.071,19.987-1.582,2.8-5.007,5.588-7.8,2.606a6.424,6.424,0,0,1-1.578-4.672,7,7,0,0,0-.831-3.634c-.015,5.127-.058,19.841-.084,20.2a7.5,7.5,0,0,1-3.091.512l1.152,26.707L2496.4,758.5l.172,3.98A4.269,4.269,0,0,0,2499.023,766.158Zm29-81.8a3.05,3.05,0,0,1-3.161-2.935c0-.027,0-.055,0-.083a3.2,3.2,0,0,1,3.208-3.086,3.059,3.059,0,0,1,3.181,2.93c0,.029,0,.059,0,.088h0A3.2,3.2,0,0,1,2528.023,684.36Zm2.393,1.315c-.214.025-.4-.234-.46-.581s.093-.645.3-.669.4.23.46.577S2530.626,685.655,2530.416,685.675Zm-1.428,3.918a.405.405,0,0,1-.33.466l-.017,0a.44.44,0,1,1,.339-.521A.462.462,0,0,1,2528.988,689.593Zm-3.067-3.817a.5.5,0,1,1,.287-.548A.443.443,0,0,1,2525.921,685.776Zm2.228-14.956c-3.43-.121-6.02,1.469-6.375,1.033-.173-.194.258-.928,1.392-1.678a8.771,8.771,0,0,1,5.124-1.34,8.415,8.415,0,0,1,4.9,1.816c1.013.839,1.343,1.6,1.142,1.783C2533.93,672.837,2531.578,670.941,2528.149,670.82Zm-5.241,20.4c0,.137-.174.246-.4.242-.21,0-.383-.109-.383-.246s.173-.246.4-.246S2522.908,691.086,2522.908,691.223Zm-1.412,40.443c14.581,10.062,28.7,9.84,28.7,9.84l-.3,5.693C2527.547,748.256,2521.5,731.666,2521.5,731.666Zm34.607-45.552a.339.339,0,0,1,.671-.088.363.363,0,0,1-.311.4A.34.34,0,0,1,2556.1,686.114Zm4.484-1.754a3.054,3.054,0,0,1-3.162-2.943c0-.025,0-.05,0-.075a3.2,3.2,0,0,1,3.227-3.086,3.051,3.051,0,0,1,3.162,2.935c0,.027,0,.055,0,.083A3.191,3.191,0,0,1,2560.587,684.36Zm3.4,5.256a.332.332,0,0,1,.178.389.36.36,0,0,1-.46.209.331.331,0,0,1,.282-.6Zm-4.051-3.586a.436.436,0,1,1,.836-.246.239.239,0,0,1,.009.038.436.436,0,0,1-.845.208Zm-.092,4.94-.021.011a.452.452,0,1,1,.141-.623.623.623,0,0,1,.033.062A.4.4,0,0,1,2559.845,690.97Zm4.862-5.993a.5.5,0,0,1,.629.311.568.568,0,0,1,.024.113.446.446,0,0,1-.335.517.5.5,0,0,1-.318-.941Zm-7.961-26.656a8.42,8.42,0,0,1,9.344.694c.972.819,1.267,1.626.984,2.029-.637.755-2.965-.157-5.8-.318-2.825-.259-5.274.3-5.794-.541C2555.253,659.781,2555.665,659.015,2556.746,658.321Zm.088,11.91a8.744,8.744,0,0,1,5.124-1.343,8.415,8.415,0,0,1,4.9,1.819c1.017.827,1.344,1.606,1.142,1.783-.4.4-2.751-1.492-6.185-1.613s-6.019,1.468-6.374,1.032C2555.269,671.716,2555.705,670.982,2556.834,670.231Zm-11.676.444c.388-.125,3.293,7.6,6.484,17.248l2.195,6.818a5.116,5.116,0,0,1,.307,3.458,2.218,2.218,0,0,1-1.5,1.21,6.025,6.025,0,0,1-1.5.141c-3.478.049-5.649-.028-5.649-.221s2.143-.472,5.617-.767c.879-.052,1.714-.19,1.888-.783a4.472,4.472,0,0,0-.472-2.622q-1.1-3.228-2.3-6.782C2547.039,678.72,2544.771,670.8,2545.158,670.675Zm-9.848,30.594c.561,0,.4,3.716,3.482,6.5s7.052,2.538,7.06,3.062c.045.234-.915.686-2.59.658a9.284,9.284,0,0,1-5.907-2.344,8.074,8.074,0,0,1-2.678-5.439C2534.608,702.141,2535.056,701.233,2535.31,701.269ZM2520.8,657.437a13.658,13.658,0,0,1,11.942-.807c1.465.67,2.166,1.437,2,1.873-.379.919-3.784.33-7.831.641-4.035.23-7.347,1.271-7.847.4C2518.841,659.144,2519.466,658.285,2520.8,657.437Zm-1.74,29.049a.4.4,0,0,1,.489.294h0a.4.4,0,1,1-.489-.295Z" fill="#ffbe9d"/>
      <path id="Tracé_1610" data-name="Tracé 1610" d="M2493.015,679.969l.116,2.688a18.912,18.912,0,0,1,2.647.422C2494.887,682.031,2493.884,681.044,2493.015,679.969Z" fill="#ffbe9d"/>
      <path id="Tracé_1611" data-name="Tracé 1611" d="M2519.252,687.269a.4.4,0,0,0,.3-.488h0a.4.4,0,1,0-.3.489Z" fill="#eb996e"/>
      <path id="Tracé_1612" data-name="Tracé 1612" d="M2525.52,684.869a.5.5,0,0,0,.4.907.443.443,0,0,0,.287-.548.5.5,0,0,0-.688-.359Z" fill="#eb996e"/>
      <path id="Tracé_1613" data-name="Tracé 1613" d="M2530.259,684.425c-.21.024-.359.322-.3.669s.246.606.46.581.359-.326.3-.673S2530.469,684.4,2530.259,684.425Z" fill="#eb996e"/>
      <path id="Tracé_1614" data-name="Tracé 1614" d="M2522.121,691.219c0,.137.173.246.383.246.23,0,.4-.105.4-.242s-.154-.25-.384-.25S2522.121,691.082,2522.121,691.219Z" fill="#eb996e"/>
      <path id="Tracé_1615" data-name="Tracé 1615" d="M2528.458,689.2a.44.44,0,1,0,.183.86l.017,0a.405.405,0,0,0,.33-.466.462.462,0,0,0-.008-.053A.439.439,0,0,0,2528.458,689.2Z" fill="#eb996e"/>
      <path id="Tracé_1616" data-name="Tracé 1616" d="M2560.478,686.325a.436.436,0,0,0,.3-.5.239.239,0,0,0-.009-.038.436.436,0,1,0-.295.541Z" fill="#eb996e"/>
      <path id="Tracé_1617" data-name="Tracé 1617" d="M2565.025,685.918a.446.446,0,0,0,.335-.517.568.568,0,0,0-.024-.113.5.5,0,1,0-.311.63Z" fill="#eb996e"/>
      <path id="Tracé_1618" data-name="Tracé 1618" d="M2556.774,686.026a.339.339,0,1,0-.311.4A.363.363,0,0,0,2556.774,686.026Z" fill="#eb996e"/>
      <path id="Tracé_1619" data-name="Tracé 1619" d="M2559.965,690.358a.452.452,0,1,0-.141.623l.021-.011a.4.4,0,0,0,.153-.55A.623.623,0,0,0,2559.965,690.358Z" fill="#eb996e"/>
      <path id="Tracé_1620" data-name="Tracé 1620" d="M2563.706,690.214a.36.36,0,0,0,.46-.209.331.331,0,1,0-.46.209Z" fill="#eb996e"/>
      <path id="Tracé_1621" data-name="Tracé 1621" d="M2549.9,747.2l.3-5.693s-14.121.222-28.7-9.84C2521.5,731.666,2527.547,748.256,2549.9,747.2Z" fill="#eb996e"/>
      <path id="Tracé_1622" data-name="Tracé 1622" d="M2560.651,678.256a3.2,3.2,0,0,0-3.227,3.086c0,.025,0,.05,0,.075a3.054,3.054,0,0,0,3.162,2.943,3.191,3.191,0,0,0,3.227-3.086c0-.028,0-.056,0-.083A3.051,3.051,0,0,0,2560.651,678.256Z" fill="#00002f"/>
      <path id="Tracé_1623" data-name="Tracé 1623" d="M2561.817,670.877c3.434.121,5.782,2.017,6.185,1.613.2-.177-.125-.956-1.142-1.783a8.415,8.415,0,0,0-4.9-1.819,8.744,8.744,0,0,0-5.124,1.343c-1.129.751-1.565,1.485-1.391,1.678C2555.8,672.345,2558.384,670.756,2561.817,670.877Z" fill="#00002f"/>
      <path id="Tracé_1624" data-name="Tracé 1624" d="M2531.251,681.274c0-.029,0-.059,0-.088a3.059,3.059,0,0,0-3.181-2.93,3.2,3.2,0,0,0-3.208,3.086c0,.028,0,.056,0,.083a3.05,3.05,0,0,0,3.161,2.935,3.2,3.2,0,0,0,3.228-3.086Z" fill="#00002f"/>
      <path id="Tracé_1625" data-name="Tracé 1625" d="M2534.334,672.434c.2-.178-.129-.944-1.142-1.783a8.415,8.415,0,0,0-4.9-1.816,8.771,8.771,0,0,0-5.124,1.34c-1.134.75-1.565,1.484-1.392,1.678.355.436,2.945-1.154,6.375-1.033S2533.93,672.837,2534.334,672.434Z" fill="#00002f"/>
      <path id="Tracé_1626" data-name="Tracé 1626" d="M2552.534,695.157a4.472,4.472,0,0,1,.472,2.622c-.174.593-1.009.731-1.888.783-3.474.295-5.617.569-5.617.767s2.171.27,5.649.221a6.025,6.025,0,0,0,1.5-.141,2.218,2.218,0,0,0,1.5-1.21,5.116,5.116,0,0,0-.307-3.458l-2.195-6.818c-3.191-9.651-6.1-17.373-6.484-17.248s1.881,8.045,5.072,17.7Q2551.432,691.929,2552.534,695.157Z" fill="#00002f"/>
      <path id="Tracé_1627" data-name="Tracé 1627" d="M2534.677,703.7a8.074,8.074,0,0,0,2.678,5.439,9.284,9.284,0,0,0,5.907,2.344c1.675.028,2.635-.424,2.59-.658-.008-.524-3.982-.282-7.06-3.062s-2.921-6.5-3.482-6.5C2535.056,701.233,2534.608,702.141,2534.677,703.7Z" fill="#00002f"/>
      <path id="Tracé_1628" data-name="Tracé 1628" d="M2526.91,659.144c4.047-.311,7.452.278,7.831-.641.165-.436-.536-1.2-2-1.873a13.658,13.658,0,0,0-11.942.807c-1.332.848-1.957,1.707-1.735,2.11C2519.563,660.415,2522.875,659.374,2526.91,659.144Z" fill="#00002f"/>
      <path id="Tracé_1629" data-name="Tracé 1629" d="M2561.269,660.726c2.84.161,5.168,1.073,5.8.318.283-.4-.012-1.21-.984-2.029a8.42,8.42,0,0,0-9.344-.694c-1.081.694-1.493,1.46-1.271,1.864C2556,661.024,2558.444,660.467,2561.269,660.726Z" fill="#00002f"/>
      <path id="Tracé_1630" data-name="Tracé 1630" d="M2493.131,682.657c-4.5-.385-11.023.828-11.146,10.955-.132,10.9,7.66,12.506,12.152,12.373a7.5,7.5,0,0,0,3.091-.512c.026-.359.069-15.073.084-20.2a12.163,12.163,0,0,0-1.534-2.194A18.912,18.912,0,0,0,2493.131,682.657Zm-1.036,17.729a2.848,2.848,0,0,1-2.42.375c-2.2-.662-3.748-3.563-3.813-6.641a9.1,9.1,0,0,1,.968-4.253,3.8,3.8,0,0,1,2.825-2.34,2.02,2.02,0,0,1,1.468.4,1.7,1.7,0,0,1,.593.964c.113.634-.129.908-.214.884s.017-.331-.181-.759a1.357,1.357,0,0,0-1.566-.746,3.059,3.059,0,0,0-2.017,2.017,8.8,8.8,0,0,0-.787,3.8c.045,2.755,1.372,5.333,2.986,5.943a2.652,2.652,0,0,0,1.989,0c.452-.222.654-.452.722-.4C2492.693,699.663,2492.608,700,2492.095,700.386Z" fill="#ffbe9d"/>
      <path id="Tracé_1631" data-name="Tracé 1631" d="M2491.926,700.039a2.652,2.652,0,0,1-1.989,0c-1.614-.61-2.941-3.188-2.986-5.943a8.8,8.8,0,0,1,.787-3.8,3.059,3.059,0,0,1,2.017-2.017,1.357,1.357,0,0,1,1.566.746c.2.428.1.734.181.759s.327-.25.214-.884a1.7,1.7,0,0,0-.593-.964,2.02,2.02,0,0,0-1.468-.4,3.8,3.8,0,0,0-2.825,2.34,9.1,9.1,0,0,0-.968,4.253c.065,3.078,1.614,5.979,3.813,6.641a2.848,2.848,0,0,0,2.42-.375c.513-.384.6-.723.553-.751C2492.58,699.587,2492.378,699.817,2491.926,700.039Z" fill="#eb996e"/>
      <path id="Tracé_1632" data-name="Tracé 1632" d="M2563.326,638.087c2.175-1.194-3.276-7.532-8.751-10.933a20.1,20.1,0,0,0-7.278-6.234c-7.856-4.095-17.418-4.26-25.822-1.472a46.275,46.275,0,0,0-14.706,8.327,32,32,0,0,0-9.961,10.946c-5.14,9.271-7.089,20.084-6.827,30.659.085,3.236.412,6.6,2.135,9.344a12.8,12.8,0,0,0,.9,1.245c.869,1.075,1.872,2.062,2.763,3.11a12.163,12.163,0,0,1,1.534,2.194,7,7,0,0,1,.831,3.634,6.424,6.424,0,0,0,1.578,4.672c2.792,2.982,6.217.194,7.8-2.606,3.373-5.979,3.76-13.129,4.071-19.987.222-4.842.431-9.837-.936-14.525-.739-2.55-1.941-4.958-2.538-7.545s-.513-5.519,1.1-7.629a9.579,9.579,0,0,1,1.243-1.255,15.894,15.894,0,0,1,10.462-3.9c4.353,1.908,8.44,4.462,12.934,6.027,6.5,2.268,10.733,3.151,17.261.969l.3-.19a7.467,7.467,0,0,0,1.614-.9,3.025,3.025,0,0,0,.4-.254,30.885,30.885,0,0,0,6.138-5.828,7.691,7.691,0,0,0,.721-1.1Z" fill="#00002f"/>
    </g>
  </g>
</svg>
