<svg xmlns="http://www.w3.org/2000/svg" width="222" height="222" viewBox="0 0 222 222">
  <g id="Groupe_227" data-name="Groupe 227" transform="translate(-2422 -279)">
    <rect id="Rectangle_2119" data-name="Rectangle 2119" width="222" height="222" rx="44.5" transform="translate(2422 279)" fill="#f4f4f4"/>
    <g id="Groupe_226" data-name="Groupe 226">
      <path id="Tracé_1357" data-name="Tracé 1357" d="M2477.4,361.8a7.879,7.879,0,0,0,.813,1.995,47.991,47.991,0,0,0-.969-5.291A9.346,9.346,0,0,0,2477.4,361.8Z" fill="none"/>
      <path id="Tracé_1358" data-name="Tracé 1358" d="M2478.215,364.055a6.673,6.673,0,0,1-1.029-2.19,9.976,9.976,0,0,1-.134-4.266c-.118-.558-.233-1.117-.334-1.677a39.168,39.168,0,0,1,5.9-27.787,29.152,29.152,0,0,0-5.127,2.983,20.392,20.392,0,0,0-6.145,7.435,20.658,20.658,0,0,0-.964,16.05,21.651,21.651,0,0,0,7.349,9.916c.156.03.311.073.467.107C2478.2,364.439,2478.2,364.251,2478.215,364.055Z" fill="none"/>
      <path id="Tracé_1359" data-name="Tracé 1359" d="M2498.106,425.116a6.893,6.893,0,0,0-2.324,4.95c-.028.377-.057.778-.085,1.182.082,0,.164-.013.246-.016l.019.411,5.2-1.036-.176-7.035A8.208,8.208,0,0,0,2498.106,425.116Z" fill="none"/>
      <path id="Tracé_1360" data-name="Tracé 1360" d="M2554.332,430.671c-.34-3.487-.722-7.35-3.344-9.406.144,2.928.325,6.488.533,10.312l2.969.653q-.033-.324-.065-.627Z" fill="none"/>
      <path id="Tracé_1361" data-name="Tracé 1361" d="M2553.214,485.621a10.886,10.886,0,0,1,5.206-18.308c-1.4-12.192-3.14-27.578-3.93-35.083l-2.969-.653c.178,3.29.376,6.773.588,10.21.807,13.072-9.845,24.611-23.8,25.821-13.831,1.186-25.733-8.243-26.742-21.153l-.4-15.848-5.2,1.036,2.368,52.682a18.6,18.6,0,0,1,7.954,5.126,22.11,22.11,0,0,1,5.27,9.965l10.27,1.584h21.655l.294-1.894a5.975,5.975,0,0,1,11.814,1.8l-.013.09h7.623l-.656-12.319A10.872,10.872,0,0,1,2553.214,485.621Z" fill="#e0e0e0"/>
      <path id="Tracé_1362" data-name="Tracé 1362" d="M2561.388,467.033l-1.794-33.683-4.06-.891c.8,7.6,2.512,22.665,3.885,34.668A10.9,10.9,0,0,1,2561.388,467.033Z" fill="#e0e0e0"/>
      <path id="Tracé_1363" data-name="Tracé 1363" d="M2504.061,491.537a15.452,15.452,0,0,0-5.582-3.9l.6,13.364h9.464l.1-.663A19.069,19.069,0,0,0,2504.061,491.537Z" fill="#e0e0e0"/>
      <path id="Tracé_1364" data-name="Tracé 1364" d="M2553.017,500.557a3.228,3.228,0,0,0-6.384-.959,3.193,3.193,0,0,0,.108,1.4h6.162a3.181,3.181,0,0,0,.11-.417Z" fill="#e0e0e0"/>
      <path id="Tracé_1365" data-name="Tracé 1365" d="M2606.269,453.535c-11.3-12.886-31.756-17.191-46.72-21.048l.045.863,1.794,33.683a10.887,10.887,0,0,1,1.153,21.648L2563.2,501h15.07l-5.683-2.35-.464-.193.4-.271,2.756-1.8,8.842-5.792c-4.545-15.806-8.551-29.736-11.433-39.755l-3.348-11.829c-.376-1.368-.67-2.421-.88-3.2-.089-.343-.157-.617-.214-.831a1.329,1.329,0,0,1-.056-.286,1.871,1.871,0,0,1,.1.274c.064.21.153.476.258.807.23.755.552,1.816.968,3.171.827,2.8,2.017,6.8,3.5,11.785l11.66,39.9.052.186-.144.1c-.493,1.97-2.271,4.683-3.688,5.5s-.6,1.872.56,2.994a11.186,11.186,0,0,0,2.53,1.591h15.51a44.287,44.287,0,0,0,24.547-7.386c-.187-1.293-.373-2.536-.554-3.711C2620.826,472.643,2613.624,461.919,2606.269,453.535Z" fill="#07b5e7"/>
      <path id="Tracé_1366" data-name="Tracé 1366" d="M2475.524,493.672a52.1,52.1,0,0,1,.633-6.783c.622-4.409,1.352-8.634,2.07-12.652,1.445-8.037,2.873-15.251,4.091-21.307s2.252-10.942,2.978-14.319c.363-1.662.65-2.961.855-3.881l.234-1.008a1.707,1.707,0,0,1,.1-.339,1.9,1.9,0,0,1-.048.351c-.045.254-.1.593-.186,1.016-.177.924-.432,2.236-.754,3.9L2482.673,453c-1.173,6.052-2.558,13.282-3.978,21.319-.7,4.034-1.424,8.242-2.037,12.636a52.751,52.751,0,0,0-.617,6.7c0,.054.016.106.018.16a19.122,19.122,0,0,1,16.115-10.4c.185-5.059,1.453-37.236,2.495-52.1-21,1.494-44.494,18.692-51.648,32.137a103.958,103.958,0,0,0-9.16,23.284A44.371,44.371,0,0,0,2466.5,501h7.143a22.3,22.3,0,0,1,2-6.4A3.686,3.686,0,0,1,2475.524,493.672Z" fill="#07b5e7"/>
      <path id="Tracé_1367" data-name="Tracé 1367" d="M2495.7,431.248c-1.042,14.754-2.3,47.046-2.5,52.187a18.556,18.556,0,0,1,5.135.89l-2.368-52.682-.019-.411C2495.861,431.235,2495.779,431.244,2495.7,431.248Z" fill="#07b5e7"/>
      <path id="Tracé_1368" data-name="Tracé 1368" d="M2476.73,501h1.02a6.957,6.957,0,0,1-.784-1.1C2476.879,500.265,2476.8,500.629,2476.73,501Z" fill="#07b5e7"/>
      <path id="Tracé_1369" data-name="Tracé 1369" d="M2492.461,486.462c-6.193.1-11.529,4.036-14.211,9.735l2.5,1.981,3.563,2.822h14.763l-.6-13.364A15.447,15.447,0,0,0,2492.461,486.462Z" fill="#07b5e7"/>
      <path id="Tracé_1370" data-name="Tracé 1370" d="M2572.685,498.392l11.919-7.529c0,.016-.012.034-.016.049l.144-.1-.052-.186-11.66-39.9c-1.481-4.982-2.671-8.989-3.5-11.785-.416-1.355-.738-2.416-.968-3.171-.1-.331-.194-.6-.258-.807a1.871,1.871,0,0,0-.1-.274,1.329,1.329,0,0,0,.056.286c.057.214.125.488.214.831.21.775.5,1.828.88,3.2l3.348,11.829c2.882,10.019,6.888,23.949,11.433,39.755l-8.842,5.792-2.756,1.8-.4.271.464.193,5.683,2.35h.712Z" fill="#263238"/>
      <path id="Tracé_1371" data-name="Tracé 1371" d="M2580.9,496.415c1.417-.82,3.2-3.533,3.688-5.5,0-.015.012-.033.016-.049l-11.919,7.529,6.294,2.608h5.011a11.186,11.186,0,0,1-2.53-1.591C2580.3,498.287,2579.471,497.242,2580.9,496.415Z"/>
      <path id="Tracé_1372" data-name="Tracé 1372" d="M2476.658,486.958c.613-4.394,1.335-8.6,2.037-12.636,1.42-8.037,2.8-15.267,3.978-21.319l2.825-14.351c.322-1.666.577-2.978.754-3.9.081-.423.141-.762.186-1.016a1.9,1.9,0,0,0,.048-.351,1.707,1.707,0,0,0-.1.339l-.234,1.008c-.2.92-.492,2.219-.855,3.881-.726,3.377-1.759,8.263-2.978,14.319s-2.646,13.27-4.091,21.307c-.718,4.018-1.448,8.243-2.07,12.652a52.1,52.1,0,0,0-.633,6.783,3.686,3.686,0,0,0,.117.924c.045-.093.1-.18.145-.272,0-.013,0-.026,0-.039l0-.016a.113.113,0,0,0,.018.029c.083-.163.172-.323.259-.483,0-.054-.019-.106-.018-.16A52.751,52.751,0,0,1,2476.658,486.958Z" fill="#263238"/>
      <path id="Tracé_1373" data-name="Tracé 1373" d="M2478.25,496.2c-.026.055-.047.114-.072.17,1.685,1.388,3.945,3.2,5.734,4.633h.4l-3.563-2.822Z" fill="#263238"/>
      <path id="Tracé_1374" data-name="Tracé 1374" d="M2511.866,501h9.958l-10.27-1.584Q2511.739,500.2,2511.866,501Z" fill="#00002f"/>
      <path id="Tracé_1375" data-name="Tracé 1375" d="M2508.543,501h.248c-.042-.223-.1-.442-.145-.663Z" fill="#00002f"/>
      <path id="Tracé_1376" data-name="Tracé 1376" d="M2550.584,494.115a5.972,5.972,0,0,0-6.811,4.991l-.294,1.894h3.262a3.193,3.193,0,0,1-.108-1.4,3.228,3.228,0,0,1,6.384.959l0,.026a3.181,3.181,0,0,1-.11.417h2.671l.013-.09A5.968,5.968,0,0,0,2550.584,494.115Z" fill="#263238"/>
      <path id="Tracé_1377" data-name="Tracé 1377" d="M2475.786,494.285c0,.013,0,.026,0,.039l.014-.026a.113.113,0,0,1-.018-.029Z"/>
      <path id="Tracé_1378" data-name="Tracé 1378" d="M2476.966,499.9a6.957,6.957,0,0,0,.784,1.1h6.162c-1.789-1.429-4.049-3.245-5.734-4.633A19.238,19.238,0,0,0,2476.966,499.9Z"/>
      <path id="Tracé_1379" data-name="Tracé 1379" d="M2492.174,483.416c.079,0,.156-.015.235-.017.264,0,.524.027.786.036.2-5.141,1.46-37.433,2.5-52.187.028-.4.057-.8.085-1.182a6.893,6.893,0,0,1,2.324-4.95,8.208,8.208,0,0,1,2.884-1.544l-.027-1.059a9.434,9.434,0,0,0-3.515,1.824,7.889,7.889,0,0,0-2.683,5.648c-.032.424-.064.872-.1,1.33C2493.627,446.18,2492.359,478.357,2492.174,483.416Z" fill="#263238"/>
      <path id="Tracé_1380" data-name="Tracé 1380" d="M2506.284,489.451a18.458,18.458,0,0,0-13.089-6.016c-.262-.009-.522-.038-.786-.036-.079,0-.156.015-.235.017a19.122,19.122,0,0,0-16.115,10.4c-.087.16-.176.32-.259.483l-.014.026c-.046.092-.1.179-.145.272a22.3,22.3,0,0,0-2,6.4h3.087c.067-.371.149-.735.236-1.1a19.238,19.238,0,0,1,1.212-3.536c.025-.056.046-.115.072-.17,2.682-5.7,8.018-9.633,14.211-9.735a15.62,15.62,0,0,1,11.6,5.075,19.069,19.069,0,0,1,4.585,8.8c.049.221.1.44.145.663h3.075q-.126-.8-.312-1.584A22.11,22.11,0,0,0,2506.284,489.451Z" fill="#263238"/>
      <path id="Tracé_1381" data-name="Tracé 1381" d="M2554.332,430.671l.093.932q.031.3.065.627c.79,7.5,2.535,22.891,3.93,35.083q.5-.117,1-.186c-1.373-12-3.083-27.071-3.885-34.668l-.1-.961-.092-.928c-.367-3.808-.827-8.411-4.415-10.581q.03.615.062,1.276C2553.61,423.321,2553.992,427.184,2554.332,430.671Z" fill="#263238"/>
      <path id="Tracé_1382" data-name="Tracé 1382" d="M2559.419,467.127q-.5.069-1,.186a10.967,10.967,0,1,0,1-.186Zm6.77,10.785a5.273,5.273,0,1,1-5.277-5.269h.008A5.272,5.272,0,0,1,2566.189,477.912Z" fill="#263238"/>
      <path id="Tracé_1383" data-name="Tracé 1383" d="M2560.912,472.643a5.273,5.273,0,1,0,.008,0Z" fill="#455a64"/>
      <path id="Tracé_1384" data-name="Tracé 1384" d="M2534.169,312.81c.162-.2.331-.4.486-.615l.464-.645a.952.952,0,0,1,.173-.21,15.531,15.531,0,0,1-.972,1.53,42.93,42.93,0,0,1,5.338,2.6c.051-.144.1-.276.137-.386a1.026,1.026,0,0,1,.1-.222.918.918,0,0,1-.044.238c-.034.117-.073.259-.115.413.355.2.719.393,1.067.608l-1.258.069-.009.028c-.146,1.283-.354,2.555-.611,3.818l1.692-.578c.3-.053.612-.1.919-.139a23.118,23.118,0,0,1,25.915,19.932c.094.727.188,1.471.282,2.214a14.729,14.729,0,0,1,8.025,6.538,13.863,13.863,0,0,1,1.59,3.957,10.373,10.373,0,0,1,.275,1.534,6.958,6.958,0,0,1,.088,1.133v.7a.945.945,0,0,1,.016.23,27.818,27.818,0,0,0-.56-3.558,14.615,14.615,0,0,0-5.346-7.952,14.4,14.4,0,0,0-4.032-2.14c1.047,8.36,2.017,17.627,2.5,26.154a14.454,14.454,0,0,0,6.459-7.646c.155-.428.291-.863.405-1.3a25.3,25.3,0,0,0,.561-3.555.947.947,0,0,1,0,.238v.7a7.019,7.019,0,0,1-.088,1.138,10.359,10.359,0,0,1-.275,1.533,13.931,13.931,0,0,1-1.585,3.958,14.77,14.77,0,0,1-5.455,5.344,127.1,127.1,0,0,1-.033,17.8c-2.17,23.279-19.644,27.354-19.644,27.354s.018.4.05,1.116c10.806-1.652,20.861-8.487,24.367-18.755,1.211-3.647,1.683-7.613,3.632-10.942,2.388-4.083,6.83-6.818,8.6-11.2,1.913-4.712.267-10.1-1.88-14.7s-4.837-9.2-5.039-14.278c-.295-7.452,4.789-14.041,6.1-21.384,2.236-12.475-7.706-25.01-19.955-28.21s-25.014,4.616-34.718,12.754c-5.361-4.8-14.072-5.887-23.469-.484a121.954,121.954,0,0,0-11.651,7.252C2507.979,308.484,2522.14,308,2534.169,312.81Z" fill="#00002f"/>
      <path id="Tracé_1385" data-name="Tracé 1385" d="M2501.166,430.607l.4,15.848c1.009,12.91,12.911,22.339,26.742,21.153,13.959-1.21,24.611-12.749,23.8-25.821-.212-3.437-.41-6.92-.588-10.21-.208-3.824-.389-7.384-.533-10.312q-.031-.66-.062-1.276c-.113-2.338-.2-4.166-.248-5.252-.032-.716-.05-1.116-.05-1.116s17.474-4.075,19.644-27.354a127.1,127.1,0,0,0,.033-17.8,14.838,14.838,0,0,1-22.146-13.9,7.3,7.3,0,0,0-2.816-.269l-.054.01c1.432,2.692,3.741,7.453,6.235,12.937q1.407,3.18,2.7,6.073a4.713,4.713,0,0,1,.625,3.159,2.045,2.045,0,0,1-1.258,1.275,5.62,5.62,0,0,1-1.368.278c-3.2.4-5.2.545-5.217.367s1.929-.649,5.1-1.267c.807-.133,1.565-.347,1.666-.908a4.676,4.676,0,0,0-.7-2.372q-1.335-2.872-2.8-6.052c-2.545-5.6-4.648-10.541-5.717-13.359a16.8,16.8,0,0,0-2.5.976c.01.041.023.081.033.122a10.887,10.887,0,0,1,.274,1.529,6.993,6.993,0,0,1,.089,1.138v.7a.864.864,0,0,1,0,.238.909.909,0,0,1,0,.226v.7a6.838,6.838,0,0,1-.089,1.134,10.777,10.777,0,0,1-.274,1.533,13.911,13.911,0,0,1-1.59,3.962,14.885,14.885,0,0,1-27.67-6.474c-.323.3-1.259.935-2.3,1.774-.679.55-1.272,1.073-1.706,1.44,1.6,8.514-.47,20.011-.355,30,.133,12.1.128,15.549-7.7,21.7l.184,7.374.027,1.059Zm37.326-47.378c.255-.174,1.192.636,2.674,1.711a4.725,4.725,0,0,1,.905-.566c2.485.025,3.736.731,5.842,2.046a3.665,3.665,0,0,1,1.5,1.489,2.424,2.424,0,0,1,.177,1.32c.554.168.9.289.92.475s-.416.415-1.187.5a4.4,4.4,0,0,1-.225.47,5.561,5.561,0,0,1-5.269,2.825,5.128,5.128,0,0,1-4.438-3.918,4.732,4.732,0,0,1,.7-3.49c-.254-.266-.5-.537-.736-.823C2538.532,384.2,2538.282,383.362,2538.492,383.229Zm12.132,30.4.262,5.628c-22.928,3.644-31.659-11.869-31.659-11.869A58.557,58.557,0,0,0,2550.624,413.625Z" fill="#ffbe9d"/>
      <path id="Tracé_1386" data-name="Tracé 1386" d="M2531.928,341.519c1.408.464,2.138,1.1,2.033,1.517-.236.81-2.949.706-6.252,1.217a14.837,14.837,0,0,1,12.8,7.32,13.915,13.915,0,0,1,1.539,3.775,2.265,2.265,0,0,1,.757-.7,5.616,5.616,0,0,1,1.578-.7c-.449-1.216-.656-1.931-.553-1.978s.536.626,1.2,1.84a5.635,5.635,0,0,1,2.9.306c.1.042.181.084.266.127a14.748,14.748,0,0,1,2.828-7.506,14.107,14.107,0,0,1,2.1-2.306.828.828,0,0,1-.5-.256c-.246-.351.057-1.1.988-1.844a7.785,7.785,0,0,1,6.142-1.292,14.922,14.922,0,0,1,6.035-.1,14.632,14.632,0,0,1,1.948.531c-.094-.743-.188-1.487-.282-2.214a23.118,23.118,0,0,0-25.915-19.932c-.307.04-.614.086-.919.139l-1.692.578a48.823,48.823,0,0,1-10.079,21.01A12.638,12.638,0,0,1,2531.928,341.519Z" fill="#ffbe9d"/>
      <path id="Tracé_1387" data-name="Tracé 1387" d="M2519.432,370.661a14.3,14.3,0,0,0,10.883,2.633.84.84,0,1,1,1.467-.555.828.828,0,0,1-.049.245,14.309,14.309,0,0,0,10.16-10.3,23.853,23.853,0,0,0,.558-3.552,26.01,26.01,0,0,0-.558-3.549,14.6,14.6,0,0,0-5.346-7.952,14.293,14.293,0,0,0-11.39-2.532,49.109,49.109,0,0,1-9.965,7.592A14.34,14.34,0,0,0,2519.432,370.661Zm8.356-.468a.848.848,0,0,1-.008-1.7h0a.848.848,0,0,1,0,1.7Zm1.259-7.88a2.823,2.823,0,0,1-3.214-2.37c-.005-.033-.01-.066-.014-.1a2.962,2.962,0,0,1,2.655-3.167,2.824,2.824,0,0,1,3.215,2.37c.005.033.009.066.013.1A2.961,2.961,0,0,1,2529.047,362.313Zm5.766,5.854a.844.844,0,1,1-.844.844A.844.844,0,0,1,2534.813,368.167Zm-11.4-13.6a8.159,8.159,0,0,1,4.6-1.747,7.806,7.806,0,0,1,4.7,1.19c1.021.686,1.4,1.364,1.231,1.545-.343.4-2.691-1.1-5.866-.887s-5.411,1.952-5.778,1.585C2522.116,356.088,2522.438,355.37,2523.411,354.563Z" fill="#ffbe9d"/>
      <path id="Tracé_1388" data-name="Tracé 1388" d="M2560.771,341.327a7.758,7.758,0,0,1,1.525.712c.976.682,1.331,1.4,1.106,1.776-.513.754-2.752.149-5.387.282-1.655.028-3.136.337-4.149.385a14.284,14.284,0,0,0-5.152,10.089c.069.061.114.111.1.129s-.049.02-.108.01a14.409,14.409,0,0,0,2.743,9.362,14.474,14.474,0,0,0,6.677,5.031,14.481,14.481,0,0,0,12.155-1.04c-.48-8.527-1.45-17.794-2.5-26.154A14.409,14.409,0,0,0,2560.771,341.327Zm-2.078,24.391a.843.843,0,1,1,.843-.843A.843.843,0,0,1,2558.693,365.718Zm.928-6.6a2.824,2.824,0,0,1-3.214-2.371c0-.032-.01-.065-.013-.1a2.96,2.96,0,0,1,2.654-3.167,2.823,2.823,0,0,1,3.215,2.37c.005.033.009.066.013.1A2.962,2.962,0,0,1,2559.621,359.118Zm3.736,8.807a.847.847,0,0,1-.008-1.694h.008a.847.847,0,0,1,0,1.694Zm2.264-4.381a.848.848,0,1,1-.852-.843h.008A.848.848,0,0,1,2565.621,363.544Zm-.452-10.6c-.343.4-2.691-1.1-5.871-.888s-5.406,1.953-5.777,1.586c-.182-.162.149-.88,1.117-1.687a8.077,8.077,0,0,1,4.58-1.747,7.8,7.8,0,0,1,4.7,1.191C2564.959,352.1,2565.338,352.759,2565.169,352.941Z" fill="#ffbe9d"/>
      <path id="Tracé_1389" data-name="Tracé 1389" d="M2510.2,361.579a8.674,8.674,0,0,1,2.616-1.525,14.8,14.8,0,0,1,1.143-6.673,45.286,45.286,0,0,1-7.733,3.272,17.034,17.034,0,0,1,2.512,6.322A11.358,11.358,0,0,1,2510.2,361.579Z" fill="#ffbe9d"/>
      <path id="Tracé_1390" data-name="Tracé 1390" d="M2559.048,353.482a2.96,2.96,0,0,0-2.654,3.167c0,.033.008.066.013.1a2.824,2.824,0,0,0,3.214,2.371,2.962,2.962,0,0,0,2.655-3.167c0-.033-.008-.066-.013-.1A2.823,2.823,0,0,0,2559.048,353.482Z" fill="#00002f"/>
      <path id="Tracé_1391" data-name="Tracé 1391" d="M2554.638,351.952c-.968.807-1.3,1.525-1.117,1.687.371.367,2.6-1.372,5.777-1.586s5.528,1.291,5.871.888c.169-.182-.21-.843-1.251-1.545a7.8,7.8,0,0,0-4.7-1.191A8.077,8.077,0,0,0,2554.638,351.952Z" fill="#00002f"/>
      <path id="Tracé_1392" data-name="Tracé 1392" d="M2528.474,356.677a2.962,2.962,0,0,0-2.655,3.167c0,.033.009.066.014.1a2.823,2.823,0,0,0,3.214,2.37,2.961,2.961,0,0,0,2.655-3.167c0-.033-.008-.066-.013-.1A2.824,2.824,0,0,0,2528.474,356.677Z" fill="#00002f"/>
      <path id="Tracé_1393" data-name="Tracé 1393" d="M2528.075,354.664c3.175-.214,5.523,1.291,5.866.887.169-.181-.21-.859-1.231-1.545a7.806,7.806,0,0,0-4.7-1.19,8.159,8.159,0,0,0-4.6,1.747c-.973.807-1.295,1.525-1.114,1.686C2522.664,356.616,2524.9,354.877,2528.075,354.664Z" fill="#00002f"/>
      <path id="Tracé_1394" data-name="Tracé 1394" d="M2543.826,351.969c-.1.047.1.762.553,1.978a5.506,5.506,0,0,1,.643-.138C2544.362,352.6,2543.932,351.919,2543.826,351.969Z" fill="#00002f"/>
      <path id="Tracé_1395" data-name="Tracé 1395" d="M2550.281,367.8q1.466,3.18,2.8,6.052a4.676,4.676,0,0,1,.7,2.372c-.1.561-.859.775-1.666.908-3.175.618-5.132,1.086-5.1,1.267s2.021.036,5.217-.367a5.62,5.62,0,0,0,1.368-.278,2.045,2.045,0,0,0,1.258-1.275,4.713,4.713,0,0,0-.625-3.159q-1.295-2.894-2.7-6.073c-2.494-5.484-4.8-10.245-6.235-12.937a6.72,6.72,0,0,0-.725.131C2545.633,357.255,2547.736,362.2,2550.281,367.8Z" fill="#00002f"/>
      <path id="Tracé_1396" data-name="Tracé 1396" d="M2519.227,407.384s8.731,15.513,31.659,11.869l-.262-5.628A58.557,58.557,0,0,1,2519.227,407.384Z" fill="#aa6550"/>
      <path id="Tracé_1397" data-name="Tracé 1397" d="M2533.961,343.036c.1-.42-.625-1.053-2.033-1.517a12.638,12.638,0,0,0-3.085-.473q-1.408,1.725-2.965,3.318a15.1,15.1,0,0,1,1.831-.111C2531.012,343.742,2533.725,343.846,2533.961,343.036Z" fill="#00002f"/>
      <path id="Tracé_1398" data-name="Tracé 1398" d="M2558.015,344.1c2.635-.133,4.874.472,5.387-.282.225-.372-.13-1.094-1.106-1.776a7.758,7.758,0,0,0-1.525-.712,14.382,14.382,0,0,0-6.905,3.155C2554.879,344.434,2556.36,344.125,2558.015,344.1Z" fill="#00002f"/>
      <path id="Tracé_1399" data-name="Tracé 1399" d="M2553.6,342.33c-.931.746-1.234,1.493-.988,1.844a.828.828,0,0,0,.5.256c.341-.3.691-.591,1.059-.857a13.932,13.932,0,0,1,3.781-2.018,15.063,15.063,0,0,1,1.792-.517A7.785,7.785,0,0,0,2553.6,342.33Z" fill="#00002f"/>
      <path id="Tracé_1400" data-name="Tracé 1400" d="M2548.336,390.229a11.885,11.885,0,0,1-4.986-1.614,13.691,13.691,0,0,1-3.25-2.522,4.732,4.732,0,0,0-.7,3.49,5.128,5.128,0,0,0,4.438,3.918,5.561,5.561,0,0,0,5.269-2.825,4.4,4.4,0,0,0,.225-.47A5.644,5.644,0,0,1,2548.336,390.229Z" fill="#cc6868"/>
      <path id="Tracé_1401" data-name="Tracé 1401" d="M2548.583,388.913c.386.13.726.229,1.012.316a2.424,2.424,0,0,0-.177-1.32,3.665,3.665,0,0,0-1.5-1.489c-2.106-1.315-3.357-2.021-5.842-2.046a4.725,4.725,0,0,0-.905.566,29.661,29.661,0,0,0,3.128,2.016A24.55,24.55,0,0,0,2548.583,388.913Z" fill="#cc6868"/>
      <path id="Tracé_1402" data-name="Tracé 1402" d="M2540.1,386.093a13.691,13.691,0,0,0,3.25,2.522,11.885,11.885,0,0,0,4.986,1.614,5.644,5.644,0,0,0,.992-.023c.771-.087,1.216-.329,1.187-.5s-.366-.307-.92-.475c-.286-.087-.626-.186-1.012-.316a24.55,24.55,0,0,1-4.289-1.957,29.661,29.661,0,0,1-3.128-2.016c-1.482-1.075-2.419-1.885-2.674-1.711-.21.133.04.972.872,2.041C2539.6,385.556,2539.846,385.827,2540.1,386.093Z" fill="#00002f"/>
      <path id="Tracé_1403" data-name="Tracé 1403" d="M2534.813,369.854a.844.844,0,1,0-.844-.843A.844.844,0,0,0,2534.813,369.854Z" fill="#aa6550"/>
      <path id="Tracé_1404" data-name="Tracé 1404" d="M2558.693,364.032a.843.843,0,1,0,.843.843A.843.843,0,0,0,2558.693,364.032Z" fill="#aa6550"/>
      <path id="Tracé_1405" data-name="Tracé 1405" d="M2563.357,366.231h-.008a.847.847,0,1,0,.008,0Z" fill="#aa6550"/>
      <path id="Tracé_1406" data-name="Tracé 1406" d="M2564.769,362.7a.848.848,0,1,0,.008,0Z" fill="#aa6550"/>
      <path id="Tracé_1407" data-name="Tracé 1407" d="M2530.939,371.895a.835.835,0,0,0-.624,1.4,14.4,14.4,0,0,0,1.418-.31.828.828,0,0,0,.049-.245A.843.843,0,0,0,2530.939,371.895Z" fill="#aa6550"/>
      <path id="Tracé_1408" data-name="Tracé 1408" d="M2527.784,368.5h0a.848.848,0,1,0,.851.843A.848.848,0,0,0,2527.78,368.5Z" fill="#aa6550"/>
      <path id="Tracé_1409" data-name="Tracé 1409" d="M2542.044,355.348a13.915,13.915,0,0,0-1.539-3.775,14.837,14.837,0,0,0-12.8-7.32,15.1,15.1,0,0,0-1.831.111c-.24.246-.477.494-.721.735a14.293,14.293,0,0,1,11.39,2.532,14.6,14.6,0,0,1,5.346,7.952,26.01,26.01,0,0,1,.558,3.549,23.853,23.853,0,0,1-.558,3.552,14.341,14.341,0,1,1-26.7-9.993c-.409.235-.82.467-1.236.69a14.8,14.8,0,0,0-1.143,6.673c.076-.016.133-.021.144,0s-.038.087-.126.167a14.885,14.885,0,0,0,27.67,6.474,13.911,13.911,0,0,0,1.59-3.962,10.777,10.777,0,0,0,.274-1.533,6.838,6.838,0,0,0,.089-1.134v-.7a.909.909,0,0,0,0-.226.864.864,0,0,0,0-.238v-.7a6.993,6.993,0,0,0-.089-1.138,10.887,10.887,0,0,0-.274-1.529c-.01-.041-.023-.081-.033-.122-.011,0-.031.008-.036,0S2542.031,355.377,2542.044,355.348Z" fill="#fff"/>
      <path id="Tracé_1410" data-name="Tracé 1410" d="M2547.921,354.115a5.635,5.635,0,0,0-2.9-.306,5.506,5.506,0,0,0-.643.138,5.616,5.616,0,0,0-1.578.7,2.265,2.265,0,0,0-.757.7c-.013.029-.026.058-.018.066s.025,0,.036,0a16.8,16.8,0,0,1,2.5-.976,6.72,6.72,0,0,1,.725-.131l.054-.01a7.3,7.3,0,0,1,2.816.269c.007-.108.018-.215.028-.323C2548.1,354.2,2548.022,354.157,2547.921,354.115Z" fill="#fff"/>
      <path id="Tracé_1411" data-name="Tracé 1411" d="M2548.816,354.7c.012-.018-.033-.068-.1-.129,0,.046,0,.092-.006.139C2548.767,354.72,2548.808,354.72,2548.816,354.7Z" fill="#fff"/>
      <path id="Tracé_1412" data-name="Tracé 1412" d="M2476.718,355.922c.1.56.216,1.119.334,1.677a17.133,17.133,0,0,1,1.474-4.674,17.621,17.621,0,0,1,3.671-5.152,35.216,35.216,0,0,1,5.532-4.709,29.344,29.344,0,0,1,7.181-3.6c2.639-.9,5.431-1.613,8.279-2.315s5.624-1.417,8.227-2.328a51.229,51.229,0,0,0,7.286-3.164,54.237,54.237,0,0,0,10.991-7.73,54.852,54.852,0,0,0,6.181-6.657c.673-.835,1.157-1.517,1.492-1.973a5.559,5.559,0,0,1,.541-.682,5.6,5.6,0,0,1-.452.743c-.307.476-.767,1.178-1.416,2.037a50.59,50.59,0,0,1-6.092,6.806,53.2,53.2,0,0,1-11.015,7.888,50.852,50.852,0,0,1-7.347,3.228c-2.626.928-5.418,1.638-8.267,2.356s-5.648,1.408-8.242,2.288a29.144,29.144,0,0,0-7.073,3.51,35.281,35.281,0,0,0-5.491,4.587,17.558,17.558,0,0,0-3.631,5.011,16.47,16.47,0,0,0-1.633,5.435,47.991,47.991,0,0,1,.969,5.291l.019.032a13.958,13.958,0,0,1,2.743-7.042,15.461,15.461,0,0,1,2.263-2.449,18.193,18.193,0,0,1,2.994-2.017,26.243,26.243,0,0,1,7.5-2.579c5.495-1.149,11.681-.867,17.986-1.811a27.509,27.509,0,0,0,8.82-2.744,26.545,26.545,0,0,0,6.819-5.245,41.772,41.772,0,0,0,7.859-12.321c1.678-3.821,2.719-7.085,3.478-9.308l.863-2.566c.036-.1.066-.192.1-.28a42.93,42.93,0,0,0-5.338-2.6,15.651,15.651,0,0,1-1.485,1.8,26.105,26.105,0,0,1-9.412,6.12,39.373,39.373,0,0,1-7.508,2.106,84.324,84.324,0,0,1-8.877,1.045c-6.253.5-13.237.545-20.173,2.619a29.164,29.164,0,0,0-4.249,1.58A39.168,39.168,0,0,0,2476.718,355.922Z" fill="#00002f"/>
      <path id="Tracé_1413" data-name="Tracé 1413" d="M2498.78,414.125q-1.255-1-2.427-2.09c-.18.159-.372.3-.56.454,1.344,1.769,2.8,2.867,4.42,2.745-.026-.02-.057-.034-.082-.055C2499.816,414.945,2499.361,414.589,2498.78,414.125Z" fill="#00002f"/>
      <path id="Tracé_1414" data-name="Tracé 1414" d="M2497.158,324.142c3.413-.323,6.709-.476,9.84-.694a84.6,84.6,0,0,0,8.84-.993,39.732,39.732,0,0,0,7.452-2.017,26.579,26.579,0,0,0,9.4-5.919c.524-.543,1.011-1.118,1.479-1.709-12.029-4.814-26.19-4.326-37.495,1.978-.359.2-.728.382-1.082.6a39.813,39.813,0,0,0-12.428,11.917,29.635,29.635,0,0,1,3.548-1.254A53.332,53.332,0,0,1,2497.158,324.142Z" fill="#00002f"/>
      <path id="Tracé_1415" data-name="Tracé 1415" d="M2539.542,316.19l1.258-.069c-.348-.215-.712-.4-1.067-.608-.023.084-.045.168-.071.265C2539.625,315.9,2539.584,316.046,2539.542,316.19Z" fill="#00002f"/>
      <path id="Tracé_1416" data-name="Tracé 1416" d="M2508.475,393.436c-.115-9.99,1.956-21.487.355-30-.406.344-.672.551-.726.5s.177-.441.631-.964a17.034,17.034,0,0,0-2.512-6.322,45.286,45.286,0,0,0,7.733-3.272c.416-.223.827-.455,1.236-.69a49.109,49.109,0,0,0,9.965-7.592c.244-.241.481-.489.721-.735q1.553-1.595,2.965-3.318a48.823,48.823,0,0,0,10.079-21.01c.257-1.263.465-2.535.611-3.818-.17.579-.383,1.3-.637,2.158a97.571,97.571,0,0,1-3.329,9.4,41.5,41.5,0,0,1-7.851,12.507,26.919,26.919,0,0,1-6.932,5.362,28,28,0,0,1-8.977,2.824c-6.39.949-12.547.654-17.978,1.764-5.406,1-10.086,3.385-12.552,6.8a13.822,13.822,0,0,0-2.819,7.157c.246.366.417.554.375.577a4.674,4.674,0,0,1-.388-.433c-.008.121,0,.231-.007.349.179.042.358.077.536.124a3.265,3.265,0,0,1-.133-.649,2.772,2.772,0,0,1,.213.557c.013.039.022.079.034.118a20.519,20.519,0,0,1,13.349,11.255l-.294-.633a44.637,44.637,0,0,1,8.5,16.207c1.84,6.233,1.388,13.459-2.614,18.591a13.278,13.278,0,0,1-1.443,1.554q1.132,1.113,2.339,2.15l1.283,1.126c.048.038.082.091.127.133a3.373,3.373,0,0,0,.426-.065l.014-.011C2508.6,408.985,2508.608,405.532,2508.475,393.436Z" fill="#00002f"/>
      <path id="Tracé_1417" data-name="Tracé 1417" d="M2457.481,375.91a13.961,13.961,0,0,1,1.55-.545,21.233,21.233,0,0,1,4.2-.807,24.791,24.791,0,0,1,5.245.1,25.147,25.147,0,0,1,5.083,1.275,20.286,20.286,0,0,1,3.817,1.929,12.575,12.575,0,0,1,1.339.952,7.37,7.37,0,0,1,.941.807c.117.111.219.21.309.3a19.825,19.825,0,0,1-.81-2.9,19.367,19.367,0,0,1-.4-4.361c.056-1.348.323-2.53.44-3.571,0-.021,0-.043.005-.065l-.1-.185a9.054,9.054,0,0,1-.787-2.6,8.639,8.639,0,0,1-.106-1.213q-.416-.27-.815-.563a18.777,18.777,0,0,0-4.223-.278,20.511,20.511,0,0,0-17.545,12.644,4.056,4.056,0,0,1,.737-.411A8.2,8.2,0,0,1,2457.481,375.91Z" fill="#00002f"/>
      <path id="Tracé_1418" data-name="Tracé 1418" d="M2477.729,364.519c.151.113.313.214.468.324,0-.072,0-.143,0-.217C2478.04,364.592,2477.885,364.549,2477.729,364.519Z" fill="#00002f"/>
      <path id="Tracé_1419" data-name="Tracé 1419" d="M2479.107,365.474c-.046-.262-.092-.483-.133-.668-.178-.047-.357-.082-.536-.124,0,.11-.006.218-.006.324C2478.657,365.162,2478.875,365.327,2479.107,365.474Z" fill="#00002f"/>
      <path id="Tracé_1420" data-name="Tracé 1420" d="M2479.813,365.9a1.121,1.121,0,0,1,.226.161.91.91,0,0,1-.25-.109l-.467-.245c.051.227.1.455.136.685a11.16,11.16,0,0,1,.032,2.728c-.007.08-.019.167-.028.249.085.177.133.278.1.287a1.311,1.311,0,0,1-.117-.174c-.108.968-.294,2.026-.323,3.188a20.932,20.932,0,0,0,2.07,8.908,15.9,15.9,0,0,0,3.2,4.354,32.305,32.305,0,0,1,4.035,4.369,8.665,8.665,0,0,1,1.291,2.792,13.258,13.258,0,0,1,.371,2.941,41.282,41.282,0,0,0,.218,5.467,16.338,16.338,0,0,0,4.14,8.069q1.031,1.153,2.135,2.236a13.278,13.278,0,0,0,1.443-1.554c4-5.132,4.454-12.358,2.614-18.591a44.637,44.637,0,0,0-8.5-16.207l.294.633a20.519,20.519,0,0,0-13.349-11.255c.079.251.151.5.212.761Z" fill="#00002f"/>
      <path id="Tracé_1421" data-name="Tracé 1421" d="M2494.16,409.829a16.675,16.675,0,0,1-4.345-8.247,40.675,40.675,0,0,1-.251-5.531,12.4,12.4,0,0,0-.513-3.291c-.013.226-.017.452-.043.676a19.075,19.075,0,0,1-.989,4.281A20.879,20.879,0,0,1,2464.99,411.5a19.077,19.077,0,0,1-4.237-1.15,11.177,11.177,0,0,1-1.085-.5c-.246-.121-.371-.194-.363-.21a29.9,29.9,0,0,0,5.741,1.489,21.87,21.87,0,0,0,6.391-.1,20.3,20.3,0,0,0,13.141-7.843,21.769,21.769,0,0,0,3.11-5.584,22.722,22.722,0,0,0,1.273-5.125,7.3,7.3,0,0,0-.978-1.879,27,27,0,0,0-2.875-3.2,5.815,5.815,0,0,1-.248,1.058,19.488,19.488,0,0,1-1.432,3.607,23.331,23.331,0,0,1-8.658,9.28,25.133,25.133,0,0,1-12.2,3.575,22.5,22.5,0,0,1-3.873-.2,6.424,6.424,0,0,1-1.392-.287,50.711,50.711,0,0,0,5.245.113,26.067,26.067,0,0,0,11.938-3.651,24.087,24.087,0,0,0,8.6-9.005,26.536,26.536,0,0,0,1.944-4.56c-.346-.345-.691-.687-1.028-1.032a16.215,16.215,0,0,1-3.276-4.5c-.258-.537-.482-1.089-.689-1.646a33.672,33.672,0,0,0-2.866-1.965,22.342,22.342,0,0,0-3.792-1.791,26.65,26.65,0,0,0-4.987-1.21,26.045,26.045,0,0,0-5.124-.146,23.571,23.571,0,0,0-4.139.694,34.464,34.464,0,0,0-3.557,1.191c-.137.349-.274.7-.389,1.057a20.464,20.464,0,0,0,6.528,21.7c-2.292-.505-4.6,1.46-5.116,3.752a8.773,8.773,0,0,0,1.714,6.629c4.766,6.963,15.57,8.8,22.368,3.8,4.51,3.043,10.824,2.045,15.109-1.374.188-.15.38-.3.56-.454Q2495.216,410.975,2494.16,409.829Z" fill="#00002f"/>
      <path id="Tracé_1422" data-name="Tracé 1422" d="M2478.506,366.227a10.445,10.445,0,0,0,.7,2.583,11.389,11.389,0,0,0,.034-2.394c-.035-.3-.075-.568-.116-.811l-.045-.024c-.224-.129-.436-.275-.654-.413A8.451,8.451,0,0,0,2478.506,366.227Z" fill="#00002f"/>
      <path id="Tracé_1423" data-name="Tracé 1423" d="M2477.4,361.8a9.346,9.346,0,0,1-.156-3.3,16.47,16.47,0,0,1,1.633-5.435,17.558,17.558,0,0,1,3.631-5.011,35.281,35.281,0,0,1,5.491-4.587,29.144,29.144,0,0,1,7.073-3.51c2.594-.88,5.394-1.57,8.242-2.288s5.641-1.428,8.267-2.356a50.852,50.852,0,0,0,7.347-3.228,53.2,53.2,0,0,0,11.015-7.888,50.59,50.59,0,0,0,6.092-6.806c.649-.859,1.109-1.561,1.416-2.037a5.6,5.6,0,0,0,.452-.743,5.559,5.559,0,0,0-.541.682c-.335.456-.819,1.138-1.492,1.973a54.852,54.852,0,0,1-6.181,6.657,54.237,54.237,0,0,1-10.991,7.73,51.229,51.229,0,0,1-7.286,3.164c-2.6.911-5.378,1.625-8.227,2.328s-5.64,1.416-8.279,2.315a29.344,29.344,0,0,0-7.181,3.6,35.216,35.216,0,0,0-5.532,4.709,17.621,17.621,0,0,0-3.671,5.152,17.133,17.133,0,0,0-1.474,4.674,9.976,9.976,0,0,0,.134,4.266,6.673,6.673,0,0,0,1.029,2.19c0-.073.015-.149.021-.223l-.019-.032A7.879,7.879,0,0,1,2477.4,361.8Z" fill="#001551"/>
      <path id="Tracé_1424" data-name="Tracé 1424" d="M2478.833,364.766c.042-.023-.129-.211-.375-.577,0,.047-.01.1-.013.144A4.674,4.674,0,0,0,2478.833,364.766Z" fill="#001551"/>
      <path id="Tracé_1425" data-name="Tracé 1425" d="M2575.76,363.124a13.931,13.931,0,0,0,1.585-3.958,10.359,10.359,0,0,0,.275-1.533,7.019,7.019,0,0,0,.088-1.138v-.7a.947.947,0,0,0,0-.238,25.3,25.3,0,0,1-.561,3.555c-.114.44-.25.875-.405,1.3a14.545,14.545,0,0,1-18.614,8.686,14.474,14.474,0,0,1-6.677-5.031,14.409,14.409,0,0,1-2.743-9.362c0-.047,0-.093.006-.139a14.439,14.439,0,0,1,23.1-10.522,14.615,14.615,0,0,1,5.346,7.952,27.818,27.818,0,0,1,.56,3.558.945.945,0,0,0-.016-.23v-.7a6.958,6.958,0,0,0-.088-1.133,10.373,10.373,0,0,0-.275-1.534,13.863,13.863,0,0,0-1.59-3.957,15.073,15.073,0,0,0-9.973-7.069,15.064,15.064,0,0,0-7.827.621,13.932,13.932,0,0,0-3.781,2.018c-.368.266-.718.556-1.059.857a14.107,14.107,0,0,0-2.1,2.306,14.748,14.748,0,0,0-2.828,7.506c-.01.108-.021.215-.028.323a14.857,14.857,0,0,0,27.6,8.559Z" fill="#fff"/>
      <path id="Tracé_1426" data-name="Tracé 1426" d="M2498.929,413.956q-1.206-1.035-2.339-2.15-1.1-1.083-2.135-2.236a16.338,16.338,0,0,1-4.14-8.069,41.282,41.282,0,0,1-.218-5.467,13.258,13.258,0,0,0-.371-2.941,8.665,8.665,0,0,0-1.291-2.792,32.305,32.305,0,0,0-4.035-4.369,15.9,15.9,0,0,1-3.2-4.354,20.932,20.932,0,0,1-2.07-8.908c.029-1.162.215-2.22.323-3.188a.2.2,0,0,1-.016-.024l-.241-.436c0,.022,0,.044-.005.065-.117,1.041-.384,2.223-.44,3.571a19.367,19.367,0,0,0,.4,4.361,19.825,19.825,0,0,0,.81,2.9c.288.283.434.447.413.468-.108-.084-.222-.16-.33-.242.207.557.431,1.109.689,1.646a16.215,16.215,0,0,0,3.276,4.5c.337.345.682.687,1.028,1.032.058-.164.1-.265.122-.258-.01.111-.034.22-.051.33a27,27,0,0,1,2.875,3.2,7.3,7.3,0,0,1,.978,1.879c.054-.4.084-.643.123-.637a1.146,1.146,0,0,1,0,.4c0,.172-.023.343-.033.514a12.4,12.4,0,0,1,.513,3.291,40.675,40.675,0,0,0,.251,5.531,16.675,16.675,0,0,0,4.345,8.247q1.053,1.146,2.193,2.206,1.172,1.092,2.427,2.09c.581.464,1.036.82,1.351,1.054.025.021.056.035.082.055a2.7,2.7,0,0,0,.41.279h0a2.372,2.372,0,0,0-.285-.3c-.045-.042-.079-.1-.127-.133Z" fill="#001551"/>
      <path id="Tracé_1427" data-name="Tracé 1427" d="M2479.139,365.5l.161.1c-.061-.257-.133-.51-.212-.761-.012-.039-.021-.079-.034-.118a2.772,2.772,0,0,0-.213-.557,3.265,3.265,0,0,0,.133.649c.041.185.087.406.133.668Z" fill="#001551"/>
      <path id="Tracé_1428" data-name="Tracé 1428" d="M2479.21,368.81c.1.24.187.422.252.559.009-.082.021-.169.028-.249a11.16,11.16,0,0,0-.032-2.728c-.036-.23-.085-.458-.136-.685l-.194-.1c.041.243.081.509.116.811A11.389,11.389,0,0,1,2479.21,368.81Z" fill="#001551"/>
      <path id="Tracé_1429" data-name="Tracé 1429" d="M2487.688,397.6a21.769,21.769,0,0,1-3.11,5.584,20.3,20.3,0,0,1-13.141,7.843,21.87,21.87,0,0,1-6.391.1,29.9,29.9,0,0,1-5.741-1.489c-.008.016.117.089.363.21a11.177,11.177,0,0,0,1.085.5,19.077,19.077,0,0,0,4.237,1.15,20.879,20.879,0,0,0,23.029-13.786,19.075,19.075,0,0,0,.989-4.281c.026-.224.03-.45.043-.676.01-.171.032-.342.033-.514a1.146,1.146,0,0,0,0-.4c-.039-.006-.069.234-.123.637A22.722,22.722,0,0,1,2487.688,397.6Z" fill="#001551"/>
      <path id="Tracé_1430" data-name="Tracé 1430" d="M2483.093,391.887a24.087,24.087,0,0,1-8.6,9.005,26.067,26.067,0,0,1-11.938,3.651,50.711,50.711,0,0,1-5.245-.113,6.424,6.424,0,0,0,1.392.287,22.5,22.5,0,0,0,3.873.2,25.133,25.133,0,0,0,12.2-3.575,23.331,23.331,0,0,0,8.658-9.28,19.488,19.488,0,0,0,1.432-3.607,5.815,5.815,0,0,0,.248-1.058c.017-.11.041-.219.051-.33-.023-.007-.064.094-.122.258A26.536,26.536,0,0,1,2483.093,391.887Z" fill="#001551"/>
      <path id="Tracé_1431" data-name="Tracé 1431" d="M2463.275,375.038a26.045,26.045,0,0,1,5.124.146,26.65,26.65,0,0,1,4.987,1.21,22.342,22.342,0,0,1,3.792,1.791,33.672,33.672,0,0,1,2.866,1.965c.108.082.222.158.33.242.021-.021-.125-.185-.413-.468-.09-.088-.192-.187-.309-.3a7.37,7.37,0,0,0-.941-.807,12.575,12.575,0,0,0-1.339-.952,20.286,20.286,0,0,0-3.817-1.929,25.147,25.147,0,0,0-5.083-1.275,24.791,24.791,0,0,0-5.245-.1,21.233,21.233,0,0,0-4.2.807,13.961,13.961,0,0,0-1.55.545,8.2,8.2,0,0,0-1.129.5,4.056,4.056,0,0,0-.737.411c-.058.04-.119.075-.175.118.007.016.063,0,.139-.02a34.464,34.464,0,0,1,3.557-1.191A23.571,23.571,0,0,1,2463.275,375.038Z" fill="#001551"/>
      <path id="Tracé_1432" data-name="Tracé 1432" d="M2512.957,360.054c-.011-.021-.068-.016-.144,0a8.674,8.674,0,0,0-2.616,1.525,11.358,11.358,0,0,0-1.462,1.4c-.454.523-.692.915-.631.964s.32-.16.726-.5c.434-.367,1.027-.89,1.706-1.44,1.036-.839,1.972-1.477,2.3-1.774C2512.919,360.141,2512.971,360.08,2512.957,360.054Z" fill="#fff"/>
      <path id="Tracé_1433" data-name="Tracé 1433" d="M2539.662,315.778c.026-.1.048-.181.071-.265.042-.154.081-.3.115-.413a.918.918,0,0,0,.044-.238,1.026,1.026,0,0,0-.1.222c-.04.11-.086.242-.137.386-.031.088-.061.177-.1.28l-.863,2.566c-.759,2.223-1.8,5.487-3.478,9.308a41.772,41.772,0,0,1-7.859,12.321,26.545,26.545,0,0,1-6.819,5.245,27.509,27.509,0,0,1-8.82,2.744c-6.3.944-12.491.662-17.986,1.811a26.243,26.243,0,0,0-7.5,2.579,18.193,18.193,0,0,0-2.994,2.017,15.461,15.461,0,0,0-2.263,2.449,13.958,13.958,0,0,0-2.743,7.042c-.006.074-.017.15-.021.223-.013.2-.017.384-.019.571,0,.074,0,.145,0,.217.077.055.157.109.235.163,0-.106,0-.214.006-.324s0-.228.007-.349c0-.047.009-.1.013-.144a13.822,13.822,0,0,1,2.819-7.157c2.466-3.417,7.146-5.806,12.552-6.8,5.431-1.11,11.588-.815,17.978-1.764a28,28,0,0,0,8.977-2.824,26.919,26.919,0,0,0,6.932-5.362,41.5,41.5,0,0,0,7.851-12.507,97.571,97.571,0,0,0,3.329-9.4c.254-.862.467-1.579.637-2.158l.009-.028C2539.584,316.046,2539.625,315.9,2539.662,315.778Z" fill="#fafafa"/>
      <path id="Tracé_1434" data-name="Tracé 1434" d="M2479.462,369.369c-.065-.137-.152-.319-.252-.559a10.445,10.445,0,0,1-.7-2.583,8.451,8.451,0,0,1-.077-1.059c-.077-.048-.155-.1-.231-.146a8.639,8.639,0,0,0,.106,1.213,9.054,9.054,0,0,0,.787,2.6l.1.185.241.436a.2.2,0,0,0,.016.024,1.311,1.311,0,0,0,.117.174C2479.595,369.647,2479.547,369.546,2479.462,369.369Z" fill="#fafafa"/>
      <path id="Tracé_1435" data-name="Tracé 1435" d="M2478.429,365.168c.218.138.43.284.654.413l.045.024.194.1.467.245a.91.91,0,0,0,.25.109,1.121,1.121,0,0,0-.226-.161l-.513-.307-.161-.1-.032-.023c-.232-.147-.45-.312-.675-.468-.078-.054-.158-.108-.235-.163-.155-.11-.317-.211-.468-.324a21.651,21.651,0,0,1-7.349-9.916,20.658,20.658,0,0,1,.964-16.05,20.392,20.392,0,0,1,6.145-7.435,30.649,30.649,0,0,1,9.376-4.563c6.936-2.074,13.92-2.123,20.173-2.619a84.324,84.324,0,0,0,8.877-1.045,39.373,39.373,0,0,0,7.508-2.106,26.105,26.105,0,0,0,9.412-6.12,16.546,16.546,0,0,0,2.457-3.325.952.952,0,0,0-.173.21l-.464.645c-.155.211-.324.41-.486.615-.468.591-.955,1.166-1.479,1.709a26.579,26.579,0,0,1-9.4,5.919,39.732,39.732,0,0,1-7.452,2.017,84.6,84.6,0,0,1-8.84.993c-3.131.218-6.427.371-9.84.694a53.332,53.332,0,0,0-10.446,1.9,29.939,29.939,0,0,0-9.538,4.668,21.142,21.142,0,0,0-7.145,24.022,21.27,21.27,0,0,0,6.528,9.1c.267.219.548.418.826.621s.538.383.815.563C2478.274,365.072,2478.352,365.12,2478.429,365.168Z" fill="#001551"/>
    </g>
  </g>
</svg>
