<svg xmlns="http://www.w3.org/2000/svg" width="222" height="222" viewBox="0 0 222 222">
  <g id="Groupe_233" data-name="Groupe 233" transform="translate(-3326 -600)">
    <rect id="Rectangle_2122" data-name="Rectangle 2122" width="222" height="222" rx="44.5" transform="translate(3326 600)" fill="#f4f4f4"/>
    <g id="Groupe_232" data-name="Groupe 232">
      <path id="Tracé_1510" data-name="Tracé 1510" d="M3387.6,660.337c.062-1.121.18-2.228.337-3.322-.083,0-.165.013-.248.016C3387.648,657.863,3387.62,659,3387.6,660.337Z" fill="none"/>
      <path id="Tracé_1511" data-name="Tracé 1511" d="M3435.675,757.521c12.688-1.244,21.436-11,23.755-13.865l-.557-44.736c-.212-.054-.334-.106-.338-.143-.034-.339-.484-14.372-.627-18.832-1.385,1.708-2.408,3.8-5.058,2.787-1.594-.622-3.074-4.011-3.611-5.624a80,80,0,0,1-3.445-15.823c-.094-.34-.177-.68-.251-1.014a23.586,23.586,0,0,1-.46-3.542,53.248,53.248,0,0,1,.154-6.722c.141-2.146.286-4.168.286-6.052,0-.32-.012-.639-.023-.958a25.707,25.707,0,0,0-7.659-5.461l.242.218c-5.72-1.985-12.2-3.942-17.631-1.255-4.212,2.086-6.689,6.456-9.84,9.946a32.139,32.139,0,0,1-22.673,10.57c-.157,1.094-.275,2.2-.337,3.322-.1,7.368.125,21.112-.047,27.028.1,9.756.331,18.393.794,23.827,1.751,20.5,22.493,22.19,22.493,22.19v-.016s12.979-.186,26.116-9.84c0,0-5.418,15.448-26.01,15.1.023,1.705.049,3.713.075,5.874C3412.738,746.84,3422.221,758.84,3435.675,757.521Zm-36.792-77.283a2.774,2.774,0,0,1-2.872-2.6c0-.024,0-.049,0-.073a2.655,2.655,0,0,1,2.676-2.634,2.779,2.779,0,0,1,2.872,2.6c0,.021,0,.041,0,.061A2.658,2.658,0,0,1,3398.883,680.238Zm4.975-8.795c-.363.44-2.921-1.239-6.355-1.15s-5.8,1.985-6.2,1.582c-.2-.186.133-.969,1.166-1.828a8.259,8.259,0,0,1,4.927-1.791,8.545,8.545,0,0,1,5.1,1.448C3403.612,670.487,3404.036,671.245,3403.858,671.443Zm.157-7.908c-.343.65-3.054.174-6.282.335-3.243.1-5.922.787-6.281.165-.162-.294.359-.895,1.476-1.492a11.7,11.7,0,0,1,4.773-1.174,11.3,11.3,0,0,1,4.8.807C3403.612,662.672,3404.165,663.224,3404.015,663.535Zm4.785,31.28a5.452,5.452,0,0,1-1.379-.092,2.023,2.023,0,0,1-1.409-1.078,4.671,4.671,0,0,1,.186-3.191l1.828-6.326c2.662-8.965,5.128-16.147,5.487-16.042s-1.5,7.452-4.176,16.413l-1.941,6.318a4.659,4.659,0,0,0-.363,2.421c.174.536.952.641,1.759.666,3.2.173,5.185.371,5.185.548S3412.008,694.763,3408.8,694.815Zm15.735,2.167a10.376,10.376,0,0,1-1.807,4.111,8.412,8.412,0,0,1-3.591,2.748c-1.073.427-1.795.46-1.836.343-.153-.355,2.6-1.182,4.535-3.765a15.718,15.718,0,0,0,1.945-3.667c.4-1.021.722-1.662.871-1.614S3424.761,695.872,3424.535,696.982Zm4.418-16.744a2.766,2.766,0,0,1-2.872-2.6c0-.024,0-.049,0-.073a2.655,2.655,0,0,1,2.675-2.634,2.772,2.772,0,0,1,2.869,2.6c0,.025,0,.049,0,.073A2.651,2.651,0,0,1,3428.953,680.238Zm6.193-10.09c-.363.444-2.929-1.243-6.358-1.15s-5.8,1.985-6.2,1.582c-.2-.182.133-.965,1.166-1.828a8.3,8.3,0,0,1,4.926-1.791,8.594,8.594,0,0,1,5.1,1.448C3434.9,669.2,3435.324,669.954,3435.146,670.148Zm1.663-11.951c-.38.731-3.083-.064-6.375-.161-3.288-.169-6.036.4-6.371-.359-.161-.363.4-1.017,1.574-1.614a10.771,10.771,0,0,1,9.711.4C3436.466,657.144,3436.978,657.846,3436.809,658.2Z" fill="#ffbe9d"/>
      <path id="Tracé_1512" data-name="Tracé 1512" d="M3436.958,723.526c-13.137,9.654-26.116,9.84-26.116,9.84v.024l.1,5.233h0C3431.54,738.974,3436.958,723.526,3436.958,723.526Z" fill="#eb996e"/>
      <path id="Tracé_1513" data-name="Tracé 1513" d="M3433.779,668.409a8.594,8.594,0,0,0-5.1-1.448,8.3,8.3,0,0,0-4.926,1.791c-1.033.863-1.368,1.646-1.166,1.828.4.4,2.771-1.489,6.2-1.582s5.995,1.594,6.358,1.15C3435.324,669.954,3434.9,669.2,3433.779,668.409Z" fill="#00002f"/>
      <path id="Tracé_1514" data-name="Tracé 1514" d="M3428.755,674.933a2.655,2.655,0,0,0-2.675,2.634c0,.024,0,.049,0,.073a2.766,2.766,0,0,0,2.872,2.6,2.651,2.651,0,0,0,2.672-2.63c0-.024,0-.048,0-.073A2.772,2.772,0,0,0,3428.755,674.933Z" fill="#00002f"/>
      <path id="Tracé_1515" data-name="Tracé 1515" d="M3407.033,693.238a4.659,4.659,0,0,1,.363-2.421l1.941-6.318c2.671-8.961,4.535-16.308,4.176-16.413s-2.825,7.077-5.487,16.042l-1.828,6.326a4.671,4.671,0,0,0-.186,3.191,2.023,2.023,0,0,0,1.409,1.078,5.452,5.452,0,0,0,1.379.092c3.208-.052,5.177-.181,5.177-.363s-1.981-.375-5.185-.548C3407.985,693.879,3407.207,693.774,3407.033,693.238Z" fill="#00002f"/>
      <path id="Tracé_1516" data-name="Tracé 1516" d="M3435.348,656.467a10.771,10.771,0,0,0-9.711-.4c-1.17.6-1.735,1.251-1.574,1.614.335.762,3.083.19,6.371.359,3.292.1,5.995.892,6.375.161C3436.978,657.846,3436.466,657.144,3435.348,656.467Z" fill="#00002f"/>
      <path id="Tracé_1517" data-name="Tracé 1517" d="M3402.5,662.176a11.3,11.3,0,0,0-4.8-.807,11.7,11.7,0,0,0-4.773,1.174c-1.117.6-1.638,1.2-1.476,1.492.359.622,3.038-.068,6.281-.165,3.228-.161,5.939.315,6.282-.335C3404.165,663.224,3403.612,662.672,3402.5,662.176Z" fill="#00002f"/>
      <path id="Tracé_1518" data-name="Tracé 1518" d="M3457.908,679.945c.143,4.46.593,18.493.627,18.832,0,.037.126.089.338.143,2.148.545,13.876,1.311,13.351-11.472-.305-7.442-4.222-9.532-7.888-9.827-2.207,0-4.219.181-5.583,1.411A7.839,7.839,0,0,0,3457.908,679.945Zm4.7,13.333c.06-.048.25.162.674.335a2.452,2.452,0,0,0,1.831-.036c1.461-.605,2.615-3.014,2.578-5.548a8.063,8.063,0,0,0-.831-3.478,2.822,2.822,0,0,0-1.916-1.8,1.242,1.242,0,0,0-1.416.73c-.174.4-.073.678-.145.706s-.311-.226-.222-.807a1.544,1.544,0,0,1,.516-.9,1.849,1.849,0,0,1,1.34-.4,3.452,3.452,0,0,1,2.646,2.074,8.372,8.372,0,0,1,1.009,3.881c.024,2.824-1.316,5.544-3.325,6.213a2.618,2.618,0,0,1-2.251-.278C3462.646,693.617,3462.562,693.306,3462.61,693.278Z" fill="#ffbe9d"/>
      <path id="Tracé_1519" data-name="Tracé 1519" d="M3463.1,693.964a2.618,2.618,0,0,0,2.251.278c2.009-.669,3.349-3.389,3.325-6.213a8.372,8.372,0,0,0-1.009-3.881,3.452,3.452,0,0,0-2.646-2.074,1.849,1.849,0,0,0-1.34.4,1.544,1.544,0,0,0-.516.9c-.089.581.149.835.222.807s-.029-.3.145-.706a1.242,1.242,0,0,1,1.416-.73,2.822,2.822,0,0,1,1.916,1.8,8.063,8.063,0,0,1,.831,3.478c.037,2.534-1.117,4.943-2.578,5.548a2.452,2.452,0,0,1-1.831.036c-.424-.173-.614-.383-.674-.335C3462.562,693.306,3462.646,693.617,3463.1,693.964Z" fill="#eb996e"/>
      <path id="Tracé_1520" data-name="Tracé 1520" d="M3423.781,696.752a15.718,15.718,0,0,1-1.945,3.667c-1.932,2.583-4.688,3.41-4.535,3.765.041.117.763.084,1.836-.343a8.412,8.412,0,0,0,3.591-2.748,10.376,10.376,0,0,0,1.807-4.111c.226-1.11.267-1.795.117-1.844S3424.184,695.731,3423.781,696.752Z" fill="#00002f"/>
      <path id="Tracé_1521" data-name="Tracé 1521" d="M3464.376,660.3a2.547,2.547,0,0,1,.114.615,3.521,3.521,0,0,1-.436,1.819,3.42,3.42,0,0,1-1.432,1.412,3.954,3.954,0,0,1-2.114.372,6.1,6.1,0,0,1-3.986-2.171,15.2,15.2,0,0,1-2.2-3.652,9.4,9.4,0,0,1-1.843,4.515,4.606,4.606,0,0,1-2.6,1.473,3.106,3.106,0,0,1-2.893-.972,6.071,6.071,0,0,1-1.194-2.428,80,80,0,0,0,3.445,15.823c.537,1.613,2.017,5,3.611,5.624,2.65,1.016,3.673-1.079,5.058-2.787a7.839,7.839,0,0,1,.845-.913c1.364-1.23,3.376-1.411,5.583-1.411h.154a126.275,126.275,0,0,0,3.857-14.581c.211.065.428.1.641.159-.327-.118-.655-.232-.972-.377A13.238,13.238,0,0,1,3464.376,660.3Z" fill="#00002f"/>
      <path id="Tracé_1522" data-name="Tracé 1522" d="M3387.6,660.337c.018-1.339.046-2.474.089-3.306.083,0,.165-.012.248-.016a32.139,32.139,0,0,0,22.673-10.57c3.151-3.49,5.628-7.86,9.84-9.946,5.435-2.687,11.911-.73,17.631,1.255l-.242-.218A25.707,25.707,0,0,1,3445.5,643a25.958,25.958,0,0,0-.5-4.25,14.69,14.69,0,0,0-3.143-6.8,17.546,17.546,0,0,0-2.058-1.88,8.3,8.3,0,0,1,2.175,1.792,14.519,14.519,0,0,1,3.337,6.858,25.53,25.53,0,0,1,.588,5.278c.029,1.892-.108,3.925-.242,6.051a55.113,55.113,0,0,0-.125,6.666,23.027,23.027,0,0,0,.46,3.469,6.945,6.945,0,0,0,1.332,3.228,2.608,2.608,0,0,0,2.461.807,4.154,4.154,0,0,0,2.328-1.315,10.268,10.268,0,0,0,1.88-4.979l.133-.71.3.658a17.547,17.547,0,0,0,2.42,4.2,5.706,5.706,0,0,0,3.7,2.065,3.55,3.55,0,0,0,1.913-.314,3.069,3.069,0,0,0,1.3-1.251,2.623,2.623,0,0,0-.138-3.042l0,0-.006-.006.217-.194c.006.006.01.014.016.02a13.648,13.648,0,0,0,4.237,3.337c.565.286,1.017.472,1.323.6.051.016.1.042.147.061a12.8,12.8,0,0,0,4.691.1l-1.816-4.345a6.614,6.614,0,0,0,2.526,1.142,2.28,2.28,0,0,0,2.392-1.041c.537-1.069-.189-2.312-.8-3.345-2.925-4.954-3.607-10.865-5.208-16.4s-4.681-11.257-10.087-13.189l-.121.052c-4.866-1.957-10.869-1.985-14.867,1.4-.989-7.3-7.392-13.084-14.525-14.956s-18.559-.755-25.418,2c-5.281,2.126-10.393,6.483-16.6,12.886a69.025,69.025,0,0,0-5.573,6.495c.043-.057.092-.111.134-.168l2.8.968A77.251,77.251,0,0,1,3385,652.957a18.464,18.464,0,0,0,2.966.012,23.11,23.11,0,0,0,12.128-4.588,40.051,40.051,0,0,0,10.489-12.132c1.465-2.461,2.68-4.995,4.035-7.363a27.3,27.3,0,0,1,4.68-6.322,14.319,14.319,0,0,1,6.1-3.651,10.419,10.419,0,0,1,3.227-.343,11.2,11.2,0,0,1,2.942.6,11.935,11.935,0,0,1,4.345,2.7,11.763,11.763,0,0,1,2.295,3.11,10.416,10.416,0,0,1,.779,2.316c.037.251.069.456.1.626a.654.654,0,0,1,0,.218,14.045,14.045,0,0,0-1.057-3.075,11.879,11.879,0,0,0-6.584-5.572,11.1,11.1,0,0,0-2.853-.548,10.171,10.171,0,0,0-3.115.359,13.971,13.971,0,0,0-5.9,3.587A27.12,27.12,0,0,0,3415,629.12c-1.332,2.348-2.546,4.89-4.035,7.371a40.55,40.55,0,0,1-10.627,12.249,23.234,23.234,0,0,1-12.366,4.567,18.135,18.135,0,0,1-3.039-.05c-.045.183-.083.368-.128.551-.4,1.674-.981,3.482-2.421,4.438a5.27,5.27,0,0,1-4.327.4l3.617,6.838c.319.682.645,1.364,1.045,2.041v-.048l4.789,21.149c.019-.366.036-.791.049-1.265C3387.727,681.449,3387.5,667.705,3387.6,660.337Z" fill="#00002f"/>
      <path id="Tracé_1523" data-name="Tracé 1523" d="M3468.085,662.68a13.648,13.648,0,0,1-4.237-3.337c-.006-.006-.01-.014-.016-.02l-.217.194.006.006,0,0a2.623,2.623,0,0,1,.138,3.042,3.069,3.069,0,0,1-1.3,1.251,3.55,3.55,0,0,1-1.913.314,5.706,5.706,0,0,1-3.7-2.065,17.547,17.547,0,0,1-2.42-4.2l-.3-.658-.133.71a10.268,10.268,0,0,1-1.88,4.979,4.154,4.154,0,0,1-2.328,1.315,2.608,2.608,0,0,1-2.461-.807,6.945,6.945,0,0,1-1.332-3.228,23.027,23.027,0,0,1-.46-3.469,55.113,55.113,0,0,1,.125-6.666c.134-2.126.271-4.159.242-6.051a25.53,25.53,0,0,0-.588-5.278,14.519,14.519,0,0,0-3.337-6.858,8.3,8.3,0,0,0-2.175-1.792,17.546,17.546,0,0,1,2.058,1.88,14.69,14.69,0,0,1,3.143,6.8,25.958,25.958,0,0,1,.5,4.25c.011.319.024.638.023.958,0,1.884-.145,3.906-.286,6.052a53.248,53.248,0,0,0-.154,6.722,23.586,23.586,0,0,0,.46,3.542c.074.334.157.674.251,1.014a6.071,6.071,0,0,0,1.194,2.428,3.106,3.106,0,0,0,2.893.972,4.606,4.606,0,0,0,2.6-1.473,9.4,9.4,0,0,0,1.843-4.515,15.2,15.2,0,0,0,2.2,3.652,6.1,6.1,0,0,0,3.986,2.171,3.954,3.954,0,0,0,2.114-.372,3.42,3.42,0,0,0,1.432-1.412,3.521,3.521,0,0,0,.436-1.819,2.547,2.547,0,0,0-.114-.615,13.238,13.238,0,0,0,3.64,2.519c.317.145.645.259.972.377.132.047.259.109.392.152a2.2,2.2,0,0,0,.492.121,2.75,2.75,0,0,0-.317-.133c-.05-.019-.1-.045-.147-.061C3469.1,663.152,3468.65,662.966,3468.085,662.68Z" fill="#455a64"/>
      <path id="Tracé_1524" data-name="Tracé 1524" d="M3387.97,653.307a23.234,23.234,0,0,0,12.366-4.567,40.55,40.55,0,0,0,10.627-12.249c1.489-2.481,2.7-5.023,4.035-7.371a27.12,27.12,0,0,1,4.579-6.237,13.971,13.971,0,0,1,5.9-3.587,10.171,10.171,0,0,1,3.115-.359,11.1,11.1,0,0,1,2.853.548,11.879,11.879,0,0,1,6.584,5.572,14.045,14.045,0,0,1,1.057,3.075.654.654,0,0,0,0-.218c-.028-.17-.06-.375-.1-.626a10.416,10.416,0,0,0-.779-2.316,11.763,11.763,0,0,0-2.295-3.11,11.935,11.935,0,0,0-4.345-2.7,11.2,11.2,0,0,0-2.942-.6,10.419,10.419,0,0,0-3.227.343,14.319,14.319,0,0,0-6.1,3.651,27.3,27.3,0,0,0-4.68,6.322c-1.355,2.368-2.57,4.9-4.035,7.363a40.051,40.051,0,0,1-10.489,12.132,23.11,23.11,0,0,1-12.128,4.588,18.464,18.464,0,0,1-2.966-.012c-.023.1-.045.2-.069.3A18.135,18.135,0,0,0,3387.97,653.307Z" fill="#455a64"/>
      <path id="Tracé_1525" data-name="Tracé 1525" d="M3402.49,669.7a8.545,8.545,0,0,0-5.1-1.448,8.259,8.259,0,0,0-4.927,1.791c-1.033.859-1.367,1.642-1.166,1.828.4.4,2.772-1.493,6.2-1.582s5.992,1.59,6.355,1.15C3404.036,671.245,3403.612,670.487,3402.49,669.7Z" fill="#00002f"/>
      <path id="Tracé_1526" data-name="Tracé 1526" d="M3398.686,674.933a2.655,2.655,0,0,0-2.676,2.634c0,.024,0,.049,0,.073a2.774,2.774,0,0,0,2.872,2.6,2.658,2.658,0,0,0,2.676-2.642c0-.02,0-.04,0-.061A2.779,2.779,0,0,0,3398.686,674.933Z" fill="#00002f"/>
      <path id="Tracé_1527" data-name="Tracé 1527" d="M3382.382,658.246c1.44-.956,2.017-2.764,2.421-4.438.045-.183.083-.368.128-.551.024-.1.046-.2.069-.3a77.251,77.251,0,0,0,2.082-18.019l-2.8-.968c-.042.057-.091.111-.134.168-1.717,2.255-4.306,4.263-7.128,4.016a21.6,21.6,0,0,1-3.07-.86c-.993.621-.715,4.055,0,4.991a18.156,18.156,0,0,0,2.182,2.2c-3.344,1.852-6.427,1-10.034-.27a17.626,17.626,0,0,0,10.639,13.991,11.029,11.029,0,0,0,1.322.441A5.27,5.27,0,0,0,3382.382,658.246Z" fill="#00002f"/>
      <path id="Tracé_1528" data-name="Tracé 1528" d="M3408.381,755.653l15.573,21.383,13.072,18.233,29.956-48.9-6.934-3.506s-.214.3-.618.8c-2.319,2.869-11.067,12.621-23.755,13.865-13.454,1.319-22.937-10.681-24.652-13.024-.185-.252-.282-.4-.282-.4l-5,2.638a34.995,34.995,0,0,0,6.428,8.393,32.892,32.892,0,0,0,9.562,6.35,31.343,31.343,0,0,0,13.718,2.711,35.281,35.281,0,0,0,13.633-3.276,31.147,31.147,0,0,0,9.328-6.669,27.638,27.638,0,0,0,4.519-6.314c.839-1.634,1.214-2.594,1.278-2.566a2.844,2.844,0,0,1-.217.71,18.593,18.593,0,0,1-.807,1.985,25.885,25.885,0,0,1-4.426,6.528,30.768,30.768,0,0,1-9.413,6.919,35.319,35.319,0,0,1-13.887,3.393,31.533,31.533,0,0,1-14.008-2.824,32.569,32.569,0,0,1-9.643-6.588,29.743,29.743,0,0,1-4.841-6.2,19.709,19.709,0,0,1-.993-1.9,3.226,3.226,0,0,1-.267-.635l-2.85,1.506.741.961Z" fill="#00002f"/>
      <path id="Tracé_1529" data-name="Tracé 1529" d="M3394.276,756.46l10.381,13.98,34.04,46.3.737,1,5.908-10.457a2.931,2.931,0,0,1-.267-.3l-1.327-1.727c-1.21-1.613-2.824-3.772-4.785-6.427l-15.569-21.383-15.4-21.492c-1.905-2.708-3.462-4.931-4.608-6.561l-1.211-1.807a2.937,2.937,0,0,1-.371-.606l-.032-.044-11.045,4.842.7.9C3392.1,753.583,3393.062,754.85,3394.276,756.46Z" fill="#07b5e7"/>
      <path id="Tracé_1530" data-name="Tracé 1530" d="M3452.721,821.425l1.085-.061c11.454-.2,21.787.033,29.279.138l8.876.214,1.8.071c.782-3.531,1.668-7,2.607-10.332.675-7.644,1.539-14.451,2.348-19.769.557-3.7,1.061-6.685,1.457-8.743.19-.964.347-1.747.468-2.364a4.166,4.166,0,0,1,.206-.831,3.75,3.75,0,0,1-.069.839c-.085.621-.2,1.412-.335,2.384-.31,2.07-.738,5.064-1.234,8.767-.469,3.495-.97,7.631-1.441,12.213,1.51-10.879,2.732-20.056,2.732-20.056l4.615-25.414-26.71-9.334a1.7,1.7,0,0,1-.168.373l-.557,1.062-2.2,4.034c-1.965,3.551-4.765,8.614-8.226,14.864-7.033,12.563-16.72,29.88-27.472,49.088l-.266.481-.323-.444-1.061-1.445c-13.217-18.111-25.18-34.5-33.871-46.418-4.288-5.926-7.762-10.74-10.2-14.121-1.166-1.642-2.086-2.937-2.744-3.857l-.659-.956-9.673,4.24c-18.156,7.953-34.516,25.128-38.268,44.571l-.146.774c-.569,3.083-.993,6.323-1.3,9.636A44.31,44.31,0,0,0,3370.5,822h1c-.093-.392-.185-.776-.279-1.172-1.94-8.231-3.6-15.675-4.74-21.089-.533-2.627-.973-4.793-1.308-6.423a15.606,15.606,0,0,1-.387-2.364,16.056,16.056,0,0,1,.646,2.32c.4,1.613.9,3.764,1.525,6.37,1.287,5.491,3.022,12.875,4.938,21.037l.312,1.321h79.662a.8.8,0,0,1,.121-.248A.881.881,0,0,1,3452.721,821.425Z" fill="#07b5e7"/>
      <path id="Tracé_1531" data-name="Tracé 1531" d="M3491.957,821.99h-8.876c-6.59,0-15.412-.1-25.212.01h35.843l.008-.037Z" fill="#07b5e7"/>
      <path id="Tracé_1532" data-name="Tracé 1532" d="M3437.026,795.269l2.336,3.26,4.6,6.56,1.21,1.807a3.025,3.025,0,0,1,.2.327l21.453-37.969,8.416-14.755c.989-1.7,1.763-3.034,2.32-3.986l.617-1.029a1.822,1.822,0,0,1,.221-.337l-10.811-3.778-.611,1Z" fill="#07b5e7"/>
      <path id="Tracé_1533" data-name="Tracé 1533" d="M3505.114,758.481,3500.5,783.9s-1.222,9.177-2.732,20.056c-.466,4.522-.9,9.48-1.249,14.71q-.074,1.68-.148,3.339h7.13a44.3,44.3,0,0,0,26.8-8.979c-.332-3.012-.648-6.1-.935-9.223C3526.945,777.4,3505.114,758.481,3505.114,758.481Z" fill="#07b5e7"/>
      <path id="Tracé_1534" data-name="Tracé 1534" d="M3394.054,756.621c2.441,3.381,5.915,8.2,10.2,14.121,8.691,11.915,20.654,28.307,33.871,46.418l1.061,1.445.323.444.266-.481c10.752-19.208,20.439-36.525,27.472-49.088,3.461-6.25,6.261-11.313,8.226-14.864l2.2-4.034.557-1.062a1.7,1.7,0,0,0,.168-.373v0a1.822,1.822,0,0,0-.221.337l-.617,1.029c-.557.952-1.331,2.288-2.32,3.986l-8.416,14.755-21.453,37.969a3.13,3.13,0,0,1,.2.331h0a2.788,2.788,0,0,1-.238-.27l-5.908,10.457-.737-1-34.04-46.3-10.381-13.98c-1.214-1.61-2.171-2.877-2.849-3.78l-.7-.9-.054-.069a2.378,2.378,0,0,0-.274-.319,1.706,1.706,0,0,0,.217.364l.039.056.659.956C3391.968,753.684,3392.888,754.979,3394.054,756.621Z" fill="#263238"/>
      <path id="Tracé_1535" data-name="Tracé 1535" d="M3483.081,821.99h8.876l1.763-.027c.013-.058.027-.117.04-.176l-1.8-.071-8.876-.214c-7.492-.105-17.825-.339-29.279-.138l-1.085.061a.881.881,0,0,0-.726.327.8.8,0,0,0-.121.248h5.995C3467.669,821.887,3476.491,821.99,3483.081,821.99Z" fill="#263238"/>
      <path id="Tracé_1536" data-name="Tracé 1536" d="M3366.962,799.642c-.626-2.606-1.122-4.757-1.525-6.37a16.056,16.056,0,0,0-.646-2.32,15.606,15.606,0,0,0,.387,2.364c.335,1.63.775,3.8,1.308,6.423,1.141,5.414,2.8,12.858,4.74,21.089.094.4.186.78.279,1.172h.707l-.312-1.321C3369.984,812.517,3368.249,805.133,3366.962,799.642Z" fill="#263238"/>
      <path id="Tracé_1537" data-name="Tracé 1537" d="M3403.382,749.391c1.146,1.63,2.7,3.853,4.608,6.561l15.4,21.492,15.569,21.383c1.961,2.655,3.575,4.814,4.785,6.427l1.327,1.727a2.931,2.931,0,0,0,.267.3,2.788,2.788,0,0,0,.238.27,3.13,3.13,0,0,0-.2-.331,3.025,3.025,0,0,0-.2-.327l-1.21-1.807-4.6-6.56-2.336-3.26-13.072-18.233-15.573-21.383-4.781-6.427-.741-.961-.591-.766a3,3,0,0,0-.5-.573c.008.019.023.034.032.052a2.937,2.937,0,0,0,.371.606Z" fill="#263238"/>
      <path id="Tracé_1538" data-name="Tracé 1538" d="M3445.58,807.554h0Z" fill="#263238"/>
      <path id="Tracé_1539" data-name="Tracé 1539" d="M3406.969,749.29a29.743,29.743,0,0,0,4.841,6.2,32.569,32.569,0,0,0,9.643,6.588,31.533,31.533,0,0,0,14.008,2.824,35.319,35.319,0,0,0,13.887-3.393,30.768,30.768,0,0,0,9.413-6.919,25.885,25.885,0,0,0,4.426-6.528,18.593,18.593,0,0,0,.807-1.985,2.844,2.844,0,0,0,.217-.71c-.064-.028-.439.932-1.278,2.566a27.638,27.638,0,0,1-4.519,6.314,31.147,31.147,0,0,1-9.328,6.669,35.281,35.281,0,0,1-13.633,3.276,31.343,31.343,0,0,1-13.718-2.711,32.892,32.892,0,0,1-9.562-6.35,34.995,34.995,0,0,1-6.428-8.393c-.026-.029-.047-.045-.059-.036,0,.02.017.036.023.055a3.226,3.226,0,0,0,.267.635A19.709,19.709,0,0,0,3406.969,749.29Z" fill="#263238"/>
      <path id="Tracé_1540" data-name="Tracé 1540" d="M3496.367,811.455c-.939,3.329-1.825,6.8-2.607,10.332-.013.059-.027.118-.04.176l-.008.037h1.9c.023-.413.045-.825.069-1.241C3495.868,817.553,3496.1,814.443,3496.367,811.455Z"/>
      <path id="Tracé_1541" data-name="Tracé 1541" d="M3496.383,820.788c-.024.406-.046.808-.07,1.212h.057q.075-1.659.148-3.339Q3496.449,819.717,3496.383,820.788Z"/>
      <path id="Tracé_1542" data-name="Tracé 1542" d="M3496.518,818.661c.347-5.23.783-10.188,1.249-14.71.471-4.582.972-8.718,1.441-12.213.5-3.7.924-6.7,1.234-8.767.137-.972.25-1.763.335-2.384a3.75,3.75,0,0,0,.069-.839,4.166,4.166,0,0,0-.206.831c-.121.617-.278,1.4-.468,2.364-.4,2.058-.9,5.043-1.457,8.743-.809,5.318-1.673,12.125-2.348,19.769-.264,2.988-.5,6.1-.69,9.3-.024.416-.046.828-.069,1.241h.705c.024-.4.046-.806.07-1.212Q3496.449,819.717,3496.518,818.661Z" fill="#263238"/>
    </g>
  </g>
</svg>
