<svg xmlns="http://www.w3.org/2000/svg" width="222" height="222" viewBox="0 0 222 222">
  <g id="Groupe_231" data-name="Groupe 231" transform="translate(-3326 -278)">
    <rect id="Rectangle_2121" data-name="Rectangle 2121" width="222" height="222" rx="44.5" transform="translate(3326 278)" fill="#f4f4f4"/>
    <g id="Groupe_230" data-name="Groupe 230">
      <path id="Tracé_1473" data-name="Tracé 1473" d="M3406.148,413.217c-.03.113-.052.222-.091.34a4.549,4.549,0,0,1-1.158,1.806,32.951,32.951,0,0,1,4.32,16.892,12.667,12.667,0,0,1,3.573-.725l-.729-15.673A62.27,62.27,0,0,1,3406.148,413.217Z" fill="none"/>
      <path id="Tracé_1474" data-name="Tracé 1474" d="M3351.11,473.176c10.749-22.066,46.36-37.47,58.109-40.921a32.951,32.951,0,0,0-4.32-16.892,6.057,6.057,0,0,1-3.034,1.567,10.732,10.732,0,0,1-5.54-.638c-2.752-.961-5.456-2.717-6.7-5.281a17.2,17.2,0,0,0-8.81,6.109c-3.853,5.091-6.584,11.66-12.438,14.222s-13.46.359-18.374,4.438c-6.77,5.624-2.965,18.66-10.288,23.55-2.905,1.94-6.738,1.872-9.845,3.473a10.383,10.383,0,0,0-2.848,2.181,44.532,44.532,0,0,0,18.932,27.631l5-18.856A2.109,2.109,0,0,1,3351.11,473.176Z" fill="#00002f"/>
      <path id="Tracé_1475" data-name="Tracé 1475" d="M3396.325,416.292a10.732,10.732,0,0,0,5.54.638,6.057,6.057,0,0,0,3.034-1.567,4.549,4.549,0,0,0,1.158-1.806c.039-.118.061-.227.091-.34a66.41,66.41,0,0,1-14.358-9.882,5.984,5.984,0,0,0-2.634,6.438,7.011,7.011,0,0,0,.47,1.238C3390.869,413.575,3393.573,415.331,3396.325,416.292Z" fill="#09a4f4"/>
      <path id="Tracé_1476" data-name="Tracé 1476" d="M3463.279,311.354a6.665,6.665,0,0,0-.02-1.1,8.759,8.759,0,0,0-3.462-6.269c-2.356-1.639-5.951-1.994-9.38-.779a16.221,16.221,0,0,0-4.967,2.776,25.033,25.033,0,0,0-4.22,4.551c-.113.152-.22.313-.331.468a32.931,32.931,0,0,1,22.38.356Z" fill="#00002f"/>
      <path id="Tracé_1477" data-name="Tracé 1477" d="M3397.185,330.3l40.063-17.853c.756-.359,1.528-.681,2.308-.982q.5-.735,1.029-1.439a25.619,25.619,0,0,1,4.4-4.672,16.832,16.832,0,0,1,5.22-2.824c3.607-1.231,7.412-.807,9.921.989a9.141,9.141,0,0,1,3.527,6.689,8.119,8.119,0,0,1-.043,1.272,33.465,33.465,0,0,1,12.877,8.97,23.931,23.931,0,0,0-.589-3.424,28.917,28.917,0,0,0-48.633-13.269c-2.922,2.961-5.241,6.584-8.691,8.908-3.9,2.622-8.759,3.268-13.128,4.991s-8.715,5.35-8.582,10.046l-.39,6.936A8.054,8.054,0,0,0,3397.185,330.3Z" fill="#00002f"/>
      <path id="Tracé_1478" data-name="Tracé 1478" d="M3412.063,415.857l-.691-14.837a19.719,19.719,0,0,1-7.636,1.543l.041.887-3.99-1.279a19.907,19.907,0,0,0,3.949.392l-2.3-48.939c-.032.211-.074.422-.1.633-.7,5.2.1,10.566-1.658,15.408a13,13,0,0,1-4.361,5.894,46.152,46.152,0,0,0-5.149,4.317,13.29,13.29,0,0,0-2.8,11.1,20.25,20.25,0,0,0,3.93,8.981,41.163,41.163,0,0,0,5.072,5.576c1.517,1.416,2.747,2.469,3.57,3.2a10.942,10.942,0,0,1,1.247,1.121h0a2.642,2.642,0,0,1-.359-.23l-1-.754c-.863-.678-2.13-1.687-3.7-3.066a39.51,39.51,0,0,1-5.245-5.528,20.569,20.569,0,0,1-4.176-9.2,13.979,13.979,0,0,1,2.881-11.757,45.275,45.275,0,0,1,5.2-4.438,12.1,12.1,0,0,0,4.051-5.535c1.654-4.555.916-9.832,1.557-15.219a35.72,35.72,0,0,1,.854-4.347l-.305-6.51c-.194-4.115-.3-8.545,1.977-11.974,2.158-3.24,6-4.878,9.634-6.238a211.6,211.6,0,0,1,22.97-7.109c1.361-2.228,2.628-4.441,4.022-6.481-.78.3-1.552.623-2.308.982L3397.185,330.3a8.054,8.054,0,0,1-.709,4.338,20.078,20.078,0,0,1-4.46,5.9c-2.836,2.776-6.052,5.729-6.54,9.683-.585,4.6,2.776,9.13,1.8,13.665-.618,2.877-2.857,5.092-4.213,7.706a16.3,16.3,0,0,0-.834,12.068c1.182,3.966,3.029,12.814,5.785,15.9a52.413,52.413,0,0,0,3.776,3.782,66.41,66.41,0,0,0,14.358,9.882A62.27,62.27,0,0,0,3412.063,415.857Z" fill="#00002f"/>
      <path id="Tracé_1479" data-name="Tracé 1479" d="M3463.279,311.354A32.931,32.931,0,0,0,3440.9,311c-1.461,2.036-2.763,4.3-4.155,6.638a211.493,211.493,0,0,1,24.655-4.456,5.851,5.851,0,0,1,.649,1.63c.03-.041.065-.079.094-.121A6.621,6.621,0,0,0,3463.279,311.354Z" fill="#00002f"/>
      <path id="Tracé_1480" data-name="Tracé 1480" d="M3463.612,311.479a6.224,6.224,0,0,1-1.3,3.331c-.064.083-.14.155-.209.233a7.192,7.192,0,0,1-.161,3.286c10.615,2.417,17.5,16.412,18.267,28.109.973,14.867,1.57,33.083-.169,44.215-3.5,22.347-20.617,25.232-20.617,25.232v0l0,.372c0,.507,0,1.551-.012,3.2,7.579-.649,15.417-2.608,21.454-12.6,4.035-6.653,6.028-15.5,8.17-23,1.844-6.455,3.438-13.314,1.521-19.769-1.117-3.74-3.365-7.065-4.466-10.809-1.38-4.676-.876-9.683-1.428-14.524a33.359,33.359,0,0,0-21.047-27.281Z" fill="#00002f"/>
      <path id="Tracé_1481" data-name="Tracé 1481" d="M3429.486,407.953a56.849,56.849,0,0,0,29.936,7.916v.016s17.119-2.885,20.617-25.232c1.739-11.132,1.142-29.348.169-44.215-.764-11.7-7.652-25.692-18.267-28.109a10.516,10.516,0,0,1-3.628,5.37c-3.155,2.453-7.19,3.4-10.946,4.752s-7.617,3.47-9.2,7.142c-1.687,3.9-.351,8.561-1.836,12.543a10.508,10.508,0,0,1-1.405,2.549,12.247,12.247,0,0,1,10.552-1.137c1.327.541,2,1.2,1.868,1.594-.3.839-3.381.448-7,.892-3.631.375-6.54,1.44-7.025.685a.352.352,0,0,1-.046-.154c-3.9,3.792-9.761,6.272-11.642,11.4-1.9,5.192,1.053,10.776,1.751,16.263a19.837,19.837,0,0,1-12.017,20.789l.691,14.837.729,15.673a.493.493,0,0,1,.148.038l.606,1.228,44.359-3.649,1.594.345c-.044-.746-.08-1.493-.149-2.237.022-2.409.037-4.386.048-5.988C3437.042,423.4,3429.486,407.953,3429.486,407.953Zm10.945-45.175a2.74,2.74,0,0,1-2.952-2.509c0-.023,0-.046,0-.069a2.865,2.865,0,0,1,2.752-2.9,2.739,2.739,0,0,1,2.956,2.5c0,.024,0,.049.005.074A2.861,2.861,0,0,1,3440.431,362.778Zm24.49,15.246a1.969,1.969,0,0,1-1.291,1.154,5.221,5.221,0,0,1-1.339.19c-3.127.173-5.068.194-5.08.016s1.9-.508,5.007-.912c.807-.084,1.533-.242,1.663-.778a4.555,4.555,0,0,0-.529-2.332l-2.344-5.992c-3.252-8.529-5.608-15.541-5.245-15.67s3.26,6.681,6.512,15.21q1.173,3.156,2.243,6.024A4.544,4.544,0,0,1,3464.921,378.024Zm8.433-29.6c.9.718,1.2,1.44.964,1.783-.541.7-2.667,0-5.221-.053-2.554-.117-4.716.485-5.216-.25-.218-.355.12-1.057,1.065-1.722A7.571,7.571,0,0,1,3473.354,348.427Zm-2.623,14.351a2.737,2.737,0,0,1-2.952-2.5c0-.026,0-.051-.005-.077a2.86,2.86,0,0,1,2.751-2.9,2.743,2.743,0,0,1,2.957,2.512l.005.066A2.866,2.866,0,0,1,3470.731,362.778Zm5.548-6.875c-.355.375-2.53-1.211-5.612-1.211s-5.342,1.566-5.677,1.186c-.165-.165.2-.843,1.182-1.561a7.841,7.841,0,0,1,4.539-1.412,7.57,7.57,0,0,1,4.47,1.432C3476.13,355.059,3476.452,355.717,3476.279,355.9Zm-28.84,30.751a5.064,5.064,0,0,1,.818-.8,7.288,7.288,0,0,1-.588-2.105c-.125-1.4.247-2.21.473-2.21.36-.024.475,1.683,1.556,3.522a5.063,5.063,0,0,1,1.24-.3,5.563,5.563,0,0,1,4.986,2.054l.129.1a1.026,1.026,0,0,1,0,1.145,3.42,3.42,0,0,1-.875.916l-.031.024c1.591.416,2.821.4,2.835.678.048.21-.807.654-2.3.7a8.27,8.27,0,0,1-2.067-.23,8.375,8.375,0,0,1-2.375,1.191,3.725,3.725,0,0,1-4.034-1.013A3.219,3.219,0,0,1,3447.439,386.654Zm-11.575-31.7a7.9,7.9,0,0,1,4.543-1.413,7.6,7.6,0,0,1,4.467,1.433c.948.742,1.271,1.4,1.1,1.569-.355.375-2.53-1.21-5.612-1.21s-5.338,1.561-5.677,1.182C3434.521,356.351,3434.876,355.677,3435.864,354.955Z" fill="#ffbe9d"/>
      <path id="Tracé_1482" data-name="Tracé 1482" d="M3459.4,421.172c.005-.631.008-1.2.01-1.71.009-1.65.011-2.694.012-3.2Z" fill="#ffbe9d"/>
      <path id="Tracé_1483" data-name="Tracé 1483" d="M3470.525,357.3a2.86,2.86,0,0,0-2.751,2.9c0,.026,0,.051.005.077a2.737,2.737,0,0,0,2.952,2.5,2.866,2.866,0,0,0,2.756-2.9l-.005-.066A2.743,2.743,0,0,0,3470.525,357.3Z" fill="#00002f"/>
      <path id="Tracé_1484" data-name="Tracé 1484" d="M3470.711,352.9a7.841,7.841,0,0,0-4.539,1.412c-.984.718-1.347,1.4-1.182,1.561.335.38,2.594-1.186,5.677-1.186s5.257,1.586,5.612,1.211c.173-.186-.149-.844-1.1-1.566A7.57,7.57,0,0,0,3470.711,352.9Z" fill="#00002f"/>
      <path id="Tracé_1485" data-name="Tracé 1485" d="M3440.226,357.3a2.865,2.865,0,0,0-2.752,2.9c0,.023,0,.046,0,.069a2.74,2.74,0,0,0,2.952,2.509,2.861,2.861,0,0,0,2.756-2.9c0-.025,0-.05-.005-.074A2.739,2.739,0,0,0,3440.226,357.3Z" fill="#00002f"/>
      <path id="Tracé_1486" data-name="Tracé 1486" d="M3440.359,355.334c3.082,0,5.257,1.585,5.612,1.21.174-.165-.149-.827-1.1-1.569a7.6,7.6,0,0,0-4.467-1.433,7.9,7.9,0,0,0-4.543,1.413c-.988.722-1.343,1.4-1.182,1.561C3435.021,356.895,3437.276,355.334,3440.359,355.334Z" fill="#00002f"/>
      <path id="Tracé_1487" data-name="Tracé 1487" d="M3462.275,368.91c-3.252-8.529-6.149-15.339-6.512-15.21s1.993,7.141,5.245,15.67l2.344,5.992a4.555,4.555,0,0,1,.529,2.332c-.13.536-.856.694-1.663.778-3.106.4-5.007.739-5.007.912s1.953.157,5.08-.016a5.221,5.221,0,0,0,1.339-.19,1.969,1.969,0,0,0,1.291-1.154,4.544,4.544,0,0,0-.4-3.09Q3463.448,372.064,3462.275,368.91Z" fill="#00002f"/>
      <path id="Tracé_1488" data-name="Tracé 1488" d="M3459.42,416.261l0-.372v-.02a56.849,56.849,0,0,1-29.936-7.916s7.556,15.448,29.912,13.314h0v-.1Z" fill="#eb996e"/>
      <path id="Tracé_1489" data-name="Tracé 1489" d="M3451.24,391.343a8.375,8.375,0,0,0,2.375-1.191,8.32,8.32,0,0,1-3.323-1.638,7.254,7.254,0,0,1-2.035-2.66,5.064,5.064,0,0,0-.818.8,3.219,3.219,0,0,0-.233,3.676A3.725,3.725,0,0,0,3451.24,391.343Z" fill="#eb996e"/>
      <path id="Tracé_1490" data-name="Tracé 1490" d="M3451.527,387.223a9.28,9.28,0,0,0,3.62,1.783l.031-.024a3.42,3.42,0,0,0,.875-.916,1.026,1.026,0,0,0,0-1.145l-.129-.1a5.563,5.563,0,0,0-4.986-2.054,5.063,5.063,0,0,0-1.24.3A8.065,8.065,0,0,0,3451.527,387.223Z" fill="#eb996e"/>
      <path id="Tracé_1491" data-name="Tracé 1491" d="M3450.292,388.514a8.383,8.383,0,0,0,5.39,1.868c1.493-.044,2.348-.488,2.3-.7-.014-.274-1.244-.262-2.835-.678a9.28,9.28,0,0,1-3.62-1.783,8.065,8.065,0,0,1-1.829-2.162c-1.081-1.839-1.2-3.546-1.556-3.522-.226,0-.6.806-.473,2.21a7.321,7.321,0,0,0,2.623,4.765Z" fill="#00002f"/>
      <path id="Tracé_1492" data-name="Tracé 1492" d="M3433.28,352.565a.352.352,0,0,0,.046.154c.485.755,3.394-.31,7.025-.685,3.615-.444,6.693-.053,7-.892.129-.4-.541-1.053-1.868-1.594a12.247,12.247,0,0,0-10.552,1.137A14.977,14.977,0,0,1,3433.28,352.565Z" fill="#00002f"/>
      <path id="Tracé_1493" data-name="Tracé 1493" d="M3463.881,349.907c.5.735,2.662.133,5.216.25,2.554.053,4.68.751,5.221.053.238-.343-.06-1.065-.964-1.783a7.571,7.571,0,0,0-8.408-.242C3464,348.85,3463.663,349.552,3463.881,349.907Z" fill="#00002f"/>
      <path id="Tracé_1494" data-name="Tracé 1494" d="M3403.777,403.45l-.041-.887a19.907,19.907,0,0,1-3.949-.392Z" fill="#00002f"/>
      <path id="Tracé_1495" data-name="Tracé 1495" d="M3413.371,333.313a40.768,40.768,0,0,1,7.819-2.639,18.207,18.207,0,0,0,6.859-3.381,27.029,27.029,0,0,0,4.979-5.491c.9-1.269,1.717-2.565,2.506-3.857a211.6,211.6,0,0,0-22.97,7.109c-3.631,1.36-7.476,3-9.634,6.238-2.28,3.429-2.171,7.859-1.977,11.974l.305,6.51a28.62,28.62,0,0,1,5.481-11.049A20.857,20.857,0,0,1,3413.371,333.313Z" fill="#00002f"/>
      <path id="Tracé_1496" data-name="Tracé 1496" d="M3423.156,386.637a19.851,19.851,0,0,0,.233-6.406c-.7-5.487-3.655-11.071-1.751-16.263,1.881-5.131,7.739-7.611,11.642-11.4a14.977,14.977,0,0,0,1.647-1.88,10.508,10.508,0,0,0,1.405-2.549c1.485-3.982.149-8.642,1.836-12.543,1.582-3.672,5.443-5.786,9.2-7.142s7.791-2.3,10.946-4.752a10.516,10.516,0,0,0,3.628-5.37,7.192,7.192,0,0,0,.161-3.286,4.267,4.267,0,0,1-.7.639c-.226.169-.347.25-.355.234s.089-.121.291-.311a4.948,4.948,0,0,0,.713-.8,5.851,5.851,0,0,0-.649-1.63,211.493,211.493,0,0,0-24.655,4.456c-.927,1.555-1.895,3.14-2.982,4.7a27.719,27.719,0,0,1-5.132,5.7,19.089,19.089,0,0,1-7.177,3.574,41.427,41.427,0,0,0-7.666,2.583,19.989,19.989,0,0,0-6.314,5.172,29.227,29.227,0,0,0-6.034,14.255l2.3,48.939a19.848,19.848,0,0,0,19.42-15.926Z" fill="#00002f"/>
      <path id="Tracé_1497" data-name="Tracé 1497" d="M3401.187,409.849h0Z" fill="#455a64"/>
      <path id="Tracé_1498" data-name="Tracé 1498" d="M3413.787,334.2a41.427,41.427,0,0,1,7.666-2.583,19.089,19.089,0,0,0,7.177-3.574,27.719,27.719,0,0,0,5.132-5.7c1.087-1.563,2.055-3.148,2.982-4.7,1.392-2.337,2.694-4.6,4.155-6.638.111-.155.218-.316.331-.468a25.033,25.033,0,0,1,4.22-4.551,16.221,16.221,0,0,1,4.967-2.776c3.429-1.215,7.024-.86,9.38.779a8.759,8.759,0,0,1,3.462,6.269,6.734,6.734,0,0,1-1.117,4.438c-.029.042-.064.08-.094.121a4.948,4.948,0,0,1-.713.8c-.2.19-.3.295-.291.311s.129-.065.355-.234a4.267,4.267,0,0,0,.7-.639c.069-.078.145-.15.209-.233a6.224,6.224,0,0,0,1.3-3.331,8.119,8.119,0,0,0,.043-1.272,9.141,9.141,0,0,0-3.527-6.689c-2.509-1.8-6.314-2.22-9.921-.989a16.832,16.832,0,0,0-5.22,2.824,25.619,25.619,0,0,0-4.4,4.672q-.53.7-1.029,1.439c-1.394,2.04-2.661,4.253-4.022,6.481-.789,1.292-1.607,2.588-2.506,3.857a27.029,27.029,0,0,1-4.979,5.491,18.207,18.207,0,0,1-6.859,3.381,40.768,40.768,0,0,0-7.819,2.639,20.857,20.857,0,0,0-6.632,5.414,28.62,28.62,0,0,0-5.481,11.049,35.72,35.72,0,0,0-.854,4.347c-.641,5.387.1,10.664-1.557,15.219a12.1,12.1,0,0,1-4.051,5.535,45.275,45.275,0,0,0-5.2,4.438,13.979,13.979,0,0,0-2.881,11.757,20.569,20.569,0,0,0,4.176,9.2,39.51,39.51,0,0,0,5.245,5.528c1.569,1.379,2.836,2.388,3.7,3.066l1,.754a2.642,2.642,0,0,0,.359.23,10.942,10.942,0,0,0-1.247-1.121c-.823-.727-2.053-1.78-3.57-3.2a41.163,41.163,0,0,1-5.072-5.576,20.25,20.25,0,0,1-3.93-8.981,13.29,13.29,0,0,1,2.8-11.1,46.152,46.152,0,0,1,5.149-4.317,13,13,0,0,0,4.361-5.894c1.763-4.842.96-10.2,1.658-15.408.029-.211.071-.422.1-.633a29.227,29.227,0,0,1,6.034-14.255A19.989,19.989,0,0,1,3413.787,334.2Z" fill="#455a64"/>
      <path id="Tracé_1499" data-name="Tracé 1499" d="M3472.188,432.245l-.205-.044.193.068Z" fill="#ffbe9d"/>
      <path id="Tracé_1500" data-name="Tracé 1500" d="M3413.546,432.8l8.573,17.365,30.788-2.532,1.775.385,7.03-18.042-2.212-.48-1.594-.346Z" fill="#ffbe9d"/>
      <path id="Tracé_1501" data-name="Tracé 1501" d="M3422.119,450.161l17.732,35.918,14.831-38.065-1.775-.385Z" fill="#00002f"/>
      <path id="Tracé_1502" data-name="Tracé 1502" d="M3522.148,449.392c-3.261-.725-33.779-11.419-49.972-17.123l-.193-.068c-5.858-2.064-9.793-3.458-9.793-3.458l-.479,1.229-7.029,18.042-14.831,38.065-17.732-35.918-8.573-17.365-.606-1.228a.493.493,0,0,0-.148-.038,12.667,12.667,0,0,0-3.573.725c-11.749,3.451-47.36,18.855-58.109,40.921a2.109,2.109,0,0,0-.152.583l.152-.571,1.4,4.712c0-.037-.012-.074-.014-.112a5.864,5.864,0,0,1,.4,1.154c.258.863.605,1.977,1.009,3.356l2,7.016,2.7,9.066A44.518,44.518,0,0,0,3370.5,500h52.719l-27.479-36.156-9.533-12.685-2.534-3.453a8.964,8.964,0,0,1-.835-1.235h0a10.053,10.053,0,0,1,.988,1.126l2.667,3.353,9.76,12.527c7.282,9.47,17.041,22.149,28.1,36.523h26.835l20.925-43.64c3.014-6.193,5.451-11.2,7.174-14.73q1.25-2.5,1.977-3.962l.532-1.017a1.656,1.656,0,0,1,.206-.335,1.179,1.179,0,0,1-.125.371c-.125.287-.271.634-.456,1.057l-1.824,4.035c-1.67,3.559-4.01,8.614-6.915,14.855L3452.164,500H3503.5a44.472,44.472,0,0,0,13.057-1.951c.112-5.3.184-10.28.229-14.171-.2-6.427-.584-12.169-.988-16.737-.323-3.442-.6-6.222-.807-8.146a16.653,16.653,0,0,1-.21-3,19.234,19.234,0,0,1,.585,2.949c.323,1.913.694,4.688,1.1,8.13.37,3.333.641,6.675.866,10.021a67.315,67.315,0,0,1,4.542,18.936,44.611,44.611,0,0,0,14.265-10.29C3530.067,466.817,3524.107,449.828,3522.148,449.392Z" fill="#07b5e7"/>
      <path id="Tracé_1503" data-name="Tracé 1503" d="M3357.444,494.7c.319,1.164.653,2.382,1,3.636l.166.047-2.7-9.066Z" fill="#07b5e7"/>
      <path id="Tracé_1504" data-name="Tracé 1504" d="M3353.555,482.407q-.508-2.09-.832-3.409a5.7,5.7,0,0,1-.211-1.1l-1.4-4.712-.152.571-5,18.856a44.269,44.269,0,0,0,11.693,5.492l-.866-3.221C3355.451,489.7,3354.361,485.466,3353.555,482.407Z" fill="#07b5e7"/>
      <path id="Tracé_1505" data-name="Tracé 1505" d="M3517.329,477.093c-.225-3.346-.5-6.688-.866-10.021-.4-3.442-.774-6.217-1.1-8.13a19.234,19.234,0,0,0-.585-2.949,16.653,16.653,0,0,0,.21,3c.21,1.924.484,4.7.807,8.146.4,4.568.792,10.31.988,16.737.057-4.831.073-7.986.073-7.986C3517.027,476.288,3517.169,476.693,3517.329,477.093Z" fill="#263238"/>
      <path id="Tracé_1506" data-name="Tracé 1506" d="M3479.595,441.779l1.824-4.035c.185-.423.331-.77.456-1.057a1.179,1.179,0,0,0,.125-.371,1.656,1.656,0,0,0-.206.335l-.532,1.017q-.727,1.459-1.977,3.962c-1.723,3.534-4.16,8.537-7.174,14.73L3451.186,500h.978l20.516-43.366C3475.585,450.393,3477.925,445.338,3479.595,441.779Z" fill="#263238"/>
      <path id="Tracé_1507" data-name="Tracé 1507" d="M3396.253,463.477l-9.76-12.527-2.667-3.353a10.053,10.053,0,0,0-.988-1.126h0a8.964,8.964,0,0,0,.835,1.235l2.534,3.453,9.533,12.685L3423.219,500h1.132C3413.294,485.626,3403.535,472.947,3396.253,463.477Z" fill="#263238"/>
      <path id="Tracé_1508" data-name="Tracé 1508" d="M3355.909,489.314l-2-7.016c-.4-1.379-.751-2.493-1.009-3.356a5.864,5.864,0,0,0-.4-1.154c0,.038.011.075.014.112a5.7,5.7,0,0,0,.211,1.1q.323,1.32.832,3.409c.806,3.059,1.9,7.295,3.227,12.479l.866,3.221c.263.08.529.152.794.226-.345-1.254-.679-2.472-1-3.636Z" fill="#263238"/>
      <path id="Tracé_1509" data-name="Tracé 1509" d="M3516.859,475.892s-.016,3.155-.073,7.986c-.045,3.891-.117,8.869-.229,14.171a44.124,44.124,0,0,0,5.314-2.02,67.315,67.315,0,0,0-4.542-18.936C3517.169,476.693,3517.027,476.288,3516.859,475.892Z"/>
    </g>
  </g>
</svg>
