<svg id="Image" xmlns="http://www.w3.org/2000/svg" xmlns:xlink="http://www.w3.org/1999/xlink" width="50.829" height="50.829" viewBox="0 0 50.829 50.829">
  <defs>
    <clipPath id="clip-path">
      <rect id="Mask" width="50.829" height="50.829" rx="11" fill="#c7d2d7"/>
    </clipPath>
  </defs>
  <g id="Groupe_de_masques_10" data-name="Groupe de masques 10" clip-path="url(#clip-path)">
    <g id="Groupe_137" data-name="Groupe 137" transform="translate(8695.283 4108.209)">
      <circle id="Ellipse_5" data-name="Ellipse 5" cx="33.847" cy="33.847" r="33.847" transform="translate(-8703.146 -4116.085)" fill="#001652"/>
      <path id="Tracé_425" data-name="Tracé 425" d="M859.824,221.666v-1.234c3.662-.218,7.431-.935,10.876.3a48.441,48.441,0,0,1-2.561-12.494c-.239-3.415-.119-6.957-1.225-10.214a13.262,13.262,0,0,0-7.721-8.14,11.527,11.527,0,0,0-10.978,1.613,4.261,4.261,0,0,0-1.908,3.415c-1.84-.623-3.888.683-4.746,2.424a11.239,11.239,0,0,0-.7,5.711c.359,5.677,1.221,11.5-.312,16.971l9.536.29v1.366c-6.6.926-12.272,3.7-15.878,7.525a27.621,27.621,0,0,0,41.471,0C872.109,225.38,866.428,222.593,859.824,221.666Z" transform="translate(-9525.168 -4287.958)" fill="#f8f8f8" opacity="0.8"/>
    </g>
  </g>
</svg>
