<svg id="Image" xmlns="http://www.w3.org/2000/svg" xmlns:xlink="http://www.w3.org/1999/xlink" width="50.829" height="50.829" viewBox="0 0 50.829 50.829">
  <defs>
    <clipPath id="clip-path">
      <rect id="Mask" width="50.829" height="50.829" rx="11" fill="#c7d2d7"/>
    </clipPath>
  </defs>
  <g id="Groupe_de_masques_10" data-name="Groupe de masques 10" clip-path="url(#clip-path)">
    <g id="Groupe_138" data-name="Groupe 138" transform="translate(-15.093 -10.609)">
      <ellipse id="Ellipse_41" data-name="Ellipse 41" cx="36.636" cy="36.65" rx="36.636" ry="36.65" transform="translate(-11.314 40.497) rotate(-45)" fill="#001652"/>
      <path id="Tracé_1062" data-name="Tracé 1062" d="M861.934,79.749q-.147-1.191-.374-2.359a2.539,2.539,0,0,1-1.127.718v-1.9a14.324,14.324,0,0,0,5.066-7.881c.918,0,2.014-1.186,2.593-2.85.651-1.882.392-3.684-.579-4.014a1.549,1.549,0,0,0-1.475.446c-.022-.254-.049-.508-.08-.758l2.1-3.033h-1.163a4.248,4.248,0,0,0,2.972-2.725l-1.8-.058a5.845,5.845,0,0,0,2.673-2.06l-2.308-.161a4.813,4.813,0,0,0,2.464-2.145,4.3,4.3,0,0,1-2.807.08,4.5,4.5,0,0,0,2.321-2.06,8.653,8.653,0,0,1-7.913.317c-1.337-.633-2.482-1.606-3.849-2.159a7.1,7.1,0,0,0-6.8.847,6.476,6.476,0,0,1-2.673,1.637,8.505,8.505,0,0,1-1.577-.062c-3.025-.107-5.346,3.091-5.4,6.119a13.194,13.194,0,0,0,1.577,6.016v.21a1.549,1.549,0,0,0-1.475-.446c-.971.339-1.23,2.141-.579,4.014.579,1.664,1.675,2.832,2.593,2.85a14.276,14.276,0,0,0,5.066,7.881v1.9a2.54,2.54,0,0,1-1.127-.718q-.227,1.173-.374,2.359c-6.4,1.035-11.865,3.439-15.438,6.663a28.826,28.826,0,0,0,44.964,0C873.8,83.188,868.327,80.784,861.934,79.749Z" transform="translate(-814.394 -27.932)" fill="#fff" opacity="0.8"/>
    </g>
  </g>
</svg>
