<svg id="Groupe_42" data-name="Groupe 42" xmlns="http://www.w3.org/2000/svg" width="26.018" height="26.015" viewBox="0 0 26.018 26.015">
  <path id="Tracé_1026" data-name="Tracé 1026" d="M522.14,121.22l.453.453A.589.589,0,0,1,522.14,121.22Z" transform="translate(-520.219 -97.576)" fill="#001652"/>
  <path id="Tracé_1027" data-name="Tracé 1027" d="M525.69,108.05,528,110.357c-.333.209-.665.418-1.006.621-.441.262-.883.518-1.345.762l-1.336-1.351c.244-.459.5-.906.762-1.348C525.275,108.715,525.481,108.38,525.69,108.05Z" transform="translate(-521.75 -88.282)" fill="#001652"/>
  <path id="Tracé_1028" data-name="Tracé 1028" d="M533.52,96.3c.026.026.05.053.077.077l3.237,3.237c-.321.25-.644.494-.971.736-.388.294-.783.568-1.177.845l-2.745-2.745c.277-.4.556-.794.845-1.177C533.026,96.947,533.27,96.621,533.52,96.3Z" transform="translate(-527.135 -79.989)" fill="#001652"/>
  <path id="Tracé_1029" data-name="Tracé 1029" d="M542.636,85.75l3.5,3.5q-.977.883-2,1.733l-3.125-3.125-.241-.241-.2-.2q.842-1.024,1.733-2Z" transform="translate(-533.225 -72.311)" fill="#001652"/>
  <path id="Tracé_1030" data-name="Tracé 1030" d="M552.232,75.627l3.531,3.531q-.453.483-.924.948c-.312.294-.624.618-.945.918l-3.3-3.3-.241-.241c-.121-.121-.247-.244-.368-.371.294-.318.609-.63.918-.942s.624-.621.945-.924C551.985,75.377,552.112,75.5,552.232,75.627Z" transform="translate(-539.873 -65.133)" fill="#001652"/>
  <path id="Tracé_1031" data-name="Tracé 1031" d="M562.166,65.82l.2.2L565.72,69.4q-.844,1.024-1.736,2l-3.26-3.275c-.079-.082-.159-.162-.241-.241s-.224-.221-.333-.335Q561.13,66.662,562.166,65.82Z" transform="translate(-547.044 -58.478)" fill="#001652"/>
  <path id="Tracé_1032" data-name="Tracé 1032" d="M573.184,57.19l2.754,2.754c-.277.4-.559.8-.848,1.177-.241.327-.485.647-.733.965l-3.007-3c-.079-.082-.159-.162-.241-.241l-.079-.079c.318-.247.639-.491.965-.733C572.386,57.749,572.787,57.467,573.184,57.19Z" transform="translate(-554.722 -52.388)" fill="#001652"/>
  <path id="Tracé_1033" data-name="Tracé 1033" d="M585.124,49.56l1.342,1.345c-.244.462-.5.912-.765,1.357-.2.335-.406.668-.615,1l-2.316-2.316c.33-.209.662-.415,1-.615C584.212,50.063,584.662,49.807,585.124,49.56Z" transform="translate(-563.008 -47.003)" fill="#001652"/>
  <path id="Tracé_1034" data-name="Tracé 1034" d="M596.441,47.871,596,47.4A.589.589,0,0,1,596.441,47.871Z" transform="translate(-572.345 -45.479)" fill="#001652"/>
  <path id="Tracé_1035" data-name="Tracé 1035" d="M585.75,40.87c.094.021.18.047.268.068l.256.079c.171.056.335.115.494.179.218.23.447.45.671.674l1.345,1.345,1.345,1.345.671.674c.062.162.124.324.177.494s.109.338.153.521c-.182-.044-.353-.1-.521-.153s-.333-.115-.5-.177l-.671-.671L588.1,43.9l-1.345-1.345c-.227-.224-.444-.45-.677-.668-.062-.162-.124-.324-.177-.494l-.079-.259C585.794,41.049,585.768,40.964,585.75,40.87Z" transform="translate(-565.111 -40.87)" fill="#001652"/>
  <path id="Tracé_1036" data-name="Tracé 1036" d="M575.73,50.89c.094.021.18.047.268.068l.256.079c.171.056.335.115.494.179.218.23.447.45.671.674l1.333,1.345L580.1,54.58l.671.674c.062.162.124.324.177.494s.109.338.153.521c-.182-.044-.353-.1-.521-.153s-.333-.115-.5-.177l-.671-.671-1.333-1.345-1.345-1.345c-.227-.224-.444-.45-.677-.668-.062-.162-.124-.324-.177-.494l-.068-.259A1.407,1.407,0,0,1,575.73,50.89Z" transform="translate(-558.039 -47.942)" fill="#001652"/>
  <path id="Tracé_1037" data-name="Tracé 1037" d="M565.71,60.91c.094.021.18.047.268.068l.256.079c.171.056.335.115.494.179.218.23.447.45.671.674l1.339,1.345,1.345,1.345.671.674c.062.162.124.324.177.494s.109.338.153.521c-.182-.044-.353-.1-.521-.153s-.332-.115-.5-.177l-.671-.671-1.345-1.345L566.7,62.6c-.227-.224-.444-.45-.677-.668-.062-.162-.124-.324-.177-.494l-.079-.259C565.754,61.09,565.728,61,565.71,60.91Z" transform="translate(-550.968 -55.013)" fill="#001652"/>
  <path id="Tracé_1038" data-name="Tracé 1038" d="M555.69,70.93c.094.021.18.047.268.068l.256.079c.171.056.335.115.494.179.218.23.447.45.671.674l1.345,1.345,1.345,1.345.671.674c.062.162.124.324.176.494s.109.338.153.521c-.182-.044-.353-.1-.521-.153s-.333-.115-.5-.177l-.671-.671-1.345-1.345-1.345-1.345c-.227-.224-.444-.45-.677-.668-.062-.162-.124-.324-.177-.494l-.079-.259C555.734,71.109,555.708,71.024,555.69,70.93Z" transform="translate(-543.896 -62.085)" fill="#001652"/>
  <path id="Tracé_1039" data-name="Tracé 1039" d="M545.67,81c.094.021.18.047.268.068l.256.079c.171.056.335.115.494.179.218.23.447.45.671.674l1.351,1.33,1.345,1.345.671.674c.062.162.124.324.177.494s.109.338.153.521c-.182-.044-.353-.1-.521-.153s-.332-.115-.5-.177l-.671-.671-1.345-1.345-1.345-1.345c-.227-.224-.444-.45-.677-.668-.062-.162-.124-.324-.177-.494l-.079-.259C545.714,81.165,545.688,81.079,545.67,81Z" transform="translate(-536.825 -69.191)" fill="#001652"/>
  <path id="Tracé_1040" data-name="Tracé 1040" d="M535.65,91c.094.021.18.047.268.068l.256.079c.171.056.335.115.494.179.218.23.447.45.671.674l1.357,1.336,1.345,1.345.671.674c.062.162.124.324.177.494s.109.338.153.521c-.182-.044-.353-.1-.521-.153s-.332-.115-.5-.177l-.671-.671-1.345-1.345-1.345-1.345c-.227-.224-.444-.45-.677-.668-.062-.162-.124-.324-.177-.494l-.079-.259A1.536,1.536,0,0,1,535.65,91Z" transform="translate(-529.753 -76.249)" fill="#001652"/>
  <path id="Tracé_1041" data-name="Tracé 1041" d="M525.63,101c.094.021.18.047.268.068l.256.079c.171.056.335.115.494.18.218.23.447.45.671.674l1.345,1.345,1.345,1.345.671.674c.062.162.124.324.177.494s.109.338.153.521c-.182-.044-.353-.1-.521-.153s-.332-.115-.5-.177l-.671-.671-1.345-1.345-1.354-1.348c-.227-.224-.444-.45-.677-.668-.062-.162-.124-.324-.177-.494l-.079-.259C525.674,101.177,525.648,101.091,525.63,101Z" transform="translate(-522.682 -83.306)" fill="#001652"/>
  <path id="Tracé_1042" data-name="Tracé 1042" d="M515.61,111c.094.021.18.047.268.068l.256.079c.171.056.335.115.494.179.218.23.447.45.671.674l1.345,1.345,1.345,1.345.671.674c.062.162.124.324.177.494s.109.338.153.521c-.182-.044-.353-.1-.521-.153s-.333-.115-.5-.177l-.671-.671-1.345-1.345-1.348-1.342c-.227-.224-.444-.45-.677-.668-.062-.162-.124-.324-.177-.494l-.079-.259C515.654,111.182,515.628,111.1,515.61,111Z" transform="translate(-515.61 -90.364)" fill="#001652"/>
</svg>
