<svg xmlns="http://www.w3.org/2000/svg" width="23.68" height="27.907" viewBox="0 0 23.68 27.907">
  <g id="Groupe_116" data-name="Groupe 116" transform="translate(-11462.494 -5422.266)">
    <path id="Tracé_1116" data-name="Tracé 1116" d="M109.78,45.847V46.4a.378.378,0,0,1-.022.156,3.022,3.022,0,0,1-.691,1.453,4.849,4.849,0,0,1-1.189,1.005,9.265,9.265,0,0,1-1.8.834,16.041,16.041,0,0,1-2.048.554c-.311.059-.594.115-.89.168a.87.87,0,1,1-.289-1.715,16.221,16.221,0,0,0,2.546-.622,7.662,7.662,0,0,0,1.509-.657,3.48,3.48,0,0,0,.728-.588,1.621,1.621,0,0,0,.274-.377,1.015,1.015,0,0,0,.053-.893,1.97,1.97,0,0,0-.411-.632,3.182,3.182,0,0,0-.4-.361.434.434,0,0,0,0,.053,12.11,12.11,0,0,1,.507,1.677.177.177,0,0,1-.031.162,2.2,2.2,0,0,1-.448.467,4.8,4.8,0,0,1-1.043.622,10.367,10.367,0,0,1-1.653.57c-.551.146-1.1.261-1.665.355a.891.891,0,0,0-.193.04c-.022-.053-.04-.1-.059-.152A13.021,13.021,0,0,0,100.7,45.23a.124.124,0,0,1-.022-.137,8.487,8.487,0,0,1,.377-.9.1.1,0,0,1,.028-.062,6.27,6.27,0,0,0-.934.4l-.408-.442c-.137-.143-.274-.283-.414-.42s-.293-.271-.442-.411l.1-.062a7.886,7.886,0,0,1,2.263-.934,10.052,10.052,0,0,1,1.46-.24,12.137,12.137,0,0,1,1.466-.053,7.1,7.1,0,0,1,3.691,1.127,4.734,4.734,0,0,1,1.36,1.307,3.171,3.171,0,0,1,.51,1.208,1.144,1.144,0,0,0,.025.181C109.77,45.853,109.776,45.828,109.78,45.847Z" transform="translate(11376.395 5385.89)" fill="#001652"/>
    <path id="Tracé_1117" data-name="Tracé 1117" d="M77.179,52.886l-.047.1a.993.993,0,0,1-1.021.479.98.98,0,0,1-.8-.75,10.47,10.47,0,0,0-1.9-4.021l-.112-.146-.037-.037a.383.383,0,0,1,0,.053c.106.563.212,1.13.311,1.693q.124.7.243,1.41c.068.42.134.84.2,1.264.056.361.106.722.152,1.083q.062.439.112.878c.028.249.056.5.078.747.031.333.059.666.081,1a11.53,11.53,0,0,1,.019,1.5,3.874,3.874,0,0,1-.1.678.9.9,0,0,1-.367.535,3.507,3.507,0,0,1-.678.352l-.134.053v.056c.016.364.037.728.05,1.092q.031.955.056,1.914c0,.467,0,.934.019,1.4v.672a1.428,1.428,0,0,1-2.835.233,1.813,1.813,0,0,1-.022-.289v-1.6c0-.669-.034-1.335-.053-2,0-.274-.022-.545-.031-.819v-.075a4.824,4.824,0,0,1-1.388,0v.311c-.025.79-.056,1.581-.072,2.371v1.867a1.432,1.432,0,0,1-1.556,1.447,1.413,1.413,0,0,1-1.276-1.161,2.078,2.078,0,0,1-.025-.37V63.564c0-.563.022-1.127.037-1.687,0-.336.022-.672.034-1.008s.028-.641.044-.965v-.1l-.162-.065a3.983,3.983,0,0,1-.554-.274.987.987,0,0,1-.486-.7,5.443,5.443,0,0,1-.131-1.03c0-.548.025-1.089.072-1.634s.109-1.183.19-1.771c.1-.713.2-1.422.311-2.132.159-1.061.349-2.116.545-3.178.1-.542.209-1.08.311-1.618v-.075l-.106.056a4.186,4.186,0,0,0-1.914,2.082,5.988,5.988,0,0,0-.4,1.348,10.271,10.271,0,0,0-.112,1.067.993.993,0,0,1-1.97.065,1.556,1.556,0,0,1,0-.417c.028-.293.053-.585.1-.878a7.22,7.22,0,0,1,1.092-2.969A6.109,6.109,0,0,1,65.312,45.6a6.262,6.262,0,0,1,1.656-.576c.115-.022.23-.034.345-.056a.1.1,0,0,1,.106.044,2.922,2.922,0,0,0,4.385.078.131.131,0,0,1,.121-.062.268.268,0,0,0,.1-.016.971.971,0,0,1,.762.2,9.369,9.369,0,0,1,.856.747,13.588,13.588,0,0,1,2.53,3.4,11.871,11.871,0,0,1,.622,1.394l.028.078a1.127,1.127,0,0,0,.361,2.063Z" transform="translate(11401.986 5383.827)" fill="#001652"/>
    <path id="Tracé_1118" data-name="Tracé 1118" d="M110.307,67.953c0,.5-.034,1-.053,1.494,0,.149-.025.311-.028.445a.37.37,0,0,1-.159.289,1.586,1.586,0,0,1-.411.205,5.289,5.289,0,0,1-.75.187h-.065v7.463a1.123,1.123,0,0,1-2.235.171,1.582,1.582,0,0,1,0-.212V70.782H105.6v7.27a1.067,1.067,0,0,1-.57.977,1.127,1.127,0,0,1-1.665-.809,1.58,1.58,0,0,1,0-.212V70.586a4.834,4.834,0,0,1-.934-.249v-.065c0-.42-.022-.837-.059-1.245s-.075-.865-.121-1.295c-.059-.507-.131-1.015-.2-1.522-.031-.246-.078-.495-.106-.744a2.261,2.261,0,0,1,0-.355c0-.255.034-.507.053-.759s.047-.507.072-.762h0a.468.468,0,0,1,.034.068,9.545,9.545,0,0,1,.654,1.926,1.245,1.245,0,0,0,2.343.215l.031-.075c.588-.09,1.164-.205,1.737-.349a12.533,12.533,0,0,0,2.4-.815,8.093,8.093,0,0,0,.856-.461l.059-.034v.1c.056.685.1,1.369.109,2.057C110.31,66.808,110.316,67.381,110.307,67.953Z" transform="translate(11374.295 5370.998)" fill="#001652"/>
    <path id="Tracé_1119" data-name="Tracé 1119" d="M83.881,33.069a2.686,2.686,0,1,1-2.664-2.68A2.686,2.686,0,0,1,83.881,33.069Z" transform="translate(11390.432 5393.865)" fill="#001652"/>
    <path id="Tracé_1120" data-name="Tracé 1120" d="M112.2,26.552a2.521,2.521,0,1,1-.731-1.806A2.53,2.53,0,0,1,112.2,26.552Z" transform="translate(11370.712 5398.266)" fill="#001652"/>
    <path id="Tracé_1121" data-name="Tracé 1121" d="M59,66.517A1.061,1.061,0,0,0,58.89,67c0,1.656,0,3.311,0,4.98v7.681a.551.551,0,0,1-.492.529.56.56,0,0,1-.6-.411.81.81,0,0,1,0-.121.375.375,0,0,1,0-.059V66.987a2.116,2.116,0,0,1,.641-1.556,3.829,3.829,0,0,1,.311-.268c.019,0,.04-.025.068-.044a1.414,1.414,0,0,1-.019.286,2,2,0,0,0,0,.473,1.276,1.276,0,0,0,.2.492l.044.059C59.024,66.464,59.012,66.489,59,66.517Z" transform="translate(11404.701 5369.943)" fill="#001652"/>
    <path id="Tracé_1122" data-name="Tracé 1122" d="M85.364,27.747a2.96,2.96,0,0,0-2.944,0,1.475,1.475,0,0,1,2.944,0Z" transform="translate(11387.738 5396.635)" fill="#001652"/>
    <path id="Tracé_1123" data-name="Tracé 1123" d="M69.022,67.467a.557.557,0,0,1-1.1-.118,1.164,1.164,0,0,0-.093-.445c.022-.025.037-.047.056-.065a1.245,1.245,0,0,0,.289-.734c0-.134.019-.268.028-.4V65.64a.435.435,0,0,1,.056.04,2.132,2.132,0,0,1,.75,1.407A1.111,1.111,0,0,1,69.022,67.467Z" transform="translate(11397.787 5369.585)" fill="#001652"/>
  </g>
</svg>
