<svg id="Ventilator" xmlns="http://www.w3.org/2000/svg" width="28.486" height="29.222" viewBox="0 0 28.486 29.222">
  <path id="Tracé_1055" data-name="Tracé 1055" d="M270.06,186.9v-1.536h5.384V186.9Zm0-3.839v1.54h5.384v-1.54Zm0,6.152h5.384v-1.536H270.06Z" transform="translate(-250.82 -177.672)" fill="#001652"/>
  <path id="Tracé_1056" data-name="Tracé 1056" d="M226.517,170.43a7.243,7.243,0,0,0-.853.034.772.772,0,0,0-.7.768v27.652a.772.772,0,0,0,.768.768h2.308a.768.768,0,0,0,.768-.768v-3.447l.154.064.055.064a5,5,0,0,0,1.574,1.011,15.9,15.9,0,0,0,1.89.678c.623.188,1.2.328,1.63.427l.508.115.145.03h.038l.371.073.282-.247c2.427-2.133,3.95-4.39,4.39-6.826a1.4,1.4,0,0,1,.853.307,1.459,1.459,0,0,1,.405.875,7.306,7.306,0,0,1,.06,1.574,4.665,4.665,0,0,1-.026.589c0,.427-.047.853-.047,1.28a2.133,2.133,0,0,0,.879,1.8,3.413,3.413,0,0,0,1.843.555,9.88,9.88,0,0,0,4.245-.956,9.027,9.027,0,0,0,1.847-1.109,4.048,4.048,0,0,0,1.233-1.485,2.043,2.043,0,0,0-.128-1.937,3.942,3.942,0,0,0-1.89-1.421,2.559,2.559,0,0,1-1.135-.853,2.282,2.282,0,0,1-.405-1.084,7.39,7.39,0,0,1-.03-1.459l.026-.427c.026-.405.055-.853.055-1.25h1.152v-1.536h3.839a.772.772,0,1,0,0-1.54h-.768V172.354c0-1.062-2.24-1.924-5-1.924s-5,.853-5,1.924v10.379h-.772a.772.772,0,0,0,0,1.54h3.839v1.536h1.152c0,.363-.021.721-.047,1.1a2.875,2.875,0,0,1-.03.5,9.074,9.074,0,0,0,.043,1.762,3.861,3.861,0,0,0,.683,1.77,4.138,4.138,0,0,0,1.779,1.34,2.483,2.483,0,0,1,1.182.815.5.5,0,0,1,.021.516,2.559,2.559,0,0,1-.772.892,7.488,7.488,0,0,1-1.531.913,8.378,8.378,0,0,1-3.536.819,1.886,1.886,0,0,1-1.007-.264.6.6,0,0,1-.243-.55c0-.363,0-.729.038-1.122,0-.213.026-.427.034-.665a9.206,9.206,0,0,0-.085-1.907,2.986,2.986,0,0,0-.892-1.745,2.926,2.926,0,0,0-1.762-.7c0-2.56-1.207-5.179-3.451-7.824l-.034-.038v-1A10,10,0,0,0,226.517,170.43Zm7.679,11.919a.478.478,0,1,1,.009,0Zm15.669-9.918a2.263,2.263,0,0,1,.478.23v10.072h-6.911V172.661a2.5,2.5,0,0,1,.478-.23,9.88,9.88,0,0,1,5.972,0ZM235.7,184.247c.132-.324.265-.623.388-.879,1.762,2.338,2.487,4.484,2.346,6.467-.154,2.133-1.34,4.266-3.694,6.4l-.282-.064c-.405-.094-.956-.23-1.536-.4a14.5,14.5,0,0,1-1.706-.61,4.1,4.1,0,0,1-1-.584,1.663,1.663,0,0,1,.183-.29,14.024,14.024,0,0,1,1.327-1.4l.175-.171a17.848,17.848,0,0,0,1.881-2.06,4.466,4.466,0,0,0,1.007-2.56,10.742,10.742,0,0,1,.917-3.848Z" transform="translate(-224.96 -170.43)" fill="#001652" fill-rule="evenodd"/>
</svg>
