<svg xmlns="http://www.w3.org/2000/svg" width="26.485" height="25.966" viewBox="0 0 26.485 25.966">
  <g id="Groupe_97" data-name="Groupe 97" transform="translate(2654.827 -4763.187)">
    <path id="Tracé_1084" data-name="Tracé 1084" d="M1026.078,78.2a.413.413,0,0,1-.112.037H1000.23v-9.1h24.559c.066.2.124.414.186.6a32.992,32.992,0,0,1,.882,3.891,31.559,31.559,0,0,1,.415,3.949A.714.714,0,0,1,1026.078,78.2Z" transform="translate(-3654.627 4710.913)" fill="#001652"/>
    <path id="Tracé_1085" data-name="Tracé 1085" d="M999.66,52.412l-.145-2.528a.919.919,0,0,0-.1.448q-.075,1.686-.153,3.369c0,.323.075.762.414.767a.34.34,0,0,0,.116,0Zm14.917-10.686h0l-.236.087h0l-1.732.642-.485.182c-.3.116-.6.232-.9.336a.746.746,0,0,1-.3.029.385.385,0,0,1-.327-.348.414.414,0,0,1,.141-.365h0a.418.418,0,0,1,.091-.054c.12-.046.245-.083.369-.124h0c.738-.294,2.1-.829,2.18-.9a.257.257,0,0,0-.137-.381.29.29,0,0,1-.174,0l-.634.24s-.029.046-.046.079,0-.037,0-.054l-.456.17h0l-.269.108h0l-1.169.414-.083.029h-.108c-.448.166-.9.323-1.351.481a.414.414,0,0,1-.576-.493c.116-.638.24-1.272.365-1.91.062-.319,0-.489-.29-.593-.195-.075-.286-.041-.365.157s-.182.493-.278.742c-.236.63-.489,1.243-.7,1.885a8.785,8.785,0,0,0-.253,1.086.472.472,0,0,1-.352.414l-5.8,1.736-.829.249a.535.535,0,0,1-.191.029.385.385,0,0,1-.414-.286.318.318,0,0,1,0-.058l.265,4.558a.14.14,0,0,1,0-.033.489.489,0,0,1,.124-.12,1.359,1.359,0,0,1,.269-.133l6.746-2.789a3.2,3.2,0,0,1,.829-.253,4.907,4.907,0,0,1,1.243.141,8.169,8.169,0,0,0,4.889-1.309l.3-.162c-.216-.3-.692-.253-1.019-.07a3.433,3.433,0,0,0-.369.232,1.624,1.624,0,0,1-.622.282.692.692,0,0,1-.63-.282.348.348,0,0,1-.033-.352.737.737,0,0,1,.472-.323l2.349-.829c.232-.079.522-.307.381-.51s-.327-.1-.493-.029l-2.358.916c-.356.141-.912.182-.982-.195-.054-.3.3-.506.593-.6l2.987-1.036c.232-.079.5-.2.547-.439a.274.274,0,0,0-.174-.186Zm-15.049-8.378a.414.414,0,0,0,.311.414l.041-.8a.39.39,0,0,0-.352.385Zm.265-4.765a.42.42,0,0,0-.133.829h.087l.311.046.046-.829Zm16.346,4.558-2.072-.34c-.414-.07-.829-.149-1.272-.207a6.019,6.019,0,0,1-.8-.141.414.414,0,0,1,.191-.8c.489.075.974.162,1.463.24l1.732.29c.091,0,.191.037.22-.091s.041-.249-.1-.311a1.242,1.242,0,0,0-.215-.05l-2.9-.555a1.291,1.291,0,0,1-.245-.079.414.414,0,0,1,.24-.791l1.554.319c.1.021.2.046.3.058.186.021.319-.066.336-.215s-.083-.244-.265-.273c-.775-.128-1.55-.261-2.329-.385a5.386,5.386,0,0,0-1.728-.1,6.559,6.559,0,0,0-1.16.356.853.853,0,0,0-.5.477.414.414,0,0,1-.435.2c-.559-.1-1.115-.2-1.657-.286l-6.439-1-.178,3.518h.1c.7.058,1.392.128,2.072.195l4.608.414c.414.037.8.079,1.2.112a.505.505,0,0,1,.414.3,24.609,24.609,0,0,1,1.272,3.191l.058.162c.1.257.211.3.443.153a.194.194,0,0,0,.058-.112c.062-.307.137-.613.17-.924a2.2,2.2,0,0,0-.046-.543c-.046-.356-.1-.717-.153-1.073-.07-.485.124-.675.613-.6l4.048.622h.066c.178,0,.311-.066.331-.2s-.054-.244-.244-.29l-1.463-.323-1.023-.236a.415.415,0,0,1-.369-.489.439.439,0,0,1,.518-.34c.414.066.829.149,1.272.224l2.167.389c.249.041.348-.037.348-.265C1016.375,33.194,1016.263,33.161,1016.139,33.14Z" transform="translate(-3654.057 4734.668)" fill="#fff"/>
    <path id="Tracé_1086" data-name="Tracé 1086" d="M1052.244,55.29a.413.413,0,0,1-.112.037.34.34,0,0,1-.112,0,.5.5,0,0,1-.336-.236,1.35,1.35,0,0,1-.124-.642,24.265,24.265,0,0,0-1.338-7.409.622.622,0,0,0-.754-.51h-4.558V45.7h4.972c-.858-2.9-2.627-5.536-3.05-8.536a19.779,19.779,0,0,1,.6-6.708.633.633,0,0,1,.153-.352c.207-.2.584,0,.675.265a1.4,1.4,0,0,1-.091.829c-.029.091-.058.186-.083.278a13.17,13.17,0,0,0-.522,3.592A13.516,13.516,0,0,0,1048.6,40.4c.116.282.253.551.385.829.054.112.108.228.157.344.186.414.377.829.559,1.243s.3.733.452,1.1.244.646.365.97c.158.443.311.891.448,1.343.066.2.124.414.187.6a32.992,32.992,0,0,1,.883,3.891,31.581,31.581,0,0,1,.414,3.949A.765.765,0,0,1,1052.244,55.29Z" transform="translate(-3680.793 4733.82)" fill="#001652"/>
    <path id="Tracé_1087" data-name="Tracé 1087" d="M1018.145,44.756v.829h-1.409a7.948,7.948,0,0,0-1.856.137,8.362,8.362,0,0,0-1.744.7,7.877,7.877,0,0,1-4.144,1.123,7.43,7.43,0,0,0-1.537-.145,3.758,3.758,0,0,0-1.044.319l-5.532,2.3a1.156,1.156,0,0,0-.456.273,1.189,1.189,0,0,0-.2.7l-.174,2.71c0,.261-.1.593-.323.68a.34.34,0,0,1-.116,0c-.323,0-.414-.443-.414-.767q.079-1.686.153-3.369a.92.92,0,0,1,.1-.447.143.143,0,0,1,0-.033.828.828,0,0,1,.414-.253l6.746-2.789a3.2,3.2,0,0,1,.829-.253,4.907,4.907,0,0,1,1.243.141c1.811.278,3.572-.609,5.188-1.471-.215-.3-.692-.253-1.019-.07a3.373,3.373,0,0,1-.99.514c-.373.054-.829-.294-.663-.634a.738.738,0,0,1,.472-.323l2.349-.829c.232-.079.522-.307.381-.51s-.327-.1-.493-.029l-2.358.916c-.356.141-.912.182-.982-.195-.054-.3.3-.506.593-.6l2.988-1.036c.232-.079.5-.2.547-.439a.273.273,0,0,0-.2-.278h0l-.236.087h0l-1.732.642-.485.182c-.3.116-.6.232-.9.336a.746.746,0,0,1-.3.029.385.385,0,0,1-.327-.348.414.414,0,0,1,.141-.365h0a.415.415,0,0,1,.091-.054c.12-.046.244-.083.369-.124h0c.738-.294,2.1-.829,2.18-.9a.257.257,0,0,0-.137-.381.29.29,0,0,1-.174,0l-.634.24s-.029.046-.046.079,0-.037,0-.054l-.456.17h0l-.269.108h0l-1.168.414-.083.029h-.108c-.448.166-.9.323-1.351.481a.414.414,0,0,1-.576-.493c.116-.638.24-1.272.365-1.91.062-.319,0-.489-.29-.593-.195-.075-.286-.041-.365.157s-.182.493-.278.742c-.236.63-.489,1.243-.7,1.885a8.774,8.774,0,0,0-.253,1.086.473.473,0,0,1-.352.414l-6.63,1.985a.414.414,0,0,1-.584-.257.318.318,0,0,1,0-.058.417.417,0,0,1,0-.1.443.443,0,0,1,.054-.157l.042-.058.054-.05a.379.379,0,0,1,.066-.046.417.417,0,0,1,.07-.041l.087-.029c.414-.12.8-.244,1.2-.356a.344.344,0,0,0,.265-.249c.133-.369.269-.733.414-1.1s.278-.7.414-1.057c.054-.124.108-.253.166-.381.191-.414.336-.87.51-1.3.12-.3.249-.593.373-.887.249-.584.5-1.164.742-1.749a5,5,0,0,0,.315-2.619c-.037-.278-.083-.555-.116-.829,0-.108-.062-.141-.166-.149l-3.12-.286-.7-.066a.3.3,0,0,1-.087,0,.414.414,0,0,1-.311-.414.389.389,0,0,1,.352-.369h.1c.7.058,1.392.128,2.072.195l4.608.414c.414.037.8.079,1.2.112a.506.506,0,0,1,.414.3,24.6,24.6,0,0,1,1.272,3.191l.058.162c.1.257.211.3.443.153a.2.2,0,0,0,.058-.112c.062-.307.137-.613.17-.924a2.205,2.205,0,0,0-.046-.543c-.046-.356-.1-.717-.153-1.073-.07-.485.124-.675.613-.6l4.048.622h.066c.178,0,.311-.066.331-.2s-.054-.244-.244-.29l-1.463-.323-1.023-.236a.414.414,0,0,1-.369-.489.439.439,0,0,1,.518-.34c.414.066.829.149,1.272.224l2.167.389c.249.041.348-.037.348-.265,0-.166-.112-.2-.236-.22l-2.072-.34c-.414-.07-.829-.149-1.272-.207a6.016,6.016,0,0,1-.8-.141.414.414,0,0,1,.191-.8c.489.075.974.162,1.463.24l1.732.29c.091,0,.191.037.22-.091s.041-.249-.1-.311a1.245,1.245,0,0,0-.215-.05l-2.9-.555a1.3,1.3,0,0,1-.244-.079.414.414,0,0,1,.24-.791l1.554.319c.1.021.2.046.3.058.186.021.319-.066.336-.215s-.083-.244-.265-.273c-.775-.128-1.55-.261-2.329-.385a5.386,5.386,0,0,0-1.728-.1,6.563,6.563,0,0,0-1.16.356.853.853,0,0,0-.5.477.414.414,0,0,1-.435.2c-.559-.1-1.115-.2-1.657-.286l-6.439-1-.311-.046h-.087a.42.42,0,1,1,.133-.829l.311.05,1.475.228,6.311.978a.261.261,0,0,0,.257-.087,3.207,3.207,0,0,1,1.492-.771,4.284,4.284,0,0,1,1.761-.083c.961.133,1.918.294,2.876.448a2.1,2.1,0,0,1,.51.133,1.04,1.04,0,0,1,.6,1.243l-.041.141.261.054a1.023,1.023,0,0,1,.829,1.177c0,.153,0,.211.162.273a1.044,1.044,0,0,1,.572,1.243,1.019,1.019,0,0,1-.949.829h-.215v.265a1.094,1.094,0,0,1-1.28.99L1011.005,35h-.133c.075.369.133.721.22,1.065a.489.489,0,0,1,0,.414,1.442,1.442,0,0,0-.2.829c0,.389.037.779.05,1.173a1.558,1.558,0,0,1,0,.34.411.411,0,0,1-.816-.075v-.427a2.864,2.864,0,0,1-.568,0,.978.978,0,0,1-.729-.667c-.3-.829-.588-1.616-.887-2.424-.07-.186-.178-.36-.244-.547a.414.414,0,0,0-.414-.273c-.829-.066-1.657-.145-2.453-.224h-.157a2.023,2.023,0,0,0,.037.327,7.011,7.011,0,0,1-.6,4.222c-.7,1.562-1.322,3.153-1.977,4.732-.075.178-.133.365-.207.572l.149-.033,3.729-1.119c.1-.029.166-.07.178-.191a7.737,7.737,0,0,1,.555-1.765c.207-.572.414-1.139.638-1.711a1.032,1.032,0,0,1,1.156-.767,1.243,1.243,0,0,1,1.115,1.052,3.138,3.138,0,0,1-.062.729c-.058.344-.133.684-.2,1.065l.936-.336.932-.348.1-.037.1-.037.622-.232h.025c.236-.091.472-.182.713-.261A1.077,1.077,0,0,1,1014,40.6c.1.041.079.356.079.356s.282-.153.373-.12h0a.076.076,0,0,1,.07.07.489.489,0,0,1,.228-.058.9.9,0,0,1,.829.829,1.715,1.715,0,0,1-.414,1.193,1.243,1.243,0,0,1-.588,1.62c-.029.195.244.273.439.273Z" transform="translate(-3654.02 4734.75)" fill="#001652"/>
    <path id="Tracé_1088" data-name="Tracé 1088" d="M1033.418,47.459a2.714,2.714,0,0,1-1.173.236,4.716,4.716,0,0,1-2.225-.634.415.415,0,1,1,.4-.725,4.086,4.086,0,0,0,1.728.53,2.092,2.092,0,0,0,.94-.166.414.414,0,1,1,.328.758Z" transform="translate(-3671.941 4724.302)" fill="#001652"/>
    <path id="Tracé_1089" data-name="Tracé 1089" d="M1040.223,57.265a.415.415,0,0,1-.365.5.447.447,0,0,1-.464-.389,8.78,8.78,0,0,0-.361-1.177,2.167,2.167,0,0,0-1.015-1.148.412.412,0,1,1,.406-.717,2.7,2.7,0,0,1,1.044.945A4.882,4.882,0,0,1,1040.223,57.265Z" transform="translate(-3676.633 4719.618)" fill="#001652"/>
  </g>
</svg>
