<svg id="Groupe_45" data-name="Groupe 45" xmlns="http://www.w3.org/2000/svg" width="26.018" height="26.139" viewBox="0 0 26.018 26.139">
  <path id="Tracé_1024" data-name="Tracé 1024" d="M244.09,51.859l5.469-5.454-1.2-1.2-5.469,5.465-.765-.769a1.541,1.541,0,0,0-2.175,0l-1.031,1.031,2.44,2.444-1.2,1.2-2.444-2.444-2.479,2.479,2.444,2.444-1.2,1.2-2.444-2.444-2.394,2.391,2.444,2.444-1.2,1.2-2.444-2.444-1.608,1.612L227.05,59.25l-1.2,1.2,3.687,3.687-3.478,3.475L224.744,66.3l-1.2,1.2,3.832,3.836,1.2-1.2-1.314-1.318,3.475-3.475,3.687,3.687,1.2-1.2L233.808,66l11.121-11.121a1.541,1.541,0,0,0,0-2.175Z" transform="translate(-223.54 -45.2)" fill="#001652"/>
</svg>
