<svg xmlns="http://www.w3.org/2000/svg" width="19.991" height="27.485" viewBox="0 0 19.991 27.485">
  <g id="Groupe_92" data-name="Groupe 92" transform="translate(3437.032 -4756.305)">
    <path id="Tracé_1094" data-name="Tracé 1094" d="M221.188,34.548A2.646,2.646,0,0,1,223.9,31.86a2.713,2.713,0,0,1,0,5.427,2.656,2.656,0,0,1-2.713-2.738Z" transform="translate(-3656.713 4728.139)" fill="#001652"/>
    <path id="Tracé_1095" data-name="Tracé 1095" d="M226.4,57.587a9.137,9.137,0,0,0,2.466-3.068,4.386,4.386,0,0,0,.276-3.584.985.985,0,1,1,1.835-.717,5.48,5.48,0,0,1,.358,2.427,6.81,6.81,0,0,1-.577,2.47,10.811,10.811,0,0,1-3.179,4.029.9.9,0,0,1-1.312-.158.968.968,0,0,1,.133-1.4Z" transform="translate(-3659.818 4716.763)" fill="#001652"/>
    <path id="Tracé_1096" data-name="Tracé 1096" d="M221.491,58.408c-.473,1.609-.982,3.2-1.495,4.8a1.563,1.563,0,0,1-2.054,1.036,1.631,1.631,0,0,1-.871-2c.677-2.011,1.294-4.04,1.943-6.061a1.5,1.5,0,0,1,1.638-1.151c0,.219-.2.29-.308.423a1.075,1.075,0,0,0,0,1.5,1.057,1.057,0,0,0,1.563.194,10.947,10.947,0,0,0,3.584-5.119,6.309,6.309,0,0,0-.061-3.868,1.308,1.308,0,0,0-1.136-.889,1.2,1.2,0,0,0-1.1.767,1.075,1.075,0,0,0,0,.806,4.3,4.3,0,0,1-.075,2.893c-.473-1.165-1.161-2.115-1.032-3.359a2.369,2.369,0,0,1,1.624-2.093c.183-.047.394-.111.505.082a2.263,2.263,0,0,0,1.509.893,1.706,1.706,0,0,1,1.125.975,17.6,17.6,0,0,1,1.667,5.441,5.444,5.444,0,0,1-.1,2.817,2.261,2.261,0,0,1-2.212,1.57c-1.409-.061-2.821,0-4.23,0C221.7,58.053,221.581,58.114,221.491,58.408Z" transform="translate(-3654.02 4718.911)" fill="#001652"/>
    <path id="Tracé_1097" data-name="Tracé 1097" d="M237.305,86.5c.061.326-.057.394-.358.391h-8.033c-.28,0-.434.025-.358-.391.358-1.792.656-3.563.968-5.348.054-.3.183-.416.516-.412,1.921.018,3.842,0,5.764,0,.312,0,.448.065.509.416C236.607,82.944,236.947,84.722,237.305,86.5Z" transform="translate(-3661.429 4696.779)" fill="#001652"/>
    <path id="Tracé_1098" data-name="Tracé 1098" d="M237.415,42.431a.846.846,0,0,1,.7-.717,1,1,0,0,1,.663.151,6.33,6.33,0,0,0,2.713.645,4.262,4.262,0,0,0,2.939-1.176.841.841,0,0,1,1.3-.057.828.828,0,0,1-.079,1.3,5.968,5.968,0,0,1-4.38,1.606,6.99,6.99,0,0,1-3.341-.835A.821.821,0,0,1,237.415,42.431Z" transform="translate(-3667.116 4722.277)" fill="#001652"/>
    <path id="Tracé_1099" data-name="Tracé 1099" d="M246.089,24.223a2.626,2.626,0,0,1,2.986-2.66,2.7,2.7,0,0,1-.3,5.377,2.663,2.663,0,0,1-2.681-2.717Z" transform="translate(-3672.69 4734.75)" fill="#001652"/>
    <path id="Tracé_1100" data-name="Tracé 1100" d="M259.152,49.949c0,.269-.075.387-.358.416-.778.079-1.556.2-2.333.276-.358.036-.308.28-.308.5v6.606a1.373,1.373,0,0,1-.538,1.258,1.233,1.233,0,0,1-1.943-1.1V51.49c0-.319,0-.513-.43-.412-.315.072-.717.28-.982.068s-.154-.6-.19-.914a36.05,36.05,0,0,1-.448-4.66c0-.6-.068-1.2-.072-1.792,0-.509.057-1.018.068-1.527,0-.211.115-.229.283-.272a6.094,6.094,0,0,0,2.979-1.591,1.039,1.039,0,1,0-1.434-1.5,4.7,4.7,0,0,1-.62.48c-.233.147-.487.251-.842.43a5.516,5.516,0,0,1,.656-1.491,1.875,1.875,0,0,1,3.075-.122,10.93,10.93,0,0,1,2.032,4.2,33.893,33.893,0,0,1,1.133,5.269A18.159,18.159,0,0,1,259.152,49.949Z" transform="translate(-3676.193 4724.556)" fill="#001652"/>
    <path id="Tracé_1101" data-name="Tracé 1101" d="M259.152,49.949c0,.269-.075.387-.358.416-.778.079-1.556.2-2.333.276-.358.036-.308.28-.308.5v6.606a1.373,1.373,0,0,1-.538,1.258,1.233,1.233,0,0,1-1.943-1.1V51.49c0-.319,0-.513-.43-.412-.315.072-.717.28-.982.068s-.154-.6-.19-.914a36.05,36.05,0,0,1-.448-4.66c0-.6-.068-1.2-.072-1.792,0-.509.057-1.018.068-1.527,0-.211.115-.229.283-.272a6.094,6.094,0,0,0,2.979-1.591,1.039,1.039,0,1,0-1.434-1.5,4.7,4.7,0,0,1-.62.48c-.233.147-.487.251-.842.43a5.516,5.516,0,0,1,.656-1.491,1.875,1.875,0,0,1,3.075-.122,10.93,10.93,0,0,1,2.032,4.2,33.893,33.893,0,0,1,1.133,5.269A18.159,18.159,0,0,1,259.152,49.949Z" transform="translate(-3676.193 4724.556)" fill="#001652"/>
    <path id="Tracé_1102" data-name="Tracé 1102" d="M228.409,56.549a2.264,2.264,0,0,1-2.212,1.57c-1.409-.061-2.821,0-4.23,0-.269,0-.387.057-.477.358-.473,1.609-.982,3.2-1.495,4.8a1.563,1.563,0,0,1-2.054,1.036,1.631,1.631,0,0,1-.871-2c.677-2.011,1.294-4.04,1.943-6.061a1.5,1.5,0,0,1,1.638-1.151c0,.219-.2.29-.308.423a1.075,1.075,0,0,0,0,1.5,1.057,1.057,0,0,0,1.563.194,10.947,10.947,0,0,0,3.584-5.119,6.309,6.309,0,0,0-.061-3.868,1.308,1.308,0,0,0-1.136-.889,1.2,1.2,0,0,0-1.1.767,1.075,1.075,0,0,0,0,.806,4.3,4.3,0,0,1-.075,2.893c-.473-1.165-1.161-2.115-1.032-3.359a2.369,2.369,0,0,1,1.624-2.093c.183-.047.394-.111.505.082a2.263,2.263,0,0,0,1.509.893,1.706,1.706,0,0,1,1.125.975,17.6,17.6,0,0,1,1.667,5.416A5.456,5.456,0,0,1,228.409,56.549Z" transform="translate(-3654.02 4718.866)" fill="#001652"/>
    <path id="Tracé_1103" data-name="Tracé 1103" d="M236.947,86.891h-8.033c-.28,0-.434.025-.358-.391.358-1.792.656-3.563.968-5.348.054-.3.183-.416.516-.412,1.921.018,3.842,0,5.764,0,.312,0,.448.065.509.416.308,1.792.652,3.563.993,5.341C237.352,86.826,237.234,86.894,236.947,86.891Z" transform="translate(-3661.429 4696.779)" fill="#001652"/>
    <path id="Tracé_1104" data-name="Tracé 1104" d="M251.538,24.223a2.731,2.731,0,0,1-2.767,2.7,2.663,2.663,0,0,1-2.681-2.7,2.626,2.626,0,0,1,2.986-2.66,2.713,2.713,0,0,1,2.462,2.66Z" transform="translate(-3672.69 4734.75)" fill="#001652"/>
    <path id="Tracé_1105" data-name="Tracé 1105" d="M226.629,34.595a2.749,2.749,0,0,1-2.731,2.692,2.713,2.713,0,0,1,0-5.427,2.724,2.724,0,0,1,2.728,2.735Z" transform="translate(-3656.713 4728.139)" fill="#001652"/>
    <path id="Tracé_1106" data-name="Tracé 1106" d="M231.336,52.657a6.811,6.811,0,0,1-.588,2.445,10.81,10.81,0,0,1-3.179,4.029.9.9,0,0,1-1.312-.158.968.968,0,0,1,.133-1.405,9.137,9.137,0,0,0,2.466-3.068,4.386,4.386,0,0,0,.276-3.584.985.985,0,1,1,1.835-.717,5.481,5.481,0,0,1,.369,2.459Z" transform="translate(-3659.811 4716.776)" fill="#001652"/>
    <path id="Tracé_1107" data-name="Tracé 1107" d="M245.644,42.578a5.968,5.968,0,0,1-4.38,1.606,6.989,6.989,0,0,1-3.341-.835.821.821,0,0,1-.509-.918.846.846,0,0,1,.7-.717,1,1,0,0,1,.663.151,6.33,6.33,0,0,0,2.713.645,4.262,4.262,0,0,0,2.939-1.176.841.841,0,0,1,1.3-.057.828.828,0,0,1-.082,1.3Z" transform="translate(-3667.115 4722.277)" fill="#001652"/>
  </g>
</svg>
