<svg xmlns="http://www.w3.org/2000/svg" width="26.485" height="26.529" viewBox="0 0 26.485 26.529">
  <g id="Groupe_94" data-name="Groupe 94" transform="translate(3133.504 -4757.71)">
    <path id="Tracé_1070" data-name="Tracé 1070" d="M552.57,25.373a2.394,2.394,0,1,1,2.4,2.375A2.394,2.394,0,0,1,552.57,25.373Z" transform="translate(-3673.796 4734.75)" fill="#001652"/>
    <path id="Tracé_1071" data-name="Tracé 1071" d="M538.919,74.519a10.341,10.341,0,0,0,.988,2.03h-1.2c-.444,0-.59.146-.59.586v3.5c0,.283-.073.383-.383.383-.881,0-.881,0-.881-.9V77.136c0-.44-.123-.567-.559-.567H527.86c-.467,0-.605.142-.605.609v2.589c0,.226-.057.314-.3.318-.942,0-.942,0-.942-.912v-2.08c0-.383-.134-.521-.525-.521h-3.137c-.452,0-.571.123-.571.59V80.61c0,.287-.046.406-.383.383-.873-.019-.873,0-.873-.869V75.431a1.249,1.249,0,0,1,1.36-1.36H538.21A.663.663,0,0,1,538.919,74.519Z" transform="translate(-3654.02 4703.22)" fill="#001652"/>
    <path id="Tracé_1072" data-name="Tracé 1072" d="M538.809,45.14a17.9,17.9,0,0,1,2.057-6.129,10.894,10.894,0,0,1,.988-1.44,2.32,2.32,0,0,1,3.9.165,11.54,11.54,0,0,1,1.18,2.375,2.445,2.445,0,0,0,1.915,1.747,13.937,13.937,0,0,1,1.915.605,1.065,1.065,0,0,1,.766,1.264,1,1,0,0,1-1.245.735c-1.36-.3-2.712-.647-4.064-.984a.992.992,0,0,1-.62-.532c-.287-.529-.582-1.057-.915-1.659a13.874,13.874,0,0,0-1.011,3.03.739.739,0,0,0-.031.18c0,.36-.218.452-.532.467-1.214.054-2.39.383-3.589.555l-.322.05C538.74,45.622,538.728,45.618,538.809,45.14Z" transform="translate(-3665.283 4726.344)" fill="#001652"/>
    <path id="Tracé_1073" data-name="Tracé 1073" d="M578.861,84.943v.548c0,.8,0,.766-.824.808-.333,0-.44-.084-.421-.421.027-.509,0-1.019,0-1.532,0-.188.046-.214.2-.134.291.149.582.295.877.437A.276.276,0,0,1,578.861,84.943Z" transform="translate(-3689.248 4696.987)" fill="#001652"/>
    <path id="Tracé_1074" data-name="Tracé 1074" d="M577.29,59.455a2.348,2.348,0,0,1,2.4-2.356,2.321,2.321,0,0,1,2.34,2.36,2.359,2.359,0,0,1-2.363,2.386A2.386,2.386,0,0,1,577.29,59.455Z" transform="translate(-3689.048 4713.688)" fill="#001652"/>
    <path id="Tracé_1075" data-name="Tracé 1075" d="M546.555,69.021a.935.935,0,0,1-1.341.356c-1.352-.666-2.7-1.333-4.056-1.992a1.2,1.2,0,0,1-.605-.644c-.291-.693-.62-1.371-.9-2.068a.452.452,0,0,0-.509-.333H521.837a1.149,1.149,0,0,1-1.172-1.49,1.007,1.007,0,0,1,.862-.67l3.367-.59q3.263-.575,6.512-1.149a10.108,10.108,0,0,1,1.23-.1c2.195-.111,4.39-.211,6.581-.318a3.79,3.79,0,0,0,.471-.05,1.191,1.191,0,0,1,1.149.885c.237.624.456,1.253.678,1.881.306.858.613,1.716.912,2.578a.666.666,0,0,0,.3.383c1.115.67,2.222,1.348,3.332,2.022C546.639,68.064,546.808,68.539,546.555,69.021Z" transform="translate(-3654.08 4711.916)" fill="#001652"/>
    <path id="Tracé_1076" data-name="Tracé 1076" d="M546.555,69.021a.935.935,0,0,1-1.341.356c-1.352-.666-2.7-1.333-4.056-1.992a1.2,1.2,0,0,1-.605-.644c-.291-.693-.62-1.371-.9-2.068a.452.452,0,0,0-.509-.333H521.837a1.149,1.149,0,0,1-1.172-1.49,1.007,1.007,0,0,1,.862-.67l3.367-.59q3.263-.575,6.512-1.149a10.108,10.108,0,0,1,1.23-.1c2.195-.111,4.39-.211,6.581-.318a3.79,3.79,0,0,0,.471-.05,1.191,1.191,0,0,1,1.149.885c.237.624.456,1.253.678,1.881.306.858.613,1.716.912,2.578a.666.666,0,0,0,.3.383c1.115.67,2.222,1.348,3.332,2.022C546.639,68.064,546.808,68.539,546.555,69.021Z" transform="translate(-3654.08 4711.916)" fill="#001652"/>
    <path id="Tracé_1077" data-name="Tracé 1077" d="M539.907,76.549h-1.2c-.444,0-.59.146-.59.586v3.5c0,.283-.073.383-.383.383-.881,0-.881,0-.881-.9V77.136c0-.44-.123-.567-.559-.567H527.86c-.467,0-.605.142-.605.609v2.589c0,.226-.057.314-.3.318-.942,0-.942,0-.942-.912v-2.08c0-.383-.134-.521-.525-.521h-3.137c-.452,0-.571.123-.571.59V80.61c0,.287-.046.406-.383.383-.873-.019-.873,0-.873-.869V75.431a1.249,1.249,0,0,1,1.36-1.36H538.21a.663.663,0,0,1,.693.456A10.344,10.344,0,0,0,539.907,76.549Z" transform="translate(-3654.02 4703.22)" fill="#001652"/>
    <path id="Tracé_1078" data-name="Tracé 1078" d="M551.545,43.715a1,1,0,0,1-1.245.735c-1.36-.3-2.712-.647-4.064-.984a.992.992,0,0,1-.62-.532c-.287-.529-.582-1.057-.916-1.659a13.875,13.875,0,0,0-1.011,3.03.742.742,0,0,0-.031.18c0,.36-.218.452-.532.467-1.214.054-2.39.383-3.589.555l-.322.05c-.475.065-.486.061-.406-.418a17.9,17.9,0,0,1,2.057-6.129,10.9,10.9,0,0,1,.988-1.44,2.32,2.32,0,0,1,3.9.165,11.537,11.537,0,0,1,1.18,2.375,2.445,2.445,0,0,0,1.915,1.747,13.932,13.932,0,0,1,1.915.605A1.065,1.065,0,0,1,551.545,43.715Z" transform="translate(-3665.283 4726.344)" fill="#001652"/>
    <path id="Tracé_1079" data-name="Tracé 1079" d="M582.028,59.459a2.359,2.359,0,0,1-2.363,2.386,2.386,2.386,0,0,1-2.375-2.39,2.348,2.348,0,0,1,2.4-2.356,2.321,2.321,0,0,1,2.34,2.36Z" transform="translate(-3689.048 4713.688)" fill="#001652"/>
    <path id="Tracé_1080" data-name="Tracé 1080" d="M557.348,25.468a2.394,2.394,0,1,1-2.379-2.4A2.394,2.394,0,0,1,557.348,25.468Z" transform="translate(-3673.79 4734.682)" fill="#001652"/>
    <path id="Tracé_1081" data-name="Tracé 1081" d="M578.851,85.49c0,.8,0,.766-.824.808-.333,0-.44-.084-.421-.421.027-.509,0-1.019,0-1.532,0-.188.046-.214.2-.134.291.149.582.295.877.437a.276.276,0,0,1,.169.291C578.848,85.123,578.851,85.307,578.851,85.49Z" transform="translate(-3689.242 4696.987)" fill="#001652"/>
  </g>
</svg>
