<svg xmlns="http://www.w3.org/2000/svg" width="26.521" height="22.642" viewBox="0 0 26.521 22.642">
  <g id="Groupe_93" data-name="Groupe 93" transform="translate(3291.221 -4768.049)">
    <g id="exercise_with_ball" data-name="exercise with ball" transform="translate(-3291.221 4768.049)">
      <path id="Tracé_1090" data-name="Tracé 1090" d="M380.29,66.02h0a16.447,16.447,0,0,1-5.986-3.04c-3.444.243-6.143,2.613-6.143,5.485,0,3.052,3.013,5.528,6.731,5.528s6.727-2.464,6.727-5.52a4.7,4.7,0,0,0-.643-2.351,4.824,4.824,0,0,1-.674-.1Z" transform="translate(-366.06 -51.351)" fill="#001652"/>
      <path id="Tracé_1091" data-name="Tracé 1091" d="M390.316,51.187c-2.507-.646-5.015-2.449-6.8-3.616a3.44,3.44,0,0,0-2.9-.693l-.047.067a3.644,3.644,0,0,1-1.156,1.007l-.059.145h.443a11,11,0,0,0,1.544-.1h.02a1.176,1.176,0,0,1,.235,0,1.493,1.493,0,0,1,.235,2.97,13.834,13.834,0,0,1-2.029.141h-.082a4.561,4.561,0,0,0,.854.983c.631.545,1.215,1.007,1.79,1.414a16.538,16.538,0,0,0,5.583,2.5c.137.027.266.047.392.063a2.805,2.805,0,0,0,2.288-.6h.392l4.31.192-.991,5.736a1.873,1.873,0,0,0,1.524,2.159,1.81,1.81,0,0,0,.321.027,1.873,1.873,0,0,0,1.841-1.567h0l1.348-7.836a1.865,1.865,0,0,0-1.74-2.139l-5.634-.251-.466-.02a4.541,4.541,0,0,0-1.211-.576Z" transform="translate(-372.866 -41.51)" fill="#001652"/>
      <path id="Tracé_1092" data-name="Tracé 1092" d="M368.394,44.662a3.591,3.591,0,0,1-4.474-3.51,3.408,3.408,0,0,1,.02-.392,1.2,1.2,0,0,0-1.14,1.226,4.948,4.948,0,0,0,.846,2.742,5.446,5.446,0,0,0,2.985,2,10.578,10.578,0,0,0,2.515.392h.592a13.282,13.282,0,0,0,1.982-.137,1.195,1.195,0,0,0-.392-2.351h0a11.925,11.925,0,0,1-1.567.106h-.854C368.719,44.7,368.559,44.686,368.394,44.662Z" transform="translate(-362.799 -37.837)" fill="#001652"/>
      <path id="Tracé_1093" data-name="Tracé 1093" d="M367.038,34.62a3.31,3.31,0,0,0-.572,1.3,2.473,2.473,0,0,0-.043.3v.153a3.358,3.358,0,0,0,3.134,3.526,3.448,3.448,0,0,0,1.023-.094,3.373,3.373,0,0,0,1.395-.725,3.585,3.585,0,0,0,.548-.584c0-.024.027-.047.043-.067a3.362,3.362,0,0,0-5.528-3.812Z" transform="translate(-365 -33.299)" fill="#001652"/>
    </g>
  </g>
</svg>
