<svg id="Groupe_43" data-name="Groupe 43" xmlns="http://www.w3.org/2000/svg" width="26.018" height="26.011" viewBox="0 0 26.018 26.011">
  <path id="Tracé_1022" data-name="Tracé 1022" d="M117.127,85.01l-4.15-4.15L111.8,82.023l4.154,4.154a.886.886,0,0,1,0,1.245l-4.535,4.535a.908.908,0,0,1-1.245,0l-4.157-4.146-1.171,1.175,4.15,4.15a2.534,2.534,0,0,0,3.591,0l4.547-4.535A2.542,2.542,0,0,0,117.127,85.01Z" transform="translate(-91.851 -67.871)" fill="#001652"/>
  <path id="Tracé_1023" data-name="Tracé 1023" d="M95.8,52.986l-4.53-4.53a1.706,1.706,0,0,0-2.416,0l-16.4,16.4a1.706,1.706,0,0,0,0,2.416l4.53,4.53a1.706,1.706,0,0,0,2.413,0L95.8,55.4A1.706,1.706,0,0,0,95.8,52.986ZM76.354,66.541a.933.933,0,1,1,.274-.661A.933.933,0,0,1,76.354,66.541Zm1.221-3.86a.933.933,0,1,1,0,1.317A.933.933,0,0,1,77.575,62.681Zm1.48,6.569a.659.659,0,1,1,.007,0Zm2.531-2.539a.933.933,0,1,1,.274-.661A.933.933,0,0,1,81.587,66.711ZM87.878,55a.933.933,0,1,1,0-1.317A.933.933,0,0,1,87.878,55ZM89.1,51.146a2.68,2.68,0,1,1,0,.015Zm1.48,6.565a.471.471,0,1,1,.007.015Zm2.539-2.539a.471.471,0,1,1,.007.015Z" transform="translate(-71.113 -46.955)" fill="#001652"/>
  <path id="Tracé_1021" data-name="Tracé 1021" d="M75.77,57.566l-4.15-4.15a.878.878,0,0,1,0-1.245l4.535-4.535a.878.878,0,0,1,1.245,0l4.15,4.15,1.175-1.171-4.15-4.154a2.549,2.549,0,0,0-3.594,0l-4.535,4.55a2.542,2.542,0,0,0,0,3.594l4.15,4.15Z" transform="translate(-69.701 -45.72)" fill="#001652"/>
</svg>
