<svg id="Groupe_136" data-name="Groupe 136" xmlns="http://www.w3.org/2000/svg" width="27.412" height="27.412" viewBox="0 0 27.412 27.412">
  <path id="Tracé_1025" data-name="Tracé 1025" d="M1136.649,64.433h-2.929a1.949,1.949,0,0,1-1.949-1.949v-.419c.114-.069.222-.128.346-.194,2.126-1.219,4.532-2.614,4.532-6.045V50.785a2.932,2.932,0,0,0-2.922-2.922h-1.949V44.938h4.871a.976.976,0,1,0,0-1.949h-21.444V41.046a.976.976,0,1,0-1.949,0V43h-1.949a.976.976,0,1,0,0,1.949h1.949V66.389a.976.976,0,1,0,1.949,0V44.938h14.62v2.925h-1.949a2.933,2.933,0,0,0-2.922,2.922v5.041c0,3.431,2.424,4.826,4.542,6.045l.346.194v.419a3.905,3.905,0,0,0,3.878,3.9h2.922a.976.976,0,1,0,0-1.949ZM1126.9,50.785a.973.973,0,0,1,.973-.973h5.844a.973.973,0,0,1,.973.973v2.925h-7.8Z" transform="translate(-1110.272 -40.012)" fill="#001652"/>
</svg>
