<svg xmlns="http://www.w3.org/2000/svg" width="16.193" height="27.906" viewBox="0 0 16.193 27.906">
  <g id="Groupe_91" data-name="Groupe 91" transform="translate(0)">
    <g id="Gym" transform="translate(6.668)">
      <path id="Tracé_1082" data-name="Tracé 1082" d="M94.112,24.937l-.864.436.216.432-1.084.54-.648-1.3-3.462,1.586.648,1.3-1.081.544-.216-.436-.868.436-.432-.868-.868.436-.432-.868.868-.432-.436-.868.868-.432-.216-.432,1.081-.54.648,1.3L91.3,24.181l-.652-1.3,1.084-.544.216.432.864-.432.436.868.864-.436.432.868-.864.432Z" transform="translate(-85.02 -22.34)" fill="#001652"/>
    </g>
    <g id="Exercise" transform="translate(0 2.813)">
      <path id="Tracé_1083" data-name="Tracé 1083" d="M90.041,32.887a3.342,3.342,0,1,1-2.366.978A3.346,3.346,0,0,1,90.041,32.887ZM85.41,49.7l2.624-7.4a1.331,1.331,0,0,1,.772-.791c.023,0,.039-.031.062-.035l4.955-1.81h0l4.523-1.822-2.509-6.387a1.331,1.331,0,0,1,.772-1.729,1.381,1.381,0,0,1,.521-.1,1.355,1.355,0,0,1,1.212.849l2.975,7.622a1.351,1.351,0,0,1-.749,1.741L96.042,41.69l3.886,10.686a8.107,8.107,0,0,1,.135,1.227v1.119H92.04v-.637L86.1,51.35a1.335,1.335,0,0,1-.687-1.652Zm5.353.868-1.44-3.933-.98,2.821Z" transform="translate(-85.341 -29.63)" fill="#001652"/>
    </g>
  </g>
</svg>
