<svg xmlns="http://www.w3.org/2000/svg" width="26.485" height="24.422" viewBox="0 0 26.485 24.422">
  <g id="Groupe_95" data-name="Groupe 95" transform="translate(2974.36 -4758.48)">
    <path id="Tracé_1065" data-name="Tracé 1065" d="M715.651,67.962v.519a1.463,1.463,0,0,1-.961,1.028,1.491,1.491,0,0,1-.431.06h-9.071a4.213,4.213,0,0,0,.211-.526,1.472,1.472,0,0,0-1.27-1.943,3.687,3.687,0,0,0-.589-.06l-5.69-.1a.119.119,0,0,0-.1.035c1.052.105,2.1.214,3.157.316.9.091,1.8.168,2.7.267a.94.94,0,0,1,.831,1.052.919.919,0,0,1-.9.947H696.4a2.028,2.028,0,0,1-.326-4.038c.666-.042,1.34-.032,2.013-.032h4.188a.614.614,0,0,0,.509-.228c.547-.61,1.1-1.207,1.642-1.793.54.2,1.052.417,1.568.586a1.575,1.575,0,0,0,1.828-.621,1.509,1.509,0,0,0,.06-1.729c-.039-.084-.091-.161-.151-.27.091,0,.165-.018.235-.018h3.9a1.431,1.431,0,0,1,.94.291,1.126,1.126,0,0,1,.438,1.21,1.322,1.322,0,0,1-1.094.94c-1.358.091-2.715.189-4.076.253a.863.863,0,0,0-.758.41c-.442.638-.912,1.252-1.4,1.912.239,0,.445.042.656.053l6.949.4c.284,0,.568.021.852.049A1.4,1.4,0,0,1,715.651,67.962Z" transform="translate(-3663.526 4710.285)" fill="#001652"/>
    <path id="Tracé_1066" data-name="Tracé 1066" d="M706.145,85.656v2.017H679.66V85.445a1.179,1.179,0,0,1,1.3-.828c.74.028,1.484,0,2.221,0a1.052,1.052,0,0,1,.94.4,1.679,1.679,0,0,0,1.561.642C692.5,85.645,699.322,85.656,706.145,85.656Z" transform="translate(-3654.02 4695.229)" fill="#001652"/>
    <path id="Tracé_1067" data-name="Tracé 1067" d="M681.866,72.325a2.571,2.571,0,0,1-2.147-2.031.514.514,0,0,0-.049-.14v-.674a3.01,3.01,0,0,1,.645-1.358,2.456,2.456,0,0,1,2.406-.8,2.392,2.392,0,0,1,1.884,1.656,2.529,2.529,0,0,1-2.74,3.35Z" transform="translate(-3654.027 4706.49)" fill="#001652"/>
    <path id="Tracé_1068" data-name="Tracé 1068" d="M723.788,47.182h-2.378a.477.477,0,0,1-.4-.182c-.7-.782-1.4-1.557-2.084-2.336a1.707,1.707,0,0,1-.13-.182l-.049.067V47.21c-.635-.053-1.249.126-1.831-.232a6.186,6.186,0,0,1-1.2-.628,4.263,4.263,0,0,1-.631-1.2c-.309-.621-.614-1.249-.961-1.859.193.723.438,1.438.565,2.171a2.028,2.028,0,0,0,1.228,1.617c.7.351,1.368.8,2.049,1.2a1,1,0,1,1-.891,1.8c-1.13-.614-2.206-1.315-3.294-2.017a4.847,4.847,0,0,1-.554-.484,1.4,1.4,0,0,0,.7,1.554c.351.2.667.453,1.031.7l-.4.438c-.27.291-.54.582-.814.87a.35.35,0,0,1-.21.126h-1.94v-.3c0-2.561.021-5.122,0-7.679a2.1,2.1,0,0,1,2.217-2.217c1.291.035,2.585,0,3.876,0a2.126,2.126,0,0,1,1.7.782c1.456,1.733,2.9,3.483,4.343,5.23A.6.6,0,0,0,723.788,47.182Z" transform="translate(-3674.75 4723.499)" fill="#001652"/>
    <path id="Tracé_1069" data-name="Tracé 1069" d="M719.56,26.28a2.55,2.55,0,1,1-2.547-2.55,2.55,2.55,0,0,1,2.547,2.55Z" transform="translate(-3676.613 4734.75)" fill="#001652"/>
  </g>
</svg>
