<svg xmlns="http://www.w3.org/2000/svg" width="56.484" height="31.485" viewBox="0 0 56.484 31.485">
  <g id="Groupe_99" data-name="Groupe 99" transform="translate(-16 -395.547)">
    <g id="Composant_18_48" data-name="Composant 18 – 48" transform="translate(16 412)">
      <g id="Ellipse_40" data-name="Ellipse 40" fill="none" stroke="#001551" stroke-width="1">
        <circle cx="6.5" cy="6.5" r="6.5" stroke="none"/>
        <circle cx="6.5" cy="6.5" r="6" fill="none"/>
      </g>
    </g>
    <g id="Groupe_96" data-name="Groupe 96" transform="translate(2854.87 -4360.453)">
      <path id="Tracé_1063" data-name="Tracé 1063" d="M871.2,59.42a.636.636,0,0,0-.128,0,.315.315,0,0,1,0-.074v-7.4a.826.826,0,0,0-.244-.64.442.442,0,0,1-.141-.38V45.053a1.677,1.677,0,0,0,.413,0,.825.825,0,0,0,.384-.2.545.545,0,0,0,.079-.636.533.533,0,0,0-.529-.322h-3.8a.293.293,0,0,1-.227-.116c-.334-.76-.657-1.528-.987-2.292-.446-1.036-.9-2.065-1.35-3.105-.483-1.127-.962-2.255-1.458-3.378a1.532,1.532,0,0,0-2.065-.826c-.685.3-1.375.586-2.065.88a2.3,2.3,0,0,0-1.3,1.111q-1.2,2.569-2.4,5.145c-.388.826-.768,1.652-1.148,2.511,0,.037-.054.045-.1.045h-8.519a.533.533,0,0,0-.467.6.541.541,0,0,0,.529.545h.372a.707.707,0,0,1,0,.1v5.876a.3.3,0,0,1-.087.19.946.946,0,0,0-.293.714v7.47h-.231c-.2,0-.293.111-.3.343s.083.38.281.38h2.189a.318.318,0,0,0,.231-.132.363.363,0,0,0-.326-.586h-.132v-7.5a.987.987,0,0,0-.244-.64.608.608,0,0,1-.132-.334V45.024h7.71c.149,0,.293.058.442.066a2.61,2.61,0,0,0,.781,0A12.581,12.581,0,0,1,857.889,45v5.975a.359.359,0,0,1-.083.24.916.916,0,0,0-.314.747V59.18c0,.186-.021.281-.244.252s-.293.1-.3.334.078.368.268.368h2.234a.293.293,0,0,0,.215-.149.351.351,0,0,0-.351-.545.907.907,0,0,1-.111,0v-7.4a.826.826,0,0,0-.194-.681c-.235-.2-.173-.442-.19-.677V45.057h2.156c.277,0,.438.058.512.33s.223.446.206.657c-.1,1.148-.235,2.292-.359,3.44l-.479,4.386c-.087.826-.178,1.652-.264,2.478s-.169,1.569-.24,2.354a1.272,1.272,0,0,0,.694,1.326,1.54,1.54,0,0,0,2.3-1.057c.1-.673.165-1.354.235-2.036.128-1.189.252-2.383.38-3.572s.268-2.478.413-3.717c.074-.7.157-1.408.235-2.11q.1,1.734.165,3.46c.1,2.54.19,5.079.289,7.619a1.458,1.458,0,0,0,.413,1.049,1.652,1.652,0,0,0,1.681.281,1.47,1.47,0,0,0,.929-1.342c0-.851-.058-1.7-.091-2.548q-.153-4-.306-8.007c-.041-.979-.087-1.953-.132-2.94h2.127v5.955a.319.319,0,0,1-.083.194.987.987,0,0,0-.3.756q0,2.825,0,5.649V59.42h-.223c-.223,0-.314.095-.318.339s.083.372.31.372h2.164c.07,0,.19-.033.194-.07a1.2,1.2,0,0,0,.033-.5C871.516,59.49,871.314,59.461,871.2,59.42ZM857.063,43.88l1.966-4.233c.619,1.433,1.214,2.82,1.825,4.233Z" transform="translate(-3654.02 4727.242)" fill="#001652"/>
      <path id="Tracé_1064" data-name="Tracé 1064" d="M875.895,24.037a2.771,2.771,0,1,1-.81-1.974A2.787,2.787,0,0,1,875.895,24.037Z" transform="translate(-3668.796 4734.75)" fill="#001652"/>
    </g>
  </g>
</svg>
