<svg xmlns="http://www.w3.org/2000/svg" width="16.206" height="25.567" viewBox="0 0 16.206 25.567">
  <path id="path11774" d="M4.21,0l-1.7,9.375c-.25,1.372,3.037,2.013,2.983,3.409L5.062,23.863a1.641,1.641,0,0,0,1.7,1.7,1.641,1.641,0,0,0,1.7-1.7L8.045,12.784C7.992,11.39,11,10.771,11.028,9.375L9.324,0H8.471L8.9,6.818,7.619,7.67,7.193,0H6.341L5.915,7.67,4.636,6.818,5.062,0ZM18.7,0a5.46,5.46,0,0,0-4.185,2.79c-.7,1.255-.929,4.059-.929,5.733v4.261c0,1.395,1.859,1.7,2.557,1.7l-.852,9.375c-.154,1.7,1.7,1.7,1.7,1.7a1.669,1.669,0,0,0,1.7-1.7Z" transform="translate(-2.492)" fill="#001652"/>
</svg>
