<svg id="Clean_Accommodation" data-name="Clean Accommodation" xmlns="http://www.w3.org/2000/svg" width="28.486" height="28.486" viewBox="0 0 28.486 28.486">
  <path id="Tracé_1057" data-name="Tracé 1057" d="M366.09,181.493a14.243,14.243,0,1,0,14.243-14.243A14.243,14.243,0,0,0,366.09,181.493Zm26.585,0a12.326,12.326,0,0,1-20.362,9.362l2.648-2.667.674.674,1.341-1.345-.674-.671,1.417-1.414a4.718,4.718,0,0,0,1.665.693v2h-.953v1.905h3.81v-1.905H381.3v-2a4.744,4.744,0,0,0,1.665-.693l1.414,1.414-.674.671,1.33,1.356,2.686-2.667-1.345-1.341-.671.671-1.414-1.414a4.824,4.824,0,0,0,.7-1.665h1.993v.949h1.905V179.6h-1.905v.949h-1.993a4.773,4.773,0,0,0-.7-1.661l1.414-1.417.674.671,1.341-1.341-.671-.671,2.667-2.648A12.269,12.269,0,0,1,392.675,181.493Zm-6.973-6.718-.671-.674-1.345,1.345.674.671-1.414,1.414a4.744,4.744,0,0,0-1.665-.693v-2h.949v-1.905h-3.81v1.905h.972v2a4.717,4.717,0,0,0-1.665.693l-1.418-1.414.674-.671-1.341-1.345-2.686,2.667,1.341,1.341.671-.671,1.414,1.417a4.7,4.7,0,0,0-.694,1.661h-2.012v-.949h-1.905v3.81h1.905v-.949h1.993a4.7,4.7,0,0,0,.693,1.661l-1.414,1.417-.671-.671-1.33,1.368.671.671-2.667,2.648a12.323,12.323,0,0,1,17.379-17.383Z" transform="translate(-366.09 -167.25)" fill="#001652"/>
</svg>
