<svg id="Groupe_40" data-name="Groupe 40" xmlns="http://www.w3.org/2000/svg" width="28" height="27.21" viewBox="0 0 28 27.21">
  <path id="Tracé_1049" data-name="Tracé 1049" d="M993.784,52.371c-1.511-3.467-5.39-3.666-7.3-3.535a6.843,6.843,0,0,0-2.266-5.115l-1.139,1.265a5.271,5.271,0,0,1,1.648,4.652.853.853,0,0,0,1,1c.051,0,5.036-.929,6.489,2.411a10.465,10.465,0,0,1,.557,4.75,1.356,1.356,0,0,1-2.664-.076.853.853,0,0,0-.842-.723h0a.853.853,0,0,0-.842.723,1.359,1.359,0,0,1-2.686,0A.853.853,0,0,0,984.9,57h0a.853.853,0,0,0-.842.723,1.359,1.359,0,0,1-1.345,1.157,1.374,1.374,0,0,1-1.338-1.084,7.577,7.577,0,0,0-.065-.864,6.184,6.184,0,0,0-.4-1.421c-.362-.983-.672-1.76.488-3.72a7.168,7.168,0,0,0,.253-6.764l-1.5.806a5.459,5.459,0,0,1-.221,5.09c-1.58,2.668-1.045,4.07-.615,5.195a4.623,4.623,0,0,1,.311,1.037,1.08,1.08,0,0,0,.025.286v.069a2.9,2.9,0,0,0,.029.4,1.949,1.949,0,0,1-.752,1.775c-1.265.788-4.085,0-5.925-1.218a6.837,6.837,0,0,0-6.478-.311l.383.763.336,3.134.087.9c.04,0,4.128-.361,4.555,1.894.781,4.143,3.29,6.019,8.126,6.08h.271c6.6,0,10.057-3.1,11.8-5.722a15.585,15.585,0,0,0,2.393-7.129.686.686,0,0,1,0-.087.918.918,0,0,0,0-.2A11.838,11.838,0,0,0,993.784,52.371Z" transform="translate(-966.52 -43.72)" fill="#001652"/>
</svg>
