<svg xmlns="http://www.w3.org/2000/svg" width="28.653" height="22.579" viewBox="0 0 28.653 22.579">
  <g id="Groupe_115" data-name="Groupe 115" transform="translate(-11659.796 -5418.066)">
    <path id="Tracé_1108" data-name="Tracé 1108" d="M280.879,63.084a2.728,2.728,0,0,0-1.336-2.35c-.28.469-.152,1.016-.3,1.52a1.194,1.194,0,0,1-1.247.982,10.02,10.02,0,0,1-3.231-.673c.7.081,1.414.135,2.114.246a1.673,1.673,0,0,0,2-1.159,1.647,1.647,0,0,0-1.289-2.079c-1.176-.246-2.367-.4-3.707-.616,1.154-.751,2.183-.16,3.192-.066l.81-.653c.027-.439.449-.638.609-1,.079-.246.172-.466.233-.7a3.331,3.331,0,0,0-1.11-3.516,3.573,3.573,0,0,0-5.917,2.647,3.742,3.742,0,0,0,1.753,3.192,2.865,2.865,0,0,1-2.17-.678c-1.827-1.527-3.7-3-5.551-4.505a3.383,3.383,0,0,0-2.023-.852,33.41,33.41,0,0,0-6.307.088,2.588,2.588,0,0,0-2.293,2.651c-.029,3.467,0,6.933-.012,10.4,0,.442.108.624.614.621q5.033-.044,10.066,0c.6,0,.749-.191.737-.756-.027-2.079-.015-4.161,0-6.241a1.322,1.322,0,0,1,.12-.859c1.088.876,2.156,1.741,3.226,2.6.162.128.317.26.211.491-.665,1.377-.27,2.843-.373,4.267-.027.383,0,.68.552.675q5.038-.039,10.066,0c.452,0,.587-.174.582-.579C280.891,65.134,280.906,64.116,280.879,63.084Z" transform="translate(11404.701 5373.886)" fill="#001652"/>
    <path id="Tracé_1109" data-name="Tracé 1109" d="M271.408,23.532A3.739,3.739,0,1,1,267.65,19.8,3.739,3.739,0,0,1,271.408,23.532Z" transform="translate(11398.035 5398.266)" fill="#001652"/>
    <path id="Tracé_1110" data-name="Tracé 1110" d="M337.281,80.605c-.28.469-.152,1.016-.3,1.52a1.194,1.194,0,0,1-1.247.982,10.019,10.019,0,0,1-3.231-.673c.7.081,1.414.135,2.114.246a1.673,1.673,0,0,0,2-1.159,1.646,1.646,0,0,0-1.289-2.079c-1.176-.246-2.367-.4-3.707-.616,1.154-.751,2.183-.16,3.192-.066.349.093.69.214,1.043.273C336.758,79.184,337.306,79.628,337.281,80.605Z" transform="translate(11346.963 5354.015)" fill="#10a3f3"/>
    <path id="Tracé_1111" data-name="Tracé 1111" d="M356.147,51.349a1.171,1.171,0,0,1-1.134,1.1,1.122,1.122,0,0,1,.029-2.237A1.175,1.175,0,0,1,356.147,51.349Z" transform="translate(11330.082 5375.324)" fill="#10a3f3"/>
    <path id="Tracé_1112" data-name="Tracé 1112" d="M359.926,74.473c-.029.631-.371.953-.837.94a.827.827,0,0,1-.84-.933.81.81,0,0,1,.891-.793.778.778,0,0,1,.786.786Z" transform="translate(11326.877 5357.611)" fill="#10a3f3"/>
    <path id="Tracé_1113" data-name="Tracé 1113" d="M349.3,74.051a.626.626,0,0,1-.574.52.7.7,0,0,1-.781-.584c.027-.439.449-.638.609-1a1.135,1.135,0,0,0,.233.216A.745.745,0,0,1,349.3,74.051Z" transform="translate(11334.65 5358.135)" fill="#10a3f3"/>
    <path id="Tracé_1114" data-name="Tracé 1114" d="M367.827,57.562a.572.572,0,0,1-.611-.54.562.562,0,0,1,.557-.6.491.491,0,0,1,.552.491.525.525,0,0,1-.5.653Z" transform="translate(11320.108 5370.641)" fill="#10a3f3"/>
    <path id="Tracé_1115" data-name="Tracé 1115" d="M357.644,66.263a.408.408,0,1,1-.81-.088.383.383,0,0,1,.447-.371.4.4,0,0,1,.363.459Z" transform="translate(11327.946 5363.561)" fill="#10a3f3"/>
  </g>
</svg>
