<svg id="Pill" xmlns="http://www.w3.org/2000/svg" width="28.829" height="20.965" viewBox="0 0 28.829 20.965">
  <path id="Tracé_1053" data-name="Tracé 1053" d="M65.2,171.359a5.747,5.747,0,0,0-8.11-.14l-.249.24a5.738,5.738,0,0,0-.143,8.11l4.38,4.535,8.356-8.356Zm-.371,1.519a.3.3,0,0,1-.437,0,4.143,4.143,0,0,0-5.853-.109.3.3,0,0,1-.219.085.337.337,0,0,1-.118-.021.541.541,0,0,1-.1-.064h0a.3.3,0,0,1,0-.434,4.769,4.769,0,0,1,6.731.115.3.3,0,0,1,0,.437ZM74.7,181.3a5.911,5.911,0,0,0-.565-.683l-4.28-4.429L61.5,184.547l4.134,4.283a5.744,5.744,0,0,0,8.113.14l.246-.24.021-.018a5.8,5.8,0,0,1-1.005-3.293A5.741,5.741,0,0,1,74.7,181.3Z" transform="translate(-55.085 -169.613)" fill="#001652"/>
  <path id="Tracé_1054" data-name="Tracé 1054" d="M121.164,204.61a5.164,5.164,0,1,0,5.164,5.164A5.227,5.227,0,0,0,121.164,204.61Zm2.36,4.252-2.621,2.621a.723.723,0,0,1-.462.2.708.708,0,0,1-.456-.2l-1.3-1.288a.65.65,0,1,1,.911-.911l.85.85,2.166-2.163a.65.65,0,1,1,.911.911Z" transform="translate(-97.498 -193.98)" fill="#001652"/>
</svg>
