<svg id="Diabetes_Measure" data-name="Diabetes Measure" xmlns="http://www.w3.org/2000/svg" width="22.738" height="32.46" viewBox="0 0 22.738 32.46">
  <path id="Tracé_1045" data-name="Tracé 1045" d="M851.684,48.995a2.434,2.434,0,0,0-2.434,2.439v20.3a2.434,2.434,0,0,0,2.439,2.434h3.857a1.017,1.017,0,0,0,1.017-1.017,1.012,1.012,0,0,1,1.012-1.017h6.09a1.017,1.017,0,0,1,1.017,1.017,1.017,1.017,0,0,0,1.017,1.012h3.857a2.434,2.434,0,0,0,2.434-2.434v-20.3a2.434,2.434,0,0,0-2.439-2.434Zm16.228,3.236H853.3V66.85h14.619ZM854.123,69.7a.811.811,0,0,1,.811-.811H858.2a.816.816,0,1,1,0,1.585h-3.25a.811.811,0,0,1-.811-.8Zm8.93-.816a.811.811,0,0,0,0,1.623h3.26a.811.811,0,1,0,0-1.623Z" transform="translate(-849.25 -48.99)" fill="#001652" fill-rule="evenodd"/>
  <path id="Tracé_1046" data-name="Tracé 1046" d="M872.776,67.08a3.25,3.25,0,0,1-6.5,0c0-1.733,3.241-5.57,3.241-5.57S872.776,65.471,872.776,67.08Z" transform="translate(-858.152 -55.534)" fill="#001652"/>
  <path id="Tracé_1047" data-name="Tracé 1047" d="M871.024,96.5h-6.5v7.307h6.5ZM862.91,94.88v10.558h9.746V94.88Z" transform="translate(-856.39 -72.977)" fill="#001652" fill-rule="evenodd"/>
  <path id="Tracé_1048" data-name="Tracé 1048" d="M872.955,105a1.628,1.628,0,1,1-1.627-1.623A1.627,1.627,0,0,1,872.955,105Z" transform="translate(-859.94 -77.42)" fill="#001652"/>
</svg>
