<svg id="Groupe_41" data-name="Groupe 41" xmlns="http://www.w3.org/2000/svg" width="26.018" height="21.251" viewBox="0 0 26.018 21.251">
  <path id="Tracé_1043" data-name="Tracé 1043" d="M702.617,77.53,701.253,82.8a.892.892,0,0,1-.862.669h0a.892.892,0,0,1-.862-.689L697.36,73.8l-1.12,3.132a.892.892,0,0,1-.838.594H689.52c2.817,3.073,10.969,9.706,10.969,9.706h.053s8.161-6.633,10.975-9.7Z" transform="translate(-687.508 -65.982)" fill="#001652"/>
  <path id="Tracé_1044" data-name="Tracé 1044" d="M690.015,57.263l1.914-5.349a.892.892,0,0,1,1.7.089l2.033,8.419.642-2.487a.891.891,0,0,1,.862-.669H708a6.666,6.666,0,0,0-10.63-7.81l-1.587,1.584-.024-.027-.03.027-1.584-1.584a6.663,6.663,0,0,0-10.627,7.8h6.5Z" transform="translate(-682.749 -47.493)" fill="#001652"/>
</svg>
