<svg id="Groupe_38" data-name="Groupe 38" xmlns="http://www.w3.org/2000/svg" width="29.173" height="20.224" viewBox="0 0 29.173 20.224">
  <path id="Tracé_1051" data-name="Tracé 1051" d="M1258.41,48.647c-2.95-1.522-7.68-.724-7.68,7.97,0,7.949,4.73,9.492,7.68,7.973,1.73-.894,1.894-2.2,1.888-5.249l1.833,2.094v6.817h1.973V60.693l-3.812-4.363C1260.295,51.48,1260.544,49.75,1258.41,48.647Z" transform="translate(-1250.73 -48.028)" fill="#001652"/>
  <path id="Tracé_1052" data-name="Tracé 1052" d="M1310.3,48.662c-2.135,1.1-1.885,2.833-1.874,7.682l-3.812,4.363v7.559h1.97V61.45l1.835-2.094c0,3.047.156,4.354,1.889,5.249,2.95,1.519,7.679-.023,7.679-7.97C1317.972,47.938,1313.243,47.155,1310.3,48.662Z" transform="translate(-1288.811 -48.043)" fill="#001652"/>
</svg>
