<svg xmlns="http://www.w3.org/2000/svg" xmlns:xlink="http://www.w3.org/1999/xlink" width="391.832" height="638.555" viewBox="0 0 391.832 638.555">
  <defs>
    <filter id="Rectangle_34" x="0" y="0" width="391.832" height="638.555" filterUnits="userSpaceOnUse">
      <feOffset dx="-12" dy="13" input="SourceAlpha"/>
      <feGaussianBlur stdDeviation="13.5" result="blur"/>
      <feFlood flood-opacity="0.161"/>
      <feComposite operator="in" in2="blur"/>
      <feComposite in="SourceGraphic"/>
    </filter>
    <clipPath id="clip-path">
      <rect id="Rectangle_2161" data-name="Rectangle 2161" width="310.832" height="557.555" rx="6" transform="translate(44.682 -0.223)" fill="#fff"/>
    </clipPath>
  </defs>
  <g id="Aide-soingnante" transform="translate(7.818 27.723)">
    <g transform="matrix(1, 0, 0, 1, -7.82, -27.72)" filter="url(#Rectangle_34)">
      <rect id="Rectangle_34-2" data-name="Rectangle 34" width="310.832" height="557.555" rx="43" transform="translate(52.5 27.5)" fill="#07b5e7"/>
    </g>
    <g id="Groupe_de_masques_32" data-name="Groupe de masques 32" clip-path="url(#clip-path)">
      <g id="Groupe_205" data-name="Groupe 205" transform="translate(-7290.485 -3444.046)">
        <rect id="Rectangle_2" data-name="Rectangle 2" width="657.523" height="458.897" rx="15" transform="translate(7189.323 3501.714)" fill="#a9b8c1" opacity="0"/>
        <g id="Background_Simple" data-name="Background Simple" transform="translate(7267.419 3484.591)">
          <path id="Tracé_832" data-name="Tracé 832" d="M502.063,301.561c-14.258,43.227-44.982,90.608-90.206,106.028-68.318,23.3-74.448,79.341-198.412,78.961a250.392,250.392,0,0,1-53.838-5.781,206.687,206.687,0,0,1-25.492-7.4c-73.454-26.5-113.669-89.509-119.43-156.844-7.557-88.558,52.708-133.233,91.95-159.592S190.69,32.791,312.593,32.22a242.347,242.347,0,0,1,55.329,5.919C409.31,47.651,451.9,70.554,477.49,105.464c1.913,2.621,3.752,5.284,5.528,8.054C517.568,167.271,521.51,242.628,502.063,301.561Z" transform="translate(-14.037 -32.212)" fill="#5da2f0"/>
          <g id="Groupe_21" data-name="Groupe 21" transform="translate(0)" opacity="0.7">
            <path id="Tracé_833" data-name="Tracé 833" d="M502.063,301.561c-14.258,43.227-44.982,90.608-90.206,106.028-68.318,23.3-74.448,79.341-198.412,78.961a250.392,250.392,0,0,1-53.838-5.781,206.687,206.687,0,0,1-25.492-7.4c-73.454-26.5-113.669-89.509-119.43-156.844-7.557-88.558,52.708-133.233,91.95-159.592S190.69,32.791,312.593,32.22a242.347,242.347,0,0,1,55.329,5.919C409.31,47.651,451.9,70.554,477.49,105.464c1.913,2.621,3.752,5.284,5.528,8.054C517.568,167.271,521.51,242.628,502.063,301.561Z" transform="translate(-14.037 -32.212)" fill="#fff"/>
          </g>
        </g>
        <g id="Floor" transform="translate(7287.989 3936.181)">
          <path id="Tracé_834" data-name="Tracé 834" d="M505.744,460.547H34.028a.528.528,0,1,1,0-1.057H505.744a.528.528,0,0,1,.529.528.539.539,0,0,1-.529.529Z" transform="translate(-33.5 -459.49)" fill="#263238"/>
        </g>
        <g id="Window" transform="translate(7285.125 3499.185)">
          <path id="Tracé_835" data-name="Tracé 835" d="M31.318,280.535a.539.539,0,0,1-.528-.529V46.548a.528.528,0,0,1,.528-.528h143.95a.528.528,0,0,1,.528.528v89.773a.528.528,0,0,1-1.057,0V47.056H31.847V280.007A.528.528,0,0,1,31.318,280.535Z" transform="translate(-30.79 -46.02)" fill="#263238"/>
          <path id="Tracé_836" data-name="Tracé 836" d="M175.268,299.458H31.318a.539.539,0,0,1-.528-.528V283.076a.528.528,0,0,1,1.057,0v15.357h142.9V139.358a.528.528,0,0,1,.528-.528.539.539,0,0,1,.528.528V298.95A.539.539,0,0,1,175.268,299.458Z" transform="translate(-30.79 -40.739)" fill="#263238"/>
          <path id="Tracé_837" data-name="Tracé 837" d="M322.068,304.738H178.118a.539.539,0,0,1-.528-.528V46.548a.528.528,0,0,1,.528-.528h143.95a.528.528,0,0,1,.528.528V64.516a.528.528,0,0,1-1.057,0V47.056H178.647V303.681H321.54V74.334a.528.528,0,0,1,.528-.528.539.539,0,0,1,.528.528V304.21A.539.539,0,0,1,322.068,304.738Z" transform="translate(-22.437 -46.02)" fill="#263238"/>
          <path id="Tracé_838" data-name="Tracé 838" d="M468.857,304.738H324.918a.528.528,0,0,1-.528-.528V46.548a.528.528,0,0,1,.528-.528H468.857a.528.528,0,0,1,.528.528v111.7a.528.528,0,1,1-1.057,0V47.056H325.447V303.681H468.329v-135.6a.539.539,0,0,1,.528-.528.528.528,0,0,1,.528.528V304.21A.528.528,0,0,1,468.857,304.738Z" transform="translate(-14.084 -46.02)" fill="#263238"/>
          <path id="Tracé_839" data-name="Tracé 839" d="M52.428,156.805a.571.571,0,0,1-.37-.148.539.539,0,0,1,0-.75l13.909-13.9a.531.531,0,1,1,.75.75L52.809,156.625a.571.571,0,0,1-.38.18Z" transform="translate(-29.589 -40.567)" fill="#263238"/>
          <path id="Tracé_840" data-name="Tracé 840" d="M70.238,142.9a.528.528,0,0,1-.37-.9L156.84,55.008a.531.531,0,1,1,.75.75L70.619,142.731A.528.528,0,0,1,70.238,142.9Z" transform="translate(-28.575 -45.517)" fill="#263238"/>
          <path id="Tracé_841" data-name="Tracé 841" d="M46.309,176.083a.539.539,0,0,1-.38-.159.528.528,0,0,1,0-.74l30.946-30.957a.539.539,0,0,1,.75,0,.528.528,0,0,1,0,.75L46.679,175.925A.528.528,0,0,1,46.309,176.083Z" transform="translate(-29.937 -40.441)" fill="#263238"/>
          <path id="Tracé_842" data-name="Tracé 842" d="M196.119,179.6a.528.528,0,0,1-.38-.148.539.539,0,0,1,0-.75l45.732-45.69a.507.507,0,0,1,.74,0,.528.528,0,0,1,0,.75l-45.7,45.7A.5.5,0,0,1,196.119,179.6Z" transform="translate(-21.413 -41.08)" fill="#263238"/>
          <path id="Tracé_843" data-name="Tracé 843" d="M406.539,247.59a.57.57,0,0,1-.38-.148.539.539,0,0,1,0-.75l5.834-5.824a.523.523,0,0,1,.74.74l-5.823,5.834A.55.55,0,0,1,406.539,247.59Z" transform="translate(-9.44 -34.942)" fill="#263238"/>
          <path id="Tracé_844" data-name="Tracé 844" d="M417.419,238.373a.571.571,0,0,1-.38-.148.539.539,0,0,1,0-.75l36.727-36.717a.527.527,0,0,1,.75.74l-36.727,36.727A.57.57,0,0,1,417.419,238.373Z" transform="translate(-8.821 -37.224)" fill="#263238"/>
          <path id="Tracé_845" data-name="Tracé 845" d="M438.879,204.7a.57.57,0,0,1-.37-.148.528.528,0,0,1,0-.75l11.879-11.88a.527.527,0,0,1,.74.75l-11.869,11.88A.571.571,0,0,1,438.879,204.7Z" transform="translate(-7.6 -37.727)" fill="#263238"/>
          <path id="Tracé_846" data-name="Tracé 846" d="M374.188,88.6a.518.518,0,0,1-.37-.159.528.528,0,0,1,0-.75l31.305-31.305a.528.528,0,0,1,.75,0,.539.539,0,0,1,0,.75L374.558,88.444A.5.5,0,0,1,374.188,88.6Z" transform="translate(-11.281 -45.439)" fill="#263238"/>
          <path id="Tracé_847" data-name="Tracé 847" d="M365.679,83.75a.5.5,0,0,1-.37-.159.507.507,0,0,1,0-.74L376.1,72.008a.531.531,0,0,1,.75.75l-10.8,10.876A.5.5,0,0,1,365.679,83.75Z" transform="translate(-11.765 -44.55)" fill="#263238"/>
          <path id="Tracé_848" data-name="Tracé 848" d="M482.4,310.607H85.508a.528.528,0,1,1,0-1.057H482.4a.528.528,0,1,1,0,1.057Z" transform="translate(-27.707 -31.025)" fill="#263238"/>
          <path id="Tracé_849" data-name="Tracé 849" d="M80.234,310.607H32.028a.528.528,0,1,1,0-1.057H80.234a.539.539,0,0,1,.528.528A.528.528,0,0,1,80.234,310.607Z" transform="translate(-30.75 -31.025)" fill="#263238"/>
        </g>
        <g id="Plant" transform="translate(7651.389 3722.332)">
          <path id="Tracé_850" data-name="Tracé 850" d="M440.539,324.377h0a.116.116,0,0,0-.211-.085,145.653,145.653,0,0,0-7.6,23.822,221.972,221.972,0,0,0-4.227,24.7l-.592,6.246c-.084,1.057-.2,2.114-.275,3.171l-.169,3.171c-.1,2.114-.222,4.228-.285,6.267l.063,6.278.063,3.171c.053,1.057.127,2.114.2,3.171.148,2.114.285,4.175.476,6.246.391,4.164,1.057,8.3,1.659,12.419a.126.126,0,0,0,.116.1.106.106,0,0,0,.105-.117h0c0-2.114-.1-4.175-.148-6.257s-.233-4.143-.211-6.225,0-4.154-.064-6.225l-.063-3.118.063-3.107v-6.214l.169-6.215.064-3.107c0-1.057.116-2.114.18-3.107l.38-6.2a220.149,220.149,0,0,1,3.52-24.636A143.581,143.581,0,0,1,440.539,324.377Z" transform="translate(-374.5 -253.336)" fill="#263238"/>
          <path id="Tracé_851" data-name="Tracé 851" d="M441.129,355.138a.116.116,0,0,0-.074-.137.106.106,0,0,0-.137.064,144.216,144.216,0,0,0-7.039,32.013c-.55,5.443-1.162,10.886-1.236,16.361a135.065,135.065,0,0,0,.581,16.4.093.093,0,0,0,.1.1.105.105,0,0,0,.127-.1c.634-5.443,1.057-10.876,1.4-16.308s.433-10.876.793-16.308a161.64,161.64,0,0,1,5.5-32.088Z" transform="translate(-374.191 -251.586)" fill="#263238"/>
          <path id="Tracé_852" data-name="Tracé 852" d="M458.931,366a.116.116,0,0,0-.159,0,55.662,55.662,0,0,0-12.049,10.506,50.007,50.007,0,0,0-4.714,6.553l-.962,1.829-.761,1.9a15.85,15.85,0,0,0-.655,1.924c-.2.645-.412,1.289-.592,1.944a77.532,77.532,0,0,0-2.494,15.854,91.062,91.062,0,0,0,.6,16.012.1.1,0,0,0,.1.1.106.106,0,0,0,.116-.106l1.374-15.854a142.231,142.231,0,0,1,2.008-15.632c.148-.634.328-1.258.5-1.892a15.825,15.825,0,0,1,.55-1.871l.645-1.828.824-1.733a47.406,47.406,0,0,1,4.323-6.553A54.309,54.309,0,0,1,458.9,366.139h0A.105.105,0,0,0,458.931,366Z" transform="translate(-373.973 -250.962)" fill="#263238"/>
          <path id="Tracé_853" data-name="Tracé 853" d="M450.016,385.21a17.488,17.488,0,0,0-5.485,6.595,38.567,38.567,0,0,0-3.076,8.064c-.211.7-.38,1.395-.528,2.114l-.5,2.114a36.446,36.446,0,0,0-.539,4.281c0,1.437-.053,2.875,0,4.3a38.935,38.935,0,0,0,.56,4.28.127.127,0,0,0,.1.1.116.116,0,0,0,.127-.1,40.018,40.018,0,0,0,.761-4.228c.222-1.4.444-2.79.6-4.175s.391-2.759.5-4.154a29.914,29.914,0,0,1,.592-4.133,37.616,37.616,0,0,1,2.357-8,17.788,17.788,0,0,1,4.6-6.87h0a.12.12,0,0,0-.063-.19Z" transform="translate(-373.778 -249.867)" fill="#263238"/>
          <path id="Tracé_854" data-name="Tracé 854" d="M426.135,403.6c-.592-7.028-1.754-13.993-2.853-20.958s-2.315-13.909-3.583-20.832-2.695-13.835-4.228-20.715a.108.108,0,1,0-.211.042c1.2,6.933,2.293,13.888,3.318,20.853s2.051,13.92,2.938,20.895,1.522,13.983,2.4,20.948l2.579,20.948a.106.106,0,0,0,.106.1c.053,0,.106,0,.116-.106.074-1.765.074-3.53.116-5.285s-.063-3.53-.1-5.284C426.706,410.638,426.4,407.13,426.135,403.6Z" transform="translate(-375.178 -252.382)" fill="#263238"/>
          <path id="Tracé_855" data-name="Tracé 855" d="M422.523,402.661c-.381-2.79-.888-5.559-1.427-8.318l-.983-4.111c-.328-1.374-.634-2.737-1.057-4.09a116.59,116.59,0,0,0-5.369-16l-.846-1.934-.941-1.9c-.592-1.268-1.321-2.484-2-3.72a31.864,31.864,0,0,0-5.084-6.732.127.127,0,0,0-.148,0,.116.116,0,0,0,0,.158h0a31.159,31.159,0,0,1,4.64,6.891c.613,1.247,1.258,2.473,1.786,3.773l.824,1.913.729,1.955a113.784,113.784,0,0,1,4.693,16c.634,2.706,1.057,5.464,1.586,8.2l.666,4.122c.232,1.374.529,2.727.719,4.111.444,2.748.951,5.5,1.427,8.244s.93,5.517,1.511,8.275a.112.112,0,0,0,.222-.021q0-4.228-.2-8.455C423.146,408.252,422.808,405.462,422.523,402.661Z" transform="translate(-375.782 -251.539)" fill="#263238"/>
          <path id="Tracé_856" data-name="Tracé 856" d="M416.6,401.619c-1.31-3.689-2.811-7.3-4.46-10.854a97.543,97.543,0,0,0-5.6-10.273.116.116,0,0,0-.148,0,.106.106,0,0,0,0,.148,95.4,95.4,0,0,1,4.788,10.569c1.427,3.594,2.716,7.25,3.794,10.96s1.892,7.483,2.875,11.2,1.871,7.472,3.012,11.245a.168.168,0,0,0,.106.085.116.116,0,0,0,.116-.116,55.714,55.714,0,0,0-1.057-11.7A73,73,0,0,0,416.6,401.619Z" transform="translate(-375.684 -250.137)" fill="#263238"/>
          <path id="Tracé_857" data-name="Tracé 857" d="M416.566,412.957a25.435,25.435,0,0,0-3.1-6.489,26.856,26.856,0,0,0-4.513-5.6,20.2,20.2,0,0,0-2.864-2.167,11.757,11.757,0,0,0-3.255-1.469.108.108,0,0,0-.074.2h0a16.2,16.2,0,0,1,5.39,4.228,25.36,25.36,0,0,1,3.763,5.686c1.057,2.019,1.617,4.228,2.547,6.341.412,1.057.814,2.114,1.289,3.171a26.448,26.448,0,0,0,1.416,3.255h0a.11.11,0,0,0,.212-.042,27.235,27.235,0,0,0-.127-3.594A34.536,34.536,0,0,0,416.566,412.957Z" transform="translate(-375.893 -249.183)" fill="#263238"/>
          <path id="Tracé_858" data-name="Tracé 858" d="M417.387,354.636A20.018,20.018,0,0,1,403.2,339.554c-2.663-12.419,5.908-7.092-1.776-26.6s-5.919-23.949-3.255-29.593,4.143-3.837,6.5,3.551,10.939,18.919,14.194,40.5S417.387,354.636,417.387,354.636Z" transform="translate(-376.279 -255.851)" fill="#5da2f0"/>
          <path id="Tracé_859" data-name="Tracé 859" d="M438.2,334.948s-7.684-2.663-7.98-17.154,5.612-11.531,6.5-29.593,2.114-30.745,5.285-31.041,11.827,8.867,14.8,28.97-3.836,33.409-9.755,39.327S438.2,334.948,438.2,334.948Z" transform="translate(-374.327 -257.153)" fill="#5da2f0"/>
          <path id="Tracé_860" data-name="Tracé 860" d="M414.037,369.5s-1.775-10.643-5.284-15.663-11.235-9.512-16.255-19.225-10.643-14.479-10.347-.592,6.5,20.99,14.183,25.725S414.037,369.5,414.037,369.5Z" transform="translate(-377.063 -253.273)" fill="#5da2f0"/>
          <path id="Tracé_861" data-name="Tracé 861" d="M411.055,386.38s-7.092-13.592-17.439-23.643-18.633-15.082-15.674-10.051,6.5,4.724,11.531,13.592,3.551,15.378,10.643,20.4S411.055,386.38,411.055,386.38Z" transform="translate(-377.336 -251.83)" fill="#5da2f0"/>
          <path id="Tracé_862" data-name="Tracé 862" d="M409.965,401.86c-.3-.888-.592-7.4-10.643-12.683s-19.51-3.255-18.327-.592,7.4,7.092,13.592,9.755S409.965,401.86,409.965,401.86Z" transform="translate(-377.133 -249.829)" fill="#5da2f0"/>
          <path id="Tracé_863" data-name="Tracé 863" d="M437.36,370.609s-4.439-5.612-2.114-17.439,7.694-8.878,13.6-15.082,4.735-7.092,10.643-13.6,11.235-10.051,13.6-7.4-1.184,10.939-4.735,15.674-9.163,7.092-11.827,13-1.48,15.378-8.275,19.806S437.36,370.609,437.36,370.609Z" transform="translate(-374.079 -253.794)" fill="#5da2f0"/>
          <path id="Tracé_864" data-name="Tracé 864" d="M451.2,372.535s10.643-12.123,18.327-20.99,10.643-15.674,10.939-9.755,2.663,10.643-3.551,18.327S451.2,372.535,451.2,372.535Z" transform="translate(-373.133 -252.464)" fill="#5da2f0"/>
          <path id="Tracé_865" data-name="Tracé 865" d="M445.88,390.643s-.3-4.735,16.562-15.674,23.939-13,22.2-8.571-9.174,8.867-17.154,16.91S445.88,390.643,445.88,390.643Z" transform="translate(-373.436 -251.062)" fill="#5da2f0"/>
          <path id="Tracé_866" data-name="Tracé 866" d="M417.731,353.236a.518.518,0,0,1-.518-.423c0-.211-4.006-21.36-8.085-36.241s-6.775-24.15-6.806-24.235a.549.549,0,0,1,1.057-.3c0,.085,2.706,9.332,6.8,24.245s8.064,36.114,8.106,36.326a.539.539,0,0,1-.423.624Z" transform="translate(-375.915 -255.191)" fill="#263238"/>
          <path id="Tracé_867" data-name="Tracé 867" d="M437.159,335.151H437a.539.539,0,0,1-.349-.666c.074-.233,7.2-23.115,9.512-36.812,2.114-12.4.19-21.931-1.057-28.251-.148-.708-.285-1.384-.4-2.019a.537.537,0,1,1,1.057-.19c.127.624.254,1.289.4,2,1.279,6.394,3.224,16.054,1.057,28.642-2.336,13.74-9.512,36.717-9.512,36.991a.518.518,0,0,1-.55.307Z" transform="translate(-373.962 -256.606)" fill="#263238"/>
          <path id="Tracé_868" data-name="Tracé 868" d="M412.826,369.129a.518.518,0,0,1-.455-.275,113.181,113.181,0,0,0-10.833-15.431c-1.67-1.966-3.171-3.668-4.693-5.285-4.28-4.724-7.652-8.455-9.882-14.046a.528.528,0,1,1,.972-.391c2.167,5.4,5.485,9.079,9.692,13.74,1.49,1.649,3.033,3.361,4.714,5.337a113.009,113.009,0,0,1,10.949,15.61.529.529,0,0,1-.2.719A.57.57,0,0,1,412.826,369.129Z" transform="translate(-376.792 -252.82)" fill="#263238"/>
          <path id="Tracé_869" data-name="Tracé 869" d="M437.238,370.813h-.084a.518.518,0,0,1-.433-.6c.095-.645,2.41-14.384,8.074-21.783,2.188-2.875,5.19-6.341,8.36-10,5.02-5.792,10.21-11.774,12.894-16.266a.529.529,0,0,1,.729-.18.517.517,0,0,1,.18.719c-2.737,4.566-7.958,10.569-13.01,16.424-3.171,3.646-6.141,7.092-8.307,9.935-5.475,7.208-7.853,21.212-7.884,21.349A.518.518,0,0,1,437.238,370.813Z" transform="translate(-373.957 -253.469)" fill="#263238"/>
          <path id="Tracé_870" data-name="Tracé 870" d="M408.684,401.756a.56.56,0,0,1-.285-.085c-.1-.063-10.009-6.5-16.995-10a.528.528,0,0,1,.476-.941c7.039,3.519,16.995,9.988,17.09,10.051a.518.518,0,0,1,.159.729A.507.507,0,0,1,408.684,401.756Z" transform="translate(-376.55 -249.555)" fill="#263238"/>
          <path id="Tracé_871" data-name="Tracé 871" d="M436.692,463.09H423.671a5.718,5.718,0,0,1-5.284-3.509c-4.228-10.189-15.6-39.591-8.762-47.93,6.511-7.948,34.582-7.948,41.092,0,6.838,8.339-4.513,37.742-8.772,47.93a5.707,5.707,0,0,1-5.253,3.509Z" transform="translate(-375.62 -248.702)" fill="#575757"/>
          <path id="Tracé_872" data-name="Tracé 872" d="M436.72,463.637H423.7a6.235,6.235,0,0,1-5.76-3.836c-4.9-11.763-15.59-40.056-8.688-48.469,3.72-4.534,13.264-6.151,20.958-6.151s17.238,1.617,20.958,6.151c6.9,8.455-3.784,36.706-8.688,48.469A6.236,6.236,0,0,1,436.72,463.637Zm-6.468-57.4h0c-9.364,0-17.27,2.262-20.081,5.76-6.722,8.2,5.063,38.355,8.846,47.4a5.158,5.158,0,0,0,4.777,3.171h13.021a5.158,5.158,0,0,0,4.777-3.171c3.773-9.047,15.568-39.2,8.846-47.4C447.479,408.5,439.574,406.237,430.252,406.237Z" transform="translate(-375.648 -248.731)" fill="#263238"/>
        </g>
        <g id="Characters" transform="translate(7326.502 3548.277)">
          <rect id="Rectangle_46" data-name="Rectangle 46" width="42.952" height="54.621" transform="translate(174.768 187.072)" fill="#000032"/>
          <path id="Tracé_873" data-name="Tracé 873" d="M306.785,206.39l-4.745,14.585,7.8,2.367Z" transform="translate(-56.734 -85.987)" fill="#5da2f0"/>
          <path id="Tracé_874" data-name="Tracé 874" d="M310.271,295.5s-.782,44.009.772,56.385,20.916,56.132,22.459,62.452,6.458,21.349,6.458,21.349-2.843,5.792-2.325,8.688a33.513,33.513,0,0,1,.518,5.284s1.289,1.057-5.168,4.746-18.58,5.792-18.844,8.688,2.579,4.746,5.676,5.285,13.169-.793,14.976-1.057,18.591-3.171,21.688-3.171,5.168,1.321,6.2-5.528-2.114-20.821-2.114-20.821-1.289-21.339-5.94-38.207-13.94-51.915-13.422-53.754,1.807-49.273,1.807-49.273Z" transform="translate(-56.277 -80.917)" fill="#5da2f0"/>
          <path id="Tracé_875" data-name="Tracé 875" d="M321.871,469.04a12.905,12.905,0,0,1-2.114-.137c-3.255-.55-6.4-2.568-6.12-5.834.18-2.019,4.228-3.4,9.354-5.158a60.224,60.224,0,0,0,9.766-3.953c4.5-2.579,4.946-3.72,4.989-3.942l-.1-.085v-.254a33.9,33.9,0,0,0-.507-5.179c-.5-2.759,1.776-7.758,2.272-8.825-.592-1.818-4.957-15.3-6.394-21.138-.539-2.177-3.171-8.867-6.616-17.333-6.268-15.642-14.8-37.055-15.854-45.172-1.532-12.281-.782-56.016-.772-56.47V295l33.821,1.057v.528c-.127,4.862-1.31,47.56-1.828,49.4-.328,1.913,7.589,32.288,13.433,53.479,4.608,16.72,5.94,38.048,5.95,38.313.116.486,3.1,14.057,2.061,20.927-.909,6.024-2.663,6.214-5.464,6.035-.391,0-.814-.053-1.258-.053-2.42,0-13.518,1.828-18.855,2.716l-2.748.444A126.026,126.026,0,0,1,321.871,469.04Zm16.836-19.532a1.058,1.058,0,0,1,.1.56c-.1,1.162-1.9,2.737-5.528,4.809a61.768,61.768,0,0,1-9.945,4.037c-4,1.363-8.519,2.907-8.635,4.228-.232,2.589,2.463,4.227,5.285,4.7s12.419-.708,14.8-1.057l2.737-.444c5.358-.888,16.519-2.727,19.024-2.727a10.884,10.884,0,0,1,1.332.053c2.283.159,3.541.233,4.344-5.136,1-6.669-2.029-20.483-2.114-20.62,0-.3-1.353-21.571-5.929-38.186-.138-.507-14.131-51.513-13.423-54.039.359-1.342,1.258-29.593,1.775-48.617l-31.707-1.057c-.085,5.052-.655,44.305.782,55.773.994,7.99,9.512,29.329,15.79,44.918,3.414,8.455,6.109,15.23,6.658,17.471,1.522,6.236,6.341,21.138,6.437,21.307l.074.2-.1.2c0,.053-2.759,5.675-2.283,8.371A33.837,33.837,0,0,1,338.708,449.508Z" transform="translate(-56.305 -80.945)" fill="#263238"/>
          <path id="Tracé_876" data-name="Tracé 876" d="M356.28,455.84c2.875,0,4.851,1.12,5.95-4.154a91.157,91.157,0,0,1-10.685-2.589c-5.21-1.86-13.592-7.747-13.592-7.747s1.29,1.057-5.168,4.746-18.58,5.792-18.845,8.688,2.579,4.746,5.676,5.284,13.169-.793,14.976-1.057S353.162,455.84,356.28,455.84Z" transform="translate(-56.058 -72.618)" fill="#fff"/>
          <path id="Tracé_877" data-name="Tracé 877" d="M321.654,460.741a12.914,12.914,0,0,1-2.114-.137c-3.255-.55-6.4-2.568-6.119-5.834.18-2.019,4.228-3.4,9.353-5.158a60.227,60.227,0,0,0,9.766-3.953c4.65-2.653,4.978-3.784,5-3.963a.53.53,0,0,1,.729-.75c.084.063,8.371,5.876,13.465,7.684a87.071,87.071,0,0,0,10.569,2.558.581.581,0,0,1,.338.233.539.539,0,0,1,.074.4c-1.057,4.893-2.959,4.777-5.221,4.629-.391,0-.8-.053-1.247-.053-2.42,0-13.518,1.828-18.855,2.716l-2.748.444A126.018,126.018,0,0,1,321.654,460.741Zm16.773-18.4c-.539,1.057-2.3,2.484-5.369,4.228a61.757,61.757,0,0,1-9.946,4.037c-3.995,1.363-8.518,2.907-8.635,4.228-.232,2.589,2.463,4.228,5.285,4.7s12.418-.708,14.8-1.057l2.737-.444c5.359-.888,16.519-2.727,19.024-2.727a10.682,10.682,0,0,1,1.321.053c2.019.137,3.171.211,4-3.266a87.574,87.574,0,0,1-10.231-2.494C347.02,448.069,340.625,443.841,338.427,442.34ZM337.624,441.791ZM337.624,441.791Z" transform="translate(-56.088 -72.647)" fill="#263238"/>
          <path id="Tracé_878" data-name="Tracé 878" d="M329.991,297.144s.772,46.113,3.615,59.017,5.422,51.122,5.676,56.4.264,22.4.264,23.188-1.057,17.122-1.057,17.122-6.711,4.745-9.512,6.849-11.351,3.424-11.626,5.538,4.65,6.849,9.036,7.641,29.17-3.171,32.014-3.171a33.876,33.876,0,0,0,8.519-1.057c1.289-.528,1.554-3.424,1.554-6.849s-.518-6.595,0-9.512,2.579-30.83,1.29-44.791-4.9-27.934-4.65-43.217,3.1-30.037,4.133-39,4.65-30.83,4.65-30.83Z" transform="translate(-55.864 -80.975)" fill="#5da2f0"/>
          <path id="Tracé_879" data-name="Tracé 879" d="M328.067,473.546a10.9,10.9,0,0,1-1.754-.106c-4.65-.835-9.766-5.76-9.512-8.223.179-1.459,2.494-2.3,6.257-3.562a23.79,23.79,0,0,0,5.58-2.336c2.526-1.881,8.2-5.9,9.353-6.711.359-5.707,1.057-16.234,1.057-16.836,0-1.839,0-18.062-.254-23.167-.327-6.658-2.949-43.914-5.675-56.3-2.811-12.81-3.615-58.668-3.625-59.133v-.5L374.539,294l-.106.645c0,.222-3.625,21.962-4.64,30.809-.275,2.4-.677,5.158-1.142,8.349a242.57,242.57,0,0,0-3.022,30.566c-.159,9.692,1.247,18.919,2.611,27.849.771,5.02,1.564,10.22,2.04,15.3,1.279,13.9-.74,41.811-1.3,44.939a26.889,26.889,0,0,0-.116,5.94c.063,1.11.127,2.262.127,3.456,0,3.942-.317,6.7-1.881,7.335a34.182,34.182,0,0,1-8.719,1.057c-.941,0-4.619.475-8.889,1.057C342.2,472.288,332.527,473.546,328.067,473.546Zm2.494-175.878c.1,5.063.951,46.419,3.594,58.415,2.948,13.38,5.5,52.465,5.686,56.47.254,5.136.264,21.381.264,23.252,0,.793-.994,16.488-1.057,17.154v.254l-.211.148c-.063,0-6.743,4.767-9.512,6.838a23.621,23.621,0,0,1-5.866,2.494c-2.293.761-5.433,1.818-5.538,2.685-.222,1.775,4.428,6.341,8.6,7.06,2.8.507,14.892-1.057,22.892-2.114,4.481-.592,8.022-1.057,9.026-1.057a33.823,33.823,0,0,0,8.318-1.057c1.226-.5,1.226-4.915,1.226-6.341,0-1.163-.064-2.3-.116-3.4a26.659,26.659,0,0,1,.127-6.183c.549-3.107,2.558-30.84,1.279-44.654-.465-5.052-1.226-10-2.019-15.241-1.374-8.973-2.79-18.253-2.632-28.029.19-11.224,1.754-22.037,3.012-30.735.454-3.171.846-5.919,1.121-8.307.93-8,3.942-26.5,4.545-30.206Z" transform="translate(-55.895 -81.002)" fill="#263238"/>
          <path id="Tracé_880" data-name="Tracé 880" d="M312.5,300.382l16.974,4.048,28.3-5.2Z" transform="translate(-56.139 -80.705)" fill="#263238"/>
          <path id="Tracé_881" data-name="Tracé 881" d="M361.424,392.642a.517.517,0,0,1-.433-.222,44.645,44.645,0,0,1-2.547-4.228.525.525,0,1,1,.92-.507,47.321,47.321,0,0,0,2.494,4.143.518.518,0,0,1-.127.729A.549.549,0,0,1,361.424,392.642Z" transform="translate(-53.529 -75.687)" fill="#1e2a46"/>
          <path id="Tracé_882" data-name="Tracé 882" d="M357.46,386.263a.529.529,0,0,1-.476-.3C348.6,368.158,339.017,337.793,338.9,337.5a.529.529,0,0,1,.349-.666.518.518,0,0,1,.655.349c.106.3,9.681,30.6,18.041,48.332a.528.528,0,0,1-.254.708A.572.572,0,0,1,357.46,386.263Z" transform="translate(-54.638 -78.566)" fill="#1e2a46"/>
          <path id="Tracé_883" data-name="Tracé 883" d="M338.509,444.34s-6.711,4.746-9.512,6.849-11.351,3.424-11.626,5.538,4.65,6.849,9.036,7.641,29.17-3.171,32.013-3.171a33.867,33.867,0,0,0,8.519-1.057c1.289-.529,1.554-3.424,1.554-6.849,0,0-13-.877-19.9-2.938S338.509,444.34,338.509,444.34Z" transform="translate(-55.862 -72.448)" fill="#fff"/>
          <path id="Tracé_884" data-name="Tracé 884" d="M328.067,465.02a10.9,10.9,0,0,1-1.754-.106c-4.65-.835-9.766-5.76-9.512-8.223.179-1.459,2.494-2.3,6.257-3.561a23.8,23.8,0,0,0,5.58-2.336c2.811-2.114,9.512-6.806,9.512-6.859a.529.529,0,0,1,.719.106,20.674,20.674,0,0,0,9.787,5.845c6.775,2.019,19.658,2.906,19.785,2.917a.528.528,0,0,1,.5.529c0,3.942-.317,6.7-1.881,7.335a34.175,34.175,0,0,1-8.719,1.057c-.941,0-4.619.476-8.889,1.057C342.2,463.762,332.527,465.02,328.067,465.02Zm10.389-19.954c-1.469,1.057-6.743,4.777-9.153,6.563a23.622,23.622,0,0,1-5.866,2.494c-2.294.761-5.433,1.818-5.538,2.684-.222,1.776,4.428,6.341,8.6,7.06,2.8.507,14.892-1.057,22.892-2.114,4.482-.592,8.022-1.057,9.026-1.057a33.82,33.82,0,0,0,8.318-1.057c1.11-.455,1.215-4.1,1.226-5.876-2.473-.18-13.317-1.057-19.521-2.917A22.341,22.341,0,0,1,338.456,445.066Z" transform="translate(-55.895 -72.476)" fill="#263238"/>
          <path id="Tracé_885" data-name="Tracé 885" d="M334.264,460.781a39.781,39.781,0,0,1-15.494-1.649,14.607,14.607,0,0,0,7.525,4.6c4.386.793,29.17-3.171,32.013-3.171a33.869,33.869,0,0,0,8.519-1.057c.9-.37,1.289-1.892,1.448-3.942C358.869,457.209,342.053,460.041,334.264,460.781Z" transform="translate(-55.782 -71.81)" fill="#fff"/>
          <path id="Tracé_886" data-name="Tracé 886" d="M327.982,464.381a10.9,10.9,0,0,1-1.754-.106A15.133,15.133,0,0,1,318.4,459.5a.539.539,0,0,1,0-.634.518.518,0,0,1,.6-.211,39.245,39.245,0,0,0,15.24,1.627c7.789-.74,24.626-3.572,33.979-5.2a.506.506,0,0,1,.444.127.5.5,0,0,1,.169.433c-.2,2.621-.75,3.974-1.776,4.386a34.175,34.175,0,0,1-8.719,1.057c-.941,0-4.619.476-8.888,1.057C342.112,463.123,332.442,464.381,327.982,464.381Zm-7.345-4.1a13.082,13.082,0,0,0,5.8,2.959c2.8.508,14.892-1.057,22.892-2.114,4.481-.592,8.022-1.057,9.026-1.057a33.821,33.821,0,0,0,8.318-1.057c.37-.148.835-.771,1.057-2.811-9.512,1.638-25.746,4.365-33.377,5.094h0A40.153,40.153,0,0,1,320.636,460.28Zm13.655.581Z" transform="translate(-55.809 -71.837)" fill="#263238"/>
          <path id="Tracé_887" data-name="Tracé 887" d="M260.261,262.74h-24.71v5.073h.106V380.785H136.9v2.737h98.757v23.1h3.414V267.813h21.191Z" transform="translate(-66.131 -82.781)" fill="#cfcfcf"/>
          <rect id="Rectangle_47" data-name="Rectangle 47" width="21.55" height="8.043" transform="translate(177.337 178.575)" fill="#101c51"/>
          <path id="Tracé_888" data-name="Tracé 888" d="M224.521,340.28c-31.2,0-56.491,28.367-56.491,63.414s25.292,63.414,56.491,63.414,56.491-28.378,56.491-63.414S255.721,340.28,224.521,340.28Zm0,120c-27.881,0-50.477-25.366-50.477-56.629s22.6-56.629,50.477-56.629S275,372.388,275,403.651,252.4,460.28,224.521,460.28Z" transform="translate(-64.359 -78.369)" fill="#cfcfcf"/>
          <path id="Tracé_889" data-name="Tracé 889" d="M273.327,427.338h-6.172a54.325,54.325,0,0,0,5.7-24.414c0-27.532-19.891-49.854-44.39-49.854a41.41,41.41,0,0,0-27.913,11.066H182.74v2.209h15.494a52.665,52.665,0,0,0-14.258,36.579c0,16.572,7.208,31.242,18.295,40.3H185.446v2.209h19.267v-.349a40.733,40.733,0,0,0,23.749,7.694c15.853,0,29.688-9.269,37.562-23.252h7.345Zm-3.572-24.414a49.59,49.59,0,0,1-10.072,30.322L242.37,407.289a12.14,12.14,0,0,0,.877-4.555,11.4,11.4,0,0,0-4.428-9.237l5.168-33.536C259.112,366.862,269.754,383.488,269.754,402.924Zm-41.293-46.377a37.2,37.2,0,0,1,10.812,1.617c-.729,3.245-5.041,22.766-7.536,33.821-4.164.983-7.324,5.052-7.61,10.009-10.315,3.678-31.115,10.273-35.861,11.774a52.221,52.221,0,0,1-1.152-10.854C187.073,377.3,205.58,356.547,228.461,356.547Zm-38.387,63.594,37.055-9.428a8.951,8.951,0,0,0,6.563,2.98,8.39,8.39,0,0,0,3.245-.655l18.7,24.826A38.746,38.746,0,0,1,228.461,449.3c-17.449,0-32.331-12.07-38.429-29.16Z" transform="translate(-63.522 -77.641)" fill="#cfcfcf"/>
          <path id="Tracé_890" data-name="Tracé 890" d="M309.984,219.932l-4.872,13.106s-40.437,19.838-44.178,22.089-19.849,7.483-19.849,7.483-2.621,11.626-1.12,12.355a13.159,13.159,0,0,0,4.492.75l3.741-2.991s5.623.75,6.743.37,4.228-9.026,4.228-9.026l54.547-13.433,1.87-35.575Z" transform="translate(-60.293 -85.494)" fill="#ffead9"/>
          <path id="Tracé_891" data-name="Tracé 891" d="M244.484,276.32a13.507,13.507,0,0,1-4.724-.8c-1.628-.814-.169-8.455.845-12.947a.5.5,0,0,1,.349-.38c.158-.053,16.086-5.285,19.732-7.4s40.68-20.377,44.03-22.015l4.8-12.915a.507.507,0,0,1,.148-.211l5.612-4.872a.528.528,0,0,1,.877.433l-1.871,35.565a.529.529,0,0,1-.4.486l-54.272,13.275c-1.215,3.35-3.308,8.7-4.471,9.089s-5.422-.158-6.754-.328l-3.572,2.854a.5.5,0,0,1-.328.169ZM241.567,263.1c-1.12,5.063-1.934,10.812-1.311,11.5a12.058,12.058,0,0,0,4.027.666l3.593-2.875a.518.518,0,0,1,.4-.116c2.114.285,5.771.645,6.5.4s2.515-4.819,3.911-8.709a.539.539,0,0,1,.37-.338l54.166-13.338,1.786-33.937-4.555,3.953-4.819,12.979a.465.465,0,0,1-.264.285c-.4.2-40.458,19.87-44.136,22.079s-17.418,6.659-19.669,7.4Zm63.573-29.984Z" transform="translate(-60.319 -85.517)" fill="#263238"/>
          <path id="Tracé_892" data-name="Tracé 892" d="M82.675,445.284l-3.625-2.167,37.4-63.414a9.735,9.735,0,0,1,8.318-4.714h16.91v4.228h-16.91a5.464,5.464,0,0,0-4.682,2.653Z" transform="translate(-69.422 -76.394)" fill="#fff"/>
          <path id="Tracé_893" data-name="Tracé 893" d="M82.7,445.842a.623.623,0,0,1-.264-.074L78.8,443.6a.539.539,0,0,1-.18-.729l37.4-63.414a10.252,10.252,0,0,1,8.772-4.978h16.91a.528.528,0,0,1,.528.528v4.227a.528.528,0,0,1-.528.528H124.8a4.957,4.957,0,0,0-4.228,2.4L83.179,445.578a.507.507,0,0,1-.328.243ZM79.8,442.956l2.727,1.628,37.129-62.917a6,6,0,0,1,5.147-2.917h16.393v-3.171H124.8a9.174,9.174,0,0,0-7.863,4.46Z" transform="translate(-69.451 -76.423)" fill="#263238"/>
          <path id="Tracé_894" data-name="Tracé 894" d="M138.66,367.533H236.5V329.96s-62.843-5.221-97.478,23.643Z" transform="translate(-66.03 -78.977)" fill="#4c4c4c"/>
          <path id="Tracé_895" data-name="Tracé 895" d="M235.891,312.8H213.928a.528.528,0,0,1-.528-.528V309.1a.528.528,0,0,1,.528-.528h21.962a.528.528,0,0,1,.528.528v3.171A.528.528,0,0,1,235.891,312.8Zm-21.434-1.057h20.905v-2.114H214.457Z" transform="translate(-61.778 -80.173)" fill="#263238"/>
          <path id="Tracé_896" data-name="Tracé 896" d="M217.75,314.468H149.929a3.7,3.7,0,1,1,0-7.4H217.75a3.7,3.7,0,1,1,0,7.4Z" transform="translate(-65.6 -80.259)" fill="#000032"/>
          <path id="Tracé_897" data-name="Tracé 897" d="M140.171,419.748H137V314.2a5.126,5.126,0,0,1,5.126-5.126h8.286v3.171h-8.286a1.955,1.955,0,0,0-1.955,1.955Z" transform="translate(-66.125 -80.145)" fill="#fff"/>
          <path id="Tracé_898" data-name="Tracé 898" d="M140.2,420.305h-3.171a.528.528,0,0,1-.528-.528V314.224a5.665,5.665,0,0,1,5.654-5.654h8.286a.528.528,0,0,1,.528.528v3.171a.528.528,0,0,1-.528.528h-8.286a1.427,1.427,0,0,0-1.427,1.427V419.777A.528.528,0,0,1,140.2,420.305Zm-2.642-1.057h2.114V314.224a2.484,2.484,0,0,1,2.484-2.484h7.758v-2.114h-7.758a4.6,4.6,0,0,0-4.6,4.6Z" transform="translate(-66.153 -80.173)" fill="#263238"/>
          <path id="Tracé_899" data-name="Tracé 899" d="M136.079,412.87V435.8s-1.638,5.38-1.448,7.483c.338,3.763,8.2-7.483,8.2-7.483V412.87Z" transform="translate(-66.261 -74.239)" fill="#101c51"/>
          <path id="Tracé_900" data-name="Tracé 900" d="M138.015,416.93a22.565,22.565,0,1,0,22.565,22.565,22.565,22.565,0,0,0-22.565-22.565Zm15.473,20.831c-4.407-.8-15.388-3.667-21.3-12.683a15.547,15.547,0,0,1,21.3,12.683Zm-26.422-9.322c1.311,2.114,4.714,8.518,3.393,15.114-.867,4.344-2.484,5.982-3.794,6.563A15.536,15.536,0,0,1,127.065,428.44Zm10.949,26.613a15.293,15.293,0,0,1-4.365-.634c2.4-4.058,7.906-10.241,18.919-9.406A15.579,15.579,0,0,1,138.015,455.052Z" transform="translate(-67.351 -74.008)" fill="#4c4c4c"/>
          <path id="Tracé_901" data-name="Tracé 901" d="M218.716,240.94s-12.683.835-20.24,8.223-40.046,59.186-40.046,59.186l32.045,1.892-5.908,25.926,69.755,11.626s2.315,4.228,5.9-16.646,11.383-51.228,11.383-61.3-4.006-21.286-8.857-25.292-20.018-6.954-20.018-6.954Z" transform="translate(-64.906 -84.211)" fill="#fff"/>
          <path id="Tracé_902" data-name="Tracé 902" d="M254.911,348.714a1.12,1.12,0,0,1-.835-.391l-69.565-11.552a.55.55,0,0,1-.433-.645l5.771-25.366-31.422-1.86a.539.539,0,0,1-.433-.285.529.529,0,0,1,0-.529c1.321-2.114,32.584-51.989,40.162-59.324s19.785-8.318,20.546-8.371l24.013-3.372a.308.308,0,0,1,.169,0c.624.116,15.367,3.023,20.261,7.06,5.073,4.228,9.047,15.484,9.047,25.7,0,6.267-2.938,20.081-6.045,34.751-1.955,9.163-3.963,18.633-5.348,26.676-2.906,16.963-5,17.312-5.686,17.428Zm-.085-1.131a.563.563,0,0,0,.106.074c.211,0,2.114-.845,4.819-16.562,1.384-8.064,3.393-17.544,5.348-26.718,3.1-14.6,6.024-28.367,6.024-34.529,0-9.776-3.889-20.937-8.656-24.89-4.513-3.72-18.475-6.574-19.711-6.828l-23.939,3.361h0c-.116,0-12.545.92-19.9,8.064-6.954,6.764-35.448,51.957-39.5,58.383l31.157,1.839a.539.539,0,0,1,.391.211.528.528,0,0,1,.085.433l-5.771,25.366,69.216,11.5a.539.539,0,0,1,.37.264ZM218.744,240.973Z" transform="translate(-64.934 -84.245)" fill="#263238"/>
          <path id="Tracé_903" data-name="Tracé 903" d="M197.218,270.252h-.127a.529.529,0,0,1-.38-.645l1.649-6.4a.545.545,0,0,1,1.057.264l-1.649,6.4A.539.539,0,0,1,197.218,270.252Z" transform="translate(-62.728 -82.778)" fill="#263238"/>
          <path id="Tracé_904" data-name="Tracé 904" d="M189.878,299.693h-.127a.528.528,0,0,1-.38-.645l6.5-25.2a.545.545,0,1,1,1.057.264l-6.511,25.2A.518.518,0,0,1,189.878,299.693Z" transform="translate(-63.146 -82.172)" fill="#263238"/>
          <path id="Tracé_905" data-name="Tracé 905" d="M185.375,295.38s-7.662-3.54-13.93-3.54-10.569,4.344-13.74,9.417,5.792,8.2,10.136,8.455,7.4-.158,13.18-.158,10.463,12,10.463,12A25.185,25.185,0,0,0,194.866,330c2.41,3.382,1.448,4.587,2.9,5.073s4.344-.729,4.587-2.9,2.737-6.225.486-13.275C196.2,298.213,185.375,295.38,185.375,295.38Z" transform="translate(-64.985 -81.125)" fill="#eeae8c"/>
          <path id="Tracé_906" data-name="Tracé 906" d="M198.488,335.72a2.694,2.694,0,0,1-.888-.137c-.972-.317-1.163-.951-1.416-1.754a10.569,10.569,0,0,0-1.744-3.509,25.366,25.366,0,0,1-3.467-8.656s-4.587-11.563-9.945-11.563c-2.42,0-4.386.074-6.119.137a69,69,0,0,1-7.092,0c-3.519-.2-9.248-2.114-10.844-5.136a4,4,0,0,1,.3-4.122c4.016-6.5,8.667-9.66,14.2-9.66,6.151,0,13.433,3.255,14.11,3.572.9.254,11.288,3.6,17.756,23.844a18.042,18.042,0,0,1,0,11.753,11.83,11.83,0,0,0-.423,1.733A3.688,3.688,0,0,1,201.1,334.9,4.944,4.944,0,0,1,198.488,335.72Zm-17.46-26.676c6.077,0,10.759,11.827,10.96,12.334a25.134,25.134,0,0,0,3.319,8.328,11.932,11.932,0,0,1,1.892,3.8c.233.761.3.93.74,1.057a3.339,3.339,0,0,0,2.558-.549,2.716,2.716,0,0,0,1.332-1.9,13.09,13.09,0,0,1,.465-1.923,17.165,17.165,0,0,0,0-11.129c-6.447-20.166-16.963-23.125-17.069-23.157h-.085c-.074,0-7.631-3.488-13.74-3.488-5.137,0-9.512,3-13.306,9.163a2.927,2.927,0,0,0-.254,3.076c1.384,2.663,6.775,4.386,9.967,4.566,2.494.137,4.576.063,6.986,0C176.611,309.118,178.587,309.044,181.028,309.044Z" transform="translate(-65.013 -81.155)" fill="#263238"/>
          <path id="Tracé_907" data-name="Tracé 907" d="M196.351,331.957a.539.539,0,0,1-.507-.37l-3.382-10.569a.552.552,0,1,1,1.057-.317L196.9,331.27a.539.539,0,0,1-.349.666Z" transform="translate(-62.971 -79.505)" fill="#263238"/>
          <path id="Tracé_908" data-name="Tracé 908" d="M198.676,332.217h0a.528.528,0,0,1-.518-.571c.211-4.333-2.854-11.193-2.885-11.267a.527.527,0,1,1,.962-.433c.127.3,3.171,7.166,2.98,11.753A.539.539,0,0,1,198.676,332.217Z" transform="translate(-62.812 -79.543)" fill="#263238"/>
          <path id="Tracé_909" data-name="Tracé 909" d="M200.515,328.271a.528.528,0,0,1-.528-.528,18.582,18.582,0,0,0-1.723-8.371.53.53,0,1,1,.93-.507,19.436,19.436,0,0,1,1.85,8.878A.528.528,0,0,1,200.515,328.271Z" transform="translate(-62.643 -79.603)" fill="#263238"/>
          <path id="Tracé_910" data-name="Tracé 910" d="M218.034,235.973s-5.485,3.583-7.8,8.455-3.583,8.857-1.9,9.269,11.626-3.372,11.626-3.372,5.485-1.469,6.954-.835,6.119,6.341,10.125,7.789,9.269-9.058,10.749-16.435S242.3,232.2,242.3,232.2,222.24,233.045,218.034,235.973Z" transform="translate(-62.11 -84.518)" fill="#fff"/>
          <path id="Tracé_911" data-name="Tracé 911" d="M237.816,257.962a2.78,2.78,0,0,1-.972-.18c-2.642-.972-5.507-3.667-7.6-5.644a17.045,17.045,0,0,0-2.537-2.114c-.962-.4-4.566.317-6.616.877-1.628.624-10.093,3.8-11.858,3.371a1.416,1.416,0,0,1-.962-.8c-.233-.5-.941-2,2.5-9.216,2.336-4.883,7.673-8.455,7.99-8.635,4.3-3,23.685-3.858,24.509-3.889h.116a8.255,8.255,0,0,1,4.957,3.171,7.768,7.768,0,0,1,.951,6.077c-1.268,6.341-5.073,14.448-8.719,16.5A3.667,3.667,0,0,1,237.816,257.962Zm-12.038-9.153a3.424,3.424,0,0,1,1.342.2,14.087,14.087,0,0,1,2.843,2.357c2.029,1.913,4.809,4.523,7.25,5.432a2.113,2.113,0,0,0,1.849-.275c3.34-1.871,7.007-9.819,8.2-15.78a6.806,6.806,0,0,0-.782-5.284,7.3,7.3,0,0,0-4.228-2.737c-1.258.063-19.965.951-23.9,3.7h0c-.053,0-5.39,3.562-7.61,8.212-2.928,6.109-2.727,7.853-2.516,8.307a.36.36,0,0,0,.264.232c1.11.275,7.5-1.913,11.277-3.35a28.05,28.05,0,0,1,6-1.015ZM218.063,236Z" transform="translate(-62.139 -84.545)" fill="#263238"/>
          <path id="Tracé_912" data-name="Tracé 912" d="M246.039,183.3s-7.166-4.851-20.652-2.737-19.606,11.383-20.028,16.012-.845,6.965-1.057,14.342.211,16.857,2.949,20.229,7.176,6.532,8.455,8.223,3.372,12.44,4.428,13.909,3.794,2.748,5.284.211c2.325-3.985,6.341-6.923,10.019-9.512.867-.6,9.512-5.5,8.952-6.711,0,0-1.057-2.537,0-8.223S246.5,222.7,246.5,222.7s9.068-.211,9.068-8.455-2.325-9.068-2.325-9.068S255.108,190.039,246.039,183.3Z" transform="translate(-62.298 -87.487)" fill="#eeae8c"/>
          <path id="Tracé_913" data-name="Tracé 913" d="M223.135,255.487a4.533,4.533,0,0,1-3.424-1.881c-.518-.719-1.131-2.959-2.114-6.563-.772-2.907-1.733-6.532-2.336-7.335a25.977,25.977,0,0,0-2.98-2.864,47.768,47.768,0,0,1-5.432-5.284c-3.076-3.784-3.245-14.522-3.076-20.588.159-5.58.444-8.339.75-11.256.106-.972.2-1.966.307-3.107.5-5.443,7.345-14.448,20.472-16.5,13.539-2.114,20.736,2.621,21.032,2.832h0c8.561,6.341,7.641,19.732,7.4,22.079.75.6,2.294,2.642,2.294,9.332,0,7.916-7.98,8.846-9.375,8.941-.211.275-.993,1.511-1.807,5.908-1,5.422,0,7.9,0,7.927.391.93-.75,2.219-8.032,6.658l-1.11.687c-3.752,2.621-7.61,5.5-9.861,9.343a3.108,3.108,0,0,1-2.589,1.712Zm8.846-74.9a41.8,41.8,0,0,0-6.489.518c-13.74,2.114-19.214,11.573-19.574,15.547-.106,1.141-.211,2.114-.306,3.171-.317,3.033-.592,5.644-.75,11.182-.285,10.072.75,17.323,2.833,19.891a48.353,48.353,0,0,0,5.284,5.211,25.826,25.826,0,0,1,3.171,3.023c.676.9,1.437,3.636,2.515,7.7a36.988,36.988,0,0,0,1.924,6.215,3.425,3.425,0,0,0,2.653,1.437,2.114,2.114,0,0,0,1.723-1.184c2.367-4.037,6.341-7,10.178-9.681l1.163-.719c4.788-2.917,7.335-4.746,7.578-5.432-.169-.476-.993-3.171,0-8.455,1.057-5.507,2.114-6.51,2.357-6.68a.6.6,0,0,1,.264-.085c.349,0,8.55-.3,8.55-7.9s-1.976-8.571-2-8.582a.56.56,0,0,1-.317-.549c0-.148,1.744-14.945-6.954-21.423C245.541,183.607,240.753,180.585,231.981,180.585Z" transform="translate(-62.328 -87.513)" fill="#263238"/>
          <path id="Tracé_914" data-name="Tracé 914" d="M244.6,185.964s-7.4,3.794-7.589,7.589,4.428,6.743,4.851,7.588-1.268,5.7.423,6.532a2.589,2.589,0,0,0,3.583-1.68c.074-2.41,4.851-2.8,5.475-1.057,0,0,2.325-.211,1.691-8.857S248.626,182.8,244.6,185.964Z" transform="translate(-60.435 -87.206)" fill="#000032"/>
          <path id="Tracé_915" data-name="Tracé 915" d="M243.37,208.482a2.97,2.97,0,0,1-1.3-.307c-1.427-.719-1.057-3.107-.8-5.031a8.988,8.988,0,0,0,.148-1.754,9.4,9.4,0,0,0-.867-.856c-1.575-1.459-4.228-3.9-4.037-6.986.222-3.932,7.134-7.641,7.832-8a4.016,4.016,0,0,1,4.28-.761c2.674,1.184,4.534,5.4,4.967,11.288.634,8.719-1.691,9.375-2.114,9.417h-.412l-.137-.38c-.2-.55-1.289-.856-2.441-.676-.909.148-1.987.645-2.008,1.564a2.632,2.632,0,0,1-1.4,1.976,3.255,3.255,0,0,1-1.712.507Zm3.763-22.956a3.582,3.582,0,0,0-2.177.877l-.084.063c-1.976,1.057-7.145,4.228-7.3,7.145-.148,2.589,2.262,4.819,3.7,6.151a5.345,5.345,0,0,1,1.057,1.173,4.7,4.7,0,0,1-.053,2.357c-.19,1.332-.518,3.562.233,3.942a2.04,2.04,0,0,0,1.934-.137,1.7,1.7,0,0,0,.888-1.057c0-1.289,1.173-2.3,2.9-2.579a3.752,3.752,0,0,1,3.287.824c.465-.518,1.406-2.293.983-8.1-.391-5.285-2.114-9.406-4.333-10.389A2.557,2.557,0,0,0,247.132,185.527Z" transform="translate(-60.463 -87.234)" fill="#263238"/>
          <path id="Tracé_916" data-name="Tracé 916" d="M246.092,183.68a39.789,39.789,0,0,1-6.109,4.228c-4.006,2.315-8.011,2.526-13.74.634s-12.429-2.537-14.966-.423-5.9,4.228-5.9,6.532-3.794-4.64-1.057-8.857a9.512,9.512,0,0,1,6.954-4.418s3.171-7.4,7.4-8.011S246.515,175.035,246.092,183.68Z" transform="translate(-62.351 -87.872)" fill="#000032"/>
          <path id="Tracé_917" data-name="Tracé 917" d="M205.249,195.663a1.057,1.057,0,0,1-.793-.5c-1.057-1.311-2.716-6.246-.518-9.639a10.115,10.115,0,0,1,7.049-4.629c.645-1.416,3.636-7.4,7.652-8.043,3.361-.5,19.838.824,25.82,6.246a5.771,5.771,0,0,1,2.188,4.629v.222l-.158.148a39.482,39.482,0,0,1-6.2,4.228c-4.143,2.4-8.371,2.6-14.131.676-5.358-1.786-12.038-2.537-14.469-.518-.476.4-.983.8-1.5,1.2-2.061,1.617-4.228,3.3-4.228,4.925q0,.771-.507.951A.476.476,0,0,1,205.249,195.663Zm15.24-21.846a13.327,13.327,0,0,0-1.691.085c-3.879.581-6.944,7.631-6.976,7.694l-.127.306h-.328a9.121,9.121,0,0,0-6.542,4.228c-1.691,2.6-.634,6.426.148,7.927.4-1.871,2.5-3.52,4.555-5.126.5-.391,1.057-.782,1.469-1.184,2.854-2.368,10.019-1.49,15.473.328s9.375,1.67,13.275-.581a43.07,43.07,0,0,0,5.855-4.006,4.894,4.894,0,0,0-1.85-3.583C238.795,175.392,225.742,173.817,220.489,173.817Z" transform="translate(-62.378 -87.901)" fill="#263238"/>
          <path id="Tracé_918" data-name="Tracé 918" d="M219.4,220.666h-.063l-5.9-1.057a.529.529,0,0,1-.433-.6l2.3-14.036-.824-4.978a.518.518,0,0,1,.433-.6.529.529,0,0,1,.613.433l.835,5.063a.455.455,0,0,1,0,.169l-2.23,13.613,5.39.962a.522.522,0,0,1-.127,1.036Z" transform="translate(-61.8 -86.386)" fill="#263238"/>
          <path id="Tracé_919" data-name="Tracé 919" d="M219.847,223.87a13.37,13.37,0,0,1-5.8-1.321.532.532,0,0,1,.518-.93,11.478,11.478,0,0,0,11.626-.814.528.528,0,0,1,.6.867,12.133,12.133,0,0,1-6.944,2.2Z" transform="translate(-61.756 -85.172)" fill="#263238"/>
          <path id="Tracé_920" data-name="Tracé 920" d="M223.306,238.433a12.07,12.07,0,0,1-4.524-.888c-2.632-1.057-5.57-4.851-5.7-5.01a.531.531,0,0,1,.835-.655s2.9,3.7,5.284,4.693a9.744,9.744,0,0,0,6.553.423c1.057-.476,3.562-3.541,4.418-4.682a.528.528,0,0,1,.846.634c-.328.444-3.287,4.344-4.851,5.02A7.737,7.737,0,0,1,223.306,238.433Z" transform="translate(-61.802 -84.548)" fill="#263238"/>
          <path id="Tracé_921" data-name="Tracé 921" d="M230.8,200.527a.477.477,0,0,1-.285-.085c-4.376-2.78-9.639-1.416-9.692-1.406a.55.55,0,0,1-.655-.37.539.539,0,0,1,.381-.655,14.32,14.32,0,0,1,10.569,1.543.528.528,0,0,1,.159.729A.518.518,0,0,1,230.8,200.527Z" transform="translate(-61.393 -86.487)" fill="#263238"/>
          <path id="Tracé_922" data-name="Tracé 922" d="M206.734,199.1a.538.538,0,0,1-.2-1.057c4.925-2.008,6.838.053,6.912.137a.528.528,0,1,1-.782.708s-1.6-1.554-5.728.137A.762.762,0,0,1,206.734,199.1Z" transform="translate(-62.193 -86.512)" fill="#263238"/>
          <path id="Tracé_923" data-name="Tracé 923" d="M227.125,207.13c0,1.342-.518,2.431-1.163,2.431S224.8,208.5,224.8,207.13s.528-2.42,1.163-2.42S227.125,205.746,227.125,207.13Z" transform="translate(-61.129 -86.083)" fill="#000032"/>
          <path id="Tracé_924" data-name="Tracé 924" d="M211.9,207.13c0,1.342-.518,2.431-1.163,2.431s-1.152-1.057-1.152-2.431.518-2.42,1.152-2.42S211.9,205.746,211.9,207.13Z" transform="translate(-61.995 -86.083)" fill="#000032"/>
          <path id="Tracé_925" data-name="Tracé 925" d="M229.336,214.18h-.116a11.541,11.541,0,0,1-5.993-3.773.528.528,0,1,1,.835-.645,10.664,10.664,0,0,0,5.4,3.393.532.532,0,0,1-.127,1.057Z" transform="translate(-61.226 -85.808)" fill="#263238"/>
          <path id="Tracé_926" data-name="Tracé 926" d="M208.118,212.767a.539.539,0,0,1-.507-.38.528.528,0,0,1,.359-.655,32.321,32.321,0,0,0,5.76-3.1.528.528,0,0,1,.729.148.518.518,0,0,1-.148.729,32.468,32.468,0,0,1-6.035,3.234Z" transform="translate(-62.108 -85.864)" fill="#263238"/>
          <path id="Tracé_927" data-name="Tracé 927" d="M238.883,290.223s-20.451,2.526-36.473,8.455-29.223,16.646-29.889,17.967c-.951,1.9-5.073,8.867-5.707,10.453s4.122,1.585,6.341,1.585,7.282-4.756,8.233-5.707-2.537,4.439.634,4.439,3.488-4.439,4.756-5.39,2.188-2.05,4.122-5.38,5.284-2.188,3.625-5.4a4.005,4.005,0,0,0-2.23-1.6c23.083-.275,63.773-.793,65.137-1.057,1.892-.423,3.372-4.64,3.372-4.64S250.7,289.166,238.883,290.223Z" transform="translate(-64.432 -81.22)" fill="#eeae8c"/>
          <path id="Tracé_928" data-name="Tracé 928" d="M173.2,329.236c-3.657,0-6.045-.2-6.732-1.216a1.131,1.131,0,0,1-.106-1.057c.391-.972,1.945-3.72,3.445-6.341.972-1.733,1.9-3.361,2.283-4.133.687-1.363,13.676-12.165,30.185-18.242,15.854-5.855,36.378-8.455,36.579-8.455h0c11.985-1.057,21.983,13.317,22.406,13.93a.539.539,0,0,1,.064.476c-.159.454-1.638,4.5-3.752,4.978-1.311.285-34.645.74-63.255,1.057a2.737,2.737,0,0,1,.7.846c1.215,2.3,0,2.97-1.057,3.615a5.993,5.993,0,0,0-2.537,2.293c-1.86,3.171-2.854,4.481-4.227,5.538a5.217,5.217,0,0,0-.951,1.67c-.708,1.617-1.691,3.826-4.122,3.826a1.807,1.807,0,0,1-1.585-.708,3.171,3.171,0,0,1-.063-2.579C178.5,326.425,175.094,329.236,173.2,329.236Zm65.781-38.471c-.518.074-20.683,2.642-36.336,8.455-15.853,5.834-28.948,16.456-29.593,17.735-.391.793-1.321,2.431-2.3,4.175-1.416,2.5-3.023,5.337-3.382,6.246v.106c.338.5,2.315.75,5.866.75,1.723,0,6.119-3.815,7.863-5.549.359-.359.645-.3.824-.18.4.264.254.645,0,1.279s-.93,2.346-.528,2.938c0,.053.169.243.708.243,1.744,0,2.494-1.7,3.171-3.171a5.221,5.221,0,0,1,1.279-2.114c1.152-.856,2-1.818,3.984-5.284a7.1,7.1,0,0,1,2.928-2.684c1.141-.645,1.416-.793.676-2.2a3.476,3.476,0,0,0-1.934-1.342.536.536,0,1,1,.18-1.057c40.215-.476,63.911-.867,65.02-1.057s2.315-2.5,2.9-4.037C258.991,302.212,249.553,289.825,238.984,290.765Z" transform="translate(-64.459 -81.245)" fill="#263238"/>
          <path id="Tracé_929" data-name="Tracé 929" d="M170.17,326.042l-.75-.751c.433-.423,1.818-1.5,3.424-2.758s3.594-2.812,3.889-3.171,1.289-.719,3.033-1.194a18.577,18.577,0,0,0,4.8-1.775c2.23-1.491,4.989-2.991,5.01-3.012l.507.93s-2.737,1.5-4.936,2.959a19.17,19.17,0,0,1-5.1,1.924,10.628,10.628,0,0,0-2.494.846,49.456,49.456,0,0,1-4.048,3.319C172.052,324.5,170.551,325.661,170.17,326.042Z" transform="translate(-64.28 -79.899)" fill="#263238"/>
          <path id="Tracé_930" data-name="Tracé 930" d="M247.873,256.967,235,292.806a23.126,23.126,0,0,1,12.218,6.341c5.485,5.485,10.337,10.96,10.337,10.96s8.212-19.605,9.269-36.04-7.166-27.617-11.383-29.3" transform="translate(-60.549 -83.803)" fill="#fff"/>
          <path id="Tracé_931" data-name="Tracé 931" d="M257.6,310.646a.529.529,0,0,1-.4-.18s-4.9-5.528-10.3-10.939a22.861,22.861,0,0,0-11.869-6.172.518.518,0,0,1-.38-.243.5.5,0,0,1,0-.455l12.852-35.839a.528.528,0,1,1,.993.359l-12.683,35.237a23.8,23.8,0,0,1,11.89,6.341c4.344,4.344,8.339,8.741,9.776,10.347,1.522-3.8,8-20.768,8.92-35.089,1.057-16.688-7.472-27.352-11.045-28.779a.529.529,0,1,1,.391-.983c4.767,1.913,12.757,13.507,11.71,29.826s-9.227,36.019-9.311,36.22a.561.561,0,0,1-.4.317Z" transform="translate(-60.572 -83.835)" fill="#263238"/>
          <path id="Tracé_932" data-name="Tracé 932" d="M304.212,262.74H283.729a4.228,4.228,0,0,0-4.228,4.228v.835h.106V380.785H180.84V383.5H279.6v23.1h3.414V267.813h21.2Z" transform="translate(-63.63 -82.781)" fill="#fff"/>
          <path id="Tracé_933" data-name="Tracé 933" d="M283.039,407.183h-3.414a.528.528,0,0,1-.528-.528V384.079H180.868a.539.539,0,0,1-.528-.529v-2.737a.528.528,0,0,1,.528-.528H279.1V268.159a.539.539,0,0,1-.106-.317v-.835a4.767,4.767,0,0,1,4.767-4.767H304.24a.528.528,0,0,1,.528.528v5.073a.539.539,0,0,1-.528.528H283.557V406.655a.529.529,0,0,1-.518.528Zm-2.885-1.057H282.5V267.842a.529.529,0,0,1,.528-.529H303.7V263.3H283.758a3.71,3.71,0,0,0-3.71,3.71v.518a.518.518,0,0,1,.106.317V380.813a.528.528,0,0,1-.528.528H181.4v1.681h98.228a.528.528,0,0,1,.528.528Z" transform="translate(-63.659 -82.809)" fill="#263238"/>
          <rect id="Rectangle_48" data-name="Rectangle 48" width="21.55" height="8.043" transform="translate(223.787 178.575)" fill="#101c51"/>
          <rect id="Rectangle_49" data-name="Rectangle 49" width="36.04" height="4.566" transform="matrix(0.957, 0.291, -0.291, 0.957, 1.33, 360.325)" fill="#4c4c4c"/>
          <path id="Tracé_934" data-name="Tracé 934" d="M135.586,327.7s-12.683-6.975-22.819-1.268c-5.432,3.065-6.341,27.257-6.965,38.049s-4.122,61.173-4.122,61.173a13.58,13.58,0,0,0-3.171.951c-1.268.634-2.537,5.063-2.537,5.063s-4.122.951-11.721.317-11.1,1.9-7.61,6.659.317,3.8,14.258,8.244a174.758,174.758,0,0,0,21.55,5.707s4.122,2.526,6.024.634,1.585-5.073,1.268-8.561,1.268-12.049,1.268-13,4.756-7.282,5.39-18.7.951-12.989,1.268-15.526,5.443-36.463,5.443-36.463,40.3,5.8,47.212,6.341,10.146-.634,10.146-.634Z" transform="translate(-69.636 -79.285)" fill="#000032"/>
          <path id="Tracé_935" data-name="Tracé 935" d="M122.534,398.822c-3.784-10.083-5.76-25.44-6.764-36.537l1.057-.095c.814,9.036,2.759,25.757,6.7,36.262Z" transform="translate(-67.333 -77.122)" fill="#263238"/>
          <path id="Tracé_936" data-name="Tracé 936" d="M115.435,358.249c-.211-2.843-.285-4.566-.285-4.566l1.057-.053s.085,1.712.3,4.534Z" transform="translate(-67.368 -77.609)" fill="#263238"/>
          <path id="Tracé_937" data-name="Tracé 937" d="M84.253,426.177c-7.61-.624-11.1,1.9-7.61,6.659s.317,3.8,14.258,8.244a174.794,174.794,0,0,0,21.55,5.707s4.122,2.526,6.024.634c1.744-1.744,1.628-4.555,1.342-7.694a29.342,29.342,0,0,1-9.861-4.006c-4.661-3.34-13.983-9.861-13.983-9.861S91.894,426.811,84.253,426.177Z" transform="translate(-69.636 -73.499)" fill="#fff"/>
          <path id="Tracé_938" data-name="Tracé 938" d="M116.59,448.676a9.669,9.669,0,0,1-4.291-1.363,180.985,180.985,0,0,1-21.529-5.707c-11.415-3.625-11.531-3.689-13.137-6.342-.328-.55-.75-1.237-1.385-2.114-1.85-2.515-1.606-4.175-1.057-5.126,1.057-1.934,4.333-2.78,9.153-2.367a42.28,42.28,0,0,0,11.562-.307.549.549,0,0,1,.423.085c.1.063,9.375,6.553,13.983,9.85a29.065,29.065,0,0,0,9.681,3.932.518.518,0,0,1,.4.465c.3,3.319.38,6.225-1.49,8.106a3.17,3.17,0,0,1-2.315.888ZM82.072,426.64c-3.171,0-5.284.676-5.971,1.934s.159,2.843.993,3.985c.666.909,1.057,1.606,1.448,2.177,1.385,2.283,1.406,2.325,12.556,5.866a174.174,174.174,0,0,0,21.476,5.686.7.7,0,0,1,.19.074c1.057.645,4.059,2.029,5.369.708,1.49-1.49,1.469-3.985,1.226-6.88a28.844,28.844,0,0,1-9.681-4.016c-4.228-3.023-12.45-8.772-13.74-9.713a44.526,44.526,0,0,1-11.626.275C83.467,426.672,82.748,426.64,82.072,426.64Z" transform="translate(-69.664 -73.529)" fill="#263238"/>
          <path id="Tracé_939" data-name="Tracé 939" d="M258.354,342.875s-47.106-10.421-83.231-15.494-43.417-3.8-45,1.9-5.39,93.176-5.39,93.176-7.293.317-7.61,2.219-2.219,9.512-2.219,9.512-12.038,2.219-18.38,1.268-8.867-2.219-8.55,1.9,5.7,6.975,18.062,12.683,26.348,11.425,29.181,9.671.423-11.172,2.114-11.372,4.524-9.713,6.109-12.566,1.585-8.55,1.585-9.512,3.8-25.366,6.341-32.648,8.867-36.442,8.867-36.442,19.394,6.437,22.818,8.55l3.435,2.114s49.812,3.91,60.592-4.65A29.836,29.836,0,0,0,258.354,342.875Z" transform="translate(-68.916 -79.284)" fill="#000032"/>
          <path id="Tracé_940" data-name="Tracé 940" d="M156.1,355.988c-.4-2.621-2.05-5.718-4.777-8.952l.8-.677c2.9,3.424,4.576,6.616,5.02,9.512Z" transform="translate(-65.31 -78.023)" fill="#263238"/>
          <path id="Tracé_941" data-name="Tracé 941" d="M149.273,344.787c-1.406-1.405-2.463-2.283-2.473-2.293l.676-.814s1.057.92,2.547,2.367Z" transform="translate(-65.567 -78.289)" fill="#263238"/>
          <path id="Tracé_942" data-name="Tracé 942" d="M154.737,347.376c-2.188-7.4-5.485-10.231-5.517-10.262l.676-.814c.148.127,3.562,3.033,5.855,10.781Z" transform="translate(-65.43 -78.595)" fill="#263238"/>
          <path id="Tracé_943" data-name="Tracé 943" d="M96.522,429.527c-6.341-.951-8.867-2.219-8.55,1.9s5.7,6.976,18.062,12.683,26.348,11.425,29.181,9.671.423-11.172,2.114-11.372a17.67,17.67,0,0,1-13.306-3.562,34.548,34.548,0,0,1-9.11-10.569S102.863,430.478,96.522,429.527Z" transform="translate(-68.916 -73.362)" fill="#fff"/>
          <path id="Tracé_944" data-name="Tracé 944" d="M133.732,454.637c-4.111,0-13.465-3.361-27.892-10.019-12.788-5.9-18.041-8.74-18.369-13.116-.116-1.437.106-2.314.7-2.854.993-.9,2.727-.592,5.6-.084.845.148,1.8.317,2.864.475h0c6.172.93,18.084-1.247,18.2-1.268a.528.528,0,0,1,.571.285,34.572,34.572,0,0,0,8.962,10.4,17.311,17.311,0,0,0,12.81,3.477h.106a.518.518,0,0,1,.581.444.529.529,0,0,1-.412.6h0a12.686,12.686,0,0,0-.18,3.541c.074,3.1.148,6.606-1.712,7.758A3.489,3.489,0,0,1,133.732,454.637Zm-43.682-25.5a1.754,1.754,0,0,0-1.173.3c-.317.285-.433.941-.359,1.987.3,3.794,5.644,6.648,17.766,12.239,22.945,10.569,27.7,10.315,28.674,9.713,1.353-.835,1.279-4.3,1.215-6.828a17.4,17.4,0,0,1,.116-3.435,18.263,18.263,0,0,1-12.577-3.815,35.694,35.694,0,0,1-9.068-10.411c-2.114.38-12.376,2.114-18.168,1.2-1.057-.159-2.04-.328-2.9-.486A24.077,24.077,0,0,0,90.05,429.134Z" transform="translate(-68.945 -73.391)" fill="#263238"/>
          <path id="Tracé_945" data-name="Tracé 945" d="M181.17,367.532H279V329.96s-62.843-5.189-97.51,23.643Z" transform="translate(-63.612 -78.977)" fill="#949494"/>
          <path id="Tracé_946" data-name="Tracé 946" d="M279.025,368.1H181.2a.507.507,0,0,1-.38-.159.539.539,0,0,1-.148-.38l.317-13.93a.56.56,0,0,1,.19-.391c34.434-28.642,97.235-23.823,97.9-23.77a.528.528,0,0,1,.476.528v37.573a.528.528,0,0,1-.528.528Zm-97.288-1.057H278.5V330.472c-5.908-.391-63.921-3.456-96.453,23.41Z" transform="translate(-63.64 -79.003)" fill="#263238"/>
          <path id="Tracé_947" data-name="Tracé 947" d="M268.461,340.28c-31.2,0-56.491,28.367-56.491,63.414s25.292,63.414,56.491,63.414,56.491-28.378,56.491-63.414S299.661,340.28,268.461,340.28Zm0,120c-27.881,0-50.477-25.366-50.477-56.629s22.6-56.629,50.477-56.629,50.478,25.365,50.478,56.629S296.342,460.28,268.461,460.28Z" transform="translate(-61.859 -78.369)" fill="#4c4c4c"/>
          <path id="Tracé_948" data-name="Tracé 948" d="M317.267,427.338h-6.162a54.461,54.461,0,0,0,5.7-24.414c0-27.532-19.9-49.854-44.443-49.854a41.389,41.389,0,0,0-27.9,11.066H226.68v2.209h15.5a52.622,52.622,0,0,0-14.268,36.579c0,16.572,7.208,31.242,18.295,40.3H229.386v2.209h19.267v-.349a40.733,40.733,0,0,0,23.706,7.694c15.853,0,29.688-9.269,37.562-23.252h7.345Zm-3.583-24.414a49.589,49.589,0,0,1-10.072,30.322l-17.3-25.957a12.347,12.347,0,0,0,.867-4.555,11.425,11.425,0,0,0-4.418-9.237l5.158-33.536C303.041,366.862,313.684,383.488,313.684,402.924Zm-41.325-46.377a37.149,37.149,0,0,1,10.812,1.617c-.719,3.245-5.041,22.766-7.536,33.821-4.154.983-7.324,5.052-7.6,10.009-10.315,3.678-31.126,10.273-35.871,11.774a52.207,52.207,0,0,1-1.141-10.854C231.024,377.3,249.53,356.547,272.359,356.547Zm-38.387,63.594,37.055-9.428a8.951,8.951,0,0,0,6.563,2.98,8.39,8.39,0,0,0,3.245-.655l18.7,24.826A38.724,38.724,0,0,1,272.359,449.3c-17.407,0-32.288-12.07-38.387-29.16Z" transform="translate(-61.022 -77.641)" fill="#383838"/>
          <path id="Tracé_949" data-name="Tracé 949" d="M118.475,456.454l-3.625-2.188L159.4,379.734a9.745,9.745,0,0,1,8.318-4.714h16.91v4.228h-16.91a5.475,5.475,0,0,0-4.682,2.653Z" transform="translate(-67.385 -76.392)" fill="#fff"/>
          <path id="Tracé_950" data-name="Tracé 950" d="M118.5,457.011a.454.454,0,0,1-.264-.074L114.6,454.77a.518.518,0,0,1-.18-.719L158.941,379.5a10.242,10.242,0,0,1,8.762-4.978h16.91a.528.528,0,0,1,.528.528v4.228a.528.528,0,0,1-.528.528H167.7a4.946,4.946,0,0,0-4.228,2.4l-44.517,74.554a.55.55,0,0,1-.328.243Zm-2.907-2.875,2.727,1.628,44.274-74.1a6,6,0,0,1,5.136-2.917h16.392v-3.171H167.7a9.2,9.2,0,0,0-7.863,4.46Z" transform="translate(-67.414 -76.421)" fill="#263238"/>
          <path id="Tracé_951" data-name="Tracé 951" d="M331.181,156.534s-22,34.254-23.59,40.828-2.949,30.851-1.363,39.475-5.9,72.133-5.9,72.133,22.195,1.363,48.765.454,34.032-2.272,34.032-2.272,3.4-11.341-2.494-35.163-13.391-33.092-14.976-47.634,7.715-26.771,1.363-51.947-15.854-24.5-15.854-24.5S339.086,148.587,331.181,156.534Z" transform="translate(-56.831 -89.315)" fill="#5da2f0"/>
          <path id="Tracé_952" data-name="Tracé 952" d="M330.41,310.287c-17.344,0-29.91-.75-30.079-.761h-.56l.063-.56c.074-.634,7.462-63.53,5.908-71.975-1.606-8.688-.264-32.954,1.364-39.7s22.766-39.591,23.664-40.986l.063-.1c7.99-7.99,19.806-8.741,20.313-8.772s10.03-.412,16.414,24.9c3.942,15.61,1.923,26.211.137,35.565-1.12,5.876-2.114,10.949-1.479,16.456.814,7.483,3.171,13.486,6.193,21.085a192.516,192.516,0,0,1,8.762,26.475c5.866,23.685,2.632,34.973,2.494,35.438l-.095.317-.317.053c-.074,0-7.832,1.385-34.106,2.283C342.564,310.2,336.222,310.287,330.41,310.287ZM300.954,308.5c3.6.2,24.256,1.237,48.163.423,23.252-.793,31.9-1.955,33.62-2.209.465-1.987,2.663-13.349-2.589-34.571a190.966,190.966,0,0,0-8.719-26.338c-3.033-7.673-5.433-13.74-6.268-21.37-.613-5.654.412-11.055,1.5-16.762,1.765-9.248,3.763-19.722-.116-35.11-6.13-24.309-15.262-24.087-15.335-24.1s-11.89.761-19.584,8.455c-.941,1.469-21.973,34.318-23.495,40.627-1.564,6.5-2.9,30.809-1.353,39.264S301.736,301.811,300.954,308.5Z" transform="translate(-56.863 -89.342)" fill="#263238"/>
          <path id="Tracé_953" data-name="Tracé 953" d="M305.2,106.194s-3.615,8.17-2.283,13.454,3.424,9.713,2.875,12.609-4.841,6.806-2.864,8.455a7.156,7.156,0,0,0,4.333,1.659s7.4,10.96,8.92,12.683,11.055-2.537,11.055-2.537l4.333,16.361,19.51-18.147-6.3-15.97s7.4-8.032,3.107-20.588S330.175,98.183,322.8,98.32,308.508,103.182,305.2,106.194Z" transform="translate(-56.713 -92.136)" fill="#ffead9"/>
          <path id="Tracé_954" data-name="Tracé 954" d="M331.6,169.436h-.148a.538.538,0,0,1-.37-.37l-4.164-15.706c-2.8,1.237-9.512,3.942-11.1,2.114s-7.726-10.96-8.815-12.567a7.588,7.588,0,0,1-4.333-1.765c-1.554-1.311-.254-3.445,1-5.506a12.321,12.321,0,0,0,1.68-3.467c.349-1.839-.486-4.492-1.459-7.557-.476-1.533-.972-3.171-1.406-4.83-1.374-5.39,2.114-13.454,2.3-13.793a.551.551,0,0,1,.127-.18c1.437-1.3,9.026-7.81,17.967-7.99,6.923-.159,21.138,3.054,25.609,16.192,3.879,11.457-1.8,19.352-3,20.853l6.119,15.684a.518.518,0,0,1-.127.581l-19.51,18.147A.581.581,0,0,1,331.6,169.436Zm-4.323-17.354a.5.5,0,0,1,.507.391l4.1,15.452,18.6-17.3L344.278,135a.539.539,0,0,1,.1-.55c.074-.085,7.092-7.969,3-20.081-4.228-12.556-17.967-15.621-24.583-15.473-8.381.169-15.589,6.225-17.164,7.641-.4.941-3.414,8.276-2.209,13.01.423,1.68.919,3.245,1.395,4.767,1,3.171,1.881,5.971,1.48,8.064a12.683,12.683,0,0,1-1.818,3.826c-1.258,2.114-2.019,3.477-1.226,4.154a6.468,6.468,0,0,0,3.942,1.532h0a.518.518,0,0,1,.433.233c.074.106,7.4,10.96,8.889,12.683.782.909,6.024-.687,10.431-2.685a.55.55,0,0,1,.275-.042Z" transform="translate(-56.739 -92.165)" fill="#263238"/>
          <path id="Tracé_955" data-name="Tracé 955" d="M297.97,107.144A177.475,177.475,0,0,0,325.9,121s9.1,8.054,10.1,6.225.412-9.121,4.746-7.25a7.736,7.736,0,0,1,4.09,9.575c-.993,2.991-1.733,5-1.733,5s2.484,3.9,3.541,3.657,6.193-9.174,5.729-21.36-7.9-22.195-18.855-23.632-24.309,3.467-30.312,7.969S296.712,105.548,297.97,107.144Z" transform="translate(-56.998 -92.441)" fill="#000032"/>
          <path id="Tracé_956" data-name="Tracé 956" d="M346.6,138.773c-1.268,0-2.98-2.42-3.921-3.921l-.137-.211.1-.243s.74-2.04,1.723-4.989c.824-2.463.518-7.05-3.794-8.92a1.892,1.892,0,0,0-1.7-.106c-1.057.571-1.406,2.716-1.691,4.45a9.5,9.5,0,0,1-.677,2.674,1.057,1.057,0,0,1-.75.528c-2.167.38-8.624-5.285-10.1-6.553a179.888,179.888,0,0,1-27.934-13.867l-.127-.116a2.114,2.114,0,0,1-.666-1.554c.106-.824.962-1.448,3.5-3.308.7-.518,1.532-1.12,2.5-1.85,6.6-4.936,20.208-9.428,30.65-8.075,10.886,1.406,18.824,11.33,19.31,24.14.454,11.964-4.471,21.55-6.141,21.9Zm-2.885-4.228c1.057,1.7,2.431,3.171,2.864,3.171h0c.962-.5,5.749-8.994,5.285-20.821-.465-12.281-8.033-21.793-18.39-23.135-11.3-1.459-24.541,3.837-29.931,7.874l-2.515,1.86c-1.881,1.385-3.023,2.22-3.076,2.6a1.724,1.724,0,0,0,.391.676,178.622,178.622,0,0,0,27.765,13.74l.158.1c4.3,3.815,8.571,6.722,9.311,6.341a9.976,9.976,0,0,0,.539-2.325c.338-2.114.729-4.4,2.23-5.211a2.9,2.9,0,0,1,2.632.063,8.2,8.2,0,0,1,4.375,10.231c-.793,2.431-1.406,4.175-1.638,4.809Z" transform="translate(-57.026 -92.469)" fill="#263238"/>
          <path id="Tracé_957" data-name="Tracé 957" d="M349.538,122.809s-.55-5.908,6.68-3.488,10.865,10.939,9.576,15.853-11.393,9.8-15.336,6.458a11.414,11.414,0,0,1-4.228-9.089C346.452,131.338,349.538,122.809,349.538,122.809Z" transform="translate(-54.22 -90.974)" fill="#000032"/>
          <path id="Tracé_958" data-name="Tracé 958" d="M354.018,143.278a5.855,5.855,0,0,1-3.868-1.226c-3.963-3.361-4.682-7.98-4.4-9.575.2-1.173,2.822-8.455,3.277-9.713a4.609,4.609,0,0,1,1.479-3.7c1.3-1.057,3.287-1.057,5.908-.211,7.261,2.431,11.362,11,9.924,16.477-.867,3.287-5.052,6.183-8.751,7.4A11.982,11.982,0,0,1,354.018,143.278Zm-.824-23.981a3.234,3.234,0,0,0-2.029.592,3.594,3.594,0,0,0-1.057,2.9v.232c-.856,2.357-3.107,8.688-3.277,9.639-.211,1.2.359,5.464,4.037,8.593,1.342,1.131,3.689,1.289,6.447.412,3.921-1.226,7.4-4.069,8.043-6.606,1.173-4.471-2.177-12.831-9.227-15.2A9.177,9.177,0,0,0,353.194,119.3Z" transform="translate(-54.25 -91.003)" fill="#263238"/>
          <path id="Tracé_959" data-name="Tracé 959" d="M311.028,142.435a.549.549,0,0,1-.5-.349.528.528,0,0,1,.317-.676s4.354-1.628,6.2-5.284a.529.529,0,0,1,.708-.233.539.539,0,0,1,.232.708c-2.04,4.027-6.6,5.718-6.785,5.792A.494.494,0,0,1,311.028,142.435Z" transform="translate(-56.253 -90.002)" fill="#263238"/>
          <path id="Tracé_960" data-name="Tracé 960" d="M325.86,149.863l6.859-3.763-5.263,8.487Z" transform="translate(-55.379 -89.418)" fill="#101c51"/>
          <path id="Tracé_961" data-name="Tracé 961" d="M312.668,128.02c.306,1.469,0,2.769-.666,2.917s-1.469-.941-1.776-2.41,0-2.78.666-2.917S312.361,126.541,312.668,128.02Z" transform="translate(-56.275 -90.584)" fill="#000032"/>
          <path id="Tracé_962" data-name="Tracé 962" d="M307.028,124.223a.623.623,0,0,1-.232,0,.528.528,0,0,1-.243-.708,4.428,4.428,0,0,1,2.4-2.114,4.851,4.851,0,0,1,3.815.465.527.527,0,1,1-.476.941,3.931,3.931,0,0,0-3-.412,3.361,3.361,0,0,0-1.786,1.554A.539.539,0,0,1,307.028,124.223Z" transform="translate(-56.481 -90.834)" fill="#263238"/>
          <rect id="Rectangle_50" data-name="Rectangle 50" width="12.059" height="24.203" transform="translate(249.808 127.558)" fill="#fff"/>
          <path id="Tracé_963" data-name="Tracé 963" d="M318.388,237.909H306.328a.528.528,0,0,1-.528-.528V213.189a.528.528,0,0,1,.528-.528h12.059a.529.529,0,0,1,.529.528v24.192A.529.529,0,0,1,318.388,237.909Zm-11.531-1.057h11V213.717h-11Z" transform="translate(-56.52 -85.63)" fill="#263238"/>
          <path id="Tracé_964" data-name="Tracé 964" d="M350.622,147.91,309.34,217.095l44.009-68.054Z" transform="translate(-56.319 -89.315)" fill="#101c51"/>
          <path id="Tracé_965" data-name="Tracé 965" d="M328.85,156.5l-19.51,60.106,20.853-53.712Z" transform="translate(-56.319 -88.826)" fill="#101c51"/>
          <path id="Tracé_966" data-name="Tracé 966" d="M290.621,261.361s-7.715,13.613-7.028,14.289,4.3.687,4.3.687l3.171-1.131s4.08,1.585,7.028,1.131,7.494-6.584,8.17-8.392,9.819-4.967,19.024-8.223c13.634-4.83,37.192-22.353,38.334-22.808s4.534-4.545,4.534-4.545L370,211.359l-21.318-2.949-1.86,15.346s-11.975,14.923-23.77,23.326a227.129,227.129,0,0,1-19.732,12.683C302.648,260.23,294.024,260.452,290.621,261.361Z" transform="translate(-57.786 -85.872)" fill="#ffead9"/>
          <path id="Tracé_967" data-name="Tracé 967" d="M296.978,276.98A19.189,19.189,0,0,1,291.1,275.8l-3,1.057a.5.5,0,0,1-.18,0c-.9,0-3.9-.063-4.682-.835-.307-.317-.962-.972,6.944-14.923a.518.518,0,0,1,.328-.254,60.549,60.549,0,0,1,8.35-1.057,34.078,34.078,0,0,0,4.228-.476c.084-.063.391-.232.867-.507,2.23-1.289,8.994-5.179,18.823-12.175,11.055-7.863,22.417-21.688,23.558-23.093l1.839-15.2a.475.475,0,0,1,.2-.349.454.454,0,0,1,.391-.106l21.328,2.949a.528.528,0,0,1,.454.571l-1.85,21.011a.475.475,0,0,1-.127.285c-.581.708-3.541,4.228-4.745,4.693-.222.106-1.659,1.057-3.319,2.241-7.24,5.01-24.2,16.752-35.026,20.578l-1.374.486c-7.462,2.642-16.752,5.929-17.312,7.4-.7,1.849-5.348,8.233-8.582,8.73A7.916,7.916,0,0,1,296.978,276.98Zm-5.876-2.272h.19s4,1.533,6.764,1.057,7.1-6.341,7.747-8.054,7.272-4.228,17.967-8.043l1.385-.486c10.685-3.784,27.564-15.462,34.772-20.451,2.41-1.659,3.255-2.241,3.53-2.357.719-.285,2.928-2.706,4.228-4.228l1.8-20.345-20.324-2.737-1.786,14.8a.5.5,0,0,1-.116.264c-.116.148-12.144,15.082-23.865,23.421-9.871,7.018-16.678,10.939-18.908,12.218-.444.264-.729.423-.835.5-.391.254-1.469.359-4.7.634a64.733,64.733,0,0,0-7.948.962c-3.287,5.813-6.627,12.239-6.88,13.549a12.439,12.439,0,0,0,3.72.444l3.086-1.11Zm-7,.824Z" transform="translate(-57.813 -85.903)" fill="#263238"/>
          <path id="Tracé_968" data-name="Tracé 968" d="M349.563,157.251a38.533,38.533,0,0,0-5.221,15.325c-.676,8.18-4.312,48.786-4.312,48.786l29.044,3.319s4.08-30.4.454-46.229-10.9-26.814-16.107-25.8" transform="translate(-54.573 -89.048)" fill="#5da2f0"/>
          <path id="Tracé_969" data-name="Tracé 969" d="M369.559,225.252l-30.069-3.435.053-.507c0-.412,3.636-40.712,4.3-48.786a38.508,38.508,0,0,1,5.285-15.558l.888.56a38.345,38.345,0,0,0-5.136,15.082c-.634,7.589-3.837,43.534-4.228,48.279l28,3.171c.518-4.059,3.71-31.094.4-45.531-3.731-16.276-11.034-26.264-15.494-25.366l-.2-1.057c5.749-1.131,13.1,10.379,16.72,26.2s-.4,46.112-.444,46.419Z" transform="translate(-54.603 -89.08)" fill="#263238"/>
          <rect id="Rectangle_51" data-name="Rectangle 51" width="36.04" height="4.566" transform="matrix(0.957, 0.291, -0.291, 0.957, 28.016, 369.455)" fill="#4c4c4c"/>
          <rect id="Rectangle_52" data-name="Rectangle 52" width="19.722" height="3.171" transform="translate(196.245 228.925)" fill="#fff"/>
          <path id="Tracé_970" data-name="Tracé 970" d="M275.37,312.8H255.648a.528.528,0,0,1-.528-.528V309.1a.528.528,0,0,1,.528-.528H275.37a.529.529,0,0,1,.529.528v3.171A.539.539,0,0,1,275.37,312.8Zm-19.193-1.057h18.665v-2.114H256.177Z" transform="translate(-59.404 -80.173)" fill="#263238"/>
          <path id="Tracé_971" data-name="Tracé 971" d="M259.47,314.468H191.649a3.7,3.7,0,1,1,0-7.4H259.47a3.7,3.7,0,1,1,0,7.4Z" transform="translate(-63.226 -80.259)" fill="#000032"/>
          <path id="Tracé_972" data-name="Tracé 972" d="M181.931,419.748H178.76V314.2a5.126,5.126,0,0,1,5.126-5.126h8.286v3.171h-8.286a1.955,1.955,0,0,0-1.955,1.955Z" transform="translate(-63.749 -80.145)" fill="#fff"/>
          <path id="Tracé_973" data-name="Tracé 973" d="M181.959,420.305h-3.171a.528.528,0,0,1-.528-.528V314.224a5.665,5.665,0,0,1,5.654-5.654H192.2a.528.528,0,0,1,.528.528v3.171a.528.528,0,0,1-.528.528h-8.286a1.416,1.416,0,0,0-1.427,1.427V419.777A.528.528,0,0,1,181.959,420.305Zm-2.642-1.057h2.114V314.224a2.484,2.484,0,0,1,2.484-2.484h7.81v-2.114h-7.758a4.6,4.6,0,0,0-4.6,4.6Z" transform="translate(-63.777 -80.173)" fill="#263238"/>
          <path id="Tracé_974" data-name="Tracé 974" d="M177.829,412.87V435.8s-1.638,5.38-1.448,7.483c.328,3.763,8.2-7.483,8.2-7.483V412.87Z" transform="translate(-63.885 -74.239)" fill="#4c4c4c"/>
          <path id="Tracé_975" data-name="Tracé 975" d="M179.735,416.93A22.565,22.565,0,1,0,202.3,439.495,22.565,22.565,0,0,0,179.735,416.93Zm15.473,20.831c-4.407-.8-15.388-3.667-21.3-12.683a15.547,15.547,0,0,1,21.3,12.683Zm-26.422-9.322c1.311,2.114,4.714,8.518,3.393,15.114-.867,4.344-2.484,5.982-3.794,6.563a15.536,15.536,0,0,1,.4-21.677Zm10.949,26.613a15.293,15.293,0,0,1-4.365-.634c2.4-4.058,7.906-10.241,18.908-9.406a15.547,15.547,0,0,1-14.543,10.04Z" transform="translate(-64.977 -74.007)" fill="#4c4c4c"/>
        </g>
      </g>
    </g>
  </g>
</svg>
