<svg xmlns="http://www.w3.org/2000/svg" xmlns:xlink="http://www.w3.org/1999/xlink" width="391.832" height="638.555" viewBox="0 0 391.832 638.555">
  <defs>
    <filter id="Rectangle_32" x="0" y="0" width="391.832" height="638.555" filterUnits="userSpaceOnUse">
      <feOffset dx="-12" dy="13" input="SourceAlpha"/>
      <feGaussianBlur stdDeviation="13.5" result="blur"/>
      <feFlood flood-opacity="0.161"/>
      <feComposite operator="in" in2="blur"/>
      <feComposite in="SourceGraphic"/>
    </filter>
    <clipPath id="clip-path">
      <rect id="Rectangle_2161" data-name="Rectangle 2161" width="310.832" height="557.555" rx="6" transform="translate(44.682 -0.223)" fill="#fff"/>
    </clipPath>
  </defs>
  <g id="inf" transform="translate(7.818 27.723)">
    <g transform="matrix(1, 0, 0, 1, -7.82, -27.72)" filter="url(#Rectangle_32)">
      <rect id="Rectangle_32-2" data-name="Rectangle 32" width="310.832" height="557.555" rx="43" transform="translate(52.5 27.5)" fill="#07b5e7"/>
    </g>
    <g id="Groupe_de_masques_30" data-name="Groupe de masques 30" clip-path="url(#clip-path)">
      <g id="Groupe_204" data-name="Groupe 204" transform="translate(-546.485 -237.652)">
        <g id="Background_Simple" data-name="Background Simple" transform="translate(494.961 304.152)">
          <path id="Tracé_647" data-name="Tracé 647" d="M324.378,45.286S248.1,18.155,173.234,61.342s-112.658,128.9-145.1,197.567-13.775,138.5,43.386,170.317,96.025-15.1,176.2-17.38,101.742,9.173,168.325-36.115S494.6,223.461,442.125,144.309,324.378,45.286,324.378,45.286Z" transform="translate(-12.264 -36.874)" fill="#5da2f0"/>
          <g id="Groupe_16" data-name="Groupe 16" transform="translate(0 0)" opacity="0.8">
            <path id="Tracé_648" data-name="Tracé 648" d="M324.378,45.286S248.1,18.155,173.234,61.342s-112.658,128.9-145.1,197.567-13.775,138.5,43.386,170.317,96.025-15.1,176.2-17.38,101.742,9.173,168.325-36.115S494.6,223.461,442.125,144.309,324.378,45.286,324.378,45.286Z" transform="translate(-12.264 -36.874)" fill="#fff"/>
          </g>
        </g>
        <g id="Floor" transform="translate(499.908 723.516)">
          <path id="Tracé_649" data-name="Tracé 649" d="M479.874,458.916H17.728a.5.5,0,0,1,0-1H479.874a.5.5,0,0,1,.5.5A.508.508,0,0,1,479.874,458.916Z" transform="translate(-17.23 -457.92)" fill="#263238"/>
        </g>
        <g id="Window" transform="translate(754.447 301.466)">
          <path id="Tracé_650" data-name="Tracé 650" d="M368.033,377.113H277a.508.508,0,0,1-.5-.5V34.468a.5.5,0,0,1,.5-.5h91.035a.5.5,0,0,1,.5.5V376.625A.5.5,0,0,1,368.033,377.113Zm-90.537-1h90.039V35H277.5Z" transform="translate(-272.805 -31.231)" fill="#263238"/>
          <path id="Tracé_651" data-name="Tracé 651" d="M483.656,34.459H274.674a1.384,1.384,0,0,1-1.384-1.384h0a1.384,1.384,0,0,1,1.384-1.384H483.656a1.394,1.394,0,0,1,1.394,1.384h0A1.394,1.394,0,0,1,483.656,34.459Z" transform="translate(-272.792 -31.222)" fill="#000032"/>
          <path id="Tracé_652" data-name="Tracé 652" d="M483.654,34.985H274.672a1.882,1.882,0,1,1,0-3.765H483.654a1.882,1.882,0,0,1,0,3.765Zm-208.981-2.8a.886.886,0,1,0,0,1.773H483.654a.886.886,0,0,0,0-1.773Z" transform="translate(-272.79 -31.22)" fill="#263238"/>
          <path id="Tracé_653" data-name="Tracé 653" d="M479.85,294H368.3a.5.5,0,1,1,0-1H479.85a.5.5,0,0,1,0,1Z" transform="translate(-273.17 -32.266)" fill="#263238"/>
          <path id="Tracé_654" data-name="Tracé 654" d="M479.85,287.326H368.3a.5.5,0,1,1,0-1H479.85a.5.5,0,0,1,0,1Z" transform="translate(-273.17 -32.239)" fill="#263238"/>
          <path id="Tracé_655" data-name="Tracé 655" d="M479.85,158H368.3a.5.5,0,1,1,0-1H479.85a.5.5,0,0,1,0,1Z" transform="translate(-273.17 -31.723)" fill="#263238"/>
          <path id="Tracé_656" data-name="Tracé 656" d="M479.85,163.866H368.3a.5.5,0,1,1,0-1H479.85a.5.5,0,0,1,0,1Z" transform="translate(-273.17 -31.746)" fill="#263238"/>
          <path id="Tracé_657" data-name="Tracé 657" d="M283.628,61.751a.508.508,0,0,1-.5-.5V35a.508.508,0,0,1,.5-.5.5.5,0,0,1,.5.5V61.253A.5.5,0,0,1,283.628,61.751Z" transform="translate(-272.831 -31.233)" fill="#263238"/>
          <path id="Tracé_658" data-name="Tracé 658" d="M287.908,208.956a.5.5,0,0,1-.5-.5V38.888a.5.5,0,1,1,1,0v169.57A.508.508,0,0,1,287.908,208.956Z" transform="translate(-272.848 -31.249)" fill="#263238"/>
          <path id="Tracé_659" data-name="Tracé 659" d="M298.288,55.584a.5.5,0,0,1-.5-.5V34.658a.5.5,0,1,1,1,0V55.086A.5.5,0,0,1,298.288,55.584Z" transform="translate(-272.89 -31.232)" fill="#263238"/>
          <path id="Tracé_660" data-name="Tracé 660" d="M298.288,71.95a.5.5,0,0,1-.5-.5v-11.4a.5.5,0,0,1,.5-.5.508.508,0,0,1,.5.5V71.4a.5.5,0,0,1-.5.548Z" transform="translate(-272.89 -31.333)" fill="#263238"/>
          <path id="Tracé_661" data-name="Tracé 661" d="M359,69.976a.5.5,0,0,1-.5-.5v-4.87a.5.5,0,0,1,.5-.5.508.508,0,0,1,.5.5v4.87A.508.508,0,0,1,359,69.976Z" transform="translate(-273.132 -31.351)" fill="#263238"/>
          <path id="Tracé_662" data-name="Tracé 662" d="M359,60.446a.5.5,0,0,1-.5-.5V35a.5.5,0,0,1,.5-.5.508.508,0,0,1,.5.5v24.95A.5.5,0,0,1,359,60.446Z" transform="translate(-273.132 -31.233)" fill="#263238"/>
          <path id="Tracé_663" data-name="Tracé 663" d="M309.578,94.07a.5.5,0,0,1-.5-.5V89.678a.508.508,0,0,1,.5-.5.5.5,0,0,1,.5.5v3.894A.5.5,0,0,1,309.578,94.07Z" transform="translate(-272.935 -31.452)" fill="#263238"/>
          <path id="Tracé_664" data-name="Tracé 664" d="M309.578,85.433a.5.5,0,0,1-.5-.5V39.218a.5.5,0,0,1,1,0V84.935A.5.5,0,0,1,309.578,85.433Z" transform="translate(-272.935 -31.25)" fill="#263238"/>
          <path id="Tracé_665" data-name="Tracé 665" d="M316.3,53.659a.5.5,0,0,1-.5-.5V38.888a.5.5,0,0,1,1,0V53.161A.508.508,0,0,1,316.3,53.659Z" transform="translate(-272.962 -31.249)" fill="#263238"/>
          <path id="Tracé_666" data-name="Tracé 666" d="M351.1,53.659a.5.5,0,0,1-.5-.5V38.888a.5.5,0,0,1,1,0V53.161A.5.5,0,0,1,351.1,53.659Z" transform="translate(-273.101 -31.249)" fill="#263238"/>
          <path id="Tracé_667" data-name="Tracé 667" d="M324.848,157.147a.5.5,0,0,1-.5-.5V34.658a.5.5,0,1,1,1,0V156.649A.508.508,0,0,1,324.848,157.147Z" transform="translate(-272.996 -31.232)" fill="#263238"/>
          <path id="Tracé_668" data-name="Tracé 668" d="M336.138,42.29a.5.5,0,0,1-.5-.5V35.308a.5.5,0,1,1,1,0v6.484A.5.5,0,0,1,336.138,42.29Z" transform="translate(-273.041 -31.234)" fill="#263238"/>
          <path id="Tracé_669" data-name="Tracé 669" d="M342.858,122.289a.5.5,0,0,1-.5-.5V35.308a.5.5,0,1,1,1,0v86.483A.508.508,0,0,1,342.858,122.289Z" transform="translate(-273.068 -31.234)" fill="#263238"/>
          <path id="Tracé_670" data-name="Tracé 670" d="M332.478,59.173a.5.5,0,0,1-.5-.5V40.518a.5.5,0,1,1,1,0V58.675A.5.5,0,0,1,332.478,59.173Z" transform="translate(-273.027 -31.255)" fill="#263238"/>
          <path id="Tracé_671" data-name="Tracé 671" d="M387.538,143.084a.488.488,0,0,1-.388-.807l2.351-2.938a.518.518,0,0,1,.707-.07.5.5,0,0,1,.07.7l-2.351,2.938A.508.508,0,0,1,387.538,143.084Z" transform="translate(-273.247 -31.651)" fill="#263238"/>
          <path id="Tracé_672" data-name="Tracé 672" d="M393.708,135.189a.5.5,0,0,1-.379-.817l45.388-54.023a.508.508,0,0,1,.707-.06.488.488,0,0,1,.06.7l-45.4,54.023A.478.478,0,0,1,393.708,135.189Z" transform="translate(-273.271 -31.416)" fill="#263238"/>
          <path id="Tracé_673" data-name="Tracé 673" d="M411.548,133.283a.518.518,0,0,1-.329-.119.488.488,0,0,1-.05-.7l17.45-20.687a.488.488,0,0,1,.7-.06.508.508,0,0,1,.06.707L411.926,133.1a.488.488,0,0,1-.378.179Z" transform="translate(-273.343 -31.541)" fill="#263238"/>
          <path id="Tracé_674" data-name="Tracé 674" d="M387.538,272.424a.557.557,0,0,1-.319-.109.508.508,0,0,1-.07-.707l2.351-2.928a.5.5,0,1,1,.777.618l-2.35,2.938A.518.518,0,0,1,387.538,272.424Z" transform="translate(-273.247 -32.168)" fill="#263238"/>
          <path id="Tracé_675" data-name="Tracé 675" d="M393.708,264.511a.468.468,0,0,1-.309-.119.488.488,0,0,1-.08-.7l47.121-58.635a.5.5,0,0,1,.777.627L394.1,264.321A.508.508,0,0,1,393.708,264.511Z" transform="translate(-273.271 -31.914)" fill="#263238"/>
          <path id="Tracé_676" data-name="Tracé 676" d="M411.548,262.613a.488.488,0,0,1-.378-.817l17.45-20.677a.478.478,0,0,1,.7-.06.488.488,0,0,1,.06.7l-17.45,20.687A.519.519,0,0,1,411.548,262.613Z" transform="translate(-273.343 -32.058)" fill="#263238"/>
          <path id="Tracé_677" data-name="Tracé 677" d="M448,285.06a.5.5,0,0,1-.5-.5V163.418a.5.5,0,0,1,.5-.5.508.508,0,0,1,.5.5V284.562A.5.5,0,0,1,448,285.06Z" transform="translate(-273.488 -31.746)" fill="#263238"/>
          <path id="Tracé_678" data-name="Tracé 678" d="M448,157.263a.5.5,0,0,1-.5-.5V33.9a.5.5,0,0,1,.5-.5.508.508,0,0,1,.5.5V156.765A.5.5,0,0,1,448,157.263Z" transform="translate(-273.488 -31.229)" fill="#263238"/>
          <path id="Tracé_679" data-name="Tracé 679" d="M454,285.06a.5.5,0,0,1-.5-.5V163.568a.5.5,0,1,1,1,0V284.562A.5.5,0,0,1,454,285.06Z" transform="translate(-273.512 -31.747)" fill="#263238"/>
          <path id="Tracé_680" data-name="Tracé 680" d="M454,157.2a.5.5,0,0,1-.5-.5V33.9a.5.5,0,1,1,1,0V156.705A.5.5,0,0,1,454,157.2Z" transform="translate(-273.512 -31.229)" fill="#263238"/>
        </g>
        <g id="Plant" transform="translate(560.2 485.507)">
          <path id="Tracé_460" data-name="Tracé 460" d="M108.311,363.186a28.754,28.754,0,0,1-1.854-19.636c2.845-11.187,3.88-9.311.916-15.756s-5.529-7.76-3.761-13.288,4.807-14.172,3.707-19.4-3.492-7.382-2.414-13.04,4.408-8.385,2.781-14.56-4.473-5.884-3.395-11.553,2.587-6.1,2.155-11.219.754-7.544.754-7.544,1.951,8.007,3.233,12.437,1.466,6.984.851,10.217,6.714,8.837,6.93,11.391,1.778,5.389-.657,10.777-3.05,8.622-1.649,12.254,2.921,3.071,1.53,10.357-5.6,7.307-2.479,12.933,5,6.822,3.556,10.777-3.729,8.514-2.845,11.2a25.052,25.052,0,0,0,1.875,3.847,15.336,15.336,0,0,1,1.692,10.475l-.42,2.209,1.369,11.154-6.65,5.443S110.455,370.31,108.311,363.186Z" transform="translate(-75.784 -237.19)" fill="#5da2f0"/>
          <path id="Tracé_461" data-name="Tracé 461" d="M102.6,362.483A21.64,21.64,0,0,1,97.1,346.652c.69-9.635,2.069-8.255-2.058-13.073s-6.887-5.5-6.2-10.314,2.069-12.383,0-16.511-4.817-5.507-4.817-10.325,2.759-7.544,0-12.383-5.507-4.128-5.507-8.945,1.38-8.945,0-13.073-.474-3.233-.474-3.233,3.233,6.714,5.292,10.152,2.759,5.507,2.759,8.255,8.255,6.2,8.945,8.255,2.748,4.138,1.369,8.945-1.369,7.544.69,10.325,3.438,2.069,3.438,8.255-4.128,6.876,0,11.014,6.2,4.807,5.507,8.255-2.058,7.544-.69,9.624a16.414,16.414,0,0,0,1.724,2.026,15.842,15.842,0,0,1,4.473,11h0l3.438,8.945-5.507,5.507S106.04,367.98,102.6,362.483Z" transform="translate(-77.749 -235.517)" fill="#5da2f0"/>
          <path id="Tracé_462" data-name="Tracé 462" d="M138.093,362.42a21.662,21.662,0,0,0,5.5-15.832c-.679-9.635-2.058-8.255,2.069-13.073s6.876-5.5,6.2-10.314-2.069-12.383,0-16.511,4.807-5.507,4.807-10.325-2.748-7.544,0-12.383,5.507-4.128,5.507-8.945-1.379-8.945,0-13.073-.269-1.767-.269-1.767-2.479,5.205-4.548,8.622-2.748,5.507-2.748,8.255-8.255,6.2-8.945,8.255-2.748,4.138-1.379,8.945,1.379,7.544-.69,10.324-3.438,2.069-3.438,8.255,4.128,6.876,0,11.014-6.186,4.807-5.5,8.255,2.058,7.544.679,9.624a14.936,14.936,0,0,1-1.692,1.994,15.982,15.982,0,0,0-4.494,11.133h0l-3.438,8.945,5.5,5.507S134.644,367.917,138.093,362.42Z" transform="translate(-74.022 -235.454)" fill="#5da2f0"/>
          <path id="Tracé_463" data-name="Tracé 463" d="M126.632,362.789a17.459,17.459,0,0,0,2.306-13.321c-1.811-7.544-2.727-6.3-.075-10.68s4.753-5.292,3.567-9.031-3.233-9.592-2.155-13.148,3.115-5.022,2.479-8.859-3.233-5.658-1.627-9.861,3.837-4.009,3.233-7.835-2.274-6.94-1.714-10.411-.657-2.565-.657-2.565a65.239,65.239,0,0,1-2.274,8.676c-1.2,3.007-1.466,4.742-1.078,6.93s-5.755,6.024-6.035,7.749-1.649,3.654.086,7.307,2.091,5.841.808,8.309-2.468,2.091-1.66,7.027,4.192,4.936,1.455,8.762-4.311,4.656-3.3,7.3,2.64,5.755,1.811,7.544a40.388,40.388,0,0,1-4.117,5.744l.905,5.475-1.563,7.544,5.108,3.653S124.617,367.628,126.632,362.789Z" transform="translate(-74.697 -234.098)" fill="#5da2f0"/>
          <path id="Tracé_464" data-name="Tracé 464" d="M148.8,351.4l-1.627,40.35H142.7v31.114H97.3V391.75H93.107L91.49,351.4Z" transform="translate(-76.681 -228.314)" fill="#3c3c3c"/>
          <path id="Tracé_465" data-name="Tracé 465" d="M143.28,423.441H96.8V392.328H92.627L91,350.9h58.434l-1.66,41.428h-4.462Zm-45.4-1.078H142.2V391.25h4.5l1.573-39.272h-56.2l1.573,39.272h4.214Z" transform="translate(-76.72 -228.352)" fill="#263238"/>
          <path id="Tracé_466" data-name="Tracé 466" d="M91.76,358.25,92,364.091h56.257l.226-5.841Z" transform="translate(-76.66 -227.781)" fill="#fff"/>
          <path id="Tracé_467" data-name="Tracé 467" d="M148.812,364.669H91.52l-.28-6.919h57.852Zm-56.257-1.078h55.222l.183-4.764h-55.6Z" transform="translate(-76.701 -227.82)" fill="#263238"/>
          <path id="Tracé_468" data-name="Tracé 468" d="M147.786,373.8l.151-3.718H92.24l.151,3.718Z" transform="translate(-76.623 -226.862)" fill="#fff"/>
          <path id="Tracé_469" data-name="Tracé 469" d="M148.343,374.346H91.9l-.183-4.8h56.817Zm-55.395-1.078h54.36l.108-2.64H92.841Z" transform="translate(-76.664 -226.903)" fill="#263238"/>
          <path id="Tracé_470" data-name="Tracé 470" d="M97.9,464.406H90.63V388.33h2.543v1.078H91.708v73.921h5.119V419.993H97.9Z" transform="translate(-76.748 -225.443)" fill="#263238"/>
          <path id="Tracé_471" data-name="Tracé 471" d="M145.774,464.406H138.51V419.993h1.078v43.335H144.7V389.408h-1.164V388.33h2.242Z" transform="translate(-73.027 -225.443)" fill="#263238"/>
        </g>
        <g id="Characters" transform="translate(602.044 350.863)">
          <path id="Tracé_472" data-name="Tracé 472" d="M137.82,326.109s-12.2-69.513-12.2-85.14,16.058-40.415,53.3-50.114,84.773-3.233,98.9,3.772,22.47,22.093,25.682,46.881,9.635,124.477,9.635,124.477l-169.536,2.694Z" transform="translate(-125.081 -97.395)" fill="#666"/>
          <path id="Tracé_473" data-name="Tracé 473" d="M143.646,369.266a.55.55,0,0,1-.539-.474l-5.777-42.635c-.216-1.207-12.211-69.782-12.211-85.215,0-8.773,4.677-18.849,12.825-27.654,6.876-7.415,19.55-17.427,40.889-22.988,38.8-10.12,85.959-2.791,99.269,3.815,14.28,7.081,22.783,22.546,25.984,47.29,3.179,24.518,9.57,123.517,9.635,124.509a.55.55,0,0,1-.528.582l-169.536,2.77Zm77.736-182.7c-14.1,0-28.894,1.358-42.279,4.85C140.564,201.455,126.2,227.169,126.2,241c0,15.4,12.07,84.342,12.2,85.043h0l5.712,42.1,168.5-2.684c-.528-8.115-6.542-100.346-9.592-123.873-3.158-24.357-11.467-39.563-25.391-46.471-8.751-4.322-31.394-8.568-56.246-8.568Z" transform="translate(-125.12 -97.43)" fill="#263238"/>
          <path id="Tracé_474" data-name="Tracé 474" d="M325.928,440.31a43.477,43.477,0,0,1-12.739,9.559c-7.544,3.578-11.154,7.544-10.777,10.346s4.785,3.233,12.34,3.589,34.239-.8,38.625-.8,7.954-1.2,7.954-4.785-.8-12.739-.8-12.739Z" transform="translate(-111.343 -89.947)" fill="#fff"/>
          <path id="Tracé_475" data-name="Tracé 475" d="M319.13,464.456c-1.757,0-3.233,0-4.311-.086-7.9-.41-12.383-.8-12.847-4.042s3.761-7.458,11.047-10.907a43.421,43.421,0,0,0,12.534-9.408.517.517,0,0,1,.485-.183L360.676,445a.528.528,0,0,1,.453.485c0,.377.8,9.225.8,12.782,0,2.425-1.476,5.324-8.5,5.324-1.39,0-5.065.119-9.7.27C335.813,464.122,325.628,464.456,319.13,464.456Zm7.038-23.527a43.918,43.918,0,0,1-12.717,9.462c-8.191,3.88-10.777,7.695-10.443,9.786.334,2.35,4.7,2.748,11.855,3.125,5.108.269,18.817-.194,28.818-.517,4.667-.162,8.352-.28,9.764-.28,3.395,0,7.425-.744,7.425-4.246,0-3.072-.6-10.422-.754-12.264Z" transform="translate(-111.378 -89.984)" fill="#263238"/>
          <path id="Tracé_476" data-name="Tracé 476" d="M341.844,458.488c-14.075,0-32.989-.808-39.261-1.078a3.426,3.426,0,0,0-.151,1.487c.4,2.791,4.785,3.233,12.34,3.589s34.239-.8,38.625-.8c3.944,0,7.242-.981,7.846-3.8C357.018,458.175,350.573,458.488,341.844,458.488Z" transform="translate(-111.341 -88.618)" fill="#fff"/>
          <path id="Tracé_477" data-name="Tracé 477" d="M319.14,463.129c-1.768,0-3.233,0-4.311-.086-7.9-.41-12.383-.8-12.846-4.042a4.043,4.043,0,0,1,.162-1.724.528.528,0,0,1,.539-.377c5.6.248,25.014,1.078,39.24,1.078,8.977,0,15.476-.334,19.4-.614a.551.551,0,0,1,.453.183.572.572,0,0,1,.119.474c-.593,2.759-3.492,4.225-8.385,4.225-1.39,0-5.065.119-9.7.27C335.812,462.8,325.627,463.129,319.14,463.129ZM303.082,458a2.3,2.3,0,0,0,0,.852c.334,2.349,4.7,2.748,11.855,3.125,5.108.269,18.817-.194,28.829-.517,4.656-.162,8.342-.28,9.7-.28,2.737,0,6.057-.485,7.091-2.673-3.966.27-10.228.561-18.634.561C327.988,459.066,309.171,458.269,303.082,458Z" transform="translate(-111.377 -88.657)" fill="#263238"/>
          <path id="Tracé_478" data-name="Tracé 478" d="M363.139,278.907s-14.732,60.514-14.732,65.288,13.935,26.674,14.334,43.788-5.971,50.567-4.774,54.145,3.233,5.971,2.781,9.161-1.584,11.542-1.584,11.542-5.583.4-17.125-1.994a93.348,93.348,0,0,1-19.119-5.97s-.8-8.363-.8-9.947,1.6-5.583,1.994-8.762-1.2-34.239-4.376-50.556-9.16-37.429-9.16-48.573-.4-50.556-.4-50.556a170.671,170.671,0,0,1,24.281-13.935c14.334-6.768,24.292-3.179,24.292-3.179Z" transform="translate(-110.737 -103.307)" fill="#5da2f0"/>
          <path id="Tracé_479" data-name="Tracé 479" d="M358.1,463.433a81.975,81.975,0,0,1-16.166-2.026,93.508,93.508,0,0,1-19.226-6.014.55.55,0,0,1-.313-.431c0-.345-.8-8.406-.8-10a17.96,17.96,0,0,1,.83-3.8,35.566,35.566,0,0,0,1.164-5.022c.377-2.964-1.078-33.7-4.376-50.394-.992-5.119-2.3-10.777-3.546-16.328-2.759-12.114-5.615-24.637-5.615-32.332,0-11.014-.4-50.157-.4-50.556a.561.561,0,0,1,.226-.442,173.522,173.522,0,0,1,24.367-14.01c14.366-6.79,24.281-3.352,24.69-3.233a.539.539,0,0,1,.313.28l4.375,9.549a.506.506,0,0,1,0,.356c-.14.6-14.711,60.5-14.711,65.159,0,1.563,1.735,5.389,3.923,10.217,4.311,9.43,10.152,22.352,10.411,33.56.226,9.559-1.649,24.141-3.158,35.845-1.142,8.945-2.155,16.662-1.649,18.138a32.042,32.042,0,0,0,1.3,3.158c.916,2.026,1.8,3.944,1.509,6.24-.4,3.147-1.584,11.467-1.6,11.553a.539.539,0,0,1-.5.463C359.181,463.412,358.8,463.433,358.1,463.433Zm-34.627-8.891a95.312,95.312,0,0,0,18.709,5.809c9.549,1.972,15.088,2.026,16.543,1.994.248-1.767,1.186-8.363,1.53-11.09.248-1.983-.528-3.686-1.423-5.647-.463-1.078-.938-2.069-1.347-3.233-.539-1.627.216-7.824,1.606-18.623,1.5-11.672,3.363-26.2,3.147-35.673-.259-10.993-6.068-23.8-10.314-33.151-2.328-5.141-4.02-8.859-4.02-10.659,0-4.7,13.655-60.9,14.7-65.234l-4.2-9.161c-1.487-.453-10.842-2.824-23.656,3.233a174.441,174.441,0,0,0-23.979,13.73c0,3.578.4,39.757.4,50.276,0,7.544,2.845,20.046,5.583,32.094,1.261,5.529,2.565,11.23,3.567,16.371,3.125,16.058,4.828,47.183,4.386,50.728a39.66,39.66,0,0,1-1.2,5.184,17.937,17.937,0,0,0-.8,3.513c0,1.326.625,8.018.765,9.538Z" transform="translate(-110.778 -103.349)" fill="#263238"/>
          <path id="Tracé_480" data-name="Tracé 480" d="M339.537,270.27a46.46,46.46,0,0,0-5.3,2.155,180.991,180.991,0,0,0-21,11.715l2.608,5.615s28.182,9.053,42.1,7.307l.593-.086c2.457-10.3,4.375-18.181,4.375-18.181l-2.716-5.906a12.632,12.632,0,0,0-3.643-1.563C355.013,271.111,347.3,270.669,339.537,270.27Z" transform="translate(-110.5 -92.097)" fill="#000032"/>
          <path id="Tracé_481" data-name="Tracé 481" d="M353.974,297.832c-14.539,0-37.214-7.221-38.259-7.544a.55.55,0,0,1-.323-.28l-2.608-5.615a.528.528,0,0,1,.194-.679,177.727,177.727,0,0,1,21.069-11.758,47.851,47.851,0,0,1,5.389-2.155.612.612,0,0,1,.194,0c7.005.356,15.325.83,17.039,1.078a12.639,12.639,0,0,1,3.847,1.627.529.529,0,0,1,.237.248l2.705,5.906a.507.507,0,0,1,0,.356s-1.907,7.878-4.365,18.17a.539.539,0,0,1-.442.41h-.2l-.41.065a34.171,34.171,0,0,1-4.063.172Zm-37.72-8.514c2.694.851,28.657,8.837,41.643,7.221h.226c2.155-9.225,3.944-16.435,4.235-17.653l-2.543-5.637a11.3,11.3,0,0,0-3.3-1.422c-1.444-.162-8.374-.571-16.866-1a46.062,46.062,0,0,0-5.141,2.058,179.884,179.884,0,0,0-20.552,11.435Z" transform="translate(-110.539 -92.135)" fill="#263238"/>
          <path id="Tracé_482" data-name="Tracé 482" d="M366.561,440.31a43.615,43.615,0,0,1-12.782,9.559c-7.544,3.578-11.144,7.544-10.777,10.346s4.774,3.233,12.34,3.589,34.239-.8,38.615-.8,7.964-1.2,7.964-4.785-.8-12.739-.8-12.739Z" transform="translate(-108.188 -89.947)" fill="#fff"/>
          <path id="Tracé_483" data-name="Tracé 483" d="M359.76,464.456c-1.757,0-3.233,0-4.311-.086-7.9-.41-12.383-.8-12.846-4.042s3.761-7.458,11.047-10.907a43.423,43.423,0,0,0,12.534-9.408.517.517,0,0,1,.485-.183L401.306,445a.539.539,0,0,1,.453.485c0,.377.8,9.225.8,12.782,0,2.425-1.477,5.324-8.5,5.324-1.39,0-5.076.118-9.7.269C376.443,464.122,366.258,464.456,359.76,464.456ZM366.8,440.93a43.918,43.918,0,0,1-12.717,9.462c-8.191,3.88-10.777,7.695-10.443,9.786.334,2.35,4.688,2.748,11.855,3.125,5.108.259,18.817-.194,28.818-.517,4.667-.162,8.352-.28,9.764-.28,3.395,0,7.426-.744,7.426-4.246,0-3.071-.6-10.422-.755-12.264Z" transform="translate(-108.22 -89.984)" fill="#263238"/>
          <path id="Tracé_484" data-name="Tracé 484" d="M382.474,458.488c-14.075,0-32.989-.808-39.261-1.078a3.426,3.426,0,0,0-.151,1.487c.4,2.791,4.774,3.233,12.34,3.589s34.239-.8,38.615-.8c3.955,0,7.242-.981,7.857-3.8C397.648,458.175,391.2,458.488,382.474,458.488Z" transform="translate(-108.184 -88.618)" fill="#fff"/>
          <path id="Tracé_485" data-name="Tracé 485" d="M359.759,463.129c-1.757,0-3.233,0-4.311-.086-7.9-.41-12.383-.8-12.847-4.042a4.043,4.043,0,0,1,.162-1.724.528.528,0,0,1,.539-.377c5.6.248,25.014,1.078,39.24,1.078,8.967,0,15.476-.334,19.4-.614a.56.56,0,0,1,.453.184.57.57,0,0,1,.118.474c-.6,2.759-3.492,4.225-8.385,4.225-1.39,0-5.076.119-9.7.27C376.443,462.8,366.258,463.129,359.759,463.129Zm-16.1-5.13a2.535,2.535,0,0,0,0,.851c.334,2.35,4.688,2.748,11.855,3.125,5.108.259,18.817-.194,28.818-.517,4.667-.162,8.352-.28,9.764-.28,2.737,0,6.057-.485,7.091-2.673-3.966.27-10.228.56-18.634.56C368.618,459.066,349.79,458.269,343.658,458Z" transform="translate(-108.22 -88.657)" fill="#263238"/>
          <path id="Tracé_486" data-name="Tracé 486" d="M403.818,278.907s-14.732,60.514-14.732,65.288,13.935,26.674,14.334,43.788-5.971,50.567-4.785,54.145,3.233,5.971,2.792,9.161-1.6,11.542-1.6,11.542-5.572.4-17.114-1.994a93.336,93.336,0,0,1-19.108-5.971s-.8-8.363-.8-9.947,1.6-5.583,1.994-8.762-1.2-34.239-4.386-50.556-9.15-37.429-9.15-48.573-.4-50.556-.4-50.556a169.92,169.92,0,0,1,24.281-13.935c14.334-6.768,24.281-3.179,24.281-3.179Z" transform="translate(-107.575 -103.307)" fill="#5da2f0"/>
          <path id="Tracé_487" data-name="Tracé 487" d="M398.723,463.434a81.906,81.906,0,0,1-16.166-2.026,94.057,94.057,0,0,1-19.237-6.013.56.56,0,0,1-.3-.431c0-.345-.8-8.406-.8-10a17.956,17.956,0,0,1,.83-3.8,35.58,35.58,0,0,0,1.164-5.022c.366-2.964-1.078-33.7-4.375-50.394-.992-5.119-2.3-10.777-3.557-16.338-2.759-12.1-5.6-24.626-5.6-32.332,0-11.014-.4-50.157-.4-50.556a.528.528,0,0,1,.226-.442,173.538,173.538,0,0,1,24.367-14.01c14.366-6.779,24.281-3.352,24.691-3.233a.539.539,0,0,1,.313.28l4.375,9.549a.505.505,0,0,1,0,.356c-.14.6-14.711,60.5-14.711,65.159,0,1.563,1.735,5.389,3.923,10.217,4.311,9.43,10.141,22.352,10.411,33.56.216,9.559-1.649,24.13-3.158,35.845-1.153,8.945-2.155,16.661-1.649,18.138a32.031,32.031,0,0,0,1.293,3.158c.927,2.026,1.8,3.944,1.52,6.24-.4,3.147-1.584,11.467-1.6,11.553a.561.561,0,0,1-.5.463C399.812,463.412,399.435,463.434,398.723,463.434Zm-34.616-8.891a94.754,94.754,0,0,0,18.709,5.809c9.549,1.972,15.034,2.026,16.543,1.994.248-1.767,1.185-8.363,1.52-11.09.248-1.983-.517-3.686-1.423-5.658a31.848,31.848,0,0,1-1.336-3.233c-.539-1.627.216-7.824,1.606-18.623,1.5-11.672,3.362-26.2,3.147-35.672-.259-10.993-6.068-23.8-10.314-33.151-2.339-5.141-4.02-8.859-4.02-10.659,0-4.7,13.644-60.913,14.7-65.234l-4.2-9.161c-1.5-.453-10.842-2.824-23.71,3.233a174.727,174.727,0,0,0-23.968,13.73c0,3.578.4,39.757.4,50.276,0,7.544,2.834,20.046,5.583,32.095,1.261,5.518,2.554,11.23,3.557,16.371,3.136,16.058,4.828,47.183,4.386,50.728a36.409,36.409,0,0,1-1.2,5.184,18.571,18.571,0,0,0-.787,3.513C363.342,446.33,363.989,453.023,364.107,454.543Z" transform="translate(-107.621 -103.349)" fill="#263238"/>
          <path id="Tracé_488" data-name="Tracé 488" d="M390.6,268.45a40.952,40.952,0,0,0-15.5,4.085,169.914,169.914,0,0,0-24.281,13.935s0,4.548.108,10.982c2.533.528,9.527,1.563,22.869.765,14.722-.884,23.936-3.75,26.426-4.613l.776-3.233.28-13.741S394.661,271.2,390.6,268.45Z" transform="translate(-107.579 -92.213)" fill="#000032"/>
          <path id="Tracé_489" data-name="Tracé 489" d="M364.7,299.081A71.126,71.126,0,0,1,350.848,298a.528.528,0,0,1-.42-.528l-.108-10.982a.528.528,0,0,1,.226-.442,173.513,173.513,0,0,1,24.367-14.01,41.688,41.688,0,0,1,15.7-4.042.518.518,0,0,1,.323.1c4.042,2.727,10.659,8.169,10.723,8.223a.561.561,0,0,1,.194.431l-.28,13.741a.383.383,0,0,1,0,.108l-.765,3.233a.549.549,0,0,1-.345.388c-2.5.862-11.79,3.761-26.577,4.645C370.452,299,367.348,299.081,364.7,299.081Zm-13.2-1.983c2.727.517,9.646,1.433,22.309.668,14.14-.841,23.182-3.535,26.005-4.494l.69-2.867.28-13.418c-1.132-.916-6.682-5.442-10.292-7.9a40.76,40.76,0,0,0-15.088,4.02,174,174,0,0,0-23.968,13.73Z" transform="translate(-107.618 -92.25)" fill="#263238"/>
          <path id="Tracé_490" data-name="Tracé 490" d="M322.345,163.037s-9.7,2.964-12.124,4.58-6.2,14.28-7.275,17.244-6.736,18.321-6.736,18.321l9.161,1.886s-.27,9.161,1.078,12.933,11.047,15.088,11.047,15.088l3.5,9.43-3.772,52.269s13.741,7.275,36.912,9.43,39.067,0,40.953-1.078a21.748,21.748,0,0,1,3.5-1.617l1.617-7.544,2.425,7.005a39.277,39.277,0,0,0,8.891-1.886c3.233-1.347,8.083-4.042,8.083-4.042s-9.969-37.72-14.28-47.959-11.585-26.135-11.585-26.135-3.233-36.912-9.7-49.306-18.591-15.627-27.212-16.435S322.345,163.037,322.345,163.037Z" transform="translate(-111.823 -95.567)" fill="#5da2f0"/>
          <path id="Tracé_491" data-name="Tracé 491" d="M373.345,305.7c-5.658,0-12.167-.259-19.226-.916-23.009-2.155-36.977-9.409-37.117-9.484a.528.528,0,0,1-.28-.517l3.761-52.151-3.427-9.236c-.916-1.078-9.764-11.478-11.079-15.185-1.218-3.373-1.164-10.777-1.078-12.674l-8.719-1.789a.528.528,0,0,1-.366-.269.55.55,0,0,1,0-.453s5.658-15.358,6.736-18.321c.194-.539.474-1.4.83-2.468,2.155-6.585,4.677-13.719,6.65-15.034,2.446-1.638,11.769-4.494,12.254-4.645,1.153-.388,26.07-8.622,34.7-7.835,13.2,1.239,22.5,6.865,27.644,16.715,6.348,12.167,9.527,46.924,9.753,49.424.571,1.261,7.447,16.317,11.553,26.059,4.311,10.163,14.2,47.657,14.3,48.034a.528.528,0,0,1-.259.6c-.054,0-4.914,2.727-8.137,4.074a39.371,39.371,0,0,1-9.128,1.961.539.539,0,0,1-.56-.356l-1.789-5.184-1.207,5.658a.571.571,0,0,1-.366.4,22.9,22.9,0,0,0-3.406,1.574C393.854,304.516,385.555,305.7,373.345,305.7Zm-55.524-11.2c2.155,1.078,15.5,7.264,36.395,9.215,23.376,2.155,38.906,0,40.641-1.013a22.807,22.807,0,0,1,3.309-1.552l1.552-7.253a.518.518,0,0,1,.5-.42.528.528,0,0,1,.539.356l2.285,6.606a36.752,36.752,0,0,0,8.309-1.811c2.662-1.078,6.466-3.158,7.663-3.8-1.078-4.117-10.141-37.968-14.14-47.484-4.311-10.109-11.51-25.962-11.585-26.124a.453.453,0,0,1,0-.172c0-.366-3.3-36.944-9.646-49.1-4.957-9.516-14.01-14.948-26.781-16.166-8.406-.787-34.013,7.706-34.271,7.792h0c-.1,0-9.7,2.964-11.984,4.516-1.821,1.218-4.785,10.174-6.218,14.485-.356,1.078-.647,1.951-.841,2.5l-6.52,17.729,8.546,1.767a.55.55,0,0,1,.431.539c0,.086-.259,9.107,1.078,12.739s10.853,14.808,10.95,14.916a1.188,1.188,0,0,1,.086.162l3.5,9.43a.567.567,0,0,1,0,.226Zm4.559-131.482Z" transform="translate(-111.858 -95.582)" fill="#263238"/>
          <path id="Tracé_492" data-name="Tracé 492" d="M318.215,163.7a73.994,73.994,0,0,0-2.985,18.935" transform="translate(-110.345 -93.469)" fill="#fff"/>
          <path id="Tracé_493" data-name="Tracé 493" d="M315.288,183.794a1.078,1.078,0,0,1-1.078-1.078,73.927,73.927,0,0,1,3.007-19.259,1.078,1.078,0,1,1,2.058.636,73.282,73.282,0,0,0-2.942,18.623A1.078,1.078,0,0,1,315.288,183.794Z" transform="translate(-110.424 -93.509)" fill="#263238"/>
          <path id="Tracé_494" data-name="Tracé 494" d="M316.951,222.1a1.351,1.351,0,0,1-.345-.054,11.188,11.188,0,0,1-1.67-.776c-.485.323-.884.56-1.078.679a1.078,1.078,0,0,1-1.078-1.854l.3-.183a7.157,7.157,0,0,1-2.155-3.233c-1.078-3.438-1.767-32.429.119-35.446A4.559,4.559,0,0,1,316,179.209c1.078.291,3.761,1.509,4.009,6.531.313,6.2.69,27.245.323,29.788-.216,1.476-1.832,3.082-3.416,4.311a2.38,2.38,0,0,0,.366.14,1.092,1.092,0,0,1-.334,2.123Zm-2.026-40.953a2.457,2.457,0,0,0-2.048,1.153c-1.358,2.339-.862,30.413.119,33.69a5.389,5.389,0,0,0,1.918,2.608c1.724-1.272,3.179-2.651,3.3-3.449.323-2.252,0-22.729-.345-29.379-.129-2.533-.991-4.192-2.392-4.548A1.927,1.927,0,0,0,314.925,181.149Z" transform="translate(-110.762 -93.592)" fill="#fff"/>
          <path id="Tracé_495" data-name="Tracé 495" d="M313.335,222.65a1.334,1.334,0,0,1-.41-.054,1.606,1.606,0,0,1-.992-.744,1.628,1.628,0,0,1-.162-1.229,1.551,1.551,0,0,1,.464-.776,7.446,7.446,0,0,1-1.778-3.007c-.959-3.168-1.929-32.515.172-35.877a5.1,5.1,0,0,1,5.561-2.263c1.239.313,4.139,1.649,4.408,7.027.312,6.208.679,27.32.312,29.885-.172,1.229-1.164,2.619-2.953,4.128a1.617,1.617,0,0,1-1.476,2.824,10.568,10.568,0,0,1-1.487-.657c-.366.237-.668.42-.841.517a1.6,1.6,0,0,1-.819.226Zm1.638-43.033a4.084,4.084,0,0,0-3.427,1.918c-1.757,2.813-1.078,31.739-.065,35a6.659,6.659,0,0,0,1.961,2.985.528.528,0,0,1-.076.862l-.312.183a.6.6,0,0,0-.248.334.528.528,0,0,0,.065.4.55.55,0,0,0,.323.259.539.539,0,0,0,.41-.065c.216-.119.593-.356,1.078-.668a.528.528,0,0,1,.561,0,11.746,11.746,0,0,0,1.573.733.571.571,0,0,0,.679-.345.528.528,0,0,0-.334-.679l-.41-.162a.539.539,0,0,1-.323-.431.561.561,0,0,1,.2-.5c1.951-1.53,3.061-2.91,3.233-3.977.367-2.522,0-23.505-.323-29.68-.237-4.667-2.6-5.777-3.6-6.046a4.082,4.082,0,0,0-.97-.129Zm0,39.606a.55.55,0,0,1-.334-.119,5.885,5.885,0,0,1-2.1-2.877c-.895-2.985-1.638-31.4-.065-34.11a2.985,2.985,0,0,1,3.233-1.336c1.638.431,2.651,2.263,2.791,5.054.334,6.66.668,27.2.334,29.476-.172,1.207-2.274,2.9-3.513,3.8a.572.572,0,0,1-.366.108Zm0-37.451a1.875,1.875,0,0,0-1.584.905c-1.261,2.156-.744,30.176.172,33.237a4.526,4.526,0,0,0,1.412,2.08c1.811-1.358,2.694-2.414,2.748-2.834.323-2.242,0-22.632-.345-29.271-.108-2.252-.851-3.772-1.994-4.063a1.7,1.7,0,0,0-.42-.054Z" transform="translate(-110.8 -93.614)" fill="#263238"/>
          <path id="Tracé_496" data-name="Tracé 496" d="M312.941,216.94l1.886,1.358a8.624,8.624,0,0,1-2.6,1.487C311.227,219.99,310.43,219.16,312.941,216.94Z" transform="translate(-110.653 -92.358)" fill="#000032"/>
          <path id="Tracé_497" data-name="Tracé 497" d="M312.01,220.4a1.207,1.207,0,0,1-1.132-.614c-.388-.787.2-1.864,1.746-3.233a.539.539,0,0,1,.668,0l1.886,1.347a.539.539,0,0,1,.226.431.56.56,0,0,1-.194.431,8.936,8.936,0,0,1-2.834,1.6,1.479,1.479,0,0,1-.366.043Zm1-2.727c-1.239,1.153-1.164,1.627-1.164,1.638a.734.734,0,0,0,.313,0,5.788,5.788,0,0,0,1.789-.948Z" transform="translate(-110.692 -92.387)" fill="#263238"/>
          <path id="Tracé_498" data-name="Tracé 498" d="M316.564,216.89,314.57,218.3s2.026,2.694,4.235,1.692S316.564,216.89,316.564,216.89Z" transform="translate(-110.396 -92.367)" fill="#000032"/>
          <path id="Tracé_499" data-name="Tracé 499" d="M317.809,220.8c-2,0-3.556-2.026-3.632-2.155a.55.55,0,0,1-.1-.41.54.54,0,0,1,.216-.356l1.994-1.412a.506.506,0,0,1,.539,0c.744.356,3.179,1.606,3.169,2.91,0,.345-.162.83-.927,1.186A3.028,3.028,0,0,1,317.809,220.8Zm-2.4-2.36c.614.625,1.908,1.692,3.233,1.078.248-.119.3-.2.3-.216,0-.345-1.078-1.164-2.274-1.778Z" transform="translate(-110.435 -92.396)" fill="#263238"/>
          <path id="Tracé_500" data-name="Tracé 500" d="M339.078,194.77A1.078,1.078,0,0,1,338,193.692c0-16.856,4.311-38.539,4.311-38.8a1.1,1.1,0,0,1,2.156.42c0,.216-4.311,21.695-4.311,38.335a1.077,1.077,0,0,1-1.078,1.121Z" transform="translate(-108.575 -93.84)" fill="#263238"/>
          <path id="Tracé_501" data-name="Tracé 501" d="M344.371,195.081c0,4.225-2.457,7.652-5.486,7.652s-5.486-3.427-5.486-7.652,2.457-7.641,5.486-7.641S344.371,190.867,344.371,195.081Z" transform="translate(-108.933 -93.056)" fill="#fff"/>
          <path id="Tracé_502" data-name="Tracé 502" d="M338.924,203.311c-3.319,0-6.025-3.675-6.025-8.191s2.705-8.18,6.025-8.18,6.024,3.675,6.024,8.18S342.244,203.311,338.924,203.311Zm0-15.293c-2.727,0-4.947,3.233-4.947,7.1s2.22,7.113,4.947,7.113,4.947-3.233,4.947-7.113S341.629,188.018,338.924,188.018Z" transform="translate(-108.971 -93.08)" fill="#263238"/>
          <path id="Tracé_503" data-name="Tracé 503" d="M340.384,193.96c0,2.684-1.563,4.861-3.492,4.861s-3.492-2.155-3.492-4.861,1.563-4.86,3.492-4.86S340.384,191.277,340.384,193.96Z" transform="translate(-108.933 -92.947)" fill="#fff"/>
          <path id="Tracé_504" data-name="Tracé 504" d="M336.931,199.4c-2.22,0-4.031-2.425-4.031-5.389s1.811-5.389,4.031-5.389,4.03,2.414,4.03,5.389S339.151,199.4,336.931,199.4Zm0-9.7c-1.628,0-2.953,1.94-2.953,4.311s1.326,4.311,2.953,4.311,2.953-1.94,2.953-4.311-1.326-4.332-2.953-4.332Z" transform="translate(-108.971 -92.971)" fill="#263238"/>
          <path id="Tracé_505" data-name="Tracé 505" d="M390.21,181.489l-8.169,8.083-4.58-8.352Z" transform="translate(-105.508 -93.059)" fill="#000032"/>
          <path id="Tracé_506" data-name="Tracé 506" d="M382.081,190.15h-.086a.539.539,0,0,1-.388-.269l-4.6-8.363a.54.54,0,0,1,0-.539.485.485,0,0,1,.474-.259l12.749.269a.517.517,0,0,1,.485.334.528.528,0,0,1-.119.582l-8.169,8.083A.57.57,0,0,1,382.081,190.15Zm-3.664-8.342,3.794,6.908,6.757-6.682Z" transform="translate(-105.549 -93.082)" fill="#263238"/>
          <path id="Tracé_507" data-name="Tracé 507" d="M361.807,188.344l3.233,28.376s-46.7,8.988-51.731,8.622a33.41,33.41,0,0,0-17.556,2.877c-7.188,3.233-10.777,5.033-10.421,6.822s3.589,7.544,3.589,7.544,6.111.366,6.466-.711a9.339,9.339,0,0,0,.366-2.522s6.466.366,9.333-1.078a21.664,21.664,0,0,0,5.033-3.589s37.72,2.877,52.086,3.233,30.9-.722,32.7-3.233-6.466-53.886-6.466-53.886Z" transform="translate(-112.67 -93.891)" fill="#ffead9"/>
          <path id="Tracé_508" data-name="Tracé 508" d="M291.237,243.239c-.787,0-1.584,0-2.349-.075a.517.517,0,0,1-.431-.27c-.14-.237-3.287-5.841-3.654-7.706-.431-2.155,2.77-3.837,10.723-7.425a33.679,33.679,0,0,1,17.858-2.921c4.645.3,46.1-7.544,51.105-8.514l-3.179-27.881a.539.539,0,0,1,.388-.582l26.587-7.544a.506.506,0,0,1,.431.065.517.517,0,0,1,.248.366c1.39,8.622,8.2,51.731,6.369,54.285-2.155,3.072-21.49,3.75-33.14,3.459-13.622-.345-48.616-2.974-51.881-3.233a21.974,21.974,0,0,1-4.979,3.524c-2.5,1.25-7.415,1.207-9.064,1.153a8.957,8.957,0,0,1-.366,2.155C295.6,242.98,293.511,243.239,291.237,243.239Zm-1.994-1.078c2.759.14,5.313-.054,5.658-.42a9.229,9.229,0,0,0,.312-2.3.529.529,0,0,1,.162-.388.614.614,0,0,1,.4-.151c.065,0,6.358.334,9.074-1.013a21.814,21.814,0,0,0,4.893-3.492.506.506,0,0,1,.42-.162c.377,0,37.871,2.878,52.065,3.233,16.015.4,30.78-.981,32.235-3.007,1.153-2.015-3.319-33.248-6.466-52.894l-25.564,7.253,3.233,27.935a.539.539,0,0,1-.442.582c-1.908.366-46.816,9.01-51.871,8.622a32.677,32.677,0,0,0-17.341,2.834c-6.1,2.737-10.4,4.8-10.109,6.218s2.349,5.313,3.341,7.091Z" transform="translate(-112.713 -93.914)" fill="#263238"/>
          <path id="Tracé_509" data-name="Tracé 509" d="M359.329,214.929a.517.517,0,0,1-.506-.356.539.539,0,0,1,.323-.69c.6-.216,14.786-5.227,22.977-2.048a.542.542,0,0,1-.388,1.013c-7.813-3.039-22.082,2-22.223,2.048Z" transform="translate(-106.959 -92.488)" fill="#263238"/>
          <path id="Tracé_510" data-name="Tracé 510" d="M311.29,222.17l.841,9.559,4.268.668-.905-10.788Z" transform="translate(-110.651 -92.43)" fill="#fff"/>
          <path id="Tracé_511" data-name="Tracé 511" d="M316.4,232.975h0l-4.311-.679a.528.528,0,0,1-.453-.485l-.841-9.549a.539.539,0,0,1,.463-.582l4.214-.561a.55.55,0,0,1,.41.108.583.583,0,0,1,.194.377l.905,10.777a.55.55,0,0,1-.172.442A.517.517,0,0,1,316.4,232.975Zm-3.772-1.67,3.233.5-.8-9.538-3.136.42Z" transform="translate(-110.689 -92.459)" fill="#263238"/>
          <path id="Tracé_512" data-name="Tracé 512" d="M317.134,221.546c.054.991-1.4,1.886-3.233,1.994s-3.416-.6-3.481-1.6,1.4-1.886,3.233-1.994S317.07,220.554,317.134,221.546Z" transform="translate(-110.719 -92.319)" fill="#fff"/>
          <path id="Tracé_513" data-name="Tracé 513" d="M313.51,224.132c-2,0-3.535-.873-3.61-2.155s1.541-2.436,3.772-2.565a5.658,5.658,0,0,1,2.662.431,2.058,2.058,0,0,1,1.379,1.671h0a2.08,2.08,0,0,1-1.164,1.821,5.83,5.83,0,0,1-2.6.744Zm.56-3.61h-.334c-1.617.1-2.791.83-2.759,1.423s1.282,1.175,2.91,1.078a4.505,4.505,0,0,0,2.091-.593c.431-.259.668-.571.658-.83h0c0-.269-.291-.55-.744-.754A4.508,4.508,0,0,0,314.071,220.521Z" transform="translate(-110.759 -92.35)" fill="#263238"/>
          <path id="Tracé_514" data-name="Tracé 514" d="M295.314,235.784a.366.366,0,0,1-.151,0l-3.815-1.078a.539.539,0,0,1-.366-.668.528.528,0,0,1,.668-.366l3.8,1.078a.543.543,0,1,1-.14,1.078Z" transform="translate(-112.231 -92.049)" fill="#263238"/>
          <path id="Tracé_515" data-name="Tracé 515" d="M353.853,174.226l1.8,20.477L392.3,183.57s-12.168-21.2-19.043-26.587-20.832-.722-22.632.722" transform="translate(-107.594 -93.83)" fill="#5da2f0"/>
          <path id="Tracé_516" data-name="Tracé 516" d="M355.692,195.282a.549.549,0,0,1-.539-.5l-1.789-20.477a.528.528,0,0,1,.485-.582.539.539,0,0,1,.582.5l1.735,19.808,35.36-10.777c-2.026-3.449-12.534-21.08-18.569-25.865-6.585-5.205-20.477-.507-21.953.722a.55.55,0,0,1-.765-.086.528.528,0,0,1,.086-.754c1.821-1.455,16.23-6.3,23.3-.722,6.833,5.389,18.677,25.865,19.173,26.738a.528.528,0,0,1-.313.776l-36.642,11.144Z" transform="translate(-107.633 -93.848)" fill="#263238"/>
          <path id="Tracé_517" data-name="Tracé 517" d="M289.367,110.862s-13.2,12.394-7.814,18.321,12.933,9.7,14.01,16.435,3.233,10.777.269,16.7-5.119,7.275-5.119,7.275,12.663,6.466,20.746,5.927,19.668-9.7,19.668-9.7,18.86-.269,27.213-7.544,8.083-19.668,4.58-28.29S347.294,111.164,341.41,104.7s-17.513-10.777-29.637-9.43S289.367,110.862,289.367,110.862Z" transform="translate(-113.063 -94.474)" fill="#000032"/>
          <path id="Tracé_518" data-name="Tracé 518" d="M310.5,176.136c-8.115,0-19.5-5.766-19.992-6.024a.517.517,0,0,1-.291-.453.549.549,0,0,1,.248-.485s2.091-1.4,4.925-7.059c2.155-4.386,1.5-7.6.528-12.049-.291-1.358-.593-2.759-.851-4.311-.7-4.386-4.386-7.544-8.277-10.917a62.092,62.092,0,0,1-5.593-5.238c-5.593-6.143,6.854-18.138,7.8-19.043.744-1.024,10.7-14.463,22.708-15.8,11.564-1.283,23.71,2.576,30.09,9.6,1.509,1.638,3.427,3.546,5.475,5.561,6.024,5.971,13.536,13.4,16.166,19.927,3.7,9.107,3.675,21.554-4.731,28.894-8.051,7.027-25.283,7.63-27.374,7.673-1.423,1.078-12.06,9.182-19.819,9.7C311.2,176.125,310.853,176.136,310.5,176.136Zm-18.774-6.628c2.8,1.347,12.933,5.971,19.733,5.518,7.824-.528,19.259-9.495,19.4-9.592a.55.55,0,0,1,.323-.108c.183,0,18.763-.356,26.868-7.415s7.986-18.925,4.429-27.687c-2.565-6.326-9.99-13.666-15.95-19.561-2.048-2.026-3.977-3.944-5.5-5.6-6.218-6.779-17.955-10.508-29.185-9.258-11.736,1.3-21.878,15.271-21.985,15.411l-.065.075c-.129.119-12.76,12.1-7.781,17.567a61.756,61.756,0,0,0,5.5,5.152c4.052,3.492,7.878,6.79,8.622,11.564.248,1.541.55,2.921.841,4.311.97,4.483,1.746,8.029-.625,12.76A24.885,24.885,0,0,1,291.723,169.508ZM289.406,110.9Z" transform="translate(-113.102 -94.514)" fill="#263238"/>
          <path id="Tracé_519" data-name="Tracé 519" d="M317.136,165.085s2.425,6.2,4.041,11.855,5.928,19.938,5.928,19.13,8.622-22.363,10.777-28.56a45.579,45.579,0,0,0,2.425-11.316l-7.275-16.974a41.027,41.027,0,0,1-9.7,13.471c-6.466,5.658-8.083,8.352-8.083,8.352Z" transform="translate(-110.343 -91.039)" fill="#ffead9"/>
          <path id="Tracé_520" data-name="Tracé 520" d="M327.008,196.692c-.463,0-.668-.679-2.877-7.9-1.229-4.02-2.662-8.816-3.47-11.672-1.552-5.389-3.891-11.435-4.02-11.79l-1.886-4.02a.529.529,0,0,1,0-.507c.065-.119,1.735-2.834,8.191-8.482a40.6,40.6,0,0,0,9.581-13.3.55.55,0,0,1,.5-.323h0a.528.528,0,0,1,.5.323L340.792,156a.617.617,0,0,1,0,.237,45.742,45.742,0,0,1-2.457,11.467c-1.013,2.91-3.427,9.128-5.755,15.142s-4.839,12.674-4.947,13.3a.528.528,0,0,1-.463.517Zm-11.144-35.565,1.757,3.761h0c0,.065,2.457,6.294,4.063,11.909,1.39,4.871,4.192,14.172,5.389,17.664.647-1.821,2.026-5.389,4.58-12.017,2.328-6,4.731-12.211,5.733-15.088a45.535,45.535,0,0,0,2.425-11.036l-6.747-15.735a41.159,41.159,0,0,1-9.419,12.545A51.183,51.183,0,0,0,315.865,161.127Z" transform="translate(-110.387 -91.08)" fill="#263238"/>
          <path id="Tracé_521" data-name="Tracé 521" d="M318.12,167.187s11.133-3.136,16-7.307,5.216-5.227,5.216-5.227l-5.917-11.133Z" transform="translate(-110.12 -90.705)" fill="#000032"/>
          <path id="Tracé_522" data-name="Tracé 522" d="M318.158,167.785a.528.528,0,0,1-.431-.226.517.517,0,0,1,0-.614l15.3-23.656a.517.517,0,0,1,.474-.248.529.529,0,0,1,.453.291l5.917,11.133a.517.517,0,0,1,0,.42c-.075.2-.636,1.39-5.389,5.464s-15.745,7.285-16.166,7.415Zm15.261-23.139L319.409,166.3c3.125-.981,10.691-3.589,14.4-6.768a31.843,31.843,0,0,0,4.957-4.828Z" transform="translate(-110.159 -90.742)" fill="#263238"/>
          <path id="Tracé_523" data-name="Tracé 523" d="M290.21,130.206s4.85,12.124,5.658,15.627,3.772,10.238,8.352,14.28,7.544,9.43,14.819,8.352,16.166-14.01,17.782-18.052-2.155-15.088-2.155-16.435a2.156,2.156,0,0,0-1.347-1.886s-12.933,5.119-21.824,1.347a83.051,83.051,0,0,1-16.7-9.969Z" transform="translate(-112.289 -92.263)" fill="#ffead9"/>
          <path id="Tracé_524" data-name="Tracé 524" d="M317.224,169.183c-4.763,0-7.544-2.888-10.551-5.927-.884-.905-1.8-1.843-2.77-2.705-4.764-4.192-7.706-11-8.525-14.56s-5.583-15.433-5.636-15.551a.561.561,0,0,1,.054-.507l4.58-6.736a.549.549,0,0,1,.366-.226.593.593,0,0,1,.42.108,83.055,83.055,0,0,0,16.575,9.9c8.622,3.643,21.285-1.3,21.414-1.358a.518.518,0,0,1,.4,0,2.727,2.727,0,0,1,1.692,2.393,23.632,23.632,0,0,0,.6,2.662c1.078,4.052,2.759,10.831,1.509,14.01-1.714,4.311-10.637,17.244-18.2,18.386a13.739,13.739,0,0,1-1.929.108ZM290.853,130.31c.733,1.843,4.828,12.178,5.572,15.433s3.653,10,8.191,14.01c1,.884,1.929,1.843,2.834,2.759,3.233,3.362,6.111,6.272,11.542,5.464,7.048-1.078,15.756-13.709,17.362-17.718,1.078-2.813-.614-9.635-1.552-13.3a18.088,18.088,0,0,1-.636-2.931,1.552,1.552,0,0,0-.84-1.3c-1.832.69-13.558,4.839-22.007,1.261a84.322,84.322,0,0,1-16.371-9.7Z" transform="translate(-112.329 -92.302)" fill="#263238"/>
          <path id="Tracé_525" data-name="Tracé 525" d="M324.46,136.309s3.5-9.161,8.622-8.083,4.58,9.969,1.886,13.2-4.85,1.617-4.85,1.617" transform="translate(-109.627 -91.9)" fill="#ffead9"/>
          <path id="Tracé_526" data-name="Tracé 526" d="M331.551,144.011a3.147,3.147,0,0,1-1.746-.5.539.539,0,0,1-.108-.754.528.528,0,0,1,.754-.108c.065,0,1.8,1.239,4.106-1.53,1.563-1.875,2.5-6.294,1.412-9.409a4.009,4.009,0,0,0-3-2.921c-4.634-.981-7.975,7.652-8.007,7.738a.539.539,0,1,1-1-.377c.151-.4,3.74-9.581,9.236-8.417a5.108,5.108,0,0,1,3.794,3.621c1.132,3.233.4,8.051-1.606,10.454A5.087,5.087,0,0,1,331.551,144.011Z" transform="translate(-109.67 -91.939)" fill="#263238"/>
          <path id="Tracé_527" data-name="Tracé 527" d="M307.857,152.182a6.112,6.112,0,0,1-2.468-.485c-2.156-.959-1.843-3.815-1.574-6.337a19.779,19.779,0,0,0,.183-2.231,26.868,26.868,0,0,0-.528-5.011.551.551,0,0,1,1.078-.226,26.531,26.531,0,0,1,.56,5.238c0,.711-.1,1.509-.183,2.349-.248,2.263-.506,4.591.938,5.238,2.156.959,5.389,0,6.057-1.078a.528.528,0,0,1,.733-.183.517.517,0,0,1,.183.733C312.114,151.3,309.969,152.182,307.857,152.182Z" transform="translate(-111.26 -91.176)" fill="#263238"/>
          <path id="Tracé_528" data-name="Tracé 528" d="M309.651,155.145a7.264,7.264,0,0,1-1.52-.129.551.551,0,1,1,.226-1.078c.28.054,6.919,1.4,10.723-6.466a.528.528,0,0,1,.711-.248.539.539,0,0,1,.259.711C317,154.283,312.119,155.145,309.651,155.145Z" transform="translate(-110.93 -90.421)" fill="#263238"/>
          <path id="Tracé_529" data-name="Tracé 529" d="M313.512,140.861a6.843,6.843,0,0,1-2.479-.442.536.536,0,1,1,.431-.981,5.8,5.8,0,0,0,6.9-2.253.528.528,0,0,1,.755-.108.539.539,0,0,1,.108.754,6.951,6.951,0,0,1-5.712,3.028Z" transform="translate(-110.696 -91.214)" fill="#263238"/>
          <path id="Tracé_530" data-name="Tracé 530" d="M300.282,142.635a7.155,7.155,0,0,1-2.759-.582.55.55,0,0,1-.269-.711.56.56,0,0,1,.722-.269c.118.065,3.168,1.412,5.022-.679a.542.542,0,1,1,.808.722A4.548,4.548,0,0,1,300.282,142.635Z" transform="translate(-111.745 -90.962)" fill="#263238"/>
          <path id="Tracé_531" data-name="Tracé 531" d="M296.749,137.9a.544.544,0,0,1-.388-.927c3.233-3.233,7.124-.625,7.156-.6a.55.55,0,0,1,.14.754.539.539,0,0,1-.754.14,4.559,4.559,0,0,0-5.777.474A.539.539,0,0,1,296.749,137.9Z" transform="translate(-111.823 -91.339)" fill="#263238"/>
          <path id="Tracé_532" data-name="Tracé 532" d="M307.249,134.948a.517.517,0,0,1-.28-.075.528.528,0,0,1-.183-.733c.065-.129,1.843-2.985,7.253-2.414a.539.539,0,0,1,.474.593.528.528,0,0,1-.593.474c-4.656-.485-6.154,1.811-6.218,1.908A.528.528,0,0,1,307.249,134.948Z" transform="translate(-111.007 -91.627)" fill="#263238"/>
          <path id="Tracé_533" data-name="Tracé 533" d="M260.29,199.58s9.7,2.156,12.933,14.733,19.011,63.316,19.011,63.316,16.694,9.538,21.727,10.26,9.333,1.078,9.7,6.466-1.078,14.01-3.955,15.444-13.655,1.444-21.554,1.078-12.933-2.155-17.244-5.022-8.977-31.254-14.01-44.909-15.228-41.934-14.15-49.112S256.7,199.58,260.29,199.58Z" transform="translate(-115.207 -95.018)" fill="#5da2f0"/>
          <path id="Tracé_534" data-name="Tracé 534" d="M306.67,311.615c-3.815,0-7.242-.14-8.5-.194-7.307-.334-12.706-1.908-17.524-5.119-2.748-1.832-5.389-12.221-8.341-24.238-1.9-7.609-3.869-15.465-5.874-20.929-10.325-28.021-14.959-44.186-14.172-49.381,1.175-7.813,4.311-12.674,8.072-12.674h.119c.108,0,10.066,2.382,13.342,15.088,3.082,12.017,17.836,59.533,18.936,63.057,1.832,1.078,16.748,9.43,21.35,10.087l.657.1c4.7.658,9.128,1.283,9.495,6.876s-1.078,14.366-4.246,15.961C317.835,311.357,311.9,311.615,306.67,311.615Zm-46.4-111.458c-3.168.065-5.884,4.667-6.951,11.758-.744,4.968,4.009,21.4,14.118,48.853,2.026,5.507,4,13.4,5.906,21.037,2.694,10.777,5.486,22,7.9,23.6,4.7,3.136,9.775,4.613,16.963,4.936,8.137.377,18.6.323,21.285-1.024,2.425-1.207,4.041-9.215,3.664-14.926-.313-4.71-3.783-5.195-8.622-5.874l-.668-.1c-5.065-.722-21.231-9.926-21.91-10.325a.528.528,0,0,1-.248-.3c-.162-.507-15.81-50.868-19.011-63.316C269.758,202.884,261.04,200.362,260.274,200.158Z" transform="translate(-115.246 -95.047)" fill="#263238"/>
          <path id="Tracé_535" data-name="Tracé 535" d="M297.06,309.041l-6.93-.517a20.121,20.121,0,0,0-21.641,20.337l1.293,139.963a4.052,4.052,0,0,0,4.052,4.02h63.391L353.5,308.5Z" transform="translate(-113.977 -100.193)" fill="#333"/>
          <path id="Tracé_536" data-name="Tracé 536" d="M337.244,473.4H273.852a4.6,4.6,0,0,1-4.591-4.548L268,328.879A20.671,20.671,0,0,1,290.18,308l6.919.517L353.528,308a.528.528,0,0,1,.4.173.507.507,0,0,1,.14.42l-16.3,164.3A.539.539,0,0,1,337.244,473.4ZM288.638,309.017a19.614,19.614,0,0,0-19.561,19.851l1.293,139.974a3.524,3.524,0,0,0,3.513,3.481h62.9l16.166-163.242L297.1,309.6h0l-6.94-.517C289.619,309.082,289.123,309.017,288.638,309.017Z" transform="translate(-114.016 -100.234)" fill="#263238"/>
          <path id="Tracé_537" data-name="Tracé 537" d="M332.636,472.854a4.052,4.052,0,0,1-4.052-4.02L327.29,328.871a20.121,20.121,0,0,1,21.641-20.336l6.93.517a20.143,20.143,0,0,1,18.451,22.729L356.076,469.3a4.041,4.041,0,0,1-4.009,3.524Z" transform="translate(-109.408 -100.193)" fill="#666"/>
          <path id="Tracé_538" data-name="Tracé 538" d="M352.053,473.4h-19.4a4.6,4.6,0,0,1-4.591-4.548L326.77,328.88A20.67,20.67,0,0,1,349,308l6.941.517a20.671,20.671,0,0,1,18.936,23.333l-18.321,137.56A4.6,4.6,0,0,1,352.053,473.4Zm-4.559-164.32A19.572,19.572,0,0,0,327.9,328.923l1.272,139.92a3.524,3.524,0,0,0,3.513,3.481h19.4a3.524,3.524,0,0,0,3.481-3.05l18.321-137.56A19.582,19.582,0,0,0,355.944,309.6L349,309.082Z" transform="translate(-109.448 -100.234)" fill="#263238"/>
          <path id="Tracé_539" data-name="Tracé 539" d="M196.12,338H317.9a12.933,12.933,0,0,1,12.933,12.933V470.559H196.12Z" transform="translate(-119.602 -97.898)" fill="#666"/>
          <path id="Tracé_540" data-name="Tracé 540" d="M330.874,471.1H196.159a.55.55,0,0,1-.539-.539V338.039a.539.539,0,0,1,.539-.539H317.941a13.471,13.471,0,0,1,13.471,13.471V470.6A.539.539,0,0,1,330.874,471.1ZM196.7,470.027H330.335V350.971a12.4,12.4,0,0,0-12.394-12.394H196.7Z" transform="translate(-119.641 -97.937)" fill="#263238"/>
          <path id="Tracé_541" data-name="Tracé 541" d="M330.83,381.078H203.659a.55.55,0,0,1-.539-.539.539.539,0,0,1,.539-.539H330.83a.539.539,0,1,1,0,1.078Z" transform="translate(-119.058 -89.41)" fill="#263238"/>
          <path id="Tracé_542" data-name="Tracé 542" d="M276.526,290.266l5.744,6.111a109.788,109.788,0,0,1,35.974,7.9c17.955,7.544,40.953,16.532,42.387,26.943s-17.6,68.974-20.832,83.351-3.6,19.4-3.6,19.4,3.233,2.867,2.522,5.389-4.677,14.722-4.677,14.722A106.367,106.367,0,0,1,316.8,456.6a88.939,88.939,0,0,1-17.6-1.444s-1.078-12.21,0-15.088,5.033-6.1,5.389-8.255,1.8-36.287,1.8-49.575,7.544-34.487,7.544-34.487-35.565-1.444-45.986-2.522-35.565-25.143-36.287-37S259.283,283.444,276.526,290.266Z" transform="translate(-116.841 -101.755)" fill="#000032"/>
          <path id="Tracé_543" data-name="Tracé 543" d="M314.559,457.209a94.051,94.051,0,0,1-15.465-1.5.539.539,0,0,1-.431-.474c0-.507-1.078-12.372,0-15.325a17.729,17.729,0,0,1,2.964-4.44c1.078-1.358,2.242-2.759,2.4-3.729.334-2,1.789-36.157,1.789-49.478,0-11.855,6.046-30.176,7.329-33.98-5.119-.215-35.8-1.509-45.264-2.49-10.777-1.078-36.028-25.229-36.772-37.5-.237-3.9,2.49-8.126,7.663-11.855,9.506-6.887,26.307-11.241,37.979-6.617a.614.614,0,0,1,.194.129l5.6,5.949a111.554,111.554,0,0,1,35.888,7.932l3.233,1.369c17.836,7.458,38.054,15.9,39.445,25.995,1,7.264-7.447,36.395-14.237,59.792-3,10.324-5.593,19.248-6.606,23.71a176.978,176.978,0,0,0-3.556,19.065c.744.711,3.168,3.309,2.479,5.744s-4.634,14.625-4.677,14.754a.56.56,0,0,1-.388.356,108.343,108.343,0,0,1-17.351,2.533C316.132,457.209,315.324,457.209,314.559,457.209ZM299.7,454.731a87.59,87.59,0,0,0,17.082,1.4,106.144,106.144,0,0,0,16.845-2.436c.6-1.864,3.934-12.157,4.58-14.42.507-1.8-1.53-4.106-2.36-4.839a.539.539,0,0,1-.183-.442c0-.2.4-5.238,3.61-19.475,1.013-4.537,3.61-13.472,6.617-23.818,6.4-22.072,15.174-52.312,14.2-59.339-1.3-9.484-22.093-18.17-38.8-25.154l-3.233-1.369a110,110,0,0,0-35.726-7.857.516.516,0,0,1-.377-.172l-5.7-6.046c-11.327-4.419-27.6-.162-36.836,6.531-4.871,3.524-7.436,7.415-7.221,10.939.711,11.693,25.7,35.457,35.8,36.5,10.281,1.078,45.6,2.49,45.954,2.511a.507.507,0,0,1,.42.237.528.528,0,0,1,.065.474c-.075.216-7.544,21.264-7.544,34.315,0,13.547-1.444,47.42-1.81,49.661-.2,1.239-1.38,2.694-2.63,4.225a16.985,16.985,0,0,0-2.781,4.138c-.787,2.177-.28,10.8.022,14.441Z" transform="translate(-116.884 -101.792)" fill="#263238"/>
          <path id="Tracé_544" data-name="Tracé 544" d="M329.8,438.418s-3.233-6.1-7.188-3.233-4.667,6.833-6.822,6.833-21.2-3.6-21.2-3.6-5.033,19.765-3.233,21.921,18.321,3.944,25.51,5.022,22.988,5.033,33.409,5.033,8.622-7.544,6.1-10.055-20.477-12.221-22.988-15.454a24.355,24.355,0,0,1-3.589-6.466Z" transform="translate(-112.23 -90.404)" fill="#fff"/>
          <path id="Tracé_545" data-name="Tracé 545" d="M350.314,470.972c-7.469,0-17.448-1.972-25.467-3.557-3.233-.625-5.96-1.175-8.029-1.477-1.347-.2-3.039-.431-4.893-.69-10.583-1.433-19.474-2.77-20.94-4.526-1.886-2.252,2.263-19.054,3.115-22.4a.539.539,0,0,1,.625-.4c6.574,1.239,19.4,3.589,21.1,3.589.787,0,1.379-.808,2.371-2.22a17.493,17.493,0,0,1,4.138-4.5,3.966,3.966,0,0,1,3.341-.776c2.727.636,4.559,4.042,4.634,4.192v.075a24.377,24.377,0,0,0,3.5,6.316c1.379,1.757,7.792,5.68,13.45,9.139,4.494,2.748,8.374,5.119,9.506,6.251a7.146,7.146,0,0,1,1.692,7.21C357.739,468.924,355.7,470.972,350.314,470.972Zm-55.287-31.89c-2.037,8.083-4.311,19.636-3.233,20.951,1.326,1.584,13.181,3.233,20.272,4.149,1.854.259,3.546.485,4.9.69,2.091.313,4.86.862,8.072,1.487,7.975,1.573,17.9,3.535,25.262,3.535,3.858,0,6.348-1.078,7.188-3.1a6.089,6.089,0,0,0-1.466-6.035c-1.078-1.078-5.055-3.492-9.3-6.089-6.024-3.686-12.243-7.49-13.741-9.408a24.628,24.628,0,0,1-3.654-6.585c-.194-.334-1.8-3.115-3.912-3.6a2.932,2.932,0,0,0-2.468.593,16.662,16.662,0,0,0-3.88,4.257c-1.078,1.487-1.875,2.673-3.233,2.673-2.069.032-17.772-2.931-20.854-3.513Z" transform="translate(-112.267 -90.443)" fill="#263238"/>
          <path id="Tracé_546" data-name="Tracé 546" d="M358.234,464.251a63.307,63.307,0,0,1-13.03,1.369c-9.344,0-16.888-3.589-28.743-5.744-9.322-1.7-20.876-4.5-25.37-5.626-.248,2.252-.237,3.987.226,4.548,1.8,2.155,18.321,3.945,25.51,5.022s22.988,5.033,33.409,5.033C355.841,468.853,357.91,466.665,358.234,464.251Z" transform="translate(-112.233 -88.863)" fill="#fff"/>
          <path id="Tracé_547" data-name="Tracé 547" d="M350.315,469.431c-7.469,0-17.448-1.972-25.466-3.556-3.233-.625-5.96-1.175-8.029-1.476-1.347-.2-3.039-.431-4.893-.69-10.583-1.433-19.474-2.77-20.94-4.526-.366-.442-.733-1.4-.356-4.947a.538.538,0,0,1,.226-.388.582.582,0,0,1,.442-.086c4.526,1.132,16.058,3.934,25.337,5.615,4.623.841,8.686,1.929,12.264,2.878,5.766,1.541,10.777,2.867,16.381,2.867a62.841,62.841,0,0,0,12.933-1.358.549.549,0,0,1,.474.129.539.539,0,0,1,.173.463C358.549,466.252,357.105,469.431,350.315,469.431Zm-58.671-14.474c-.248,2.781.054,3.406.162,3.535,1.326,1.584,13.18,3.233,20.272,4.149,1.854.259,3.546.485,4.9.69,2.091.312,4.861.862,8.072,1.487,7.975,1.573,17.9,3.535,25.262,3.535,4.074,0,6.563-1.164,7.285-3.373a63.4,63.4,0,0,1-12.318,1.218c-5.787,0-10.777-1.347-16.662-2.9-3.729-.991-7.544-2.026-12.178-2.856-8.967-1.627-19.949-4.268-24.841-5.486Z" transform="translate(-112.269 -88.902)" fill="#263238"/>
          <path id="Tracé_548" data-name="Tracé 548" d="M207.133,197.138s-21.554,8.266-29.454,13.655-2.878,25.865-2.878,37.354-2.155,42.4-2.511,48.5,7.544,14.377,12.933,17.61,51.375,5.022,63.585,5.022,38.442-7.9,36.287-31.254-9.7-41.309-10.777-45.264-1.444-16.877-1.078-20.477,3.233-14.366-2.155-19.4-28.021-10.777-38.442-10.411S207.133,197.138,207.133,197.138Z" transform="translate(-121.455 -95.433)" fill="#5da2f0"/>
          <path id="Tracé_549" data-name="Tracé 549" d="M248.848,319.851c-10.572,0-58.2-1.7-63.866-5.108s-13.569-11.736-13.191-18.095c.065-1.078.183-2.975.345-5.389.7-10.917,2.155-33.636,2.155-43.055,0-3.028-.356-6.693-.722-10.583-1.078-10.777-2.231-23.085,3.837-27.223,7.867-5.389,28.678-13.364,29.562-13.709h.054c.151,0,15.271-4.311,25.628-4.688s33.248,5.389,38.8,10.562c4.753,4.429,3.373,13.062,2.63,17.7-.14.862-.259,1.6-.313,2.155-.345,3.481,0,16.425,1.078,20.283.194.7.593,1.854,1.142,3.449a174.276,174.276,0,0,1,9.646,41.912,24.27,24.27,0,0,1-6.3,19.4C271.027,316.532,256.543,319.851,248.848,319.851Zm-41.5-122.17c-.8.313-21.673,8.374-29.325,13.59-5.539,3.772-4.386,15.7-3.373,26.232.377,3.9.733,7.6.733,10.68,0,9.462-1.466,32.2-2.155,43.109-.162,2.425-.28,4.311-.345,5.389-.334,5.69,7.156,13.806,12.674,17.114,5.011,3.007,49.155,4.947,63.305,4.947,7.544,0,21.554-3.233,29.713-12.1a23.311,23.311,0,0,0,6.035-18.558,173.071,173.071,0,0,0-9.592-41.654c-.56-1.617-.97-2.781-1.175-3.524-1.078-4.041-1.455-17.028-1.078-20.671.054-.571.172-1.326.313-2.155.711-4.44,2.037-12.706-2.3-16.748-5.442-5.076-28.021-10.6-38.054-10.271S208.013,197.5,207.345,197.681Z" transform="translate(-121.494 -95.461)" fill="#263238"/>
          <path id="Tracé_550" data-name="Tracé 550" d="M207.464,220.573a14.358,14.358,0,0,0,2.252,4.074,127.936,127.936,0,0,0,9.7,10.777c7.835,7.846,20.164,13.073,20.164,13.073s4.106-21.651,4.85-31.362-4.483-17.545-13.073-20.477-24.259.366-26.5,6.348C203.218,207.457,206,216.445,207.464,220.573Z" transform="translate(-118.962 -93.603)" fill="#fff"/>
          <path id="Tracé_551" data-name="Tracé 551" d="M239.673,249.062a.485.485,0,0,1-.215,0c-.129,0-12.512-5.389-20.326-13.181a128.045,128.045,0,0,1-9.8-10.777A14.78,14.78,0,0,1,207,220.879h0c-1.692-4.764-4.311-13.439-2.554-18.009,2.425-6.466,18.763-9.6,27.191-6.671,8.9,3.1,14.172,11.381,13.428,21.091s-4.828,31.2-4.861,31.415a.56.56,0,0,1-.28.377A.5.5,0,0,1,239.673,249.062Zm-31.663-28.635a13.5,13.5,0,0,0,2.155,3.923,125.34,125.34,0,0,0,9.7,10.723c6.682,6.682,16.8,11.51,19.4,12.685.69-3.729,4.063-22.029,4.72-30.64.722-9.344-4.149-17.006-12.706-19.981s-23.775.571-25.865,6.025c-1.66,4.408,1.239,13.547,2.554,17.243Z" transform="translate(-119 -93.628)" fill="#263238"/>
          <path id="Tracé_552" data-name="Tracé 552" d="M208.98,190.828a5.39,5.39,0,0,0-2.155.56,7.188,7.188,0,0,0-3.492,3.912c-1.875,4.483-3.362,9.344-3.362,9.344a112.166,112.166,0,0,0,4.483,16.424,86.755,86.755,0,0,1,4.171,15.681s13.439-10.087,16.047-12.318a49.919,49.919,0,0,1,7.846-4.86s8.956,4.483,13.062,7.091,7.469,4.861,7.469,4.861a78.672,78.672,0,0,0-4.483-21.651c-4.106-11.208-5.971-14.571-8.212-16.8S220.932,184.48,208.98,190.828Z" transform="translate(-119.303 -93.593)" fill="#fff"/>
          <path id="Tracé_553" data-name="Tracé 553" d="M208.659,237.326a.7.7,0,0,1-.216,0,.539.539,0,0,1-.323-.431,87.13,87.13,0,0,0-4.085-15.573,114,114,0,0,1-4.494-16.511.475.475,0,0,1,0-.248c0-.054,1.52-4.936,3.373-9.387a7.76,7.76,0,0,1,3.772-4.192,6.119,6.119,0,0,1,2.155-.614c12.081-6.326,29.282-.216,31.89,2.393,2.155,2.209,4.1,5.442,8.331,17a79.526,79.526,0,0,1,4.516,21.824.517.517,0,0,1-.28.485.507.507,0,0,1-.56,0s-3.395-2.263-7.458-4.839c-3.653-2.339-11.316-6.218-12.771-6.951a47.1,47.1,0,0,0-7.49,4.667c-2.6,2.22-15.53,11.92-16.08,12.34a.614.614,0,0,1-.28.043Zm-8.04-32.612a114.846,114.846,0,0,0,4.44,16.166,94.639,94.639,0,0,1,3.988,14.894c2.824-2.155,13.084-9.861,15.314-11.758a49.9,49.9,0,0,1,7.943-4.936.55.55,0,0,1,.485,0c.086.054,9.031,4.527,13.116,7.124,2.813,1.789,5.3,3.427,6.574,4.311a79.755,79.755,0,0,0-4.386-20.423c-4.16-11.37-5.992-14.517-8.083-16.608-1.9-1.886-18.8-8.492-30.726-2.155a.517.517,0,0,1-.259.065,4.976,4.976,0,0,0-1.864.507,6.671,6.671,0,0,0-3.233,3.643c-1.681,4.02-3.071,8.385-3.319,9.171Z" transform="translate(-119.337 -93.617)" fill="#263238"/>
          <path id="Tracé_554" data-name="Tracé 554" d="M237.167,141.126s2.651-3.395,4.182-.711a21.661,21.661,0,0,0,3.061,4.2s3.05,1.53,3.438,4.2a30.032,30.032,0,0,1,.377,4.968c0,1.142,3.438,1.908,3.438,3.826s-1.908,2.673-2.285,4.58,1.261,3.6-.388,6.111.151,1.6-1.649,2.522-3.7,2.069-3.7,2.069l-8.794-29.1Z" transform="translate(-116.592 -91.026)" fill="#c7c7c7"/>
          <path id="Tracé_555" data-name="Tracé 555" d="M243.673,173.5a.561.561,0,0,1-.194,0,.539.539,0,0,1-.323-.345l-8.794-29.1a.539.539,0,0,1,.108-.507l2.306-2.705c.194-.248,1.67-2.058,3.233-1.94a2.242,2.242,0,0,1,1.8,1.293,21.726,21.726,0,0,0,2.921,4.031c.528.291,3.233,1.875,3.643,4.57a30.305,30.305,0,0,1,.388,5.044c0,.2.722.679,1.153.959,1.024.668,2.285,1.5,2.285,2.867a4.311,4.311,0,0,1-1.229,2.77,4.451,4.451,0,0,0-1.078,1.918,4.613,4.613,0,0,0,.14,1.9,5.152,5.152,0,0,1-.6,4.408c-.722,1.078-.69,1.4-.679,1.509,0,.56-.216.69-1.175,1.186-1.757.905-3.653,2.048-3.675,2.058A.485.485,0,0,1,243.673,173.5Zm-8.191-29.465,8.5,28.118c.711-.42,1.961-1.132,3.136-1.746l.582-.3a3.956,3.956,0,0,1,.862-2.026,4.16,4.16,0,0,0,.453-3.6,5.583,5.583,0,0,1-.14-2.328,5.389,5.389,0,0,1,1.272-2.371,3.374,3.374,0,0,0,1-2.1c0-.787-.948-1.412-1.8-1.961s-1.638-1.078-1.638-1.864a29,29,0,0,0-.377-4.893c-.334-2.36-3.115-3.783-3.147-3.8a.409.409,0,0,1-.14-.1,21.914,21.914,0,0,1-3.147-4.311,1.228,1.228,0,0,0-.938-.744c-.895-.086-2.015,1.078-2.349,1.53h0Zm1.724-2.867Z" transform="translate(-116.632 -91.064)" fill="#263238"/>
          <path id="Tracé_556" data-name="Tracé 556" d="M211.513,128.84s-10.174,2.974-14.42,11.456-4.667,14.851-2.543,22.061,10.174,27.568,12.728,33.506,3.395,16.974,8.482,23.71S233.154,232.3,233.154,232.3s9.322-12.728,11.025-19.086-1.7-19.086-1.7-19.086,9.333-11.456,8.061-22.481-8.061-25.413-10.141-29.637S230.6,124.6,211.513,128.84Z" transform="translate(-119.821 -91.91)" fill="#eeae8c"/>
          <path id="Tracé_557" data-name="Tracé 557" d="M233.191,232.923a.583.583,0,0,1-.237,0c-.507-.248-12.48-6.068-17.588-12.933-3.33-4.44-4.861-10.583-6.218-16.015a55.149,55.149,0,0,0-2.328-7.846c-2.36-5.507-10.572-26.178-12.728-33.6-2.274-7.738-1.53-14.237,2.576-22.449,4.311-8.622,14.334-11.607,14.754-11.736h0c17.8-3.945,26.092,6.725,29.443,13.439,1.476,2.953,8.891,18.235,10.238,29.874,1.207,10.421-6.693,20.983-8.007,22.632.5,1.918,3.233,13.116,1.627,19.108-1.7,6.391-10.777,18.742-11.111,19.27A.55.55,0,0,1,233.191,232.923Zm-21.5-103.461c-.442.129-10.066,3.147-14.075,11.165s-4.7,14.226-2.511,21.673c2.058,7.005,9.98,27.083,12.706,33.409a56.451,56.451,0,0,1,2.382,8.018c1.326,5.324,2.834,11.37,6.035,15.627,4.44,5.927,14.635,11.273,16.791,12.361,1.53-2.155,9.182-12.933,10.68-18.537,1.638-6.154-1.67-18.688-1.7-18.806a.56.56,0,0,1,.108-.485c.086-.108,9.171-11.4,7.943-22.082-1.326-11.445-8.622-26.587-10.131-29.508-3.212-6.456-11.154-16.672-28.226-12.89Z" transform="translate(-119.858 -91.951)" fill="#263238"/>
          <path id="Tracé_558" data-name="Tracé 558" d="M217.037,145.331a.539.539,0,0,1-.237-1.013c.313-.162,7.695-3.8,12.685-2.662a.542.542,0,0,1-.248,1.056c-4.613-1.078-11.855,2.533-11.952,2.565A.5.5,0,0,1,217.037,145.331Z" transform="translate(-118.017 -90.867)" fill="#263238"/>
          <path id="Tracé_559" data-name="Tracé 559" d="M214.259,143.99a.539.539,0,0,1-.237-1.024c.28-.14,6.887-3.416,11.855-3.416a.539.539,0,1,1,0,1.078c-4.667,0-11.262,3.233-11.327,3.309A.69.69,0,0,1,214.259,143.99Z" transform="translate(-118.234 -91.013)" fill="#263238"/>
          <path id="Tracé_560" data-name="Tracé 560" d="M241.012,189.655s-5.723,3.567-10.95,3.567-14.937-4.106-17.922-7.1c0,0,8.848,10.131,18.246,12.663s11.93-1.444,11.93-1.444Z" transform="translate(-118.357 -93.051)" fill="#000032"/>
          <path id="Tracé_561" data-name="Tracé 561" d="M236.105,200.212a22.912,22.912,0,0,1-5.82-.862c-9.452-2.554-18.138-12.415-18.5-12.836a.528.528,0,0,1,0-.744.55.55,0,0,1,.754,0c2.856,2.867,12.415,6.941,17.534,6.941s10.616-3.449,10.669-3.492a.528.528,0,0,1,.506,0,.56.56,0,0,1,.312.4l1.3,7.695a.582.582,0,0,1-.075.377C242.733,197.8,241.127,200.212,236.105,200.212Zm-19.658-10.562c3.427,3.115,8.708,7.2,14.118,8.622,7.781,2.091,10.637-.42,11.219-1.078l-1.132-6.682c-1.692.959-6.24,3.233-10.551,3.233C226.384,193.8,220.651,191.849,216.448,189.651Z" transform="translate(-118.397 -93.075)" fill="#263238"/>
          <path id="Tracé_562" data-name="Tracé 562" d="M197.676,170.628a8.242,8.242,0,0,0,.83-.56c1.3-.959,3.653-3.05,3.373-5.55-.377-3.438,0-5.389-1.908-8.029S195,148.083,195,148.083a10.777,10.777,0,0,0-6.466,1.53c-2.673,1.908-1.918,3.438-2.673,6.111s-2.684.765-3.826,4.591.377,6.111,1.908,6.876.388,3.061.388,6.466a5.259,5.259,0,0,0,4.58,4.968c1.153,0,1.53,1.53,3.061,3.061s6.466-.183,6.466-.183,2.317-1.347,2.694-2.878S197.676,170.628,197.676,170.628Z" transform="translate(-120.727 -90.353)" fill="#c7c7c7"/>
          <path id="Tracé_563" data-name="Tracé 563" d="M194.171,182.966a3.556,3.556,0,0,1-2.565-.787,12.526,12.526,0,0,1-1.423-1.735c-.539-.765-.851-1.164-1.261-1.164a5.733,5.733,0,0,1-5.119-5.507,24.166,24.166,0,0,1,.248-3.233c.237-1.811.269-2.522-.334-2.824-1.929-.959-3.341-3.664-2.155-7.544.69-2.306,1.714-2.77,2.533-3.136a1.864,1.864,0,0,0,1.282-1.444,13.042,13.042,0,0,0,.388-1.983,5.389,5.389,0,0,1,2.5-4.419,11.208,11.208,0,0,1,6.865-1.627.571.571,0,0,1,.42.28,95.576,95.576,0,0,0,4.925,8.352c1.573,2.155,1.681,3.944,1.832,6.165,0,.647.1,1.336.183,2.155.3,2.748-2.155,4.968-3.589,6.046-.162.119-.3.226-.431.3,1,1.735,3.61,6.466,3.233,7.986-.431,1.7-2.694,3.072-2.942,3.233A15.258,15.258,0,0,1,194.171,182.966Zm.065-34.293a9.7,9.7,0,0,0-5.389,1.455,4.376,4.376,0,0,0-2.058,3.7,15.508,15.508,0,0,1-.409,2.155,2.9,2.9,0,0,1-1.886,2.155c-.711.323-1.39.625-1.94,2.468-1.078,3.729.5,5.68,1.638,6.24,1.347.679,1.153,2.155.927,3.934a22.527,22.527,0,0,0-.248,3.05,4.731,4.731,0,0,0,4.041,4.429c.992,0,1.52.744,2.155,1.617a11.855,11.855,0,0,0,1.293,1.6c.938.938,4.138.313,5.927-.3.5-.3,2.08-1.433,2.349-2.5.194-.819-1.606-4.591-3.384-7.62a.507.507,0,0,1-.054-.409.518.518,0,0,1,.248-.334s.323-.194.787-.528c1.282-.948,3.395-2.856,3.147-5.065-.086-.787-.129-1.5-.172-2.155-.151-2.155-.248-3.675-1.638-5.615-1.692-2.371-4.236-7.027-4.861-8.2Z" transform="translate(-120.767 -90.394)" fill="#263238"/>
          <path id="Tracé_564" data-name="Tracé 564" d="M200.266,168.838s-5.1-6.79-8.492-2.974,2.543,13.148,5.938,14.42,7.641-2.155,7.641-2.155" transform="translate(-120.019 -93.419)" fill="#eeae8c"/>
          <path id="Tracé_565" data-name="Tracé 565" d="M199.409,181.153a5.2,5.2,0,0,1-1.843-.323c-2.608-.981-6.014-5.69-7.005-9.7-.593-2.371-.291-4.311.851-5.593a3.664,3.664,0,0,1,2.964-1.347c3.158.14,6.229,4.182,6.359,4.311a.539.539,0,0,1-.862.647s-2.9-3.815-5.539-3.923a2.587,2.587,0,0,0-2.156.981c-1.142,1.283-.959,3.233-.614,4.623.959,3.9,4.311,8.169,6.337,8.945,3.061,1.142,7.07-2.015,7.113-2.037a.528.528,0,0,1,.754.075.55.55,0,0,1-.086.765A11,11,0,0,1,199.409,181.153Z" transform="translate(-120.057 -93.44)" fill="#263238"/>
          <path id="Tracé_566" data-name="Tracé 566" d="M228.232,167.737a3.815,3.815,0,0,1-3.115-1.617.55.55,0,0,1,.108-.754.539.539,0,0,1,.754.108,2.791,2.791,0,0,0,2.985,1.078,6.65,6.65,0,0,0,4.548-4.71c.539-2.425-1.767-4.149-3.438-5.389a6.6,6.6,0,0,1-1.573-1.39c-.938-1.39-.56-5.033-.517-5.389a.539.539,0,0,1,.593-.474.528.528,0,0,1,.474.593c-.151,1.4-.194,3.923.345,4.731a7.137,7.137,0,0,0,1.315,1.078c1.811,1.358,4.537,3.395,3.847,6.466a7.673,7.673,0,0,1-5.389,5.529A5.027,5.027,0,0,1,228.232,167.737Z" transform="translate(-117.356 -90.264)" fill="#263238"/>
          <path id="Tracé_567" data-name="Tracé 567" d="M225.8,172.238a13.284,13.284,0,0,1-3.524-.442.563.563,0,1,1,.323-1.078,12.135,12.135,0,0,0,12.933-4.473.539.539,0,0,1,.754-.108.55.55,0,0,1,.108.754A13,13,0,0,1,225.8,172.238Z" transform="translate(-117.6 -93.29)" fill="#263238"/>
          <path id="Tracé_568" data-name="Tracé 568" d="M210.682,155.21a1.356,1.356,0,0,1-.356-.054,1.078,1.078,0,0,1-.711-1.423c1.9-5.69,9.107-6.66,9.408-6.693a1.119,1.119,0,0,1,.28,2.22c-.065,0-6.111.83-7.544,5.184A1.078,1.078,0,0,1,210.682,155.21Z" transform="translate(-118.559 -90.432)" fill="#c7c7c7"/>
          <path id="Tracé_569" data-name="Tracé 569" d="M210.722,155.788a1.745,1.745,0,0,1-.528-.086,1.66,1.66,0,0,1-1.078-2.1c1.994-6,9.527-7.016,9.85-7.059a1.638,1.638,0,0,1,1.843,1.444,1.66,1.66,0,0,1-1.433,1.854s-5.777.8-7.113,4.817A1.66,1.66,0,0,1,210.722,155.788Zm8.471-8.18h-.065c-.291,0-7.167.959-8.967,6.326a.582.582,0,0,0,.377.733.571.571,0,0,0,.733-.366c1.573-4.72,7.943-5.539,8.007-5.55a.574.574,0,0,0-.086-1.142Z" transform="translate(-118.598 -90.471)" fill="#7d7d7d"/>
          <path id="Tracé_570" data-name="Tracé 570" d="M236.811,148.371a1.078,1.078,0,0,1-.787-.323,5.669,5.669,0,0,0-6.348-1.078,1.121,1.121,0,0,1-1-2,7.867,7.867,0,0,1,8.924,1.487,1.126,1.126,0,0,1-.787,1.918Z" transform="translate(-117.12 -90.653)" fill="#c7c7c7"/>
          <path id="Tracé_571" data-name="Tracé 571" d="M236.85,148.948a1.66,1.66,0,0,1-1.175-.485,5.065,5.065,0,0,0-5.723-.959,1.66,1.66,0,1,1-1.476-2.974,8.438,8.438,0,0,1,9.549,1.584,1.66,1.66,0,0,1-1.175,2.834Zm-4.591-3.018a5.766,5.766,0,0,1,4.182,1.767.582.582,0,0,0,.819,0,.571.571,0,0,0,0-.819,7.339,7.339,0,0,0-8.309-1.379.582.582,0,0,0-.259.776.593.593,0,0,0,.787.259A6.713,6.713,0,0,1,232.259,145.931Z" transform="translate(-117.159 -90.691)" fill="#7d7d7d"/>
          <path id="Tracé_572" data-name="Tracé 572" d="M216.929,167.309a.561.561,0,0,1-.453-.259.528.528,0,0,1,.172-.744,10.6,10.6,0,0,0,4.839-7.232.55.55,0,0,1,.582-.485.539.539,0,0,1,.485.593,11.413,11.413,0,0,1-5.389,8.04A.539.539,0,0,1,216.929,167.309Z" transform="translate(-118.027 -89.534)" fill="#263238"/>
          <path id="Tracé_573" data-name="Tracé 573" d="M241.489,160.672h-.054a17.481,17.481,0,0,1-7.9-3.082.539.539,0,0,1-.108-.754.55.55,0,0,1,.754-.108,16.641,16.641,0,0,0,7.361,2.867.539.539,0,1,1,0,1.078Z" transform="translate(-116.711 -89.686)" fill="#263238"/>
          <path id="Tracé_574" data-name="Tracé 574" d="M219.21,157.961c.377,1.347.065,2.608-.7,2.824s-1.67-.711-2.048-2.058-.065-2.619.7-2.824S218.843,156.613,219.21,157.961Z" transform="translate(-118.033 -89.745)" fill="#000032"/>
          <path id="Tracé_575" data-name="Tracé 575" d="M234.9,153.511c.367,1.347.054,2.608-.7,2.824s-1.681-.711-2.048-2.069-.065-2.608.69-2.824S234.522,152.154,234.9,153.511Z" transform="translate(-116.814 -90.092)" fill="#000032"/>
          <path id="Tracé_576" data-name="Tracé 576" d="M214.168,159.048a.539.539,0,0,1-.291-.981l5.389-3.621a.55.55,0,0,1,.754.151.539.539,0,0,1-.151.744l-5.389,3.621A.5.5,0,0,1,214.168,159.048Z" transform="translate(-118.24 -89.863)" fill="#263238"/>
          <path id="Tracé_577" data-name="Tracé 577" d="M231.2,152.576a.55.55,0,0,1-.539-.517.539.539,0,0,1,.517-.56l5.949-.259a.528.528,0,0,1,.56.507.55.55,0,0,1-.517.571l-5.938.259Z" transform="translate(-116.917 -90.105)" fill="#263238"/>
          <path id="Tracé_578" data-name="Tracé 578" d="M337.714,293.426s7.975,3.578,9.441,4.613,5.5,7.328,5.83,9.29-.065,2.77-1.293,2.059-4.71-4.882-7.4-7.727-6.132-4.634-6.973-6.326S336.377,293.1,337.714,293.426Z" transform="translate(-108.677 -91.428)" fill="#eeae8c"/>
          <path id="Tracé_579" data-name="Tracé 579" d="M352.471,310.256a2,2,0,0,1-1.013-.334,33.94,33.94,0,0,1-4.753-4.8c-.937-1.078-1.9-2.1-2.77-3.018a32.243,32.243,0,0,0-3.793-3.287,11.518,11.518,0,0,1-3.233-3.179c-.571-1.132-.905-1.918-.5-2.446s.959-.356,1.509-.226h.1c.323.151,8.029,3.621,9.527,4.667s5.7,7.641,6.046,9.635c.259,1.487.119,2.36-.453,2.759A1.078,1.078,0,0,1,352.471,310.256Zm-15.174-16.3a10.251,10.251,0,0,0,.528,1.207,11.852,11.852,0,0,0,2.975,2.8,33.026,33.026,0,0,1,3.912,3.395c.884.927,1.854,1.994,2.791,3.039A37.1,37.1,0,0,0,352,309c.356.2.485.172.5.172s.248-.269,0-1.681c-.323-1.886-4.311-8.008-5.615-8.934s-8.622-4.246-9.3-4.548Z" transform="translate(-108.712 -91.471)" fill="#263238"/>
          <path id="Tracé_580" data-name="Tracé 580" d="M316.532,285.535s13.137,4.311,17.75,5.679a24.7,24.7,0,0,1,9.3,5.313c1.315,1.239,8.568,9.462,9.355,11.855s1.875,8.794.528,9.387-2.727-.981-3.33-2.339a21.649,21.649,0,0,0-2.435-3.589s1.627,5.184,1.347,7.792-1.078,4.192-3.233,4.559-4.569-3.233-6.24-6.574a23.14,23.14,0,0,0-3.88-5.529l-5.152-2.392a37.969,37.969,0,0,0,3.47,7.425c1.972,2.942,4.311,3.632,3.46,5.238s-4.774,1.918-6.617-.313-4.807-4.645-6.466-7.641-5.507-11.09-5.507-11.09l-10.519-1.832s-6.154-1.854-6.552-8.342S313.687,283.843,316.532,285.535Z" transform="translate(-111.389 -92.301)" fill="#eeae8c"/>
          <path id="Tracé_581" data-name="Tracé 581" d="M345.568,324.827c-2.586,0-5.108-4.311-6.466-6.908a22.8,22.8,0,0,0-3.707-5.313l-3.88-1.81a32.413,32.413,0,0,0,2.964,6.089,15.826,15.826,0,0,0,2.155,2.544c1.078,1.024,1.961,1.918,1.293,3.233a3.406,3.406,0,0,1-2.77,1.53,5.389,5.389,0,0,1-4.742-1.757c-.6-.722-1.326-1.466-2.08-2.252a25.871,25.871,0,0,1-4.408-5.475c-1.444-2.673-4.774-9.452-5.453-10.831l-10.249-1.789c-.129,0-6.585-2.048-6.994-8.837-.14-2.393,1.229-4.537,3.966-6.2,3.675-2.242,9.333-3.233,11.51-1.983.927.3,13.288,4.311,17.685,5.658a25.261,25.261,0,0,1,9.527,5.389c1.282,1.218,8.622,9.495,9.484,12.1.356,1.078,2.349,9.107.237,10.044a2.349,2.349,0,0,1-2.511-.517,5.937,5.937,0,0,1-1.52-2.155,8.756,8.756,0,0,0-.7-1.207,17.809,17.809,0,0,1,.625,5.248c-.215,2.091-.841,4.548-3.664,5.044A2.388,2.388,0,0,1,345.568,324.827ZM330.6,309.221a.539.539,0,0,1,.226.054l5.151,2.393a.432.432,0,0,1,.162.108,23.361,23.361,0,0,1,3.966,5.669c2.058,4.128,4.214,6.553,5.669,6.283,1.692-.291,2.5-1.477,2.78-4.1s-1.3-7.544-1.326-7.544a.539.539,0,0,1,.927-.506,21.852,21.852,0,0,1,2.522,3.718,4.991,4.991,0,0,0,1.229,1.7,1.293,1.293,0,0,0,1.379.356c.7-.377.216-5.507-.819-8.719-.733-2.252-7.76-10.292-9.2-11.65a24.314,24.314,0,0,0-9.085-5.195c-4.569-1.369-17.642-5.68-17.772-5.68l-.108-.054c-1.444-.862-6.7-.334-10.454,1.94-1.66,1.013-3.6,2.737-3.449,5.216a8.955,8.955,0,0,0,6.165,7.857l10.465,1.811a.549.549,0,0,1,.388.3c0,.075,3.966,8.094,5.55,11.047a25.033,25.033,0,0,0,4.225,5.238c.787.8,1.52,1.563,2.155,2.317a4.419,4.419,0,0,0,3.794,1.369,2.49,2.49,0,0,0,1.929-.959c.28-.56,0-.894-1.078-1.983a16.618,16.618,0,0,1-2.339-2.705,37.89,37.89,0,0,1-3.535-7.544.539.539,0,0,1,.507-.711Z" transform="translate(-111.434 -92.347)" fill="#263238"/>
          <path id="Tracé_582" data-name="Tracé 582" d="M343.249,323.235a.518.518,0,0,1-.539-.539c0-.054,0-6.078-1.455-8.568s-6.175-8.622-6.218-8.708a.539.539,0,0,1,.851-.658c.194.248,4.742,6.165,6.294,8.816s1.606,8.859,1.606,9.128A.539.539,0,0,1,343.249,323.235Z" transform="translate(-108.813 -91.333)" fill="#263238"/>
          <path id="Tracé_583" data-name="Tracé 583" d="M344.731,311.191a.539.539,0,0,1-.5-.323l-4.192-9.484a.539.539,0,0,1,.28-.711.55.55,0,0,1,.711.28l4.182,9.484a.528.528,0,0,1-.269.711.518.518,0,0,1-.216.043Z" transform="translate(-108.42 -91.127)" fill="#263238"/>
          <path id="Tracé_584" data-name="Tracé 584" d="M217.5,306.2s24.065-2.867,36.276,1.444,24.076,19.4,24.076,31.965-2.522,81.551-1.8,83.351,4.667,2.155,4.667,5.744-2.867,22.277-2.867,22.277-16.888,6.1-22.632,6.1h-5.755s-8.255-21.91-7.9-25.5,2.511-6.466,2.511-8.266-10.411-39.52-10.411-50.653V347.873l-20.121-4.311S204.571,318.052,217.5,306.2Z" transform="translate(-118.483 -100.442)" fill="#000032"/>
          <path id="Tracé_585" data-name="Tracé 585" d="M255.266,457.657h-5.755a.55.55,0,0,1-.507-.345c-.334-.905-8.3-22.072-7.932-25.747a18.633,18.633,0,0,1,1.617-5.389,8.727,8.727,0,0,0,.895-2.813c0-.474-.959-4.311-2.058-8.794-3.125-12.652-8.352-33.851-8.352-41.859V348.344l-19.7-4.214a.539.539,0,0,1-.388-.356c-.377-1.078-8.956-25.973,4.1-37.936a.507.507,0,0,1,.3-.129c.981-.118,24.335-2.845,36.524,1.455,12.782,4.516,24.432,20,24.432,32.483,0,5.13-.42,19.658-.862,35.047-.6,20.8-1.347,46.676-.97,48.12a4.087,4.087,0,0,0,1.606,1.4c1.379.894,3.093,2,3.093,4.526,0,3.589-2.759,21.554-2.878,22.352a.56.56,0,0,1-.345.431C277.338,451.773,261,457.657,255.266,457.657Zm-5.389-1.078h5.389c5.162,0,19.852-5.152,22.147-5.96.377-2.479,2.813-18.623,2.813-21.878,0-1.94-1.326-2.791-2.608-3.621a4.666,4.666,0,0,1-2.015-1.929c-.442-1.078,0-19.054.894-48.5.442-15.39.862-29.918.862-35.026,0-12.081-11.305-27.083-23.71-31.459-11.424-4.031-33.679-1.681-35.866-1.433-11.629,10.863-4.7,33.582-3.783,36.384l19.819,4.246a.539.539,0,0,1,.431.528v24.788c0,7.878,5.389,29.82,8.32,41.6,1.455,5.874,2.091,8.493,2.091,9.053a9.288,9.288,0,0,1-.981,3.233,17.362,17.362,0,0,0-1.53,5.087C241.827,434.465,247.475,450.264,249.878,456.579Z" transform="translate(-118.525 -100.482)" fill="#263238"/>
          <path id="Tracé_586" data-name="Tracé 586" d="M289.832,457.485s-10.777-12.577-15.088-19.4-12.211-10.777-16.877-7.188-4.677,12.577-4.677,12.577l-7.9-1.444s2.878,9.7,4.311,15.088,3.589,8.988,12.933,10.422,24.788,2.511,29.1-1.8S289.832,457.485,289.832,457.485Z" transform="translate(-115.78 -90.783)" fill="#fff"/>
          <path id="Tracé_587" data-name="Tracé 587" d="M278.016,469.39a109.708,109.708,0,0,1-15.53-1.282c-9.193-1.412-11.79-4.893-13.364-10.777-1.423-5.313-4.311-14.969-4.311-15.088a.517.517,0,0,1,.119-.507.561.561,0,0,1,.5-.173l7.285,1.326c.1-2.156.722-9.171,4.861-12.361a7.652,7.652,0,0,1,6.175-1.315c4.128.744,8.622,4.128,11.5,8.622,4.1,6.466,14.2,18.321,14.991,19.281.485.323,3.233,2.285,3.492,4.979a4.979,4.979,0,0,1-1.681,4.074C289.548,468.668,283.814,469.39,278.016,469.39Zm-31.922-26.63c.733,2.479,2.888,9.85,4.063,14.258,1.283,4.8,3.007,8.568,12.5,10.023,10.777,1.67,24.788,2.231,28.635-1.638a3.923,3.923,0,0,0,1.358-3.233c-.248-2.382-3.039-4.225-3.072-4.236a.562.562,0,0,1-.118-.108c-.108-.129-10.853-12.685-15.088-19.464-2.694-4.311-6.93-7.469-10.777-8.148a6.574,6.574,0,0,0-5.324,1.078c-4.4,3.384-4.462,12.049-4.462,12.146a.529.529,0,0,1-.194.41.583.583,0,0,1-.442.118Z" transform="translate(-115.819 -90.823)" fill="#263238"/>
          <path id="Tracé_588" data-name="Tracé 588" d="M291.29,463.646a4.127,4.127,0,0,0,1.2-4.807,53.245,53.245,0,0,1-6.229,3.018c-7.9,3.233-18.677,2.511-27.654-.366a22.235,22.235,0,0,1-8.913-5c1.477,4.58,4.041,7.652,12.5,8.956C271.578,466.879,286.979,467.957,291.29,463.646Z" transform="translate(-115.438 -88.689)" fill="#fff"/>
          <path id="Tracé_589" data-name="Tracé 589" d="M277.674,467.3a109.685,109.685,0,0,1-15.53-1.282c-8.686-1.336-11.392-4.559-12.933-9.322a.545.545,0,0,1,.895-.55,21.834,21.834,0,0,0,8.7,4.882c9.764,3.125,20.218,3.233,27.288.367a48.978,48.978,0,0,0,6.165-2.985.583.583,0,0,1,.442,0,.517.517,0,0,1,.323.313,4.7,4.7,0,0,1-1.315,5.389h0C289.206,466.573,283.473,467.3,277.674,467.3ZM251,458.318c1.574,3.373,4.386,5.572,11.316,6.628,10.777,1.67,24.788,2.231,28.635-1.638h0a3.718,3.718,0,0,0,1.272-3.643,54.333,54.333,0,0,1-5.723,2.727c-7.4,3.028-17.89,2.9-28.021-.345A24.839,24.839,0,0,1,251,458.318Z" transform="translate(-115.478 -88.728)" fill="#263238"/>
          <path id="Tracé_590" data-name="Tracé 590" d="M299.79,287.44s-.711,8.525-.949,11.122,1.186,5.69,2.156,6.154,1.423-.463,1.423-2.6v-3.557C302.388,297.851,299.79,287.44,299.79,287.44Z" transform="translate(-111.62 -91.553)" fill="#ffead9"/>
          <path id="Tracé_591" data-name="Tracé 591" d="M301.446,305.429a1.53,1.53,0,0,1-.679-.183c-1.272-.636-2.673-3.988-2.425-6.682s.948-11.122.948-11.122a.541.541,0,0,1,1.078-.086c.614,2.457,2.619,10.529,2.619,11.251v3.556c0,1.724-.291,2.705-.916,3.093a1.174,1.174,0,0,1-.625.172Zm-1.315-14.635c-.226,2.694-.539,6.326-.679,7.867-.226,2.5,1.207,5.3,1.843,5.626.108.054.194.075.226.054s.409-.28.409-2.155v-3.556C301.866,298.165,300.961,294.339,300.131,290.794Z" transform="translate(-111.66 -91.599)" fill="#263238"/>
          <path id="Tracé_592" data-name="Tracé 592" d="M313.869,274.325c0-3.707,4.936-11.521,4.936-11.521l1.908-26.189-1.293-5.076-5.755-.41c-2.274,7.63-10.26,34.487-11.316,38.669a123.46,123.46,0,0,0-2.468,17.243c0,2.048,0,11.51.83,15.217s6.574,7.393,6.574,7.393,7.76,0,8.988-.819-1.886-3.556-1.886-3.556c-.463,0-1.832-10.152,1.078-13.3,2.349-2.511,9.053.41,9.053.41a93.1,93.1,0,0,0-3.707-8.622C318.751,279.67,313.869,278.022,313.869,274.325Z" transform="translate(-111.538 -94.023)" fill="#ffead9"/>
          <path id="Tracé_593" data-name="Tracé 593" d="M307.323,310.263a.485.485,0,0,1-.291-.086c-.237-.151-5.949-3.858-6.811-7.738-.55-2.457-.841-7.76-.841-15.325a121.315,121.315,0,0,1,2.489-17.405c1.078-4.386,9.624-33,11.316-38.7a.517.517,0,0,1,.56-.377l5.755.42a.528.528,0,0,1,.485.4l1.282,5.065a1.043,1.043,0,0,1,0,.172l-1.918,26.2a.517.517,0,0,1-.076.248c-.054.075-4.85,7.727-4.85,11.23,0,1.843,1.444,3.168,3.115,4.7a16.078,16.078,0,0,1,3.815,4.516,93.8,93.8,0,0,1,3.729,8.7.544.544,0,0,1-.722.679c-1.768-.776-6.736-2.371-8.439-.539-2.565,2.737-1.584,11.456-1.153,12.545.442.377,2.436,2.155,2.349,3.481a1.131,1.131,0,0,1-.528.905c-1.3.873-7.964.916-9.29.916Zm6.736-78.533c-1.951,6.542-10.12,33.981-11.187,38.238a122.609,122.609,0,0,0-2.414,17.1c0,7.382.291,12.749.808,15.088.7,3.147,5.389,6.412,6.218,6.973,3.158,0,7.792-.237,8.535-.733.076-.56-.927-1.789-1.9-2.651a.712.712,0,0,1-.291-.356c-.625-1.39-1.638-10.6,1.326-13.773,1.961-2.1,6.4-.895,8.5-.151-.614-1.6-1.843-4.645-3.233-7.458a15.164,15.164,0,0,0-3.578-4.2c-1.789-1.638-3.47-3.179-3.47-5.5,0-3.61,4.311-10.659,4.947-11.693l1.886-25.973-1.175-4.537ZM314.371,304.81Z" transform="translate(-111.577 -94.06)" fill="#263238"/>
          <path id="Tracé_594" data-name="Tracé 594" d="M314.6,305.717a.537.537,0,0,1-.259-.065c-1.078-.56-6.348-3.47-7.092-4.968s-.97-10.7-1-12.534a.528.528,0,0,1,.517-.55.539.539,0,0,1,.56.528c.086,4.16.41,11.122.884,12.081s4.311,3.233,6.639,4.494a.539.539,0,0,1,.226.733A.55.55,0,0,1,314.6,305.717Z" transform="translate(-111.043 -91.573)" fill="#263238"/>
          <path id="Tracé_595" data-name="Tracé 595" d="M308.542,305.717a.548.548,0,0,1-.388-.162c-.851-.894-5.119-5.464-5.119-7.479,0-1.832-1.164-9.786-1.175-9.861a.539.539,0,1,1,1.067-.162c0,.334,1.186,8.115,1.186,10.023,0,1.229,2.964,4.785,4.817,6.736a.539.539,0,0,1,0,.765.549.549,0,0,1-.388.14Z" transform="translate(-111.384 -91.574)" fill="#263238"/>
          <path id="Tracé_596" data-name="Tracé 596" d="M203.874,309.04l-41.072-.485a19.545,19.545,0,0,0-3.179,0l-6.94.517a20.132,20.132,0,0,0-18.44,22.729L152.564,469.35a4.052,4.052,0,0,0,4.02,3.524h51.192Z" transform="translate(-124.425 -100.192)" fill="#333"/>
          <path id="Tracé_597" data-name="Tracé 597" d="M207.775,473.4H156.583a4.613,4.613,0,0,1-4.559-3.988L133.7,331.854a20.671,20.671,0,0,1,18.936-23.333l6.941-.517a20.852,20.852,0,0,1,3.233,0l41.04.485a.539.539,0,0,1,.528.528l3.858,163.813a.55.55,0,0,1-.539.56ZM160.98,309.082a9.221,9.221,0,0,0-1.229.054l-6.941.517a19.593,19.593,0,0,0-18,22.061l18.321,137.56a3.535,3.535,0,0,0,3.492,3.05h50.653l-3.826-162.736-40.608-.507Z" transform="translate(-124.467 -100.234)" fill="#263238"/>
          <path id="Tracé_598" data-name="Tracé 598" d="M223.418,472.854a4.063,4.063,0,0,0,4.052-4.02l1.293-139.963a20.132,20.132,0,0,0-21.641-20.337l-6.94.517a20.132,20.132,0,0,0-18.44,22.729L200.064,469.33a4.052,4.052,0,0,0,4.02,3.524Z" transform="translate(-120.733 -100.193)" fill="#666"/>
          <path id="Tracé_599" data-name="Tracé 599" d="M223.462,473.4h-19.4a4.613,4.613,0,0,1-4.559-3.988l-18.321-137.56a20.671,20.671,0,0,1,18.935-23.333l6.94-.517a20.681,20.681,0,0,1,22.223,20.875l-1.293,139.974A4.6,4.6,0,0,1,223.462,473.4Zm-14.8-164.32a13.138,13.138,0,0,0-1.455.054l-6.941.517a19.593,19.593,0,0,0-17.955,22.061l18.321,137.56a3.535,3.535,0,0,0,3.492,3.05h19.4a3.524,3.524,0,0,0,3.513-3.481l1.293-139.974a19.593,19.593,0,0,0-19.668-19.787Z" transform="translate(-120.777 -100.234)" fill="#263238"/>
          <path id="Tracé_600" data-name="Tracé 600" d="M189.265,205.8s-15.088.356-20.832,8.977-10.421,38.087-11.5,45.631-5.744,34.121-3.944,39.153,6.466,5.744,15.088,6.111,12.566-4.311,14.366-9.7,6.466-55.686,6.466-55.686" transform="translate(-122.986 -94.696)" fill="#5da2f0"/>
          <path id="Tracé_601" data-name="Tracé 601" d="M169.043,306.28H168.1c-8.385-.356-13.612-.959-15.573-6.466-1.433-4,.873-19.8,3.136-34.293.334-2.1.6-3.88.787-5.119.528-3.718,5.389-36.513,11.575-45.846,5.841-8.762,20.649-9.214,21.274-9.225a.528.528,0,0,1,.55.528.539.539,0,0,1-.528.55c-.14,0-14.873.453-20.39,8.74-6.1,9.139-10.885,41.719-11.413,45.4-.183,1.25-.463,3.028-.787,5.141-1.627,10.379-4.645,29.691-3.233,33.754,1.606,4.494,5.615,5.389,14.6,5.755,6.994.291,11.672-2.845,13.838-9.333,1.746-5.27,6.391-55.061,6.466-55.567a.539.539,0,0,1,.593-.485.55.55,0,0,1,.485.593c-.194,2.048-4.7,50.416-6.466,55.793C180.758,302.874,176.07,306.28,169.043,306.28Z" transform="translate(-123.025 -94.726)" fill="#263238"/>
          <path id="Tracé_602" data-name="Tracé 602" d="M168.939,276.13c2.155.722,21.554,5.389,23,9.344a5.5,5.5,0,0,1-1.078,6.111s-6.466,15.444-12.221,16.877-18.677-2.511-25.143-5.389,0-24.788.722-25.865" transform="translate(-123.136 -92.193)" fill="#5da2f0"/>
          <path id="Tracé_603" data-name="Tracé 603" d="M175.756,309.338c-6.466,0-16.618-3.147-22.438-5.733a5.087,5.087,0,0,1-2.64-3.481c-2.015-6.962,2.382-22.05,3.125-23.171a.539.539,0,1,1,.894.593c-.517.841-5.022,15.713-2.931,22.427a3.987,3.987,0,0,0,1.983,2.651c6.984,3.093,19.474,6.682,24.788,5.389s11.79-16.424,11.855-16.575a.529.529,0,0,1,.151-.194,4.957,4.957,0,0,0,.927-5.518c-1.078-3.061-15.681-7.07-20.477-8.385l-2.155-.625a.54.54,0,0,1,.345-1.024c.334.108,1.078.323,2.155.6,9.829,2.705,20.035,5.9,21.188,9.064a6.046,6.046,0,0,1-1.132,6.606c-.647,1.5-6.79,15.648-12.545,17.093A12.932,12.932,0,0,1,175.756,309.338Z" transform="translate(-123.174 -92.232)" fill="#263238"/>
          <path id="Tracé_604" data-name="Tracé 604" d="M193.394,295.014s1.433-2.155-.366-3.233-4.667-4.311-7.9-4.311-8.977,2.867-10.421,8.978-.356,10.422,2.155,11.133,7.91,2.155,10.422,2.155,4.311-5.389,4.666-6.466S193.394,295.014,193.394,295.014Z" transform="translate(-121.316 -91.707)" fill="#5da2f0"/>
          <path id="Tracé_605" data-name="Tracé 605" d="M187.282,310.312c-2.651,0-8.277-1.52-10.562-2.155-2.975-.841-4-5.582-2.533-11.779s7.275-9.387,10.939-9.387c2.554,0,4.774,1.767,6.563,3.233a18.9,18.9,0,0,0,1.617,1.2,2.273,2.273,0,0,1,1.078,1.466,3.642,3.642,0,0,1-.507,2.414c-.172,1.078-1.078,7.2-1.444,8.245C191.42,306.594,189.685,310.312,187.282,310.312Zm-2.155-22.266a11.262,11.262,0,0,0-9.893,8.557c-1.444,6.143-.2,9.936,1.778,10.5,1.757.507,7.684,2.155,10.271,2.155,1.336,0,2.888-2.274,4.16-6.1.28-.841,1.078-6.186,1.412-8.169a.539.539,0,0,1,.086-.216,2.619,2.619,0,0,0,.42-1.7,1.239,1.239,0,0,0-.6-.776,15.748,15.748,0,0,1-1.735-1.272c-1.66-1.336-3.718-2.942-5.9-2.942Z" transform="translate(-121.358 -91.748)" fill="#263238"/>
          <path id="Tracé_606" data-name="Tracé 606" d="M213.62,296.47s6.111,7.544,8.988,8.977,5.389,3.233,3.233,5.389-7.188,1.078-9.344-1.8S213.62,296.47,213.62,296.47Z" transform="translate(-118.242 -91.353)" fill="#eeae8c"/>
          <path id="Tracé_607" data-name="Tracé 607" d="M222.689,312.545h-.539a8.557,8.557,0,0,1-6.035-3.136c-2.22-2.964-2.953-12.448-2.985-12.857a.56.56,0,0,1,.345-.539.539.539,0,0,1,.614.162c.065.075,6.068,7.469,8.8,8.837,1.865.938,4.041,2.22,4.311,3.891a2.683,2.683,0,0,1-.938,2.36A4.915,4.915,0,0,1,222.689,312.545Zm-8.331-14.388c.313,2.888,1.078,8.622,2.608,10.562a7.425,7.425,0,0,0,5.248,2.705,4.225,4.225,0,0,0,3.233-.959,1.659,1.659,0,0,0,.636-1.423c-.215-1.347-2.856-2.673-3.729-3.1C220.189,304.861,216.288,300.453,214.359,298.157Z" transform="translate(-118.28 -91.396)" fill="#263238"/>
          <path id="Tracé_608" data-name="Tracé 608" d="M195.2,294.652s16.888-2.522,19.4-2.522,6.466,17.966,6.822,20.843,1.8,4.666,0,6.1a5.291,5.291,0,0,1-2.867,1.444,16.473,16.473,0,0,1-3.233,2.156c-1.078.355-5.033-.367-5.033-.367s-.356,1.444-3.233,1.078-12.577-12.566-12.577-12.566-7.178-1.8-10.055-4.311-1.8-6.833,0-9.7,5.744-3.6,5.744-3.6Z" transform="translate(-120.649 -91.943)" fill="#eeae8c"/>
          <path id="Tracé_609" data-name="Tracé 609" d="M207.952,324.027a7.309,7.309,0,0,1-.927-.065c-2.921-.366-11.392-10.842-12.814-12.631-1.164-.3-7.393-2-10.109-4.386-3.147-2.748-2.026-7.318-.1-10.389s5.927-3.8,6.1-3.837a.639.639,0,0,1,.248,0l4.914,1.412c1.617-.248,16.92-2.511,19.4-2.511,3.459,0,7.329,21.1,7.361,21.307a18.551,18.551,0,0,0,.485,2.274c.431,1.6.841,3.1-.679,4.311a6.639,6.639,0,0,1-3,1.541,14.7,14.7,0,0,1-3.233,2.155c-1,.334-3.761-.076-4.9-.269A3.028,3.028,0,0,1,207.952,324.027ZM190.18,293.851c-.636.14-3.783.948-5.27,3.319-1.692,2.716-2.737,6.7-.1,9.01s9.764,4.171,9.829,4.192a.506.506,0,0,1,.291.194c3.7,4.645,10.292,12.124,12.221,12.372s2.543-.356,2.651-.69a.571.571,0,0,1,.614-.388,16.985,16.985,0,0,0,4.763.377,15.218,15.218,0,0,0,3.061-2.058.561.561,0,0,1,.388-.129,5.173,5.173,0,0,0,2.533-1.325c.938-.744.776-1.52.323-3.233a16.243,16.243,0,0,1-.517-2.414c-.6-4.785-4.57-20.283-6.294-20.369-2.446,0-19.151,2.49-19.324,2.511a.541.541,0,0,1-.226,0Z" transform="translate(-120.689 -91.988)" fill="#263238"/>
          <path id="Tracé_610" data-name="Tracé 610" d="M217.976,319.777a.528.528,0,0,1-.485-.313l-8.988-19.4a.561.561,0,0,1,.269-.722.55.55,0,0,1,.711.269l8.977,19.4a.528.528,0,0,1-.259.711A.581.581,0,0,1,217.976,319.777Z" transform="translate(-118.643 -91.474)" fill="#263238"/>
          <path id="Tracé_611" data-name="Tracé 611" d="M213.84,322.448a.55.55,0,0,1-.474-.27l-11.133-19.043a.539.539,0,0,1,.927-.539L214.3,321.629a.55.55,0,0,1-.194.744.637.637,0,0,1-.269.075Z" transform="translate(-119.13 -91.415)" fill="#263238"/>
          <path id="Tracé_612" data-name="Tracé 612" d="M209.08,321.8a.528.528,0,0,1-.442-.226l-10.422-15.088a.539.539,0,0,1,.14-.754.528.528,0,0,1,.744.14l10.422,15.088a.528.528,0,0,1-.14.744A.507.507,0,0,1,209.08,321.8Z" transform="translate(-119.446 -91.232)" fill="#263238"/>
        </g>
      </g>
    </g>
  </g>
</svg>
