<svg xmlns="http://www.w3.org/2000/svg" xmlns:xlink="http://www.w3.org/1999/xlink" width="543.283" height="638.555" viewBox="0 0 543.283 638.555">
  <defs>
    <filter id="Rectangle_33" x="151.451" y="0" width="391.832" height="638.555" filterUnits="userSpaceOnUse">
      <feOffset dx="-12" dy="13" input="SourceAlpha"/>
      <feGaussianBlur stdDeviation="13.5" result="blur"/>
      <feFlood flood-opacity="0.161"/>
      <feComposite operator="in" in2="blur"/>
      <feComposite in="SourceGraphic"/>
    </filter>
    <clipPath id="clip-path">
      <rect id="Rectangle_2161" data-name="Rectangle 2161" width="310.832" height="557.555" rx="6" transform="translate(44.682 -0.223)" fill="#fff"/>
    </clipPath>
  </defs>
  <g id="Groupe_251" data-name="Groupe 251" transform="translate(-1.286 27.5)">
    <g id="Groupe_250" data-name="Groupe 250">
      <g id="latérale" transform="translate(-192.354 -1603.129)">
        <text id="Kinésitherapeute" transform="translate(293.64 1988.629) rotate(-90)" fill="#09a4f4" font-size="93" font-family="SegoeUI-Bold, Segoe UI" font-weight="700" opacity="0.09"><tspan x="0" y="0">KINÉ </tspan></text>
      </g>
      <g id="kiné_" data-name="kiné " transform="translate(160.556 0.223)">
        <g transform="matrix(1, 0, 0, 1, -159.27, -27.72)" filter="url(#Rectangle_33)">
          <rect id="Rectangle_33-2" data-name="Rectangle 33" width="310.832" height="557.555" rx="43" transform="translate(203.95 27.5)" fill="#07b5e7"/>
        </g>
        <g id="Groupe_de_masques_31" data-name="Groupe de masques 31" clip-path="url(#clip-path)">
          <g id="kiné" transform="translate(-609.053 897.141)">
            <g id="Layer_6" data-name="Layer 6" transform="translate(653.735 -842.979)">
              <path id="Tracé_681" data-name="Tracé 681" d="M413.973,97.517q-2.2-3.678-4.6-7.2c-21.295-31.286-56.738-52.686-91.184-62.4a196.181,196.181,0,0,0-46.057-7.06c-101.453-3.678-138.726,79.967-171.41,101.54S17.873,180.827,24.166,258.189c4.79,58.835,38.25,115.094,99.384,140.7a173.239,173.239,0,0,0,21.218,7.319,202.017,202.017,0,0,0,44.811,6.887c46.22,2.059,83.741-9.081,120.458-37.139,8.525-6.514,17.013-13.871,28.086-14.675,8.056-.594,15.681,2.3,7.271,10.077-9.886,9.148,1.523,27.128,26.621,14.637,41.928-20.873,59.171-65.886,67.294-111.665C449.3,218.138,444.454,148.258,413.973,97.517Z" transform="translate(-23.627 -18.594)" fill="#5da2f0"/>
              <g id="Groupe_17" data-name="Groupe 17" transform="translate(0 2.143)" opacity="0.7">
                <path id="Tracé_682" data-name="Tracé 682" d="M413.973,97.517q-2.2-3.678-4.6-7.2c-21.295-31.286-56.738-52.686-91.184-62.4a196.181,196.181,0,0,0-46.057-7.06c-101.453-3.678-138.726,79.967-171.41,101.54S17.873,180.827,24.166,258.189c4.79,58.835,38.25,115.094,99.384,140.7a173.239,173.239,0,0,0,21.218,7.319,202.017,202.017,0,0,0,44.811,6.887c46.22,2.059,83.741-9.081,120.458-37.139,8.525-6.514,17.013-13.871,28.086-14.675,8.056-.594,15.681,2.3,7.271,10.077-9.886,9.148,1.523,27.128,26.621,14.637,41.928-20.873,59.171-65.886,67.294-111.665C449.3,218.138,444.454,148.258,413.973,97.517Z" transform="translate(-23.627 -20.737)" fill="#fff"/>
              </g>
              <g id="Groupe_18" data-name="Groupe 18" transform="translate(63.914)" opacity="0.3">
                <path id="Tracé_683" data-name="Tracé 683" d="M466.194,171.748H351.809a.479.479,0,0,1-.479-.479V18.979a.479.479,0,0,1,.479-.479H466.194a.479.479,0,0,1,.479.479V171.288A.479.479,0,0,1,466.194,171.748Zm-113.906-.958H465.715V19.487H352.288Z" transform="translate(-351.33 -18.5)"/>
                <path id="Tracé_684" data-name="Tracé 684" d="M462.623,167.005H355.709a.479.479,0,0,1-.479-.479V24.189a.479.479,0,0,1,.479-.479H462.623a.479.479,0,0,1,.479.479V166.526A.479.479,0,0,1,462.623,167.005Zm-106.435-.958H462.143V24.668H356.188Z" transform="translate(-351.494 -18.719)"/>
                <path id="Tracé_685" data-name="Tracé 685" d="M355.7,129.2a.491.491,0,1,1-.22-.958c11.083-5.748,37.618-22.32,44.725-52.255,5.882-24.7,14.187-41.286,26.218-52.14a.479.479,0,1,1,.642.709C415.21,35.272,406.952,51.7,401.147,76.28c-7.2,30.318-34.025,47.082-45.223,52.887a.469.469,0,0,1-.22.029Z" transform="translate(-351.489 -18.719)"/>
                <path id="Tracé_686" data-name="Tracé 686" d="M409.632,167.174a.489.489,0,0,1-.46-.335c-7.663-24.772-16.562-70.886,9.321-101.789,13.851-16.524,29.264-29.073,45.827-37.292a.479.479,0,0,1,.642.22.469.469,0,0,1-.211.642c-16.419,8.162-31.736,20.624-45.54,37.043-25.548,30.519-16.668,76.317-9.091,100.888a.489.489,0,0,1-.316.6Z" transform="translate(-353.431 -18.888)"/>
                <path id="Tracé_687" data-name="Tracé 687" d="M355.709,90.679a.479.479,0,0,1-.316-.843c6.131-5.249,13.813-15.078,15.595-32.32,1.686-16.361-3.717-26.985-8.554-33.01a.48.48,0,0,1,.747-.6c4.952,6.169,10.48,17.022,8.755,33.709-1.81,17.53-9.656,27.6-15.921,32.962a.469.469,0,0,1-.307.105Z" transform="translate(-351.494 -18.72)"/>
                <path id="Tracé_688" data-name="Tracé 688" d="M452.286,169.619a.5.5,0,0,1-.4-.211c-4.253-6.485-9.656-9.062-15.384-11.773-5.221-2.491-10.633-5.058-15.011-10.863a22.223,22.223,0,0,1-3.573-20.116c3.238-11.6,14.206-22.118,29.332-28.134a42.935,42.935,0,0,0,17.645-12.53.48.48,0,1,1,.737.613,43.872,43.872,0,0,1-17.98,12.846c-14.848,5.91-25.605,16.189-28.738,27.492a21.333,21.333,0,0,0,3.41,19.254c4.243,5.613,9.579,8.133,14.666,10.537,5.594,2.663,11.371,5.4,15.777,12.118a.479.479,0,0,1-.134.661A.546.546,0,0,1,452.286,169.619Z" transform="translate(-354.09 -21.333)"/>
                <path id="Tracé_689" data-name="Tracé 689" d="M385.453,172.043h0a.479.479,0,0,1-.469-.489c.268-12.118-1.724-20.634-5.9-25.308a4.972,4.972,0,0,0-4.244-1.858c-4.617.354-11.093,6.705-18.718,18.325a.489.489,0,0,1-.671.134.479.479,0,0,1-.134-.661c7.912-12.07,14.455-18.373,19.446-18.746a5.91,5.91,0,0,1,5.029,2.165c4.349,4.857,6.418,13.6,6.15,25.969A.489.489,0,0,1,385.453,172.043Z" transform="translate(-351.494 -23.757)"/>
                <path id="Tracé_690" data-name="Tracé 690" d="M390.78,55.994a2.549,2.549,0,0,1-.843-.134c-4.837-1.638-6.179-18.114-6.437-31.611a.479.479,0,0,1,.958,0c.355,18.43,2.471,29.638,5.748,30.759,1.083.364,2.414-.422,3.937-2.337,6.14-7.663,10.959-19.791,13.919-28.565a.489.489,0,0,1,.6-.307.5.5,0,0,1,.307.613c-2.989,8.851-7.855,21.074-14.072,28.853C393.462,55.065,392.064,55.994,390.78,55.994Z" transform="translate(-352.684 -18.722)"/>
                <path id="Tracé_691" data-name="Tracé 691" d="M441.328,77.482c-1.6,0-2.606-.441-3.027-1.332-1.724-3.535,7.539-14.062,27.5-31.286a.479.479,0,1,1,.623.728c-18.488,15.949-28.68,27.176-27.272,30.136.412.853,2.06,1.025,4.79.5,7.452-1.456,14.809-5.748,21.86-12.836a.481.481,0,0,1,.68.68c-7.194,7.194-14.714,11.6-22.358,13.095a14.568,14.568,0,0,1-2.8.316Z" transform="translate(-354.981 -19.605)"/>
              </g>
            </g>
            <g id="Floor" transform="translate(666.412 -411.139)">
              <path id="Tracé_692" data-name="Tracé 692" d="M445.2,469.559c0,.144-91.414.249-204.161.249S36.86,469.7,36.86,469.559s91.4-.249,204.181-.249S445.2,469.425,445.2,469.559Z" transform="translate(-36.86 -469.31)" fill="#263238"/>
            </g>
            <g id="Characters" transform="translate(662.149 -796.895)">
              <rect id="Rectangle_41" data-name="Rectangle 41" width="38.623" height="19.494" rx="8.29" transform="translate(21.975 208.751)" fill="#455a64"/>
              <path id="Tracé_693" data-name="Tracé 693" d="M321.755,456.581l-1.552-8.832-15.643-.019,1.705,10.25,5.594,3.372Z" transform="translate(-43.862 -82.646)" fill="#ffead9"/>
              <path id="Tracé_694" data-name="Tracé 694" d="M311.807,461.876l-6.006-3.621L304,447.22h16.62L322.3,456.8Zm-5.134-4.215,5.182,3.123,9.34-4.5-1.408-8.075H305.1Z" transform="translate(-43.838 -82.625)" fill="#263238"/>
              <path id="Tracé_695" data-name="Tracé 695" d="M305.243,457.548v1.015s-17.07,7.05-17.243,10.307l34.035-.508L321.4,457.05A19.456,19.456,0,0,1,305.243,457.548Z" transform="translate(-43.165 -83.039)" fill="#fff"/>
              <path id="Tracé_696" data-name="Tracé 696" d="M287.48,469.317v-.508c.153-3.286,13.746-9.148,17.243-10.595v-1.4l.661.259a19.015,19.015,0,0,0,15.806-.489l.642-.316.7,12.539Zm18.2-11.112v.68l-.3.125c-6.016,2.491-15.327,7.012-16.754,9.378l32.876-.489-.556-10.116a19.781,19.781,0,0,1-15.26.421Z" transform="translate(-43.143 -83.006)" fill="#263238"/>
              <path id="Tracé_697" data-name="Tracé 697" d="M322.044,468.741l-.153-2.721L289.322,467.5s-1.5.68-1.312,1.753Z" transform="translate(-43.165 -83.416)" fill="#fff"/>
              <path id="Tracé_698" data-name="Tracé 698" d="M287.586,469.705l-.067-.4c-.2-1.13.9-1.916,1.59-2.261l.172-.048L322.33,465.5l.2,3.7Zm1.839-1.753a2.214,2.214,0,0,0-.891.786l32.981-.489-.1-1.753Z" transform="translate(-43.144 -83.394)" fill="#263238"/>
              <path id="Tracé_699" data-name="Tracé 699" d="M321.14,439.66l2.7,26.276,12.041-2.012.268-25.864Z" transform="translate(-44.56 -82.239)" fill="#ffead9"/>
              <path id="Tracé_700" data-name="Tracé 700" d="M323.387,466.468l-2.8-27.263,16.026-1.705-.278,26.822Zm-1.743-26.41,2.6,25.3,11.112-1.858.259-24.906Z" transform="translate(-44.537 -82.216)" fill="#263238"/>
              <path id="Tracé_701" data-name="Tracé 701" d="M335.749,459.859s-7.97,6.705-12.587,2l-.843,2.577-3.171,18.1a2.347,2.347,0,0,0,4.071,2c3.2-3.592,14.905-16.84,14.627-18.459l-.469-4.33a2.223,2.223,0,0,0-1.628-1.916Z" transform="translate(-44.474 -83.156)" fill="#fff"/>
              <path id="Tracé_702" data-name="Tracé 702" d="M321.426,485.777a2.769,2.769,0,0,1-.785-.105,2.874,2.874,0,0,1-1.983-3.247l3.2-18.085,1.1-3.391.556.556c4.244,4.339,11.859-1.964,11.936-2.031l.191-.163.24.067a2.663,2.663,0,0,1,1.983,2.3l.46,4.32c.278,1.59-7.855,11.121-14.733,18.833A2.874,2.874,0,0,1,321.426,485.777Zm1.916-23.086-.613,1.916-3.152,18.028a1.854,1.854,0,0,0,3.209,1.6c8.621-9.713,14.484-16.974,14.5-18.086l-.46-4.33a1.7,1.7,0,0,0-1.063-1.4c-1.236.987-7.893,5.91-12.4,2.27Z" transform="translate(-44.453 -83.134)" fill="#263238"/>
              <path id="Tracé_703" data-name="Tracé 703" d="M321.31,485.519,337.8,464.78l.086.958a2.644,2.644,0,0,1-.661,2.175c-1.3,2.088-4.981,6.83-13.832,16.84a2.4,2.4,0,0,1-2.079.786Z" transform="translate(-44.567 -83.364)" fill="#fff"/>
              <path id="Tracé_704" data-name="Tracé 704" d="M321.557,486.014h-.345l-.852-.105,17.769-22.349.192,2.136a2.692,2.692,0,0,1-.575,2.2l-.163.259c-1.638,2.653-6.447,8.5-13.88,16.907A2.875,2.875,0,0,1,321.557,486.014ZM337.4,465.993l-15,18.871a1.916,1.916,0,0,0,.584-.45c9.349-10.537,12.664-14.963,13.785-16.783l.182-.278a1.916,1.916,0,0,0,.45-1.408Z" transform="translate(-44.527 -83.313)" fill="#263238"/>
              <path id="Tracé_705" data-name="Tracé 705" d="M269.724,244.49a112.254,112.254,0,0,0-6.284,34.485c-.316,18.938,17.243,72.61,19.839,84.929,1.791,8.382,9.435,50.291,19.024,75.618L316.672,439s-12-85.255-12-94.173,1.3-56.517,1.3-56.517l3.18-36.2Z" transform="translate(-42.132 -74.094)" fill="#5da2f0"/>
              <path id="Tracé_706" data-name="Tracé 706" d="M302,440.025l-.115-.326c-8.305-21.927-15.106-56-18.009-70.551-.45-2.251-.8-4-1.044-5.144-.738-3.468-2.634-10.144-5.048-18.593-5.977-21.017-15.03-52.781-14.8-66.441a114.081,114.081,0,0,1,6.313-34.677l.144-.374,40.233,7.836-3.228,36.631c0,.441-1.293,47.618-1.293,56.441s11.878,93.254,11.993,94.106l.077.527ZM270.049,245.012a113.844,113.844,0,0,0-6.092,33.977c-.23,13.516,8.794,45.195,14.771,66.154,2.4,8.478,4.311,15.164,5.058,18.66.249,1.14.594,2.874,1.044,5.163,2.874,14.455,9.627,48.212,17.846,70.072l13.478-.5c-1.1-7.836-11.936-85.121-11.936-93.713,0-8.832,1.284-56.019,1.3-56.517l3.151-35.807Z" transform="translate(-42.112 -74.07)" fill="#263238"/>
              <path id="Tracé_707" data-name="Tracé 707" d="M342.744,241.69c-1.054.4-35.443,8.707-35.443,8.707s-8.794,98.148-9.3,111.032,20.116,77.477,20.116,77.477h19.762s-.843-41.392-3.831-54.6c-3.468-15.269-6.706-18.67-5.269-26.946s16.553-48.3,20.308-70.235S342.744,241.69,342.744,241.69Z" transform="translate(-43.586 -73.976)" fill="#5da2f0"/>
              <path id="Tracé_708" data-name="Tracé 708" d="M338.381,439.359h-20.6l-.105-.335c-.843-2.634-20.768-64.822-20.222-77.639s9.215-110.075,9.3-111.061v-.335l.335-.086c9.579-2.3,34.562-8.353,35.443-8.679l.431-.163.182.421c.105.23,10.144,23.948,6.409,45.731-2.347,13.7-9.206,34.715-14.206,50.061-3.113,9.579-5.565,17.089-6.112,20.183-.958,5.211.067,8.391,1.839,14.168.958,3.18,2.184,7.127,3.429,12.587,2.97,13.066,3.832,54.247,3.832,54.659Zm-19.906-.958H337.4c-.105-4.7-1.044-41.775-3.832-53.979-1.226-5.422-2.443-9.359-3.41-12.52-1.753-5.748-2.816-9.177-1.858-14.618.546-3.152,3.017-10.719,6.14-20.308,4.991-15.327,11.83-36.3,14.168-49.927,3.429-20.011-4.9-41.65-6.179-44.8-3.947,1.073-31.218,7.663-34.772,8.506-.565,6.4-8.736,98.33-9.263,110.668C297.88,373.6,316.876,433.372,318.476,438.4Z" transform="translate(-43.562 -73.95)" fill="#263238"/>
              <path id="Tracé_709" data-name="Tracé 709" d="M281.52,266.49a5.8,5.8,0,0,1,.738.067,17.521,17.521,0,0,1,1.916.469,25.36,25.36,0,0,1,6.083,2.673,26.3,26.3,0,0,1,5.211,4.129,19.729,19.729,0,0,1,1.322,1.523c.287.374.441.594.412.613s-.747-.738-1.973-1.916a30.568,30.568,0,0,0-11.16-6.705C282.526,266.806,281.5,266.567,281.52,266.49Z" transform="translate(-42.892 -75.02)" fill="#455a64"/>
              <path id="Tracé_710" data-name="Tracé 710" d="M328.293,266.519c0,.1-1.638-.057-4.253.1a35.251,35.251,0,0,0-4.56.556,39.828,39.828,0,0,0-5.422,1.475,38.463,38.463,0,0,0-5.115,2.309,35.518,35.518,0,0,0-3.88,2.452c-2.117,1.552-3.276,2.7-3.343,2.634a5.01,5.01,0,0,1,.776-.853c.259-.259.584-.575.958-.91s.843-.747,1.37-1.14a32.546,32.546,0,0,1,3.832-2.577,33.416,33.416,0,0,1,10.681-3.832,30.38,30.38,0,0,1,4.617-.469h1.791a12.512,12.512,0,0,1,1.341.077A5.148,5.148,0,0,1,328.293,266.519Z" transform="translate(-43.742 -75.01)" fill="#455a64"/>
              <g id="Groupe_19" data-name="Groupe 19" transform="translate(228.119 237.498)" opacity="0.3">
                <path id="Tracé_711" data-name="Tracé 711" d="M273.194,329.11c.048.153,64.181,0,64.181,0l4.387-14.57H288.224l-17.674,4.569Z" transform="translate(-270.55 -314.54)"/>
              </g>
              <path id="Tracé_712" data-name="Tracé 712" d="M310.068,121.41a9.2,9.2,0,0,1-.786-12.664,6.495,6.495,0,0,1-.91-9.234,8.621,8.621,0,0,1,1.456-13.219L311.1,70.784c3.171-3.765,7.089-1.83,7.979-.412a7.481,7.481,0,0,1,9.244,8.094,8.688,8.688,0,0,1,3.64,13.085,10.537,10.537,0,0,1,5.748,14.062,6.993,6.993,0,0,1,4.742,11.706,5.412,5.412,0,0,1-4.023,9.522,7.031,7.031,0,0,1-11.792,4.406,6.705,6.705,0,0,1-11.275.067,5.642,5.642,0,0,1-5.316-9.9Z" transform="translate(-43.92 -66.692)" fill="#000032"/>
              <path id="Tracé_713" data-name="Tracé 713" d="M316.845,80.39c2.989.489,3.918,2.7,4.79,4.531,1.916,3.937,1.4,10.269-.364,14.263s-4,6.246-8.19,7.51q-1.7-9.8-3.4-19.6Z" transform="translate(-44.077 -67.189)" fill="#6ec2d9"/>
              <path id="Tracé_714" data-name="Tracé 714" d="M318.393,90.863a6.878,6.878,0,0,0-1.916-8.621c1.015-1.753.2-4.1-1.3-5.46a13.554,13.554,0,0,0-5.451-2.519,9.282,9.282,0,0,0-11.706-5.067c-2.874-3.123-8.027-2.874-11.9-1.111a10.94,10.94,0,0,1-2.874,1.111,16.61,16.61,0,0,1-2.289,0c-4.205.077-7.855,3.592-8.87,7.663a8.264,8.264,0,0,1-.6,1.916,10.662,10.662,0,0,1-1.791,1.916,6.639,6.639,0,0,0-1.782,5.24c.172,1.609.958,3.228.488,4.79-.22.785-.747,1.466-.891,2.261-.431,2.309,2.347,4.186,2.242,6.533a11.636,11.636,0,0,1-.22,1.427,4.09,4.09,0,0,0,.671,2.8,5.845,5.845,0,0,1,1.207,1.916,6.906,6.906,0,0,1-.077,1.715c-.077,1.4,3.659,6.207,4.943,6.763l35.156-4.991a6.705,6.705,0,0,0,4.224-6.437,2.356,2.356,0,0,1,.134-1.341,2.873,2.873,0,0,1,.862-.766c2.079-1.561,1.916-4.713,1.255-7.232a3.155,3.155,0,0,1-.144-1.073A4.041,4.041,0,0,1,318.393,90.863Z" transform="translate(-42.301 -66.617)" fill="#000032"/>
              <path id="Tracé_715" data-name="Tracé 715" d="M308.488,92.873a19.044,19.044,0,0,0-12.472-14.915,23.68,23.68,0,0,0-9.311-.8,14.426,14.426,0,0,0-8.027,3.017c-1.868.747-7.979,8.334-7.28,15.442.786,7.9,2.05,17.511,3.928,23.2,3.774,11.428,13.009,11.5,13.009,11.5l2.127,19.628,19.494,11.572,3.324-23.594Z" transform="translate(-42.464 -67.046)" fill="#ffead9"/>
              <path id="Tracé_716" data-name="Tracé 716" d="M310.268,162.235l-20.327-12.07v-.239s-1.782-16.447-2.079-19.225c-1.916-.192-9.665-1.561-13.028-11.763-1.916-5.863-3.219-15.9-3.947-23.3-.709-7.175,5.307-14.905,7.5-15.9a14.714,14.714,0,0,1,8.257-3.065l.958-.048a21.87,21.87,0,0,1,8.487.872A19.484,19.484,0,0,1,308.9,92.824h0l4.79,45.022v.057Zm-19.417-12.654,18.67,11.093,3.219-22.827-4.79-44.936A18.469,18.469,0,0,0,295.9,78.417a20.882,20.882,0,0,0-8.142-.833l-1.006.048a14.052,14.052,0,0,0-7.74,2.874l-.125.077c-1.571.632-7.663,7.932-6.983,14.953.728,7.347,1.992,17.319,3.9,23.1,3.621,10.939,12.194,11.121,12.558,11.131s.431-.048.8,3.487Z" transform="translate(-42.443 -67.026)" fill="#263238"/>
              <path id="Tracé_717" data-name="Tracé 717" d="M276.52,106.339a1.542,1.542,0,0,0,1.7,1.284,1.466,1.466,0,0,0,1.332-1.609,1.523,1.523,0,0,0-1.705-1.284,1.456,1.456,0,0,0-1.331,1.609Z" transform="translate(-42.682 -68.212)" fill="#263238"/>
              <path id="Tracé_718" data-name="Tracé 718" d="M275,100.577c.22.172,1.226-.862,2.874-1.121s2.931.354,3.075.134-.172-.431-.747-.718a4.205,4.205,0,0,0-2.51-.354,4.062,4.062,0,0,0-2.222,1.14C275,100.127,274.873,100.51,275,100.577Z" transform="translate(-42.616 -67.949)" fill="#263238"/>
              <path id="Tracé_719" data-name="Tracé 719" d="M286.809,111.814a10.534,10.534,0,0,0-2.7,0c-.421,0-.824,0-.958-.268a2.04,2.04,0,0,1,.077-1.264c.22-1.063.46-2.184.709-3.353.958-4.79,1.59-8.621,1.4-8.679s-1.13,3.832-2.1,8.545c-.23,1.178-.45,2.289-.651,3.362a2.366,2.366,0,0,0,.048,1.657,1.063,1.063,0,0,0,.776.5,2.871,2.871,0,0,0,.718,0A10.586,10.586,0,0,0,286.809,111.814Z" transform="translate(-42.932 -67.94)" fill="#263238"/>
              <path id="Tracé_720" data-name="Tracé 720" d="M289.08,132.313a30.4,30.4,0,0,0,15.087-6.763s-2.874,8.957-14.762,9.771Z" transform="translate(-43.211 -69.089)" fill="#000032"/>
              <path id="Tracé_721" data-name="Tracé 721" d="M275,93.646c.335.354,1.533-.115,3-.23s2.73.077,3-.335c.115-.2-.115-.556-.68-.872a4.406,4.406,0,0,0-2.481-.45,4.349,4.349,0,0,0-2.347.91C275,93.081,274.844,93.473,275,93.646Z" transform="translate(-42.616 -67.666)" fill="#263238"/>
              <path id="Tracé_722" data-name="Tracé 722" d="M295.078,103.687a1.523,1.523,0,0,1-1.265,1.705,1.456,1.456,0,0,1-1.734-1.169,1.523,1.523,0,0,1,1.264-1.705,1.456,1.456,0,0,1,1.734,1.169Z" transform="translate(-43.336 -68.119)" fill="#263238"/>
              <path id="Tracé_723" data-name="Tracé 723" d="M297.955,97.513c-.172.22-1.418-.489-3.046-.278s-2.72,1.169-2.922.958.048-.46.527-.9a4.187,4.187,0,0,1,2.3-1.044,3.956,3.956,0,0,1,2.452.469C297.821,97.072,298.031,97.408,297.955,97.513Z" transform="translate(-43.33 -67.855)" fill="#263238"/>
              <path id="Tracé_724" data-name="Tracé 724" d="M296.936,90.873c-.278.412-1.581.182-3.094.354s-2.759.594-3.094.249c-.153-.172,0-.575.517-.958a4.962,4.962,0,0,1,4.981-.489C296.83,90.317,297.051,90.672,296.936,90.873Z" transform="translate(-43.278 -67.575)" fill="#263238"/>
              <path id="Tracé_725" data-name="Tracé 725" d="M310,105.333c-.144-.872.537-3.094,1.379-3.372,2.242-.738,6.428-1.226,7.414,4.617,1.36,7.989-6.945,7.663-6.993,7.481S310.526,108.35,310,105.333Z" transform="translate(-44.09 -68.078)" fill="#ffead9"/>
              <path id="Tracé_726" data-name="Tracé 726" d="M313.683,110.881a3.887,3.887,0,0,0,.412.144,1.457,1.457,0,0,0,1.044-.163c.785-.45,1.274-1.916,1.063-3.353a4.606,4.606,0,0,0-.728-1.916,1.638,1.638,0,0,0-1.226-.891.735.735,0,0,0-.757.939c0,.019-.191-.105-.191-.45a.891.891,0,0,1,.23-.546,1.082,1.082,0,0,1,.738-.335,1.992,1.992,0,0,1,1.667.958,4.876,4.876,0,0,1,.862,2.146c.22,1.619-.345,3.267-1.447,3.832a1.513,1.513,0,0,1-1.312,0C313.731,111.073,313.654,110.9,313.683,110.881Z" transform="translate(-44.23 -68.195)" fill="#263238"/>
              <path id="Tracé_727" data-name="Tracé 727" d="M269.563,95.833a4.7,4.7,0,0,0,1.849-4.7c1.13.144,1.992-1.408,2.462-2.443s1.169-1.619.958-2.73a1.291,1.291,0,0,1,0-.661c.115-.335.479-.5.795-.651a5.4,5.4,0,0,0,2.874-4.3,11.438,11.438,0,0,0,5.633,0,4.4,4.4,0,0,0,7.28-1.5,3.966,3.966,0,0,0,2.874,1.494,11.629,11.629,0,0,0,3.343-.364,4.665,4.665,0,0,0,3.832,4.713.977.977,0,0,1,.824.316,1.149,1.149,0,0,1,0,.958,3.659,3.659,0,0,0,3.161,4.205,2.74,2.74,0,0,0,.958,4.186c.316.125.738.278.747.623a.868.868,0,0,1-.125.364,5.307,5.307,0,0,0-.833,2.874,1.916,1.916,0,0,0,1.916,1.916,2.6,2.6,0,0,0-.737,1.916c.105.7.958,1.293,1.533.958.259-.153,4.11-1.581,4.253-1.849,1.763-3.439-1.638-6.37-2.481-10.144a25.126,25.126,0,0,0-5.134-10.355,18.118,18.118,0,0,0-3.458-3.391,24.144,24.144,0,0,0-4.924-2.529,22.48,22.48,0,0,0-6.916-2.021c-4.483-.316-8.717,1.983-12.453,4.493a19.253,19.253,0,0,0-3.928,3.267,17.135,17.135,0,0,0-2.874,5.374,21.579,21.579,0,0,0-1.571,8.621" transform="translate(-42.383 -66.864)" fill="#000032"/>
              <path id="Tracé_728" data-name="Tracé 728" d="M267.46,93.029a3.243,3.243,0,0,1,.287-.958c.134-.287.316-.642.479-1.073a3.64,3.64,0,0,0,.211-1.571,11.212,11.212,0,0,0-.354-1.973,8.763,8.763,0,0,1-.316-2.385,6.707,6.707,0,0,1,.642-2.692,6.515,6.515,0,0,1,.8-1.284,9.658,9.658,0,0,1,1.111-1.149,4.849,4.849,0,0,0,1.044-1.245,6.241,6.241,0,0,0,.517-1.628,10.872,10.872,0,0,1,4.167-6.255,9.34,9.34,0,0,1,1.81-1.035,8.317,8.317,0,0,1,2.06-.575,10.544,10.544,0,0,1,1.092-.1h1.1a5.116,5.116,0,0,0,2.136-.345c.69-.259,1.351-.623,2.06-.958a15.754,15.754,0,0,1,2.2-.766,13.8,13.8,0,0,1,2.347-.393,11.985,11.985,0,0,1,2.414.048,7.98,7.98,0,0,1,4.454,2.012l.364.345h-.134A9.407,9.407,0,0,1,309.81,74.2l-.077-.067a24.718,24.718,0,0,1,3.046,1.025,8.514,8.514,0,0,1,2.615,1.686,5.6,5.6,0,0,1,1.485,2.6,3.832,3.832,0,0,1-.326,2.874v-.134a6.705,6.705,0,0,1,2.5,3.832,6.925,6.925,0,0,1-.192,4.109,6.69,6.69,0,0,1-.412.881,8.115,8.115,0,0,0-.431.8,1.848,1.848,0,0,0-.163.833,4.788,4.788,0,0,0,.163.824,14.03,14.03,0,0,1,.4,3.056A6.62,6.62,0,0,1,318,98.94a3.954,3.954,0,0,1-1.035,1.5c-.373.335-.718.5-.9.68a3.291,3.291,0,0,0-.249.287,1.024,1.024,0,0,1,.23-.307c.172-.192.527-.364.881-.709a3.976,3.976,0,0,0,.958-1.485,6.3,6.3,0,0,0,.383-2.4,13.257,13.257,0,0,0-.422-3.017,4.784,4.784,0,0,1-.163-.853,1.856,1.856,0,0,1,.163-.9c.124-.287.287-.546.441-.824a7.652,7.652,0,0,0,.393-.853,6.705,6.705,0,0,0,.163-4A6.551,6.551,0,0,0,316.4,82.31l-.067-.048v-.086a3.62,3.62,0,0,0,.307-2.673,5.43,5.43,0,0,0-1.437-2.491,8.387,8.387,0,0,0-2.558-1.628,24.237,24.237,0,0,0-3.017-1.015h0a9.167,9.167,0,0,0-11.543-5h-.067l-.067-.057-.345-.335a7.807,7.807,0,0,0-4.32-1.916,12.239,12.239,0,0,0-2.366-.048,14.042,14.042,0,0,0-2.3.383,13.884,13.884,0,0,0-2.174.757c-.7.3-1.36.671-2.079.958a5.345,5.345,0,0,1-1.1.3,7.333,7.333,0,0,1-1.121.057h-1.092a9.944,9.944,0,0,0-1.063.086,8.381,8.381,0,0,0-2,.556,8.925,8.925,0,0,0-1.772,1.006,10.7,10.7,0,0,0-4.11,6.159,6.642,6.642,0,0,1-.536,1.667,4.912,4.912,0,0,1-1.092,1.284,10.977,10.977,0,0,0-1.1,1.121,7,7,0,0,0-.786,1.255,6.581,6.581,0,0,0-.651,2.634,8.729,8.729,0,0,0,.3,2.357,11.857,11.857,0,0,1,.335,1.992,3.754,3.754,0,0,1-.24,1.6c-.172.431-.364.776-.5,1.063a5.589,5.589,0,0,0-.268.671Z" transform="translate(-42.301 -66.609)" fill="#455a64"/>
              <path id="Tracé_729" data-name="Tracé 729" d="M292.523,113.61c-.24,0-.3,1.533-1.676,2.6s-3.027.824-3.046,1.044.364.316,1.063.364a3.832,3.832,0,0,0,2.539-.785,3.382,3.382,0,0,0,1.3-2.184C292.781,113.984,292.628,113.6,292.523,113.61Z" transform="translate(-43.157 -68.587)" fill="#263238"/>
              <path id="Tracé_730" data-name="Tracé 730" d="M336.7,171.9v-.172l16.582,12.453,18-17.358s-20.471-17.951-23.364-20.863c-4.531-4.55-12.031-6.638-12.031-6.638l-22.118-5.556s-.46,11.15-9,15.873c0,0,6.236,50.32,6.006,60.627s.46,70.445.46,70.445,29.427-6.859,37.2-11.035l5.01-2.8c-3.468-19.685-9.685-36.66-14.637-52.8Z" transform="translate(-43.87 -69.435)" fill="#5da2f0"/>
              <path id="Tracé_731" data-name="Tracé 731" d="M310.716,281.252v-.594c0-.6-.689-60.253-.46-70.465s-5.939-60.052-6.006-60.55v-.326l.278-.153c8.209-4.541,8.765-15.327,8.765-15.48V133.1l22.684,5.652c.326.1,7.663,2.184,12.252,6.772,2.874,2.874,23.143,20.653,23.345,20.835l.393.345L353.3,184.732,337.2,172.672l2.05,41.191c1.073,3.5,2.184,6.954,3.353,10.623,4.205,13.152,8.554,26.755,11.275,42.148l.058.335-5.307,2.969c-7.74,4.167-36.114,10.805-37.359,11.083Zm-5.489-131.417c.536,4.311,6.2,50.578,5.977,60.349-.22,9.637.383,63.52.45,69.823,4.167-.958,29.475-7.069,36.5-10.853l4.7-2.634c-2.7-15.221-7.012-28.738-11.179-41.717-1.178-3.688-2.3-7.165-3.372-10.681V214L336.2,171.675v-.958l17.041,12.769,17.329-16.725c-2.931-2.567-20.308-17.827-22.99-20.538-4.378-4.4-11.744-6.495-11.811-6.514L314.212,134.3c-.249,2.385-1.581,11.246-8.966,15.537Z" transform="translate(-43.849 -69.407)" fill="#263238"/>
              <path id="Tracé_732" data-name="Tracé 732" d="M301.958,149.761c-7.9-.766-11.773-4.129-14.512-12.281-.814.747-19.264,9.388-23.948,11.562v-.048a5.983,5.983,0,0,0-.69.374l-.364.172v.057c-1.628,1.1-4.991,4.014-8.736,11.045-3.621,6.782-14.829,31.813-15.528,33.173l20,12.175,12.031-22.4,5.4,23.708s-14.781,41.775-16.629,51.728v9.685l49.438,12.156V170.931Z" transform="translate(-41.069 -69.591)" fill="#5da2f0"/>
              <path id="Tracé_733" data-name="Tracé 733" d="M308.867,281.41l-50.386-12.4V258.956c1.791-9.646,15.7-49.122,16.61-51.728L270,184.88l-11.667,21.745-20.8-12.664.2-.4c.2-.374,1.255-2.7,2.73-5.929,3.832-8.372,10.212-22.377,12.8-27.243,3.592-6.705,6.849-9.761,8.621-11.035v-.057l.345-.22.354-.172a4.633,4.633,0,0,1,.718-.383l.527-.211h0c10.4-4.857,22.54-10.614,23.268-11.227l.536-.46.239.661c2.721,8.075,6.418,11.208,14.11,11.964h.316l6.562,21.649Zm-49.429-13.143,48.471,11.926V170.99l-6.351-20.8c-7.663-.824-11.629-4.129-14.369-12.012-2.941,1.657-15.652,7.663-23.469,11.275l-.536.259h0l-.115.067-.211.1-.125.115c-1.628,1.1-4.9,3.975-8.621,10.882-2.577,4.79-8.966,18.833-12.779,27.2-1.245,2.73-2.155,4.713-2.558,5.566l19.158,11.687,12.4-23.076,5.748,25.088v.134c-.144.422-14.79,41.852-16.61,51.613Z" transform="translate(-41.042 -69.555)" fill="#263238"/>
              <path id="Tracé_734" data-name="Tracé 734" d="M272.782,189.8c-.125,0-2.155-6.064-4.531-13.622s-4.2-13.737-4.062-13.775,2.165,6.054,4.531,13.622S272.916,189.72,272.782,189.8Z" transform="translate(-42.163 -70.64)" fill="#263238"/>
              <path id="Tracé_735" data-name="Tracé 735" d="M346.109,149.32c.134,0-.105,7.366-.536,16.438s-.9,16.428-1.044,16.419.105-7.366.546-16.438S345.936,149.31,346.109,149.32Z" transform="translate(-45.542 -70.089)" fill="#263238"/>
              <g id="Groupe_20" data-name="Groupe 20" transform="translate(231.922 135.949)" opacity="0.3">
                <path id="Tracé_736" data-name="Tracé 736" d="M335.779,209.938a3.43,3.43,0,0,0-2.251-.814,113.407,113.407,0,0,0-48.978,5.747l-10.029,3.995c2.51,3.563,7.529,4,11.888,3.956a185.5,185.5,0,0,0,38.173-4.406c3.678-.814,7.51-1.839,10.24-4.435C335.932,212.9,336.8,211.069,335.779,209.938Z" transform="translate(-274.52 -208.53)" fill="#101c51"/>
              </g>
              <path id="Tracé_737" data-name="Tracé 737" d="M371.576,169.9c.383.958,14.474,14.369,16.754,19.283s3.573,12.7-2.692,16.285-34.638-5.6-34.638-5.6l1.916-12.846,14.829,2.586-9.579-6.705Z" transform="translate(-45.816 -70.955)" fill="#ffead9"/>
              <path id="Tracé_738" data-name="Tracé 738" d="M380.982,206.647c-10.087,0-29.2-6.159-30.165-6.476l-.287-.086,1.983-13.516,13.622,2.385-8.621-6.054,14.158-13.66.192.489c.163.307,1.83,2.031,3.592,3.832,4.608,4.79,11.581,11.984,13.162,15.432,2.654,5.748,3.3,13.219-2.874,16.754a10.107,10.107,0,0,1-4.761.9Zm-29.7-7.06c3.008.958,28.4,8.851,34.121,5.556,7.386-4.253,3.41-13.938,2.539-15.834-1.533-3.334-8.727-10.777-13.028-15.221-1.992-2.069-3.008-3.123-3.448-3.669l-12.827,12.4,10.537,7.4L353.126,187.4Z" transform="translate(-45.796 -70.928)" fill="#263238"/>
              <path id="Tracé_739" data-name="Tracé 739" d="M381.635,194.782c-.057.057-.632-.565-1.686-1.37a15.5,15.5,0,0,0-9.675-3.209c-1.332,0-2.155.172-2.175.086a6.143,6.143,0,0,1,2.155-.441,13.888,13.888,0,0,1,5.288.661,13.649,13.649,0,0,1,4.627,2.625A5.6,5.6,0,0,1,381.635,194.782Z" transform="translate(-46.536 -71.793)" fill="#263238"/>
              <path id="Tracé_740" data-name="Tracé 740" d="M338.225,171.636l-.105-.958c2.462-.268,2.548-.268,2.6-.268v.958S340.333,171.4,338.225,171.636Z" transform="translate(-45.274 -70.977)" fill="#263238"/>
              <path id="Tracé_741" data-name="Tracé 741" d="M316.515,174.031l-.115-.958s12.453-1.446,19.206-2.2l.105.958C329.006,172.585,316.515,174.031,316.515,174.031Z" transform="translate(-44.36 -70.996)" fill="#263238"/>
              <rect id="Rectangle_42" data-name="Rectangle 42" width="22.195" height="0.958" transform="matrix(0.992, -0.125, 0.125, 0.992, 272.963, 105.137)" fill="#263238"/>
              <path id="Tracé_742" data-name="Tracé 742" d="M239.837,316.65c.077.115-37.541,22.032-83.99,48.854s-84.182,48.567-84.3,48.452,37.531-22.032,84-48.854S239.77,316.525,239.837,316.65Z" transform="translate(-34.057 -77.131)" fill="#263238"/>
              <path id="Tracé_743" data-name="Tracé 743" d="M69.83,320.71c.067-.115,38.643,21.515,86.155,48.308s85.983,48.624,85.916,48.72-38.633-21.505-86.213-48.308S69.763,320.834,69.83,320.71Z" transform="translate(-33.984 -77.301)" fill="#263238"/>
              <rect id="Rectangle_43" data-name="Rectangle 43" width="8.928" height="144.742" transform="translate(30.347 241.263)" fill="#575757"/>
              <path id="Tracé_744" data-name="Tracé 744" d="M73.476,463.671H63.59V318h9.886Zm-8.928-.958h7.97V318.958h-7.97Z" transform="translate(-33.722 -77.187)" fill="#263238"/>
              <path id="Tracé_745" data-name="Tracé 745" d="M413.9,316.65c.077.115-37.531,22.032-83.99,48.854s-84.173,48.567-84.3,48.452,37.541-22.032,84-48.854S413.83,316.525,413.9,316.65Z" transform="translate(-41.381 -77.131)" fill="#263238"/>
              <path id="Tracé_746" data-name="Tracé 746" d="M243.89,320.71c.067-.115,38.643,21.515,86.155,48.308s85.983,48.624,85.916,48.72S377.328,396.232,329.8,369.43,243.823,320.834,243.89,320.71Z" transform="translate(-41.309 -77.301)" fill="#263238"/>
              <rect id="Rectangle_44" data-name="Rectangle 44" width="8.928" height="155.442" transform="translate(201.317 230.563)" fill="#575757"/>
              <path id="Tracé_747" data-name="Tracé 747" d="M251.965,463.2h-9.9V306.8h9.9Zm-8.937-.958h7.979V307.758h-7.979Z" transform="translate(-41.232 -76.716)" fill="#263238"/>
              <rect id="Rectangle_45" data-name="Rectangle 45" width="8.928" height="143.927" transform="translate(368.359 242.077)" fill="#575757"/>
              <path id="Tracé_748" data-name="Tracé 748" d="M426.345,463.705h-9.9V318.82h9.9Zm-8.937-.958h7.98V319.778h-7.98Z" transform="translate(-48.57 -77.222)" fill="#263238"/>
              <path id="Tracé_749" data-name="Tracé 749" d="M106.581,320.814H43.147A10.537,10.537,0,0,1,32.61,310.277h0A10.537,10.537,0,0,1,43.147,299.74h63.433a10.537,10.537,0,0,1,10.537,10.537h0A10.537,10.537,0,0,1,106.581,320.814Z" transform="translate(-32.418 -76.419)" fill="#e0e0e0"/>
              <path id="Tracé_750" data-name="Tracé 750" d="M106.572,320.794l.5-.048.613-.048.833-.134a10.417,10.417,0,0,0,2.625-19.59,9.857,9.857,0,0,0-3.132-.958,27.656,27.656,0,0,0-3.477-.1H43.187a10.288,10.288,0,0,0-4.167,19.7c2.711,1.312,5.748.776,8.621.891l30.653.057,20.691.077,5.623.048H98.985l-20.691.086-30.653.048H43.234a10.777,10.777,0,0,1-.1-21.553h61.393a26.889,26.889,0,0,1,3.525.115,10.266,10.266,0,0,1,3.247,1.006,10.642,10.642,0,0,1,2.28,17.587,10.393,10.393,0,0,1-5.048,2.414l-.843.115h-.613Z" transform="translate(-32.41 -76.399)" fill="#263238"/>
              <path id="Tracé_751" data-name="Tracé 751" d="M430.166,320.814h-74a10.537,10.537,0,0,1-10.537-10.537h0a10.537,10.537,0,0,1,10.537-10.537h74A10.537,10.537,0,0,1,440.7,310.277h0A10.537,10.537,0,0,1,430.166,320.814Z" transform="translate(-45.59 -76.419)" fill="#e0e0e0"/>
              <path id="Tracé_752" data-name="Tracé 752" d="M430.158,320.8a21.562,21.562,0,0,0,2.155-.268,10.787,10.787,0,0,0,5.326-2.989,10.536,10.536,0,0,0,2.318-3.774,10.42,10.42,0,0,0-2.223-10.575,10.714,10.714,0,0,0-2.605-2.021,10.539,10.539,0,0,0-3.286-1.111,22.094,22.094,0,0,0-3.678-.144H356.149a10.286,10.286,0,0,0-1.226,20.5,21.13,21.13,0,0,0,2.471.086h7.338l34.044.057,22.99.077,6.236.048h-6.236l-22.99.086-34.025.278h-7.338a22.348,22.348,0,0,1-2.519-.077,11,11,0,0,1-4.79-1.81,10.777,10.777,0,0,1,6.1-19.666h72.016a23.081,23.081,0,0,1,3.736.163,11.2,11.2,0,0,1,3.391,1.169,10.931,10.931,0,0,1,2.673,2.1,10.16,10.16,0,0,1,1.81,2.663,10,10,0,0,1,.9,2.874,10.554,10.554,0,0,1-8.315,12.118,9.867,9.867,0,0,1-1.619.172Z" transform="translate(-45.581 -76.408)" fill="#263238"/>
              <path id="Tracé_753" data-name="Tracé 753" d="M325.569,320.814H131.2a10.537,10.537,0,0,1-10.537-10.537h0A10.537,10.537,0,0,1,131.2,299.74H325.569a10.537,10.537,0,0,1,10.537,10.537h0A10.537,10.537,0,0,1,325.569,320.814Z" transform="translate(-36.123 -76.419)" fill="#e0e0e0"/>
              <path id="Tracé_754" data-name="Tracé 754" d="M325.558,320.8a11.141,11.141,0,0,0,4.454-1.054,10.441,10.441,0,0,0,.853-18.43,10.337,10.337,0,0,0-5.144-1.446h-33.7l-160.816.105a10.288,10.288,0,0,0-3.985,19.791,10.776,10.776,0,0,0,2.673.7,24.525,24.525,0,0,0,2.8.086h53.9l72.3.057,48.748.077,13.248.048H307.644l-48.748.086-72.3.048-42.627.182H132.738a26.057,26.057,0,0,1-2.874-.086,11.322,11.322,0,0,1-2.807-.728,10.777,10.777,0,0,1-5.537-14.752,9.943,9.943,0,0,1,1.676-2.452,10.181,10.181,0,0,1,2.28-1.916,10.891,10.891,0,0,1,5.747-1.629l160.825.067h33.7a10.608,10.608,0,0,1,1.015,21.151A8.754,8.754,0,0,1,325.558,320.8Z" transform="translate(-36.112 -76.408)" fill="#263238"/>
              <path id="Tracé_755" data-name="Tracé 755" d="M262.059,218.771c14.091-2.874,27.694-4.79,36.918-6.476s18.3-2.874,18.3-2.874V190.416c.125,0-64.324-2.606-83.77-3.468a21.735,21.735,0,0,0-12.309,3.065c-5.192,3.161-10.949,9.052-8.746,19.11,2.107,9.627,21.726,52.341,21.726,52.341l45.2-2.165-31.42-42.522C251.13,217.3,258.1,219.566,262.059,218.771Z" transform="translate(-39.966 -71.672)" fill="#000032"/>
              <path id="Tracé_756" data-name="Tracé 756" d="M236.27,203.75a2.632,2.632,0,0,1,.786.2,15.247,15.247,0,0,1,2.012.833,21.7,21.7,0,0,1,9.981,10.135,15.754,15.754,0,0,1,.8,2.031c.153.488.22.766.182.776s-.46-1.044-1.3-2.653a24.234,24.234,0,0,0-9.847-9.972C237.314,204.229,236.241,203.836,236.27,203.75Z" transform="translate(-40.988 -72.38)" fill="#263238"/>
              <path id="Tracé_757" data-name="Tracé 757" d="M265.452,242.5c-5.824-1.782-45.674-11.8-46.373-7.663s15.25,28.853,15.25,28.853l.556,8.1,51.182-5.364S271.276,244.291,265.452,242.5Z" transform="translate(-40.264 -73.646)" fill="#000032"/>
              <path id="Tracé_758" data-name="Tracé 758" d="M249.519,205s-2.634-.172-2.251,3a54.123,54.123,0,0,0,1.667,7.366l2.28,3.429s3.238-.134,2.634-2.874S249.519,205,249.519,205Z" transform="translate(-41.45 -72.432)" fill="#ffead9"/>
              <path id="Tracé_759" data-name="Tracé 759" d="M252.147,200.772a1.236,1.236,0,0,0-1.341-.623,1.753,1.753,0,0,0-1.331,1.274,7.07,7.07,0,0,0,.556,4.33l3.985,10.6-3.276,2.175,4.109,6.188s7.462-.307,9.522-3.286-.249-10.7-.249-10.7-3.5-5.882-4.588-5.853a10.2,10.2,0,0,0-1.542.105s-2-4.311-3.621-4.349-1.849.824-1.849.824Z" transform="translate(-41.539 -72.227)" fill="#ffead9"/>
              <path id="Tracé_760" data-name="Tracé 760" d="M249.56,205.34a9.156,9.156,0,0,1,.958,1.916c.546,1.188,1.264,2.874,2.04,4.694a19.967,19.967,0,0,1,.958,2.672,3.2,3.2,0,0,1-.249,2.385,2.1,2.1,0,0,1-1.264.958.834.834,0,0,1-.594,0,1.361,1.361,0,0,0,.536-.153,2.078,2.078,0,0,0,1.015-.958,2.873,2.873,0,0,0,.105-2.1,24.139,24.139,0,0,0-.958-2.6c-.776-1.839-1.446-3.525-1.916-4.79A8.623,8.623,0,0,1,249.56,205.34Z" transform="translate(-41.548 -72.447)" fill="#263238"/>
              <path id="Tracé_761" data-name="Tracé 761" d="M257.879,215.609a11.085,11.085,0,0,1-.757-2.088c-.422-1.293-1.025-3.075-1.743-5.029s-1.446-3.678-1.973-4.943a10.75,10.75,0,0,1-.786-2.069,8.931,8.931,0,0,1,1.111,1.916c.6,1.226,1.379,2.96,2.117,4.914a51.259,51.259,0,0,1,1.609,5.106A8.383,8.383,0,0,1,257.879,215.609Z" transform="translate(-41.676 -72.284)" fill="#263238"/>
              <path id="Tracé_762" data-name="Tracé 762" d="M261.664,214.378a.764.764,0,0,1-.278-.077h0v-.057a22.988,22.988,0,0,0-.958-4.56,36.939,36.939,0,0,0-2.1-4.464,9.579,9.579,0,0,1,2.558,4.292,11.581,11.581,0,0,1,.623,4.722v-.067C261.616,214.282,261.673,214.349,261.664,214.378Z" transform="translate(-41.917 -72.442)" fill="#263238"/>
              <path id="Tracé_763" data-name="Tracé 763" d="M345.8,175.561c1.188-3.4,1.983-7.175.766-10.537-.488-1.37-1.494-2.759-2.941-2.874a3.506,3.506,0,0,0-3.1,1.753,17.924,17.924,0,0,0-1.513,3.42,31.334,31.334,0,0,1-4.79,7.376c-3.152,3.994-4,12.549-17.7,14.56v19.877c6.389-1.466,13.976-.431,20.519-.469,1.858,0,3.9-.172,5.24-1.456a6.361,6.361,0,0,0,1.628-4.014c.6-5.748-1.916-11.562-1.284-17.338C343.016,182.285,344.606,178.961,345.8,175.561Z" transform="translate(-44.365 -70.629)" fill="#fff"/>
              <path id="Tracé_764" data-name="Tracé 764" d="M316,209.718V188.807l.4-.057c10.393-1.533,13.171-6.82,15.413-11.064a21.324,21.324,0,0,1,1.992-3.324,30.906,30.906,0,0,0,4.723-7.261c.124-.307.239-.623.354-.958a12.308,12.308,0,0,1,1.2-2.577,4.033,4.033,0,0,1,3.554-1.916c1.427.153,2.673,1.36,3.343,3.228,1.379,3.832.23,8.056-.766,10.892-.3.853-.623,1.7-.958,2.548a32.148,32.148,0,0,0-2.213,7.663,32,32,0,0,0,.632,8.621,33.01,33.01,0,0,1,.651,8.746,6.705,6.705,0,0,1-1.763,4.32c-1.446,1.37-3.535,1.571-5.566,1.58s-3.937-.067-6.045-.153c-4.885-.2-9.943-.412-14.369.613Zm.958-20.116V208.54c4.416-.9,9.311-.7,14.043-.508,2.1.086,4.062.163,6,.153s3.707-.172,4.914-1.322a5.748,5.748,0,0,0,1.475-3.717,32.047,32.047,0,0,0-.642-8.487,32.265,32.265,0,0,1-.642-8.851,32.357,32.357,0,0,1,2.27-7.884c.316-.833.642-1.676.958-2.519,1.494-4.282,1.743-7.539.766-10.25-.2-.565-.958-2.433-2.539-2.6a3.113,3.113,0,0,0-2.663,1.533,11.21,11.21,0,0,0-1.092,2.376c-.124.326-.24.651-.374.958a31.5,31.5,0,0,1-4.847,7.491,21.459,21.459,0,0,0-1.916,3.18c-2.174,4.138-5.173,9.809-15.71,11.485Z" transform="translate(-44.343 -70.608)" fill="#3c3c3c"/>
              <path id="Tracé_765" data-name="Tracé 765" d="M343.454,184.34l-4.339,2.347s-13-.182-13.411,3.209v1.312h0a2.2,2.2,0,0,0-1.6,3.908,1.124,1.124,0,0,0,.383.239c.287,0-.45,1.791.872,2.73s5.182,1.322,5.182,1.322a5.05,5.05,0,0,0,.182,2.874c.565,1.035,4.9,2.069,6.5,1.791a36.954,36.954,0,0,0,4.895-1.609l8.2-1.916,2.069-12.625Z" transform="translate(-44.65 -71.563)" fill="#ffead9"/>
              <path id="Tracé_766" data-name="Tracé 766" d="M336.588,204.409c-1.983,0-5.585-.958-6.188-2.021a4.924,4.924,0,0,1-.287-2.682c-1.025-.125-3.832-.527-4.972-1.341a2.749,2.749,0,0,1-.958-2.606v-.153a2.7,2.7,0,0,1-.326-.23,2.5,2.5,0,0,1-.747-2.989,2.471,2.471,0,0,1,2.251-1.571v-.958c.393-3.583,11.888-3.583,13.641-3.563l4.4-2.395,9.378,3.755L350.612,200.8l-8.43,1.916a34.852,34.852,0,0,1-4.914,1.609A4.8,4.8,0,0,1,336.588,204.409Zm-12.031-9.426a.449.449,0,0,1,.23.124c.144.163.134.374.115.7a2.04,2.04,0,0,0,.661,1.973c1.217.872,4.962,1.245,5,1.255h.4l-.086.393a4.79,4.79,0,0,0,.153,2.577c.441.8,4.56,1.916,6.121,1.609a37.379,37.379,0,0,0,4.79-1.581l8.018-1.849,1.983-12.1-8.526-3.41-4.263,2.318h-.1c-4.9-.077-12.769.651-13.018,2.874v1.676h-.4a1.772,1.772,0,0,0-1.916,1.1,1.83,1.83,0,0,0,.536,2.165A1.637,1.637,0,0,0,324.557,194.983Z" transform="translate(-44.633 -71.545)" fill="#263238"/>
              <path id="Tracé_767" data-name="Tracé 767" d="M341.985,191a8.288,8.288,0,0,1-2.261.757,26.019,26.019,0,0,1-5.747.747,26.573,26.573,0,0,1-5.748-.5,8.788,8.788,0,0,1-2.289-.661,55.561,55.561,0,0,0,8.018.661A57,57,0,0,0,341.985,191Z" transform="translate(-44.762 -71.843)" fill="#263238"/>
              <path id="Tracé_768" data-name="Tracé 768" d="M340.653,196.479a10.252,10.252,0,0,1-2.366.173c-1.456,0-3.477,0-5.7-.048s-4.244-.249-5.7-.4a10.772,10.772,0,0,1-2.337-.364,12.066,12.066,0,0,1,2.366,0l5.69.249,5.69.2A10.916,10.916,0,0,1,340.653,196.479Z" transform="translate(-44.703 -72.044)" fill="#263238"/>
              <path id="Tracé_769" data-name="Tracé 769" d="M341.737,200.813A17.9,17.9,0,0,1,330.51,200c.048-.153,2.481.6,5.585.814S341.708,200.66,341.737,200.813Z" transform="translate(-44.954 -72.221)" fill="#263238"/>
              <path id="Tracé_770" data-name="Tracé 770" d="M38.791,267.113a5.086,5.086,0,0,1-1.686-5.633,6.935,6.935,0,0,1,1.552-8.411,6.188,6.188,0,0,1,6.5-8.382,5.163,5.163,0,0,1,9.321-3.037,4.962,4.962,0,0,1,9.186,3.63l-19.034,21.86A5.077,5.077,0,0,1,38.791,267.113Z" transform="translate(-32.574 -73.861)" fill="#263238"/>
              <path id="Tracé_771" data-name="Tracé 771" d="M64.707,244.937a21.074,21.074,0,0,0-22.53,17.568L42,263.578c-1.245,11.715,8.018,19.312,19.771,20.231l38.92,4.694,5.125-.785,28.632-15.26-21.524-9.2-10.393-1.983s.105-11.447-11.035-13.411C86.117,246.853,74.89,245.78,64.707,244.937Z" transform="translate(-32.809 -74.11)" fill="#eeae8c"/>
              <path id="Tracé_772" data-name="Tracé 772" d="M100.684,288.961h-.067L61.7,284.248c-6.811-.527-12.8-3.324-16.419-7.663A17.176,17.176,0,0,1,41.5,263.5l.182-1.1a21.668,21.668,0,0,1,23.048-17.97c13.286,1.111,22.32,2.079,26.822,2.874,10.2,1.81,11.294,11.409,11.409,13.5L113.1,262.79l22.444,9.579-29.7,15.777ZM62.961,245.318A20.729,20.729,0,0,0,42.625,262.56l-.172,1.073a16.285,16.285,0,0,0,3.563,12.348c3.458,4.148,9.206,6.82,15.767,7.328l38.882,4.684,4.981-.766,27.674-14.742L112.764,263.7l-10.748-2.1v-.4c0-.45,0-11.064-10.633-12.941-4.416-.786-13.66-1.782-26.745-2.874h0C64.082,245.347,63.517,245.318,62.961,245.318Z" transform="translate(-32.787 -74.089)" fill="#3c3c3c"/>
              <path id="Tracé_773" data-name="Tracé 773" d="M75.864,250.09a1.619,1.619,0,0,1,1.351,1.83,1.542,1.542,0,0,1-1.705,1.408,1.609,1.609,0,0,1-1.351-1.8,1.552,1.552,0,0,1,1.705-1.437Z" transform="translate(-34.166 -74.329)" fill="#263238"/>
              <path id="Tracé_774" data-name="Tracé 774" d="M71.511,248.348c.172.23-.958,1.293-1.2,3.008s.374,3.113.134,3.267-.45-.192-.757-.8a4.426,4.426,0,0,1-.364-2.653,4.311,4.311,0,0,1,1.207-2.356C71.032,248.348,71.435,248.233,71.511,248.348Z" transform="translate(-33.961 -74.255)" fill="#263238"/>
              <path id="Tracé_775" data-name="Tracé 775" d="M74.1,265.56a1.609,1.609,0,0,1,1.351,1.8,1.533,1.533,0,0,1-1.705,1.4,1.609,1.609,0,0,1-1.36-1.82A1.542,1.542,0,0,1,74.1,265.56Z" transform="translate(-34.092 -74.98)" fill="#263238"/>
              <path id="Tracé_776" data-name="Tracé 776" d="M68.441,265.428c.172.23-.958,1.293-1.2,3.008s.374,3.113.134,3.266-.45-.191-.766-.8a4.435,4.435,0,0,1-.354-2.653,4.243,4.243,0,0,1,1.207-2.356C67.924,265.438,68.364,265.313,68.441,265.428Z" transform="translate(-33.831 -74.974)" fill="#263238"/>
              <path id="Tracé_777" data-name="Tracé 777" d="M82.139,261.52a11.609,11.609,0,0,1,0-2.874c0-.441,0-.872-.278-.958a2.318,2.318,0,0,0-1.351.077l-3.544.747c-5.039,1.015-9.158,1.667-9.2,1.466s4.014-1.188,9.052-2.2l3.563-.69a2.645,2.645,0,0,1,1.753.058,1.159,1.159,0,0,1,.527.824,2.809,2.809,0,0,1,0,.766A10.806,10.806,0,0,1,82.139,261.52Z" transform="translate(-33.898 -74.619)" fill="#263238"/>
              <path id="Tracé_778" data-name="Tracé 778" d="M83.14,266.983c0-.278,1.916,0,3.477-1.351s1.705-3.391,1.916-3.362.287.508.172,1.351a4.674,4.674,0,0,1-1.533,2.816,4.043,4.043,0,0,1-2.874,1.016C83.533,267.395,83.111,267.117,83.14,266.983Z" transform="translate(-34.545 -74.842)" fill="#263238"/>
              <path id="Tracé_779" data-name="Tracé 779" d="M63.329,264.559c.412.278-.23,1.7-.5,3.487s-.144,3.362-.613,3.468c-.23.048-.584-.316-.853-1.015a5.374,5.374,0,0,1-.268-2.778,5.259,5.259,0,0,1,1.111-2.519C62.677,264.654,63.128,264.434,63.329,264.559Z" transform="translate(-33.614 -74.937)" fill="#263238"/>
              <path id="Tracé_780" data-name="Tracé 780" d="M66.548,248c.364.335-.144,1.494-.278,2.922s.048,2.673-.383,2.922c-.211.105-.594-.115-.958-.68a4.129,4.129,0,0,1-.45-2.433,4.062,4.062,0,0,1,.958-2.28C65.935,247.929,66.366,247.795,66.548,248Z" transform="translate(-33.758 -74.238)" fill="#263238"/>
              <path id="Tracé_781" data-name="Tracé 781" d="M59.359,245.168s-7.472,1.791-9.656,4.885c-2.653,3.755,1.533,6.246-.192,9.953S45.249,267.3,47.6,271.77c2.577,4.885,5.211,3.228,10.125,4.311,19.886,4.406,24.954,9,15.327,8.487-1.054-.057-2.347,2.682-6.792,2.385-5.748-.383-12.692-1.3-16.5-3.228-3.219-1.629-5.249-3.956-7.261-7.845-3.18-6.15-2.021-13.689-.661-18.718S50.69,243.262,59.359,245.168Z" transform="translate(-32.748 -74.112)" fill="#263238"/>
              <path id="Tracé_782" data-name="Tracé 782" d="M74.137,285.519a3.065,3.065,0,0,0-3.458,2.788c-.144,2.107.651,4.617,4.972,5.192,7.663,1.015,7.108-6.9,6.887-6.935S77.346,285.912,74.137,285.519Z" transform="translate(-34.02 -75.819)" fill="#eeae8c"/>
              <path id="Tracé_783" data-name="Tracé 783" d="M76.933,294.041a11.649,11.649,0,0,1-1.36-.086c-4.991-.661-5.518-3.832-5.393-5.747a3.449,3.449,0,0,1,1.264-2.433,3.651,3.651,0,0,1,2.73-.8c3.075.383,8.267,1.015,8.439,1.054.738.144.469,2.108.374,2.711C82.718,290.439,81.6,294.041,76.933,294.041Zm-3.2-8.085a2.653,2.653,0,0,0-1.686.6,2.51,2.51,0,0,0-.91,1.763c-.192,2.682,1.351,4.263,4.56,4.684,2.28.307,4-.192,5.106-1.475a6.773,6.773,0,0,0,1.332-4.55l-8.075-1.025h-.326Z" transform="translate(-33.999 -75.797)" fill="#3c3c3c"/>
              <path id="Tracé_784" data-name="Tracé 784" d="M79.545,287.99a3.037,3.037,0,0,1,.153.393,1.37,1.37,0,0,1-.115.958c-.4.776-1.782,1.284-3.171,1.14a4.416,4.416,0,0,1-1.858-.632,1.552,1.552,0,0,1-.891-1.14.69.69,0,0,1,.469-.738c.23-.077.374,0,.393-.048s-.105-.182-.431-.153a.852.852,0,0,0-.517.23,1.025,1.025,0,0,0-.3.718,1.916,1.916,0,0,0,.958,1.552,4.614,4.614,0,0,0,2.069.747c1.552.153,3.1-.45,3.573-1.513a1.466,1.466,0,0,0,0-1.245C79.717,287.99,79.564,287.923,79.545,287.99Z" transform="translate(-34.13 -75.915)" fill="#263238"/>
              <path id="Tracé_785" data-name="Tracé 785" d="M58.022,281.388a7.308,7.308,0,0,0,2.021-2.989,2.51,2.51,0,0,0-1.293-3.046c-.517-.182-1.15-.153-1.5-.565s-.144-1.245,0-1.868a4.933,4.933,0,0,0-2.653-5.633,2.069,2.069,0,0,0,.709-2.7,10.93,10.93,0,0,0-1.916-2.443,3.18,3.18,0,0,1-.881-2.874c.172-.546.6-1.015.642-1.59.192-1.025-.948-1.667-1.916-1.983s-2.107-.623-2.51-1.561.086-1.839.374-2.74.268-2.127-.594-2.51a1.839,1.839,0,0,0-1.437.115,5.01,5.01,0,0,0-2.874,5.518,6.782,6.782,0,0,0-3.3,12.089,6.9,6.9,0,0,0,.68,11.275,4.991,4.991,0,0,0,6.246,6.705,4.789,4.789,0,0,0,3.3,3.18c1.571.3,3.4-.958,3.238-2.577a2.768,2.768,0,0,0,3.5-4.272" transform="translate(-32.656 -74.275)" fill="#263238"/>
              <path id="Tracé_786" data-name="Tracé 786" d="M55,286.917a1.916,1.916,0,0,0,1.552-.23,2.5,2.5,0,0,0,1.159-1.379,2.653,2.653,0,0,0-.278-2.28l-.1.316a7.972,7.972,0,0,0,2.155-1.207,4.549,4.549,0,0,0,1.092-1.255,3.439,3.439,0,0,0-.508-3.918,4.627,4.627,0,0,0-1.485-.881c-.374-.134-.594-.182-.6-.153s.182.124.536.316a5.124,5.124,0,0,1,1.331.958,3.152,3.152,0,0,1-.651,4.608,7.552,7.552,0,0,1-2.021,1.149l-.249.105.153.211a2.356,2.356,0,0,1,.278,1.916,2.29,2.29,0,0,1-.958,1.265A3.672,3.672,0,0,1,55,286.917Z" transform="translate(-33.36 -75.417)" fill="#455a64"/>
              <path id="Tracé_787" data-name="Tracé 787" d="M39.2,268.509a4.508,4.508,0,0,1,.287-.508,2.663,2.663,0,0,1,1.207-1.025l.153-.067-.125-.125a9.713,9.713,0,0,1-2.376-4.177,7.663,7.663,0,0,1-.163-3.065,6.37,6.37,0,0,1,3.64-4.79,5.24,5.24,0,0,1,2.433-.46H44.5v-.239a4.33,4.33,0,0,1,.958-3.113,4.282,4.282,0,0,1,2.146-1.427,5.651,5.651,0,0,1,2.337-.1,1.665,1.665,0,0,0-.613-.2,4.282,4.282,0,0,0-1.791.057,4.416,4.416,0,0,0-2.347,1.456,4.675,4.675,0,0,0-1.054,3.362l.22-.23a5.508,5.508,0,0,0-2.644.479,6.705,6.705,0,0,0-3.832,5.029,7.721,7.721,0,0,0,.105,3.334,9.35,9.35,0,0,0,2.586,4.253v-.2a2.615,2.615,0,0,0-1.217,1.178A1.155,1.155,0,0,0,39.2,268.509Z" transform="translate(-32.635 -74.29)" fill="#455a64"/>
              <path id="Tracé_788" data-name="Tracé 788" d="M286.077,267.37s42.148-1.916,51.728,2.155a84.349,84.349,0,0,0,17.31,5.336l65.234,3.832-.623,16.083s-57.944,7.1-68.328,5.748-21.16-5.374-26.879-4.6-39.658,2.931-39.658,2.931Z" transform="translate(-43.033 -75.038)" fill="#000032"/>
              <path id="Tracé_789" data-name="Tracé 789" d="M303.983,264.764s-11.821-1.169-21.668-1.236c-23.632-.163-51.172-4.129-51.172-4.129l-6.773,40.233,81.94-1.475Z" transform="translate(-40.488 -74.722)" fill="#000032"/>
              <path id="Tracé_790" data-name="Tracé 790" d="M454.568,270.558c1.743-3.008,3.18-6.447,2.644-9.876-.22-1.389-.958-2.874-2.27-3.3a3.4,3.4,0,0,0-3.257,1.1,17.98,17.98,0,0,0-2.05,2.97,30.116,30.116,0,0,1-5.872,6.121c-3.717,3.219-6.064,11.169-19.417,10.6l-2.385,16.582c6.61-.68,12.731,3.468,18.315,5.585a5.948,5.948,0,0,0,5.23-.431,6.093,6.093,0,0,0,2.27-3.516c1.609-5.364.259-11.3,1.916-16.658C450.669,276.421,452.776,273.566,454.568,270.558Z" transform="translate(-48.802 -74.634)" fill="#fff"/>
              <path id="Tracé_791" data-name="Tracé 791" d="M442.433,301.22a6.7,6.7,0,0,1-2.395-.441c-1.475-.556-2.96-1.245-4.521-1.916-4.339-2.012-8.822-4.081-13.583-3.6l-.613.067,2.567-17.664h.431c10.116.45,13.708-4.071,16.591-7.663a20.039,20.039,0,0,1,2.5-2.788,30.252,30.252,0,0,0,5.747-6.035c.182-.268.345-.536.508-.814a12.37,12.37,0,0,1,1.6-2.232,3.909,3.909,0,0,1,3.746-1.217c1.332.412,2.3,1.782,2.6,3.678.613,3.908-1.245,7.663-2.7,10.192-.441.757-.9,1.5-1.36,2.251a22.569,22.569,0,0,0-4.426,15.087,31.616,31.616,0,0,1-.958,8.411,6.409,6.409,0,0,1-2.462,3.774A5.978,5.978,0,0,1,442.433,301.22Zm-19.063-7.031c4.426,0,8.545,1.916,12.549,3.755,1.552.718,3.008,1.389,4.454,1.916a4.876,4.876,0,0,0,6.868-3.64,31.025,31.025,0,0,0,.958-8.161,23.478,23.478,0,0,1,4.569-15.557c.46-.747.91-1.485,1.351-2.232h0c2.194-3.784,3.008-6.82,2.577-9.579-.086-.565-.489-2.462-1.916-2.874a2.96,2.96,0,0,0-2.778.958,10.35,10.35,0,0,0-1.466,2.04c-.172.287-.345.575-.527.853a30.393,30.393,0,0,1-5.958,6.227,20.235,20.235,0,0,0-2.376,2.663c-2.816,3.544-6.705,8.382-16.946,8.066l-2.242,15.566Z" transform="translate(-48.775 -74.613)" fill="#3c3c3c"/>
              <path id="Tracé_792" data-name="Tracé 792" d="M303.775,264.842a4.281,4.281,0,0,1-.651,0l-1.916-.058-6.868-.306L271.694,263.3l-22.588-1.332-6.859-.469-1.916-.144a2.874,2.874,0,0,1-.642-.086,2.6,2.6,0,0,1,.651,0l1.916.058,6.868.307,22.645,1.188,22.636,1.332,6.859.46,1.858.144A3.21,3.21,0,0,1,303.775,264.842Z" transform="translate(-41.132 -74.799)" fill="#263238"/>
              <path id="Tracé_793" data-name="Tracé 793" d="M112.293,264.017s19.532-8.985,32.435-9.579c9.052-.393,64.478,2.491,64.478,2.491s8.047-1.37,11.342-.086a16.584,16.584,0,0,0,5.364,1.274l-4.33,40.673L128.664,297.6l-18.354-.374a8.526,8.526,0,0,1-6.983-4h0a20.116,20.116,0,0,1-1.514-19.158C103.835,269.65,107.331,266.69,112.293,264.017Z" transform="translate(-35.257 -74.511)" fill="#cdd3d3"/>
              <path id="Tracé_794" data-name="Tracé 794" d="M221.991,299.288,128.6,298.061l-18.363-.374a9.042,9.042,0,0,1-7.386-4.215,20.614,20.614,0,0,1-1.542-19.589c1.973-4.253,5.182-7.347,10.729-10.336h0c.2-.1,19.771-9.033,32.569-9.579,8.851-.393,62.495,2.385,64.478,2.481.766-.125,8.267-1.322,11.552-.048a16.18,16.18,0,0,0,5.182,1.245h.6l-.057.527ZM112.481,264.429c-5.345,2.874-8.42,5.834-10.3,9.886a19.609,19.609,0,0,0,1.485,18.66,8.047,8.047,0,0,0,6.591,3.784l18.354.374,92.516,1.188,4.234-39.744a18.936,18.936,0,0,1-5.01-1.284c-3.142-1.217-11.007.105-11.093.115h-.077c-.556,0-55.5-2.874-64.43-2.491C132.2,255.472,113.094,264.151,112.481,264.429Z" transform="translate(-35.235 -74.491)" fill="#3c3c3c"/>
              <path id="Tracé_795" data-name="Tracé 795" d="M121.659,266.766a15.327,15.327,0,0,0-14.618,3.161,16.716,16.716,0,0,0-5.585,9.752c-1.628,10.029,3.659,13.554,6.772,15.049s17.243,1.628,17.243,1.628,34.7,10.537,43.365,8.535,10.029-18.2,10.029-18.2L176.155,256.2H161.786a38.843,38.843,0,0,1-1.916,13.411,99.008,99.008,0,0,1-5.288,12.07l-16.946-8a93.356,93.356,0,0,0-15.978-6.916Z" transform="translate(-35.303 -74.587)" fill="#eeae8c"/>
              <path id="Tracé_796" data-name="Tracé 796" d="M165.951,305.609c-11.428,0-38.642-8.2-40.606-8.8-1.2,0-14.244-.192-17.348-1.667-5.882-2.816-8.257-8.046-7.041-15.557a17.032,17.032,0,0,1,5.748-10.029,15.805,15.805,0,0,1,15.068-3.266,95.116,95.116,0,0,1,16.084,6.993l16.5,7.788a98.009,98.009,0,0,0,5.039-11.591,38.576,38.576,0,0,0,1.916-13.229v-.508h15.327l2.663,30.9c-.057.747-1.485,16.582-10.393,18.67A13.593,13.593,0,0,1,165.951,305.609Zm-48.806-39.083a14.636,14.636,0,0,0-9.8,3.7A16.094,16.094,0,0,0,101.9,279.7c-1.159,7.137.958,11.888,6.514,14.541,2.979,1.427,16.869,1.571,17,1.581h.134c.345.105,34.677,10.537,43.106,8.525,8.238-1.916,9.646-17.578,9.665-17.731L175.7,256.7H162.292a38.872,38.872,0,0,1-1.916,13.095,99.3,99.3,0,0,1-5.316,12.127l-.22.4-17.453-8.19a94.841,94.841,0,0,0-15.911-6.926h0A15.159,15.159,0,0,0,117.145,266.526Z" transform="translate(-35.281 -74.568)" fill="#3c3c3c"/>
              <path id="Tracé_797" data-name="Tracé 797" d="M159.059,253.489s-.354-4.713,2.644-5.575c0,0,2.778-1.494,3.832-1.916a17.749,17.749,0,0,1,2.28-.709l6-1.715s.431-2.433,2.5-3,3.094,1.571,3.094,1.571l1.044,3.64s1.217-1.571,2.644-.786,2.433,2.778,2,3.209-1.284,1.5-1.284,1.5l1.063,2.28a14.925,14.925,0,0,1-2.347,2.644c-.565.22-3.908,1.763-3.908,1.763l-14.723-.412S159.7,254.916,159.059,253.489Z" transform="translate(-37.739 -73.925)" fill="#eeae8c"/>
              <path id="Tracé_798" data-name="Tracé 798" d="M178.716,256.86l-14.944-.431c-.45-.115-4.454-1.178-5.173-2.768V253.5c0-.2-.345-5.058,2.941-6.044.374-.2,2.874-1.523,3.832-1.916a18.083,18.083,0,0,1,2.356-.738l5.747-1.628a4.205,4.205,0,0,1,2.768-3.075,3.171,3.171,0,0,1,3.65,1.82l.853,2.95a2.376,2.376,0,0,1,2.634-.307,5.02,5.02,0,0,1,2.337,3.094.958.958,0,0,1-.23.872c-.287.287-.786.9-1.063,1.236l1.063,2.27-.163.23c-.565.757-1.916,2.567-2.577,2.807-.441.163-2.72,1.217-3.832,1.753Zm-14.752-1.37,14.56.4c.575-.268,3.3-1.533,3.832-1.734a13.252,13.252,0,0,0,1.973-2.251l-1.082-2.328.192-.24s.872-1.092,1.312-1.533a4.186,4.186,0,0,0-1.916-2.452c-1.044-.575-1.992.6-2.031.651l-.575.738-1.312-4.531h0a2.28,2.28,0,0,0-2.5-1.245,3.466,3.466,0,0,0-2.155,2.625l-.058.287-6.255,1.868a18.148,18.148,0,0,0-2.232.7c-1.035.412-3.784,1.916-3.832,1.916h-.1c-2.376.68-2.318,4.359-2.3,4.981.517.853,2.96,1.753,4.473,2.146Z" transform="translate(-37.72 -73.906)" fill="#3c3c3c"/>
              <path id="Tracé_799" data-name="Tracé 799" d="M182.573,244.86a1.8,1.8,0,0,0-.374-1.772c-.728-.958-1.552-1.628-2.615-1.351s-5.269,3.027-2.778,4.339,3.7,0,4.378-.268a6.217,6.217,0,0,0,1.389-.948Z" transform="translate(-38.453 -73.976)" fill="#eeae8c"/>
              <path id="Tracé_800" data-name="Tracé 800" d="M178.855,247.129a4.877,4.877,0,0,1-2.28-.632,1.619,1.619,0,0,1-1.025-1.638c.182-1.657,3.027-3.343,3.9-3.583,1.475-.393,2.491.68,3.123,1.523A2.29,2.29,0,0,1,183,245.06l-.115.153a6.438,6.438,0,0,1-1.514,1.025l-.335.191A4.014,4.014,0,0,1,178.855,247.129Zm1.217-4.981a1.26,1.26,0,0,0-.374.058c-.8.211-3.085,1.753-3.19,2.759,0,.105,0,.393.517.68a3.085,3.085,0,0,0,3.525,0c.163-.1.306-.182.431-.24a5.53,5.53,0,0,0,1.169-.785,1.456,1.456,0,0,0-.345-1.207c-.632-.872-1.178-1.265-1.743-1.265Z" transform="translate(-38.433 -73.955)" fill="#3c3c3c"/>
              <path id="Tracé_801" data-name="Tracé 801" d="M174.712,242.137a3,3,0,0,0-2.586-1.667c-1.791,0-5.182,1.121-5.307,2.586s.383,1.916,1.1,2,6.284-1.7,6.284-1.7Z" transform="translate(-38.065 -73.925)" fill="#eeae8c"/>
              <path id="Tracé_802" data-name="Tracé 802" d="M167.928,245.516h-.077c-1.15-.125-1.657-.958-1.533-2.519.163-1.916,4.129-3.018,5.748-3.027a3.515,3.515,0,0,1,3.027,1.916l.086.191-.671,1.638-.22.067a47.329,47.329,0,0,1-6.361,1.734Zm4.205-4.588h0c-1.916,0-4.79,1.15-4.838,2.146-.115,1.408.383,1.456.68,1.485a41.591,41.591,0,0,0,5.872-1.609l.335-.8a2.433,2.433,0,0,0-2.05-1.188Z" transform="translate(-38.044 -73.904)" fill="#3c3c3c"/>
              <path id="Tracé_803" data-name="Tracé 803" d="M184.92,250.054s.584-1.408,1.38-1.274,2.079,2.146,2.079,2.586-2.443,1.916-2.548,1.178A13.5,13.5,0,0,0,184.92,250.054Z" transform="translate(-38.828 -74.274)" fill="#eeae8c"/>
              <path id="Tracé_804" data-name="Tracé 804" d="M186.1,253.2a.709.709,0,0,1-.766-.623,13.011,13.011,0,0,0-.881-2.347l-.086-.192.086-.2c.067-.172.757-1.753,1.916-1.552s2.471,2.366,2.471,3.056-1.916,1.811-2.653,1.858Zm-.68-3.171a14.933,14.933,0,0,1,.824,2.2,4.5,4.5,0,0,0,1.609-.958,5.157,5.157,0,0,0-1.657-2.05C185.979,249.19,185.625,249.63,185.424,250.033ZM187.9,251.221Z" transform="translate(-38.804 -74.253)" fill="#3c3c3c"/>
              <path id="Tracé_805" data-name="Tracé 805" d="M157.744,292.564a4.329,4.329,0,0,1-1.1-1.15,7.759,7.759,0,0,1-1.274-3.611,7.892,7.892,0,0,1,.546-3.832c.393-.91.8-1.37.853-1.332a12.977,12.977,0,0,1-.527,1.456,9.34,9.34,0,0,0-.383,3.63,9.014,9.014,0,0,0,1.073,3.5A12.526,12.526,0,0,1,157.744,292.564Z" transform="translate(-37.582 -75.699)" fill="#263238"/>
              <path id="Tracé_806" data-name="Tracé 806" d="M309.612,236.683l-.412-.862c6.236-3,17.156-8.4,20.212-10.9l.613.738C327.046,228.1,317.275,233,309.612,236.683Z" transform="translate(-44.057 -73.271)" fill="#263238"/>
              <path id="Tracé_807" data-name="Tracé 807" d="M302.982,240.22l-.4-.872s1.37-.632,3.487-1.638l.4.872C304.371,239.587,302.982,240.22,302.982,240.22Z" transform="translate(-43.779 -73.809)" fill="#263238"/>
              <path id="Tracé_808" data-name="Tracé 808" d="M321.6,226.781l-.517-.8c6.006-3.937,16.083-15.231,16.179-15.327l.718.632C337.566,211.732,327.709,222.777,321.6,226.781Z" transform="translate(-44.557 -72.67)" fill="#263238"/>
              <path id="Tracé_809" data-name="Tracé 809" d="M126.665,383.466h0a.077.077,0,0,0,0-.086h-.086a83.1,83.1,0,0,0-4.368,13.689,126.758,126.758,0,0,0-2.4,14.187l-.345,3.582c0,.6-.115,1.2-.163,1.791l-.1,1.8c0,1.207-.125,2.4-.163,3.6v5.412c0,.594.067,1.2.115,1.791.086,1.2.163,2.395.268,3.592.23,2.395.594,4.79.958,7.136a.067.067,0,0,0,.067.048.057.057,0,0,0,.057-.057h0c0-1.2-.057-2.395-.077-3.592s-.144-2.376-.125-3.573,0-2.385,0-3.583V422.1l.1-3.573v-1.791c0-.594.067-1.188.105-1.782l.22-3.563a123.563,123.563,0,0,1,2.107-14.149,82.578,82.578,0,0,1,3.832-13.775Z" transform="translate(-36.055 -79.939)" fill="#263238"/>
              <path id="Tracé_810" data-name="Tracé 810" d="M127.327,403a.051.051,0,1,0-.077-.038,86.437,86.437,0,0,0-2.548,9.062,85.028,85.028,0,0,0-1.494,9.321c-.316,3.132-.671,6.255-.709,9.4a77.514,77.514,0,0,0,.335,9.426.058.058,0,0,0,0,.058.077.077,0,0,0,.077-.058c.364-3.132.584-6.246.8-9.369s.259-6.245.46-9.368a84.286,84.286,0,0,1,1.111-9.282,85.735,85.735,0,0,1,2.05-9.148Z" transform="translate(-36.2 -80.76)" fill="#263238"/>
              <path id="Tracé_811" data-name="Tracé 811" d="M137.782,409.819a.067.067,0,0,0-.086,0,31.987,31.987,0,0,0-6.926,6.035,28.357,28.357,0,0,0-2.7,3.765l-.556,1.054-.441,1.092a8.763,8.763,0,0,0-.374,1.1c-.115.374-.239.747-.345,1.121a44.829,44.829,0,0,0-1.427,9.129,52.685,52.685,0,0,0,.345,9.2.057.057,0,0,0,.057.057.067.067,0,0,0,.067-.057l.785-9.11a80.1,80.1,0,0,1,1.159-8.976c.077-.364.182-.718.278-1.083a9.9,9.9,0,0,1,.316-1.073l.374-1.054.479-.958a27.389,27.389,0,0,1,2.471-3.765,31.316,31.316,0,0,1,6.5-6.322h0a.077.077,0,1,0,.019-.153Z" transform="translate(-36.3 -81.05)" fill="#263238"/>
              <path id="Tracé_812" data-name="Tracé 812" d="M132.865,422a10.079,10.079,0,0,0-3.152,3.784,22.033,22.033,0,0,0-1.763,4.636c-.125.393-.22.8-.307,1.2l-.287,1.207a21.334,21.334,0,0,0-.307,2.462v2.471a21.381,21.381,0,0,0,.326,2.462v.048a.067.067,0,0,0,.077-.048,21.817,21.817,0,0,0,.431-2.423c.134-.8.259-1.59.354-2.395s.22-1.581.278-2.385a16.516,16.516,0,0,1,.345-2.376,21.94,21.94,0,0,1,1.351-4.588,10.011,10.011,0,0,1,2.644-3.947h0a.067.067,0,0,0,0-.086A.058.058,0,0,0,132.865,422Z" transform="translate(-36.392 -81.564)" fill="#263238"/>
              <path id="Tracé_813" data-name="Tracé 813" d="M117.726,429.98c-.335-4.042-.958-8.047-1.638-12.051s-1.322-7.979-2.06-11.964-1.542-7.941-2.4-11.9a.057.057,0,0,0-.077-.048.057.057,0,0,0-.048.067c.69,3.985,1.322,7.989,1.916,11.984s1.178,8,1.686,12,.881,8.037,1.379,12.032l1.485,12.031a.057.057,0,0,0,.057.057s.067,0,.067-.057c0-1.015,0-2.031.067-3.046a24.727,24.727,0,0,0-.057-3.037C118.014,434.022,117.841,432,117.726,429.98Z" transform="translate(-35.738 -80.386)" fill="#263238"/>
              <path id="Tracé_814" data-name="Tracé 814" d="M114.982,430.318c-.211-1.609-.508-3.2-.814-4.789l-.556-2.395c-.182-.786-.364-1.571-.594-2.347a67.757,67.757,0,0,0-3.085-9.2l-.489-1.111-.536-1.082c-.345-.737-.757-1.437-1.149-2.136a17.709,17.709,0,0,0-2.874-3.832.057.057,0,0,0-.086,0,.076.076,0,0,0,0,.086h0a17.694,17.694,0,0,1,2.663,3.956c.354.719.728,1.427,1.025,2.165l.479,1.1.421,1.121a67.482,67.482,0,0,1,2.692,9.2c.364,1.552.613,3.142.958,4.7l.383,2.376c.134.785.307,1.561.412,2.356.249,1.581.546,3.161.824,4.742s.527,3.171.862,4.789a.076.076,0,0,0,.067,0,.057.057,0,0,0,.057-.057c0-1.619,0-3.238-.105-4.847S115.155,431.918,114.982,430.318Z" transform="translate(-35.455 -80.781)" fill="#263238"/>
              <path id="Tracé_815" data-name="Tracé 815" d="M111.682,431.176c-.747-2.117-1.609-4.2-2.558-6.236a55.838,55.838,0,0,0-3.219-5.9.076.076,0,0,0-.086,0,.067.067,0,0,0,0,.086,58.026,58.026,0,0,1,2.749,6.092c.814,2.06,1.552,4.157,2.174,6.294s1.082,4.3,1.648,6.437,1.082,4.292,1.734,6.456a.077.077,0,0,0,.067.048.086.086,0,0,0,.067-.058,32.261,32.261,0,0,0-.632-6.706A41.939,41.939,0,0,0,111.682,431.176Z" transform="translate(-35.498 -81.439)" fill="#263238"/>
              <path id="Tracé_816" data-name="Tracé 816" d="M111.45,438.683a14.808,14.808,0,0,0-1.782-3.726,15.829,15.829,0,0,0-2.586-3.219,12.818,12.818,0,0,0-1.648-1.245,6.829,6.829,0,0,0-1.916-.843.067.067,0,0,0,0,.125h0a9.386,9.386,0,0,1,3.1,2.4,14.908,14.908,0,0,1,2.155,3.276c.613,1.159.958,2.443,1.466,3.64.23.613.469,1.226.738,1.839a15.765,15.765,0,0,0,.814,1.868h0a.066.066,0,0,0,.057,0,.067.067,0,0,0,.067-.067,14.748,14.748,0,0,0-.077-2.059A14.065,14.065,0,0,0,111.45,438.683Z" transform="translate(-35.4 -81.886)" fill="#263238"/>
              <path id="Tracé_817" data-name="Tracé 817" d="M111.517,398.229a11.5,11.5,0,0,1-8.152-8.621c-1.533-7.137,3.391-4.081-1.025-15.327s-3.391-13.756-1.916-16.984,2.385-2.2,3.736,2.04,6.284,10.872,8.152,23.268S111.517,398.229,111.517,398.229Z" transform="translate(-35.219 -78.761)" fill="#5da2f0"/>
              <path id="Tracé_818" data-name="Tracé 818" d="M125.508,385.558s-4.416-1.523-4.588-9.847,3.228-6.619,3.736-16.984,1.188-17.654,3.056-17.827,6.792,5.1,8.5,16.639S134,376.7,130.6,380.126,125.508,385.558,125.508,385.558Z" transform="translate(-36.134 -78.151)" fill="#5da2f0"/>
              <path id="Tracé_819" data-name="Tracé 819" d="M108.774,409.456s-1.025-6.112-3.065-9-6.447-5.431-9.34-11.035-6.112-8.324-5.939-.335,3.736,12.051,8.152,14.771S108.774,409.456,108.774,409.456Z" transform="translate(-34.851 -79.968)" fill="#5da2f0"/>
              <path id="Tracé_820" data-name="Tracé 820" d="M106.779,420.661a61.376,61.376,0,0,0-10.02-13.583c-5.949-5.747-10.7-8.621-9-5.747s3.736,2.72,6.619,7.817,2.04,8.823,6.121,11.715S106.779,420.661,106.779,420.661Z" transform="translate(-34.724 -80.647)" fill="#5da2f0"/>
              <path id="Tracé_821" data-name="Tracé 821" d="M106.356,431.6c-.163-.508-.335-4.244-6.112-7.3s-11.208-1.868-10.537-.345,4.244,4.081,7.817,5.6A35.8,35.8,0,0,0,106.356,431.6Z" transform="translate(-34.819 -81.58)" fill="#5da2f0"/>
              <path id="Tracé_822" data-name="Tracé 822" d="M125.28,409.55s-2.548-3.219-1.188-10.02,4.416-5.087,7.817-8.621,2.711-4.071,6.111-7.807,6.456-5.748,7.807-4.244-.671,6.284-2.711,8.995-5.269,4.081-6.792,7.472-.853,8.832-4.79,11.38S125.28,409.55,125.28,409.55Z" transform="translate(-36.251 -79.727)" fill="#5da2f0"/>
              <path id="Tracé_823" data-name="Tracé 823" d="M134.22,412.038s6.111-6.954,10.537-12.051,6.112-9,6.284-5.6,1.523,6.112-2.04,10.537S134.22,412.038,134.22,412.038Z" transform="translate(-36.694 -80.348)" fill="#5da2f0"/>
              <path id="Tracé_824" data-name="Tracé 824" d="M130.85,423.9s-.172-2.711,9.512-8.995,13.756-7.472,12.731-4.924-5.259,5.1-9.847,9.675S130.85,423.9,130.85,423.9Z" transform="translate(-36.552 -81.005)" fill="#5da2f0"/>
              <path id="Tracé_825" data-name="Tracé 825" d="M112.094,398.052a.249.249,0,0,1-.239-.192c0-.125-2.289-12.271-4.646-20.825s-3.889-13.871-3.9-13.919a.24.24,0,0,1,.46-.134c0,.048,1.552,5.364,3.908,13.928s4.627,20.739,4.655,20.864a.249.249,0,0,1-.192.278Z" transform="translate(-35.393 -79.073)" fill="#263238"/>
              <path id="Tracé_826" data-name="Tracé 826" d="M125.289,386.189h-.067a.23.23,0,0,1-.163-.3c0-.134,4.138-13.277,5.479-21.151a41.622,41.622,0,0,0-.623-16.285c-.077-.4-.153-.8-.23-1.15a.259.259,0,0,1,.192-.287.249.249,0,0,1,.287.192c.067.364.144.747.22,1.149a42.15,42.15,0,0,1,.623,16.428c-1.341,7.9-5.451,21.074-5.489,21.218A.24.24,0,0,1,125.289,386.189Z" transform="translate(-36.308 -78.408)" fill="#263238"/>
              <path id="Tracé_827" data-name="Tracé 827" d="M108.349,409.652a.23.23,0,0,1-.211-.115,64.176,64.176,0,0,0-6.236-8.88c-.958-1.13-1.839-2.117-2.692-3.056-2.452-2.711-4.387-4.857-5.661-8.047a.239.239,0,1,1,.441-.182c1.245,3.113,3.152,5.23,5.575,7.9.853.958,1.743,1.916,2.711,3.065a65.434,65.434,0,0,1,6.284,8.957.249.249,0,0,1-.1.326A.257.257,0,0,1,108.349,409.652Z" transform="translate(-34.981 -80.184)" fill="#263238"/>
              <path id="Tracé_828" data-name="Tracé 828" d="M125.341,409.939h0a.23.23,0,0,1-.192-.278c.057-.335,1.4-8.257,4.627-12.5,1.255-1.647,2.979-3.631,4.79-5.747a81.4,81.4,0,0,0,7.414-9.349.239.239,0,1,1,.412.24,80.255,80.255,0,0,1-7.472,9.426c-1.811,2.1-3.525,4.071-4.79,5.748-3.152,4.157-4.531,12.214-4.541,12.29A.239.239,0,0,1,125.341,409.939Z" transform="translate(-36.312 -79.877)" fill="#263238"/>
              <path id="Tracé_829" data-name="Tracé 829" d="M106.245,431.738h-.067c-.057,0-5.748-3.736-9.78-5.747a.125.125,0,0,1,.105-.22c4.042,2.021,9.752,5.747,9.809,5.747a.125.125,0,0,1,0,.163A.105.105,0,0,1,106.245,431.738Z" transform="translate(-35.1 -81.722)" fill="#263238"/>
              <path id="Tracé_830" data-name="Tracé 830" d="M123.263,467.982h-7.481a3.276,3.276,0,0,1-3.027-2.021c-2.443-5.853-8.966-22.741-5.039-27.531,3.745-4.56,19.867-4.56,23.613,0,3.928,4.79-2.6,21.678-5.039,27.531A3.276,3.276,0,0,1,123.263,467.982Z" transform="translate(-35.527 -82.111)" fill="#575757"/>
              <path id="Tracé_831" data-name="Tracé 831" d="M123.242,468.44h-7.481a3.745,3.745,0,0,1-3.468-2.309c-2.874-6.792-8.995-23.115-4.962-28.029,2.174-2.653,7.663-3.592,12.166-3.592s10,.958,12.175,3.592c4.023,4.914-2.127,21.237-4.962,28.029A3.746,3.746,0,0,1,123.242,468.44ZM119.5,435.468c-5.326,0-9.809,1.274-11.428,3.247-3.832,4.627,2.95,21.869,5.106,27.042a2.807,2.807,0,0,0,2.586,1.724h7.481a2.807,2.807,0,0,0,2.586-1.724c2.155-5.173,8.9-22.415,5.106-27.042-1.59-1.973-6.073-3.247-11.409-3.247Z" transform="translate(-35.506 -82.09)" fill="#263238"/>
            </g>
          </g>
        </g>
      </g>
    </g>
  </g>
</svg>
