<svg xmlns="http://www.w3.org/2000/svg" width="1180.874" height="1113.607" viewBox="0 0 1180.874 1113.607">
  <g id="Groupe_249" data-name="Groupe 249" transform="translate(-392.859 -4245.393)">
    <path id="Rectangle_50" data-name="Rectangle 50" d="M559.5,0h0A559.5,559.5,0,0,1,1119,559.5V886a0,0,0,0,1,0,0H0a0,0,0,0,1,0,0V559.5A559.5,559.5,0,0,1,559.5,0Z" transform="translate(402 4322)" fill="#d9f2ff"/>
    <g id="pros" transform="translate(1 -59)">
      <g id="Groupe_141" data-name="Groupe 141" transform="translate(-7111.324 -1411.832)">
        <path id="Tracé_1103" data-name="Tracé 1103" d="M1773.862,265.919l2.134,171.5c.366,29.157-5.1,72.072-51.2,70.575h0c-39.964-4.345-50.525-42.141-50.831-69.359-.153-12.908-.3-23.672-.4-25,0,0-43.714-3.563-47.4-46.767-1.777-20.866-1.956-64.138-1.7-103.278a80.711,80.711,0,0,1,74.827-79.835l4.175-.306C1748.676,182.794,1774.457,220.768,1773.862,265.919Z" transform="translate(5977.755 5671.398)" fill="#ffbe9d"/>
        <path id="Tracé_1104" data-name="Tracé 1104" d="M1682.23,450.469s27.354-.391,55.04-20.739c0,0-11.42,32.558-54.819,31.818Z" transform="translate(5969.094 5634.53)" fill="#eb996e"/>
        <path id="Tracé_1105" data-name="Tracé 1105" d="M1711.319,297.155c.85.85,5.842-3.138,13.069-3.333s12.635,3.359,13.4,2.423c.374-.408-.519-2.007-2.883-3.665a18.111,18.111,0,0,0-10.748-3.053,17.515,17.515,0,0,0-10.382,3.775C1711.6,295.123,1710.894,296.772,1711.319,297.155Z" transform="translate(5964.757 5655.52)" fill="#00002f"/>
        <path id="Tracé_1106" data-name="Tracé 1106" d="M1720,314.995a5.833,5.833,0,0,0,6.054,5.476,5.586,5.586,0,0,0,5.629-5.7,5.842,5.842,0,0,0-6.045-5.484,5.6,5.6,0,0,0-5.638,5.706Z" transform="translate(5963.44 5652.56)" fill="#00002f"/>
        <path id="Tracé_1107" data-name="Tracé 1107" d="M1686.961,347.887c0-.374-4.175-.791-10.926-1.156-1.7-.051-3.342-.272-3.707-1.4s.085-3.078.765-5.1l4.09-13.316c5.629-18.885,9.557-34.369,8.8-34.59s-5.952,14.914-11.564,33.808l-3.852,13.333c-.5,1.981-1.445,4.252-.391,6.726a4.252,4.252,0,0,0,2.968,2.27,11.558,11.558,0,0,0,2.908.2C1682.811,348.542,1686.961,348.27,1686.961,347.887Z" transform="translate(5970.97 5655.1)" fill="#00002f"/>
        <path id="Tracé_1108" data-name="Tracé 1108" d="M1714.99,265.563c.706,1.607,6.5.4,13.426.757,6.938.2,12.635,1.879,13.435.34.357-.74-.723-2.219-3.078-3.648a22.7,22.7,0,0,0-20.467-.85C1715.84,263.42,1714.65,264.8,1714.99,265.563Z" transform="translate(5964.199 5659.919)" fill="#00002f"/>
        <path id="Tracé_1109" data-name="Tracé 1109" d="M1634.159,281.285c.757,1.309,6.4-.145,13.239-.349,6.8-.34,12.516.663,13.239-.706.315-.655-.85-1.82-3.2-2.866a23.877,23.877,0,0,0-10.11-1.7,24.658,24.658,0,0,0-10.059,2.474C1634.916,279.4,1633.819,280.665,1634.159,281.285Z" transform="translate(5976.299 5657.597)" fill="#00002f"/>
        <path id="Tracé_1110" data-name="Tracé 1110" d="M1798.78,317.994c.714-.374,29.046-10.952,30.262,18.656s-28.766,24.727-28.851,23.876S1798.78,317.994,1798.78,317.994Z" transform="translate(5951.647 5651.577)" fill="#ffbe9d"/>
        <path id="Tracé_1111" data-name="Tracé 1111" d="M1810.536,350.6c.127-.1.527.34,1.42.706a5.162,5.162,0,0,0,3.861-.076c3.078-1.275,5.51-6.352,5.433-11.692a17.007,17.007,0,0,0-1.751-7.33c-.987-2.126-2.449-3.588-4.039-3.8a2.619,2.619,0,0,0-2.985,1.539c-.365.85-.153,1.429-.306,1.488s-.655-.476-.468-1.7a3.265,3.265,0,0,1,1.089-1.9,3.9,3.9,0,0,1,2.823-.85c2.287.068,4.43,2.083,5.578,4.371a17.63,17.63,0,0,1,2.126,8.18c.051,5.952-2.772,11.683-7.006,13.095a5.519,5.519,0,0,1-4.745-.587C1810.612,351.314,1810.434,350.659,1810.536,350.6Z" transform="translate(5949.891 5649.913)" fill="#eb996e"/>
        <path id="Tracé_1112" data-name="Tracé 1112" d="M1698.238,378.433c-.323-.748,5.484-2.491,9.557-7.933a33.165,33.165,0,0,0,4.1-7.729c.85-2.151,1.522-3.5,1.837-3.4s.23,1.548-.247,3.886a21.894,21.894,0,0,1-3.809,8.665,17.73,17.73,0,0,1-7.568,5.79C1699.845,378.611,1698.323,378.679,1698.238,378.433Z" transform="translate(5966.7 5645.063)" fill="#00002f"/>
        <path id="Tracé_1113" data-name="Tracé 1113" d="M1807.909,245.667c-6.165-10.442-7.6-22.9-10.977-34.556s-9.864-23.723-21.258-27.8l-.255.111c-10.255-4.124-22.907-4.183-31.334,2.942-2.083-15.391-15.578-27.575-30.611-31.521s-39.114-1.59-53.569,4.209c-11.13,4.481-21.9,13.664-34.99,27.159a145.648,145.648,0,0,0-15.11,18.315l-13.035,40.287,11.19,21.156c.672,1.437,1.36,2.874,2.2,4.3v-.1l10.093,44.573c.638-12.151-.247-54.419.391-66.6,18.758-.808,35.713-8.375,48.306-22.312,6.641-7.355,11.862-16.564,20.739-20.96,11.454-5.663,25.1-1.539,37.158,2.644l-.51-.459a54.2,54.2,0,0,1,16.725,12.074,168.568,168.568,0,0,0,7.3,71.323c1.131,3.4,4.251,10.544,7.61,11.853,6.649,2.551,8.435-4.2,12.44-7.8,2.942-2.653,7.313-2.993,12.091-2.976,2.806-7.389,5.7-19.829,8.129-30.73a27,27,0,0,0,12.431.85l-3.826-9.158a13.951,13.951,0,0,0,5.323,2.406c1.939.289,4.167-.434,5.042-2.194C1810.732,250.463,1809.2,247.844,1807.909,245.667Z" transform="translate(5981.887 5675.971)" fill="#00002f"/>
        <path id="Tracé_1114" data-name="Tracé 1114" d="M1754,198.08a36.718,36.718,0,0,1,4.337,3.962,30.943,30.943,0,0,1,6.624,14.336,54.579,54.579,0,0,1,1.105,10.977c0,3.971-.306,8.231-.6,12.755a112.3,112.3,0,0,0-.323,14.166,49.468,49.468,0,0,0,.969,7.466c.544,2.466,1.191,5.1,3.044,7.253a6.548,6.548,0,0,0,6.1,2.049,9.71,9.71,0,0,0,5.484-3.1c2.781-3.24,3.469-7.355,4.167-10.977l-.91.111a36.283,36.283,0,0,0,5.255,9.047,12.856,12.856,0,0,0,8.4,4.575,8.333,8.333,0,0,0,4.456-.782,7.228,7.228,0,0,0,3.019-2.976,7.424,7.424,0,0,0,.918-3.835,5.35,5.35,0,0,0-1.386-3.359l-.459.408a27.932,27.932,0,0,0,9.277,6.964,25.934,25.934,0,0,0,2.874,1.114,4.494,4.494,0,0,0,1.037.255,5.949,5.949,0,0,0-.978-.408c-.646-.264-1.6-.655-2.789-1.258a28.791,28.791,0,0,1-8.954-7.058l-.459.408c1.454,1.539,1.539,4.252.289,6.411a6.455,6.455,0,0,1-2.738,2.636,7.465,7.465,0,0,1-4.03.663,12.023,12.023,0,0,1-7.8-4.354,36.949,36.949,0,0,1-5.1-8.852l-.629-1.386-.281,1.5c-.689,3.622-1.428,7.568-3.962,10.493a8.75,8.75,0,0,1-4.906,2.772,5.5,5.5,0,0,1-5.187-1.7c-1.624-1.837-2.287-4.362-2.806-6.8a48.189,48.189,0,0,1-.969-7.313,115.9,115.9,0,0,1,.264-14.047c.281-4.481.57-8.767.51-12.755a53.805,53.805,0,0,0-1.241-11.122,30.609,30.609,0,0,0-7.032-14.455A17.505,17.505,0,0,0,1754,198.08Z" transform="translate(5958.351 5669.207)" fill="#455a64"/>
        <path id="Tracé_1115" data-name="Tracé 1115" d="M1596.88,235.832a1.956,1.956,0,0,0,.349.289l1.08.791a14.715,14.715,0,0,0,1.828,1.173,23.814,23.814,0,0,0,2.628,1.378,38.264,38.264,0,0,0,18.485,3.333,48.977,48.977,0,0,0,26.062-9.625c8.631-6.207,16.156-15.348,22.4-25.815,3.138-5.229,5.7-10.586,8.5-15.535a57.232,57.232,0,0,1,9.651-13.146,29.473,29.473,0,0,1,12.44-7.559,21.436,21.436,0,0,1,6.564-.757,23.407,23.407,0,0,1,6.011,1.156,25.033,25.033,0,0,1,13.877,11.743,29.658,29.658,0,0,1,2.228,6.479,1.448,1.448,0,0,0,0-.459c-.059-.357-.128-.791-.2-1.318a22.049,22.049,0,0,0-1.641-4.881,24.789,24.789,0,0,0-4.838-6.556,25.17,25.17,0,0,0-9.158-5.68,23.6,23.6,0,0,0-6.2-1.258,22,22,0,0,0-6.8.723,30.186,30.186,0,0,0-12.865,7.7,57.5,57.5,0,0,0-9.864,13.324c-2.857,4.991-5.416,10.331-8.5,15.518-6.148,10.382-13.6,19.421-22.108,25.569a48.7,48.7,0,0,1-25.56,9.668,38.894,38.894,0,0,1-18.282-2.976,65.517,65.517,0,0,1-6.079-3.274Z" transform="translate(5981.871 5673.477)" fill="#455a64"/>
        <path id="Tracé_1116" data-name="Tracé 1116" d="M1633.769,300.365c.85.85,5.842-3.146,13.078-3.333s12.627,3.35,13.392,2.423c.374-.417-.519-2.015-2.883-3.665a18.026,18.026,0,0,0-10.748-3.053,17.405,17.405,0,0,0-10.382,3.775C1634.05,298.324,1633.344,299.974,1633.769,300.365Z" transform="translate(5976.366 5655.039)" fill="#00002f"/>
        <path id="Tracé_1117" data-name="Tracé 1117" d="M1645.47,314.995a5.85,5.85,0,0,0,6.054,5.476,5.6,5.6,0,0,0,5.638-5.7,5.858,5.858,0,0,0-6.054-5.484,5.6,5.6,0,0,0-5.638,5.706Z" transform="translate(5974.597 5652.56)" fill="#00002f"/>
        <path id="Tracé_1118" data-name="Tracé 1118" d="M1609.643,207.76c-3.614,4.9-9.209,9.353-15.305,8.818a45.279,45.279,0,0,1-6.471-1.811c-2.092,1.309-1.505,8.546,0,10.518a38.289,38.289,0,0,0,4.6,4.643c-7.049,3.9-13.545,2.1-21.147-.57a37.15,37.15,0,0,0,22.422,29.488c3.835,1.556,8.5,2.372,11.9.077,3.036-2.015,4.252-5.825,5.1-9.353a162.855,162.855,0,0,0,4.8-39.769Z" transform="translate(5985.697 5667.758)" fill="#00002f"/>
        <path id="Tracé_1119" data-name="Tracé 1119" d="M1658.31,490.9l20.127-10.629s21.147,31.359,52.549,28.281,51.367-30.9,51.367-30.9l20.05,10.136L1733.979,600.2Z" transform="translate(5972.675 5627.356)" fill="#00002f"/>
        <path id="Tracé_1120" data-name="Tracé 1120" d="M1861,818.881l-23.179-158.522L1854.831,511.5l-79.078-27.635-64.691,105.608-74.036-102.308-43.816,19.208c-38.264,16.759-72.743,52.957-80.651,93.933l-.306,1.633c-10.144,54.879,1.08,133.106,1.08,133.106l74.98-33.162-6.054-26.444,14.37,60.372s-61.222,223.239-52.557,296.407c0,0,115.641,25.781,222.1,8.248s135.36-22.38,135.36-22.38Z" transform="translate(5995.175 5626.425)" fill="#07b5e7"/>
        <path id="Tracé_1121" data-name="Tracé 1121" d="M1910.947,516.37s46.01,39.862,51.112,95.506,14.455,105.174,14.455,105.174l-92.683,9.88s-2.168-38.111,0-40.4,17.389-116.6,17.389-116.6Z" transform="translate(5939.06 5621.56)" fill="#07b5e7"/>
        <g id="Groupe_139" data-name="Groupe 139" transform="translate(7569.058 6440.502)" opacity="0.2">
          <path id="Tracé_1122" data-name="Tracé 1122" d="M1588.8,872.21l-3.316,15.305,56.12,20.033c20.025,7.134,40.16,14.3,61.1,17.856,38.434,6.59,77.786.85,116.355-4.813,21.555-3.189,45.738-7.993,57.583-26.283A1049.1,1049.1,0,0,1,1588.8,872.21Z" transform="translate(-1585.48 -872.21)"/>
        </g>
        <path id="Tracé_1123" data-name="Tracé 1123" d="M1522.36,770.324c.723.765,25.722,73.22,40.211,86.178s98.5,8.384,133.991-4.575,110.871-28.7,110.871-28.7l-11.539-58.467s-27.567,2.746-63.841,8.665c-13.129,2.143-133.268.757-133.268.757l-8.316-33.944Z" transform="translate(5993.026 5588.047)" fill="#00002f"/>
        <path id="Tracé_1124" data-name="Tracé 1124" d="M1934.623,753c-.221,0-2.3,95.5-12.44,107.7s-45.585,26.674-72.4,29.761-189.788-4.362-213.69-24.285l94.154-65.643,95.974,23.7,26.9-11.564,2.44-51.171Z" transform="translate(5976.001 5586.137)" fill="#00002f"/>
        <path id="Tracé_1125" data-name="Tracé 1125" d="M1855.68,931a10.059,10.059,0,0,1-1.275,1.607l-3.895,4.43c-1.7,1.922-3.775,4.252-6.36,6.8s-5.374,5.62-8.775,8.69-6.99,6.581-11.13,10.025-8.58,7.1-13.35,10.833a320.754,320.754,0,0,1-32.788,21.827,325.063,325.063,0,0,1-35.364,17.372c-5.646,2.185-10.969,4.388-16.1,6.029-2.551.85-5,1.7-7.381,2.483l-6.9,2.024c-4.371,1.36-8.418,2.253-11.947,3.129s-6.59,1.531-9.115,1.981l-5.791,1.063a10.378,10.378,0,0,1-2.041.272,11.057,11.057,0,0,1,1.981-.561l5.731-1.343c2.5-.527,5.535-1.241,9.03-2.219s7.517-1.913,11.853-3.333l6.8-2.1c2.372-.774,4.8-1.7,7.33-2.551,5.1-1.7,10.382-3.92,15.994-6.131a340.281,340.281,0,0,0,35.143-17.4,333.461,333.461,0,0,0,32.694-21.632c4.779-3.682,9.353-7.16,13.384-10.68,4.167-3.4,7.84-6.8,11.207-9.847s6.292-6,8.911-8.5,4.779-4.77,6.531-6.624l4.09-4.252A10.8,10.8,0,0,1,1855.68,931Z" transform="translate(5968.91 5559.491)" fill="#263238"/>
        <path id="Tracé_1126" data-name="Tracé 1126" d="M1817.035,493.23a3.633,3.633,0,0,1-.357.791l-1.173,2.236-4.643,8.5c-4.141,7.483-10.042,18.154-17.338,31.325-14.821,26.478-35.237,62.973-57.9,103.456l-.561,1.012-.68-.935-2.236-3.044c-27.856-38.17-53.067-72.718-71.383-97.827-9.039-12.491-16.36-22.635-21.5-29.761-2.457-3.461-4.4-6.19-5.782-8.129l-1.471-2.134a3.733,3.733,0,0,1-.459-.765,4.877,4.877,0,0,1,.578.672l1.6,2.049c1.428,1.9,3.444,4.575,6,7.967l21.878,29.463,71.74,97.572,2.236,3.044-1.25.077,58.305-103.193,17.737-31.1c2.083-3.58,3.716-6.394,4.889-8.4l1.3-2.168A3.67,3.67,0,0,1,1817.035,493.23Z" transform="translate(5976.681 5625.024)" fill="#263238"/>
        <path id="Tracé_1127" data-name="Tracé 1127" d="M1784.561,757.3a7.87,7.87,0,0,1-.145-1.777c0-1.318-.085-3-.145-5.1-.059-4.609-.136-10.952-.238-18.707,0-7.95-.094-17.329-.153-27.72,0-5.221,0-10.7-.051-16.368V673.918a1.752,1.752,0,0,1,.34-.9,1.862,1.862,0,0,1,1.531-.689l2.287-.128c24.14-.425,45.916.068,61.706.289l18.707.451,5.1.2a7.889,7.889,0,0,1,1.769.17,8.063,8.063,0,0,1-1.777.128l-5.1.077h-18.707c-15.773,0-37.609-.281-61.647.145l-2.211.119c-.5,0-.357,0-.468.1a.188.188,0,0,0,0,.119v29.965c-.059,10.391-.119,19.77-.161,27.72-.1,7.746-.178,14.09-.238,18.707-.06,2.075-.1,3.758-.136,5.1a8.118,8.118,0,0,1-.263,1.8Z" transform="translate(5953.885 5598.258)" fill="#263238"/>
        <path id="Tracé_1128" data-name="Tracé 1128" d="M1855.556,762.94a3.8,3.8,0,0,1,0,.85c0,.689,0,1.548,0,2.61-.085,2.423-.187,5.774-.323,10.017-.366,8.809-.85,21.258-1.5,36.563v.366l-.349.136c-10.875,4.251-23.451,9.073-37.32,13.979s-29.182,9.472-45.245,13.826c-36.682,9.787-70.575,15.629-95.038,19.829l-29.012,4.838-7.891,1.258-2.066.3a2.612,2.612,0,0,1-.706,0,2.809,2.809,0,0,1,.68-.2l2.032-.434,7.857-1.539,28.91-5.306c24.421-4.464,58.229-10.459,94.834-20.229,16.028-4.345,31.325-8.818,45.168-13.707s26.47-9.566,37.362-13.724l-.357.5c.85-15.305,1.514-27.754,1.99-36.563.272-4.251.476-7.593.629-10,.085-1.071.153-1.93.213-2.61a3.042,3.042,0,0,1,.128-.765Z" transform="translate(5975.999 5584.649)" fill="#263238"/>
        <path id="Tracé_1129" data-name="Tracé 1129" d="M1845.33,774.27s17.525-2.245,27.312-1.964a78.792,78.792,0,0,1,13.758,1.947l-1.964,41.257-28.91,11.573Z" transform="translate(5944.679 5583.251)" fill="#ffbe9d"/>
        <path id="Tracé_1130" data-name="Tracé 1130" d="M1568.09,596.85a33.576,33.576,0,0,1,1.361,4.889c.85,3.4,1.9,7.933,3.214,13.426,2.713,11.573,6.369,27.133,10.408,44.335s7.9,32.958,10.731,44.258c1.378,5.476,2.551,9.991,3.4,13.384a34.871,34.871,0,0,1,1.08,4.957,32.393,32.393,0,0,1-1.641-4.8c-.978-3.112-2.262-7.653-3.835-13.265-3.087-11.249-7.066-26.87-11.156-44.216s-7.585-33.034-9.991-44.445c-1.122-5.536-2.049-10.1-2.755-13.537a32.668,32.668,0,0,1-.816-4.983Z" transform="translate(5986.181 5609.513)" fill="#263238"/>
        <path id="Tracé_1131" data-name="Tracé 1131" d="M1875.718,698.253a17.216,17.216,0,0,1-3.58.383c-2.313.153-5.655.315-9.787.468-8.256.3-19.684.536-32.312.519s-24.046-.281-32.311-.6c-4.124-.162-7.466-.323-9.779-.485a16.24,16.24,0,0,1-3.58-.4,16.793,16.793,0,0,1,3.6-.179h9.787l32.312.162,32.312-.085h9.787a16.61,16.61,0,0,1,3.554.221Z" transform="translate(5953.804 5594.381)" fill="#263238"/>
        <path id="Tracé_1132" data-name="Tracé 1132" d="M1687.114,769.918a11.2,11.2,0,0,1-1.769-2.4l-4.447-6.8c-3.741-5.714-9.03-13.528-15.212-21.921s-12.091-15.748-16.436-21.019l-5.161-6.241a11.368,11.368,0,0,1-1.769-2.406,11.513,11.513,0,0,1,2.2,2.024c1.352,1.36,3.24,3.4,5.527,5.952,4.558,5.1,10.62,12.4,16.836,20.815s11.377,16.368,14.906,22.244c1.769,2.934,3.146,5.34,4.047,7.032a11.617,11.617,0,0,1,1.275,2.721Z" transform="translate(5975.069 5592.705)" fill="#263238"/>
        <path id="Tracé_1133" data-name="Tracé 1133" d="M1712.451,777.112c-.3.23-4.124-4.719-7.058-11.794s-3.826-13.248-3.4-13.3,1.9,5.833,4.813,12.755S1712.825,776.866,1712.451,777.112Z" transform="translate(5966.151 5586.284)" fill="#263238"/>
        <path id="Tracé_1134" data-name="Tracé 1134" d="M1752.074,615.505a6.115,6.115,0,0,1-1.063-1.207l-2.8-3.639c-2.551-3.4-5.952-7.95-10.085-13.545l-32.813-45.066-32.465-45.3c-4.013-5.706-7.3-10.391-9.71-13.826l-2.551-3.809a6.157,6.157,0,0,1-.85-1.386,6.3,6.3,0,0,1,1.055,1.207l2.806,3.639,10.076,13.545,32.822,45.066,32.473,45.3,9.7,13.826,2.551,3.809a6.479,6.479,0,0,1,.85,1.386Z" transform="translate(5972.461 5625.848)" fill="#263238"/>
        <path id="Tracé_1135" data-name="Tracé 1135" d="M1792.8,483.87a6.06,6.06,0,0,1-.459,1.5,38.8,38.8,0,0,1-1.7,4.184,54.512,54.512,0,0,1-9.328,13.758,64.844,64.844,0,0,1-19.838,14.583,74.467,74.467,0,0,1-29.267,7.151,66.46,66.46,0,0,1-29.523-5.952,68.609,68.609,0,0,1-20.322-13.885,62.678,62.678,0,0,1-10.2-13.069,42,42,0,0,1-2.092-4,6.8,6.8,0,0,1-.612-1.454c.374-.272,3.6,8.112,13.673,17.763a69.3,69.3,0,0,0,20.152,13.384,66.059,66.059,0,0,0,28.91,5.714,74.342,74.342,0,0,0,28.732-6.9,65.641,65.641,0,0,0,19.659-14.055,58.137,58.137,0,0,0,9.523-13.307C1791.868,485.834,1792.659,483.81,1792.8,483.87Z" transform="translate(5971.007 5626.425)" fill="#263238"/>
        <g id="Groupe_140" data-name="Groupe 140" transform="translate(7612.091 6397.179)" opacity="0.2">
          <path id="Tracé_1136" data-name="Tracé 1136" d="M1636.09,876.351c76.213,6.36,156.456,8.052,219.5-55.091-66.324,27.21-148.608,44.522-219.5,55.091" transform="translate(-1636.09 -821.26)"/>
        </g>
        <g id="Groupe_141-2" data-name="Groupe 141" transform="translate(7819.779 6245.825)" opacity="0.2">
          <path id="Tracé_1137" data-name="Tracé 1137" d="M1891.955,754.828c-10.408-9.472-11.9-25.143-11.573-39.207.527-23.545,6.233-49.743,12.823-72.361-1.369,40.168-4.345,75.507-1.7,111.721" transform="translate(-1880.342 -643.26)"/>
        </g>
        <path id="Tracé_1138" data-name="Tracé 1138" d="M1608.959,780.157c.111.2-1.386,1.173-3.665,2.848a32.4,32.4,0,0,0-7.594,7.789,77.6,77.6,0,0,0-5.1,9.77c-1.216,2.593-2.049,4.166-2.236,4.09s.3-1.786,1.267-4.49a48.4,48.4,0,0,1,4.872-10.2,26.927,26.927,0,0,1,8.239-7.823C1607.2,780.641,1608.874,780.021,1608.959,780.157Z" transform="translate(5982.853 5582.075)" fill="#263238"/>
        <path id="Tracé_1139" data-name="Tracé 1139" d="M1897.134,1098.97l7.04,45.092H1557.48l4.09-33.9Z" transform="translate(5987.769 5534.347)" fill="#07b5e7"/>
        <path id="Tracé_1140" data-name="Tracé 1140" d="M1906,1111.51a4.189,4.189,0,0,1-.85.306l-2.619.748-10.11,2.746c-4.4,1.207-9.778,2.61-16.088,4.022s-13.443,3.24-21.436,4.762l-12.525,2.551c-4.354.85-8.92,1.564-13.6,2.406-9.413,1.7-19.557,3.087-30.2,4.617-21.343,2.729-44.913,4.983-69.725,6.122s-48.467.85-70.014-.059c-10.748-.6-20.969-1.071-30.492-1.99-4.77-.425-9.354-.731-13.8-1.216l-12.687-1.437c-8.1-.85-15.374-2-21.776-2.882s-11.9-1.8-16.368-2.619l-10.306-1.854-2.678-.519a.468.468,0,1,1,0-.153l2.7.374,10.348,1.582c4.49.731,9.982,1.582,16.394,2.364s13.681,1.913,21.776,2.661l12.687,1.343c4.4.451,9.013.731,13.775,1.131,9.523.85,19.727,1.284,30.458,1.845,21.47.791,45.066.952,69.895-.059s48.3-3.342,69.623-5.952c10.637-1.488,20.764-2.789,30.169-4.473,4.711-.85,9.277-1.488,13.6-2.321l12.525-2.432c8-1.454,15.152-3.18,21.462-4.541s11.726-2.661,16.156-3.775l10.2-2.474,2.653-.6A5.779,5.779,0,0,1,1906,1111.51Z" transform="translate(5988.92 5532.469)" fill="#263238"/>
        <path id="Tracé_1141" data-name="Tracé 1141" d="M1903.171,569.08a7.88,7.88,0,0,1-.145,1.769c-.179,1.309-.417,2.976-.706,5.025-.655,4.362-1.556,10.671-2.6,18.477-2.092,15.612-4.5,37.235-5.952,61.222s-1.624,45.755-1.411,61.5c.1,7.874.238,14.251.374,18.656,0,2.066.068,3.75.094,5.1a8.157,8.157,0,0,1-.06,1.777,7.716,7.716,0,0,1-.238-1.76c-.094-1.318-.221-2.993-.374-5.059-.315-4.4-.612-10.773-.85-18.656-.485-15.765-.451-37.575.978-61.621s4.031-45.687,6.4-61.273c1.173-7.8,2.236-14.09,3.07-18.426.4-2.032.731-3.682.986-4.983a8.95,8.95,0,0,1,.434-1.752Z" transform="translate(5937.839 5613.669)" fill="#263238"/>
      </g>
      <g id="Groupe_140-2" data-name="Groupe 140" transform="translate(-5587.141 -1397.663)">
        <path id="Tracé_1046" data-name="Tracé 1046" d="M895.463,288.423c-.84-.333-33.743-8.963-31.746,24.3S898.7,337.136,898.7,336.177,895.463,288.423,895.463,288.423Z" transform="translate(5951.63 5645.161)" fill="#ffbe9d"/>
        <path id="Tracé_1047" data-name="Tracé 1047" d="M890.008,327.079c-.151-.1-.555.436-1.506.943a5.809,5.809,0,0,1-4.327.349c-3.59-1.078-6.886-6.482-7.4-12.465a19.02,19.02,0,0,1,1.125-8.4c.864-2.5,2.338-4.287,4.089-4.707a2.956,2.956,0,0,1,3.519,1.379c.5.911.325,1.585.507,1.632s.681-.6.333-1.957a3.669,3.669,0,0,0-1.434-2.013,4.422,4.422,0,0,0-3.257-.65c-2.552.333-4.755,2.829-5.745,5.547a19.677,19.677,0,0,0-1.45,9.343c.61,6.688,4.414,12.758,9.311,13.86a6.213,6.213,0,0,0,5.246-1.2C890,327.887,890.127,327.127,890.008,327.079Z" transform="translate(5949.399 5642.269)" fill="#aa6550"/>
        <path id="Tracé_1048" data-name="Tracé 1048" d="M1008.64,138.77c16.911,0,34.115,0,55.281,11.047,13.345,6.966,21.666,18.012,28.624,31.365,5.325,10.223,8.479,23.607,7.861,35.114s-.65,19.55-5.246,30.113" transform="translate(5921.534 5675.962)" fill="#00002f"/>
        <path id="Tracé_1049" data-name="Tracé 1049" d="M978.249,142a89.706,89.706,0,0,1,95.887,84.793c2.179,41.683,4.089,86.758,3.629,109.462-.99,48.72-49.782,55.908-49.782,55.908s1.078,14.446,2.282,32.364a64.189,64.189,0,0,1-61.613,68.42h0A64.189,64.189,0,0,1,902.087,431.2l-7.243-196.37a89.729,89.729,0,0,1,83.414-92.82Z" transform="translate(5945.165 5675.337)" fill="#ffbe9d"/>
        <path id="Tracé_1050" data-name="Tracé 1050" d="M1046.469,452.655s-29.947,1.585-62.509-19.265c0,0,14.74,35.446,63.4,31.452Z" transform="translate(5926.657 5614.815)" fill="#aa6550"/>
        <path id="Tracé_1051" data-name="Tracé 1051" d="M1093.892,281.559a6.966,6.966,0,0,1-6.76,6.95,6.657,6.657,0,0,1-7.132-6.34,6.974,6.974,0,0,1,6.76-6.974,6.665,6.665,0,0,1,7.132,6.363Z" transform="translate(5906.724 5647.651)" fill="#00002f"/>
        <path id="Tracé_1052" data-name="Tracé 1052" d="M1098.8,268.855c-.864.9-6.11-3.043-13.6-3.083s-13,3.661-13.8,2.734c-.4-.4.491-2.037,2.9-3.764a19.138,19.138,0,0,1,11.094-3.312,18.345,18.345,0,0,1,10.817,3.59C1098.5,266.8,1099.267,268.45,1098.8,268.855Z" transform="translate(5908.528 5650.505)" fill="#00002f"/>
        <path id="Tracé_1053" data-name="Tracé 1053" d="M1001.23,281.563a6.966,6.966,0,0,1-6.768,6.966,6.657,6.657,0,0,1-7.132-6.34,6.966,6.966,0,0,1,6.76-6.974,6.665,6.665,0,0,1,7.14,6.348Z" transform="translate(5925.957 5647.647)" fill="#00002f"/>
        <path id="Tracé_1054" data-name="Tracé 1054" d="M1005.948,269.874c-.872.9-6.118-3.043-13.6-3.083s-13,3.661-13.812,2.734c-.388-.4.491-2.037,2.908-3.756a19.058,19.058,0,0,1,11.094-3.32,18.361,18.361,0,0,1,10.817,3.59C1005.607,267.822,1006.376,269.47,1005.948,269.874Z" transform="translate(5927.8 5650.294)" fill="#00002f"/>
        <path id="Tracé_1055" data-name="Tracé 1055" d="M1046.09,325.823c0-.428,4.636-1.2,12.18-2.1,1.918-.182,3.732-.547,4.065-1.846.46-1.379-.325-3.447-1.236-5.682l-5.547-14.6c-7.687-20.794-13.234-37.879-12.394-38.18s7.75,16.3,15.437,37.095q2.782,7.687,5.3,14.692c.705,2.179,1.934,4.652.935,7.512a4.819,4.819,0,0,1-3.17,2.766,12.9,12.9,0,0,1-3.249.428C1050.829,326.25,1046.122,326.243,1046.09,325.823Z" transform="translate(5914.388 5650.095)" fill="#00002f"/>
        <path id="Tracé_1056" data-name="Tracé 1056" d="M1018.676,348.48c1.22-.063,1.173,8.067,8.083,13.892s15.572,5,15.627,6.134c.1.515-1.949,1.585-5.6,1.632a20.2,20.2,0,0,1-13.044-4.66,17.609,17.609,0,0,1-6.252-11.641C1017.218,350.477,1018.137,348.432,1018.676,348.48Z" transform="translate(5919.708 5632.438)" fill="#00002f"/>
        <path id="Tracé_1057" data-name="Tracé 1057" d="M1006.934,233.3c-.753,2.029-8.226,1.006-17.014,2-8.82.792-15.92,3.32-17.069,1.49-.515-.88.737-2.782,3.614-4.755a29.757,29.757,0,0,1,25.969-2.655C1005.65,230.729,1007.259,232.337,1006.934,233.3Z" transform="translate(5928.986 5657.535)" fill="#00002f"/>
        <path id="Tracé_1058" data-name="Tracé 1058" d="M1098.039,235.1c-1.331,1.688-6.474-.119-12.679-.246-6.2-.357-11.459,1.046-12.679-.737-.523-.872.317-2.568,2.623-4.16a18.369,18.369,0,0,1,20.414.792C1097.92,232.518,1098.626,234.277,1098.039,235.1Z" transform="translate(5908.274 5657.6)" fill="#00002f"/>
        <path id="Tracé_1059" data-name="Tracé 1059" d="M895.1,249.4s2.116,11.261,2.718,16.34c.206,1.862-.04,22.506,4.977,23.536,4.311.888,12.885-3.043,16.7-11.578s11.094-29.028,10.3-38.347c-1.07-12.679-1.664-25.612.872-38.117s8.519-24.685,18.559-32.538,24.526-10.611,35.93-4.889c7.037,3.526,12.3,9.779,18.852,14.137,5.9,3.915,13.091,6.268,20.1,5.222s13.622-5.912,15.532-12.735c2.084-7.433-1.751-15.58-7.695-20.5s-13.646-7.188-21.222-8.717c-21.008-4.168-43.284-3.344-63.254,4.422S909.8,168.3,901.254,187.941c-9.866,22.72-8.717,36.651-6.11,61.423" transform="translate(5945.467 5675.971)" fill="#00002f"/>
        <path id="Tracé_1060" data-name="Tracé 1060" d="M1018.611,274.827c-.19,0,0-2.956-1.268-8.028a32.989,32.989,0,0,0-12.069-17.949,32.368,32.368,0,1,0,12.069,34c1.292-5.072,1.078-8.035,1.268-8.02a1.656,1.656,0,0,1,0,.539v1.585a15.293,15.293,0,0,1-.2,2.56,23.861,23.861,0,0,1-.618,3.463,33.356,33.356,0,0,1-43.783,23.488,33.619,33.619,0,0,1,17.68-64.656,33.354,33.354,0,0,1,26.1,24.883,24.234,24.234,0,0,1,.618,3.463,15.367,15.367,0,0,1,.2,2.568V274.3A1.649,1.649,0,0,1,1018.611,274.827Z" transform="translate(5933.339 5654.7)" fill="#263238"/>
        <path id="Tracé_1061" data-name="Tracé 1061" d="M1126.842,274.827a61.11,61.11,0,0,0-1.26-8.028,33.012,33.012,0,0,0-12.077-17.949,32.565,32.565,0,1,0,0,51.945,33.014,33.014,0,0,0,12.077-17.949,56.728,56.728,0,0,0,1.26-8.02,1.5,1.5,0,0,1,.04.539v1.585a15.394,15.394,0,0,1-.206,2.56,22.818,22.818,0,0,1-.618,3.463,33.351,33.351,0,0,1-43.775,23.488,33.6,33.6,0,1,1,43.775-39.773,23.183,23.183,0,0,1,.618,3.463,15.488,15.488,0,0,1,.206,2.568V274.3A1.5,1.5,0,0,1,1126.842,274.827Z" transform="translate(5910.868 5654.7)" fill="#263238"/>
        <path id="Tracé_1062" data-name="Tracé 1062" d="M1056.329,278.312c-.1.166-1.2-.444-3.059-1.054a19.7,19.7,0,0,0-14.819.983c-1.759.856-2.758,1.585-2.885,1.45s.713-1.1,2.465-2.211a16.958,16.958,0,0,1,15.556-1.03C1055.473,277.313,1056.408,278.177,1056.329,278.312Z" transform="translate(5915.948 5647.681)" fill="#263238"/>
        <path id="Tracé_1063" data-name="Tracé 1063" d="M1077.336,172.04c.475-2.528-.357-3.962,1.07-4.977,1.585-1.181,4.691,1.918,5.817,3.17.357.388,1.506-1.149,1.949-1.442s.9-2.805.856-3.233c-.214-1.759-2.98-2.235-4.287-3.439a13.123,13.123,0,0,0-4.588-2.607c-1.458-.507-3.265-.792-4.4.262a4.271,4.271,0,0,0-.983,3.3,9.217,9.217,0,0,0,.666,3.431,4.755,4.755,0,0,0,2.377,2.512" transform="translate(5908.231 5671.752)" fill="#00002f"/>
        <path id="Tracé_1064" data-name="Tracé 1064" d="M893.29,242.576s23.885,8.757,36.318,14.026l-.705-12.2L894.154,230.65S893.266,239.716,893.29,242.576Z" transform="translate(5945.475 5656.893)" fill="#ebebeb"/>
        <path id="Tracé_1065" data-name="Tracé 1065" d="M896.1,221.744c.135-.309,7.7,2.591,16.911,6.482s16.562,7.306,16.435,7.615-7.7-2.591-16.911-6.482S895.965,222.053,896.1,221.744Z" transform="translate(5944.892 5658.746)" fill="#ebebeb"/>
        <path id="Tracé_1066" data-name="Tracé 1066" d="M902.564,531.369l-1.846-57.849s11.483,52.912,71.646,52.223c57.5-.658,56.446-46.62,56.446-46.62l2.052,23.306v94.143l-37.5,153.57-47.9,6.078-52.928-209.9Z" transform="translate(5945.63 5606.486)" fill="#e0e0e0"/>
        <path id="Tracé_1067" data-name="Tracé 1067" d="M1026.1,521.5a5.557,5.557,0,0,1-.689,1.228,33.6,33.6,0,0,1-2.282,3.392,49.528,49.528,0,0,1-10.706,10.3,61.892,61.892,0,0,1-20.009,9.391,70.637,70.637,0,0,1-26.991,1.87,88.2,88.2,0,0,1-25.921-7.806,112.146,112.146,0,0,1-18.932-11.38,129.505,129.505,0,0,1-11.475-9.509c-1.3-1.173-2.243-2.163-2.9-2.813a6.11,6.11,0,0,1-.951-1.046,6.127,6.127,0,0,1,1.117.864l3.059,2.639c2.647,2.29,6.569,5.547,11.657,9.153a117.516,117.516,0,0,0,18.9,11.094,89.062,89.062,0,0,0,25.6,7.608,70.822,70.822,0,0,0,26.539-1.743,62.341,62.341,0,0,0,19.811-9.01,52.6,52.6,0,0,0,10.841-9.953C1024.94,523.07,1025.994,521.43,1026.1,521.5Z" transform="translate(5942.995 5597.85)" fill="#263238"/>
        <path id="Tracé_1068" data-name="Tracé 1068" d="M953.087,1057.664l-.848-323.9L874.721,534.591l-2.607-59.941-47.222,35.716s-68.753,236.627-69.815,228.449,0,318.849,0,318.849Z" transform="translate(5974.259 5606.251)" fill="#07b5e7"/>
        <path id="Tracé_1069" data-name="Tracé 1069" d="M1002.558,1126.5c-.341,0-.618-73.447-.618-164.035s.277-164.036.618-164.036.61,73.428.61,164.036S1002.9,1126.5,1002.558,1126.5Z" transform="translate(5922.925 5539.052)" fill="#263238"/>
        <path id="Tracé_1070" data-name="Tracé 1070" d="M844.17,568.91l9.589,7.251-6.744,44.148L960.146,738.8,857.4,603.881l8.757-34.971Z" transform="translate(5955.669 5586.688)" fill="#09a4f4"/>
        <path id="Tracé_1071" data-name="Tracé 1071" d="M936.519,876.231l-173.6-50.907L757.163,693.5l47.611-173.73s-113.456,56.589-121.222,92.622-26.341,123.623-28.322,186.94c-1.775,56.613-2.037,94.46,10.9,112.528,37.016,51.747,280.98,61.019,378.452-.079" transform="translate(5995.066 5596.887)" fill="#07b5e7"/>
        <path id="Tracé_1072" data-name="Tracé 1072" d="M962.188,722.11a4,4,0,0,1-.563-.634c-.388-.483-.9-1.133-1.585-1.941l-5.9-7.56-21.491-27.91-70.528-92.392-5.31-6.974-.182-.23.071-.285,8.78-34.971.571.729H843.51v-.555c0-14.264.063-27.379.087-38.981v-.23l.182-.143L877.9,484.1l9.367-7.029,2.464-1.807a6.466,6.466,0,0,1,.864-.578,5.392,5.392,0,0,1-.792.689c-.586.475-1.371,1.109-2.377,1.91l-9.208,7.235c-8.091,6.26-19.661,15.239-33.877,26.254l.19-.372c0,11.6.055,24.7.087,38.981l-.563-.563h22.775l-.19.737c-2.789,11.174-5.714,22.894-8.717,34.979l-.1-.515L863.131,591l70.3,92.6,21.19,28.156c2.449,3.3,4.366,5.872,5.714,7.695.61.84,1.094,1.514,1.466,2.013A5.192,5.192,0,0,1,962.188,722.11Z" transform="translate(5955.806 5606.243)" fill="#263238"/>
        <path id="Tracé_1073" data-name="Tracé 1073" d="M1072.9,501.058c-13.852-24.217-21.032-21.7-21.032-21.7l.721,8.63V506.13l-6.561,77.819L1004,753.034l.872,305.592h158.966l19.811-361.777-1.8-133.877Z" transform="translate(5922.497 5605.289)" fill="#07b5e7"/>
        <path id="Tracé_1074" data-name="Tracé 1074" d="M1161.244,584.89s41.152,30.375,44.718,79.245c2.9,39.7,9.51,148.395,10.746,172.065,1.87,36.849-26.825,123.147-101.537,98.7-44.805-14.66-210.341-70.925-210.341-70.925l11.007-70.3,196.481,11.7,3.907-163.879Z" transform="translate(5943.08 5583.372)" fill="#07b5e7"/>
        <path id="Tracé_1075" data-name="Tracé 1075" d="M890.1,857.586s-55.606-6.015-68.492-2.9c-12.378,2.988-30,18.123-30,18.123l.254,21.975,89.468,25.01Z" transform="translate(5966.578 5527.562)" fill="#ffbe9d"/>
        <path id="Tracé_1076" data-name="Tracé 1076" d="M1004,751.457a4.775,4.775,0,0,1,.246-.868l.84-2.38c.792-2.163,1.9-5.211,3.32-9.111l12.426-33.377c5.3-14.113,11.6-30.867,18.6-49.505,1.767-4.629,3.511-9.467,5.7-14.192s4.573-9.449,7.132-14.174a315.9,315.9,0,0,1,17.664-27.931c3.17-4.534,6.435-8.954,9.779-13.184l-.1.686-6.934-19.307-.23-.643.594-.217,28.988-10.8-.3.868c-13.472-24.6-24.812-45.4-32.855-60.127-3.962-7.3-7.378-13.123-10.983-15.52a14.017,14.017,0,0,0-4.39-1.954,14.532,14.532,0,0,1-1.585-.426,11.074,11.074,0,0,1,1.648.234,12.978,12.978,0,0,1,4.541,1.815,20.984,20.984,0,0,1,5.547,5.923,109.214,109.214,0,0,1,5.777,9.554l33.283,59.927.356.643-.658.243-28.956,10.891.364-.869q3.4,9.415,6.95,19.3l.135.373-.246.313c-3.3,4.195-6.538,8.607-9.731,13.123a318.74,318.74,0,0,0-17.6,27.792c-2.544,4.69-5.008,9.337-7.132,14.053s-3.907,9.449-5.7,14.1l-18.845,49.366c-5.381,13.966-9.747,25.308-12.806,33.229l-3.534,9.015-.951,2.328A4.3,4.3,0,0,1,1004,751.457Z" transform="translate(5922.497 5605.287)" fill="#263238"/>
        <path id="Tracé_1077" data-name="Tracé 1077" d="M1160.522,987.789a5.421,5.421,0,0,1-.689.729l-2.116,2.052a62.039,62.039,0,0,1-9.026,6.855,61.018,61.018,0,0,1-16.531,6.926,66.772,66.772,0,0,1-23.679,1.506,75.742,75.742,0,0,1-13.551-2.869c-4.612-1.474-9.232-3.273-14.114-4.992-9.716-3.526-20.12-7.188-31.08-11.039-21.927-7.679-46.1-15.9-71.574-24.249-50.955-16.737-97.408-30.842-131.08-40.9L807.175,910l-10.849-3.217-2.813-.872a6.465,6.465,0,0,1-.943-.333,5.156,5.156,0,0,1,.983.214l2.845.753,10.912,3c9.462,2.639,23.14,6.53,40.019,11.435,33.735,9.842,80.244,23.821,131.214,40.558,25.477,8.36,49.655,16.641,71.567,24.352,10.952,3.883,21.4,7.584,31.056,11.15,4.85,1.736,9.509,3.582,14.05,5.048a75.038,75.038,0,0,0,13.369,2.908,66.716,66.716,0,0,0,23.409-1.308,61.7,61.7,0,0,0,16.451-6.673,67.766,67.766,0,0,0,9.113-6.625l2.187-1.957A6.38,6.38,0,0,1,1160.522,987.789Z" transform="translate(5966.379 5516.813)" fill="#263238"/>
        <path id="Tracé_1078" data-name="Tracé 1078" d="M780.459,905.713c0,.254-3.122-.42-8.107-.222a37.469,37.469,0,0,0-8.59,1.418,39.717,39.717,0,0,0-9.668,4.406,45.075,45.075,0,0,0-13.472,13.828c-2.639,4.24-3.772,7.132-3.962,7.077a8,8,0,0,1,.658-2.108,37.62,37.62,0,0,1,2.591-5.42,42.23,42.23,0,0,1,13.535-14.407,38.287,38.287,0,0,1,10.025-4.462,34.867,34.867,0,0,1,8.876-1.2,29.827,29.827,0,0,1,5.991.539,7.43,7.43,0,0,1,2.124.555Z" transform="translate(5977.983 5517.013)" fill="#263238"/>
        <path id="Tracé_1079" data-name="Tracé 1079" d="M722.91,882.8a2.688,2.688,0,0,1,.23-.626,5.979,5.979,0,0,1,1.086-1.537,11.174,11.174,0,0,1,6.173-3.067,32.178,32.178,0,0,1,10.191,0,58.476,58.476,0,0,1,12.093,2.94,53.149,53.149,0,0,1,19.185,11.736,41.343,41.343,0,0,1,4.446,5.206,9.658,9.658,0,0,1,1.292,2.155c-.2.151-2.14-2.869-6.34-6.728a56.824,56.824,0,0,0-19.019-11.213,61.937,61.937,0,0,0-11.831-2.948,32.534,32.534,0,0,0-9.882-.293A11.309,11.309,0,0,0,724.566,881C723.409,882.035,723.021,882.867,722.91,882.8Z" transform="translate(5980.836 5522.71)" fill="#263238"/>
        <path id="Tracé_1080" data-name="Tracé 1080" d="M786.274,679.618a22.335,22.335,0,0,1-.792-3.582c-.349-1.117-.864-2.464-1.395-4.034-.792-1.49-1.49-3.241-2.568-5.04a71.6,71.6,0,0,0-8.852-11.776,95.331,95.331,0,0,0-13.559-11.927c-10.437-7.512-21.4-11.887-29.646-13.614a62.019,62.019,0,0,0-9.874-1.26,22.518,22.518,0,0,1-3.669-.293,20.12,20.12,0,0,1,3.685-.182,51.4,51.4,0,0,1,10.025.88c8.384,1.514,19.621,5.856,30.192,13.472A90.177,90.177,0,0,1,773.5,654.426a67.417,67.417,0,0,1,8.772,12.109c1.046,1.854,1.751,3.677,2.449,5.214.491,1.632.943,3.019,1.228,4.176a20.594,20.594,0,0,1,.325,3.693Z" transform="translate(5982.288 5574.451)" fill="#263238"/>
        <path id="Tracé_1081" data-name="Tracé 1081" d="M1156.368,927.258a4.3,4.3,0,0,1-.063-.84c0-.618,0-1.434-.048-2.464-.072-2.171-.151-5.365-.468-9.509a131.785,131.785,0,0,0-6.982-33.98,48.215,48.215,0,0,0-4.755-10.389,20.334,20.334,0,0,0-9.2-7.8c-7.925-3.408-17.434-2.956-27.078-3.5l-63.309-2.655c-52.3-2.282-98.851-4.248-128.084-5.809l.388-.317c-1.767,10.746-3.17,19.265-4.137,25.176-.491,2.853-.88,5.08-1.149,6.664-.135.713-.238,1.276-.325,1.712a2.855,2.855,0,0,1-.143.579,2.974,2.974,0,0,1,0-.586c.055-.444.127-1.014.222-1.728.222-1.585.547-3.828.951-6.7.9-5.927,2.179-14.47,3.8-25.24l.055-.325h.341l128.1,5.333,63.3,2.758c4.866.238,9.6.357,14.264.729a40.533,40.533,0,0,1,13.2,2.964,21.349,21.349,0,0,1,9.581,8.218,48.494,48.494,0,0,1,4.755,10.611,127.788,127.788,0,0,1,6.641,34.242c.246,4.121.254,7.33.238,9.509,0,1.038-.055,1.854-.071,2.472A5.3,5.3,0,0,1,1156.368,927.258Z" transform="translate(5941.799 5528.442)" fill="#263238"/>
        <path id="Tracé_1083" data-name="Tracé 1083" d="M684.814,631.28s-.151.531-.483,1.585-.927,2.536-1.418,4.6c-1.149,4.081-2.6,10.191-4.232,18.139-3.281,15.849-7.33,39.139-11.887,68.246-2.251,14.557-4.652,30.581-7.013,47.9-1.2,8.646-1.942,17.664-2.576,27s-1.109,18.963-1.474,28.877c-.713,19.811-1.133,40.78-.563,62.6.167,5.46.372,10.968.792,16.507.135,2.781.594,5.547.935,8.289a66.41,66.41,0,0,0,2.013,8.146,46.374,46.374,0,0,0,7.814,14.93,33.749,33.749,0,0,0,13.408,10.3h.079c10.88,5.618,22.8,9.7,34.971,13.353s24.78,6.6,37.578,9.232a518.083,518.083,0,0,0,84.436,10.3,393.527,393.527,0,0,0,40.3-1.054c13.139-.911,25.937-2.282,38.323-4.121A403.866,403.866,0,0,0,984.6,960.132a352.829,352.829,0,0,0,55.614-23.861l.055.792-76.289-27.007-20.548-7.338-5.309-1.926c-1.189-.444-1.791-.7-1.791-.7s.626.182,1.831.586l5.349,1.815,20.6,7.132,76.416,26.65.9.317-.84.452A351.614,351.614,0,0,1,984.9,961.123a403.666,403.666,0,0,1-68.943,16.15c-12.41,1.854-25.24,3.249-38.394,4.168a391.1,391.1,0,0,1-40.415,1.086,515.966,515.966,0,0,1-84.642-10.3c-12.83-2.639-25.454-5.595-37.681-9.264s-24.17-7.758-35.193-13.472l.1.048a34.782,34.782,0,0,1-13.876-10.714,47.613,47.613,0,0,1-8-15.326,67.892,67.892,0,0,1-2.045-8.3c-.349-2.813-.792-5.611-.943-8.4-.452-5.547-.642-11.094-.792-16.554-.547-21.872-.1-42.792.658-62.675q.571-14.882,1.537-28.909c.642-9.335,1.411-18.385,2.639-27.054,2.377-17.315,4.858-33.331,7.132-47.888,4.644-29.1,8.812-52.3,12.228-68.222,1.7-7.924,3.209-14.034,4.43-18.107.531-2.052,1.173-3.55,1.521-4.573A13.624,13.624,0,0,1,684.814,631.28Z" transform="translate(5995.175 5573.743)" fill="#263238"/>
        <path id="Tracé_1084" data-name="Tracé 1084" d="M791.61,851.441C820.638,819.3,819.346,762.148,802.7,721.59c-1.537,43.934-6.72,82.891-10.69,125.588" transform="translate(5966.578 5555)" fill="#09a4f4"/>
        <path id="Tracé_1085" data-name="Tracé 1085" d="M802.828,732a6.742,6.742,0,0,1,0,1.4c-.071,1.054-.159,2.377-.261,4.018-.293,3.645-.682,8.638-1.165,14.732-1.03,12.592-2.441,29.7-3.962,48.609s-2.821,36.033-3.8,48.625c-.46,6.1-.84,11.094-1.117,14.74-.135,1.632-.254,2.956-.341,3.962a6.344,6.344,0,0,1-.206,1.395,5.8,5.8,0,0,1-.048-1.4c0-1.054.071-2.377.119-4.018.119-3.495.372-8.543.721-14.771.713-12.465,1.9-29.677,3.455-48.672s3.122-36.16,4.358-48.577c.642-6.086,1.165-11.094,1.585-14.708.2-1.585.357-2.948.483-3.962a5.369,5.369,0,0,1,.182-1.371Z" transform="translate(5966.517 5552.839)" fill="#263238"/>
        <path id="Tracé_1099" data-name="Tracé 1099" d="M1237.1,897.144c-.254.055-.658-4.065-3.241-10.064a43.918,43.918,0,0,0-16.031-19.193,34.114,34.114,0,0,0-12.98-4.683,109.766,109.766,0,0,0-11.419-1.189l-7.774-.539a12.468,12.468,0,0,1-2.837-.388,14,14,0,0,1,2.861-.087l7.79.151a97.1,97.1,0,0,1,11.562.935,34.685,34.685,0,0,1,13.472,4.755,42.847,42.847,0,0,1,16.142,19.9,38.2,38.2,0,0,1,2.2,7.536A11.181,11.181,0,0,1,1237.1,897.144Z" transform="translate(5885.384 5526.073)" fill="#263238"/>
        <path id="Tracé_1351" data-name="Tracé 1351" d="M1891.165,747.238c-9.7-8.828-11.094-23.433-10.785-36.54.491-21.943,5.809-46.359,11.95-67.438-1.276,37.435-4.049,70.37-1.585,104.12" transform="translate(5170.696 5602.955)" opacity="0.24" style="mix-blend-mode: overlay;isolation: isolate"/>
        <path id="Tracé_1352" data-name="Tracé 1352" d="M1902.344,569.08a7.35,7.35,0,0,1-.135,1.648c-.166,1.22-.388,2.774-.658,4.683-.61,4.065-1.45,9.945-2.425,17.22-1.949,14.55-4.192,34.7-5.547,57.057s-1.514,42.642-1.315,57.318c.1,7.338.222,13.281.349,17.386,0,1.926.063,3.495.087,4.755a7.61,7.61,0,0,1-.055,1.656,7.189,7.189,0,0,1-.222-1.641c-.087-1.228-.206-2.789-.349-4.715-.293-4.1-.571-10.04-.792-17.386-.452-14.692-.42-35.018.911-57.429s3.756-42.578,5.967-57.1c1.094-7.267,2.084-13.131,2.861-17.172.373-1.894.682-3.431.919-4.644A8.342,8.342,0,0,1,1902.344,569.08Z" transform="translate(5168.48 5618.351)" fill="#263238"/>
        <path id="Tracé_1100" data-name="Tracé 1100" d="M1101.19,840.2s23.187-35.13,29.115-39.734,56.549-27.451,62.477-23.774,2.282,11.649,2.282,11.649,21.4-7.5,23.71-4.549,2.742,7.98,0,12.085c0,0,11.887-1.831,11.887,1.823s-1.371,8.21-6.847,12.315-41.049,27.791-43.91,34.329l-11.522-.7Z" transform="translate(5902.326 5543.646)" fill="#ffbe9d"/>
        <path id="Tracé_1101" data-name="Tracé 1101" d="M1185.41,835.331a8.719,8.719,0,0,1,1.062-2.219,42.285,42.285,0,0,1,3.812-5.492,63.863,63.863,0,0,1,16.824-14.161,127.409,127.409,0,0,1,19.89-9.351c2.631-.991,4.755-1.751,6.26-2.251a9.459,9.459,0,0,1,2.377-.658,9.262,9.262,0,0,1-2.179,1.1l-6.11,2.615a161.542,161.542,0,0,0-19.613,9.6,70.523,70.523,0,0,0-16.784,13.67C1187.272,832.375,1185.608,835.442,1185.41,835.331Z" transform="translate(5884.847 5538.477)" fill="#aa6550"/>
        <path id="Tracé_1102" data-name="Tracé 1102" d="M1148.29,832.629a11.79,11.79,0,0,1,1.125-2.583c.792-1.585,1.973-3.962,3.566-6.791a64.977,64.977,0,0,1,6.387-9.462,30.114,30.114,0,0,1,4.866-4.818c1.957-1.315,4.018-2.56,6.142-3.82a170.078,170.078,0,0,1,22.648-11.292,66.372,66.372,0,0,1,7.283-2.441,11.987,11.987,0,0,1,2.781-.491c.048.206-3.851,1.109-9.739,3.733A215.163,215.163,0,0,0,1171,806.216c-2.116,1.252-4.184,2.488-6.086,3.756a29.935,29.935,0,0,0-4.676,4.549,72.069,72.069,0,0,0-6.514,9.177l-3.891,6.569a12.781,12.781,0,0,1-1.545,2.362Z" transform="translate(5892.55 5540.609)" fill="#aa6550"/>
        <path id="Tracé_1349" data-name="Tracé 1349" d="M1784.511,751.5a7.349,7.349,0,0,1-.135-1.656c0-1.228-.079-2.8-.135-4.755-.055-4.3-.127-10.207-.222-17.434,0-7.409-.087-16.15-.143-25.834,0-4.866,0-9.969-.048-15.255V673.79a1.632,1.632,0,0,1,.317-.84,1.735,1.735,0,0,1,1.426-.642l2.132-.119c22.5-.4,42.792.063,57.508.27l17.434.42,4.755.19a7.347,7.347,0,0,1,1.648.159,7.515,7.515,0,0,1-1.656.119l-4.755.071h-17.434c-14.7,0-35.05-.262-57.453.135l-2.06.111c-.468,0-.333,0-.436.1a.175.175,0,0,0,0,.111V701.8c-.055,9.684-.111,18.425-.151,25.834-.1,7.219-.166,13.131-.222,17.434-.055,1.934-.095,3.5-.127,4.755a7.564,7.564,0,0,1-.245,1.68Z" transform="translate(5190.728 5596.983)" fill="#263238"/>
        <path id="Tracé_1350" data-name="Tracé 1350" d="M1869.5,698.23a16.043,16.043,0,0,1-3.336.357c-2.155.143-5.27.293-9.121.436-7.695.277-18.345.5-30.113.483s-22.411-.262-30.113-.563c-3.844-.151-6.958-.3-9.113-.452a15.135,15.135,0,0,1-3.336-.372,15.643,15.643,0,0,1,3.352-.166h9.121l30.113.151,30.114-.079h9.121a15.481,15.481,0,0,1,3.312.206Z" transform="translate(5190.615 5591.609)" fill="#263238"/>
      </g>
      <ellipse id="Ellipse_52" data-name="Ellipse 52" cx="98.5" cy="259.5" rx="98.5" ry="259.5" transform="translate(724 4748)" opacity="0.11" style="mix-blend-mode: multiply;isolation: isolate"/>
      <ellipse id="Ellipse_53" data-name="Ellipse 53" cx="98.5" cy="259.5" rx="98.5" ry="259.5" transform="translate(1010 4749)" opacity="0.11" style="mix-blend-mode: multiply;isolation: isolate"/>
      <g id="Groupe_142" data-name="Groupe 142" transform="translate(-5924.688 331.072)">
        <path id="Tracé_1142" data-name="Tracé 1142" d="M749.52,841.1s-63.708,43.276-67.177,144.326c-1.174,33.891,15.469,141.826,15.469,141.826l372.65,1.495L1000.731,839.5,883.51,812.72Z" transform="translate(6000.447 3806.753)" fill="#07b5e7"/>
        <path id="Tracé_1143" data-name="Tracé 1143" d="M911.614,928.95,860.84,1140.756l126.891.836Z" transform="translate(5980.721 3793.913)" fill="#00002f"/>
        <path id="Tracé_1144" data-name="Tracé 1144" d="M915.718,877.41c.169,0,.391,2.669.685,6.921.294,4.643.649,10.39,1.05,16.741.374,6.547.623,12.453.7,16.776s0,6.956-.142,6.965-.382-2.669-.676-6.929c-.294-4.634-.649-10.381-1.05-16.741-.374-6.538-.632-12.453-.712-16.768S915.567,877.41,915.718,877.41Z" transform="translate(5974.678 3799.607)" fill="#263238"/>
        <path id="Tracé_1145" data-name="Tracé 1145" d="M940.549,903.595c0,.107-.827.294-2.153,1.067a10.817,10.817,0,0,0-4.216,4.706,9.1,9.1,0,0,0,.445,8.9,9.509,9.509,0,0,0,17.524-2.784,9.091,9.091,0,0,0-2.348-8.611,10.773,10.773,0,0,0-5.471-3.167c-1.494-.32-2.375-.24-2.375-.347s.2-.089.623-.142a6.868,6.868,0,0,1,1.832,0,10.622,10.622,0,0,1,5.986,3.033,10.88,10.88,0,0,1,2.553,3.985,9.67,9.67,0,0,1,.24,5.462,10.532,10.532,0,0,1-19.481,3.1,9.579,9.579,0,0,1-1.459-5.257,10.941,10.941,0,0,1,5.933-9.331,6.929,6.929,0,0,1,1.726-.6C940.327,903.577,940.54,903.559,940.549,903.595Z" transform="translate(5972.833 3796.763)" fill="#263238"/>
        <path id="Tracé_1146" data-name="Tracé 1146" d="M986.219,1033.585c0,.107-.827.3-2.144,1.067a10.825,10.825,0,0,0-4.225,4.706,9.1,9.1,0,0,0,.445,8.9,9.509,9.509,0,0,0,17.524-2.784,9.108,9.108,0,0,0-2.339-8.611,10.8,10.8,0,0,0-5.479-3.167c-1.495-.32-2.366-.24-2.375-.347s.213-.089.632-.142a7.2,7.2,0,0,1,1.824,0,10.621,10.621,0,0,1,5.986,3.033,10.762,10.762,0,0,1,2.553,3.985,9.59,9.59,0,0,1,.24,5.462,10.523,10.523,0,0,1-19.472,3.1,9.6,9.6,0,0,1-1.468-5.257,10.941,10.941,0,0,1,5.933-9.331,6.984,6.984,0,0,1,1.735-.6C986,1033.568,986.21,1033.55,986.219,1033.585Z" transform="translate(5967.787 3782.402)" fill="#263238"/>
        <path id="Tracé_1147" data-name="Tracé 1147" d="M825.937,939.22a4.648,4.648,0,0,1-.792,1c-.551.623-1.361,1.557-2.455,2.669a99.5,99.5,0,0,1-10.025,8.9,103.184,103.184,0,0,1-39.878,18.742c-8.468,1.779-16.785,2.775-24.32,1.993s-14.117-3.3-18.68-6.769a27.4,27.4,0,0,1-8.575-10.318,21.357,21.357,0,0,1-1.2-3.46,4.793,4.793,0,0,1-.222-1.263c.116,0,.454,1.708,1.832,4.528a28.1,28.1,0,0,0,8.646,9.847,36.791,36.791,0,0,0,18.3,6.369c7.383.712,15.594-.258,23.964-2.064a106.547,106.547,0,0,0,39.637-18.262,117.408,117.408,0,0,0,10.2-8.539l2.606-2.535A5.9,5.9,0,0,1,825.937,939.22Z" transform="translate(5996.304 3792.778)" fill="#263238"/>
        <path id="Tracé_1148" data-name="Tracé 1148" d="M825.933,962.81a4.921,4.921,0,0,1-.792,1c-.552.623-1.361,1.557-2.455,2.669a100.712,100.712,0,0,1-10.025,8.9,103.355,103.355,0,0,1-39.878,18.751c-8.468,1.779-16.785,2.775-24.32,1.993s-14.117-3.309-18.68-6.778a27.328,27.328,0,0,1-8.575-10.318,21.084,21.084,0,0,1-1.236-3.407,4.762,4.762,0,0,1-.222-1.254c.116,0,.454,1.7,1.832,4.519a27.949,27.949,0,0,0,8.646,9.847,36.791,36.791,0,0,0,18.3,6.369c7.383.712,15.594-.258,23.964-2.055a106.681,106.681,0,0,0,39.637-18.271,119.27,119.27,0,0,0,10.2-8.584l2.606-2.535A5.337,5.337,0,0,1,825.933,962.81Z" transform="translate(5996.308 3790.172)" fill="#263238"/>
        <path id="Tracé_1149" data-name="Tracé 1149" d="M827.325,955.67a4.284,4.284,0,0,1,.142.89c.071.658.169,1.539.294,2.669.267,2.411.649,5.862,1.13,10.274.943,8.9,2.722,21.811,3.558,37.867a177.754,177.754,0,0,1-.552,26.286,113.555,113.555,0,0,1-6.752,29.417,75.806,75.806,0,0,1-18.137,27.9,67.834,67.834,0,0,1-14.232,10.532,57.33,57.33,0,0,1-17.2,6.067c-12.267,2.242-24.747-.738-34.834-6.458a67.416,67.416,0,0,1-23.955-23.03,90.83,90.83,0,0,1-11.3-27.967A128.555,128.555,0,0,1,702.417,1024c-.24-16.1,1.557-29.043,2.669-37.93.632-4.394,1.13-7.828,1.477-10.23.178-1.121.32-2,.427-2.669a4.973,4.973,0,0,1,.187-.89,6.354,6.354,0,0,1-.071.89c-.071.658-.178,1.539-.311,2.669-.294,2.411-.721,5.853-1.263,10.256-1,8.9-2.669,21.838-2.313,37.858a128.3,128.3,0,0,0,3.185,25.921,89.968,89.968,0,0,0,11.27,27.575,66.474,66.474,0,0,0,23.59,22.612c9.927,5.6,22.1,8.495,34.078,6.3a56.036,56.036,0,0,0,16.848-5.933A66.535,66.535,0,0,0,806.2,1090.1a74.971,74.971,0,0,0,17.924-27.389,113.319,113.319,0,0,0,6.787-29.123,178.119,178.119,0,0,0,.685-26.152c-.7-16.011-2.348-28.919-3.158-37.849-.436-4.448-.729-7.943-.889-10.3-.08-1.139-.133-2.028-.178-2.669a5.924,5.924,0,0,1-.044-.943Z" transform="translate(5998.225 3790.961)" fill="#263238"/>
        <g id="Groupe_142-2" data-name="Groupe 142" transform="translate(6708.951 4857.609)" opacity="0.2">
          <path id="Tracé_1150" data-name="Tracé 1150" d="M711.76,1080.43c4.038,13.663,5.764,17.195,13.343,28.118s16.848,17.675,29.016,22.007a52.572,52.572,0,0,0,50.365-9.02c13.681-11.448,18.529-29.07,20.913-41.1-5.978,8.006-12.311,19.418-19.819,26.036s-17.417,12.453-27.273,14.144c-13.414,2.322-29.452-1.779-40.918-9.109s-18.449-20.388-25.565-31.071" transform="translate(-711.76 -1080.43)"/>
        </g>
        <g id="Groupe_143" data-name="Groupe 143" transform="translate(6718.548 4770.702)" opacity="0.2">
          <path id="Tracé_1151" data-name="Tracé 1151" d="M722.55,982.73c4.7,11.4,16.056,19.872,28.189,22.114s27.833-1.583,35.421-12.96c-26.686,9.367-53.185,9.571-63.61-9.153" transform="translate(-722.55 -982.73)"/>
        </g>
        <path id="Tracé_1152" data-name="Tracé 1152" d="M964.721,942.459a5.015,5.015,0,0,1-1.708-.1,30.24,30.24,0,0,1-4.563-1,42.7,42.7,0,0,1-24.088-18.289,30.3,30.3,0,0,1-2.179-4.127,4.876,4.876,0,0,1-.552-1.619c.187-.089,1.228,2.1,3.425,5.293a47.626,47.626,0,0,0,23.653,17.96C962.372,941.836,964.756,942.254,964.721,942.459Z" transform="translate(5972.901 3795.197)" fill="#263238"/>
        <g id="Groupe_144" data-name="Groupe 144" transform="translate(6906.639 4714.057)" opacity="0.2">
          <path id="Tracé_1153" data-name="Tracé 1153" d="M934,919.05c2.74,9.385,13.13,18.111,22.416,21.18a13.752,13.752,0,0,0,5.675.836,6.609,6.609,0,0,0,4.883-2.669c1.957-2.98.267-7.214-2.6-9.331s-6.52-2.74-9.989-3.558c-7.116-1.672-13.61,1.948-19.57-4.065" transform="translate(-934 -919.05)"/>
        </g>
        <g id="Groupe_145" data-name="Groupe 145" transform="translate(6708.488 4674.757)" opacity="0.2">
          <path id="Tracé_1154" data-name="Tracé 1154" d="M711.24,896.868c16.705,14.606,40.3,15.229,61.591,8.975s39.789-18.075,57.819-30.973c-19.7,3.9-36.471,12.9-56.378,15.834-18.974,2.793-38.7,3.087-57.366-3.256" transform="translate(-711.24 -874.87)"/>
        </g>
        <path id="Tracé_1155" data-name="Tracé 1155" d="M1059.146,1133.809a2.81,2.81,0,0,1-.427.258,12.732,12.732,0,0,1-1.317.6,19.872,19.872,0,0,1-5.426,1.352c-4.8.587-12.249-.409-19.57-5.257s-14.232-12.694-21.42-21.509a232.9,232.9,0,0,1-20.877-30.778,260.744,260.744,0,0,1-25.289-62.516c-2.144-8.379-3.558-15.238-4.359-20-.365-2.3-.649-4.136-.89-5.5a13.978,13.978,0,0,1-.222-1.93,11.871,11.871,0,0,1,.463,1.895l1.076,5.444c.97,4.732,2.473,11.564,4.714,19.881a271.6,271.6,0,0,0,25.5,62.143,239.29,239.29,0,0,0,20.7,30.689c7.116,8.824,13.832,16.785,21.037,21.482a30.108,30.108,0,0,0,19.089,5.5A28.06,28.06,0,0,0,1059.146,1133.809Z" transform="translate(5969.839 3787.33)" fill="#263238"/>
        <g id="Groupe_146" data-name="Groupe 146" transform="translate(6948.447 4838.484)" opacity="0.2">
          <path id="Tracé_1156" data-name="Tracé 1156" d="M981,1058.93s33.055,41.568,57.188,51.771c8.166,3.46,17.177,6.3,22.754,13.192,2.669,3.273,4.341,7.588,3.487,11.706a9.4,9.4,0,0,1-.445,1.432c-3.487,8.842-20.13,7.6-27.816,1.993-3.327-2.42-1.352-.89-4.039-2.891C1024.382,1130.315,983,1082.422,981,1058.93Z" transform="translate(-981 -1058.93)"/>
        </g>
        <path id="Tracé_1157" data-name="Tracé 1157" d="M812.427,427.5l21.1-4.2,104.386,1.228,53.025,11.644L1011.165,732.3,776.73,743.263Z" transform="translate(5990.013 3849.773)" fill="#e0e0e0"/>
        <path id="Tracé_1158" data-name="Tracé 1158" d="M987.138,719.117l5-134.675L983.82,428.25c32.993,8.5,78.083,18,103.007,46.407,16.216,18.484,32.094,42.128,37.974,80.182,6.911,44.717,16.011,130.494,21.7,178.448" transform="translate(5967.136 3849.226)" fill="#07b5e7"/>
        <path id="Tracé_1159" data-name="Tracé 1159" d="M982.79,696.8,820.709,723.141l-5.729-100.116-8.9-197.885c-46.994,1.913-100.588,40.794-116.679,71.038-11.164,21.029-20.584,45.455-23.537,69.072-5.6,44.9-15.122,121.6-20.815,169.562a98.738,98.738,0,0,0,27.184,80.4h0c23.537,24.275,60.372,32.655,93.472,25.8L1012.5,771.46Z" transform="translate(6004.636 3849.57)" fill="#07b5e7"/>
        <path id="Tracé_1160" data-name="Tracé 1160" d="M1005.6,695.971a2.281,2.281,0,0,1,.133-.569c.116-.418.276-.952.471-1.619q.676-2.242,1.913-6.227l7.339-23.252c6.351-19.845,15.229-47.572,25.423-79.4l.329.694-26.286-10.87-1.023-.427.89-.6,6.075-3.976,19.854-13.005-.24.649c-10.069-35.021-18.947-65.887-25.325-88.063l-7.383-26.081c-.827-3.016-1.477-5.337-1.939-7.045-.2-.756-.347-1.361-.471-1.832a2.945,2.945,0,0,1-.125-.632,4.013,4.013,0,0,1,.231.6c.142.463.338,1.05.569,1.779.507,1.663,1.219,4,2.135,6.992,1.823,6.164,4.448,15,7.712,25.983l25.707,87.965.116.409-.356.24-19.81,12.969-6.075,3.976-.1-1.023,26.268,10.9.489.2-.16.5c-10.354,31.783-19.365,59.465-25.8,79.284-3.238,9.785-5.835,17.666-7.65,23.128-.889,2.669-1.592,4.715-2.1,6.227l-.56,1.592a2.458,2.458,0,0,1-.258.525Z" transform="translate(5964.77 3848.622)" fill="#263238"/>
        <g id="Groupe_147" data-name="Groupe 147" transform="translate(6968.542 4406.182)" opacity="0.2">
          <path id="Tracé_1161" data-name="Tracé 1161" d="M1041.244,572.94c-1.05,4.35-5.017,10.416-8.166,12.24s-1.317,4.127,1.236,6.6c3.06,2.944,8.006,3.745,10.256,7.348,2.09,3.345,1,7.685-.187,11.448a830.482,830.482,0,0,1-40.794,104.457l37.654-114.607-26.277-10.888Z" transform="translate(-1003.59 -572.94)"/>
        </g>
        <path id="Tracé_1162" data-name="Tracé 1162" d="M821.7,698.378a2.626,2.626,0,0,1-.249-.463c-.16-.365-.374-.827-.64-1.4l-2.419-5.462c-2.1-4.848-5.115-11.8-8.9-20.459-7.534-17.6-18.084-42.279-30.3-70.842l-.178-.409.365-.267,20.744-14.82v.934l-13.743-10.888-6.076-4.812-3.016-2.455-.747-.587c-.142-.142-.214-.116-.418-.391a1.4,1.4,0,0,1-.311-.623,8.152,8.152,0,0,1-.258-2.046,114.552,114.552,0,0,1,1.4-14.953c1.37-9.723,2.98-19.036,4.563-27.9,3.185-17.719,6.333-33.624,9.02-46.976S795.5,449.444,797.1,442c.8-3.665,1.432-6.529,1.886-8.557l.516-2.224a3.89,3.89,0,0,1,.222-.747,4.122,4.122,0,0,1-.107.774c-.1.56-.231,1.308-.409,2.242-.391,2.037-.952,4.928-1.663,8.6l-6.227,31.641c-2.589,13.343-5.64,29.283-8.771,47-1.548,8.9-3.14,18.173-4.492,27.86a116.183,116.183,0,0,0-1.361,14.766,6.75,6.75,0,0,0,.2,1.717c-.053.267.667.676,1.121,1.076l3.007,2.375,6.067,4.8,13.77,10.906.6.48-.632.445-20.779,14.793.187-.676c12.062,28.634,22.487,53.372,29.915,71,3.647,8.753,6.556,15.754,8.584,20.628.961,2.366,1.708,4.216,2.251,5.533.231.6.409,1.068.56,1.441a1.867,1.867,0,0,1,.151.5Z" transform="translate(5990.142 3848.981)" fill="#263238"/>
        <rect id="Rectangle_2116" data-name="Rectangle 2116" width="176.055" height="241.836" rx="2.41" transform="translate(6839.183 4424.119) rotate(8.77)" fill="#00002f"/>
        <rect id="Rectangle_2118" data-name="Rectangle 2118" width="156.591" height="225.396" transform="translate(6850.728 4429.778) rotate(8.616)" fill="#ebebeb"/>
        <path id="Tracé_1163" data-name="Tracé 1163" d="M981.593,618.546a19.16,19.16,0,0,0-15.335-13.076l1.316-9.509a13.156,13.156,0,0,0-11.03-14.98h0a13.165,13.165,0,0,0-15.015,11L940,601.813l-3.327-.454a19.178,19.178,0,0,0-18.271,7.926l-2.571,3.638,67.293,10.39Zm-27.78-17.381a7.116,7.116,0,1,1,8.086-5.924,7.116,7.116,0,0,1-8.086,5.924Z" transform="translate(5974.646 3832.371)" fill="#263238"/>
        <path id="Tracé_1164" data-name="Tracé 1164" d="M921.87,645.186c-.053.32-9.474-.89-21.046-2.669s-20.913-3.558-20.824-3.843,9.465.89,21.037,2.669S921.914,644.821,921.87,645.186Z" transform="translate(5978.604 3825.985)" fill="#263238"/>
        <path id="Tracé_1165" data-name="Tracé 1165" d="M898.922,649.729c0,.32-4.608-.125-10.185-.978s-10.061-1.779-10.007-2.135,4.608.116,10.185.978S898.976,649.408,898.922,649.729Z" transform="translate(5978.745 3825.116)" fill="#263238"/>
        <path id="Tracé_1166" data-name="Tracé 1166" d="M994.224,687.113c-.053.32-26.206-3.451-58.406-8.424s-58.282-9.26-58.237-9.571,26.17,3.451,58.415,8.424S994.268,686.8,994.224,687.113Z" transform="translate(5978.872 3822.619)" fill="#263238"/>
        <path id="Tracé_1167" data-name="Tracé 1167" d="M992.294,699.621c-.053.32-26.206-3.451-58.406-8.424s-58.282-9.242-58.237-9.58,26.2,3.451,58.415,8.424S992.338,699.3,992.294,699.621Z" transform="translate(5979.085 3821.239)" fill="#263238"/>
        <path id="Tracé_1168" data-name="Tracé 1168" d="M990.364,712.122c-.053.32-26.206-3.451-58.406-8.424s-58.282-9.26-58.237-9.58,26.2,3.451,58.415,8.433S990.408,711.8,990.364,712.122Z" transform="translate(5979.298 3819.857)" fill="#263238"/>
        <path id="Tracé_1169" data-name="Tracé 1169" d="M988.434,724.632c-.053.311-26.205-3.46-58.406-8.433s-58.282-9.242-58.238-9.571,26.2,3.451,58.415,8.424S988.505,724.311,988.434,724.632Z" transform="translate(5979.512 3818.475)" fill="#263238"/>
        <path id="Tracé_1170" data-name="Tracé 1170" d="M986.514,737.132c-.053.32-26.206-3.451-58.406-8.424s-58.282-9.26-58.237-9.58,26.2,3.451,58.415,8.424S986.514,736.8,986.514,737.132Z" transform="translate(5979.724 3817.094)" fill="#263238"/>
        <path id="Tracé_1171" data-name="Tracé 1171" d="M984.574,749.632c-.053.32-26.206-3.451-58.406-8.424s-58.282-9.251-58.237-9.58,26.2,3.46,58.415,8.433S984.618,749.32,984.574,749.632Z" transform="translate(5979.938 3815.714)" fill="#263238"/>
        <path id="Tracé_1172" data-name="Tracé 1172" d="M924.506,751.879a8.994,8.994,0,0,1-2.322-.133c-1.486-.16-3.629-.427-6.28-.783-5.337-.7-12.587-1.779-20.646-3.007s-15.327-2.437-20.593-3.354c-2.669-.463-4.75-.89-6.227-1.147a9.33,9.33,0,0,1-2.259-.578,9.268,9.268,0,0,1,2.331.125c1.485.16,3.629.427,6.271.783,5.293.712,12.6,1.779,20.646,3.016s15.335,2.437,20.593,3.354c2.669.454,4.759.845,6.227,1.147A8.682,8.682,0,0,1,924.506,751.879Z" transform="translate(5980.131 3814.471)" fill="#263238"/>
        <path id="Tracé_1173" data-name="Tracé 1173" d="M1016.88,658.625c-.044.32-4.27-.071-9.429-.89s-9.3-1.7-9.251-2.019,4.27.071,9.429.889S1016.933,658.314,1016.88,658.625Z" transform="translate(5965.547 3824.11)" fill="#263238"/>
        <path id="Tracé_1174" data-name="Tracé 1174" d="M893.987,775.088c-.053.311-6.876-.471-15.238-1.779s-15.122-2.6-15.06-2.918,6.867.471,15.238,1.779S894.032,774.768,893.987,775.088Z" transform="translate(5980.407 3811.437)" fill="#263238"/>
        <path id="Tracé_1175" data-name="Tracé 1175" d="M893.3,786.6c0,.32-6.983-.489-15.487-1.779s-15.362-2.669-15.318-2.953,6.983.489,15.5,1.779S893.358,786.294,893.3,786.6Z" transform="translate(5980.538 3810.167)" fill="#263238"/>
        <path id="Tracé_1176" data-name="Tracé 1176" d="M994.962,788.922c-.053.32-3.371.071-7.41-.552s-7.285-1.4-7.232-1.708,3.362-.071,7.41.551S995.015,788.6,994.962,788.922Z" transform="translate(5967.522 3809.647)" fill="#263238"/>
        <path id="Tracé_1177" data-name="Tracé 1177" d="M993.952,799.222c0,.32-3.362.071-7.41-.551s-7.285-1.388-7.232-1.708,3.362-.071,7.41.552S994.005,798.911,993.952,799.222Z" transform="translate(5967.634 3808.509)" fill="#263238"/>
        <path id="Tracé_1178" data-name="Tracé 1178" d="M877.649,796.381c-.053.32-3.256.089-7.116-.516s-7.027-1.343-6.983-1.663,3.256-.089,7.116.516S877.693,796.061,877.649,796.381Z" transform="translate(5980.422 3808.815)" fill="#263238"/>
        <path id="Tracé_1179" data-name="Tracé 1179" d="M993.183,811.3c-.053.32-2.464.213-5.391-.24s-5.266-1.076-5.213-1.4,2.464-.214,5.391.24S993.227,810.984,993.183,811.3Z" transform="translate(5967.273 3807.111)" fill="#263238"/>
        <path id="Tracé_1180" data-name="Tracé 1180" d="M858.3,819.742a18.164,18.164,0,0,1,2.669,0l7.445.222,26.57,1.059h.6l-.142.587a12.764,12.764,0,0,1-4.652,7.232,10.532,10.532,0,0,1-8.975,2.046,10.425,10.425,0,0,1-7.356-6.369,9.1,9.1,0,0,1,2.722-9.7,8.176,8.176,0,0,1,3.558-1.868,4.667,4.667,0,0,1,1-.16,3.462,3.462,0,0,1,1.094,0,1.512,1.512,0,0,1,1.139.889,2.287,2.287,0,0,1,.142,1.2,17.515,17.515,0,0,1-7.4,12.249,10.888,10.888,0,0,1-6.618,2.206,6.226,6.226,0,0,1-5.337-3.869,9.429,9.429,0,0,1-.454-6.227c1.192-3.976,4-6.645,6.227-9.011l.6-.623.107.889a15.238,15.238,0,0,1-1.708,9.011,16.235,16.235,0,0,1-4.448,5.337,14.338,14.338,0,0,1-3.852,2.01,6.72,6.72,0,0,1-1.477.373,18.918,18.918,0,0,0,5.026-2.838,16.011,16.011,0,0,0,4.154-5.248,14.747,14.747,0,0,0,1.468-8.593l.7.231c-2.242,2.384-4.9,5.044-5.933,8.691a8.415,8.415,0,0,0,.454,5.577,5.2,5.2,0,0,0,4.5,3.22,9.885,9.885,0,0,0,5.924-2.046,16.271,16.271,0,0,0,4.608-4.919,16.083,16.083,0,0,0,2.268-6.591,1.356,1.356,0,0,0,0-.614c-.044-.089-.089-.133-.3-.178a4.964,4.964,0,0,0-1.61.142,7.205,7.205,0,0,0-3.042,1.61,8.006,8.006,0,0,0-2.411,8.433,9.313,9.313,0,0,0,6.538,5.666A9.429,9.429,0,0,0,890.109,828a11.769,11.769,0,0,0,4.332-6.6l.463.614-26.544-1.477-7.436-.5a15.529,15.529,0,0,1-2.624-.294Z" transform="translate(5981.001 3807.096)" fill="#263238"/>
        <path id="Tracé_1181" data-name="Tracé 1181" d="M979.446,837.523a5.523,5.523,0,0,1-1.281,1.343,7.6,7.6,0,0,1-1.886,1.21,4.395,4.395,0,0,1-3.087.16,3.087,3.087,0,0,1-1.548-1.139,3.842,3.842,0,0,1-.632-1.975,38.049,38.049,0,0,1,.294-4.288c.3-3.042.64-6.387,1-9.989l.978.383c-2.669,3.558-5.542,7.49-8.557,11.564-.729.97-1.441,1.93-2.144,2.882l-1.388,1.85.347-2.295c.89-5.987,1.779-11.564,2.482-16.465l.818.454a52.074,52.074,0,0,0-9.2,10.105c-1.886,2.713-2.775,4.394-2.882,4.341a4.169,4.169,0,0,1,.507-1.281,36.411,36.411,0,0,1,1.895-3.38,47.261,47.261,0,0,1,9.029-10.523l1.005-.889-.187,1.325c-.694,4.9-1.477,10.5-2.322,16.492l-1.041-.427,2.135-2.882,8.628-11.564,1.21-1.619-.24,2c-.418,3.558-.809,6.929-1.165,9.963a38.122,38.122,0,0,0-.4,4.145,2.544,2.544,0,0,0,1.6,2.535c1.975.7,3.629-.409,4.537-1.032a10.129,10.129,0,0,1,1.494-1.005Z" transform="translate(5970.567 3805.994)" fill="#263238"/>
        <path id="Tracé_1182" data-name="Tracé 1182" d="M981.735,832.8c0,.32-9.838.534-21.962.48s-21.971-.356-21.962-.685,9.829-.534,21.962-.48S981.744,832.475,981.735,832.8Z" transform="translate(5972.218 3804.611)" fill="#263238"/>
        <path id="Tracé_1183" data-name="Tracé 1183" d="M990.853,840.709c0,.32-7.828,1.441-17.559,2.5s-17.648,1.654-17.684,1.334,7.828-1.441,17.559-2.5S990.818,840.389,990.853,840.709Z" transform="translate(5970.252 3803.671)" fill="#263238"/>
        <g id="Groupe_149" data-name="Groupe 149" transform="translate(6762.398 4413.689)" opacity="0.2">
          <path id="Tracé_1184" data-name="Tracé 1184" d="M775.728,581.416c-.267,6.769,1.548,13.565,7.116,17.355-7.018,3.416-10.754,11.564-10.986,19.365s2.526,15.389,5.462,22.594c9.055,22.238,28.465,53.576,43.2,72.523,0,0-7.49-20.2-9.634-24.907-9.785-21.269-18.307-42.644-28.047-63.913-1.085-2.357-3.007-8.771-3.007-8.771a23.131,23.131,0,0,0,2.909-2.01c5.453-4.35,17.319-12.329,17.319-12.329s-24.338-19.267-24.338-19.943" transform="translate(-771.845 -581.38)"/>
        </g>
        <path id="Tracé_1185" data-name="Tracé 1185" d="M775.359,632.79c.329,0-.24,25.867-1.263,57.757s-2.117,57.73-2.437,57.721.249-25.867,1.272-57.766S775.039,632.781,775.359,632.79Z" transform="translate(5990.583 3826.63)" fill="#263238"/>
        <path id="Tracé_1186" data-name="Tracé 1186" d="M819.012,539.275l-2.242-.089c0-.89,3.247-85.608,5.764-119.33.4-5.257,2.384-9.447,5.915-12.453,6.983-5.969,17.444-5.2,17.888-5.168l-.178,2.233c-.107,0-10-.721-16.261,4.652a15.2,15.2,0,0,0-5.124,10.915C822.258,453.7,819.047,538.421,819.012,539.275Z" transform="translate(5985.59 3852.106)" fill="#263238"/>
        <path id="Tracé_1187" data-name="Tracé 1187" d="M842.316,707.391H838.34v-4.448h3.976a15.718,15.718,0,0,0,15.7-15.7V639.76h4.448v47.456A20.21,20.21,0,0,1,842.316,707.391Z" transform="translate(5983.207 3825.86)" fill="#455a64"/>
        <path id="Tracé_1188" data-name="Tracé 1188" d="M843.418,713.223a4.812,4.812,0,1,1-4.314-5.266A4.812,4.812,0,0,1,843.418,713.223Z" transform="translate(5983.707 3818.329)" fill="#263238"/>
        <path id="Tracé_1189" data-name="Tracé 1189" d="M796.251,707.241h-3.967a20.166,20.166,0,0,1-20.1-20.255l.178-47.456h4.448l-.178,47.456A15.7,15.7,0,0,0,792.3,702.749h3.967Z" transform="translate(5990.516 3825.886)" fill="#455a64"/>
        <path id="Tracé_1190" data-name="Tracé 1190" d="M793,713.056a4.812,4.812,0,1,0,4.341-5.248A4.812,4.812,0,0,0,793,713.056Z" transform="translate(5988.218 3818.345)" fill="#263238"/>
        <path id="Tracé_1191" data-name="Tracé 1191" d="M770.76,635.707l-.56-33.8c-.427-25.8,18.413-47.074,41.995-47.465a40.98,40.98,0,0,1,30.591,13.343,48.781,48.781,0,0,1,12.96,32.744l.56,33.847-6.716.107-.56-33.846a42.066,42.066,0,0,0-11.146-28.252,34.111,34.111,0,0,0-25.574-11.19c-19.881.329-35.759,18.564-35.394,40.643l.56,33.8Z" transform="translate(5990.735 3835.286)" fill="#263238"/>
        <path id="Tracé_1192" data-name="Tracé 1192" d="M982.767,539.846c-.107-.89-10.292-88.953-13.236-117.2l-.2-2.055c-.934-9.58-1.993-20.459-12.6-23.3l.587-2.17c12.1,3.273,13.29,15.46,14.232,25.245l.2,2.046c2.935,28.216,13.129,116.288,13.227,117.178Z" transform="translate(5970.128 3852.886)" fill="#263238"/>
        <circle id="Ellipse_50" data-name="Ellipse 50" cx="24.035" cy="24.035" r="24.035" transform="translate(6919.995 4377.628) rotate(-45)" fill="#263238"/>
        <path id="Tracé_1193" data-name="Tracé 1193" d="M997.392,539.4a11.626,11.626,0,1,1-11.617-11.617A11.626,11.626,0,0,1,997.392,539.4Z" transform="translate(5968.205 3838.231)" fill="#455a64"/>
        <path id="Tracé_1194" data-name="Tracé 1194" d="M823.683,731.65,793.51,805.872l240.733,66.715a77.211,77.211,0,0,0,65.113-11.3h0c25.183-17.791,31.338-48.844,28.278-79.595l-4.261-32.628Z" transform="translate(5988.159 3815.709)" fill="#07b5e7"/>
        <path id="Tracé_1195" data-name="Tracé 1195" d="M1107.364,813.895c-.267,0-.783-5.07-3.265-12.9a62.449,62.449,0,0,0-2.313-6.289c-.89-2.259-2.037-4.546-3.229-6.983a85.964,85.964,0,0,0-22.149-27.086c-2.153-1.646-4.154-3.265-6.227-4.545a63.592,63.592,0,0,0-5.711-3.558c-7.178-3.985-12.089-5.5-11.991-5.755a22.475,22.475,0,0,1,3.425,1.068,30.915,30.915,0,0,1,3.923,1.548,53.4,53.4,0,0,1,5.035,2.411,59.969,59.969,0,0,1,5.844,3.434c2.1,1.263,4.145,2.873,6.342,4.519a83.07,83.07,0,0,1,22.443,27.433c1.174,2.482,2.348,4.8,3.167,7.116a60.6,60.6,0,0,1,2.206,6.413,52.591,52.591,0,0,1,1.37,5.417,31.807,31.807,0,0,1,.738,4.145A21.015,21.015,0,0,1,1107.364,813.895Z" transform="translate(5959.551 3814.038)" fill="#263238"/>
        <g id="Groupe_150" data-name="Groupe 150" transform="translate(6694.842 4517.277)" opacity="0.2">
          <path id="Tracé_1196" data-name="Tracé 1196" d="M777.363,759.5c-18.387,1.521-32.548,3.211-51.593,5.542-11.84,1.45-24.151.632-28.02-10.674s-1.405-24.16,4.937-34.256,16.358-33.7,69.855-15.718Z" transform="translate(-695.9 -697.832)"/>
        </g>
        <path id="Tracé_1197" data-name="Tracé 1197" d="M815.34,759.947a1.778,1.778,0,0,1,.133-.507c.133-.4.294-.89.5-1.477q.738-2.055,2.028-5.64c1.841-4.981,4.448-12.071,7.73-20.868l.1-.276h.311l81.837,7.4,79.23,7.525,24.017,2.411,6.52.712,1.69.222a2.564,2.564,0,0,1,.578.107,1.778,1.778,0,0,1-.587,0l-1.7-.1-6.538-.5-24.017-2.046-79.257-7.179-81.837-7.774.409-.258c-3.4,8.744-6.138,15.789-8.059,20.744-.943,2.348-1.69,4.208-2.224,5.56-.249.578-.445,1.05-.6,1.432a1.842,1.842,0,0,1-.258.507Z" transform="translate(5985.748 3815.761)" fill="#263238"/>
        <g id="Groupe_151" data-name="Groupe 151" transform="translate(6900.119 4614.251)" opacity="0.2">
          <path id="Tracé_1198" data-name="Tracé 1198" d="M926.67,844.859c34.193,9.162,54.982,3.843,86.035-13.147,5.862-3.2,12.96-8.379,18.289-12.409,6.227-4.732,11.706-12.453,11.706-12.453-40.029,15.309-73.2,26.81-114.42,38.4" transform="translate(-926.67 -806.85)"/>
        </g>
        <path id="Tracé_1199" data-name="Tracé 1199" d="M803.24,753.62l7.81-21.847-18.173-28.42a21.411,21.411,0,0,0-14.063-9.5L711.966,681.23s-3.131,8.13,5.631,13.138,48.168,14.179,48.168,14.179l-60.684-1.032s-1.877,8.762,5.008,11.893,50.116,4.715,50.116,4.715l-55.355,7.8s-.329,8.789,12.329,8.9a366.255,366.255,0,0,0,37.307-2.348,1.993,1.993,0,0,1,2.242,1.637h0a1.993,1.993,0,0,1-1.5,2.259l-36.8,8.691c-4.875,1.147-5.221,8.264-.374,9.518a5.944,5.944,0,0,0,2.055.142c6.227-.623,43.729-5.337,43.729-5.337l1.939,4.368,37.467-6.093" transform="translate(5997.954 3821.279)" fill="#ffbe9d"/>
        <path id="Tracé_1200" data-name="Tracé 1200" d="M781.514,754.093c-.2.053-.347-1.61-2.055-3.327a9.28,9.28,0,0,0-3.558-2.179,13.345,13.345,0,0,0-5.115-.569c-3.718.267-7.072,1.334-9.6,1.663s-4.127.214-4.118.062,1.539-.285,3.958-.89a52.232,52.232,0,0,1,9.687-2.019,13.484,13.484,0,0,1,5.551.721,9.384,9.384,0,0,1,3.772,2.669C781.8,752.314,781.63,754.164,781.514,754.093Z" transform="translate(5992.185 3814.036)" fill="#aa6550"/>
        <path id="Tracé_1201" data-name="Tracé 1201" d="M786.259,735.428c-.1,0-.16-.623-.667-1.574A7.641,7.641,0,0,0,782.4,730.7c-3.38-1.975-9.091-1.325-15.122-.89s-11.519,1.29-15.478,1.779-6.422.8-6.449.64,2.384-.72,6.316-1.459a155.826,155.826,0,0,1,15.513-2.161c3.06-.249,5.96-.4,8.646-.347a13.815,13.815,0,0,1,6.965,1.717,7.535,7.535,0,0,1,3.184,3.665A2.74,2.74,0,0,1,786.259,735.428Z" transform="translate(5993.48 3816.085)" fill="#aa6550"/>
        <path id="Tracé_1202" data-name="Tracé 1202" d="M792.716,723.864c-.231,0,.311-2.224-1.405-5.053a11.5,11.5,0,0,0-4.047-3.914,17.143,17.143,0,0,0-6.689-1.966c-5.017-.48-9.732.107-13.147-.276s-5.408-1.174-5.337-1.3,2.064.409,5.4.471,8.006-.551,13.236-.062a17.282,17.282,0,0,1,7.116,2.206,11.786,11.786,0,0,1,4.216,4.448,8.22,8.22,0,0,1,1,3.994A2.829,2.829,0,0,1,792.716,723.864Z" transform="translate(5991.63 3817.953)" fill="#aa6550"/>
        <path id="Tracé_1203" data-name="Tracé 1203" d="M1040.51,714.049a21.355,21.355,0,0,1,.347-3.629c.285-2.331.89-5.675,1.637-9.785,1.539-8.246,4.27-19.507,7.116-31.952a284.216,284.216,0,0,0,5.844-32.139c.285-2.073.391-3.958.542-5.613s.249-3.078.293-4.252a22.037,22.037,0,0,1,.311-3.629,22.283,22.283,0,0,1,.142,3.647c0,1.174,0,2.606-.1,4.279s-.142,3.558-.365,5.648c-.676,8.379-2.669,19.845-5.533,32.317s-5.746,23.679-7.49,31.863c-.89,4.092-1.574,7.41-1.992,9.714a22.205,22.205,0,0,1-.756,3.531Z" transform="translate(5960.873 3827.706)" fill="#263238"/>
        <path id="Tracé_1204" data-name="Tracé 1204" d="M1050.969,886.218a6.006,6.006,0,0,1-1.317-.214l-3.718-.889-13.627-3.354c-11.493-2.909-27.318-7.116-44.734-11.928S954.446,860.359,943.1,856.9l-13.379-4.11-3.62-1.21a6.221,6.221,0,0,1-1.236-.489,5.339,5.339,0,0,1,1.308.267l3.683,1,13.494,3.825L987.883,868.8l44.628,12.249,13.53,3.709,3.674,1.059A5.552,5.552,0,0,1,1050.969,886.218Z" transform="translate(5973.649 3802.514)" fill="#263238"/>
        <path id="Tracé_1205" data-name="Tracé 1205" d="M807.37,151.905c4.919-15.2,30.173-28.954,44.023-36.915,20.717-11.911,39.922-9.518,51.744,1.067,21.393-17.942,49.538-35.172,76.544-28.118s48.924,34.692,44,62.2c-2.9,16.189-14.108,30.715-13.459,47.145.445,11.208,6.378,21.349,11.11,31.48s8.362,22.016,4.145,32.406c-3.914,9.669-13.708,15.7-18.974,24.7-4.3,7.339-5.337,16.083-8.006,24.124-10.176,29.8-45.366,46.5-76.419,41.265s-56.93-28.607-71.571-56.476-19.552-59.856-21.224-91.328" transform="translate(5986.628 3887)" fill="#00002f"/>
        <path id="Tracé_1206" data-name="Tracé 1206" d="M833.1,179.543l6.227,248.463c2.224,28.465,28.465,49.253,58.958,46.638h0c30.778-2.669,54.261-28.109,52.482-56.93-1.859-30.244-3.265-62.1-3.265-62.1s38.525-8.984,43.311-60.31c2.455-26.3-1.779-69.383-6.227-103.657a50.97,50.97,0,0,0-59.163-43.64" transform="translate(5983.786 3880.266)" fill="#ffbe9d"/>
        <path id="Tracé_1207" data-name="Tracé 1207" d="M988.967,237.865a6.529,6.529,0,0,1-5.853,6.983A6.227,6.227,0,0,1,976,239.4a6.529,6.529,0,0,1,5.853-6.983,6.227,6.227,0,0,1,7.116,5.444Z" transform="translate(5968.001 3870.867)" fill="#00002f"/>
        <path id="Tracé_1208" data-name="Tracé 1208" d="M994.548,230.336c-.756.89-5.933-2.428-12.943-1.957s-11.92,4.305-12.738,3.5c-.4-.356.329-1.939,2.464-3.718a17.79,17.79,0,0,1,10.1-3.852,17.2,17.2,0,0,1,10.363,2.624C994.085,228.477,994.921,229.936,994.548,230.336Z" transform="translate(5968.799 3871.76)" fill="#00002f"/>
        <path id="Tracé_1209" data-name="Tracé 1209" d="M913.187,245.785a6.529,6.529,0,0,1-5.853,6.983,6.227,6.227,0,0,1-7.116-5.444,6.529,6.529,0,0,1,5.853-6.983,6.227,6.227,0,0,1,7.116,5.444Z" transform="translate(5976.373 3869.992)" fill="#00002f"/>
        <path id="Tracé_1210" data-name="Tracé 1210" d="M917.149,236.806c-.756.89-5.933-2.428-12.934-1.957s-11.929,4.305-12.738,3.5c-.4-.356.311-1.939,2.455-3.718a18.014,18.014,0,0,1,10.132-3.852,17.221,17.221,0,0,1,10.372,2.624C916.686,234.911,917.522,236.406,917.149,236.806Z" transform="translate(5977.349 3871.046)" fill="#00002f"/>
        <path id="Tracé_1211" data-name="Tracé 1211" d="M951.861,286.943c-.062-.4,4.252-1.432,11.253-2.793,1.779-.294,3.451-.765,3.674-2s-.534-3.211-1.539-5.23q-2.944-6.333-6.173-13.343c-8.611-18.938-14.962-34.558-14.232-34.9s8.362,14.739,16.972,33.678q3.1,7.009,5.96,13.387c.809,1.993,2.117,4.225,1.379,6.965a4.51,4.51,0,0,1-2.775,2.811,12.337,12.337,0,0,1-3.015.614C956.318,287.023,951.906,287.335,951.861,286.943Z" transform="translate(5971.448 3871.273)" fill="#00002f"/>
        <path id="Tracé_1212" data-name="Tracé 1212" d="M953.1,379.791s-34.042,4.448-69.223-13.761c0,0,19.249,34.2,69.8,26.17Z" transform="translate(5978.176 3856.1)" fill="#aa6550"/>
        <path id="Tracé_1213" data-name="Tracé 1213" d="M916.45,205.99c-.569,1.948-7.632,1.494-15.8,3.024-8.193,1.361-14.668,4.19-15.869,2.553-.543-.783.5-2.669,3.06-4.67a27.949,27.949,0,0,1,24.124-4.252C915.071,203.669,916.681,205.065,916.45,205.99Z" transform="translate(5978.092 3874.269)" fill="#00002f"/>
        <path id="Tracé_1214" data-name="Tracé 1214" d="M990.395,207.66c-1.13,1.663-6.067.329-11.875.623-5.826.1-10.674,1.779-11.9.169-.543-.774.125-2.42,2.179-4.065a17.2,17.2,0,0,1,19.16-.64C990.11,205.249,990.893,206.842,990.395,207.66Z" transform="translate(5969.056 3874.315)" fill="#00002f"/>
        <path id="Tracé_1215" data-name="Tracé 1215" d="M939.744,309c5.479.053,8.237,1.61,12.88,4.51a8.077,8.077,0,0,1,3.318,3.282c.89,1.93.347,4.243-.694,6.1a12.257,12.257,0,0,1-11.617,6.227,11.306,11.306,0,0,1-9.785-8.637,10.479,10.479,0,0,1,5.9-11.484" transform="translate(5972.677 3862.4)" fill="#cc6868"/>
        <path id="Tracé_1216" data-name="Tracé 1216" d="M958.119,320.43c.089.525-1.779,1.343-4.8,1.156a26.178,26.178,0,0,1-10.995-3.558,30.244,30.244,0,0,1-8.789-7.374c-1.832-2.357-2.384-4.207-1.921-4.5.89-.6,5.551,4.225,12.792,8.219a54.344,54.344,0,0,0,9.456,4.314C956.357,319.523,958.047,319.808,958.119,320.43Z" transform="translate(5972.92 3862.72)" fill="#00002f"/>
        <circle id="Ellipse_51" data-name="Ellipse 51" cx="1.859" cy="1.859" r="1.859" transform="translate(6894.559 4135.667)" fill="#aa6550"/>
        <path id="Tracé_1217" data-name="Tracé 1217" d="M983.328,260.439a1.859,1.859,0,1,1-1.859-1.859A1.859,1.859,0,0,1,983.328,260.439Z" transform="translate(5967.601 3867.97)" fill="#aa6550"/>
        <path id="Tracé_1218" data-name="Tracé 1218" d="M994.886,265.889a1.868,1.868,0,1,1-1.859-1.859A1.868,1.868,0,0,1,994.886,265.889Z" transform="translate(5966.326 3867.368)" fill="#aa6550"/>
        <path id="Tracé_1219" data-name="Tracé 1219" d="M998.406,257.139a1.868,1.868,0,1,1-1.859-1.859,1.868,1.868,0,0,1,1.859,1.859Z" transform="translate(5965.937 3868.334)" fill="#aa6550"/>
        <path id="Tracé_1220" data-name="Tracé 1220" d="M914.538,279.929a1.859,1.859,0,1,1-1.859-1.859,1.859,1.859,0,0,1,1.859,1.859Z" transform="translate(5975.2 3865.817)" fill="#aa6550"/>
        <path id="Tracé_1221" data-name="Tracé 1221" d="M906.726,271.509a1.868,1.868,0,1,1-1.868-1.859A1.868,1.868,0,0,1,906.726,271.509Z" transform="translate(5976.065 3866.747)" fill="#aa6550"/>
        <path id="Tracé_1222" data-name="Tracé 1222" d="M933.345,242.375a61.241,61.241,0,0,0-1.236-7.837,32.192,32.192,0,0,0-11.786-17.533,31.631,31.631,0,1,0,11.786,33.188,55.883,55.883,0,0,0,1.236-7.846,1.988,1.988,0,0,1,0,.525v1.548a15.237,15.237,0,0,1-.2,2.5,23.8,23.8,0,0,1-.6,3.38,30.7,30.7,0,0,1-3.5,8.735,32.83,32.83,0,1,1,.009-33.34,30.7,30.7,0,0,1,3.5,8.735,23.91,23.91,0,0,1,.6,3.371,15.406,15.406,0,0,1,.2,2.508v1.539A1.92,1.92,0,0,1,933.345,242.375Z" transform="translate(5979.921 3873.385)" fill="#fff"/>
        <path id="Tracé_1223" data-name="Tracé 1223" d="M955.359,235.185c-.133.32-3.389-1.388-7.659-.89s-7.116,2.749-7.312,2.464c-.1-.1.471-.89,1.708-1.69a12.453,12.453,0,0,1,11.288-1.174C954.728,234.456,955.431,235.07,955.359,235.185Z" transform="translate(5971.935 3870.79)" fill="#fff"/>
        <path id="Tracé_1224" data-name="Tracé 1224" d="M916.866,138.183c-4.59,40.474-34.612,76.944-73.448,89.211,12.534,18.066,4.634,52.42,4.964,81.1.294,26.686.285,34.291-17,47.874-14.232,3.443-22.505-35.67-33.108-46.585s-20.762-24.4-19.979-39.6c.374-7.116,3.149-13.921,3.558-21.028.427-7.89-2.09-15.593-3.487-23.368-6.227-34.4,11.644-71.385,41.612-89.38s69.952-16.759,99.672,1.628" transform="translate(5989.969 3882.886)" fill="#00002f"/>
        <path id="Tracé_1225" data-name="Tracé 1225" d="M825.136,319.529A98.419,98.419,0,0,0,806.385,283.8l.649,1.4c-7.116-16.216-24.818-27.148-42.5-26.25s-34.185,13.565-39.62,30.422.56,36.782,14.393,47.839c-5.052-1.112-10.149,3.22-11.279,8.273s.89,10.345,3.781,14.615c10.505,15.353,34.327,19.41,49.315,8.388,11.866,8.006,29.426,3.354,38.25-7.961S829.192,333.273,825.136,319.529Z" transform="translate(5995.957 3867.935)" fill="#00002f"/>
        <path id="Tracé_1226" data-name="Tracé 1226" d="M783.226,246.669a10.677,10.677,0,0,1-1.281-1.432,14.73,14.73,0,0,1-2.348-4.964c-1.379-4.634-.729-11.964,2.953-19.712a38.857,38.857,0,0,1,8.095-11.359,77.553,77.553,0,0,1,12.2-10.381,64.649,64.649,0,0,1,15.834-7.926c5.817-1.984,11.973-3.558,18.253-5.106s12.4-3.122,18.138-5.133a113.056,113.056,0,0,0,16.065-6.974,118.754,118.754,0,0,0,37.858-31.721c1.485-1.841,2.553-3.345,3.291-4.35a12.049,12.049,0,0,1,1.192-1.5,12.3,12.3,0,0,1-1,1.637c-.676,1.05-1.69,2.6-3.122,4.492a111.587,111.587,0,0,1-13.432,15.006,117.282,117.282,0,0,1-24.284,17.39,112.186,112.186,0,0,1-16.2,7.116c-5.791,2.046-11.946,3.611-18.226,5.195s-12.453,3.1-18.173,5.044a64.284,64.284,0,0,0-15.594,7.739,77.833,77.833,0,0,0-12.107,10.114,38.75,38.75,0,0,0-8.006,11.048c-3.709,7.561-4.448,14.7-3.256,19.249S783.44,246.554,783.226,246.669Z" transform="translate(5989.77 3881.499)" fill="#001551"/>
        <path id="Tracé_1230" data-name="Tracé 1230" d="M1020.759,233.5a61.466,61.466,0,0,0-1.237-7.846,32.218,32.218,0,0,0-11.786-17.533,31.824,31.824,0,0,0-44.9,44.147,30.091,30.091,0,0,0,6.716,6.76,29.782,29.782,0,0,0,8.006,4.332,32.023,32.023,0,0,0,41.932-22.025,56.071,56.071,0,0,0,1.236-7.837,2.169,2.169,0,0,1,0,.525v1.539a15.373,15.373,0,0,1-.2,2.508,22.786,22.786,0,0,1-.6,3.38,30.7,30.7,0,0,1-3.5,8.726,32.76,32.76,0,1,1-54.555-36.133,31.028,31.028,0,0,1,6.965-6.974,30.7,30.7,0,0,1,8.335-4.448,32.913,32.913,0,0,1,17.257-1.37,32.531,32.531,0,0,1,13.761,6.227,32.175,32.175,0,0,1,8.228,9.358,30.663,30.663,0,0,1,3.5,8.726,22.6,22.6,0,0,1,.6,3.38,15.264,15.264,0,0,1,.2,2.5V233A2.166,2.166,0,0,1,1020.759,233.5Z" transform="translate(5970.27 3874.365)" fill="#fff"/>
        <path id="Tracé_1231" data-name="Tracé 1231" d="M831.779,372.118a5.976,5.976,0,0,1-1.085-.738c-.694-.516-1.7-1.3-2.98-2.322a89.053,89.053,0,0,1-10.185-9.473c-3.887-4.332-8.228-10.319-9.58-18.182-.694-3.905-.4-8.006-.551-12.2s-.89-8.451-3.487-12.018-5.809-6.467-8.762-9.491a35.75,35.75,0,0,1-7.223-9.918,43.764,43.764,0,0,1-3.487-10.532,42.7,42.7,0,0,1-.89-9.616c.125-2.971.712-5.577.97-7.872a25.192,25.192,0,0,0,.125-5.889c-.374-3.22-1-4.946-.889-4.981a6.071,6.071,0,0,1,.471,1.228,23.567,23.567,0,0,1,.889,3.7,24.585,24.585,0,0,1,.071,6.013c-.2,2.339-.729,4.946-.8,7.828a46.149,46.149,0,0,0,4.563,19.641,35.022,35.022,0,0,0,7.063,9.6c2.927,2.971,6.307,5.844,8.9,9.633a19.088,19.088,0,0,1,2.846,6.156,29.226,29.226,0,0,1,.818,6.485c.134,4.243-.169,8.308.48,12.053,1.228,7.561,5.337,13.467,9.127,17.791a104.473,104.473,0,0,0,9.865,9.669l2.829,2.482A5.159,5.159,0,0,1,831.779,372.118Z" transform="translate(5989.261 3867.936)" fill="#001551"/>
        <path id="Tracé_1232" data-name="Tracé 1232" d="M801.016,327.51a2.534,2.534,0,0,1,0,.89,24.875,24.875,0,0,1-.169,2.624,42.035,42.035,0,0,1-2.179,9.438,46.033,46.033,0,0,1-50.774,30.4,42,42,0,0,1-9.34-2.535,24.347,24.347,0,0,1-2.393-1.094c-.543-.267-.818-.427-.8-.463.1-.267,4.626,2.2,12.658,3.282a48.159,48.159,0,0,0,14.09-.231,44.761,44.761,0,0,0,28.972-17.292,48.036,48.036,0,0,0,6.858-12.311C800.767,332.625,800.731,327.466,801.016,327.51Z" transform="translate(5994.583 3860.355)" fill="#001551"/>
        <path id="Tracé_1233" data-name="Tracé 1233" d="M791.814,315.68a12.953,12.953,0,0,1-.658,3.06A43.022,43.022,0,0,1,788,326.692a51.449,51.449,0,0,1-19.089,20.459,55.392,55.392,0,0,1-26.891,7.881,49.469,49.469,0,0,1-8.539-.445,14.277,14.277,0,0,1-3.069-.632c0-.24,4.448.649,11.564.249a57.472,57.472,0,0,0,26.321-8.05A53.1,53.1,0,0,0,787.26,326.3C790.676,320.021,791.574,315.6,791.814,315.68Z" transform="translate(5995.13 3861.662)" fill="#001551"/>
        <path id="Tracé_1234" data-name="Tracé 1234" d="M725.78,289.9a8.9,8.9,0,0,1,2.01-1.165,17.887,17.887,0,0,1,2.491-1.112,30.659,30.659,0,0,1,3.416-1.2,46.832,46.832,0,0,1,9.251-1.779,54.606,54.606,0,0,1,11.564.231,55.364,55.364,0,0,1,11.208,2.811,44.8,44.8,0,0,1,8.415,4.252,27.907,27.907,0,0,1,2.953,2.1,16.2,16.2,0,0,1,2.073,1.779c1.085,1.032,1.655,1.628,1.592,1.69a73.819,73.819,0,0,0-7.045-4.866,49.2,49.2,0,0,0-8.362-3.95,58.874,58.874,0,0,0-10.995-2.669,57.507,57.507,0,0,0-11.3-.32,51.973,51.973,0,0,0-9.126,1.53C728.813,288.577,725.878,290.115,725.78,289.9Z" transform="translate(5995.642 3865.113)" fill="#001551"/>
        <path id="Tracé_1236" data-name="Tracé 1236" d="M856.307,257.281c-.24-.2,1.583-2.784,4.617-5.2s5.942-3.638,6.084-3.362-2.437,1.93-5.337,4.279S856.556,257.495,856.307,257.281Z" transform="translate(5981.225 3869.064)" fill="#fff"/>
        <path id="Tracé_1237" data-name="Tracé 1237" d="M785.2,257.517a3.227,3.227,0,0,1-.294-.436l-.756-1.37a19.934,19.934,0,0,1-1.734-5.737c-.89-5.115.293-13.21,5.9-20.824a34.037,34.037,0,0,1,4.99-5.4,40.122,40.122,0,0,1,6.6-4.448,57.82,57.82,0,0,1,16.536-5.684c12.115-2.535,25.752-1.912,39.655-3.994a60.648,60.648,0,0,0,19.445-6.049,58.53,58.53,0,0,0,15.033-11.564c8.433-8.833,13.628-18.742,17.328-27.166s6-15.62,7.668-20.521l1.9-5.657c.2-.6.374-1.076.516-1.468a2.162,2.162,0,0,1,.213-.489,2.043,2.043,0,0,1-.1.525c-.116.4-.249.89-.409,1.494-.409,1.405-.979,3.318-1.69,5.729a215.364,215.364,0,0,1-7.339,20.717c-3.629,8.5-8.789,18.564-17.31,27.575a59.349,59.349,0,0,1-15.282,11.822,61.779,61.779,0,0,1-19.792,6.227c-14.09,2.09-27.664,1.441-39.637,3.887-11.92,2.2-22.238,7.463-27.673,15-5.551,7.374-6.84,15.247-6.111,20.272S785.423,257.446,785.2,257.517Z" transform="translate(5989.414 3881.433)" fill="#fafafa"/>
        <path id="Tracé_1239" data-name="Tracé 1239" d="M783.662,248.627a2.09,2.09,0,0,1-.552-.24l-1.557-.818a41.718,41.718,0,0,1-5.568-3.843,46.9,46.9,0,0,1-14.393-20.068c-3.807-9.785-4.225-23.439,1.93-36.142A45.9,45.9,0,0,1,777.347,170.7,65.293,65.293,0,0,1,798.375,160.4a117.544,117.544,0,0,1,23.03-4.2c7.525-.712,14.793-1.05,21.7-1.53a186.437,186.437,0,0,0,19.49-2.188,87.616,87.616,0,0,0,16.43-4.448,58.611,58.611,0,0,0,20.726-13.049,51.433,51.433,0,0,0,4.332-5.124l1.023-1.423a2.036,2.036,0,0,1,.382-.463,34.734,34.734,0,0,1-5.417,7.33A57.571,57.571,0,0,1,879.313,148.8a86.848,86.848,0,0,1-16.554,4.643,185.723,185.723,0,0,1-19.57,2.3c-13.788,1.094-29.185,1.2-44.476,5.773a64.34,64.34,0,0,0-20.673,10.061,44.967,44.967,0,0,0-13.547,16.394,45.533,45.533,0,0,0-2.126,35.385,47.741,47.741,0,0,0,19.312,24.017l1.485.89A2.491,2.491,0,0,1,783.662,248.627Z" transform="translate(5991.994 3882.397)" fill="#001551"/>
        <g id="Groupe_152" data-name="Groupe 152" transform="translate(7005.756 4531.833)" opacity="0.2">
          <path id="Tracé_1241" data-name="Tracé 1241" d="M1050.687,787.4c10.9-3.069,22.238,6.707,33.224,4.172,6.832-1.566,11.8-7.561,14.828-13.868s4.688-13.236,7.917-19.454,8.619-11.955,15.558-12.907c6.351-.89,13.894,2.117,18.627-2.206,3.665-3.345,3.158-9.571.249-13.592s-7.525-6.369-11.973-8.566c-4.99-2.464-10.043-4.955-15.478-6.129s-11.395-.889-16.207,1.877c-9.322,5.426-11.235,17.711-13.9,28.162-1.859,7.276-4.6,14.437-9.153,20.406s-11.075,10.674-18.467,11.92c-2.811.48-5.853.507-8.21,2.108s-3.265,5.657-.836,7.116" transform="translate(-1045.427 -714.196)"/>
        </g>
        <path id="Tracé_1242" data-name="Tracé 1242" d="M987.55,739.486l40.82-14.135,36.577-57.2a24.329,24.329,0,0,1,16.012-10.79L1146.535,645s3.131,8.139-5.631,13.138-48.168,14.179-48.168,14.179l60.684-1.032s1.877,8.762-5.008,11.893-50.116,4.714-50.116,4.714l55.355,7.8s.329,8.789-12.329,8.9a368.946,368.946,0,0,1-37.307-2.339,1.975,1.975,0,0,0-2.242,1.628h0a1.984,1.984,0,0,0,1.5,2.259l36.8,8.691c4.875,1.147,5.221,8.264.374,9.518a5.737,5.737,0,0,1-2.055.142c-6.227-.623-43.729-5.337-43.729-5.337s-13.218,46.309-21.785,50.063-26.49,4.759-26.49,4.759l-38.09,15.122Z" transform="translate(5966.724 3825.281)" fill="#ffbe9d"/>
        <path id="Tracé_1243" data-name="Tracé 1243" d="M1159.891,674.211a16.9,16.9,0,0,1-3.184.311l-8.682.427c-7.339.311-17.479.658-28.67.97l-15.789.391c-4.839.062-9.2.383-12.525,1.779a13.343,13.343,0,0,0-6.44,5.337,20.982,20.982,0,0,0-1.263,2.873,2.147,2.147,0,0,1,.062-.836,9.037,9.037,0,0,1,.81-2.259,13.343,13.343,0,0,1,6.511-5.844c3.451-1.583,8.006-1.992,12.809-2.108l15.789-.489c11.2-.311,21.349-.525,28.678-.623l8.7-.062a17.162,17.162,0,0,1,3.193.133Z" transform="translate(5956.144 3822.072)" fill="#aa6550"/>
        <path id="Tracé_1244" data-name="Tracé 1244" d="M1161.637,701.134a14.45,14.45,0,0,1-2.935-.2l-7.944-1.005c-6.7-.89-15.932-2.206-26.125-3.727-5.1-.712-9.954-1.637-14.339-2.019a19.282,19.282,0,0,0-11.235,2.028,17.64,17.64,0,0,0-5.8,5.186c-1.076,1.521-1.495,2.491-1.583,2.446s0-.267.214-.738a13.327,13.327,0,0,1,.987-1.966,16.9,16.9,0,0,1,5.773-5.648c2.944-1.85,7.205-2.731,11.715-2.375s9.331,1.228,14.437,1.93c10.194,1.521,19.418,2.971,26.081,4.074l7.881,1.361A14.232,14.232,0,0,1,1161.637,701.134Z" transform="translate(5955.225 3819.975)" fill="#aa6550"/>
        <path id="Tracé_1245" data-name="Tracé 1245" d="M1131.119,717.156c0,.16-2.491-.409-6.422-1.388s-9.34-2.384-15.362-3.629a28,28,0,0,0-4.332-.632,8.175,8.175,0,0,0-3.736,1.085,13.29,13.29,0,0,0-4.91,4.679c-1.992,3.434-1.7,6.12-1.93,6.075a3.666,3.666,0,0,1-.142-1.779,11.867,11.867,0,0,1,1.352-4.706,13.609,13.609,0,0,1,5.106-5.213,9.146,9.146,0,0,1,4.234-1.29,27.154,27.154,0,0,1,4.59.632c6.084,1.263,11.466,2.82,15.353,3.985S1131.163,716.969,1131.119,717.156Z" transform="translate(5954.938 3818.061)" fill="#aa6550"/>
        <path id="Tracé_1246" data-name="Tracé 1246" d="M646.92,779.6l122.426-15.06L984.122,729.63l27.718,69.65c-80.734,27.976-163.415,53.194-244.62,75.379-5.568,1.521-14.464,1.69-20.246,1.708C719.932,876.464,653.067,865.577,646.92,779.6Z" transform="translate(6004.353 3815.932)" fill="#07b5e7"/>
        <path id="Tracé_1247" data-name="Tracé 1247" d="M1020.75,799.215s-.213-.409-.56-1.228-.89-2.09-1.53-3.647l-5.7-13.983c-4.892-12.16-11.884-29.532-20.361-50.623l.507.294L888.762,747.444c-24.613,4.252-48.266,6.992-69.695,9.785-10.674,1.414-20.886,2.838-30.377,4.368q-7.116,1.156-13.7,2.357c-4.376.889-8.628,1.494-12.453,2.749a50.846,50.846,0,0,0-18.894,10.763,52.9,52.9,0,0,0-14.57,22.461c-.382,1.139-.64,2.019-.809,2.615a6.381,6.381,0,0,1-.285.89,27.157,27.157,0,0,1,.89-3.558,48.866,48.866,0,0,1,4.083-9.723,51.1,51.1,0,0,1,29.354-24.222,113.2,113.2,0,0,1,12.56-2.838c4.367-.9,8.966-1.637,13.716-2.428,9.491-1.574,19.667-3.042,30.386-4.448,21.447-2.891,45.055-5.666,69.65-9.909l104.386-17.2.374-.062.133.356L1013.5,780.17c2.348,6.04,4.19,10.781,5.462,14.072.6,1.583,1.067,2.811,1.405,3.7A6.23,6.23,0,0,1,1020.75,799.215Z" transform="translate(5995.399 3815.997)" fill="#263238"/>
        <path id="Tracé_1248" data-name="Tracé 1248" d="M721,872.657a6.227,6.227,0,0,1,.978.2l2.838.7c2.509.543,6.227,1.388,11.039,1.984a121.169,121.169,0,0,0,40.981-1.975c4.261-.89,8.655-2.117,13.236-3.425l14.295-4.021,31.489-9.038c22.158-6.458,46.469-13.708,71.9-21.607,42.7-13.227,81.677-26.17,112.081-36.622l-.276.6c-8.379-21.286-15.238-38.712-20.032-50.872l-5.444-14.01c-.6-1.574-1.058-2.8-1.4-3.674a10.135,10.135,0,0,1-.427-1.272s.214.4.56,1.219.89,2.073,1.512,3.62l5.675,13.921c4.875,12.124,11.866,29.5,20.4,50.7l.187.445-.463.16c-30.377,10.6-69.383,23.644-112.081,36.871-25.44,7.908-49.769,15.122-71.945,21.527l-31.525,8.9-14.321,3.958c-4.581,1.281-9.02,2.473-13.3,3.362a119.242,119.242,0,0,1-41.221,1.619A75.234,75.234,0,0,1,721,872.657Z" transform="translate(5996.169 3815.932)" fill="#263238"/>
        <path id="Tracé_1249" data-name="Tracé 1249" d="M764.6,768.87a15.829,15.829,0,0,1-3.069.463l-8.4.836-27.709,2.669L697.743,775.8l-8.388.889a16.219,16.219,0,0,1-3.1.178,15.8,15.8,0,0,1,3.042-.632c1.966-.32,4.821-.747,8.353-1.237,7.063-.987,16.839-2.188,27.664-3.3s20.637-1.9,27.753-2.375c3.558-.24,6.44-.4,8.433-.471a16.061,16.061,0,0,1,3.1.018Z" transform="translate(6000.008 3811.607)" fill="#263238"/>
      </g>
    </g>
  </g>
</svg>
