<svg xmlns="http://www.w3.org/2000/svg" width="439.334" height="719.106" viewBox="0 0 439.334 719.106">
  <g id="Groupe_251" data-name="Groupe 251" transform="translate(-153.491 -2435)">
    <text id="_1" data-name="1" transform="translate(153.491 2975)" fill="#09a4f4" font-size="500" font-family="SegoeUI, Segoe UI" opacity="0.09"><tspan x="0" y="0">1</tspan></text>
    <g id="_1-2" data-name="1" transform="translate(272.491 2723)">
      <path id="Floor" d="M131,320.55c-62.55,36.11-62.55,94.66,0,130.78s164,36.11,226.52,0,62.55-94.67,0-130.78S193.5,284.43,131,320.55Z" transform="translate(-84.087 -47.31)" fill="#fafafa"/>
      <path id="Shadow" d="M245.52,260.5c-9.37,5.41-9.37,14.18,0,19.59s24.56,5.41,33.93,0,9.37-14.18,0-19.59S254.89,255.09,245.52,260.5Z" transform="translate(-84.087 -47.31)" fill="#e0e0e0"/>
      <path id="Shadow-2" data-name="Shadow" d="M154,414.1c9,5.26,9,13.78,0,19s-23.59,5.26-32.59,0-9-13.77,0-19S145,408.85,154,414.1Z" transform="translate(-84.087 -47.31)" fill="#e0e0e0"/>
      <path id="Shadow-3" data-name="Shadow" d="M319.61,325.18c9,5.26,9,13.78,0,19s-23.59,5.26-32.59,0-9-13.77,0-19S310.61,319.93,319.61,325.18Z" transform="translate(-84.087 -47.31)" fill="#e0e0e0"/>
      <path id="Shadow-4" data-name="Shadow" d="M193.36,418.87l-80.48-46.46c-1.44-.84-1.44-2.19,0-3l105.2-60.6a5.72,5.72,0,0,1,5.22,0l80.49,46.46c1.44.84,1.44,2.19,0,3l-105.2,60.6A5.74,5.74,0,0,1,193.36,418.87Z" transform="translate(-84.087 -47.31)" fill="#e0e0e0"/>
      <g id="Lamp" transform="translate(153.218 4.545)">
        <path id="Tracé_1423" data-name="Tracé 1423" d="M281.6,266.06h0c0-2.82-1.85-5.65-5.59-7.8-7.46-4.31-19.57-4.31-27,0-3.73,2.15-5.58,5-5.58,7.8h0v2.64h0c0,2.79,1.92,5.57,5.6,7.7,7.47,4.31,19.58,4.31,27,0,3.69-2.13,5.56-4.91,5.6-7.7h0Z" transform="translate(-237.305 -51.855)" fill="#ebebeb"/>
        <path id="Tracé_1424" data-name="Tracé 1424" d="M249,258.26c-7.46,4.31-7.46,11.3,0,15.61s19.58,4.31,27,0,7.47-11.3,0-15.61S256.43,254,249,258.26Z" transform="translate(-237.305 -51.855)" fill="#f5f5f5"/>
        <path id="Tracé_1425" data-name="Tracé 1425" d="M264.54,104.38h-4.12V264.83h0a1,1,0,0,0,.59.94,3.24,3.24,0,0,0,2.91,0,1,1,0,0,0,.58-.94h0Z" transform="translate(-237.305 -51.855)" fill="#e0e0e0"/>
        <path id="Tracé_1426" data-name="Tracé 1426" d="M287.12,93.7h0l-9.19-34.15h-31l-9.1,34.15h0c-1.66,4.51.62,9.4,6.84,12.9,9.83,5.54,25.76,5.54,35.59,0C286.5,103.1,288.77,98.21,287.12,93.7Z" transform="translate(-237.305 -51.855)" fill="#ebebeb"/>
        <path id="Tracé_1427" data-name="Tracé 1427" d="M251.46,66.84c6.09,3.43,16,3.43,22,0s6.09-9,0-12.42-15.95-3.42-22,0S245.38,63.41,251.46,66.84Z" transform="translate(-237.305 -51.855)" fill="#f5f5f5"/>
        <path id="Tracé_1428" data-name="Tracé 1428" d="M262.48,67.26a19.81,19.81,0,0,1-9.54-2.21c-2.23-1.25-3.46-2.82-3.46-4.42s1.23-3.16,3.46-4.41a21.72,21.72,0,0,1,19.09,0c2.23,1.25,3.45,2.82,3.45,4.41s-1.22,3.17-3.45,4.42a19.82,19.82,0,0,1-9.55,2.21Z" transform="translate(-237.305 -51.855)" fill="#e0e0e0"/>
      </g>
      <g id="Plant" transform="translate(190.985 220.937)">
        <g id="Pot" transform="translate(7.286 29.683)">
          <path id="Tracé_1429" data-name="Tracé 1429" d="M324.16,317.18H284.63l4.09,17h0c.31,2.06,1.82,4.06,4.54,5.63,6.15,3.55,16.11,3.55,22.26,0,2.93-1.69,4.45-3.88,4.58-6.1Z" transform="translate(-282.358 -297.93)" fill="#545454"/>
          <path id="Tracé_1430" data-name="Tracé 1430" d="M319.34,328.85a17,17,0,0,0,2.37-1.66l2.23-9.1a16.15,16.15,0,0,1-4,3.18c-8.34,4.81-21.71,4.93-30.33.39l1-4.05-.31-.43h-5.68l4.09,17h0c.31,2.06,1.82,4.06,4.54,5.63,4.38,2.53,10.69,3.25,16.18,2.17-9.84.74-16.6-3.57-17.61-7.54-.41-1.58-1.11-5.08-1.11-5.08C299,333.54,311.48,333.38,319.34,328.85Z" transform="translate(-282.358 -297.93)" fill="#232323"/>
          <path id="Tracé_1431" data-name="Tracé 1431" d="M326.21,312.14a8.23,8.23,0,0,1-1.31,3.07,14.759,14.759,0,0,1-5,4.41c-8.58,4.95-22.5,4.95-31.08,0a14.66,14.66,0,0,1-5-4.41,8.23,8.23,0,0,1-1.31-3.07h0c-.76-3.72,1.34-7.6,6.28-10.46,8.58-5,22.5-5,31.08,0C324.88,304.54,327,308.42,326.21,312.14Z" transform="translate(-282.358 -297.93)" fill="#606060"/>
          <path id="Tracé_1432" data-name="Tracé 1432" d="M324.9,315.21a14.76,14.76,0,0,1-5,4.41c-8.58,4.95-22.5,4.95-31.08,0a14.66,14.66,0,0,1-5-4.41,8.23,8.23,0,0,1-1.31-3.07h0l1,6.7c.44,2.7,2.45,5.32,6,7.39,8.17,4.71,21.42,4.71,29.6,0,3.53-2,5.54-4.64,6-7.3v-.34l.94-6.45a8.229,8.229,0,0,1-1.15,3.07Z" transform="translate(-282.358 -297.93)" fill="#545454"/>
          <path id="Tracé_1433" data-name="Tracé 1433" d="M317.35,303.17c-7.15-4.13-18.75-4.13-25.89,0-4,2.34-5.8,5.5-5.28,8.54.41,2.34,2.17,4.62,5.28,6.41,7.14,4.13,18.74,4.13,25.89,0,3.1-1.79,4.86-4.07,5.26-6.4C323.15,308.67,321.4,305.51,317.35,303.17Z" transform="translate(-282.358 -297.93)" fill="#263238"/>
          <path id="Tracé_1434" data-name="Tracé 1434" d="M287.39,314.54a12.19,12.19,0,0,0,4.07,3.58c7.14,4.13,18.74,4.13,25.89,0a12.36,12.36,0,0,0,4.06-3.58c-.06-2.47-1.71-4.93-5-6.82-6.64-3.84-17.42-3.84-24.06,0C289.1,309.61,287.45,312.07,287.39,314.54Z" transform="translate(-282.358 -297.93)" fill="#fafafa"/>
        </g>
        <path id="Tracé_1435" data-name="Tracé 1435" d="M305.77,306.86c-3.29-.89-3.84-8-2-15.52,1.79-7.31,7.52-18.27,8.74-18s2.74,12.15,1.88,20C313.35,302.86,309.05,307.75,305.77,306.86Z" transform="translate(-275.073 -268.247)" fill="#07b5e7"/>
        <path id="Tracé_1436" data-name="Tracé 1436" d="M305.77,306.86c-3.29-.89-3.84-8-2-15.52,1.79-7.31,7.52-18.27,8.74-18s2.74,12.15,1.88,20C313.35,302.86,309.05,307.75,305.77,306.86Z" transform="translate(-275.073 -268.247)" opacity="0.3"/>
        <path id="Tracé_1437" data-name="Tracé 1437" d="M307.37,283.85c.59.93.95,2.5,2.33,2.51,1.11,0,1.69-1.17,2.69-1.44a2.72,2.72,0,0,1,2.2.66v-.85a3.33,3.33,0,0,0-1.91-.67,2.73,2.73,0,0,0-1.59.71c-.51.4-1.14,1-1.85.71s-1-1.33-1.43-2a2.62,2.62,0,0,0-.88-.9c-.09.2-.18.4-.26.6A1.87,1.87,0,0,1,307.37,283.85Zm3.9-2.94a4.8,4.8,0,0,0,1.11-1.05,1.59,1.59,0,0,1,1.69-.32h.06a5.9,5.9,0,0,0-.1-.75l-.31-.08a1.88,1.88,0,0,0-1.37.3c-.46.33-.71.89-1.19,1.17-.86.52-1.54-.42-1.8-1.12-.11-.32-.2-.64-.31-1-.08.17-.17.33-.26.5s.12.46.18.67C309.27,280.22,310.14,281.44,311.27,280.91Zm-.11,9.51a8.42,8.42,0,0,1-1.8,1.17c-1.69.48-2.08-2.13-3.16-2.9a2.25,2.25,0,0,0-1.54-.4c-.06.2-.13.4-.19.6a2.26,2.26,0,0,1,.86,0,2.36,2.36,0,0,1,1.48,1.32c.54,1,1.23,2.36,2.58,2.09a4.28,4.28,0,0,0,1.58-.89,2.83,2.83,0,0,1,2.29-.61,3.09,3.09,0,0,1,1.29.68c0-.25,0-.51,0-.77A3.29,3.29,0,0,0,313,290,2.9,2.9,0,0,0,311.16,290.42Zm1,5.74a3.34,3.34,0,0,0-2.24.29c-.79.39-1.35,1.15-2.17,1.46-1.79.68-2.07-1.92-3.38-2.55a2.59,2.59,0,0,0-1.36-.26,4.113,4.113,0,0,1-.08.6,3,3,0,0,1,.52,0,2.43,2.43,0,0,1,1.85,1.43c.63,1.18,1.46,2.14,2.91,1.43.77-.37,1.33-1.08,2.12-1.42a2.54,2.54,0,0,1,2.67.24,4.306,4.306,0,0,1,.51.62c.06-.25.12-.52.19-.78a2.89,2.89,0,0,0-1.51-1.06Z" transform="translate(-275.073 -268.247)" fill="#07b5e7" opacity="0.5"/>
        <path id="Tracé_1438" data-name="Tracé 1438" d="M305.77,306.86c3.28.89,7.58-4,8.62-13.53a56.09,56.09,0,0,0,.19-8.17c-2.69,2.2-5.38,6.7-5.38,6.7a74,74,0,0,0-3.19-7.19,49.807,49.807,0,0,0-2.24,6.67C301.93,298.85,302.48,306,305.77,306.86Z" transform="translate(-275.073 -268.247)" opacity="0.1"/>
        <path id="Tracé_1439" data-name="Tracé 1439" d="M303.09,310.81c-4.32,2.77-8.35-7.1-10.5-14.54s-.75-26.92,1.43-28c1.54-.75,9.7,16.7,11.31,25.19C306.49,299.61,306.53,308.6,303.09,310.81Z" transform="translate(-275.073 -268.247)" fill="#07b5e7"/>
        <path id="Tracé_1440" data-name="Tracé 1440" d="M303.09,310.81c-4.32,2.77-8.35-7.1-10.5-14.54s-.75-26.92,1.43-28c1.54-.75,9.7,16.7,11.31,25.19C306.49,299.61,306.53,308.6,303.09,310.81Z" transform="translate(-275.073 -268.247)" opacity="0.1"/>
        <path id="Tracé_1441" data-name="Tracé 1441" d="M293.76,282c1.36.67,2.44.67,3.5-.47s1.71-2.41,3.24-2.24l-.45-1a2.09,2.09,0,0,0-.74.07c-1.34.36-1.94,1.76-2.89,2.64-1.45,1.36-3-.43-4.64-.33h-.14v.9a4.13,4.13,0,0,1,2.12.43Zm11.88,13.4a4.911,4.911,0,0,0-.71-.21,2.66,2.66,0,0,0-2,.47c-1.31,1-1.37,3.09-3.48,2.53-1.61-.42-2.82-1.48-4.51-.64a6,6,0,0,0-1.55,1.17c.08.25.16.5.25.74a4.7,4.7,0,0,1,2.1-1.3c1.82-.47,3.2,1.37,5,1.07,1.48-.25,1.63-1.87,2.66-2.67a2.33,2.33,0,0,1,2.4-.15c-.07-.31-.11-.65-.16-.98ZM293.84,275c.5.7,1.21,1.47,2.15,1s1.08-1.74,1.73-2.53l-.36-.67c-.62.84-.93,2.66-2.13,2.59-.94,0-1.31-1.44-2.09-1.84a1.35,1.35,0,0,0-.79-.15,5.583,5.583,0,0,1-.08.57h.18C293.11,273.93,293.49,274.48,293.84,275Zm3.25,14.78c1.71.37,2.54-1.66,3.31-2.79a5,5,0,0,1,2.37-2c-.11-.31-.23-.61-.34-.92a3.15,3.15,0,0,0-.89.33,5.73,5.73,0,0,0-1.85,1.88,7.73,7.73,0,0,1-1.74,2.32c-.92.59-2-.34-2.93-.51a5.11,5.11,0,0,0-2.63.21,4.93,4.93,0,0,0-.8.39l.06,1.25a4,4,0,0,1,2.77-.93,13.42,13.42,0,0,1,2.67.73Z" transform="translate(-275.073 -268.247)" fill="#07b5e7"/>
        <path id="Tracé_1442" data-name="Tracé 1442" d="M303.06,285.74a24.258,24.258,0,0,0-3.5,5.73s-4.69-6.36-8-9.25c-.18,5.29.08,10.8,1,14,2.15,7.44,6.18,17.31,10.5,14.54,3.44-2.21,3.4-11.2,2.24-17.34A54.149,54.149,0,0,0,303.06,285.74Z" transform="translate(-275.073 -268.247)" opacity="0.1"/>
        <path id="Tracé_1443" data-name="Tracé 1443" d="M302.79,315.88c-7.9.43-15.29-4.36-20.08-10.39s-8.53-18.5-7.45-19.27,13.84,7.1,18.63,12.77A50.6,50.6,0,0,1,302.79,315.88Z" transform="translate(-275.073 -268.247)" fill="#07b5e7"/>
        <path id="Tracé_1444" data-name="Tracé 1444" d="M302.79,315.88c-7.9.43-15.29-4.36-20.08-10.39s-8.53-18.5-7.45-19.27,13.84,7.1,18.63,12.77A50.6,50.6,0,0,1,302.79,315.88Z" transform="translate(-275.073 -268.247)" opacity="0.2"/>
        <path id="Tracé_1445" data-name="Tracé 1445" d="M285.54,296.08a3.64,3.64,0,0,0,.1-2.44,2.21,2.21,0,0,1,.32-1.54l-.89-.63a3.17,3.17,0,0,0-.33,2.14c.13.91.35,2.05-.87,2.22s-3.17-1-4.23.31c-.52.63-.32,1.45-.34,2.2a2.2,2.2,0,0,1-.28,1c.14.3.29.6.43.89a2.67,2.67,0,0,0,.59-1.34c.12-.92-.24-2.1,1-2.3a11,11,0,0,1,2.53.32A2,2,0,0,0,285.54,296.08Zm-4.41-6.6a1.55,1.55,0,0,1,.35-.37l-.71-.44c-.58.76-.58,1.81-1.17,2.57a1.33,1.33,0,0,1-1.49.42,2.59,2.59,0,0,0-1.65.06,2.785,2.785,0,0,0-.33.19l.18.57a1.78,1.78,0,0,1,.83-.23c.6,0,1.16.3,1.76.26A1.54,1.54,0,0,0,280,292c.6-.74.63-1.74,1.13-2.52Zm8.76,10.59a3.85,3.85,0,0,0,1.2-2,13.287,13.287,0,0,0,.2-1.68l-.75-.66a8,8,0,0,1-.55,2.73,2.48,2.48,0,0,1-2.46,1.29,2.6,2.6,0,0,0-2.11.67,4,4,0,0,0-.79,2.12c-.16,1.1-.33,2.12-1.35,2.74a3.062,3.062,0,0,1-.55.26l.57.69a3.249,3.249,0,0,0,1.14-.85c1.32-1.56.25-4.68,3.06-4.68a3.43,3.43,0,0,0,2.39-.63Zm4.25.8a3.779,3.779,0,0,1,.59-.83l-.68-.85a5.2,5.2,0,0,0-1.27,2.49,7.28,7.28,0,0,1-1,2.94c-.68.89-1.78.79-2.69,1.3a3.78,3.78,0,0,0-1.68,2,9.54,9.54,0,0,0-.43,2l.84.69a.6.6,0,0,0,0-.12,4.92,4.92,0,0,1,1.19-3.09c.83-.79,2-.67,2.88-1.3,1.69-1.24,1.39-3.55,2.25-5.23Zm3.42,3.29c-.22.19-.44.38-.64.59-1.35,1.48-1.18,3.41-1.67,5.22a3.24,3.24,0,0,1-1.68,2.26c-.76.31-1.61,0-2.26.6l-.07.07c.39.23.79.44,1.19.64a4.584,4.584,0,0,1,.66-.08,2.84,2.84,0,0,0,1.22-.29,3.58,3.58,0,0,0,1.51-1.64c.82-1.7.45-3.77,1.47-5.38a4.862,4.862,0,0,1,.86-1,10.716,10.716,0,0,0-.59-.99Z" transform="translate(-275.073 -268.247)" fill="#07b5e7"/>
        <path id="Tracé_1446" data-name="Tracé 1446" d="M285,291.42c.75,6.54,4.24,24.15,17.8,24.46a50.6,50.6,0,0,0-8.9-16.89A50.292,50.292,0,0,0,285,291.42Z" transform="translate(-275.073 -268.247)" opacity="0.2"/>
        <path id="Tracé_1447" data-name="Tracé 1447" d="M302.79,315.88c-6.21-.91-11.55-4.84-14.29-16.55s-3.16-17-1.28-18.17c2.18-1.34,10.66,10.47,13.39,15.66C307.47,309.87,302.79,315.88,302.79,315.88Z" transform="translate(-275.073 -268.247)" fill="#07b5e7"/>
        <path id="Tracé_1448" data-name="Tracé 1448" d="M291.26,294.24c1.55.49,3.57,1,4.73-.53a15.088,15.088,0,0,0,1.12-2.55c-.28-.4-.55-.8-.84-1.2-.68,1.11-.66,2.74-1.86,3.37a3.84,3.84,0,0,1-2.88-.11,6.81,6.81,0,0,0-2.86-.43,4,4,0,0,0-1.49.52c.07.34.15.71.22,1.07a3.643,3.643,0,0,1,.63-.3,4.79,4.79,0,0,1,3.23.16Zm-1.84-6.06a2.44,2.44,0,0,0,1.45.27c.94-.19,1.43-1.11,1.92-1.84a4,4,0,0,1,.47-.62c-.19-.24-.39-.47-.58-.7l-.12.12c-.59.71-1.08,2.16-2.18,2.18a7.381,7.381,0,0,1-1.55-.45,3.55,3.55,0,0,0-1.34,0,3.18,3.18,0,0,0-1.24.48c0,.26.07.55.1.83a3.83,3.83,0,0,1,1.67-.51A3.21,3.21,0,0,1,289.42,288.18Zm6.79,13a8.72,8.72,0,0,1,1.9-2.48,4.16,4.16,0,0,1,3.17-.57c-.21-.43-.43-.87-.67-1.32a5.24,5.24,0,0,0-2.15.14,4.58,4.58,0,0,0-2.37,1.73,13.64,13.64,0,0,1-1.59,2.3c-1.27,1.15-3,.14-4.39-.14a5.181,5.181,0,0,0-1.24-.09c.11.4.22.8.34,1.19a5.389,5.389,0,0,1,1.63.25c2.16.67,3.96,1.06,5.37-1Zm7.16,2.27-.32.09a4.91,4.91,0,0,0-2.1,1.58c-.6.78-.92,1.73-1.49,2.52a2,2,0,0,1-2.48.83,4.21,4.21,0,0,0-2.73-.2,4.41,4.41,0,0,0-1.73,1.08c.21.31.43.61.65.89a3.71,3.71,0,0,1,1.33-.77,3,3,0,0,1,2.15.26,3.36,3.36,0,0,0,4.4-1.33c.53-.78.84-1.71,1.43-2.44a3.519,3.519,0,0,1,1.29-1c-.12-.47-.25-.96-.4-1.5Z" transform="translate(-275.073 -268.247)" fill="#fff" opacity="0.2"/>
        <path id="Tracé_1449" data-name="Tracé 1449" d="M300.61,296.82c-.5-.94-1.18-2.1-2-3.35-2.69,8.31-3.55,20.44,4.16,22.41C302.79,315.88,307.47,309.87,300.61,296.82Z" transform="translate(-275.073 -268.247)" opacity="0.15"/>
        <path id="Tracé_1450" data-name="Tracé 1450" d="M306,315.88c7.9.43,15.29-4.36,20.08-10.39s8.53-18.5,7.45-19.27-13.84,7.1-18.63,12.77A50.81,50.81,0,0,0,306,315.88Z" transform="translate(-275.073 -268.247)" fill="#07b5e7"/>
        <path id="Tracé_1451" data-name="Tracé 1451" d="M306,315.88c7.9.43,15.29-4.36,20.08-10.39s8.53-18.5,7.45-19.27-13.84,7.1-18.63,12.77A50.81,50.81,0,0,0,306,315.88Z" transform="translate(-275.073 -268.247)" opacity="0.2"/>
        <path id="Tracé_1452" data-name="Tracé 1452" d="M325.23,296.87a11,11,0,0,1,2.54-.32c1.23.2.87,1.38,1,2.3a2.67,2.67,0,0,0,.59,1.34c.15-.29.29-.59.43-.89a2.2,2.2,0,0,1-.28-1c0-.75.18-1.57-.34-2.2-1.06-1.32-2.9-.13-4.23-.31s-1-1.31-.87-2.22a3.17,3.17,0,0,0-.33-2.14l-.89.63a2.21,2.21,0,0,1,.32,1.54,3.64,3.64,0,0,0,.1,2.44A2,2,0,0,0,325.23,296.87Zm3.62-4.9a1.54,1.54,0,0,0,1,.54c.6,0,1.16-.28,1.76-.26a1.78,1.78,0,0,1,.83.23l.18-.57a2.79,2.79,0,0,0-.33-.19,2.59,2.59,0,0,0-1.65-.06,1.33,1.33,0,0,1-1.49-.42c-.59-.76-.59-1.81-1.17-2.57l-.71.44a1.55,1.55,0,0,1,.35.37c.55.78.58,1.78,1.23,2.52Zm-7.55,8.7c2.81,0,1.74,3.12,3.06,4.68a3.25,3.25,0,0,0,1.14.85l.57-.69a3.061,3.061,0,0,1-.55-.26,3.4,3.4,0,0,1-1.35-2.74,4,4,0,0,0-.79-2.12,2.6,2.6,0,0,0-2.11-.67,2.48,2.48,0,0,1-2.46-1.29,8,8,0,0,1-.55-2.73l-.75.66a13.286,13.286,0,0,0,.2,1.68,3.85,3.85,0,0,0,1.2,2,3.43,3.43,0,0,0,2.39.63Zm-4.37,5.39c.89.63,2,.51,2.87,1.3a4.92,4.92,0,0,1,1.19,3.09.6.6,0,0,0,0,.12l.84-.69a9.54,9.54,0,0,0-.43-2,3.74,3.74,0,0,0-1.68-2c-.91-.51-2-.41-2.69-1.3a7.28,7.28,0,0,1-1-2.94,5.2,5.2,0,0,0-1.27-2.49l-.68.85a3.48,3.48,0,0,1,.59.83c.85,1.72.55,4.03,2.26,5.23Zm-6.28-.9a4.861,4.861,0,0,1,.86,1c1,1.61.65,3.68,1.47,5.38a3.58,3.58,0,0,0,1.51,1.64,2.84,2.84,0,0,0,1.22.29,4.584,4.584,0,0,1,.66.08c.4-.2.8-.41,1.19-.64l-.07-.07c-.65-.59-1.5-.29-2.26-.6a3.24,3.24,0,0,1-1.68-2.26c-.49-1.81-.32-3.74-1.67-5.22-.2-.21-.42-.4-.64-.59a10.312,10.312,0,0,0-.59.99Z" transform="translate(-275.073 -268.247)" fill="#07b5e7"/>
        <path id="Tracé_1453" data-name="Tracé 1453" d="M323.81,291.42c-.75,6.54-4.24,24.15-17.8,24.46a50.81,50.81,0,0,1,8.9-16.89,50.288,50.288,0,0,1,8.9-7.57Z" transform="translate(-275.073 -268.247)" opacity="0.2"/>
        <path id="Tracé_1454" data-name="Tracé 1454" d="M306,315.88c6.21-.91,11.55-4.84,14.29-16.55s3.16-17,1.28-18.17c-2.17-1.34-10.66,10.47-13.39,15.66C301.33,309.87,306,315.88,306,315.88Z" transform="translate(-275.073 -268.247)" fill="#07b5e7"/>
        <path id="Tracé_1455" data-name="Tracé 1455" d="M320.77,294.08a3.641,3.641,0,0,1,.63.3c.07-.36.15-.73.22-1.07a4,4,0,0,0-1.49-.52,6.81,6.81,0,0,0-2.86.43,3.84,3.84,0,0,1-2.88.11c-1.2-.63-1.18-2.26-1.86-3.37-.29.4-.56.8-.84,1.2a15.091,15.091,0,0,0,1.12,2.55c1.16,1.53,3.18,1,4.73.53a4.79,4.79,0,0,1,3.23-.16Zm0-6.17a3.831,3.831,0,0,1,1.67.51,7.244,7.244,0,0,1,.1-.83,3.18,3.18,0,0,0-1.24-.48,3.549,3.549,0,0,0-1.34,0,7.38,7.38,0,0,1-1.55.45c-1.1,0-1.59-1.47-2.18-2.18l-.12-.12c-.19.23-.39.46-.58.7a4,4,0,0,1,.47.62c.49.73,1,1.65,1.92,1.84a2.44,2.44,0,0,0,1.45-.27,3.21,3.21,0,0,1,1.41-.24ZM318,302.2a5.39,5.39,0,0,1,1.63-.25c.12-.39.23-.79.34-1.19a5.179,5.179,0,0,0-1.24.09c-1.41.28-3.12,1.29-4.39.14a13.64,13.64,0,0,1-1.59-2.3,4.58,4.58,0,0,0-2.37-1.73,5.24,5.24,0,0,0-2.15-.14q-.36.68-.66,1.32a4.15,4.15,0,0,1,3.16.57,8.721,8.721,0,0,1,1.9,2.48C314,303.25,315.85,302.86,318,302.2ZM305,305a3.52,3.52,0,0,1,1.29,1c.59.73.9,1.66,1.44,2.44a3.34,3.34,0,0,0,4.39,1.33,3,3,0,0,1,2.15-.26,3.711,3.711,0,0,1,1.33.77c.22-.28.44-.58.65-.89a4.41,4.41,0,0,0-1.73-1.08,4.21,4.21,0,0,0-2.73.2,2,2,0,0,1-2.48-.83c-.57-.79-.88-1.74-1.49-2.52a4.91,4.91,0,0,0-2.1-1.58l-.32-.09C305.28,304,305.15,304.49,305,305Z" transform="translate(-275.073 -268.247)" fill="#fff" opacity="0.2"/>
        <path id="Tracé_1456" data-name="Tracé 1456" d="M308.19,296.82c.5-.94,1.18-2.1,2-3.35,2.69,8.31,3.55,20.44-4.16,22.41C306,315.88,301.33,309.87,308.19,296.82Z" transform="translate(-275.073 -268.247)" opacity="0.15"/>
        <path id="Tracé_1457" data-name="Tracé 1457" d="M304.4,317.17c5.24,0,7-7.14,6.46-12.88s-4.15-16.68-6.46-16.68-5.94,10.93-6.46,16.68S299.16,317.17,304.4,317.17Z" transform="translate(-275.073 -268.247)" fill="#07b5e7"/>
        <path id="Tracé_1458" data-name="Tracé 1458" d="M304.4,317.17c5.24,0,7-7.14,6.46-12.88s-4.15-16.68-6.46-16.68-5.94,10.93-6.46,16.68S299.16,317.17,304.4,317.17Z" transform="translate(-275.073 -268.247)" fill="#fff" opacity="0.3"/>
        <path id="Tracé_1459" data-name="Tracé 1459" d="M304.37,295.09a4.31,4.31,0,0,0,1.95-1.4,3.42,3.42,0,0,1,1.62-.84c-.13-.34-.27-.67-.41-1a5,5,0,0,0-2.21,1.36,3.11,3.11,0,0,1-1.09.82c-.64.23-1-.12-1.44-.53a3.39,3.39,0,0,0-1.73-1H301c-.11.27-.22.55-.32.83a3.25,3.25,0,0,1,1.82,1,2,2,0,0,0,1.87.76Zm-3.91,6.29c1.74,1.37,3.19-.57,4.3-1.73a2,2,0,0,1,3-.27,7.07,7.07,0,0,0,2,1.45,3.766,3.766,0,0,0,.6.15q-.09-.5-.21-1a6.07,6.07,0,0,1-2.13-1.42c-1.56-1.28-3-.75-4.2.67-.71.82-1.87,2.23-3,1.35-.69-.52-1-1.4-1.74-1.9h0l-.21.86C299.46,300,299.81,300.87,300.46,301.38Zm2,6.29c1,1.31,2.22,1.63,3.56.51.66-.55,1.09-1.33,1.8-1.81,1-.68,2.14-.33,3.17.08v-.94a7.47,7.47,0,0,0-1.46-.45,2.92,2.92,0,0,0-2.26.46c-.74.52-1.19,1.35-1.91,1.9a1.757,1.757,0,0,1-1.51.48c-.51-.19-1-1-1.4-1.41a4.36,4.36,0,0,0-2-1.16,3.71,3.71,0,0,0-2.51.25v.89a3.7,3.7,0,0,1,4.48,1.2Zm5,5.34a4.11,4.11,0,0,1-3,.89,2.34,2.34,0,0,1-1.49-.65c-.29-.3-.5-.67-.8-1a3.49,3.49,0,0,0-2-1,3.77,3.77,0,0,0-1.64.14c.09.32.19.63.3.94a2.73,2.73,0,0,1,2.61.36c.63.47.93,1.24,1.6,1.67a3.67,3.67,0,0,0,2,.53,4.721,4.721,0,0,0,2.18-.54c.75-.39,1.29-1.08,2-1.5a3.56,3.56,0,0,1,.6-.27,11,11,0,0,0,.39-1.19,3.431,3.431,0,0,0-.73.16,7.119,7.119,0,0,0-2.09,1.45Z" transform="translate(-275.073 -268.247)" fill="#fff" opacity="0.2"/>
      </g>
      <g id="Couch" transform="translate(28.373 160.392)">
        <path id="Tracé_1460" data-name="Tracé 1460" d="M125.86,374.75l-5.56-3.21.11-20.83,6.85,3.96Z" transform="translate(-112.46 -207.702)" fill="#040419"/>
        <path id="Tracé_1461" data-name="Tracé 1461" d="M282.44,363.06l-5.57-3.22-6.85-16.8,6.85,3.96Z" transform="translate(-112.46 -207.702)" fill="#040419"/>
        <path id="Tracé_1462" data-name="Tracé 1462" d="M288.91,338.43,194.02,393.2v6.43l1.05-.61-1.05,15.08,5.57-3.22,4.17-16.87L278.26,351l4.18,12.06,5.56-3.22-1.05-13.85,1.96-1.13Z" transform="translate(-112.46 -207.702)" fill="#01011c"/>
        <path id="Tracé_1463" data-name="Tracé 1463" d="M194.02,393.2l94.89-54.77-77.89-44.97-94.89,54.77v6.43l72.4,41.8-.07,14.42,5.56,3.22,1.4-20.09-1.4-.8Z" transform="translate(-112.46 -207.702)" fill="#040419"/>
        <path id="Tracé_1464" data-name="Tracé 1464" d="M125.86,374.75l1.4-20.08,9.73-5.61-5.56,22.48Z" transform="translate(-112.46 -207.702)" fill="#01011c"/>
        <path id="Tracé_1465" data-name="Tracé 1465" d="M289,298.88v33.94a12.07,12.07,0,0,1-5.44,9.42l-1.57.91h-.08a12.25,12.25,0,0,1-6.79,1.17l-68.6,36.46a12.11,12.11,0,0,1-5.38,9h-.05l-1.56.91a2.74,2.74,0,0,1-.42.21,2.248,2.248,0,0,1-.22.11h-.07a12.4,12.4,0,0,1-8.44.39,9.561,9.561,0,0,1-.94-.35l-.15-.07c-.23-.1-.44-.21-.64-.32L117.9,350a12,12,0,0,1-5.43-9.42V267.06a12.1,12.1,0,0,1,5.44-9.42l84-48.56a12.05,12.05,0,0,1,10.88,0l4.44,2.55A14.45,14.45,0,0,1,223.5,221l4.27,36.29,55.8,32.22a12.07,12.07,0,0,1,5.43,9.37Z" transform="translate(-112.46 -207.702)" fill="#545454"/>
        <path id="Tracé_1466" data-name="Tracé 1466" d="M217.24,211.59,212.81,209a12.05,12.05,0,0,0-10.88,0l-84,48.56c-.32.19-.67.43-.56.35a12.41,12.41,0,0,0-4.82,8.16c.4-2.78,2.66-3.79,5.37-2.23l4.44,2.56a12,12,0,0,0,10.87,0l84-48.56C220.24,216.13,220.24,213.32,217.24,211.59Z" transform="translate(-112.46 -207.702)" fill="#606060"/>
        <path id="Tracé_1467" data-name="Tracé 1467" d="M289,298.88v33.94a12.07,12.07,0,0,1-5.44,9.42l-1.57.91h-.08a11.53,11.53,0,0,1-6.37,1.2,10.63,10.63,0,0,1-4.43-1.24l-50.34-29.08a12.05,12.05,0,0,1-5.44-9.42v-33.9a12,12,0,0,1,5.44-9.42l7-4.05,55.8,32.22a12.07,12.07,0,0,1,5.43,9.42Z" transform="translate(-112.46 -207.702)" fill="#232323"/>
        <path id="Tracé_1468" data-name="Tracé 1468" d="M227.78,257.24l-7,4.05c-3,1.73-3,4.56,0,6.28l50.35,29.07a12.08,12.08,0,0,1,5.44,9.42V340c0,3.45,2.45,4.86,5.44,3.14l1.57-.91a12.07,12.07,0,0,0,5.43-9.42V298.87a12.07,12.07,0,0,0-5.43-9.42Z" transform="translate(-112.46 -207.702)" fill="#606060"/>
        <path id="Tracé_1469" data-name="Tracé 1469" d="M276.56,306.06V340c0,3.45,2.45,4.86,5.44,3.14l1.57-.91a12.07,12.07,0,0,0,5.43-9.42V298.87a11.15,11.15,0,0,0-1.59-5.35L275,300.7a11.09,11.09,0,0,1,1.56,5.36Z" transform="translate(-112.46 -207.702)" fill="#545454"/>
        <path id="Tracé_1470" data-name="Tracé 1470" d="M274.3,344.39a13.149,13.149,0,0,1-2,3,23.35,23.35,0,0,1-5.12,3.57c-19.13,11.06-34.95,20.22-54.08,31.27a6,6,0,0,1-5.44,0L190,372l-35.4-20.41a10.21,10.21,0,0,1,0-18.06l20.07-11.6L190,313.1l18.66-10.81a12.12,12.12,0,0,1,10.88,0l50.34,29.08c3,1.73,5.44,3.07,5.44,7.06a20,20,0,0,1-1.02,5.96Z" transform="translate(-112.46 -207.702)" fill="#232323"/>
        <path id="Tracé_1471" data-name="Tracé 1471" d="M213.12,370.45l59.46-34.38c1.5-.87,2.72-.16,2.72,1.57v5.5a6,6,0,0,1-2.72,4.71l-59.47,34.38c-1.5.87-2.72.16-2.72-1.57v-5.5a6,6,0,0,1,2.73-4.71Z" transform="translate(-112.46 -207.702)" fill="#545454"/>
        <path id="Tracé_1472" data-name="Tracé 1472" d="M208,283.08,154.6,314a12,12,0,0,0-5.44,9.42V327a12,12,0,0,0,5.44,9.42L205,365.53a12.05,12.05,0,0,0,10.88,0l53.42-30.88a12,12,0,0,0,5.44-9.42v-3.66a12,12,0,0,0-5.44-9.42l-50.4-29.07a12.05,12.05,0,0,0-10.9,0Z" transform="translate(-112.46 -207.702)" fill="#545454"/>
        <path id="Tracé_1473" data-name="Tracé 1473" d="M210.4,350.6v16.23a11.14,11.14,0,0,1-5.44-1.3L154.6,336.46a12,12,0,0,1-5.44-9.42v-3.66a12.18,12.18,0,0,1,4.89-9.07c-2.44,1.75-2.25,4.31.55,5.93L205,349.31a11.05,11.05,0,0,0,5.4,1.29Z" transform="translate(-112.46 -207.702)" fill="#232323"/>
        <path id="Tracé_1474" data-name="Tracé 1474" d="M215.83,349.31l53.42-30.88c3-1.73,3-4.55,0-6.28L218.9,283.08a12.05,12.05,0,0,0-10.88,0L154.6,314c-3,1.73-3,4.54,0,6.28L205,349.31a12.05,12.05,0,0,0,10.83,0Z" transform="translate(-112.46 -207.702)" fill="#606060"/>
        <g id="Cushion" transform="translate(25.581 46.896)">
          <path id="Tracé_1475" data-name="Tracé 1475" d="M179.75,254.62c-3.49-.35-6.37,3.67-12.17,6.51-10.82,5.29-15.69,10.1-20.73,16s-6.94,4.88-8.48,8.54,2.72,5.23,4.74,10.42c3.42,8.75,7.67,14.63,12.1,18.27,7.81,6.44,6.62,10.92,10.17,10.88,3.79,0,3.52-3.3,9.47-5.61,14.07-5.47,19.85-10.34,26.36-20,2.54-3.76,5.78-3.45,6.39-7.08.31-1.81-2.33-2.79-4.72-8.49-4-9.47-10.28-18.35-16.44-23C183.75,259.09,183.29,255,179.75,254.62Z" transform="translate(-138.041 -254.599)" fill="#66b3e3"/>
          <path id="Tracé_1476" data-name="Tracé 1476" d="M179.75,254.62c-3.49-.35-6.37,3.67-12.17,6.51-10.82,5.29-15.69,10.1-20.73,16s-6.94,4.88-8.48,8.54,2.72,5.23,4.74,10.42c3.42,8.75,7.67,14.63,12.1,18.27,7.81,6.44,6.62,10.92,10.17,10.88,3.79,0,3.52-3.3,9.47-5.61,14.07-5.47,19.85-10.34,26.36-20,2.54-3.76,5.78-3.45,6.39-7.08.31-1.81-2.33-2.79-4.72-8.49-4-9.47-10.28-18.35-16.44-23C183.75,259.09,183.29,255,179.75,254.62Z" transform="translate(-138.041 -254.599)" opacity="0.3"/>
          <path id="Tracé_1477" data-name="Tracé 1477" d="M142.2,291.74c3,4.21,2.58,8.42,8.7,16.17,5.87,7.44,10.12,9.53,11.88,12.87,1.47,2.78,3.46,4.07,3.94.83s-2.07-12.53-8-20.48c-6.82-9.15-11.17-12.65-14.11-14C140,285,139.86,288.42,142.2,291.74Z" transform="translate(-138.041 -254.599)" opacity="0.2"/>
          <path id="Tracé_1478" data-name="Tracé 1478" d="M175.08,316c-3.88,1.34-4.05,4.78-6,7.44a15.361,15.361,0,0,1,5.77-3.87A66,66,0,0,0,189.77,312C184.8,314.61,177.9,315.05,175.08,316Zm24.32-17.85c-2.4,2.22-2.17,6.16-5.06,10a54.88,54.88,0,0,0,6.87-8.51c2.32-3.44,5.21-3.48,6.17-6.22-2.13,2.69-5.08,2.09-7.98,4.76Z" transform="translate(-138.041 -254.599)" opacity="0.2"/>
        </g>
        <path id="Tracé_1479" data-name="Tracé 1479" d="M194.1,387.66V353.72a12.05,12.05,0,0,0-5.44-9.42l-55.79-32.21L128.6,275.8a14.47,14.47,0,0,0-6.27-9.37l-4.43-2.55c-3-1.73-5.44-.32-5.44,3.14v73.51A12.08,12.08,0,0,0,117.9,350l70.76,40.85C191.65,392.53,194.1,391.11,194.1,387.66Z" transform="translate(-112.46 -207.702)" fill="#232323"/>
        <path id="Tracé_1480" data-name="Tracé 1480" d="M206.54,346.52v34.35a12.11,12.11,0,0,1-5.38,9h-.05l-1.56.91a2.742,2.742,0,0,1-.42.21,2.259,2.259,0,0,1-.22.11h-.07c-.02,0-.3.12-.44.16a12.65,12.65,0,0,1-8,.23,9.569,9.569,0,0,1-.94-.35c2.61,1.08,4.64-.39,4.65-3.52h0v-33.9a12.05,12.05,0,0,0-5.44-9.42l-9.87-5.7-45.93-26.51,7-4.06a12.12,12.12,0,0,1,10.88,0l40.48,23.38,9.86,5.69a12,12,0,0,1,5.45,9.42Z" transform="translate(-112.46 -207.702)" fill="#606060"/>
        <path id="Tracé_1481" data-name="Tracé 1481" d="M194.1,353.72v33.94h0c0,3.13-2,4.6-4.65,3.52a9.559,9.559,0,0,0,.94.35,12.65,12.65,0,0,0,8-.23,1.385,1.385,0,0,0,.44-.16c.15-.06,0,0,.07,0a2.266,2.266,0,0,0,.22-.11,2.737,2.737,0,0,0,.42-.21l1.56-.91h.05a12.11,12.11,0,0,0,5.38-9c0-.11,0-.24,0-.35v-34a11.19,11.19,0,0,0-1.59-5.36l-12.45,7.2a11.09,11.09,0,0,1,1.61,5.32Z" transform="translate(-112.46 -207.702)" fill="#545454"/>
      </g>
      <g id="Character" transform="translate(73.424 130.68)">
        <g id="Bottom" transform="translate(15.147 105.3)">
          <path id="Tracé_1482" data-name="Tracé 1482" d="M256.94,376.76l-1.3-16.31h19.7s-1,11.41-1.31,18.05a9.75,9.75,0,0,0,1.85,5.23s-7.3,4.22-11.26,2.82-6.81-7.38-6.77-8.5Z" transform="translate(-172.658 -283.29)" fill="#ffa8a7"/>
          <path id="Tracé_1483" data-name="Tracé 1483" d="M298.48,401.23c.26,0,.5,2.43-.94,3.64a19,19,0,0,1-13.42,3.32c-6.44-.82-9.92-2.77-12.49-4.89s-6.18-5.1-9.09-5.73a21,21,0,0,1-7.23-3.56c-.86-.82-.73-4.48-.73-4.48Z" transform="translate(-172.658 -283.29)" fill="#232323"/>
          <path id="Tracé_1484" data-name="Tracé 1484" d="M256.72,375.31s-.34.18-.51,1c-.2,1-.43,3.94-.86,5.59a29.219,29.219,0,0,0-.65,8.87c.35,1.87,5.48,4.12,8.3,5.17a35.85,35.85,0,0,1,9.11,5.67c3,2.45,9.38,5,13.58,5,5,0,10.56-1.61,11.85-3.88,1.6-2.79,2.76-6-4.59-9.39-1.4-.64-6.29-3.48-7.95-4.51-4.51-2.79-7.68-5.35-9.74-10.29A2.73,2.73,0,0,0,274.2,377a2.39,2.39,0,0,0-1.43-.13c-1.22.17-6.12.84-7.24,1.36s-2.39,1-2.38,2.24a4.25,4.25,0,0,0,.28,1.27c.09.25.15.59-.07.74s-.5,0-.69-.19a19.289,19.289,0,0,1-2-2.34,21.072,21.072,0,0,0-1.89-2.11,13.542,13.542,0,0,1-1.26-.81A2.84,2.84,0,0,1,256.72,375.31Z" transform="translate(-172.658 -283.29)" fill="#606060"/>
          <path id="Tracé_1485" data-name="Tracé 1485" d="M272.11,401.63q-1.925-1.574-4-2.95h0s8.65,5.16,12.16,2.82c2.26-1.52,1.19-3.35,1.14-3.94s7.91-4.73,10.11-5h0c.6.33,1.11.62,1.44.75,5.74,2.25,6.5,5.16,5.53,8.82-1.29,2.26-6.28,4.6-12.7,4.6C281.58,406.74,275.13,404.07,272.11,401.63Z" transform="translate(-172.658 -283.29)" fill="#545454"/>
          <path id="Tracé_1486" data-name="Tracé 1486" d="M280.8,395.85c4.57,1.8,2.61,2.64,1.33,2.82s-9-4.24-13.67-7.89c-4.89-3.81-8.7-8.92-10.51-10.32-.68-.52-1.41-1.16-2.06-1.76.12-1,.22-1.89.32-2.37a4.22,4.22,0,0,1,.58-1.43,6.12,6.12,0,0,0,.75,2.14,13.536,13.536,0,0,0,1.26.81,21.072,21.072,0,0,1,1.89,2.11,19.289,19.289,0,0,0,2,2.34C266.65,387.28,276.22,394.05,280.8,395.85Z" transform="translate(-172.658 -283.29)" fill="#545454"/>
          <path id="Tracé_1487" data-name="Tracé 1487" d="M281.81,398a.53.53,0,0,1-.29-.1.45.45,0,0,1-.06-.63c1.3-1.55,7.43-5.24,10.8-4.88a.443.443,0,0,1-.1.88c-3.14-.33-9,3.33-10,4.56a.46.46,0,0,1-.35.17Z" transform="translate(-172.658 -283.29)" fill="#232323"/>
          <path id="Tracé_1488" data-name="Tracé 1488" d="M277.82,395.59a.46.46,0,0,1-.29-.1.43.43,0,0,1-.06-.62c1.3-1.56,7.43-5.24,10.8-4.88a.443.443,0,1,1-.1.88c-3.14-.32-9,3.33-10,4.56A.44.44,0,0,1,277.82,395.59Z" transform="translate(-172.658 -283.29)" fill="#232323"/>
          <path id="Tracé_1489" data-name="Tracé 1489" d="M273.83,393.31a.46.46,0,0,1-.29-.1.45.45,0,0,1-.06-.63c1.3-1.55,7.43-5.24,10.8-4.88a.45.45,0,1,1-.1.89c-3.14-.33-9,3.32-10,4.55a.46.46,0,0,1-.35.17Z" transform="translate(-172.658 -283.29)" fill="#232323"/>
          <path id="Tracé_1490" data-name="Tracé 1490" d="M270.14,390.7a.44.44,0,0,1-.35-.73c1.29-1.55,7.44-5.24,10.8-4.88a.448.448,0,1,1-.1.89c-3.14-.33-9,3.32-10,4.55a.46.46,0,0,1-.35.17Z" transform="translate(-172.658 -283.29)" fill="#232323"/>
          <path id="Tracé_1491" data-name="Tracé 1491" d="M266.52,388.09a.42.42,0,0,1-.28-.1.44.44,0,0,1-.08-.62c1.79-2.21,8.21-5.29,11.58-4.93a.45.45,0,0,1,.4.49.46.46,0,0,1-.5.4c-3-.33-9.19,2.64-10.77,4.59a.46.46,0,0,1-.35.17Z" transform="translate(-172.658 -283.29)" fill="#232323"/>
          <path id="Tracé_1492" data-name="Tracé 1492" d="M225.56,395.19,223.44,380l18.93-2.57s-.39,12.09-.11,17.62c.13,2.61,2.12,7.46,2.12,7.46s-7.36,4.1-11.3,2.63-6.68-7.49-6.63-8.62Z" transform="translate(-172.658 -283.29)" fill="#ffa8a7"/>
          <path id="Tracé_1493" data-name="Tracé 1493" d="M266.69,420.33c.27,0,.46,2.44-1,3.63a19,19,0,0,1-13.47,3.1c-6.42-.93-9.87-2.94-12.41-5.1s-6.09-5.2-9-5.88a20.85,20.85,0,0,1-7.17-3.68c-.85-.83-.66-4.48-.66-4.48Z" transform="translate(-172.658 -283.29)" fill="#232323"/>
          <path id="Tracé_1494" data-name="Tracé 1494" d="M225.37,393.73s-.35.18-.53,1c-.22,1-.49,3.92-1,5.57a29.11,29.11,0,0,0-.8,8.86c.32,1.87,5.41,4.21,8.21,5.31a35.621,35.621,0,0,1,9,5.81c3,2.49,9.29,5.15,13.49,5.19,5,0,10.59-1.45,11.91-3.69,1.64-2.77,2.86-6-4.44-9.47-1.38-.66-6.22-3.58-7.87-4.64-4.46-2.86-7.59-5.47-9.57-10.44a2.68,2.68,0,0,0-1-1.53,2.38,2.38,0,0,0-1.43-.15c-1.23.15-6.13.73-7.26,1.23s-2.41,1-2.41,2.21a4,4,0,0,0,.25,1.27c.08.25.15.59-.08.74s-.5,0-.69-.2a19.269,19.269,0,0,1-1.94-2.37,21.149,21.149,0,0,0-1.85-2.15,13.465,13.465,0,0,1-1.25-.82,2.84,2.84,0,0,1-.74-1.73Z" transform="translate(-172.658 -283.29)" fill="#606060"/>
          <path id="Tracé_1495" data-name="Tracé 1495" d="M240.33,420.3a43.441,43.441,0,0,0-4-3h0s8.56,5.31,12.1,3c2.28-1.47,1.25-3.33,1.2-3.92s8-4.6,10.19-4.82h0c.61.34,1.11.64,1.43.77,5.71,2.35,6.42,5.27,5.39,8.92-1.33,2.24-6.36,4.49-12.78,4.39C249.71,425.57,243.3,422.79,240.33,420.3Z" transform="translate(-172.658 -283.29)" fill="#545454"/>
          <path id="Tracé_1496" data-name="Tracé 1496" d="M249.1,414.66c4.55,1.88,2.58,2.68,1.29,2.84s-8.91-4.38-13.54-8.11c-4.83-3.89-8.55-9.06-10.34-10.49a24.12,24.12,0,0,1-2-1.79c.14-1,.26-1.89.36-2.36.18-.84.53-1,.53-1a5.43,5.43,0,0,0,.79,1.75,13.466,13.466,0,0,0,1.25.82,21.15,21.15,0,0,1,1.85,2.15,19.272,19.272,0,0,0,1.94,2.37C235.1,405.86,244.56,412.79,249.1,414.66Z" transform="translate(-172.658 -283.29)" fill="#545454"/>
          <path id="Tracé_1497" data-name="Tracé 1497" d="M250.08,416.84a.55.55,0,0,1-.29-.11.44.44,0,0,1,0-.63c1.32-1.53,7.52-5.12,10.88-4.7a.45.45,0,0,1-.11.89c-3.14-.39-9,3.17-10.08,4.39a.48.48,0,0,1-.4.16Z" transform="translate(-172.658 -283.29)" fill="#232323"/>
          <path id="Tracé_1498" data-name="Tracé 1498" d="M246.13,414.36a.45.45,0,0,1-.34-.73c1.33-1.54,7.52-5.12,10.88-4.7a.444.444,0,1,1-.11.88c-3.14-.38-9,3.18-10.08,4.39A.44.44,0,0,1,246.13,414.36Z" transform="translate(-172.658 -283.29)" fill="#232323"/>
          <path id="Tracé_1499" data-name="Tracé 1499" d="M242.18,412a.48.48,0,0,1-.29-.11.43.43,0,0,1,0-.62c1.33-1.54,7.52-5.13,10.88-4.7a.45.45,0,0,1,.4.49.46.46,0,0,1-.51.39c-3.14-.38-9,3.18-10.08,4.39a.44.44,0,0,1-.4.16Z" transform="translate(-172.658 -283.29)" fill="#232323"/>
          <path id="Tracé_1500" data-name="Tracé 1500" d="M238.53,409.34a.48.48,0,0,1-.29-.11.43.43,0,0,1-.05-.62c1.32-1.54,7.53-5.12,10.88-4.7a.43.43,0,0,1,.39.49.44.44,0,0,1-.5.39c-3.14-.38-9,3.18-10.08,4.39A.44.44,0,0,1,238.53,409.34Z" transform="translate(-172.658 -283.29)" fill="#232323"/>
          <path id="Tracé_1501" data-name="Tracé 1501" d="M235,406.67a.5.5,0,0,1-.28-.1.45.45,0,0,1-.06-.63c1.82-2.17,8.29-5.15,11.65-4.73a.444.444,0,1,1-.11.88c-3-.37-9.22,2.49-10.84,4.42a.45.45,0,0,1-.36.16Z" transform="translate(-172.658 -283.29)" fill="#232323"/>
          <path id="Tracé_1502" data-name="Tracé 1502" d="M277.91,325.94c.44-7.83.06-12.5-8.71-18.25-10.68-7-32.69-19.83-40.61-24.4L207.93,285l-35.11,4.61c-.67,12.86.24,25.88,12.41,34.71,10.35,7.52,23.44,14.51,34.64,20.8a79.11,79.11,0,0,0,.18,19.16,215.687,215.687,0,0,0,3.86,22.68,33.23,33.23,0,0,0,18.75.33s1.63-22.06,1.94-28.53c.7-14.92,1.3-21.57.51-26.25-.57-3.38-1.66-5.14-5.81-8.93L252.87,331c-.43,5.23-.37,9.54.77,18.45,1.4,11,2.47,19.78,2.47,19.78,4.22,2.66,12.55,3.67,18.94-.38C275.05,368.83,276.65,348.15,277.91,325.94Z" transform="translate(-172.658 -283.29)" fill="#00002f"/>
          <path id="Tracé_1503" data-name="Tracé 1503" d="M258,336.85c.09-1.43.25-2.64.39-3.7.39-2.85.62-4.57-1.25-5.87-2.22-1.54-22.45-13-28.49-16.32l-1.77-1.62s4.59-6.93,3.73-14.93a20.73,20.73,0,0,1-9.39,15s8.46,6.45,18.1,14.13L252.87,331l-11.35-8.29L230.88,313c7.84,4.37,23.88,13.49,25.83,14.84,1.52,1.06,1.33,2.44,1,5.2-.14,1.08-.3,2.3-.4,3.75-.44,6.82,1.18,27.18,1.73,33.75l.72.22C259.2,364.55,257.52,343.72,258,336.85Z" transform="translate(-172.658 -283.29)" fill="#01011c"/>
          <path id="Tracé_1504" data-name="Tracé 1504" d="M255.39,365.51c3.51,3.49,13.86,5,20.16.23l-.51,5.78s-2.59,2.88-9.89,2.84-9.15-3.3-9.15-3.3Z" transform="translate(-172.658 -283.29)" fill="#00002f"/>
          <path id="Tracé_1505" data-name="Tracé 1505" d="M225.69,350.7c.07-1.37.15-2.55.22-3.57.34-4.75.44-6.19-2.31-7.67-4.08-2.21-22-12.77-30.27-19.82-7.24-6.18-8.29-12.38-8.43-31.67l-.7.09c.15,19.47,1.23,25.75,8.67,32.12,8.29,7.08,26.3,17.68,30.4,19.89,2.35,1.27,2.28,2.26,1.95,7-.07,1-.16,2.2-.23,3.58-.37,7.25,1.32,26.72,2.76,37.17l.72.12C227,377.6,225.32,358,225.69,350.7Z" transform="translate(-172.658 -283.29)" fill="#01011c"/>
          <path id="Tracé_1506" data-name="Tracé 1506" d="M223,383.59c3.51,3.5,13.86,5,20.16.23l-.51,5.78s-2.59,2.88-9.89,2.84-9.16-3.3-9.16-3.3Z" transform="translate(-172.658 -283.29)" fill="#00002f"/>
        </g>
        <g id="Top">
          <path id="Tracé_1507" data-name="Tracé 1507" d="M230.52,224.62c6.63,1,12.9,11.72,21,24.9,5.61,9.08,9.19,30.16,9.19,30.16s-5.49,2.05-14.91-8.92-21-25.64-21-25.64Z" transform="translate(-157.511 -177.99)" fill="#f28f8f"/>
          <path id="Tracé_1508" data-name="Tracé 1508" d="M222.81,221c8.37.55,12.21,3.54,16.08,8.63s12.68,19.62,12.68,19.62a28,28,0,0,1-5.22,8c-4,4.51-7.93,5.18-7.93,5.18l-14.28-17.49Z" transform="translate(-157.511 -177.99)" fill="#f0f0f0"/>
          <path id="Chest" d="M229.43,222.59c-4.18-1.72-8.09-3.06-13.49-2.22-6.63,1-17.6,5.7-25.39,9.86s-8.82,7.38-14,27.85c-2.58,10.2-4.55,29.92-4.45,40,4.41,4.53,11,7.31,25.14,6.31,18.31-1.29,32.82-12.81,33.45-20.18-.45-3.35-2.33-12.71.18-20.79,2.89-9.37,4.47-14.75,5.24-21.51C236.81,236,236.19,225.36,229.43,222.59Z" transform="translate(-157.511 -177.99)" fill="#f0f0f0"/>
          <path id="Tracé_1509" data-name="Tracé 1509" d="M247.2,223.82s-.47-.25-.55-1.26,0-1.7,0-2.82-.45-3-1.49-3.26-1.69,2.06-1.83,4a8.46,8.46,0,0,1-1.64,5.1,7.27,7.27,0,0,0-.85,7.29Z" transform="translate(-157.511 -177.99)" fill="#f28f8f"/>
          <path id="Tracé_1510" data-name="Tracé 1510" d="M246.19,255.87c.91,7.68.91,9.44,1.53,12.37a11.55,11.55,0,0,0,3.33,6.49,17.55,17.55,0,0,0,6.35,4.5,5.72,5.72,0,0,0,2.45.61c2.13-.09,3.07-1.9,3.73-4a22.31,22.31,0,0,0,.68-12c-.41-1.81-.7-2.62-2.53-7.27-1.49-3.78-2.76-6.5-4.69-12-1.75-5-3.24-9.84-3.57-12.68a13.71,13.71,0,0,1,.34-6.3c.83-2.34,1.21-2.24.59-5.1a34.252,34.252,0,0,1-.4-5.73,15.33,15.33,0,0,0-1.06-4.28c-.54-1.51-.92-3.47-1.44-3.69s-1.48.32-1.5,1.49c0,0-.66-.9-1.21-1.83s-.91-2.06-1.75-2.3-1.32,1.06-1.07,2a15.5,15.5,0,0,0,.46,1.48s-.85.33-.2,2a8.51,8.51,0,0,0,1.07,1.93,8.08,8.08,0,0,0,.82,3,15,15,0,0,0,1,3.28,8.85,8.85,0,0,0-1.18,3.38c-.07,1.52.16,1.89-1.72,3.62-1.26,1.16-3.39,2.46-4.6,4.09a4.32,4.32,0,0,0-.53,5c.73,1.68,2.45,3,3.12,6.33C244.7,242.9,245.08,246.47,246.19,255.87Z" transform="translate(-157.511 -177.99)" fill="#ffa8a7"/>
          <path id="Tracé_1511" data-name="Tracé 1511" d="M250,208.27a8.889,8.889,0,0,0,.38,1.54c.16.5.34,1,.54,1.47v.18a7,7,0,0,0-.1.83,6.074,6.074,0,0,0,0,.85,5.18,5.18,0,0,0,.43,1.63l.06.13-.06.1a4.712,4.712,0,0,0-.26.6,4.609,4.609,0,0,0-.2.63,5,5,0,0,0-.13.67,3.3,3.3,0,0,1-.05.69,3.92,3.92,0,0,1-.15-1.41,3.379,3.379,0,0,1,.1-.71,4.709,4.709,0,0,1,.22-.7V215a4.83,4.83,0,0,1-.56-1.81,4.921,4.921,0,0,1,0-.94,4,4,0,0,1,.17-.95v.18a9,9,0,0,1-.4-1.59,5.5,5.5,0,0,1,.01-1.62Z" transform="translate(-157.511 -177.99)" fill="#f28f8f"/>
          <path id="Tracé_1512" data-name="Tracé 1512" d="M246.43,207.62a4.919,4.919,0,0,0,.54.73,6.121,6.121,0,0,0,.65.61h0v.09a6.739,6.739,0,0,0,.65,1.77,4.9,4.9,0,0,0,1.13,1.46l.15.13-.06.18a6.526,6.526,0,0,0-.16,1,9.521,9.521,0,0,0,0,1.07,6.634,6.634,0,0,0,.13,1.08c.06.36.16.72.24,1.09a7.362,7.362,0,0,1-.49-1,5.8,5.8,0,0,1-.32-1.1,5.529,5.529,0,0,1-.1-1.15,4.35,4.35,0,0,1,.14-1.17l.09.31a4.089,4.089,0,0,1-.73-.77,4.53,4.53,0,0,1-.53-.9,4.678,4.678,0,0,1-.35-1,5.61,5.61,0,0,1-.17-1l.07.12a4.141,4.141,0,0,1-.58-.76,3.409,3.409,0,0,1-.3-.79Z" transform="translate(-157.511 -177.99)" fill="#f28f8f"/>
          <path id="Tracé_1513" data-name="Tracé 1513" d="M249.43,219.92a4.31,4.31,0,0,1-.62,1.93,6.32,6.32,0,0,1-1.31,1.56c.16-.31.35-.59.52-.87s.36-.56.52-.84a15.546,15.546,0,0,0,.89-1.78Z" transform="translate(-157.511 -177.99)" fill="#f28f8f"/>
          <path id="Tracé_1514" data-name="Tracé 1514" d="M243.13,227.23a8.18,8.18,0,0,0-.61,3.54,6.209,6.209,0,0,0,.36,1.73,14,14,0,0,0,.77,1.69,5.07,5.07,0,0,1-1.21-1.51,4.69,4.69,0,0,1-.54-1.88A4.81,4.81,0,0,1,243.13,227.23Z" transform="translate(-157.511 -177.99)" fill="#f28f8f"/>
          <g id="Head" transform="translate(42.981)">
            <path id="Tracé_1515" data-name="Tracé 1515" d="M206.05,218.14c.37-4.27-2.59-9.61-3.5-13.66-.87-3.9-1.23-6.85-.18-10,.62-1.88,2.5-4.17,4.07-4.34a9.19,9.19,0,0,1,9.43-9.4,31.3,31.3,0,0,0,4.22-.08c1.71-.24,2.38-1.39,3.9-2.12,2.62-1.26,6.24-.36,6.9,2.75,1.91-1.47,3.83-.92,5.92.23a3.94,3.94,0,0,1,1.8,5.07,3.46,3.46,0,0,1,3-.17,4.46,4.46,0,0,1,2.31,2c.54,1,.28,2.49,1.66,2.8a1.73,1.73,0,0,0,1.57-.45,3.58,3.58,0,0,1-3.92,2.9,4.75,4.75,0,0,1,1.56,3.38,2.75,2.75,0,0,1-2.24,2.7,2.51,2.51,0,0,1-.23,2.6,2.92,2.92,0,0,1-2.9.74,6,6,0,0,1-4.52,4.08c-3.4.66-6.87.25-10.3.08l-4.08-.21c-.23,0-1.42-.24-1.61-.08Z" transform="translate(-200.492 -177.99)" fill="#040419"/>
            <path id="Tracé_1516" data-name="Tracé 1516" d="M202.47,211.55a4.09,4.09,0,0,0,4.86,1.12l-3.22,11.63c1.3,7.57,10.42,16.12,15.65,18.15,1.14-3.06,1.11-10.47.86-13.91l.82-2.14a42.117,42.117,0,0,0,4.93,1.06c3.33.39,6.42-1.58,8.25-4.82a37.37,37.37,0,0,0,4-13.68,12.4,12.4,0,0,1,.71-3.42,16.44,16.44,0,0,0,.89-7.49c-2.8-3.77-10.72-6.87-19.55-4.23-.3,4.77-3,7.9-6.75,8.77-.16,1.27-.82,4.4-2.82,3.82-1.43-.42-1.06-2.27-2.13-4.26s-4.43-3.32-6.39-1.31a8.07,8.07,0,0,0-.11,10.71Z" transform="translate(-200.492 -177.99)" fill="#ffa8a7"/>
            <path id="Tracé_1517" data-name="Tracé 1517" d="M226.37,227.46a7.44,7.44,0,0,0,4.24-1,9.49,9.49,0,0,0,3.17-2.94,21.469,21.469,0,0,0,2-3.92,38.193,38.193,0,0,0,1.38-4.2,36.791,36.791,0,0,0,1-4.31c.13-.72.21-1.45.28-2.18a12.058,12.058,0,0,1,.36-2.23c.18-.74.49-1.43.72-2.12a13.262,13.262,0,0,0,.53-2.13,25,25,0,0,0,.22-4.42,22.9,22.9,0,0,1,.05,4.46,13.778,13.778,0,0,1-.47,2.19c-.22.73-.49,1.4-.64,2.12a15.591,15.591,0,0,0-.3,2.16c-.06.75-.14,1.49-.25,2.23a36.279,36.279,0,0,1-.93,4.38,39.913,39.913,0,0,1-1.44,4.24,19.109,19.109,0,0,1-2.1,4,9.6,9.6,0,0,1-3.39,2.94A7.33,7.33,0,0,1,226.37,227.46Z" transform="translate(-200.492 -177.99)" fill="#f28f8f"/>
            <path id="Tracé_1518" data-name="Tracé 1518" d="M233,213.92l-5.12.75.71-10.37C230.39,205.64,231.92,209.6,233,213.92Z" transform="translate(-200.492 -177.99)" fill="#f28f8f"/>
            <path id="Tracé_1519" data-name="Tracé 1519" d="M225.12,217.41a2.931,2.931,0,0,0-.19-.55,2.49,2.49,0,0,0-1.72-1.29,2,2,0,0,0-1.71.38.49.49,0,0,0,.15.85,4.65,4.65,0,0,1,1.88,1.55c.23.32.81,1,1.26.69A1.56,1.56,0,0,0,225.12,217.41Z" transform="translate(-200.492 -177.99)" fill="#b16668"/>
            <path id="Tracé_1520" data-name="Tracé 1520" d="M222.38,215.55a1.7,1.7,0,0,0-.88.4.49.49,0,0,0,.15.85,4.65,4.65,0,0,1,1.88,1.55l.24.3a2.209,2.209,0,0,0,0-.37,3.33,3.33,0,0,0-1.39-2.73Z" transform="translate(-200.492 -177.99)" fill="#f28f8f"/>
            <path id="Tracé_1521" data-name="Tracé 1521" d="M221.44,226.4c-4.93-1.93-8.66-3.49-10.35-7.87a33.159,33.159,0,0,1-1.5-6.84,25.82,25.82,0,0,0,.21,8.13c.67,2.69,3,6,10.82,8.72Z" transform="translate(-200.492 -177.99)" fill="#f28f8f"/>
            <path id="Tracé_1522" data-name="Tracé 1522" d="M224.19,208a2.72,2.72,0,0,1-.75.23,2.76,2.76,0,0,1-.86,0,3.091,3.091,0,0,1-.8-.24,2.71,2.71,0,0,1-.42-.2,1.471,1.471,0,0,1-.31-.3c-.05-.06-.08.07-.07.1a2.447,2.447,0,0,0,2.51,1,1.39,1.39,0,0,0,.69-.58S224.21,208,224.19,208Z" transform="translate(-200.492 -177.99)" fill="#f28f8f"/>
            <path id="Tracé_1523" data-name="Tracé 1523" d="M235.75,209.76a.711.711,0,0,1-.21,0l-.2.05a2.2,2.2,0,0,1-.37.07,2.27,2.27,0,0,1-.78-.06,3.26,3.26,0,0,1-.87-.33c-.24-.14-.42-.34-.65-.5,0,0-.06,0,0,.07a2.23,2.23,0,0,0,1.61,1.16,2.36,2.36,0,0,0,.88,0,1,1,0,0,0,.39-.12c.14-.09.17-.21.27-.34S235.8,209.74,235.75,209.76Z" transform="translate(-200.492 -177.99)" fill="#f28f8f"/>
            <path id="Tracé_1524" data-name="Tracé 1524" d="M228,199.27a1.12,1.12,0,0,0-.57-.43,1.579,1.579,0,0,0-.38-.05.55.55,0,0,0-.18,0c-.06,0-.1,0-.12.08a.12.12,0,0,0,0,.13.28.28,0,0,0,.12,0h.19a1,1,0,0,1,.3.09l.11.06h0a.411.411,0,0,1,.05.09h0v.13h0v.14a2,2,0,0,0-.09.22v.15a1.236,1.236,0,0,1,0,.16c0,.07.06.19.14.17q.159-.089.31-.19l.07-.09a.479.479,0,0,0,.08-.16.34.34,0,0,0,.06-.15.94.94,0,0,0-.09-.35Z" transform="translate(-200.492 -177.99)" fill="#f28f8f"/>
            <path id="Tracé_1525" data-name="Tracé 1525" d="M233.93,200.07a1.06,1.06,0,0,1,.67.26,1.669,1.669,0,0,1,.25.28.892.892,0,0,1,.08.17.14.14,0,0,1,0,.15.15.15,0,0,1-.13,0,.28.28,0,0,1-.1-.09l-.13-.14a1.1,1.1,0,0,0-.23-.2.24.24,0,0,0-.11-.06h-.4l-.09.1-.15.2v.06h-.06a1.312,1.312,0,0,0-.11.12c-.06,0-.2.06-.22,0a.67.67,0,0,1,0-.2.42.42,0,0,1,0-.16v-.11a.54.54,0,0,1,.09-.15.64.64,0,0,1,.1-.13A1,1,0,0,1,233.93,200.07Z" transform="translate(-200.492 -177.99)" fill="#f28f8f"/>
            <path id="Tracé_1526" data-name="Tracé 1526" d="M225.44,205.31c-.16-.81-.86.56-1.86.76s-2-.84-1.79,0a1.91,1.91,0,0,0,3.65-.73Z" transform="translate(-200.492 -177.99)" fill="#040419"/>
            <path id="Tracé_1527" data-name="Tracé 1527" d="M235.85,208.09c.36-.73-.95,0-1.78-.46s-.88-1.78-1.24-1a1.7,1.7,0,0,0,3,1.51Z" transform="translate(-200.492 -177.99)" fill="#040419"/>
            <path id="Tracé_1528" data-name="Tracé 1528" d="M234.26,201.58l2.39,2.74a1.75,1.75,0,0,1-2.53-.12,1.9,1.9,0,0,1,.14-2.62Z" transform="translate(-200.492 -177.99)" fill="#263238"/>
            <path id="Tracé_1529" data-name="Tracé 1529" d="M226.14,199.93l-3.43,1.37a1.78,1.78,0,0,0,2.35,1,1.93,1.93,0,0,0,1.08-2.37Z" transform="translate(-200.492 -177.99)" fill="#263238"/>
          </g>
          <g id="Arm" transform="translate(0 52.24)">
            <path id="Tracé_1530" data-name="Tracé 1530" d="M195.94,316.78a25.249,25.249,0,0,1,7.36,6.48c2.33,2.88,5,4.36,5.24,4.88.8,1.92-2.47,3.22-6,.07C199.74,325.79,195.94,316.78,195.94,316.78Z" transform="translate(-157.511 -230.23)" fill="#f28f8f"/>
            <path id="Tracé_1531" data-name="Tracé 1531" d="M175.71,315.28a9,9,0,0,1,.44,1c.74,2,1.21,4.12,2.57,5.78,1.51,1.83,3.87,2.7,5.72,4.18,2.22,1.77,3.64,4.32,4.95,6.83a11.74,11.74,0,0,0,1.47,2.33,3.62,3.62,0,0,0,2.36,1.3,1.489,1.489,0,0,1,.43.08,1.18,1.18,0,0,1,.43.43,2.85,2.85,0,0,0,3.38.78,4.34,4.34,0,0,0,1.42,1.82,2.51,2.51,0,0,0,1.35.45c1.49,0,1.71-1.61,1.76-2.84a1.24,1.24,0,0,0,1.72-.72,3.6,3.6,0,0,0,.19-1.84c-.16-1.64-.47-3.26-.56-4.91a9.86,9.86,0,0,0-1.9-4.95c-1.05-1.61-2-3.3-3.09-4.86-.92-1.27-1.5-2.77-2.85-3.69-3.28-2.24-6.4-4.63-8.41-8.2-3.7-6.61-9.59-24.71-9.59-24.71l15.12-29.21s6.43-13.2-3.39-21.75c-9.24,4.8-11.38,6.11-17.46,18.83-6.28,13.11-11.08,22.12-12.47,25.57-1.82,4.54-3.09,5.44.5,12.6,2.5,5,5.65,9.66,8.59,14.38,1.38,2.21,2.77,4.43,4.17,6.64A56.343,56.343,0,0,1,175.71,315.28Z" transform="translate(-157.511 -230.23)" fill="#ffa8a7"/>
            <path id="Tracé_1532" data-name="Tracé 1532" d="M190.52,230.23c-9.69,3.86-12.38,6.54-16,13.91s-9.89,20.5-9.89,20.5.85,4.05,7.35,8.05,11.26.91,11.26.91,7.35-14.69,9.4-18.39S198.33,236.28,190.52,230.23Z" transform="translate(-157.511 -230.23)" fill="#f0f0f0"/>
            <path id="Tracé_1533" data-name="Tracé 1533" d="M189.9,324.94c-.25-1.72,2.79,5,2.9,5.31.45,1.38,3,5.18,1.19,6.11,1-.75.24-2.06-.16-2.94s-1-2-1.44-3c-.84-1.84-1.53-3.88-2.42-5.7-.11-.18-.07.13-.07.21Z" transform="translate(-157.511 -230.23)" fill="#f28f8f"/>
            <path id="Tracé_1534" data-name="Tracé 1534" d="M193.1,323.81a44.169,44.169,0,0,1,3.13,6.68c.79,2.28,1.82,4.81,1.22,7.23.15-2.45-.88-4.78-1.62-7.08a66.111,66.111,0,0,0-2.73-6.83Z" transform="translate(-157.511 -230.23)" fill="#f28f8f"/>
            <path id="Tracé_1535" data-name="Tracé 1535" d="M197.08,323.82a40.688,40.688,0,0,1,3.06,4.91,26.23,26.23,0,0,1,1.78,8.29c-.17-1.17-.49-2.31-.77-3.46a36.2,36.2,0,0,0-1.39-4.62c-.88-1.66-1.77-3.48-2.68-5.12Z" transform="translate(-157.511 -230.23)" fill="#f28f8f"/>
          </g>
        </g>
      </g>
      <g id="Pain" transform="translate(83.303 123.41)">
        <path id="Tracé_1536" data-name="Tracé 1536" d="M191.77,204.36l-6.94.62.6,3.72-6.91,3.48,8.1-2.85-.17-2.79,7.12-.4.68-3.63,5-1.22-6.84-.06ZM180.37,198l.12-6.31,11.34,7.85.92-4.49,5.82,3.57-7-8-1.44,4.95-12.86-9.46.3,7.27L167.39,190ZM195,186.46l-.9-7.11-5.44.73-3.68-9.36L187.16,183h5.51l.78,5.88,4.31-.42,1.58,6.94.35-9.12Z" transform="translate(-167.39 -170.72)" fill="#b0e5ff"/>
        <path id="Tracé_1537" data-name="Tracé 1537" d="M261.87,204.66,256,205l-.44-2.79-7.84.68,6.23.72.46,3.24,6.05-.53-.23,2.58,6.8,1.6-5.77-2.32ZM254.11,193l3.2-11.59,3.5,4.23L265,173.05,260.1,181l-3.75-5.11L253,189.39l-3.64-2.58-2.19,10.82,3.86-7.14Zm13.15,2.9-3.05-2.9-4.12,4-4.22-3.27-10.25,7.66,9.61-4.54,3.72,3.81,4.94-4.9,3.54,2.93,5.18-7.19Z" transform="translate(-167.39 -170.72)" fill="#b0e5ff"/>
      </g>
      <g id="Dizzy" transform="translate(83.72 116.509)">
        <path id="Tracé_1538" data-name="Tracé 1538" d="M209.12,177.38l-2.34-.48-1.52,2.94-.38-3.33-2.62-.54,2.2-1-.25-3.23,1.99,2.44,2.92-.98-1.68,2.33Z" transform="translate(-167.808 -163.819)" fill="#ebebeb"/>
        <path id="Tracé_1539" data-name="Tracé 1539" d="M239.18,176.56l1.14-1.06-.99-1.93,1.92,1.06,1.28-1.19-.3,1.55,1.81,1.09-2.05.14-.59,1.93-.6-1.78Z" transform="translate(-167.808 -163.819)" fill="#ebebeb"/>
        <path id="Tracé_1540" data-name="Tracé 1540" d="M259.07,219.14l1.64-1.53-1.43-2.77,2.76,1.53,1.84-1.71-.44,2.22,2.61,1.57-2.95.2-.84,2.76-.87-2.55Z" transform="translate(-167.808 -163.819)" fill="#ebebeb"/>
        <path id="Tracé_1541" data-name="Tracé 1541" d="M175.42,206.93a3.082,3.082,0,0,1-.48.32,4.23,4.23,0,0,1-4.19,0,3.26,3.26,0,0,1-1.51-3.08,2.66,2.66,0,0,1,1.44-2.37,3.07,3.07,0,0,1,3,0,2.32,2.32,0,0,1,1,2.24,1.78,1.78,0,0,1-.8,1.51,2.11,2.11,0,0,1-1.87.21,1.6,1.6,0,0,1-.91-1.49,1.17,1.17,0,0,1,.94-1.07.78.78,0,0,1,.91.4.56.56,0,0,1-.1.72.29.29,0,0,1-.4,0,.3.3,0,0,1,0-.37.17.17,0,0,0-.07-.12.2.2,0,0,0-.2,0,.62.62,0,0,0-.53.55,1.05,1.05,0,0,0,.56.93,1.55,1.55,0,0,0,1.34-.15,1.25,1.25,0,0,0,.55-1.07,1.78,1.78,0,0,0-.74-1.74,2.53,2.53,0,0,0-2.46,0,2.1,2.1,0,0,0-1.14,1.88,2.7,2.7,0,0,0,1.23,2.59,3.73,3.73,0,0,0,3.62,0,3,3,0,0,0,1.59-2.76,3.74,3.74,0,0,0-2.86-3.92,4.24,4.24,0,0,0-5,1.84.28.28,0,0,1-.39.11.3.3,0,0,1-.11-.39,4.81,4.81,0,0,1,5.62-2.1,4.3,4.3,0,0,1,3.27,4.47A3.56,3.56,0,0,1,175.42,206.93Z" transform="translate(-167.808 -163.819)" fill="#ebebeb"/>
        <path id="Tracé_1542" data-name="Tracé 1542" d="M223.69,173.39h-.08a5,5,0,0,1-5-3.94,4.16,4.16,0,0,1,1.08-4.17,4.89,4.89,0,0,1,4.65-1.32,3.76,3.76,0,0,1,2.62,3,3,3,0,0,1-.87,3.07,3.51,3.51,0,0,1-3.36.92,2.68,2.68,0,0,1-1.8-2.17,2.08,2.08,0,0,1,.41-1.93,2.42,2.42,0,0,1,2-.8,1.83,1.83,0,0,1,1.47,1.36,1.33,1.33,0,0,1-.71,1.47.89.89,0,0,1-1.14-.16.65.65,0,0,1-.11-.82.31.31,0,0,1,.45-.08.32.32,0,0,1,.11.41.22.22,0,0,0,.12.11.21.21,0,0,0,.23,0,.69.69,0,0,0,.41-.77,1.21,1.21,0,0,0-.91-.86,1.75,1.75,0,0,0-1.43.58,1.44,1.44,0,0,0-.28,1.36,2,2,0,0,0,1.36,1.69,2.88,2.88,0,0,0,2.72-.76,2.4,2.4,0,0,0,.68-2.44,3.07,3.07,0,0,0-2.16-2.49,4.29,4.29,0,0,0-4,1.16,3.49,3.49,0,0,0-.91,3.55,4.3,4.3,0,0,0,4.38,3.45,4.91,4.91,0,0,0,4.93-3.57.32.32,0,0,1,.39-.24.31.31,0,0,1,.24.39A5.52,5.52,0,0,1,223.69,173.39Z" transform="translate(-167.808 -163.819)" fill="#ebebeb"/>
        <path id="Tracé_1543" data-name="Tracé 1543" d="M270.6,189.29a4.23,4.23,0,0,1-2-.5,3.6,3.6,0,0,1-2.19-3,4.25,4.25,0,0,1,1.68-3.83,3.25,3.25,0,0,1,3.42-.11,2.64,2.64,0,0,1,1.58,2.27,3.05,3.05,0,0,1-1.25,2.75,2.32,2.32,0,0,1-2.45,0,1.81,1.81,0,0,1-1.05-1.35,2.07,2.07,0,0,1,.57-1.78,1.61,1.61,0,0,1,1.72-.23,1.15,1.15,0,0,1,.59,1.29.76.76,0,0,1-.73.67.57.57,0,0,1-.62-.38.29.29,0,0,1,.2-.35.31.31,0,0,1,.34.16.21.21,0,0,0,.25-.18.61.61,0,0,0-.29-.71,1.06,1.06,0,0,0-1.07.14,1.52,1.52,0,0,0-.4,1.28,1.19,1.19,0,0,0,.75.93,1.77,1.77,0,0,0,1.88,0,2.5,2.5,0,0,0,1-2.23,2.07,2.07,0,0,0-1.25-1.81,2.68,2.68,0,0,0-2.86.07,3.75,3.75,0,0,0-1.44,3.31,3.05,3.05,0,0,0,1.87,2.57,3.74,3.74,0,0,0,4.73-1,4.24,4.24,0,0,0,.34-5.26.282.282,0,1,1,.45-.34,4.79,4.79,0,0,1-.36,6,4.47,4.47,0,0,1-3.41,1.62Z" transform="translate(-167.808 -163.819)" fill="#ebebeb"/>
      </g>
      <path id="Tracé_1544" data-name="Tracé 1544" d="M206.7,188.82s27.6,5.42,37.68,6.38a4.31,4.31,0,0,1,.35,2.23c-1,5.35-4.41,7.46-5.24,7.87,0,0-37.69-5.57-37.88-6.75a10.7,10.7,0,0,1,1.29-5.44C204.16,190.88,206.56,189.09,206.7,188.82Z" transform="translate(-84.087 -47.31)" fill="#fff" stroke="#222221" stroke-miterlimit="10" stroke-width="0.25"/>
      <path id="Tracé_1545" data-name="Tracé 1545" d="M204.23,191.22s22.81,6.39,40.32,7.08" transform="translate(-84.087 -47.31)" fill="none" stroke="#222221" stroke-miterlimit="10" stroke-width="0.25"/>
      <path id="Tracé_1546" data-name="Tracé 1546" d="M202.15,194.64s23.36,6.42,40.87,7.11" transform="translate(-84.087 -47.31)" fill="none" stroke="#222221" stroke-miterlimit="10" stroke-width="0.25"/>
      <g id="Plant-2" data-name="Plant" transform="translate(8.029 276.069)">
        <g id="Pot-2" data-name="Pot" transform="translate(24.304 62.826)">
          <path id="Tracé_1547" data-name="Tracé 1547" d="M124.37,423.83C117.24,416.47,113,398,120,392.11h35.42c7,5.84,2.77,24.35-4.36,31.71l-.19.21-.25.24c-.2.2-.42.39-.65.58l-.17.14-.53.41a9.578,9.578,0,0,1-.93.59c-5.87,3.43-15.39,3.43-21.26,0h0a9.731,9.731,0,0,1-.93-.6l-.5-.38-.21-.17c-.22-.18-.43-.37-.62-.56a3.7,3.7,0,0,1-.28-.28Z" transform="translate(-116.421 -386.205)" fill="#3f3f3f"/>
          <path id="Tracé_1548" data-name="Tracé 1548" d="M152.35,389.76c8.08,4.72,8.08,12.37,0,17.09s-21.19,4.72-29.27,0-8.08-12.37,0-17.09S144.27,385,152.35,389.76Z" transform="translate(-116.421 -386.205)" fill="#666"/>
          <path id="Tracé_1549" data-name="Tracé 1549" d="M148.46,392c5.93,3.47,5.93,9.08,0,12.55s-15.56,3.46-21.49,0S121,395.5,127,392,142.52,388.57,148.46,392Z" transform="translate(-116.421 -386.205)" fill="#263238"/>
          <path id="Tracé_1550" data-name="Tracé 1550" d="M127,398c5.93-3.47,15.55-3.47,21.49,0a9.84,9.84,0,0,1,3.55,3.29,9.77,9.77,0,0,1-3.55,3.3c-5.94,3.46-15.56,3.46-21.49,0a9.89,9.89,0,0,1-3.56-3.3A10,10,0,0,1,127,398Z" transform="translate(-116.421 -386.205)" fill="#fafafa"/>
        </g>
        <path id="Tracé_1551" data-name="Tracé 1551" d="M135.33,350.75c-2.71,2.95-10.26,3.76-13.38-4.19-2.93-7.46-6.09-14.52-7-17.25a2.81,2.81,0,0,1,1.8-3.64s.22-4.1,7.16-1.32,11.83,7,14.86,13.79S140,349.84,135.33,350.75Z" transform="translate(-92.116 -323.379)" fill="#07b5e7"/>
        <path id="Tracé_1552" data-name="Tracé 1552" d="M135.33,350.75c-2.71,2.95-10.26,3.76-13.38-4.19-2.93-7.46-6.09-14.52-7-17.25a2.81,2.81,0,0,1,1.8-3.64s.22-4.1,7.16-1.32,11.83,7,14.86,13.79S140,349.84,135.33,350.75Z" transform="translate(-92.116 -323.379)" fill="#fff" opacity="0.45"/>
        <path id="Tracé_1553" data-name="Tracé 1553" d="M138.33,361.26a35.893,35.893,0,0,0-.6-4.14,57.08,57.08,0,0,0-2.3-8,58.77,58.77,0,0,0-8-14.84,50.141,50.141,0,0,0-6.32-7.17c-.07-.07-.13.09-.08.14a61.5,61.5,0,0,1,15.63,29.19c.34,1.51.66,3,.94,4.55s.44,3.11.7,4.66c0,.15.27.25.28,0A28.519,28.519,0,0,0,138.33,361.26Z" transform="translate(-92.116 -323.379)" fill="#07b5e7"/>
        <path id="Tracé_1554" data-name="Tracé 1554" d="M138.33,361.26a35.893,35.893,0,0,0-.6-4.14,57.08,57.08,0,0,0-2.3-8,58.77,58.77,0,0,0-8-14.84,50.141,50.141,0,0,0-6.32-7.17c-.07-.07-.13.09-.08.14a61.5,61.5,0,0,1,15.63,29.19c.34,1.51.66,3,.94,4.55s.44,3.11.7,4.66c0,.15.27.25.28,0A28.519,28.519,0,0,0,138.33,361.26Z" transform="translate(-92.116 -323.379)" opacity="0.3"/>
        <path id="Tracé_1555" data-name="Tracé 1555" d="M140.65,348.69c-6.23,1.93-10.86-2.93-9.26-10.56S141,322,144,324.31c1.89-1.89,6.05-1.22,8,5S152.23,351.4,140.65,348.69Z" transform="translate(-92.116 -323.379)" fill="#07b5e7"/>
        <path id="Tracé_1556" data-name="Tracé 1556" d="M140.65,348.69c-6.23,1.93-10.86-2.93-9.26-10.56S141,322,144,324.31c1.89-1.89,6.05-1.22,8,5S152.23,351.4,140.65,348.69Z" transform="translate(-92.116 -323.379)" fill="#fff" opacity="0.25"/>
        <path id="Tracé_1557" data-name="Tracé 1557" d="M144.31,329a82.849,82.849,0,0,0-4.14,13.7,134,134,0,0,0-2.41,14.3,223.745,223.745,0,0,0-1.25,28.12c0,2.6.06,5.19.1,7.79s0,5.37.24,8c.09,1,1.54.75,1.56-.19.09-4.67-.17-9.36-.21-14s0-9.25.08-13.86a194.469,194.469,0,0,1,2.53-28.1c.44-2.58.93-5.16,1.54-7.72s1.41-5.33,2.11-8C144.49,328.94,144.37,328.8,144.31,329Z" transform="translate(-92.116 -323.379)" fill="#07b5e7"/>
        <path id="Tracé_1558" data-name="Tracé 1558" d="M144.31,329a82.849,82.849,0,0,0-4.14,13.7,134,134,0,0,0-2.41,14.3,223.745,223.745,0,0,0-1.25,28.12c0,2.6.06,5.19.1,7.79s0,5.37.24,8c.09,1,1.54.75,1.56-.19.09-4.67-.17-9.36-.21-14s0-9.25.08-13.86a194.469,194.469,0,0,1,2.53-28.1c.44-2.58.93-5.16,1.54-7.72s1.41-5.33,2.11-8C144.49,328.94,144.37,328.8,144.31,329Z" transform="translate(-92.116 -323.379)" opacity="0.3"/>
        <path id="Tracé_1559" data-name="Tracé 1559" d="M130.51,371.07c-2.72,3.08-9,2.81-13.15-2.7s-6.69-26.18-.81-24.86c1.25-2.76,17.53,3.87,19.61,17.37C137.68,370.69,130.51,371.07,130.51,371.07Z" transform="translate(-92.116 -323.379)" fill="#07b5e7"/>
        <path id="Tracé_1560" data-name="Tracé 1560" d="M130.51,371.07c-2.72,3.08-9,2.81-13.15-2.7s-6.69-26.18-.81-24.86c1.25-2.76,17.53,3.87,19.61,17.37C137.68,370.69,130.51,371.07,130.51,371.07Z" transform="translate(-92.116 -323.379)" fill="#fff" opacity="0.25"/>
        <path id="Tracé_1561" data-name="Tracé 1561" d="M135.38,380.84a30.068,30.068,0,0,0-.8-3.77,76,76,0,0,0-2.43-7.49,78.56,78.56,0,0,0-7.27-14.27,71.1,71.1,0,0,0-5.16-7.29c0-.06-.1.08-.07.13,1.45,2.12,2.93,4.21,4.24,6.43s2.57,4.67,3.69,7.09a98,98,0,0,1,5.36,14.4c.4,1.4.73,2.82,1.14,4.22s1,2.87,1.34,4.33c.05.22.32.3.3,0C135.59,383.37,135.55,382.1,135.38,380.84Z" transform="translate(-92.116 -323.379)" fill="#07b5e7"/>
        <path id="Tracé_1562" data-name="Tracé 1562" d="M135.38,380.84a30.068,30.068,0,0,0-.8-3.77,76,76,0,0,0-2.43-7.49,78.56,78.56,0,0,0-7.27-14.27,71.1,71.1,0,0,0-5.16-7.29c0-.06-.1.08-.07.13,1.45,2.12,2.93,4.21,4.24,6.43s2.57,4.67,3.69,7.09a98,98,0,0,1,5.36,14.4c.4,1.4.73,2.82,1.14,4.22s1,2.87,1.34,4.33c.05.22.32.3.3,0C135.59,383.37,135.55,382.1,135.38,380.84Z" transform="translate(-92.116 -323.379)" opacity="0.3"/>
        <path id="Tracé_1563" data-name="Tracé 1563" d="M140.48,368c-3.57-.81-3.74-5.09.71-10.34s15.67-7.54,16.2-5.33c2.5,0,2.5,7.81-3,15S140.81,372.83,140.48,368Z" transform="translate(-92.116 -323.379)" fill="#07b5e7"/>
        <path id="Tracé_1564" data-name="Tracé 1564" d="M140.48,368c-3.57-.81-3.74-5.09.71-10.34s15.67-7.54,16.2-5.33c2.5,0,2.5,7.81-3,15S140.81,372.83,140.48,368Z" transform="translate(-92.116 -323.379)" fill="#fff" opacity="0.25"/>
        <path id="Tracé_1565" data-name="Tracé 1565" d="M147.45,360.37a28.29,28.29,0,0,0-10.31,13.31c-.11.31.41.75.54.42a32.79,32.79,0,0,1,9.79-13.65S147.5,360.34,147.45,360.37Z" transform="translate(-92.116 -323.379)" fill="#07b5e7"/>
        <path id="Tracé_1566" data-name="Tracé 1566" d="M147.45,360.37a28.29,28.29,0,0,0-10.31,13.31c-.11.31.41.75.54.42a32.79,32.79,0,0,1,9.79-13.65S147.5,360.34,147.45,360.37Z" transform="translate(-92.116 -323.379)" opacity="0.3"/>
        <path id="Tracé_1567" data-name="Tracé 1567" d="M144.54,394.07c-4.93,2-2.81,7.87,2,12.34a22,22,0,0,0,15,5.4c3.31-.23,4.16-.69,4.16-.69a37.411,37.411,0,0,0,0-8.17,15.78,15.78,0,0,0-11.63-12.52C146.39,388.35,144.54,391.13,144.54,394.07Z" transform="translate(-92.116 -323.379)" fill="#07b5e7"/>
        <path id="Tracé_1568" data-name="Tracé 1568" d="M144.54,394.07c-4.93,2-2.81,7.87,2,12.34a22,22,0,0,0,15,5.4c3.31-.23,4.16-.69,4.16-.69a37.411,37.411,0,0,0,0-8.17,15.78,15.78,0,0,0-11.63-12.52C146.39,388.35,144.54,391.13,144.54,394.07Z" transform="translate(-92.116 -323.379)" fill="#fff" opacity="0.45"/>
        <path id="Tracé_1569" data-name="Tracé 1569" d="M158.2,402.75a39.41,39.41,0,0,0-7.55-7c-2.81-1.85-6.56-3.43-9.93-2.28-1.3.45-3.33,1.75-3.09,3.37,0,.16.31.56.51.33a13.44,13.44,0,0,1,1.77-2.07,5.31,5.31,0,0,1,2.65-1,12.19,12.19,0,0,1,6.92,1.57c3.34,1.77,6,4.51,8.69,7.14C158.19,402.85,158.23,402.77,158.2,402.75Z" transform="translate(-92.116 -323.379)" fill="#07b5e7"/>
        <path id="Tracé_1570" data-name="Tracé 1570" d="M158.2,402.75a39.41,39.41,0,0,0-7.55-7c-2.81-1.85-6.56-3.43-9.93-2.28-1.3.45-3.33,1.75-3.09,3.37,0,.16.31.56.51.33a13.44,13.44,0,0,1,1.77-2.07,5.31,5.31,0,0,1,2.65-1,12.19,12.19,0,0,1,6.92,1.57c3.34,1.77,6,4.51,8.69,7.14C158.19,402.85,158.23,402.77,158.2,402.75Z" transform="translate(-92.116 -323.379)" opacity="0.3"/>
        <path id="Tracé_1571" data-name="Tracé 1571" d="M125.76,368.8c.47-2.24-2.78-7.62-12.89-8.65s-17.7,3.26-19.22,5.22-2.3,4-.47,4.53,8.16,1.13,12.31,3,12.58,7.56,18.34,5.88S128.62,371,125.76,368.8Z" transform="translate(-92.116 -323.379)" fill="#07b5e7"/>
        <path id="Tracé_1572" data-name="Tracé 1572" d="M125.76,368.8c.47-2.24-2.78-7.62-12.89-8.65s-17.7,3.26-19.22,5.22-2.3,4-.47,4.53,8.16,1.13,12.31,3,12.58,7.56,18.34,5.88S128.62,371,125.76,368.8Z" transform="translate(-92.116 -323.379)" fill="#fff" opacity="0.45"/>
        <path id="Tracé_1573" data-name="Tracé 1573" d="M133.45,376.64c-4.27-8.82-15.26-11.51-24.25-11.46a35.58,35.58,0,0,0-8.77,1.14v.1a46.389,46.389,0,0,1,14.64-.14,30.2,30.2,0,0,1,13.38,5.16,18.2,18.2,0,0,1,4.79,5.36C133.37,377,133.54,376.82,133.45,376.64Z" transform="translate(-92.116 -323.379)" fill="#07b5e7"/>
        <path id="Tracé_1574" data-name="Tracé 1574" d="M133.45,376.64c-4.27-8.82-15.26-11.51-24.25-11.46a35.58,35.58,0,0,0-8.77,1.14v.1a46.389,46.389,0,0,1,14.64-.14,30.2,30.2,0,0,1,13.38,5.16,18.2,18.2,0,0,1,4.79,5.36C133.37,377,133.54,376.82,133.45,376.64Z" transform="translate(-92.116 -323.379)" opacity="0.3"/>
        <path id="Tracé_1575" data-name="Tracé 1575" d="M149.33,357c-.13,3.54,4.85,5.59,9.66,2.53s9.87-6,14.34-7.19,6.58-4.79,5.17-6.56-3.65-6.21-15.39-4.75-15.9,6.74-17.51,10.47S147.56,358,149.33,357Z" transform="translate(-92.116 -323.379)" fill="#07b5e7"/>
        <path id="Tracé_1576" data-name="Tracé 1576" d="M149.33,357c-.13,3.54,4.85,5.59,9.66,2.53s9.87-6,14.34-7.19,6.58-4.79,5.17-6.56-3.65-6.21-15.39-4.75-15.9,6.74-17.51,10.47S147.56,358,149.33,357Z" transform="translate(-92.116 -323.379)" fill="#fff" opacity="0.45"/>
        <path id="Tracé_1577" data-name="Tracé 1577" d="M168.43,345.77a12.62,12.62,0,0,0-5,.53,24.83,24.83,0,0,0-4.31,1.54,23.71,23.71,0,0,0-7.34,5.32,19.666,19.666,0,0,0-1.66,2,8.67,8.67,0,0,0-1.25,2.05c-.08.24.26.62.46.38.58-.67,1-1.49,1.57-2.2a24,24,0,0,1,1.88-2.16,23.629,23.629,0,0,1,4.53-3.56,28,28,0,0,1,5-2.44,29.71,29.71,0,0,1,2.92-.88,10.16,10.16,0,0,1,3.19-.44C168.46,345.9,168.49,345.78,168.43,345.77Z" transform="translate(-92.116 -323.379)" fill="#07b5e7"/>
        <path id="Tracé_1578" data-name="Tracé 1578" d="M168.43,345.77a12.62,12.62,0,0,0-5,.53,24.83,24.83,0,0,0-4.31,1.54,23.71,23.71,0,0,0-7.34,5.32,19.666,19.666,0,0,0-1.66,2,8.67,8.67,0,0,0-1.25,2.05c-.08.24.26.62.46.38.58-.67,1-1.49,1.57-2.2a24,24,0,0,1,1.88-2.16,23.629,23.629,0,0,1,4.53-3.56,28,28,0,0,1,5-2.44,29.71,29.71,0,0,1,2.92-.88,10.16,10.16,0,0,1,3.19-.44C168.46,345.9,168.49,345.78,168.43,345.77Z" transform="translate(-92.116 -323.379)" opacity="0.3"/>
        <path id="Tracé_1579" data-name="Tracé 1579" d="M140.9,376.09c-1.64-1.64-6.11-1.26-8.22,3.6s2.32,10.18,2.82,11.68c2-1.18,3.62-.48,7.22-1.18a9,9,0,0,0,6.88-8.94C149.36,376.8,147.48,373.86,140.9,376.09Z" transform="translate(-92.116 -323.379)" fill="#07b5e7"/>
        <path id="Tracé_1580" data-name="Tracé 1580" d="M140.9,376.09c-1.64-1.64-6.11-1.26-8.22,3.6s2.32,10.18,2.82,11.68c2-1.18,3.62-.48,7.22-1.18a9,9,0,0,0,6.88-8.94C149.36,376.8,147.48,373.86,140.9,376.09Z" transform="translate(-92.116 -323.379)" fill="#fff" opacity="0.45"/>
        <path id="Tracé_1581" data-name="Tracé 1581" d="M140.84,375.6a6.83,6.83,0,0,0-2.18,2.26,12.179,12.179,0,0,0-1.41,2.73,11.57,11.57,0,0,0-.62,6.19c0,.07.08,0,.08,0a12.73,12.73,0,0,1,1-6.12,12.529,12.529,0,0,1,1.49-2.45,13.621,13.621,0,0,1,1-1.15,6.431,6.431,0,0,0,.94-.94C141.28,375.88,141.09,375.48,140.84,375.6Z" transform="translate(-92.116 -323.379)" fill="#07b5e7"/>
        <path id="Tracé_1582" data-name="Tracé 1582" d="M140.84,375.6a6.83,6.83,0,0,0-2.18,2.26,12.179,12.179,0,0,0-1.41,2.73,11.57,11.57,0,0,0-.62,6.19c0,.07.08,0,.08,0a12.73,12.73,0,0,1,1-6.12,12.529,12.529,0,0,1,1.49-2.45,13.621,13.621,0,0,1,1-1.15,6.431,6.431,0,0,0,.94-.94C141.28,375.88,141.09,375.48,140.84,375.6Z" transform="translate(-92.116 -323.379)" opacity="0.3"/>
        <path id="Tracé_1583" data-name="Tracé 1583" d="M133.16,385.94c-.15-3.61-4.07-6.48-9.65-8.14a15.16,15.16,0,0,0-15.68,4.2c-4.07,4.43-6.18,8.2-4.52,9.25s9,3.77,13.87,5.28,11.16,2,16-.91S137.69,387.75,133.16,385.94Z" transform="translate(-92.116 -323.379)" fill="#07b5e7"/>
        <path id="Tracé_1584" data-name="Tracé 1584" d="M133.16,385.94c-.15-3.61-4.07-6.48-9.65-8.14a15.16,15.16,0,0,0-15.68,4.2c-4.07,4.43-6.18,8.2-4.52,9.25s9,3.77,13.87,5.28,11.16,2,16-.91S137.69,387.75,133.16,385.94Z" transform="translate(-92.116 -323.379)" fill="#fff" opacity="0.25"/>
        <path id="Tracé_1585" data-name="Tracé 1585" d="M133.47,385.54a15.35,15.35,0,0,0-6.06-1.62,27.38,27.38,0,0,0-6.07.07,37.638,37.638,0,0,0-6.29,1.33c-1.07.32-2.14.67-3.19,1.06a21.841,21.841,0,0,0-2.92,1.2s0,.14,0,.12c1-.21,2-.61,3-.92s2.16-.64,3.25-.93a42,42,0,0,1,6.19-1.17,27.647,27.647,0,0,1,6.3,0,37.461,37.461,0,0,1,5.71,1.4C133.81,386.21,133.69,385.67,133.47,385.54Z" transform="translate(-92.116 -323.379)" fill="#07b5e7"/>
        <path id="Tracé_1586" data-name="Tracé 1586" d="M133.47,385.54a15.35,15.35,0,0,0-6.06-1.62,27.38,27.38,0,0,0-6.07.07,37.638,37.638,0,0,0-6.29,1.33c-1.07.32-2.14.67-3.19,1.06a21.841,21.841,0,0,0-2.92,1.2s0,.14,0,.12c1-.21,2-.61,3-.92s2.16-.64,3.25-.93a42,42,0,0,1,6.19-1.17,27.647,27.647,0,0,1,6.3,0,37.461,37.461,0,0,1,5.71,1.4C133.81,386.21,133.69,385.67,133.47,385.54Z" transform="translate(-92.116 -323.379)" opacity="0.3"/>
        <path id="Tracé_1587" data-name="Tracé 1587" d="M144.67,380.56c-4-3.17-2.65-10.77,11.3-11.18s23.93,3.23,23.48,7.73c2.25,2.24,1.11,8.54-10.19,10.5S141.79,388.6,144.67,380.56Z" transform="translate(-92.116 -323.379)" fill="#07b5e7"/>
        <path id="Tracé_1588" data-name="Tracé 1588" d="M144.67,380.56c-4-3.17-2.65-10.77,11.3-11.18s23.93,3.23,23.48,7.73c2.25,2.24,1.11,8.54-10.19,10.5S141.79,388.6,144.67,380.56Z" transform="translate(-92.116 -323.379)" fill="#fff" opacity="0.25"/>
        <path id="Tracé_1589" data-name="Tracé 1589" d="M172.89,377.16a59.131,59.131,0,0,0-12.47-.73,48.4,48.4,0,0,0-11.51,1.32,17.91,17.91,0,0,0-2.81,1c-.41.2-.83.42-1.22.66s-.67.36-.79.73a.38.38,0,0,0,.42.45,15,15,0,0,0,2.44-1.22,19.878,19.878,0,0,1,2.42-.87,29.608,29.608,0,0,1,4.84-1,86,86,0,0,1,11.79-.65c2.29,0,4.57.21,6.86.39C172.93,377.32,173,377.17,172.89,377.16Z" transform="translate(-92.116 -323.379)" fill="#07b5e7"/>
        <path id="Tracé_1590" data-name="Tracé 1590" d="M172.89,377.16a59.131,59.131,0,0,0-12.47-.73,48.4,48.4,0,0,0-11.51,1.32,17.91,17.91,0,0,0-2.81,1c-.41.2-.83.42-1.22.66s-.67.36-.79.73a.38.38,0,0,0,.42.45,15,15,0,0,0,2.44-1.22,19.878,19.878,0,0,1,2.42-.87,29.608,29.608,0,0,1,4.84-1,86,86,0,0,1,11.79-.65c2.29,0,4.57.21,6.86.39C172.93,377.32,173,377.17,172.89,377.16Z" transform="translate(-92.116 -323.379)" opacity="0.3"/>
      </g>
    </g>
  </g>
</svg>
