<svg xmlns="http://www.w3.org/2000/svg" width="513.134" height="719.103" viewBox="0 0 513.134 719.103">
  <g id="Groupe_252" data-name="Groupe 252" transform="translate(-711.491 -2428)">
    <text id="_2" data-name="2" transform="translate(711.491 2968)" fill="#09a4f4" font-size="500" font-family="SegoeUI, Segoe UI" opacity="0.09"><tspan x="0" y="0">2</tspan></text>
    <g id="_2-2" data-name="2" transform="translate(742.267 2716)">
      <path id="Floor" d="M70.249,215.334c-87.672,35.991-87.672,94.349,0,130.34s229.809,35.991,317.481,0,87.663-94.316,0-130.34S157.921,179.343,70.249,215.334Z" transform="translate(14.731 58.435)" fill="#fafafa"/>
      <g id="Window" transform="translate(367.205 1.025)">
        <path id="Tracé_1618" data-name="Tracé 1618" d="M466.23,126.47c0-30.44-20.05-66.69-44.78-81-13.09-7.56-24.87-7.44-33.06-1.14-10.18,4.23-16.69,15.93-16.69,33.28v190l89.55,51.7,5-2.87Z" transform="translate(-371.7 -39.695)" fill="#e6e6e6"/>
        <path id="Tracé_1619" data-name="Tracé 1619" d="M461.25,319.35v-190c0-30.44-20-66.7-44.77-81S371.7,47.2,371.7,77.64v190Z" transform="translate(-371.7 -39.695)" fill="#f5f5f5"/>
        <path id="Tracé_1620" data-name="Tracé 1620" d="M456.36,129.35V310.86L376.6,264.81V77.65c0-15.22,5.35-25.71,14.35-29a18.51,18.51,0,0,1,6.53-1.13c5.09,0,10.66,1.72,16.55,5.12C437.37,66.1,456.36,100.51,456.36,129.35Z" transform="translate(-371.7 -39.695)" fill="#e0e0e0"/>
        <path id="Tracé_1621" data-name="Tracé 1621" d="M376.6,264.81l5.05-2.91,74.71,43.13v5.84Z" transform="translate(-371.7 -39.695)" fill="#ebebeb"/>
        <path id="Tracé_1622" data-name="Tracé 1622" d="M456.36,129.35V305l-74.71-43.1V74.72c0-12.09,3.39-21.2,9.31-26.09a18.51,18.51,0,0,1,6.53-1.13c5.09,0,10.66,1.72,16.55,5.12C437.37,66.1,456.36,100.51,456.36,129.35Z" transform="translate(-371.7 -39.695)" fill="#fff"/>
        <path id="Tracé_1623" data-name="Tracé 1623" d="M418.92,289.25l-4.89-2.83V50.86h4.89Z" transform="translate(-371.7 -39.695)" fill="#f5f5f5"/>
        <path id="Tracé_1624" data-name="Tracé 1624" d="M423.83,59.7V286.43l-4.9,2.82V55.8C420.59,57,422.22,58.29,423.83,59.7Z" transform="translate(-371.7 -39.695)" fill="#e0e0e0"/>
        <path id="Tracé_1625" data-name="Tracé 1625" d="M376.6,216.82l37.43,21.61v5.75L376.6,222.57Z" transform="translate(-371.7 -39.695)" fill="#f5f5f5"/>
        <path id="Tracé_1626" data-name="Tracé 1626" d="M381.65,213.9l-5.05,2.92,37.43,21.61v-5.75Z" transform="translate(-371.7 -39.695)" fill="#ebebeb"/>
        <path id="Tracé_1627" data-name="Tracé 1627" d="M418.92,241.25l37.44,21.61v5.75L418.92,247Z" transform="translate(-371.7 -39.695)" fill="#f5f5f5"/>
        <path id="Tracé_1628" data-name="Tracé 1628" d="M423.98,238.34l-5.06,2.91,37.44,21.61v-5.74Z" transform="translate(-371.7 -39.695)" fill="#ebebeb"/>
        <path id="Tracé_1629" data-name="Tracé 1629" d="M376.6,88.55l37.43,21.61v5.75L376.6,94.3Z" transform="translate(-371.7 -39.695)" fill="#f5f5f5"/>
        <path id="Tracé_1630" data-name="Tracé 1630" d="M381.65,85.64l-5.05,2.91,37.43,21.61v-5.74Z" transform="translate(-371.7 -39.695)" fill="#ebebeb"/>
        <path id="Tracé_1631" data-name="Tracé 1631" d="M418.92,112.99l37.44,21.61v5.74l-37.44-21.6Z" transform="translate(-371.7 -39.695)" fill="#f5f5f5"/>
        <path id="Tracé_1632" data-name="Tracé 1632" d="M423.98,110.07l-5.06,2.92,37.44,21.61v-5.75Z" transform="translate(-371.7 -39.695)" fill="#ebebeb"/>
      </g>
      <path id="Shadow" d="M166,251.86c-9.37,5.41-9.37,14.18,0,19.59s24.56,5.41,33.93,0,9.37-14.18,0-19.59S175.35,246.45,166,251.86Z" transform="translate(-4.495 -38.67)" fill="#e0e0e0"/>
      <path id="Shadow-2" data-name="Shadow" d="M481.44,408.07a10.75,10.75,0,0,1-1.7,3.95,18.731,18.731,0,0,1-6.37,5.66c-11,6.36-28.9,6.36-39.92,0a18.831,18.831,0,0,1-6.37-5.66,10.7,10.7,0,0,1-1.68-3.95h0c-1-4.78,1.71-9.76,8.06-13.43,11-6.37,28.9-6.37,39.92,0C479.73,398.31,482.42,403.29,481.44,408.07Z" transform="translate(-4.495 -38.67)" fill="#e0e0e0"/>
      <path id="Shadow-3" data-name="Shadow" d="M113.82,410.23,33.34,363.77c-1.44-.84-1.44-2.19,0-3l105.2-60.6a5.72,5.72,0,0,1,5.22,0l80.49,46.46c1.44.84,1.44,2.19,0,3L119,410.23a5.72,5.72,0,0,1-5.18,0Z" transform="translate(-4.495 -38.67)" fill="#e0e0e0"/>
      <path id="Shadow-4" data-name="Shadow" d="M407,414.86l-120.53-69.5c-1.51-.87-1.51-2.28,0-3.15l30.59-17.66a6,6,0,0,1,5.46,0L443.07,394c1.51.87,1.51,2.28,0,3.15l-30.59,17.67a6,6,0,0,1-5.48.04Z" transform="translate(-4.495 -38.67)" fill="#e0e0e0"/>
      <g id="Lamp" transform="translate(153.31 4.545)">
        <path id="Tracé_1633" data-name="Tracé 1633" d="M202.06,257.42h0c0-2.82-1.85-5.65-5.59-7.8-7.46-4.31-19.57-4.31-27,0-3.73,2.15-5.58,5-5.58,7.8h0v2.64h0c.05,2.79,1.92,5.57,5.6,7.7,7.47,4.31,19.58,4.31,27,0,3.69-2.13,5.56-4.91,5.6-7.7h0Z" transform="translate(-157.805 -43.215)" fill="#ebebeb"/>
        <path id="Tracé_1634" data-name="Tracé 1634" d="M169.42,249.62c-7.47,4.31-7.47,11.3,0,15.61s19.58,4.31,27,0,7.47-11.3,0-15.61S176.89,245.31,169.42,249.62Z" transform="translate(-157.805 -43.215)" fill="#f5f5f5"/>
        <path id="Tracé_1635" data-name="Tracé 1635" d="M185,95.74h-4.12V256.19h0a1,1,0,0,0,.59.94,3.24,3.24,0,0,0,2.91,0,1,1,0,0,0,.58-.94h0Z" transform="translate(-157.805 -43.215)" fill="#e0e0e0"/>
        <path id="Tracé_1636" data-name="Tracé 1636" d="M207.58,85.06h0L198.4,50.91h-31l-9.07,34.15h0c-1.66,4.51.62,9.4,6.84,12.9,9.82,5.54,25.76,5.54,35.59,0C207,94.46,209.23,89.57,207.58,85.06Z" transform="translate(-157.805 -43.215)" fill="#ebebeb"/>
        <path id="Tracé_1637" data-name="Tracé 1637" d="M171.92,58.2c6.09,3.43,16,3.43,22,0s6.09-9,0-12.42-16-3.42-22,0S165.84,54.77,171.92,58.2Z" transform="translate(-157.805 -43.215)" fill="#f5f5f5"/>
        <path id="Tracé_1638" data-name="Tracé 1638" d="M182.94,58.62a19.81,19.81,0,0,1-9.54-2.21c-2.23-1.25-3.46-2.82-3.46-4.42s1.23-3.16,3.46-4.41a21.72,21.72,0,0,1,19.09,0c2.23,1.25,3.45,2.82,3.45,4.41s-1.22,3.17-3.45,4.42a19.82,19.82,0,0,1-9.55,2.21Z" transform="translate(-157.805 -43.215)" fill="#e0e0e0"/>
      </g>
      <g id="Mobile" transform="translate(293.166 37.849)">
        <path id="Tracé_1639" data-name="Tracé 1639" d="M297.67,333.93V87.86c0-6.33,3.15-8.08,5.94-9.69s7.39-2.59,11.36-.3l101.61,58.67A15.87,15.87,0,0,1,423.77,149V395.05c0,4.59-2.88,7.29-5.67,8.9s-7.66,3.38-11.63,1.09L304.86,346.38A13.53,13.53,0,0,1,297.67,333.93Z" transform="translate(-297.661 -76.519)" fill="#37474f"/>
        <path id="Tracé_1640" data-name="Tracé 1640" d="M304.13,336.26l104.49,60.32V149.45l13.07-7.55a14.69,14.69,0,0,1,2.11,7.08V395.05c0,4.59-2.88,7.29-5.67,8.9s-7.66,3.38-11.63,1.09L304.86,346.38a13.81,13.81,0,0,1-6.23-6.95l.41-.23Z" transform="translate(-297.661 -76.519)" fill="#263238"/>
        <path id="Tracé_1641" data-name="Tracé 1641" d="M299.33,89V334.67a12.66,12.66,0,0,0,5.71,9.9l99.2,57.27c4.26,2.46,7.75.45,7.75-4.47V153.3a11.16,11.16,0,0,0-5-8.73L305,85.73C301.9,83.92,299.33,85.4,299.33,89Z" transform="translate(-297.661 -76.519)" fill="#455a64"/>
        <path id="Tracé_1642" data-name="Tracé 1642" d="M304.3,100.7V328.85a12,12,0,0,0,5.43,9.41l91.86,53c3,1.74,5.43.34,5.43-3.13V158.34a12.13,12.13,0,0,0-3.81-8.18l-.51-.46a9.931,9.931,0,0,0-1.11-.76L375.76,134l-1.69-1c-.93-.54-1.68-.11-1.68,1s-.81,1.49-1.8.91l-30.12-17.39a3.86,3.86,0,0,1-1.8-3,3.81,3.81,0,0,0-1.51-2.82l-.17-.11L311.71,97.05l-.54-.32C307.39,94.55,304.3,96.33,304.3,100.7Z" transform="translate(-297.661 -76.519)"/>
        <path id="Tracé_1643" data-name="Tracé 1643" d="M317.61,332.17a12,12,0,0,1-5.42-9.41V97.32L337,111.63l.17.11a3.81,3.81,0,0,1,1.51,2.82,3.86,3.86,0,0,0,1.8,3l30.12,17.39c1,.58,1.8.16,1.8-.91s.75-1.51,1.68-1l1.69,1,25.83,14.92a9.932,9.932,0,0,1,1.11.76l.51.46a12.13,12.13,0,0,1,3.81,8.18V383.79Z" transform="translate(-297.661 -76.519)" fill="#263238"/>
        <path id="Tracé_1644" data-name="Tracé 1644" d="M366,125.74l-13.8-8c-.82-.47-1.49-.13-1.49.76a3.19,3.19,0,0,0,1.49,2.47l13.8,8c.83.48,1.49.14,1.49-.75a3.2,3.2,0,0,0-1.49-2.48Z" transform="translate(-297.661 -76.519)" fill="#263238"/>
        <path id="Tracé_1645" data-name="Tracé 1645" d="M345.13,113c-.93-.54-1.68-.1-1.68,1a3.72,3.72,0,0,0,1.68,2.91c.92.53,1.68.1,1.68-1A3.74,3.74,0,0,0,345.13,113Z" transform="translate(-297.661 -76.519)" fill="#263238"/>
        <path id="Tracé_1646" data-name="Tracé 1646" d="M414.34,178.51A6.1,6.1,0,0,1,417,173.7a1.79,1.79,0,0,1,1.83-.15c.33.2,1.64.93,2,1.14a2.09,2.09,0,0,1,.82,1.89v20a6.07,6.07,0,0,1-2.66,4.8,1.8,1.8,0,0,1-1.75.19c-.37-.2-1.71-1-2.06-1.18a2.05,2.05,0,0,1-.82-1.88Z" transform="translate(-297.661 -76.519)" fill="#455a64"/>
        <path id="Tracé_1647" data-name="Tracé 1647" d="M416.31,179.64v20.05c0,1.81,1.19,2.59,2.66,1.74a6.07,6.07,0,0,0,2.66-4.8v-20c0-1.81-1.19-2.58-2.66-1.74a6.07,6.07,0,0,0-2.66,4.75Z" transform="translate(-297.661 -76.519)" fill="#37474f"/>
        <path id="Tracé_1648" data-name="Tracé 1648" d="M414.34,213.6a6.1,6.1,0,0,1,2.65-4.81,1.81,1.81,0,0,1,1.83-.15c.33.21,1.64.94,2,1.14a2.11,2.11,0,0,1,.82,1.89v20.05a6,6,0,0,1-2.66,4.8,1.8,1.8,0,0,1-1.75.19c-.37-.19-1.71-1-2.06-1.17a2.08,2.08,0,0,1-.82-1.89Z" transform="translate(-297.661 -76.519)" fill="#455a64"/>
        <path id="Tracé_1649" data-name="Tracé 1649" d="M416.31,214.74v20c0,1.8,1.19,2.58,2.66,1.73a6,6,0,0,0,2.66-4.8v-20c0-1.81-1.19-2.58-2.66-1.74a6.08,6.08,0,0,0-2.66,4.81Z" transform="translate(-297.661 -76.519)" fill="#37474f"/>
      </g>
      <g id="Window-2" data-name="Window" transform="translate(298.115 65.895)">
        <g id="Window-3" data-name="Window">
          <path id="Tracé_1650" data-name="Tracé 1650" d="M306.25,105c1.2-.68,2.85-.59,4.67.46l.52.31,24.41,14.09a1,1,0,0,1,.17.1,3.69,3.69,0,0,1,1.46,2.73,3.74,3.74,0,0,0,1.74,2.87l29.08,16.79h.07a1.12,1.12,0,0,1,.47-1l1.68-1a1.14,1.14,0,0,1,1.15.12l1.63.94,24.95,14.41a8.818,8.818,0,0,1,1.07.73c.17.14.33.29.49.45a11.7,11.7,0,0,1,3.68,7.9V387a3.68,3.68,0,0,1-1.53,3.39l-1.69,1a3.69,3.69,0,0,1-3.7-.38l-88.72-51.22a11.6,11.6,0,0,1-5.24-9.09V110.3c0-2.1.74-3.58,1.94-4.28Z" transform="translate(-302.61 -104.565)" fill="#07b5e7"/>
          <path id="Tracé_1651" data-name="Tracé 1651" d="M396.07,390.24v.44l.5.28a3.69,3.69,0,0,0,3.7.38l1.69-1a3.68,3.68,0,0,0,1.53-3.39V165a10.9,10.9,0,0,0-1.81-5.6l-2,1.15a10.62,10.62,0,0,1,1.76,5.42v222a4.07,4.07,0,0,1-.72,2.53,2.24,2.24,0,0,1-1.8.85,4.4,4.4,0,0,1-2.16-.68Z" transform="translate(-302.61 -104.565)" opacity="0.3"/>
          <path id="Tracé_1652" data-name="Tracé 1652" d="M334.82,122a3.09,3.09,0,0,1,.61,1.69,3.76,3.76,0,0,0,.64,2l2-1.16a3.31,3.31,0,0,1-.61-1.76,3.48,3.48,0,0,0-.66-1.88Z" transform="translate(-302.61 -104.565)" opacity="0.3"/>
          <path id="Tracé_1653" data-name="Tracé 1653" d="M398.92,391.31a2.22,2.22,0,0,0,1.8-.84,4,4,0,0,0,.72-2.53V166a11.37,11.37,0,0,0-3.56-7.63l-.16-.15-.33-.29a7.869,7.869,0,0,0-1-.69l-24.95-14.41-1.63-.94a1.12,1.12,0,0,0-.54-.17c-.47,0-.53.55-.53.79a1.34,1.34,0,0,1-1.29,1.5,2,2,0,0,1-1-.31l-29.08-16.79a4.07,4.07,0,0,1-1.92-3.2,3.31,3.31,0,0,0-1.3-2.42l-.14-.08L309.58,107.1l-.53-.31a5.7,5.7,0,0,0-2.76-.85c-2,0-3.31,1.68-3.31,4.36V330.65a11.18,11.18,0,0,0,5,8.76l88.73,51.23a4.41,4.41,0,0,0,2.21.67Z" transform="translate(-302.61 -104.565)" fill="#fafafa"/>
          <path id="Tracé_1654" data-name="Tracé 1654" d="M306.29,106a5.71,5.71,0,0,1,2.76.84l.53.31L334,121.19l.14.09a3.28,3.28,0,0,1,1.3,2.42,4.1,4.1,0,0,0,1.92,3.2l29.08,16.78a2,2,0,0,0,1,.31,1.33,1.33,0,0,0,1.29-1.5c0-.24,0-.79.53-.79a1.16,1.16,0,0,1,.54.17l1.63.94,24.95,14.41a9.006,9.006,0,0,1,1,.69l.33.29.16.15a11.37,11.37,0,0,1,3.56,7.63V191.9L303,135V110.3C303,107.62,304.25,106,306.29,106Z" transform="translate(-302.61 -104.565)" fill="#07b5e7"/>
          <g id="Groupe_162" data-name="Groupe 162" transform="translate(0.39 1.435)" opacity="0.3">
            <path id="Tracé_1655" data-name="Tracé 1655" d="M306.29,106a5.71,5.71,0,0,1,2.76.84l.53.31L334,121.19l.14.09a3.28,3.28,0,0,1,1.3,2.42,4.1,4.1,0,0,0,1.92,3.2l29.08,16.78a2,2,0,0,0,1,.31,1.33,1.33,0,0,0,1.29-1.5c0-.24,0-.79.53-.79a1.16,1.16,0,0,1,.54.17l1.63.94,24.95,14.41a9.006,9.006,0,0,1,1,.69l.33.29.16.15a11.37,11.37,0,0,1,3.56,7.63V191.9L303,135V110.3C303,107.62,304.25,106,306.29,106Z" transform="translate(-303 -106)" fill="#fff"/>
          </g>
          <path id="Tracé_1656" data-name="Tracé 1656" d="M309.16,116.63a.12.12,0,0,1,0,.1.08.08,0,0,1-.09,0l-.2-.11a.27.27,0,0,1-.1-.11.35.35,0,0,1,0-.14v-3.58l-.79.34a.08.08,0,0,1-.1,0,.2.2,0,0,1-.09-.11l-.12-.27a.26.26,0,0,1,0-.15.08.08,0,0,1,.05-.08l1-.47h.16l.2.12a.3.3,0,0,1,.09.1.28.28,0,0,1,0,.15Z" transform="translate(-302.61 -104.565)" fill="#fafafa"/>
          <path id="Tracé_1657" data-name="Tracé 1657" d="M311.21,117.81a.11.11,0,0,1,0,.1.07.07,0,0,1-.09,0l-.2-.12a.18.18,0,0,1-.09-.1.28.28,0,0,1,0-.15V114l-.79.35a.1.1,0,0,1-.1,0,.27.27,0,0,1-.09-.12l-.12-.27a.24.24,0,0,1,0-.14c0-.05,0-.08.05-.09l1-.46h.16l.2.11a.35.35,0,0,1,.09.11.27.27,0,0,1,0,.14Z" transform="translate(-302.61 -104.565)" fill="#fafafa"/>
          <path id="Tracé_1658" data-name="Tracé 1658" d="M312.36,115.59a.18.18,0,0,1,.09.1.28.28,0,0,1,0,.15v.44a.12.12,0,0,1,0,.1h-.09l-.33-.18a.35.35,0,0,1-.09-.11.28.28,0,0,1,0-.15v-.43a.11.11,0,0,1,0-.1.07.07,0,0,1,.09,0Zm0,2.27a.2.2,0,0,1,.09.11.27.27,0,0,1,0,.14v.44a.11.11,0,0,1,0,.1h-.09l-.33-.19a.35.35,0,0,1-.09-.11.23.23,0,0,1,0-.14v-.44a.12.12,0,0,1,0-.1.07.07,0,0,1,.09,0Z" transform="translate(-302.61 -104.565)" fill="#fafafa"/>
          <path id="Tracé_1659" data-name="Tracé 1659" d="M313.49,118.12a1.46,1.46,0,0,0,.28.64,1.56,1.56,0,0,0,.49.47.83.83,0,0,0,.31.11.33.33,0,0,0,.24,0,.38.38,0,0,0,.17-.2,1,1,0,0,0,.06-.38,1.65,1.65,0,0,0-.23-.84,1.829,1.829,0,0,0-.24-.31,1.721,1.721,0,0,0-.31-.24.66.66,0,0,0-.29-.11.51.51,0,0,0-.18,0l-.13.05a.21.21,0,0,1-.13,0l-.25-.15-.07-.08a.27.27,0,0,1,0-.12l.14-2.09a.15.15,0,0,1,0-.1.08.08,0,0,1,.09,0l1.72,1a.24.24,0,0,1,.1.1.421.421,0,0,1,0,.15v.23a.13.13,0,0,1,0,.1.09.09,0,0,1-.1,0l-1.41-.82-.08,1.08h.22a1.33,1.33,0,0,1,.36.16,2.11,2.11,0,0,1,.48.38,2.629,2.629,0,0,1,.4.53,2.891,2.891,0,0,1,.26.63,2.371,2.371,0,0,1,.1.7,1.369,1.369,0,0,1-.1.58.68.68,0,0,1-.26.33.66.66,0,0,1-.4.08,1.3,1.3,0,0,1-.48-.18,2.14,2.14,0,0,1-.46-.36,2.28,2.28,0,0,1-.39-.48,2.81,2.81,0,0,1-.27-.55,1.65,1.65,0,0,1-.11-.57.11.11,0,0,1,0-.08h.08l.22.13a.3.3,0,0,1,.08.08.46.46,0,0,1,.09.13Z" transform="translate(-302.61 -104.565)" fill="#fafafa"/>
          <path id="Tracé_1660" data-name="Tracé 1660" d="M316.37,119.87a2.172,2.172,0,0,0,.07.24,1.11,1.11,0,0,0,.13.27,2.531,2.531,0,0,0,.23.26,2.079,2.079,0,0,0,.38.27.94.94,0,0,0,.28.12.38.38,0,0,0,.24,0,.33.33,0,0,0,.17-.16.75.75,0,0,0,.06-.33,1.229,1.229,0,0,0-.06-.39,1.07,1.07,0,0,0-.16-.32,1.548,1.548,0,0,0-.24-.27,1.941,1.941,0,0,0-.29-.21l-.41-.23a.35.35,0,0,1-.09-.11.27.27,0,0,1,0-.14v-.24a.12.12,0,0,1,0-.09l.05-.06.88-.75-1.41-.81a.35.35,0,0,1-.09-.11.27.27,0,0,1,0-.14v-.24a.12.12,0,0,1,0-.1.07.07,0,0,1,.09,0l1.92,1.11a.2.2,0,0,1,.09.11.27.27,0,0,1,0,.14v.24a.16.16,0,0,1,0,.1l-.06.07-.87.74a2.22,2.22,0,0,1,.45.36,2.729,2.729,0,0,1,.35.47,2.34,2.34,0,0,1,.3,1.14,1.14,1.14,0,0,1-.1.53.54.54,0,0,1-.26.29.6.6,0,0,1-.38.06,1.2,1.2,0,0,1-.47-.18,2.48,2.48,0,0,1-.57-.42,3.49,3.49,0,0,1-.39-.49,2.869,2.869,0,0,1-.23-.51,1.51,1.51,0,0,1-.07-.46v-.08c0-.01,0,0,.07,0l.23.13a.24.24,0,0,1,.08.09.28.28,0,0,1,.08.1Z" transform="translate(-302.61 -104.565)" fill="#fafafa"/>
          <path id="Tracé_1661" data-name="Tracé 1661" d="M324,121h0m0,0-1.51,3.38v-2.23l-1.67-1L324,121m0-.39h0a.46.46,0,0,0-.18-.15h-.08l-3.17.2c-.12,0-.12.21,0,.49a2.19,2.19,0,0,0,.29.47,1.371,1.371,0,0,0,.19.17l1.1.63v1.57a1.53,1.53,0,0,0,.33.76.18.18,0,0,1,.05.07c.17.19.32.25.37.14l1.49-3.36a.18.18,0,0,0,0-.11,1.55,1.55,0,0,0-.38-.82ZM324,121.38Z" transform="translate(-302.61 -104.565)" fill="#fafafa"/>
          <path id="Tracé_1662" data-name="Tracé 1662" d="M376.06,155.38l-.81-.47v-1.6l.81.47Z" transform="translate(-302.61 -104.565)" fill="#fafafa"/>
          <path id="Tracé_1663" data-name="Tracé 1663" d="M377.36,156.13l-.82-.47v-2.29l.82.47Z" transform="translate(-302.61 -104.565)" fill="#fafafa"/>
          <path id="Tracé_1664" data-name="Tracé 1664" d="M378.65,156.87l-.81-.47v-3.14l.81.47Z" transform="translate(-302.61 -104.565)" fill="#fafafa"/>
          <path id="Tracé_1665" data-name="Tracé 1665" d="M379.95,157.62l-.82-.47v-3.98l.82.47Z" transform="translate(-302.61 -104.565)" fill="#07b5e7"/>
          <path id="Tracé_1666" data-name="Tracé 1666" d="M385.63,156.81a1.93,1.93,0,0,0-2.16-.07l.54,1a1.43,1.43,0,0,1,1.62.05,4.6,4.6,0,0,1,1.62,1.82l.54-.43a6.19,6.19,0,0,0-2.16-2.37Zm-1.41,1.39.49,1a.83.83,0,0,1,.92,0,2.58,2.58,0,0,1,.92,1l.49-.39a4,4,0,0,0-1.41-1.59A1.25,1.25,0,0,0,384.22,158.2Zm.73,1.42.68,1.33.69-.55a2,2,0,0,0-.69-.77.58.58,0,0,0-.63-.01Z" transform="translate(-302.61 -104.565)" fill="#fafafa"/>
          <path id="Tracé_1667" data-name="Tracé 1667" d="M395.47,162.6a1.27,1.27,0,0,1,.53,1v2.57c0,.39-.24.57-.53.4l-4.58-2.64a1.27,1.27,0,0,1-.53-1v-2.57c0-.39.23-.56.53-.4l4.58,2.65m0-.22-4.58-2.65c-.39-.22-.7,0-.7.53v2.57a1.67,1.67,0,0,0,.7,1.33l4.58,2.64c.38.22.7,0,.7-.52v-2.57a1.68,1.68,0,0,0-.7-1.33Z" transform="translate(-302.61 -104.565)" fill="#07b5e7"/>
          <path id="Tracé_1668" data-name="Tracé 1668" d="M393.61,164.87,391,163.38a.51.51,0,0,1-.21-.41v-2.13c0-.16.09-.23.21-.16l2.58,1.49a.51.51,0,0,1,.22.41v2.13C393.83,164.87,393.73,164.94,393.61,164.87Z" transform="translate(-302.61 -104.565)" fill="#fafafa"/>
          <path id="Tracé_1669" data-name="Tracé 1669" d="M396.66,166l-.19-.1v-1.39l.19.1a1.28,1.28,0,0,1,.18.8C396.84,165.77,396.76,166,396.66,166Z" transform="translate(-302.61 -104.565)" fill="#07b5e7"/>
          <path id="Tracé_1670" data-name="Tracé 1670" d="M387.92,171.3l8.33,4.81c.22.13.41-.05.41-.4a1.1,1.1,0,0,0-.41-.87L387.92,170c-.23-.13-.41.05-.41.4A1.07,1.07,0,0,0,387.92,171.3Zm8.33,7-8.33-4.81c-.23-.13-.41.05-.41.39a1.07,1.07,0,0,0,.41.87l8.33,4.81c.22.13.41,0,.41-.39a1.1,1.1,0,0,0-.41-.89Zm0,3.44-8.33-4.81c-.23-.13-.41,0-.41.39a1.07,1.07,0,0,0,.41.87l8.33,4.81c.22.13.41,0,.41-.4a1.1,1.1,0,0,0-.41-.88Z" transform="translate(-302.61 -104.565)" fill="#fafafa"/>
          <path id="Tracé_1671" data-name="Tracé 1671" d="M306.29,106.32a5.26,5.26,0,0,1,2.58.8l.52.3,24.41,14.09.11.07a2.92,2.92,0,0,1,1.14,2.11,4.52,4.52,0,0,0,2.11,3.53L366.25,144a2.39,2.39,0,0,0,1.19.35,1.7,1.7,0,0,0,1.67-1.87c0-.05,0-.42.15-.42a.73.73,0,0,1,.35.12l1.63.94,25,14.41a8,8,0,0,1,1,.67c.09.07.19.17.29.26l.17.16a11,11,0,0,1,3.44,7.35v222c0,1.88-.81,3-2.15,3a4.119,4.119,0,0,1-2-.62l-88.73-51.23a10.93,10.93,0,0,1-4.87-8.44V110.3c0-2.49,1.1-4,2.94-4h0m0-.75c-2.18,0-3.68,1.74-3.68,4.73V330.65a11.6,11.6,0,0,0,5.24,9.09L396.57,391a4.75,4.75,0,0,0,2.35.73c1.71,0,2.89-1.38,2.89-3.75V166a11.74,11.74,0,0,0-3.68-7.91c-.16-.15-.32-.3-.49-.44a7.814,7.814,0,0,0-1.07-.73l-24.95-14.41-1.63-.94a1.48,1.48,0,0,0-.73-.22c-.53,0-.9.42-.9,1.16s-.37,1.13-.92,1.13a1.73,1.73,0,0,1-.82-.26l-29.08-16.79a3.74,3.74,0,0,1-1.74-2.88,3.67,3.67,0,0,0-1.46-2.72,1,1,0,0,0-.17-.1L309.76,106.8l-.52-.31a6,6,0,0,0-2.95-.9Z" transform="translate(-302.61 -104.565)" fill="#07b5e7"/>
        </g>
        <path id="Tracé_1672" data-name="Tracé 1672" d="M361.4,236.69c-4.19,2.42-10,2.07-16.38-1.62-12.8-7.39-23.17-25.36-23.17-40.13,0-7.39,2.59-12.58,6.78-15l4.84-2.8c4.2-2.42,10-2.07,16.39,1.62,12.79,7.39,23.17,25.36,23.17,40.13,0,7.39-2.6,12.58-6.79,15Z" transform="translate(-302.61 -104.565)" fill="#07b5e7"/>
        <path id="Tracé_1673" data-name="Tracé 1673" d="M321.85,194.94c0-7.39,2.59-12.58,6.78-15s10-2.07,16.39,1.62c12.79,7.39,23.17,25.36,23.17,40.13,0,7.39-2.6,12.58-6.79,15s-10,2.07-16.38-1.62C332.22,227.68,321.85,209.71,321.85,194.94Z" transform="translate(-302.61 -104.565)" fill="#07b5e7"/>
        <path id="Tracé_1674" data-name="Tracé 1674" d="M321.85,194.94c0-7.39,2.59-12.58,6.78-15s10-2.07,16.39,1.62c12.79,7.39,23.17,25.36,23.17,40.13,0,7.39-2.6,12.58-6.79,15s-10,2.07-16.38-1.62C332.22,227.68,321.85,209.71,321.85,194.94Z" transform="translate(-302.61 -104.565)" fill="#fff" opacity="0.3"/>
        <path id="Tracé_1675" data-name="Tracé 1675" d="M340.67,221.29l-8.21-13.13,4.05-4.72,4.84,7.77,11.8-13.75,3.36,5.36Z" transform="translate(-302.61 -104.565)" fill="#fff"/>
        <path id="Tracé_1676" data-name="Tracé 1676" d="M319.18,237a10.24,10.24,0,0,1,5.11,9c-.05,3.32-1.73,5.17-5.3,3.08l-4.26-2.48.19-12.07Zm-1.62,8.33,1.48.86c1.79,1,2.44-.21,2.47-1.86a5,5,0,0,0-2.37-4.48l-1.48-.86Z" transform="translate(-302.61 -104.565)" fill="#66b3e3"/>
        <path id="Tracé_1677" data-name="Tracé 1677" d="M333.84,257.7l-8-4.65.19-12.07,7.76,4.53-.05,2.86-5-2.91v1.73l4.7,2.74v2.78l-4.7-2.75v1.83l5.18,3Z" transform="translate(-302.61 -104.565)" fill="#66b3e3"/>
        <path id="Tracé_1678" data-name="Tracé 1678" d="M344.05,256.4l-2.6,2.17-.5-.29-2.43-5.09-.11,7.17-2.78-1.62.19-12.07,2.94,1.71,2.55,5.62,2.68-2.56,2.92,1.7-.19,12.07-2.78-1.62Z" transform="translate(-302.61 -104.565)" fill="#66b3e3"/>
        <path id="Tracé_1679" data-name="Tracé 1679" d="M355.83,268.53l-4.45-2.6-.68,1.6-3-1.74,4.65-9.46,2.85,1.65,4.25,14.67-3-1.76Zm-2.11-8-1.34,3.1,2.54,1.48Z" transform="translate(-302.61 -104.565)" fill="#66b3e3"/>
        <path id="Tracé_1680" data-name="Tracé 1680" d="M367.13,271.61c-.05-1.49,0-2,0-2.52l.06-4.14L370,266.6l-.19,12.07-2.39-1.39-4-8.92V271l-.06,3.87-2.85-1.66.19-12.07,2.39,1.39Z" transform="translate(-302.61 -104.565)" fill="#66b3e3"/>
        <path id="Tracé_1681" data-name="Tracé 1681" d="M376.46,270.38a10.25,10.25,0,0,1,5.1,9c-.05,3.32-1.73,5.16-5.29,3.08L372,280l.19-12.07Zm-1.63,8.33,1.48.86c1.79,1.05,2.44-.21,2.47-1.86a5,5,0,0,0-2.37-4.48l-1.48-.86Z" transform="translate(-302.61 -104.565)" fill="#66b3e3"/>
        <path id="Tracé_1682" data-name="Tracé 1682" d="M391.11,291.12l-8-4.65.19-12.07,7.76,4.53v2.86l-5-2.91v1.73l4.7,2.74v2.78l-4.7-2.75v1.83l5.18,3Z" transform="translate(-302.61 -104.565)" fill="#66b3e3"/>
        <path id="Tracé_1683" data-name="Tracé 1683" d="M315.07,266c-1.14.69-2.51.43-4-.45a10.65,10.65,0,0,1-5.34-9.43c0-3.12,1.8-5.41,5.54-3.23a10.6,10.6,0,0,1,3.82,4.18l-1.77,1.06a5.72,5.72,0,0,0-2.1-2.29c-1.91-1.12-2.7.34-2.71,1.92a5.62,5.62,0,0,0,2.61,4.89,2.35,2.35,0,0,0,2.36.15Z" transform="translate(-302.61 -104.565)" fill="#66b3e3"/>
        <path id="Tracé_1684" data-name="Tracé 1684" d="M321.08,271.42a11,11,0,0,1-5.43-9.55c.06-4,2.38-5,5.63-3.1a10.94,10.94,0,0,1,5.43,9.55C326.64,272.36,324.35,273.33,321.08,271.42Zm.15-9.74c-1.6-.94-2.73-.17-2.76,1.83a5.82,5.82,0,0,0,2.66,5c1.64,1,2.73.17,2.76-1.83a5.69,5.69,0,0,0-2.66-5Z" transform="translate(-302.61 -104.565)" fill="#66b3e3"/>
        <path id="Tracé_1685" data-name="Tracé 1685" d="M335,273.71c-.05-1.49,0-2-.05-2.52l.07-4.14,2.82,1.65-.19,12.07-2.38-1.39-4.05-8.92v2.66l-.06,3.86-2.84-1.66.19-12.07,2.39,1.4Z" transform="translate(-302.61 -104.565)" fill="#66b3e3"/>
        <path id="Tracé_1686" data-name="Tracé 1686" d="M339.82,282.06,340,270l7.63,4.45-.05,2.87-4.84-2.83v2.26l4.55,2.65-.05,2.8-4.54-2.66-.07,4.16Z" transform="translate(-302.61 -104.565)" fill="#66b3e3"/>
        <path id="Tracé_1687" data-name="Tracé 1687" d="M349.12,287.49l.19-12.07,2.8,1.63-.19,12.08Z" transform="translate(-302.61 -104.565)" fill="#66b3e3"/>
        <path id="Tracé_1688" data-name="Tracé 1688" d="M363.34,295.79l-3.1-1.81L358,288.72l-1-.57-.06,3.91-2.81-1.64.19-12.07,4.85,2.83a7.64,7.64,0,0,1,3.8,6.41c0,1.49-.47,2.5-2.16,2.42l2.53,5.57Zm-6.24-13.08-.05,2.9,2.07,1.21c.74.43,1.08-.05,1.09-.77a2.48,2.48,0,0,0-1.07-2.14Z" transform="translate(-302.61 -104.565)" fill="#66b3e3"/>
        <path id="Tracé_1689" data-name="Tracé 1689" d="M373.23,294.3l-2.6,2.17-.5-.29-2.43-5.09-.11,7.18-2.79-1.63.19-12.07,2.94,1.72,2.55,5.61,2.68-2.56,2.93,1.71-.19,12.07-2.79-1.63Z" transform="translate(-302.61 -104.565)" fill="#66b3e3"/>
        <path id="Tracé_1690" data-name="Tracé 1690" d="M386.07,309.05l-8-4.64.19-12.07,7.76,4.53-.05,2.86-5-2.91v1.72l4.7,2.75v2.77l-4.7-2.74v1.83l5.18,3Zm-1.19-16.67-2.74-1.6L381,292.92V293l2.29,1.33,1.59-1.84Z" transform="translate(-302.61 -104.565)" fill="#66b3e3"/>
        <path id="Tracé_1691" data-name="Tracé 1691" d="M395.81,314.74l-7.95-4.64.19-12.08,7.75,4.53v2.86l-5-2.91v1.73l4.71,2.74-.05,2.78L390.7,307v1.83l5.19,3Z" transform="translate(-302.61 -104.565)" fill="#66b3e3"/>
        <path id="Tracé_1692" data-name="Tracé 1692" d="M390.54,368.88l-76.66-44.26a5.2,5.2,0,0,1-2-4.19V283.61c0-1.68.88-2.53,2-1.9L390.54,326a5.23,5.23,0,0,1,2,4.19V367C392.52,368.66,391.63,369.51,390.54,368.88Z" transform="translate(-302.61 -104.565)" fill="#fafafa"/>
        <path id="Tracé_1693" data-name="Tracé 1693" d="M391.24,369.54a1.83,1.83,0,0,1-.92-.27L313.65,325a5.66,5.66,0,0,1-2.2-4.58V283.61a2.62,2.62,0,0,1,1-2.37,1.6,1.6,0,0,1,1.63.08l76.66,44.26a5.64,5.64,0,0,1,2.21,4.58V367a2.62,2.62,0,0,1-1,2.37,1.48,1.48,0,0,1-.71.17ZM313.18,282a.54.54,0,0,0-.27.07c-.27.16-.56.66-.56,1.59v36.82a4.82,4.82,0,0,0,1.75,3.8l76.66,44.27a.72.72,0,0,0,.74.07c.28-.16.57-.66.57-1.59V330.16a4.82,4.82,0,0,0-1.75-3.8L313.65,282.1a.92.92,0,0,0-.47-.1Z" transform="translate(-302.61 -104.565)" fill="#e0e0e0"/>
        <path id="Pin" d="M324.16,293.6c-3.91-2.26-7.08.79-7.08,6.81,0,10.33,7.07,24.19,7.07,24.19a21.55,21.55,0,0,0,7.09-16C331.24,302.57,328.07,295.86,324.16,293.6Zm0,15.5c-1.89-1.1-3.43-4.34-3.43-7.26s1.54-4.39,3.43-3.29,3.43,4.34,3.43,7.25S326.05,310.19,324.16,309.1Z" transform="translate(-302.61 -104.565)" fill="#07b5e7"/>
        <path id="Tracé_1694" data-name="Tracé 1694" d="M374,329.79l-33.5-19.34a4.31,4.31,0,0,1-1.8-3.44v-.36c0-1.33.81-1.94,1.8-1.36L374,324.63a4.28,4.28,0,0,1,1.8,3.44v.36C375.77,329.76,375,330.37,374,329.79Z" transform="translate(-302.61 -104.565)" fill="#07b5e7"/>
        <path id="Tracé_1695" data-name="Tracé 1695" d="M386,344.23a.79.79,0,0,1-.44-.12l-47.33-27.32a.9.9,0,0,1,.9-1.55l47.32,27.32a.9.9,0,0,1,.33,1.23A.91.91,0,0,1,386,344.23Z" transform="translate(-302.61 -104.565)" fill="#e0e0e0"/>
        <path id="Tracé_1696" data-name="Tracé 1696" d="M386,351.58a.88.88,0,0,1-.44-.12l-47.33-27.32a.9.9,0,0,1,.9-1.55l47.32,27.32a.89.89,0,0,1,.33,1.22A.9.9,0,0,1,386,351.58Z" transform="translate(-302.61 -104.565)" fill="#e0e0e0"/>
        <path id="Tracé_1697" data-name="Tracé 1697" d="M386,358.93a.88.88,0,0,1-.44-.12l-47.33-27.32a.91.91,0,0,1-.32-1.23.89.89,0,0,1,1.22-.32l47.32,27.32a.89.89,0,0,1,.33,1.22.9.9,0,0,1-.78.45Z" transform="translate(-302.61 -104.565)" fill="#e0e0e0"/>
      </g>
      <g id="Character" transform="translate(26.765 134.551)">
        <g id="Couch" transform="translate(0 17.997)">
          <path id="Tracé_1698" data-name="Tracé 1698" d="M45.42,367.5l-5.88-3.39.12-21.99,7.23,4.18Z" transform="translate(-31.26 -191.218)" fill="#040419"/>
          <path id="Tracé_1699" data-name="Tracé 1699" d="M210.67,355.15l-5.87-3.39-7.24-17.74,7.24,4.18Z" transform="translate(-31.26 -191.218)" fill="#040419"/>
          <path id="Tracé_1700" data-name="Tracé 1700" d="M217.5,329.16,117.35,386.97v6.78l1.11-.64-1.11,15.91,5.88-3.39,4.4-17.81,78.63-45.39,4.41,12.72,5.87-3.39-1.11-14.63,2.07-1.19Z" transform="translate(-31.26 -191.218)" fill="#01011c"/>
          <path id="Tracé_1701" data-name="Tracé 1701" d="M117.35,386.97,217.5,329.16,135.29,281.7,35.15,339.51v6.78l76.41,44.11-.08,15.23,5.87,3.39,1.48-21.2-1.48-.85Z" transform="translate(-31.26 -191.218)" fill="#040419"/>
          <path id="Tracé_1702" data-name="Tracé 1702" d="M45.42,367.5l1.48-21.2,10.26-5.93-5.87,23.74Z" transform="translate(-31.26 -191.218)" fill="#01011c"/>
          <path id="Tracé_1703" data-name="Tracé 1703" d="M217.6,287.42v35.81a12.73,12.73,0,0,1-5.74,9.95l-1.65,1h-.08a13,13,0,0,1-7.18,1.23l-72.4,38.49a12.83,12.83,0,0,1-5.67,9.54h-.06l-1.65,1a2.188,2.188,0,0,1-.43.22,1.343,1.343,0,0,1-.24.12h-.07a13.09,13.09,0,0,1-8.91.41c-.34-.11-.67-.23-1-.37l-.16-.07a6.163,6.163,0,0,1-.68-.34L37,341.32a12.72,12.72,0,0,1-5.74-9.95V253.78A12.77,12.77,0,0,1,37,243.84l88.69-51.25a12.69,12.69,0,0,1,11.48,0l4.68,2.69a15.25,15.25,0,0,1,6.62,9.89l4.51,38.3,58.88,34a12.73,12.73,0,0,1,5.74,9.95Z" transform="translate(-31.26 -191.218)" fill="#545454"/>
          <path id="Tracé_1704" data-name="Tracé 1704" d="M141.85,195.29l-4.67-2.7a12.69,12.69,0,0,0-11.48,0L37,243.84c-.34.2-.7.45-.59.37a13.15,13.15,0,0,0-5.09,8.61c.42-2.93,2.81-4,5.67-2.35l4.68,2.7a12.69,12.69,0,0,0,11.48,0l88.69-51.25C145,200.09,145,197.12,141.85,195.29Z" transform="translate(-31.26 -191.218)" fill="#606060"/>
          <path id="Tracé_1705" data-name="Tracé 1705" d="M217.6,287.42v35.81a12.73,12.73,0,0,1-5.74,9.95l-1.65,1h-.08a12.27,12.27,0,0,1-6.73,1.27,11.331,11.331,0,0,1-4.68-1.31l-53.13-30.69a12.74,12.74,0,0,1-5.74-9.94V257.69a12.68,12.68,0,0,1,5.74-9.94l7.39-4.28,58.88,34a12.73,12.73,0,0,1,5.74,9.95Z" transform="translate(-31.26 -191.218)" fill="#232323"/>
          <path id="Tracé_1706" data-name="Tracé 1706" d="M153,243.47l-7.39,4.28c-3.16,1.82-3.16,4.8,0,6.62l53.14,30.68a12.77,12.77,0,0,1,5.74,9.95v35.82c0,3.65,2.58,5.14,5.74,3.32l1.65-1a12.75,12.75,0,0,0,5.74-9.95V287.41a12.71,12.71,0,0,0-5.74-9.94Z" transform="translate(-31.26 -191.218)" fill="#606060"/>
          <path id="Tracé_1707" data-name="Tracé 1707" d="M204.47,295v35.82c0,3.65,2.58,5.14,5.74,3.32l1.65-1a12.75,12.75,0,0,0,5.74-9.95V287.41a11.74,11.74,0,0,0-1.69-5.65l-13.13,7.58a11.75,11.75,0,0,1,1.69,5.66Z" transform="translate(-31.26 -191.218)" fill="#545454"/>
          <path id="Tracé_1708" data-name="Tracé 1708" d="M202.08,335.45a13.58,13.58,0,0,1-2.1,3.16,25,25,0,0,1-5.4,3.78c-20.19,11.66-36.89,21.34-57.08,33a6.38,6.38,0,0,1-5.74,0l-18.67-10.78L75.75,343.05C72.58,341.22,70,337,70,333.52s2.57-7.7,5.74-9.53l21.18-12.24,16.16-9.32L132.78,291a12.71,12.71,0,0,1,11.48,0l53.14,30.69c3.17,1.83,5.74,3.24,5.74,7.45A21.28,21.28,0,0,1,202.08,335.45Z" transform="translate(-31.26 -191.218)" fill="#232323"/>
          <path id="Tracé_1709" data-name="Tracé 1709" d="M137.5,363l62.77-36.28c1.58-.92,2.87-.17,2.87,1.66v5.8a6.38,6.38,0,0,1-2.87,5L137.5,375.39c-1.59.91-2.87.17-2.87-1.66v-5.81A6.36,6.36,0,0,1,137.5,363Z" transform="translate(-31.26 -191.218)" fill="#545454"/>
          <path id="Tracé_1710" data-name="Tracé 1710" d="M132.13,270.74,75.75,303.33A12.68,12.68,0,0,0,70,313.27v3.87a12.68,12.68,0,0,0,5.74,9.94l53.14,30.68a12.69,12.69,0,0,0,11.48,0l56.38-32.59a12.68,12.68,0,0,0,5.74-9.94v-3.86a12.69,12.69,0,0,0-5.74-9.95L143.6,270.74a12.69,12.69,0,0,0-11.47,0Z" transform="translate(-31.26 -191.218)" fill="#545454"/>
          <path id="Tracé_1711" data-name="Tracé 1711" d="M134.63,342v17.13a11.77,11.77,0,0,1-5.74-1.38L75.75,327.08A12.68,12.68,0,0,1,70,317.14v-3.86a12.82,12.82,0,0,1,5.15-9.57c-2.57,1.84-2.37,4.54.59,6.25l53.14,30.68a11.69,11.69,0,0,0,5.75,1.36Z" transform="translate(-31.26 -191.218)" fill="#232323"/>
          <path id="Tracé_1712" data-name="Tracé 1712" d="M140.37,340.64l56.38-32.59c3.17-1.83,3.17-4.8,0-6.63l-53.14-30.68a12.69,12.69,0,0,0-11.48,0L75.75,303.33c-3.17,1.83-3.17,4.8,0,6.63l53.14,30.68a12.69,12.69,0,0,0,11.48,0Z" transform="translate(-31.26 -191.218)" fill="#606060"/>
          <g id="Cushion" transform="translate(26.949 49.461)">
            <path id="Tracé_1713" data-name="Tracé 1713" d="M102.29,240.7c-3.68-.36-6.72,3.88-12.85,6.87C78,253.16,72.88,258.24,67.57,264.43s-7.33,5.15-9,9,2.87,5.52,5,11c3.61,9.23,8.1,15.44,12.77,19.28,8.24,6.8,7,11.53,10.74,11.48,4,0,3.7-3.47,10-5.91,14.86-5.77,21-10.91,27.83-21.07,2.68-4,6.1-3.64,6.74-7.47.33-1.92-2.46-2.95-5-9-4.18-10-10.86-19.37-17.36-24.24C106.51,245.42,106,241.08,102.29,240.7Z" transform="translate(-58.209 -240.678)" fill="#66b3e3"/>
            <path id="Tracé_1714" data-name="Tracé 1714" d="M102.29,240.7c-3.68-.36-6.72,3.88-12.85,6.87C78,253.16,72.88,258.24,67.57,264.43s-7.33,5.15-9,9,2.87,5.52,5,11c3.61,9.23,8.1,15.44,12.77,19.28,8.24,6.8,7,11.53,10.74,11.48,4,0,3.7-3.47,10-5.91,14.86-5.77,21-10.91,27.83-21.07,2.68-4,6.1-3.64,6.74-7.47.33-1.92-2.46-2.95-5-9-4.18-10-10.86-19.37-17.36-24.24C106.51,245.42,106,241.08,102.29,240.7Z" transform="translate(-58.209 -240.678)" opacity="0.3"/>
            <path id="Tracé_1715" data-name="Tracé 1715" d="M62.66,279.88c3.14,4.45,2.72,8.89,9.18,17.07C78,304.8,82.52,307,84.38,310.53c1.55,2.93,3.66,4.3,4.16.87s-2.19-13.22-8.44-21.6c-7.19-9.66-11.78-13.36-14.89-14.77C60.34,272.8,60.19,276.38,62.66,279.88Z" transform="translate(-58.209 -240.678)" opacity="0.2"/>
            <path id="Tracé_1716" data-name="Tracé 1716" d="M97.36,305.51c-4.1,1.42-4.27,5.05-6.33,7.86a16.27,16.27,0,0,1,6.08-4.08,71.078,71.078,0,0,0,15.75-8C107.62,304,100.34,304.49,97.36,305.51ZM123,286.68c-2.54,2.34-2.29,6.5-5.34,10.52a58.572,58.572,0,0,0,7.25-9c2.45-3.63,5.5-3.67,6.51-6.57C129.2,284.5,126.09,283.86,123,286.68Z" transform="translate(-58.209 -240.678)" opacity="0.2"/>
          </g>
          <path id="Tracé_1717" data-name="Tracé 1717" d="M117.43,381.12V345.29a12.73,12.73,0,0,0-5.74-9.94l-58.88-34-4.51-38.3a15.23,15.23,0,0,0-6.62-9.89L37,250.47c-3.16-1.82-5.74-.33-5.74,3.32v77.58A12.75,12.75,0,0,0,37,341.32l74.68,43.11C114.85,386.26,117.43,384.76,117.43,381.12Z" transform="translate(-31.26 -191.218)" fill="#232323"/>
          <path id="Tracé_1718" data-name="Tracé 1718" d="M130.57,337.7v35.83a2.3,2.3,0,0,1,0,.37,12.83,12.83,0,0,1-5.67,9.54h-.06l-1.65,1a2.188,2.188,0,0,1-.43.22,1.341,1.341,0,0,1-.24.12h-.07a3.783,3.783,0,0,1-.46.17,13.27,13.27,0,0,1-8.45.24c-.34-.11-.67-.23-1-.37,2.75,1.14,4.89-.41,4.9-3.71V345.3a12.73,12.73,0,0,0-5.74-9.95l-10.42-6-48.46-28,7.4-4.28a12.75,12.75,0,0,1,11.48,0l42.73,24.67,10.4,6a12.73,12.73,0,0,1,5.74,9.96Z" transform="translate(-31.26 -191.218)" fill="#606060"/>
          <path id="Tracé_1719" data-name="Tracé 1719" d="M117.43,345.3v35.83c0,3.3-2.15,4.85-4.9,3.71a9.83,9.83,0,0,0,1,.37A13.27,13.27,0,0,0,122,385a3.778,3.778,0,0,0,.46-.17h.07a1.336,1.336,0,0,0,.24-.12,2.192,2.192,0,0,0,.43-.22l1.65-1h.06a12.83,12.83,0,0,0,5.67-9.54,2.3,2.3,0,0,0,0-.37V337.7a11.71,11.71,0,0,0-1.69-5.65l-13.13,7.59a11.73,11.73,0,0,1,1.67,5.66Z" transform="translate(-31.26 -191.218)" fill="#545454"/>
        </g>
        <g id="Character-2" data-name="Character" transform="translate(71.426)">
          <g id="Bottom" transform="translate(0.548 105.89)">
            <path id="Tracé_1720" data-name="Tracé 1720" d="M188,373.13l-1.31-16.4H206.5s-1,11.48-1.31,18.15a9.73,9.73,0,0,0,1.85,5.26s-7.34,4.25-11.31,2.84-6.85-7.43-6.81-8.56Z" transform="translate(-103.235 -279.11)" fill="#ffa8a7"/>
            <path id="Tracé_1721" data-name="Tracé 1721" d="M229.75,397.73c.26,0,.5,2.45-.95,3.67a19.07,19.07,0,0,1-13.49,3.34c-6.47-.83-10-2.79-12.56-4.92s-6.21-5.13-9.14-5.77a21,21,0,0,1-7.27-3.58c-.87-.82-.73-4.49-.73-4.49Z" transform="translate(-103.235 -279.11)" fill="#232323"/>
            <path id="Tracé_1722" data-name="Tracé 1722" d="M187.76,371.67s-.34.18-.51,1c-.21,1-.43,4-.86,5.62a29.271,29.271,0,0,0-.67,8.92c.36,1.88,5.52,4.14,8.35,5.2a35.939,35.939,0,0,1,9.17,5.69c3,2.47,9.43,5,13.65,5,5,0,10.62-1.63,11.92-3.9,1.6-2.81,2.77-6.08-4.63-9.45-1.39-.64-6.31-3.5-8-4.53-4.53-2.81-7.71-5.38-9.79-10.35a2.79,2.79,0,0,0-1.06-1.52,2.42,2.42,0,0,0-1.44-.12c-1.23.17-6.16.83-7.28,1.36s-2.41,1-2.39,2.26a4.371,4.371,0,0,0,.27,1.27c.09.25.16.59-.07.74s-.5,0-.69-.19a18.72,18.72,0,0,1-2-2.35,21.4,21.4,0,0,0-1.9-2.13,12.275,12.275,0,0,1-1.26-.8,2.85,2.85,0,0,1-.81-1.72Z" transform="translate(-103.235 -279.11)" fill="#606060"/>
            <path id="Tracé_1723" data-name="Tracé 1723" d="M203.24,398.13c-1.29-1-2.66-2.05-4-2.95h0s8.69,5.19,12.22,2.83c2.27-1.52,1.2-3.36,1.14-3.95s8-4.76,10.17-5h0a14.994,14.994,0,0,0,1.45.75c5.77,2.27,6.53,5.2,5.56,8.88-1.29,2.27-6.32,4.62-12.77,4.62C212.76,403.28,206.27,400.6,203.24,398.13Z" transform="translate(-103.235 -279.11)" fill="#545454"/>
            <path id="Tracé_1724" data-name="Tracé 1724" d="M212,392.33c4.6,1.8,2.63,2.65,1.34,2.83s-9-4.26-13.74-7.93c-4.92-3.83-8.75-9-10.58-10.38-.68-.52-1.41-1.17-2.06-1.77.12-1,.22-1.9.32-2.38a4.22,4.22,0,0,1,.58-1.44,6.12,6.12,0,0,0,.76,2.16,12.269,12.269,0,0,0,1.26.8,21.388,21.388,0,0,1,1.9,2.13,18.721,18.721,0,0,0,2,2.35C197.75,383.71,207.37,390.52,212,392.33Z" transform="translate(-103.235 -279.11)" fill="#545454"/>
            <path id="Tracé_1725" data-name="Tracé 1725" d="M213,394.5a.44.44,0,0,1-.29-.11.43.43,0,0,1-.06-.63c1.3-1.56,7.47-5.27,10.86-4.9a.44.44,0,0,1,.4.49.45.45,0,0,1-.5.4c-3.17-.34-9,3.34-10.06,4.58a.46.46,0,0,1-.35.17Z" transform="translate(-103.235 -279.11)" fill="#232323"/>
            <path id="Tracé_1726" data-name="Tracé 1726" d="M209,392.07a.43.43,0,0,1-.29-.1.44.44,0,0,1-.06-.63c1.3-1.56,7.47-5.27,10.86-4.91a.45.45,0,1,1-.1.89c-3.17-.33-9,3.35-10.06,4.58a.46.46,0,0,1-.35.17Z" transform="translate(-103.235 -279.11)" fill="#232323"/>
            <path id="Tracé_1727" data-name="Tracé 1727" d="M205,389.77a.42.42,0,0,1-.28-.1.45.45,0,0,1-.07-.63c1.31-1.56,7.48-5.27,10.87-4.9a.443.443,0,1,1-.1.88c-3.17-.33-9,3.35-10.06,4.59a.45.45,0,0,1-.36.16Z" transform="translate(-103.235 -279.11)" fill="#232323"/>
            <path id="Tracé_1728" data-name="Tracé 1728" d="M201.25,387.15a.53.53,0,0,1-.29-.1.45.45,0,0,1-.06-.63c1.3-1.57,7.49-5.27,10.86-4.91a.45.45,0,1,1-.1.89c-3.16-.33-9,3.34-10.06,4.58A.46.46,0,0,1,201.25,387.15Z" transform="translate(-103.235 -279.11)" fill="#232323"/>
            <path id="Tracé_1729" data-name="Tracé 1729" d="M197.61,384.52a.42.42,0,0,1-.28-.1.43.43,0,0,1-.07-.62c1.79-2.22,8.25-5.32,11.63-4.95a.45.45,0,0,1,.41.49.48.48,0,0,1-.51.4c-3-.33-9.23,2.65-10.82,4.61a.48.48,0,0,1-.36.17Z" transform="translate(-103.235 -279.11)" fill="#232323"/>
            <path id="Tracé_1730" data-name="Tracé 1730" d="M156.43,391.66l-2.14-15.31,19-2.58s-.39,12.15-.11,17.71c.13,2.62,2.14,7.5,2.14,7.5S168,403.1,164,401.63s-6.72-7.54-6.66-8.66Z" transform="translate(-103.235 -279.11)" fill="#ffa8a7"/>
            <path id="Tracé_1731" data-name="Tracé 1731" d="M197.79,416.94c.26,0,.46,2.45-1,3.65a19.11,19.11,0,0,1-13.54,3.12c-6.46-.93-9.93-3-12.48-5.13s-6.12-5.23-9-5.91a20.891,20.891,0,0,1-7.21-3.7c-.86-.84-.66-4.51-.66-4.51Z" transform="translate(-103.235 -279.11)" fill="#232323"/>
            <path id="Tracé_1732" data-name="Tracé 1732" d="M156.24,390.2s-.35.17-.54,1c-.21,1-.49,3.95-.95,5.6a29.161,29.161,0,0,0-.81,8.91c.32,1.88,5.45,4.23,8.26,5.34a35.779,35.779,0,0,1,9.07,5.84c3,2.51,9.35,5.18,13.57,5.22,5,0,10.65-1.45,12-3.71,1.65-2.78,2.87-6-4.46-9.52-1.39-.66-6.26-3.6-7.92-4.67-4.48-2.88-7.63-5.5-9.62-10.5a2.79,2.79,0,0,0-1-1.54,2.39,2.39,0,0,0-1.43-.15c-1.24.15-6.17.74-7.31,1.25s-2.42,1-2.42,2.21a4.28,4.28,0,0,0,.25,1.28c.09.26.15.6-.08.74a.571.571,0,0,1-.69-.2,19.452,19.452,0,0,1-1.95-2.38,21.364,21.364,0,0,0-1.86-2.16A11.007,11.007,0,0,1,157,392,2.82,2.82,0,0,1,156.24,390.2Z" transform="translate(-103.235 -279.11)" fill="#606060"/>
            <path id="Tracé_1733" data-name="Tracé 1733" d="M171.27,416.91a41.29,41.29,0,0,0-4-3h0s8.61,5.33,12.17,3c2.3-1.48,1.26-3.34,1.21-3.94s8-4.62,10.25-4.84h0c.61.34,1.11.63,1.44.77,5.73,2.36,6.45,5.3,5.41,9-1.33,2.26-6.39,4.52-12.84,4.42C180.71,422.21,174.27,419.42,171.27,416.91Z" transform="translate(-103.235 -279.11)" fill="#545454"/>
            <path id="Tracé_1734" data-name="Tracé 1734" d="M180.1,411.25c4.57,1.88,2.59,2.69,1.3,2.85s-9-4.41-13.62-8.16c-4.85-3.91-8.59-9.11-10.4-10.55a24.251,24.251,0,0,1-2-1.8c.14-1,.25-1.9.35-2.37.19-.85.54-1,.54-1A5.34,5.34,0,0,0,157,392a11,11,0,0,0,1.26.83,21.363,21.363,0,0,1,1.86,2.16,19.454,19.454,0,0,0,1.95,2.38C166,402.4,175.53,409.36,180.1,411.25Z" transform="translate(-103.235 -279.11)" fill="#545454"/>
            <path id="Tracé_1735" data-name="Tracé 1735" d="M181.08,413.43a.48.48,0,0,1-.29-.11.44.44,0,0,1,0-.63c1.33-1.54,7.56-5.14,10.94-4.72a.45.45,0,0,1,.4.49.44.44,0,0,1-.51.39c-3.16-.38-9.08,3.2-10.13,4.42a.46.46,0,0,1-.41.16Z" transform="translate(-103.235 -279.11)" fill="#232323"/>
            <path id="Tracé_1736" data-name="Tracé 1736" d="M177.11,410.94a.43.43,0,0,1-.28-.11.44.44,0,0,1-.06-.63c1.33-1.54,7.56-5.14,10.94-4.72a.444.444,0,1,1-.11.88c-3.16-.38-9.08,3.2-10.13,4.42a.46.46,0,0,1-.36.16Z" transform="translate(-103.235 -279.11)" fill="#232323"/>
            <path id="Tracé_1737" data-name="Tracé 1737" d="M173.14,408.57a.46.46,0,0,1-.29-.1.44.44,0,0,1,0-.63c1.33-1.54,7.56-5.15,10.94-4.73a.45.45,0,1,1-.11.89c-3.16-.39-9.08,3.19-10.14,4.42a.44.44,0,0,1-.4.15Z" transform="translate(-103.235 -279.11)" fill="#232323"/>
            <path id="Tracé_1738" data-name="Tracé 1738" d="M169.47,405.89a.48.48,0,0,1-.29-.11.44.44,0,0,1-.05-.63c1.33-1.54,7.57-5.14,10.94-4.72a.443.443,0,1,1-.11.88c-3.16-.38-9.08,3.2-10.14,4.42A.44.44,0,0,1,169.47,405.89Z" transform="translate(-103.235 -279.11)" fill="#232323"/>
            <path id="Tracé_1739" data-name="Tracé 1739" d="M165.87,403.2a.42.42,0,0,1-.28-.1.45.45,0,0,1-.06-.63c1.83-2.18,8.34-5.17,11.72-4.75a.44.44,0,0,1,.39.49.45.45,0,0,1-.51.39c-3-.37-9.27,2.5-10.9,4.44a.42.42,0,0,1-.36.16Z" transform="translate(-103.235 -279.11)" fill="#232323"/>
            <path id="Tracé_1740" data-name="Tracé 1740" d="M209.06,322c.45-7.88.07-12.57-8.75-18.35-10.74-7.05-32.87-19.94-40.83-24.54l-20.78,1.67-35.3,4.64c-.68,12.93.24,26,12.47,34.91,10.41,7.55,23.58,14.58,34.83,20.91a80,80,0,0,0,.19,19.26,212,212,0,0,0,3.88,22.8,33.32,33.32,0,0,0,18.85.34s1.64-22.18,1.95-28.68c.71-15,1.31-21.69.52-26.4-.57-3.4-1.67-5.17-5.85-9l13.65,7.49c-.44,5.26-.38,9.6.77,18.55,1.41,11.05,2.49,19.89,2.49,19.89,4.24,2.67,12.61,3.69,19-.38C206.19,365.16,207.8,344.36,209.06,322Z" transform="translate(-103.235 -279.11)" fill="#00002f"/>
            <path id="Tracé_1741" data-name="Tracé 1741" d="M189,333c.1-1.44.26-2.65.4-3.72.39-2.87.62-4.6-1.26-5.9-2.23-1.55-22.57-13.08-28.64-16.42l-1.79-1.62s4.62-7,3.76-15A20.87,20.87,0,0,1,152,305.4s8.51,6.49,18.21,14.2l13.65,7.49-11.42-8.34L161.77,309c7.89,4.4,24,13.56,26,14.93,1.52,1.06,1.34,2.45,1,5.22-.15,1.08-.31,2.31-.41,3.78-.44,6.85,1.19,27.33,1.74,33.92l.73.23C190.25,360.86,188.57,339.91,189,333Z" transform="translate(-103.235 -279.11)" fill="#01011c"/>
            <path id="Tracé_1742" data-name="Tracé 1742" d="M186.42,361.82c3.53,3.51,13.94,5.06,20.27.23l-.51,5.81s-2.6,2.9-9.94,2.86S187,367.4,187,367.4Z" transform="translate(-103.235 -279.11)" fill="#00002f"/>
            <path id="Tracé_1743" data-name="Tracé 1743" d="M156.56,346.93c.07-1.38.15-2.57.22-3.59.34-4.78.44-6.22-2.32-7.72-4.11-2.21-22.16-12.83-30.44-19.92-7.28-6.22-8.34-12.46-8.48-31.85l-.7.1c.15,19.57,1.24,25.89,8.72,32.28,8.33,7.13,26.44,17.79,30.56,20,2.37,1.28,2.3,2.27,2,7.05-.07,1-.15,2.22-.22,3.61-.38,7.29,1.33,26.86,2.77,37.37l.73.12C157.91,374,156.18,354.25,156.56,346.93Z" transform="translate(-103.235 -279.11)" fill="#01011c"/>
            <path id="Tracé_1744" data-name="Tracé 1744" d="M153.84,380c3.53,3.52,13.94,5.07,20.27.23L173.6,386s-2.6,2.9-9.94,2.86-9.21-3.32-9.21-3.32Z" transform="translate(-103.235 -279.11)" fill="#00002f"/>
          </g>
          <g id="Top">
            <path id="Tracé_1745" data-name="Tracé 1745" d="M161.47,221.82c7.08.75,10.92,1.86,15.66,8.36s22.14,35.6,22.14,35.6l-15.38,10-17.89-27Z" transform="translate(-102.686 -173.22)" fill="#f28f8f"/>
            <path id="Tracé_1746" data-name="Tracé 1746" d="M161.47,221.46c5.61.72,8.06,1.19,11,3.56s11.42,13.35,11.42,13.35c-4.6,6.65-11.38,9.66-18.18,11.18l-4.24-4.38Z" transform="translate(-102.686 -173.22)" fill="#f0f0f0"/>
            <path id="Chest" d="M160.32,218.11c-4.2-1.73-8.13-3.07-13.57-2.24-6.66,1-17.69,5.74-25.53,9.92s-8.86,7.43-14.06,28c-2.59,10.26-4.57,30.08-4.47,40.24,4.44,4.56,11.08,7.35,25.28,6.35,18.42-1.3,33-12.88,33.63-20.29-.44-3.37-2.33-12.78.18-20.91,2.92-9.42,4.5-14.83,5.28-21.62C167.74,231.59,167.11,220.9,160.32,218.11Z" transform="translate(-102.686 -173.22)" fill="#f0f0f0"/>
            <g id="Head" transform="translate(28.54)">
              <path id="Tracé_1747" data-name="Tracé 1747" d="M136.81,213.64c.37-4.3-2.61-9.67-3.52-13.74s-1.23-6.89-.18-10.09c.62-1.9,2.51-4.19,4.09-4.37a9.26,9.26,0,0,1,9.49-9.46,30,30,0,0,0,4.24-.07c1.72-.24,2.39-1.4,3.92-2.14,2.64-1.26,6.28-.36,6.94,2.77,1.91-1.48,3.85-.93,6,.23a4,4,0,0,1,1.81,5.11,3.48,3.48,0,0,1,3-.18,4.5,4.5,0,0,1,2.32,2c.54,1,.28,2.5,1.67,2.82a1.72,1.72,0,0,0,1.57-.45,3.59,3.59,0,0,1-3.94,2.91,4.8,4.8,0,0,1,1.58,3.4,2.79,2.79,0,0,1-2.26,2.72,2.51,2.51,0,0,1-.23,2.61,2.9,2.9,0,0,1-2.91.74,6.12,6.12,0,0,1-4.55,4.11c-3.42.65-6.91.25-10.36.07l-4.1-.2c-.23,0-1.43-.25-1.62-.09Z" transform="translate(-131.226 -173.22)" fill="#040419"/>
              <path id="Tracé_1748" data-name="Tracé 1748" d="M133.21,207a4.11,4.11,0,0,0,4.89,1.13l-3.24,11.69c1.3,7.62,10.48,16.21,15.73,18.25,1.16-3.08,1.12-10.53.87-14l.83-2.16a40.224,40.224,0,0,0,5,1.06c3.35.4,6.46-1.58,8.29-4.84a37.5,37.5,0,0,0,4-13.76,12.55,12.55,0,0,1,.71-3.43,16.38,16.38,0,0,0,.89-7.54c-2.8-3.79-10.77-6.91-19.65-4.25-.3,4.8-3,7.95-6.78,8.82-.17,1.27-.83,4.42-2.84,3.84-1.44-.42-1.07-2.28-2.14-4.28s-4.46-3.35-6.43-1.32A8.13,8.13,0,0,0,133.21,207Z" transform="translate(-131.226 -173.22)" fill="#ffa8a7"/>
              <path id="Tracé_1749" data-name="Tracé 1749" d="M157.24,223a7.4,7.4,0,0,0,4.26-.95,9.45,9.45,0,0,0,3.19-3,21.41,21.41,0,0,0,2-3.94,43.882,43.882,0,0,0,2.35-8.55c.12-.73.2-1.46.27-2.2a13.25,13.25,0,0,1,.37-2.24c.18-.74.49-1.44.72-2.13a13.409,13.409,0,0,0,.54-2.14,25.381,25.381,0,0,0,.21-4.45,22.34,22.34,0,0,1,.06,4.48,13.793,13.793,0,0,1-.47,2.21c-.22.73-.5,1.41-.65,2.13a17.579,17.579,0,0,0-.3,2.18c-.06.75-.14,1.5-.25,2.24a41.451,41.451,0,0,1-.93,4.4,39.61,39.61,0,0,1-1.46,4.26,18.869,18.869,0,0,1-2.1,4,9.77,9.77,0,0,1-3.41,2.95,7.29,7.29,0,0,1-4.4.75Z" transform="translate(-131.226 -173.22)" fill="#f28f8f"/>
              <path id="Tracé_1750" data-name="Tracé 1750" d="M163.94,209.39l-5.15.76.71-10.43C161.28,201.06,162.83,205.05,163.94,209.39Z" transform="translate(-131.226 -173.22)" fill="#f28f8f"/>
              <path id="Tracé_1751" data-name="Tracé 1751" d="M156,212.9a2.619,2.619,0,0,0-.2-.56,2.51,2.51,0,0,0-1.73-1.29,1.94,1.94,0,0,0-1.71.39.49.49,0,0,0,.15.85,4.69,4.69,0,0,1,1.89,1.56c.23.32.81,1,1.27.69a1.57,1.57,0,0,0,.33-1.64Z" transform="translate(-131.226 -173.22)" fill="#b16668"/>
              <path id="Tracé_1752" data-name="Tracé 1752" d="M153.23,211a1.5,1.5,0,0,0-.88.4.49.49,0,0,0,.15.85,4.69,4.69,0,0,1,1.89,1.56c.06.08.14.19.24.3a2.209,2.209,0,0,0,0-.37A3.32,3.32,0,0,0,153.23,211Z" transform="translate(-131.226 -173.22)" fill="#f28f8f"/>
              <path id="Tracé_1753" data-name="Tracé 1753" d="M152.29,221.94c-5-1.94-8.71-3.51-10.41-7.92a33,33,0,0,1-1.51-6.87,25.809,25.809,0,0,0,.21,8.18c.67,2.71,3,6,10.88,8.77Z" transform="translate(-131.226 -173.22)" fill="#f28f8f"/>
              <path id="Tracé_1754" data-name="Tracé 1754" d="M155.05,203.43a2.83,2.83,0,0,1-.75.23,3.171,3.171,0,0,1-.87,0,3.8,3.8,0,0,1-.81-.25,2.739,2.739,0,0,1-.42-.21,1.22,1.22,0,0,1-.31-.29c0-.06-.08.07-.07.1a2.09,2.09,0,0,0,1.53,1,2,2,0,0,0,1,0,1.37,1.37,0,0,0,.7-.58S155.08,203.43,155.05,203.43Z" transform="translate(-131.226 -173.22)" fill="#f28f8f"/>
              <path id="Tracé_1755" data-name="Tracé 1755" d="M166.68,205.21a.76.76,0,0,1-.21,0h-.21a2.2,2.2,0,0,1-.37.07,2.349,2.349,0,0,1-.79-.06,3.54,3.54,0,0,1-.87-.33,8.006,8.006,0,0,1-.65-.5s-.06,0-.05.07a2.22,2.22,0,0,0,1.61,1.16,2.669,2.669,0,0,0,.89.05.74.74,0,0,0,.66-.47S166.72,205.19,166.68,205.21Z" transform="translate(-131.226 -173.22)" fill="#f28f8f"/>
              <path id="Tracé_1756" data-name="Tracé 1756" d="M158.88,194.66a1.14,1.14,0,0,0-.58-.43,1.569,1.569,0,0,0-.37,0,.62.62,0,0,0-.19,0,.13.13,0,0,0-.12.08.15.15,0,0,0,0,.13.28.28,0,0,0,.13,0h.19a1.14,1.14,0,0,1,.3.09l.11.06h0v.05h0a.932.932,0,0,1,.05.1h0a.434.434,0,0,0,0,.05v.14h0v.19l-.1.23a.19.19,0,0,0,0,.08v.23c0,.06.06.19.14.17a.691.691,0,0,0,.17-.1.36.36,0,0,0,.14-.1l.08-.08.08-.16a.881.881,0,0,0,0-.15A1,1,0,0,0,158.88,194.66Z" transform="translate(-131.226 -173.22)" fill="#f28f8f"/>
              <path id="Tracé_1757" data-name="Tracé 1757" d="M164.84,195.46a1.12,1.12,0,0,1,.68.26,1.32,1.32,0,0,1,.24.29.91.91,0,0,1,.09.17.14.14,0,0,1,0,.15.15.15,0,0,1-.13,0c-.05,0-.07-.05-.1-.09a.86.86,0,0,1-.13-.14,2.29,2.29,0,0,0-.23-.21h-.53v.05l-.09.1-.14.2-.06.06h-.05l-.12.12c-.06,0-.2.06-.22,0a.67.67,0,0,1,0-.2.42.42,0,0,1,0-.16v-.11a.54.54,0,0,1,.09-.15.64.64,0,0,1,.1-.13,1,1,0,0,1,.6-.21Z" transform="translate(-131.226 -173.22)" fill="#f28f8f"/>
              <path id="Tracé_1758" data-name="Tracé 1758" d="M156.3,200.73c-.16-.81-.85.57-1.87.77s-2-.85-1.79,0a1.91,1.91,0,0,0,3.66-.74Z" transform="translate(-131.226 -173.22)" fill="#01011c"/>
              <path id="Tracé_1759" data-name="Tracé 1759" d="M166.77,203.53c.37-.74-1,0-1.78-.46s-.89-1.8-1.26-1.06a1.71,1.71,0,0,0,3,1.52Z" transform="translate(-131.226 -173.22)" fill="#01011c"/>
              <path id="Tracé_1760" data-name="Tracé 1760" d="M165.18,197l2.4,2.75a1.75,1.75,0,0,1-2.54-.12A1.89,1.89,0,0,1,165.18,197Z" transform="translate(-131.226 -173.22)" fill="#01011c"/>
              <path id="Tracé_1761" data-name="Tracé 1761" d="M157,195.32l-3.44,1.38a1.78,1.78,0,0,0,2.35,1.06A1.94,1.94,0,0,0,157,195.32Z" transform="translate(-131.226 -173.22)" fill="#263238"/>
            </g>
            <g id="Tablet" transform="translate(72.871 75.865)">
              <path id="Tracé_1762" data-name="Tracé 1762" d="M203.72,250.28h0l-1.31-1h0a1.4,1.4,0,0,0-1.29-.07l-14.42,4.86a5,5,0,0,0-2.87,3l-8.13,28.62a1.29,1.29,0,0,0,.26,1.43h0l1.35,1h0a1.38,1.38,0,0,0,1.3.08L193,283.4a5,5,0,0,0,2.88-3c1.6-5.62,6.53-23,8.13-28.63a1.24,1.24,0,0,0-.29-1.49Z" transform="translate(-175.557 -249.085)" fill="#455a64"/>
              <path id="Tracé_1763" data-name="Tracé 1763" d="M186.61,256a4.87,4.87,0,0,0-1.45,2.16L177,286.74a1.33,1.33,0,0,0,.21,1.4l-1.27-1h0a1.25,1.25,0,0,1-.27-1.42l8.13-28.63a4.74,4.74,0,0,1,1.33-2Z" transform="translate(-175.557 -249.085)" fill="#455a64"/>
              <path id="Tracé_1764" data-name="Tracé 1764" d="M177,286.74l8.13-28.63a5,5,0,0,1,2.88-3l14.41-4.87c1.24-.41,2,.27,1.6,1.52-1.6,5.63-6.54,23-8.13,28.63a5,5,0,0,1-2.88,3l-14.42,4.86C177.39,288.67,176.68,288,177,286.74Z" transform="translate(-175.557 -249.085)" fill="#263238"/>
              <path id="Tracé_1765" data-name="Tracé 1765" d="M185.51,264l1.52-5.36a.93.93,0,0,1,.54-.56l2.49-.84c.23-.07.37.05.3.29l-1.52,5.36a1,1,0,0,1-.54.56l-2.49.83C185.58,264.36,185.45,264.23,185.51,264Z" transform="translate(-175.557 -249.085)" fill="#455a64"/>
              <path id="Tracé_1766" data-name="Tracé 1766" d="M187.23,259.89a2.35,2.35,0,0,1,1.37-1.39c.6-.2,1,.1.79.67a2.35,2.35,0,0,1-1.37,1.39C187.42,260.76,187.07,260.46,187.23,259.89Z" transform="translate(-175.557 -249.085)" fill="#263238"/>
              <path id="Tracé_1767" data-name="Tracé 1767" d="M186.5,262.59a2.32,2.32,0,0,1,1.37-1.39c.6-.2.95.1.79.67a2.37,2.37,0,0,1-1.38,1.39C186.69,263.46,186.33,263.16,186.5,262.59Z" transform="translate(-175.557 -249.085)" fill="#263238"/>
              <path id="Tracé_1768" data-name="Tracé 1768" d="M202.07,267.9c1.38-1.88,1.26-2.13.54-3.11a6,6,0,0,0-4.83-2.54,12.187,12.187,0,0,0-4.22.41c-.86.41-.16,2.25,2,2.76,3.41.81,3.38,1.74,3.38,1.74a43.8,43.8,0,0,0-4.41-.83,32.784,32.784,0,0,0-5,.7c-1.45.21-1.76,2.07.69,2.74l-2.66.39c-1.85.28-2.49,1.26-1,2.42a2.69,2.69,0,0,0,1.67.65s-2,0-2,.63c-.13,1.88,1.08,2.39,5.05,3.59,3.79,1.15,4.55,3.21,3.78,4.61,0,0,1.54-.87,2.91-1.8,1-.68,1.87-1.44,1.44-3,0,0,2.17.07,2.32-1.27a6.94,6.94,0,0,0-.49-2.89,2.36,2.36,0,0,0,1.22-2.21,3.88,3.88,0,0,0-.76-2.37Z" transform="translate(-175.557 -249.085)" fill="#ffa8a7"/>
              <path id="Tracé_1769" data-name="Tracé 1769" d="M190.2,269.77a12.517,12.517,0,0,1,2.4-.23,7.729,7.729,0,0,1,2.32.77,27.2,27.2,0,0,1,4.16,2.29,29.1,29.1,0,0,1-4.44-1.65,12.83,12.83,0,0,0-2.12-.87C191.81,270,191,269.93,190.2,269.77Z" transform="translate(-175.557 -249.085)" fill="#f28f8f"/>
              <path id="Tracé_1770" data-name="Tracé 1770" d="M188.16,273.23a5.31,5.31,0,0,1,2.6-.05,14.471,14.471,0,0,1,2.46.81,24.62,24.62,0,0,1,4.5,2.48,50.532,50.532,0,0,1-4.77-1.83,13.44,13.44,0,0,0-4.79-1.41Z" transform="translate(-175.557 -249.085)" fill="#f28f8f"/>
            </g>
            <path id="Tracé_1771" data-name="Tracé 1771" d="M135.63,277.1l-6.83-28.75s-4.47-15.19-11.56-20.26c-7.37,2.82-7.33,5.25-8.82,10.15-1.92,6.34-1.15,12.1,2.57,27.43,3.16,13,6.29,21.13,8.68,25.76,3,5.73,8.24,5.72,17.32,4.37s14.69-2.75,27.18-5.67c6-1.41,9.06-3.06,14-5.11a19.2,19.2,0,0,0,5.19-3,11.22,11.22,0,0,0,3.38-4.26,3.269,3.269,0,0,1,.44-.9,5.871,5.871,0,0,1,.7-.71,6.511,6.511,0,0,0,1.29-1.38,9.331,9.331,0,0,0,.7-1.87,9,9,0,0,1,.31-.87,5.311,5.311,0,0,1,.52-.81,6.92,6.92,0,0,0,1.33-2.1,1.28,1.28,0,0,0-.25-1.24s.78-.74,1-1a7.362,7.362,0,0,0,.93-1.23.73.73,0,0,0,.13-.58.71.71,0,0,0-.22-.27c-1.5-1.18-3.3-.46-4.8.3-3.91,1.95-6,4-10.08,5.53-2.24.83-2.81,1-3.65.82-1.17-.58,2.64-4.9,2.65-8.21,0-1.64-1.66-3.48-2.78-1.5-2.33,4.17-4.59,5.41-6.4,7.83s-3.59,4-7.75,5.83C156.37,277.37,135.63,277.1,135.63,277.1Z" transform="translate(-102.686 -173.22)" fill="#ffa8a7"/>
            <path id="Tracé_1772" data-name="Tracé 1772" d="M135.63,277.1a49.738,49.738,0,0,0-10.27.18s2.37-2.14,9.84-1.8Z" transform="translate(-102.686 -173.22)" fill="#f28f8f"/>
            <path id="Tracé_1773" data-name="Tracé 1773" d="M191.65,268.12a31.584,31.584,0,0,1-2.43,2.19c-.83.71-1.68,1.39-2.51,2.08-.42.34-.83.71-1.27,1s-.89.64-1.35.93c-.93.59-1.87,1.15-2.84,1.65l1.33-1,1.33-.94c.43-.33.87-.65,1.29-1s.82-.7,1.25-1.05q1.26-1,2.58-2Z" transform="translate(-102.686 -173.22)" fill="#f28f8f"/>
            <path id="Tracé_1774" data-name="Tracé 1774" d="M190.19,271.92a13.3,13.3,0,0,1-1.59,2c-.58.6-1.2,1.17-1.83,1.73a22.888,22.888,0,0,1-2,1.59,18.132,18.132,0,0,1-2.09,1.4c.64-.54,1.26-1.1,1.89-1.65l1.88-1.65,1.89-1.65C189,273.13,189.61,272.52,190.19,271.92Z" transform="translate(-102.686 -173.22)" fill="#f28f8f"/>
            <path id="Tracé_1775" data-name="Tracé 1775" d="M117.32,227.87c-5.18,2.07-8,4.28-9.92,9s-1.46,7-1.46,17.38c10.6,1,15.81.71,24-1.84l-1.14-5.11C127.45,239.86,123.31,231.7,117.32,227.87Z" transform="translate(-102.686 -173.22)" fill="#f0f0f0"/>
          </g>
        </g>
        <path id="Tracé_1776" data-name="Tracé 1776" d="M137.54,184.31s27.6,4.94,37.68,5.72a4.27,4.27,0,0,1,.35,2.22,11.254,11.254,0,0,1-5.24,8s-37.69-4.92-37.88-6.09a10.85,10.85,0,0,1,1.29-5.47,22.3,22.3,0,0,1,3.8-4.38Z" transform="translate(-31.26 -173.22)" fill="#fff" stroke="#222221" stroke-miterlimit="10" stroke-width="0.25"/>
        <path id="Tracé_1777" data-name="Tracé 1777" d="M135.07,186.75s22.81,6,40.32,6.37" transform="translate(-31.26 -173.22)" fill="none" stroke="#222221" stroke-miterlimit="10" stroke-width="0.25"/>
        <path id="Tracé_1778" data-name="Tracé 1778" d="M133,190.21s23.35,6,40.85,6.39" transform="translate(-31.26 -173.22)" fill="none" stroke="#222221" stroke-miterlimit="10" stroke-width="0.25"/>
      </g>
      <g id="Plant" transform="translate(415.479 291.973)">
        <g id="Pot" transform="translate(8.389 33.87)">
          <path id="Tracé_1779" data-name="Tracé 1779" d="M476,386.42H430.87l4.66,19.42h0c.35,2.34,2.08,4.63,5.18,6.42,7,4,18.38,4,25.38,0,3.34-1.93,5.07-4.43,5.23-7Z" transform="translate(-428.363 -364.513)" fill="#545454"/>
          <path id="Tracé_1780" data-name="Tracé 1780" d="M470.45,399.73a18.364,18.364,0,0,0,2.7-1.89l2.54-10.37a18.331,18.331,0,0,1-4.56,3.62c-9.51,5.49-24.75,5.63-34.58.45l1.15-4.63-.35-.48h-6.47l4.65,19.41h0c.35,2.34,2.08,4.63,5.18,6.42,5,2.88,12.19,3.7,18.46,2.47-11.23.84-18.94-4.07-20.09-8.6-.46-1.8-1.27-5.8-1.27-5.8C447.2,405.09,461.49,404.9,470.45,399.73Z" transform="translate(-428.363 -364.513)" fill="#232323"/>
          <path id="Tracé_1781" data-name="Tracé 1781" d="M478.29,380.68a9.25,9.25,0,0,1-1.51,3.5,16.57,16.57,0,0,1-5.65,5c-9.78,5.64-25.65,5.64-35.43,0a16.52,16.52,0,0,1-5.66-5,9.72,9.72,0,0,1-1.5-3.5h0c-.88-4.24,1.52-8.67,7.16-11.93,9.78-5.65,25.65-5.65,35.43,0C476.77,372,479.16,376.44,478.29,380.68Z" transform="translate(-428.363 -364.513)" fill="#606060"/>
          <path id="Tracé_1782" data-name="Tracé 1782" d="M476.78,384.18a16.57,16.57,0,0,1-5.65,5c-9.78,5.64-25.65,5.64-35.43,0a16.52,16.52,0,0,1-5.66-5,9.72,9.72,0,0,1-1.5-3.5h0l1.11,7.64c.51,3.07,2.8,6.07,6.88,8.42,9.33,5.38,24.44,5.38,33.76,0,4-2.32,6.32-5.28,6.87-8.31v-.39l1.08-7.36a9.25,9.25,0,0,1-1.46,3.5Z" transform="translate(-428.363 -364.513)" fill="#545454"/>
          <path id="Tracé_1783" data-name="Tracé 1783" d="M468.18,370.45c-8.16-4.71-21.38-4.71-29.53,0-4.61,2.67-6.61,6.27-6,9.74.47,2.67,2.47,5.27,6,7.31,8.15,4.71,21.37,4.71,29.53,0,3.53-2,5.54-4.64,6-7.3C474.79,376.72,472.79,373.12,468.18,370.45Z" transform="translate(-428.363 -364.513)" fill="#263238"/>
          <path id="Tracé_1784" data-name="Tracé 1784" d="M434,383.42a13.92,13.92,0,0,0,4.63,4.08c8.15,4.71,21.37,4.71,29.53,0a14.13,14.13,0,0,0,4.63-4.08c-.06-2.82-1.95-5.62-5.68-7.78-7.57-4.37-19.86-4.37-27.43,0C436,377.8,434.08,380.6,434,383.42Z" transform="translate(-428.363 -364.513)" fill="#fafafa"/>
        </g>
        <path id="Tracé_1785" data-name="Tracé 1785" d="M455,374.66c-3.74-1-4.38-9.13-2.28-17.7,2-8.33,8.58-20.83,10-20.56s3.12,13.86,2.15,22.83C463.62,370.1,458.72,375.67,455,374.66Z" transform="translate(-419.974 -330.643)" fill="#07b5e7"/>
        <path id="Tracé_1786" data-name="Tracé 1786" d="M455,374.66c-3.74-1-4.38-9.13-2.28-17.7,2-8.33,8.58-20.83,10-20.56s3.12,13.86,2.15,22.83C463.62,370.1,458.72,375.67,455,374.66Z" transform="translate(-419.974 -330.643)" opacity="0.3"/>
        <path id="Tracé_1787" data-name="Tracé 1787" d="M456.8,348.42c.67,1.06,1.08,2.85,2.66,2.86,1.26,0,1.92-1.33,3.06-1.64a3.1,3.1,0,0,1,2.52.76,6.842,6.842,0,0,0-.05-1,3.73,3.73,0,0,0-2.17-.76,3.11,3.11,0,0,0-1.81.82c-.59.45-1.3,1.13-2.11.8s-1.17-1.52-1.64-2.28a2.88,2.88,0,0,0-1-1c-.11.23-.21.46-.31.69a2,2,0,0,1,.85.75Zm4.44-3.35a5.52,5.52,0,0,0,1.27-1.19,1.83,1.83,0,0,1,1.93-.38h.07a8.081,8.081,0,0,0-.11-.86l-.36-.08a2.13,2.13,0,0,0-1.57.34c-.51.37-.8,1-1.35,1.33-1,.59-1.75-.48-2.05-1.28-.13-.36-.23-.73-.35-1.09l-.3.57c.07.26.13.52.21.76C459,344.29,460,345.67,461.24,345.07Zm-.12,10.84a9.521,9.521,0,0,1-2.05,1.34c-1.93.55-2.37-2.43-3.6-3.31a2.54,2.54,0,0,0-1.76-.46c-.07.23-.15.46-.22.68a2.49,2.49,0,0,1,1,0,2.65,2.65,0,0,1,1.69,1.5c.62,1.11,1.4,2.69,2.95,2.39a5,5,0,0,0,1.79-1,3.22,3.22,0,0,1,2.61-.71,3.44,3.44,0,0,1,1.47.79v-.89a3.719,3.719,0,0,0-1.79-.79,3.29,3.29,0,0,0-2.09.46Zm1.18,6.55a3.78,3.78,0,0,0-2.56.33c-.89.44-1.54,1.31-2.48,1.66-2,.77-2.35-2.18-3.85-2.91a3.08,3.08,0,0,0-1.54-.3,5.363,5.363,0,0,1-.1.7,2.41,2.41,0,0,1,.6,0,2.75,2.75,0,0,1,2.1,1.63c.72,1.34,1.67,2.44,3.32,1.63.88-.43,1.52-1.23,2.43-1.62a2.88,2.88,0,0,1,3,.28,4.477,4.477,0,0,1,.57.7c.08-.29.15-.59.22-.89a3.29,3.29,0,0,0-1.71-1.21Z" transform="translate(-419.974 -330.643)" fill="#07b5e7" opacity="0.5"/>
        <path id="Tracé_1788" data-name="Tracé 1788" d="M455,374.66c3.75,1,8.65-4.56,9.84-15.43a64.709,64.709,0,0,0,.21-9.32c-3.06,2.52-6.13,7.65-6.13,7.65a84.429,84.429,0,0,0-3.64-8.2,57.145,57.145,0,0,0-2.56,7.6C450.59,365.53,451.23,373.64,455,374.66Z" transform="translate(-419.974 -330.643)" opacity="0.1"/>
        <path id="Tracé_1789" data-name="Tracé 1789" d="M451.92,379.16c-4.93,3.16-9.53-8.09-12-16.58s-.85-30.7,1.64-31.91c1.75-.86,11.06,19,12.89,28.72C455.8,366.39,455.84,376.64,451.92,379.16Z" transform="translate(-419.974 -330.643)" fill="#07b5e7"/>
        <path id="Tracé_1790" data-name="Tracé 1790" d="M451.92,379.16c-4.93,3.16-9.53-8.09-12-16.58s-.85-30.7,1.64-31.91c1.75-.86,11.06,19,12.89,28.72C455.8,366.39,455.84,376.64,451.92,379.16Z" transform="translate(-419.974 -330.643)" opacity="0.1"/>
        <path id="Tracé_1791" data-name="Tracé 1791" d="M441.28,346.35c1.55.76,2.78.76,4-.54s2-2.75,3.7-2.55l-.51-1.16a2.74,2.74,0,0,0-.85.09c-1.53.4-2.22,2-3.29,3-1.65,1.55-3.42-.49-5.29-.37h-.17a6.571,6.571,0,0,1-.05,1A4.81,4.81,0,0,1,441.28,346.35Zm13.55,15.27a5.379,5.379,0,0,0-.81-.23,3,3,0,0,0-2.33.53c-1.49,1.09-1.56,3.52-4,2.89-1.83-.49-3.21-1.69-5.14-.73a6.851,6.851,0,0,0-1.77,1.33c.1.29.19.57.28.85a5.49,5.49,0,0,1,2.4-1.49c2.08-.53,3.65,1.57,5.71,1.22,1.69-.28,1.87-2.13,3-3a2.63,2.63,0,0,1,2.73-.17A5.828,5.828,0,0,0,454.83,361.62Zm-13.46-23.33c.58.79,1.39,1.67,2.46,1.12s1.23-2,2-2.88l-.4-.77c-.71,1-1.07,3-2.44,3-1.07-.06-1.49-1.64-2.38-2.1a1.54,1.54,0,0,0-.89-.17,5.123,5.123,0,0,1-.1.65h.21C440.54,337.11,441,337.74,441.37,338.29Zm3.71,16.85c1.95.42,2.9-1.9,3.78-3.18a5.75,5.75,0,0,1,2.7-2.29c-.13-.35-.26-.7-.4-1a3.39,3.39,0,0,0-1,.37,6.57,6.57,0,0,0-2.11,2.15,8.8,8.8,0,0,1-2,2.64c-1.05.67-2.27-.38-3.34-.58a5.49,5.49,0,0,0-3.92.68c0,.48.05,1,.08,1.43a4.53,4.53,0,0,1,3.16-1.06C443.18,354.28,444,354.91,445.08,355.14Z" transform="translate(-419.974 -330.643)" fill="#07b5e7"/>
        <path id="Tracé_1792" data-name="Tracé 1792" d="M451.89,350.57a27.619,27.619,0,0,0-4,6.54s-5.35-7.26-9.11-10.55c-.2,6,.1,12.32,1.16,16,2.45,8.49,7.05,19.74,12,16.58,3.92-2.52,3.88-12.77,2.55-19.77a60.419,60.419,0,0,0-2.6-8.8Z" transform="translate(-419.974 -330.643)" opacity="0.1"/>
        <path id="Tracé_1793" data-name="Tracé 1793" d="M451.58,384.94c-9,.49-17.44-5-22.9-11.85s-9.73-21.09-8.49-22,15.77,8.09,21.23,14.56A58.215,58.215,0,0,1,451.58,384.94Z" transform="translate(-419.974 -330.643)" fill="#07b5e7"/>
        <path id="Tracé_1794" data-name="Tracé 1794" d="M451.58,384.94c-9,.49-17.44-5-22.9-11.85s-9.73-21.09-8.49-22,15.77,8.09,21.23,14.56A58.215,58.215,0,0,1,451.58,384.94Z" transform="translate(-419.974 -330.643)" opacity="0.2"/>
        <path id="Tracé_1795" data-name="Tracé 1795" d="M431.91,362.37c.53-.85.23-1.87.11-2.79a2.56,2.56,0,0,1,.36-1.75l-1-.72a3.62,3.62,0,0,0-.37,2.44c.15,1,.4,2.34-1,2.53s-3.62-1.15-4.83.35c-.59.73-.37,1.66-.39,2.51a2.519,2.519,0,0,1-.32,1.1c.16.34.33.68.5,1a3.151,3.151,0,0,0,.67-1.53c.13-1-.28-2.4,1.13-2.63a12.93,12.93,0,0,1,2.89.37A2.31,2.31,0,0,0,431.91,362.37Zm-5-7.53a1.829,1.829,0,0,1,.4-.43l-.81-.49c-.67.87-.66,2.06-1.33,2.93a1.55,1.55,0,0,1-1.71.48,2.92,2.92,0,0,0-1.87.06,3.437,3.437,0,0,0-.38.22l.21.65a2.06,2.06,0,0,1,.94-.26c.68,0,1.32.34,2,.29a1.75,1.75,0,0,0,1.19-.61c.72-.81.75-1.94,1.33-2.84Zm10,12.08a4.4,4.4,0,0,0,1.36-2.32,15.1,15.1,0,0,0,.24-1.91c-.28-.25-.56-.51-.86-.76a9.091,9.091,0,0,1-.63,3.12,2.81,2.81,0,0,1-2.8,1.47,2.92,2.92,0,0,0-2.41.76,4.51,4.51,0,0,0-.9,2.42c-.18,1.26-.38,2.42-1.54,3.13a4.315,4.315,0,0,1-.62.29c.21.27.43.52.65.78a3.6,3.6,0,0,0,1.29-1c1.51-1.79.29-5.34,3.49-5.34a3.92,3.92,0,0,0,2.69-.64Zm4.84.91a4.57,4.57,0,0,1,.68-.95c-.26-.32-.51-.65-.78-1a6,6,0,0,0-1.45,2.84,8.33,8.33,0,0,1-1.17,3.36c-.78,1-2,.9-3.07,1.48a4.31,4.31,0,0,0-1.92,2.24,10.923,10.923,0,0,0-.48,2.27,12.026,12.026,0,0,0,1,.79v-.14a5.59,5.59,0,0,1,1.35-3.52c.95-.9,2.26-.77,3.28-1.49,1.88-1.33,1.54-3.97,2.52-5.88Zm3.91,3.75a5.884,5.884,0,0,0-.73.68c-1.54,1.69-1.35,3.88-1.91,5.95a3.63,3.63,0,0,1-1.92,2.57c-.86.36-1.83,0-2.58.69l-.07.08c.44.26.89.5,1.35.73a3.137,3.137,0,0,1,.75-.09,3.36,3.36,0,0,0,1.4-.34,4,4,0,0,0,1.72-1.87c.93-1.94.51-4.29,1.68-6.13a5.11,5.11,0,0,1,1-1.13Z" transform="translate(-419.974 -330.643)" fill="#07b5e7"/>
        <path id="Tracé_1796" data-name="Tracé 1796" d="M431.28,357.05c.85,7.46,4.83,27.54,20.3,27.89,0,0-3-10.77-10.16-19.25a56.359,56.359,0,0,0-10.14-8.64Z" transform="translate(-419.974 -330.643)" opacity="0.2"/>
        <path id="Tracé_1797" data-name="Tracé 1797" d="M451.58,384.94c-7.09-1-13.17-5.52-16.3-18.87s-3.6-19.39-1.45-20.71c2.47-1.53,12.15,11.93,15.26,17.85C456.91,378.09,451.58,384.94,451.58,384.94Z" transform="translate(-419.974 -330.643)" fill="#07b5e7"/>
        <path id="Tracé_1798" data-name="Tracé 1798" d="M438.43,360.27c1.76.55,4.07,1.14,5.39-.6a17,17,0,0,0,1.28-2.91c-.31-.46-.63-.91-1-1.37-.78,1.26-.76,3.12-2.13,3.84a4.34,4.34,0,0,1-3.28-.13,7.76,7.76,0,0,0-3.26-.49,4.66,4.66,0,0,0-1.7.6c.08.39.17.81.25,1.21a6.518,6.518,0,0,1,.71-.33,5.45,5.45,0,0,1,3.74.18Zm-2.1-6.91a2.88,2.88,0,0,0,1.65.31c1.08-.22,1.64-1.26,2.19-2.11a5.218,5.218,0,0,1,.54-.7l-.66-.8-.14.14c-.67.81-1.23,2.46-2.48,2.49a8.13,8.13,0,0,1-1.77-.52,4.141,4.141,0,0,0-1.53,0,3.66,3.66,0,0,0-1.41.54,4.632,4.632,0,0,0,.12,1,4.11,4.11,0,0,1,1.9-.59,3.76,3.76,0,0,1,1.59.24Zm7.74,14.83a10.211,10.211,0,0,1,2.17-2.83,4.78,4.78,0,0,1,3.61-.64c-.24-.49-.49-1-.76-1.51a6,6,0,0,0-2.45.16,5.16,5.16,0,0,0-2.7,2,14.859,14.859,0,0,1-1.82,2.61c-1.44,1.32-3.39.17-5-.15a5.672,5.672,0,0,0-1.42-.11c.13.46.26.92.39,1.36a6.3,6.3,0,0,1,1.86.29c2.41.73,4.51,1.17,6.12-1.18Zm8.17,2.6a2.421,2.421,0,0,0-.36.1,5.42,5.42,0,0,0-2.4,1.8c-.69.89-1.05,2-1.7,2.87a2.23,2.23,0,0,1-2.82.95,4.79,4.79,0,0,0-3.12-.23,5,5,0,0,0-2,1.23c.24.36.48.69.73,1a4.3,4.3,0,0,1,1.53-.89,3.4,3.4,0,0,1,2.44.31,3.83,3.83,0,0,0,5-1.53c.6-.89,1-1.94,1.64-2.78a3.869,3.869,0,0,1,1.46-1.12,15.816,15.816,0,0,0-.4-1.71Z" transform="translate(-419.974 -330.643)" fill="#fff" opacity="0.2"/>
        <path id="Tracé_1799" data-name="Tracé 1799" d="M449.09,363.21c-.56-1.07-1.34-2.39-2.25-3.82-3.07,9.48-4.06,23.31,4.74,25.55C451.58,384.94,456.91,378.09,449.09,363.21Z" transform="translate(-419.974 -330.643)" opacity="0.15"/>
        <path id="Tracé_1800" data-name="Tracé 1800" d="M455.24,384.94c9,.49,17.44-5,22.91-11.85s9.72-21.09,8.49-22-15.78,8.09-21.24,14.56A58.215,58.215,0,0,0,455.24,384.94Z" transform="translate(-419.974 -330.643)" fill="#07b5e7"/>
        <path id="Tracé_1801" data-name="Tracé 1801" d="M455.24,384.94c9,.49,17.44-5,22.91-11.85s9.72-21.09,8.49-22-15.78,8.09-21.24,14.56A58.215,58.215,0,0,0,455.24,384.94Z" transform="translate(-419.974 -330.643)" opacity="0.2"/>
        <path id="Tracé_1802" data-name="Tracé 1802" d="M477.17,363.27a12.862,12.862,0,0,1,2.89-.37c1.41.23,1,1.58,1.13,2.63a3.15,3.15,0,0,0,.67,1.53l.5-1a2.411,2.411,0,0,1-.33-1.1c0-.85.21-1.78-.38-2.51-1.22-1.5-3.31-.14-4.83-.35s-1.14-1.49-1-2.53a3.68,3.68,0,0,0-.37-2.44l-1,.72a2.57,2.57,0,0,1,.37,1.75c-.12.92-.42,1.94.11,2.79A2.31,2.31,0,0,0,477.17,363.27Zm4.13-5.59a1.75,1.75,0,0,0,1.19.61c.69,0,1.32-.31,2-.29a2.09,2.09,0,0,1,.94.26l.21-.65c-.12-.08-.25-.15-.38-.22a3,3,0,0,0-1.88-.06,1.54,1.54,0,0,1-1.7-.48c-.67-.87-.67-2.06-1.33-2.93l-.81.49a1.829,1.829,0,0,1,.4.43c.58.9.62,2.03,1.36,2.84Zm-8.61,9.92c3.2,0,2,3.55,3.49,5.34a3.52,3.52,0,0,0,1.29,1c.22-.26.44-.51.65-.78a3.869,3.869,0,0,1-.62-.29c-1.17-.71-1.36-1.87-1.54-3.13a4.59,4.59,0,0,0-.9-2.42,2.93,2.93,0,0,0-2.41-.76,2.83,2.83,0,0,1-2.81-1.47,9.579,9.579,0,0,1-.63-3.12l-.85.76a15.1,15.1,0,0,0,.23,1.91,4.49,4.49,0,0,0,1.37,2.32,3.92,3.92,0,0,0,2.73.64Zm-5,6.14c1,.72,2.33.59,3.28,1.49a5.882,5.882,0,0,1,1.35,3.52.588.588,0,0,1,0,.14c.33-.26.64-.52,1-.79a10.916,10.916,0,0,0-.48-2.27,4.33,4.33,0,0,0-1.93-2.24c-1-.58-2.28-.48-3.06-1.48a8.5,8.5,0,0,1-1.18-3.36,5.88,5.88,0,0,0-1.44-2.84c-.27.32-.53.65-.78,1a4.19,4.19,0,0,1,.67.95c.97,1.88.63,4.52,2.58,5.88Zm-7.16-1a5.11,5.11,0,0,1,1,1.13c1.16,1.84.75,4.19,1.68,6.13a4,4,0,0,0,1.71,1.87,3.441,3.441,0,0,0,1.41.34,3.138,3.138,0,0,1,.75.09c.45-.23.9-.47,1.35-.73l-.07-.08c-.75-.68-1.72-.33-2.58-.69a3.63,3.63,0,0,1-1.92-2.57c-.56-2.07-.37-4.26-1.91-5.95a5.877,5.877,0,0,0-.73-.68Z" transform="translate(-419.974 -330.643)" fill="#07b5e7"/>
        <path id="Tracé_1803" data-name="Tracé 1803" d="M475.54,357.05c-.84,7.46-4.83,27.54-20.3,27.89,0,0,3-10.77,10.16-19.25a57.073,57.073,0,0,1,10.14-8.64Z" transform="translate(-419.974 -330.643)" opacity="0.2"/>
        <path id="Tracé_1804" data-name="Tracé 1804" d="M455.24,384.94c7.1-1,13.18-5.52,16.31-18.87s3.6-19.39,1.45-20.71c-2.48-1.53-12.15,11.93-15.26,17.85C449.92,378.09,455.24,384.94,455.24,384.94Z" transform="translate(-419.974 -330.643)" fill="#07b5e7"/>
        <path id="Tracé_1805" data-name="Tracé 1805" d="M472.09,360.09a6.518,6.518,0,0,1,.71.33c.08-.4.17-.82.24-1.21a4.55,4.55,0,0,0-1.69-.6,7.71,7.71,0,0,0-3.26.49,4.34,4.34,0,0,1-3.28.13c-1.37-.72-1.35-2.58-2.13-3.84-.32.46-.64.91-.95,1.37a17,17,0,0,0,1.28,2.91c1.32,1.74,3.62,1.15,5.39.6a5.45,5.45,0,0,1,3.69-.18Zm0-7a4.15,4.15,0,0,1,1.9.59c0-.33.09-.65.12-1a3.65,3.65,0,0,0-1.42-.54,4.09,4.09,0,0,0-1.52,0,8.3,8.3,0,0,1-1.77.52c-1.25,0-1.81-1.68-2.49-2.49l-.13-.14-.67.8a4.578,4.578,0,0,1,.55.7c.55.85,1.11,1.89,2.19,2.11a2.85,2.85,0,0,0,1.64-.31,3.84,3.84,0,0,1,1.6-.28Zm-3.22,16.3a6.41,6.41,0,0,1,1.87-.29c.13-.44.26-.9.38-1.36a5.6,5.6,0,0,0-1.41.11c-1.61.32-3.56,1.47-5,.15a15.36,15.36,0,0,1-1.81-2.61,5.19,5.19,0,0,0-2.71-2,6,6,0,0,0-2.44-.16c-.27.52-.52,1-.76,1.51a4.79,4.79,0,0,1,3.61.64,10.209,10.209,0,0,1,2.17,2.83c1.6,2.33,3.7,1.89,6.1,1.14Zm-14.73,3.17a4,4,0,0,1,1.46,1.12c.68.84,1,1.89,1.64,2.78a3.83,3.83,0,0,0,5,1.53,3.4,3.4,0,0,1,2.44-.31,4.18,4.18,0,0,1,1.52.89c.25-.33.5-.66.74-1a5,5,0,0,0-2-1.23,4.79,4.79,0,0,0-3.12.23,2.23,2.23,0,0,1-2.82-.95c-.65-.9-1-2-1.7-2.87a5.42,5.42,0,0,0-2.4-1.8,2.423,2.423,0,0,0-.36-.1c-.13.54-.27,1.15-.4,1.67Z" transform="translate(-419.974 -330.643)" fill="#fff" opacity="0.2"/>
        <path id="Tracé_1806" data-name="Tracé 1806" d="M457.74,363.21c.56-1.07,1.34-2.39,2.25-3.82,3.07,9.48,4.05,23.31-4.75,25.55C455.24,384.94,449.92,378.09,457.74,363.21Z" transform="translate(-419.974 -330.643)" opacity="0.15"/>
        <path id="Tracé_1807" data-name="Tracé 1807" d="M453.41,386.41c6,0,8-8.13,7.37-14.68s-4.73-19-7.37-19-6.77,12.47-7.37,19S447.43,386.41,453.41,386.41Z" transform="translate(-419.974 -330.643)" fill="#07b5e7"/>
        <path id="Tracé_1808" data-name="Tracé 1808" d="M453.41,386.41c6,0,8-8.13,7.37-14.68s-4.73-19-7.37-19-6.77,12.47-7.37,19S447.43,386.41,453.41,386.41Z" transform="translate(-419.974 -330.643)" fill="#fff" opacity="0.3"/>
        <path id="Tracé_1809" data-name="Tracé 1809" d="M453.38,361.24a4.92,4.92,0,0,0,2.23-1.6,3.789,3.789,0,0,1,1.84-.95c-.15-.39-.31-.77-.46-1.13a5.57,5.57,0,0,0-2.53,1.55,3.529,3.529,0,0,1-1.25.94c-.72.25-1.16-.14-1.63-.62a4,4,0,0,0-2-1.17h-.06c-.13.31-.25.62-.37.94a3.75,3.75,0,0,1,2.08,1.18,2.25,2.25,0,0,0,2.15.86Zm-4.46,7.17c2,1.57,3.64-.65,4.91-2,1.06-1.1,2.19-1.32,3.4-.31a7.69,7.69,0,0,0,2.28,1.65,2.94,2.94,0,0,0,.68.17c-.07-.37-.16-.75-.24-1.13a6.64,6.64,0,0,1-2.43-1.62c-1.78-1.46-3.38-.84-4.79.77-.81.94-2.13,2.54-3.47,1.54-.79-.59-1.16-1.59-2-2.16h0c-.09.33-.17.66-.25,1C447.78,366.83,448.17,367.83,448.92,368.41Zm2.23,7.17c1.13,1.5,2.54,1.87,4.07.58a28.438,28.438,0,0,1,2-2.06c1.13-.77,2.44-.37,3.61.09v-1.07a8.84,8.84,0,0,0-1.66-.51,3.36,3.36,0,0,0-2.58.52c-.84.6-1.36,1.54-2.18,2.17a2,2,0,0,1-1.73.55c-.68-.25-1.09-1.11-1.59-1.61a4.88,4.88,0,0,0-2.31-1.32,4.22,4.22,0,0,0-2.86.28v1a4.22,4.22,0,0,1,5.23,1.38Zm5.67,6.09a4.68,4.68,0,0,1-3.37,1,2.63,2.63,0,0,1-1.7-.75c-.33-.34-.57-.75-.91-1.09a4,4,0,0,0-2.25-1.12,4.419,4.419,0,0,0-1.88.16c.11.37.22.73.35,1.08a3.12,3.12,0,0,1,3,.41c.72.53,1.06,1.4,1.82,1.9a4.26,4.26,0,0,0,2.33.61,5.36,5.36,0,0,0,2.48-.62c.86-.45,1.47-1.23,2.31-1.71a3.549,3.549,0,0,1,.69-.31c.16-.44.31-.89.44-1.36a4.262,4.262,0,0,0-.83.18,8.481,8.481,0,0,0-2.48,1.62Z" transform="translate(-419.974 -330.643)" fill="#fff" opacity="0.2"/>
      </g>
    </g>
  </g>
</svg>
