<svg xmlns="http://www.w3.org/2000/svg" width="483.191" height="718.802" viewBox="0 0 483.191 718.802">
  <g id="Groupe_253" data-name="Groupe 253" transform="translate(-1340.491 -2435)">
    <text id="_3" data-name="3" transform="translate(1340.491 2975)" fill="#09a4f4" font-size="500" font-family="SegoeUI, Segoe UI" opacity="0.09"><tspan x="0" y="0">3</tspan></text>
    <g id="_3-2" data-name="3" transform="translate(1406.334 2723)">
      <path id="Floor" d="M67.541,256.811c-77.554,37.22-77.545,97.619,0,134.863s203.273,37.22,280.855,0,77.545-97.619,0-134.863S145.085,219.575,67.541,256.811Z" transform="translate(10.779 11.203)" fill="#fafafa"/>
      <g id="Window" transform="translate(284.695 -18.17)">
        <path id="Tracé_1837" data-name="Tracé 1837" d="M418.111,151.655c0-31.922-21.026-69.937-46.96-84.944-13.727-7.928-26.081-7.8-34.67-1.2C325.806,69.983,319,82.253,319,100.447V299.7l93.91,54.217,5.243-3.01Z" transform="translate(-319 -60.655)" fill="#e6e6e6"/>
        <path id="Tracé_1838" data-name="Tracé 1838" d="M412.889,353.785V154.535c0-31.922-20.974-69.947-46.95-84.944S319,68.385,319,100.307v199.25Z" transform="translate(-319 -60.516)" fill="#f5f5f5"/>
        <path id="Tracé_1839" data-name="Tracé 1839" d="M407.523,154.294V344.641L323.88,296.349V100.077c0-15.961,5.61-26.962,15.049-30.412a19.411,19.411,0,0,1,6.848-1.185c5.338,0,11.179,1.8,17.356,5.369C387.609,87.965,407.523,124.05,407.523,154.294Z" transform="translate(-318.762 -60.275)" fill="#e0e0e0"/>
        <path id="Tracé_1840" data-name="Tracé 1840" d="M323.88,285.912l5.3-3.052,78.347,45.23V334.2Z" transform="translate(-318.762 -49.837)" fill="#ebebeb"/>
        <path id="Tracé_1841" data-name="Tracé 1841" d="M407.277,154.295V338.538l-78.347-45.23V97.005c0-12.679,3.555-22.232,9.763-27.36a19.411,19.411,0,0,1,6.848-1.185c5.338,0,11.179,1.8,17.356,5.369C387.363,87.966,407.277,124.051,407.277,154.295Z" transform="translate(-318.517 -60.276)" fill="#fff"/>
        <path id="Tracé_1842" data-name="Tracé 1842" d="M366.438,321.816l-5.128-2.968V71.82h5.128Z" transform="translate(-316.94 -60.112)" fill="#f5f5f5"/>
        <path id="Tracé_1843" data-name="Tracé 1843" d="M371.349,80.85V318.618l-5.139,2.957V76.76C367.951,78.06,369.66,79.371,371.349,80.85Z" transform="translate(-316.702 -59.871)" fill="#e0e0e0"/>
        <path id="Tracé_1844" data-name="Tracé 1844" d="M323.88,237.78l39.252,22.662v6.019L323.88,243.81Z" transform="translate(-318.762 -52.032)" fill="#f5f5f5"/>
        <path id="Tracé_1845" data-name="Tracé 1845" d="M329.176,234.86l-5.3,3.062,39.252,22.662v-6.03Z" transform="translate(-318.762 -52.174)" fill="#ebebeb"/>
        <path id="Tracé_1846" data-name="Tracé 1846" d="M366.2,262.21l39.263,22.662-.01,6.03L366.2,268.24Z" transform="translate(-316.702 -50.843)" fill="#f5f5f5"/>
        <path id="Tracé_1847" data-name="Tracé 1847" d="M371.506,259.3l-5.306,3.052,39.263,22.662v-6.019Z" transform="translate(-316.702 -50.984)" fill="#ebebeb"/>
        <path id="Tracé_1848" data-name="Tracé 1848" d="M323.88,109.51l39.252,22.662v6.03L323.88,115.54Z" transform="translate(-318.762 -58.277)" fill="#f5f5f5"/>
        <path id="Tracé_1849" data-name="Tracé 1849" d="M329.176,106.6l-5.3,3.052,39.252,22.662v-6.019Z" transform="translate(-318.762 -58.419)" fill="#ebebeb"/>
        <path id="Tracé_1850" data-name="Tracé 1850" d="M366.2,133.95l39.263,22.662-.01,6.019L366.2,139.98Z" transform="translate(-316.702 -57.087)" fill="#f5f5f5"/>
        <path id="Tracé_1851" data-name="Tracé 1851" d="M371.506,131.03l-5.306,3.062,39.263,22.662v-6.03Z" transform="translate(-316.702 -57.229)" fill="#ebebeb"/>
      </g>
      <path id="Shadow" d="M171.2,272.3c-9.826,5.673-9.826,14.87,0,20.544s25.756,5.673,35.582,0,9.826-14.87,0-20.544S181.028,266.624,171.2,272.3Z" transform="translate(-1.859 -48.728)" fill="#e0e0e0"/>
      <path id="Shadow-2" data-name="Shadow" d="M122.671,435.859l-84.4-48.732c-1.51-.881-1.51-2.3,0-3.146l110.322-63.55a6,6,0,0,1,5.474,0l84.409,48.722c1.51.881,1.51,2.3,0,3.146l-110.332,63.55a6,6,0,0,1-5.474.01Z" transform="translate(-8.027 -46.21)" fill="#e0e0e0"/>
      <g id="Lamp" transform="translate(160.76 4.766)">
        <path id="Tracé_1852" data-name="Tracé 1852" d="M208.8,278.2h0c0-2.957-1.94-5.925-5.862-8.18-7.823-4.52-20.523-4.52-28.315,0-3.912,2.255-5.852,5.243-5.852,8.18h0v2.769h0c.052,2.926,2.013,5.841,5.873,8.075,7.834,4.52,20.533,4.52,28.314,0,3.87-2.234,5.831-5.149,5.873-8.075h0Z" transform="translate(-162.379 -53.563)" fill="#ebebeb"/>
        <path id="Tracé_1853" data-name="Tracé 1853" d="M174.573,270.017c-7.834,4.52-7.834,11.85,0,16.37s20.533,4.52,28.314,0,7.834-11.85,0-16.37S182.406,265.5,174.573,270.017Z" transform="translate(-162.382 -53.563)" fill="#f5f5f5"/>
        <path id="Tracé_1854" data-name="Tracé 1854" d="M190.081,116H185.76V284.241h0a1.049,1.049,0,0,0,.619.986,3.4,3.4,0,0,0,3.052,0,1.049,1.049,0,0,0,.608-.986h0Z" transform="translate(-161.552 -60.897)" fill="#e0e0e0"/>
        <path id="Tracé_1855" data-name="Tracé 1855" d="M214.884,106.963h0L205.246,71.15H172.737l-9.512,35.813h0c-1.741,4.73.65,9.858,7.173,13.528,10.3,5.81,27.014,5.81,37.323,0C214.234,116.82,216.614,111.692,214.884,106.963Z" transform="translate(-162.675 -63.08)" fill="#ebebeb"/>
        <path id="Tracé_1856" data-name="Tracé 1856" d="M177.021,79.17c6.386,3.6,16.779,3.6,23.071,0s6.386-9.438,0-13.025-16.779-3.587-23.071,0S170.645,75.562,177.021,79.17Z" transform="translate(-162.208 -63.455)" fill="#f5f5f5"/>
        <path id="Tracé_1857" data-name="Tracé 1857" d="M188.453,79.505a20.775,20.775,0,0,1-10-2.318c-2.339-1.311-3.628-2.957-3.628-4.635s1.29-3.314,3.628-4.625a22.777,22.777,0,0,1,20.019,0c2.339,1.311,3.618,2.957,3.618,4.625s-1.279,3.324-3.618,4.635a20.785,20.785,0,0,1-10.015,2.318Z" transform="translate(-162.084 -63.35)" fill="#e0e0e0"/>
      </g>
      <g id="Character" transform="translate(140.42 74.288)">
        <g id="Bottom" transform="translate(50.747 111.151)">
          <path id="Tracé_1858" data-name="Tracé 1858" d="M249.35,391.585c.378,4.195,1.122,6.963,2.685,9.386s4.373,2.957,7.236,2.3a10.833,10.833,0,0,0,7.792-6.722c.965-2.8.461-6.135-.3-10.015Z" transform="translate(-188.863 -228.399)" fill="#232323"/>
          <path id="Tracé_1859" data-name="Tracé 1859" d="M260.451,361.77c1.185.063,1.7,5.694,2.559,11.326.912,6.04,2.873,9.365,3.6,13.434,1.049,5.642.7,8.2-1.174,11.693s-9.438,7.341-13.119,2.485c-2.947-3.912-3.209-8.389-3.146-14.031a144.13,144.13,0,0,0-.189-14.44c-.357-4.195-.776-8.389.231-8.851.094.619.2,1.405.294,2.013s.273,2.769.933,2.769a8.993,8.993,0,0,0,0-1.594,1.919,1.919,0,0,1,.283-1.384,2.244,2.244,0,0,1,1.279-.629,32.786,32.786,0,0,1,3.482-.64,16.426,16.426,0,0,1,1.751-.136,9.439,9.439,0,0,1,2.171,0,1.049,1.049,0,0,1,.65.556,1.909,1.909,0,0,1,.084.65,4.8,4.8,0,0,0,.178,1.154c.052.168.178.367.346.325s.178-.21.178-.346c0-.692-.126-1.185-.178-1.982,0-.367-.1-.87-.115-1.237S260.493,362.137,260.451,361.77Z" transform="translate(-188.9 -229.604)" fill="#606060"/>
          <path id="Tracé_1860" data-name="Tracé 1860" d="M261.748,386.867a.412.412,0,1,1-.818.1.419.419,0,0,1,.357-.461.409.409,0,0,1,.461.357Z" transform="translate(-188.299 -228.4)" opacity="0.15"/>
          <path id="Tracé_1861" data-name="Tracé 1861" d="M261.258,383.136a.409.409,0,1,1-.461-.346.409.409,0,0,1,.461.346Z" transform="translate(-188.323 -228.581)" opacity="0.15"/>
          <path id="Tracé_1862" data-name="Tracé 1862" d="M260.788,379.628a.409.409,0,0,1-.346.461.4.4,0,0,1-.461-.357.409.409,0,1,1,.808-.1Z" transform="translate(-188.346 -228.754)" opacity="0.15"/>
          <path id="Tracé_1863" data-name="Tracé 1863" d="M260.338,376.167a.43.43,0,0,1-.357.461.419.419,0,0,1-.461-.357.412.412,0,1,1,.818-.1Z" transform="translate(-188.368 -228.921)" opacity="0.15"/>
          <path id="Tracé_1864" data-name="Tracé 1864" d="M252.368,377.067a.43.43,0,0,1-.357.461.412.412,0,1,1-.1-.818.419.419,0,0,1,.461.357Z" transform="translate(-188.756 -228.877)" opacity="0.15"/>
          <path id="Tracé_1865" data-name="Tracé 1865" d="M252.828,380.557a.43.43,0,0,1-.357.461.412.412,0,1,1,.357-.461Z" transform="translate(-188.734 -228.707)" opacity="0.15"/>
          <path id="Tracé_1866" data-name="Tracé 1866" d="M253.29,384.066a.4.4,0,0,1-.357.461.407.407,0,1,1,.357-.461Z" transform="translate(-188.713 -228.536)" opacity="0.15"/>
          <path id="Tracé_1867" data-name="Tracé 1867" d="M253.778,387.8a.409.409,0,0,1-.346.461.4.4,0,0,1-.461-.357.409.409,0,1,1,.807-.1Z" transform="translate(-188.687 -228.356)" opacity="0.15"/>
          <path id="Tracé_1868" data-name="Tracé 1868" d="M257.276,390.708l-4.006-27.245,1.521-.073Z" transform="translate(-188.672 -229.525)" opacity="0.15"/>
          <path id="Tracé_1869" data-name="Tracé 1869" d="M261.739,387.13h-.063a14.818,14.818,0,0,0-8.222.923.22.22,0,0,1-.283-.084.21.21,0,0,1,.094-.283,15.081,15.081,0,0,1,8.494-.965.206.206,0,0,1-.021.409Z" transform="translate(-188.678 -228.401)" fill="#232323"/>
          <path id="Tracé_1870" data-name="Tracé 1870" d="M261.249,383.408a.178.178,0,0,1-.1,0c-2.1-.912-6.135-.136-8.18.944a.21.21,0,0,1-.283-.094.2.2,0,0,1,.094-.273c2.1-1.133,6.292-1.93,8.536-.965a.21.21,0,0,1,.1.283.2.2,0,0,1-.168.1Z" transform="translate(-188.702 -228.591)" fill="#232323"/>
          <path id="Tracé_1871" data-name="Tracé 1871" d="M260.789,379.9a.168.168,0,0,1-.1,0c-2.1-.912-6.145-.126-8.18.944a.2.2,0,0,1-.283-.084.21.21,0,0,1,.084-.283c2.1-1.122,6.292-1.919,8.536-.954a.2.2,0,0,1,.115.273.21.21,0,0,1-.168.1Z" transform="translate(-188.724 -228.761)" fill="#232323"/>
          <path id="Tracé_1872" data-name="Tracé 1872" d="M260.329,376.428a.178.178,0,0,1-.1,0c-2.1-.912-6.135-.136-8.18.944a.209.209,0,0,1-.2-.367c2.1-1.133,6.292-1.93,8.547-.965a.22.22,0,0,1,.1.283A.2.2,0,0,1,260.329,376.428Z" transform="translate(-188.747 -228.93)" fill="#232323"/>
          <path id="Tracé_1873" data-name="Tracé 1873" d="M223.434,376.064l-5.034-1.625,1.458-3.419,3.178,2.685Z" transform="translate(-190.37 -229.154)"/>
          <path id="Tracé_1874" data-name="Tracé 1874" d="M229.4,367.09s.346,3.209.44,4.195-4.079,4.373-5.128,4.939l-.4-2.36a18.353,18.353,0,0,0-2.3,3.964c-.766,1.479-1.688,4.268-3.891,6.24-3.261,2.936-8.494,4.593-13.885,5.044s-8.547-.724-10.141-1.814a3.587,3.587,0,0,1-1.825-3.838C192.588,382.1,229.4,367.09,229.4,367.09Z" transform="translate(-191.645 -229.345)" fill="#232323"/>
          <path id="Tracé_1875" data-name="Tracé 1875" d="M214.447,357.357l-.157-1.867c-1.049,0-.986,2.727-2.328,5.17a47.956,47.956,0,0,1-7.131,10.088c-5.243,5.243-9.983,8.62-12.312,10.98-3.146,3.146,2.842,7.666,11.64,6.754,4.363-.451,12.028-3.02,14.084-5.715s3.209-6.785,4.876-8.746,5.317-4.037,6.292-6.366c.535-1.279.084-4.195-.4-6.659-.44-2.265-.671-5.757-1.94-5.411v1.175c-.472,1.049-1.615,2.727-5.107,3.492C220.184,360.639,214.94,361.048,214.447,357.357Z" transform="translate(-191.671 -229.91)" fill="#606060"/>
          <path id="Tracé_1876" data-name="Tracé 1876" d="M218.577,360.344c-1.688-.063-3.534-.535-4.31-2.024h0a4.258,4.258,0,0,1-.965,3.639c-1.489,1.93-10.822,15.405-10.822,15.405s8.757-11.168,10.487-13.276c2.485-3.146,3.3-3.5,5.7-3.7Z" transform="translate(-191.145 -229.772)" opacity="0.15"/>
          <path id="Tracé_1877" data-name="Tracé 1877" d="M215.89,363.669a.535.535,0,1,0,1.049-.178.532.532,0,1,0-1.049.178Z" transform="translate(-190.492 -229.542)" opacity="0.15"/>
          <path id="Tracé_1878" data-name="Tracé 1878" d="M213.54,366.532a.545.545,0,0,0,.619.451.583.583,0,1,0-.608-.451Z" transform="translate(-190.607 -229.406)" opacity="0.15"/>
          <path id="Tracé_1879" data-name="Tracé 1879" d="M211.19,369.392a.545.545,0,0,0,.619.451.583.583,0,1,0-.608-.451Z" transform="translate(-190.721 -229.266)" opacity="0.15"/>
          <path id="Tracé_1880" data-name="Tracé 1880" d="M208.84,372.248a.483.483,0,1,0,.451-.6A.545.545,0,0,0,208.84,372.248Z" transform="translate(-190.835 -229.123)" opacity="0.15"/>
          <path id="Tracé_1881" data-name="Tracé 1881" d="M206.49,375.108a.483.483,0,1,0,.451-.6A.545.545,0,0,0,206.49,375.108Z" transform="translate(-190.95 -228.984)" opacity="0.15"/>
          <path id="Tracé_1882" data-name="Tracé 1882" d="M216.714,363.876a.178.178,0,0,0,.136-.073.21.21,0,0,0,0-.3,8.84,8.84,0,0,0-6.208-2.1h0a.22.22,0,1,0,0,.43,8.631,8.631,0,0,1,5.873,2.014.21.21,0,0,0,.2.031Z" transform="translate(-190.761 -229.623)" fill="#263238"/>
          <path id="Tracé_1883" data-name="Tracé 1883" d="M214.361,366.725a.21.21,0,0,0,.136-.063.22.22,0,0,0,0-.315,8.914,8.914,0,0,0-6.208-2.1h0a.231.231,0,0,0-.189.241.22.22,0,0,0,.241.189,8.631,8.631,0,0,1,5.873,2.013.189.189,0,0,0,.147.031Z" transform="translate(-190.871 -229.484)" fill="#232323"/>
          <path id="Tracé_1884" data-name="Tracé 1884" d="M212.011,369.6a.21.21,0,0,0,.136-.063.22.22,0,0,0,0-.315,8.893,8.893,0,0,0-6.208-2.1h0a.231.231,0,0,0-.189.241.21.21,0,0,0,.241.189,8.631,8.631,0,0,1,5.873,2.013.21.21,0,0,0,.147.031Z" transform="translate(-190.986 -229.344)" fill="#232323"/>
          <path id="Tracé_1885" data-name="Tracé 1885" d="M209.661,372.455a.168.168,0,0,0,.136-.063.231.231,0,0,0,0-.315,8.956,8.956,0,0,0-6.219-2.1h0a.231.231,0,0,0-.189.241.21.21,0,0,0,.241.189,8.631,8.631,0,0,1,5.873,2.013.21.21,0,0,0,.157.031Z" transform="translate(-191.101 -229.205)" fill="#232323"/>
          <path id="Tracé_1886" data-name="Tracé 1886" d="M207.291,375.315a.168.168,0,0,0,.136-.063.22.22,0,0,0,0-.315,8.893,8.893,0,0,0-6.208-2.1h0a.231.231,0,0,0-.189.241.21.21,0,0,0,.241.189,8.631,8.631,0,0,1,5.873,2.013A.178.178,0,0,0,207.291,375.315Z" transform="translate(-191.215 -229.066)" fill="#232323"/>
          <path id="Tracé_1887" data-name="Tracé 1887" d="M259.808,235.74c4.027,30.936,4.488,74.215,4.488,74.215a139.16,139.16,0,0,1,2.3,21.561c.325,12.343-.472,46.3-.472,46.3s-8.211,5.243-16.779,1.2c0,0-7.037-38.738-10.162-56.629-2.5-14.273-5.327-33.558-5.327-33.558l-2.3,17.167a110.546,110.546,0,0,1,1.269,19.925c-.357,7.215-3.817,42.514-3.817,42.514s-11.609,5.443-19.715-2.412c0,0-2.769-52.539-3.429-61.191-1.29-16.978.388-46.761-.168-68.741Z" transform="translate(-191.005 -235.74)" fill="#01011c"/>
          <path id="Tracé_1888" data-name="Tracé 1888" d="M233.376,288.169l-4.9-29.363s-8.274-.787-12.689-4.436c0,0,2.978,4.981,10.833,6.575l4.593,26.595-.126,17.828Z" transform="translate(-190.497 -234.833)" fill="#03030f"/>
        </g>
        <g id="Top">
          <path id="Tracé_1889" data-name="Tracé 1889" d="M180.54,201.514c5.243,3.052,12.312,7.026,12.312,7.026s7.708-15.5,10.3-20.89c3.366-6.995,6.082-10.623,11.536-11.21L217.118,198s-12.291,23.071-15.657,26.731-5.243,4.457-10.613,1.049c-3.733-2.37-19.359-16.548-19.359-16.548Z" transform="translate(-141.907 -127.476)" fill="#dcab8c"/>
          <path id="Tracé_1890" data-name="Tracé 1890" d="M181.34,201.543c-4.342-2.884-7.236-5.243-7.6-9.218s0-6.051-.409-6.911-3.8-4.383-4.813-6.156-1.877-1.531-3.534-2.1c-1.992-.629-9.889-1.751-9.889-1.143a3.23,3.23,0,0,0,1.9,3.366,35.257,35.257,0,0,0,5.757,1.521s-1.2,1.741-1.783,2.485-.409,1.3.713,3.45c0,0-1.049.556-1.049,1.384a4.929,4.929,0,0,0,.629,2.36,2.213,2.213,0,0,0-.881,1.112c-.252.734.535,2.548,1.447,4.069a25.6,25.6,0,0,0,1.563,5.936c.86,1.94,2.223,2.611,3.754,3.366a49.651,49.651,0,0,1,5.118,4.195S185.3,204.186,181.34,201.543Z" transform="translate(-142.706 -127.505)" fill="#dcab8c"/>
          <path id="Tracé_1891" data-name="Tracé 1891" d="M161.37,186.37c.346.724,1.563,2.884,1.793,3.324s1.112.22,1.542-.7a3.324,3.324,0,0,0,.294-2.422,3.576,3.576,0,0,1,.094,2.559c-.5,1.206-1.321,1.437-1.835,1.332S162.125,187.9,161.37,186.37Z" transform="translate(-142.399 -126.993)" fill="#b58b74"/>
          <path id="Tracé_1892" data-name="Tracé 1892" d="M164.516,181.77s-8.389,11.85-12.584,15.154a105.025,105.025,0,0,0-8.652,8.1l9.564,1.049s4.53-11.536,11.536-17.618c2.286-1.825,1.667-1.584,1.667-1.584S164.327,183.186,164.516,181.77Z" transform="translate(-143.28 -127.217)" fill="#fff" stroke="#222221" stroke-miterlimit="10" stroke-width="0.25"/>
          <path id="Tracé_1893" data-name="Tracé 1893" d="M170.759,186.253a7.341,7.341,0,0,1-3.146-3.587c-.577-1.51-1.112-3.23-1.625-3.146-.87,0-2.349,1.877-1.636,4.425s2.1,5.243,2.286,5.925a11.41,11.41,0,0,1-.7,3.807,6.869,6.869,0,0,0,2.978,7.267,6.292,6.292,0,0,1-3.492-3.146c-1.447-2.632-.063-5.548.147-6.911s.252-1.625-.776-3.807-2.1-4.541-.6-6.921,2.454-1.395,2.831-.682S168.337,184.785,170.759,186.253Z" transform="translate(-142.298 -127.368)" fill="#b58b74"/>
          <path id="Tracé_1894" data-name="Tracé 1894" d="M162.437,180.71l1.678.65-.482.461a2.1,2.1,0,0,0-2.213.346Z" transform="translate(-142.397 -127.268)" fill="#b58b74"/>
          <path id="Tracé_1895" data-name="Tracé 1895" d="M163.167,193.94c.126.367,0,1.237-.619,1.321a1.4,1.4,0,0,1-1.049-.336,1.164,1.164,0,0,0,1.174.671c.755-.1,1.049-.923,1.1-1.594Z" transform="translate(-142.393 -126.624)" fill="#b58b74"/>
          <path id="Tracé_1896" data-name="Tracé 1896" d="M160.94,189.962c.252.545.724,1.227,1.458,2.716.419.86.65,1.426,1.206,1.311a2.381,2.381,0,0,0,1.154-2.464,8.043,8.043,0,0,0-.608-1.8l.419-.231a6.376,6.376,0,0,1,.734,2.894c-.115,1.332-1.279,2.475-1.877,2.192s-.828-.776-1.374-2.034S160.94,189.962,160.94,189.962Z" transform="translate(-142.42 -126.841)" fill="#b58b74"/>
          <path id="Tracé_1897" data-name="Tracé 1897" d="M214.87,175.79c-3.943.849-6.869,1.416-10.843,8.725s-11.368,22.956-11.368,22.956L180.075,201s.954,7.907-6.775,10.267c12.49,12.27,14.734,13.633,17.576,15.73s6.911,4.069,10.728-.807S217.6,198.253,217.6,198.253Z" transform="translate(-141.818 -127.508)" fill="#09a4f4"/>
          <path id="Tracé_1898" data-name="Tracé 1898" d="M191.76,206.081c2.58,1.489,6.03,3.607,7.142,5.778-1.227-4.96-6.292-7.53-6.292-7.53Z" transform="translate(-140.92 -126.118)" opacity="0.1"/>
          <g id="Top-2" data-name="Top" transform="translate(64.924)">
            <path id="Chest" d="M238.884,171.39c3.146.367,6.942.86,6.942.86,8.106,2.79,11.63,4.195,13.329,4.719a143.669,143.669,0,0,1,.346,27.192c-.262,3.209.273,17.461.776,24.12.692,8.966,1.049,19.034,1.049,19.034s-8.106,5.38-34.544,5.38c-17.23,0-21.131-4.079-21.131-4.079s-.545-27.119-.451-43c.094-16.653,4.688-26.374,8.127-29.594l10.78-3.146Z" transform="translate(-205.19 -127.722)" fill="#e5e5e5"/>
            <g id="Head" transform="translate(4.86)">
              <g id="Head-2" data-name="Head">
                <path id="Tracé_1899" data-name="Tracé 1899" d="M243.294,140.279a5.516,5.516,0,0,0-4.394-3.492c-1.049-3.628-7.131-7.676-14.587-6.953-9.26.912-12.9,4.142-14.189,8.914a10.686,10.686,0,0,0,1.72,8.767L233.562,144a19.527,19.527,0,0,0,.43,3.073c.692,3.261,4.09,6.953,4.09,6.953l.273,4.625.587,6.607a90.611,90.611,0,0,0,4.195-12.049C244.615,147.63,244.447,142.754,243.294,140.279Z" transform="translate(-209.824 -129.749)" fill="#01011c"/>
                <path id="Tracé_1900" data-name="Tracé 1900" d="M240.55,146.849a1.3,1.3,0,0,1-1.793-.461c-.136-.294-.157-.64-.388-.86s-.8-.21-1.206-.336a1.174,1.174,0,0,1-.629-.472c-.2-.3-.252-.7-.5-.965-.524-.566-1.542-.231-2.15-.7-.346-.262-.482-.745-.828-1.049a5.46,5.46,0,0,0-.7-.346,1.216,1.216,0,0,1-.608-.755c-.063-.283,0-.755.3-.881a2.2,2.2,0,0,1,1.164.073,1.5,1.5,0,0,1,1.164,1.458.881.881,0,0,0,.724,1.049c.367.094.755.073,1.133.147a1.049,1.049,0,0,1,.86.65,2.591,2.591,0,0,1,0,.577c0,.87,1.342.65,1.909,1a.724.724,0,0,1,.262.273c.1.231,0,.5.052.745C239.449,146.65,240.078,146.713,240.55,146.849Z" transform="translate(-208.758 -129.251)" fill="#455a64"/>
                <path id="Tracé_1901" data-name="Tracé 1901" d="M239.08,148.369a1.3,1.3,0,0,1-1.793-.461c-.136-.283-.157-.64-.378-.86s-.807-.21-1.206-.336a1.122,1.122,0,0,1-.629-.461c-.2-.315-.252-.713-.5-.975-.524-.566-1.542-.22-2.15-.692-.346-.273-.482-.755-.839-1.049a4.864,4.864,0,0,0-.7-.346,1.206,1.206,0,0,1-.6-.755c-.073-.273,0-.755.294-.881a2.244,2.244,0,0,1,1.175.073,1.51,1.51,0,0,1,1.164,1.468.87.87,0,0,0,.724,1.049c.367.094.755.073,1.122.147a1.049,1.049,0,0,1,.86.65,2.674,2.674,0,0,1,0,.577c.052.87,1.342.65,1.9,1.049a.661.661,0,0,1,.262.273c.115.22,0,.493.052.745C237.979,148.169,238.608,148.232,239.08,148.369Z" transform="translate(-208.829 -129.177)" fill="#455a64"/>
                <path id="Tracé_1902" data-name="Tracé 1902" d="M244.142,159.378c-2.265,1.846-4.719-.419-4.719-.419l.912,12.909s.147,3.387-3.775,6.166c-5.957,2.517-8.7,4.876-11.431,8.253l-1.384.063c-1.237-5.055-2.1-6.816-.587-12.668l-.178-3.293a12.237,12.237,0,0,1-2.842.115c-3.083-.126-5.243-2.318-6.523-5.485-2.045-5.1-2.79-14.325-1.112-23.973,3.66-3.492,13.57-4.195,21.194-.461.336,6.051,2.3,8.536,2.538,10.728a5.883,5.883,0,0,0,1.489,1.552c1.216.828,1.846-1.751,2.664-2.831s3.712-2.737,5.579.294S246.1,157.795,244.142,159.378Z" transform="translate(-209.738 -129.343)" fill="#dcab8c"/>
                <path id="Tracé_1903" data-name="Tracé 1903" d="M225.49,146.161l3.3,1.563a1.909,1.909,0,0,0-.9-2.5,1.783,1.783,0,0,0-2.4.933Z" transform="translate(-209.061 -129.004)" fill="#01011c"/>
                <path id="Tracé_1904" data-name="Tracé 1904" d="M213.376,147.7l3.408-1.416a1.762,1.762,0,0,0-2.36-1.049A1.94,1.94,0,0,0,213.376,147.7Z" transform="translate(-209.657 -129.002)" fill="#01011c"/>
                <path id="Tracé_1905" data-name="Tracé 1905" d="M227.518,149.564a1.489,1.489,0,1,1-1.6-1.374A1.51,1.51,0,0,1,227.518,149.564Z" transform="translate(-209.107 -128.852)" fill="#01011c"/>
                <path id="Tracé_1906" data-name="Tracé 1906" d="M217.218,150.065a1.489,1.489,0,1,1-1.6-1.374,1.353,1.353,0,0,1,1.6,1.374Z" transform="translate(-209.609 -128.828)" fill="#01011c"/>
                <path id="Tracé_1907" data-name="Tracé 1907" d="M222.731,146.42l-.954,9.669-1.384-.273a2.978,2.978,0,0,1-2.1-4.279C219.669,148.895,221.263,147.028,222.731,146.42Z" transform="translate(-209.427 -128.938)" fill="#b58b74"/>
                <path id="Tracé_1908" data-name="Tracé 1908" d="M231.04,149.063a1.049,1.049,0,0,0-.4-.22l-.252-.052a3.324,3.324,0,0,0-.556,0,2.663,2.663,0,0,0-1.112.178c-.094,0,0,.241,0,.252a10.567,10.567,0,0,0,1.154,0,2.39,2.39,0,0,1,.472,0l.262.052h.357C231.113,149.346,231.113,149.116,231.04,149.063Z" transform="translate(-208.906 -128.823)" fill="#b58b74"/>
                <path id="Tracé_1909" data-name="Tracé 1909" d="M230.07,150.4a1.755,1.755,0,0,0-.168-.126,2.013,2.013,0,0,0-.577-.21h-.336a1.332,1.332,0,0,0-.357,0c-.136,0-.063.273,0,.283s.43.063.64.115l.262.084.273.115c.073,0,.231.094.283,0a.231.231,0,0,0-.021-.262Z" transform="translate(-208.912 -128.761)" fill="#b58b74"/>
                <path id="Tracé_1910" data-name="Tracé 1910" d="M212.183,150.09Z" transform="translate(-209.712 -128.759)" fill="#9a4a4d"/>
                <path id="Tracé_1911" data-name="Tracé 1911" d="M213.583,149.866a1.248,1.248,0,0,0-.43-.115,4.2,4.2,0,0,0-.514,0h-.6a.294.294,0,0,0-.22.1.231.231,0,0,0,.115.336h.084a.976.976,0,0,0,.43,0h.818a.682.682,0,0,0,.357-.073.178.178,0,0,0-.042-.252Z" transform="translate(-209.728 -128.776)" fill="#b58b74"/>
                <path id="Tracé_1912" data-name="Tracé 1912" d="M212.2,150.1v-.01h-.01Z" transform="translate(-209.709 -128.759)" fill="#9a4a4d"/>
                <path id="Tracé_1913" data-name="Tracé 1913" d="M213.629,150.841a1.049,1.049,0,0,0-.4,0H212.9l-.608.073a.189.189,0,0,0-.136.262.346.346,0,0,0,.315.22h.357l.325-.063.315-.084a.472.472,0,0,0,.252-.168C213.755,151.009,213.734,150.862,213.629,150.841Z" transform="translate(-209.711 -128.723)" fill="#b58b74"/>
                <path id="Tracé_1914" data-name="Tracé 1914" d="M212.69,151.34Z" transform="translate(-209.684 -128.698)" fill="#9a4a4d"/>
                <path id="Tracé_1915" data-name="Tracé 1915" d="M226.6,142.8a5.579,5.579,0,0,0-2.779.189,15.144,15.144,0,0,1-2.821.419c-1.741,0-3.6-.975-5.317-.336v.094a6.858,6.858,0,0,1,2.769.252,8.389,8.389,0,0,0,5.5,0c.44-.1.87-.22,1.311-.3a9.367,9.367,0,0,0,1.332-.273S226.628,142.815,226.6,142.8Z" transform="translate(-209.539 -129.118)" fill="#b58b74"/>
                <path id="Tracé_1916" data-name="Tracé 1916" d="M236.248,149.94c.094,6.512-2.1,7.1-4.4,7.624-3.02.692-4.625-.87-10.088-.535-3.324.21-4.3,1.258-6.135,2.15-1.353.661-2.81.661-3.146-.661a47.442,47.442,0,0,1-.912-8.389,61.4,61.4,0,0,0,.65,11.787c.64,3.031,1.625,5.831,3.4,7.163,2.464,1.835,7.4,1.825,13.434.1s8.159-3.9,8.767-6.1c1.951-7.142.807-10.4,1.531-11.777S236.248,149.94,236.248,149.94Z" transform="translate(-209.742 -128.766)" fill="#01011c"/>
                <path id="Tracé_1917" data-name="Tracé 1917" d="M222.29,158.523c3.146-.262,4.195.241,4.457,2.37.4,3.041.315,4.079-.849,4.31-1.363.273-2.37.419-2.464-.44a3.387,3.387,0,0,1,.073-1.972c.451-.619.273-.692-1.049-.577s-1.342.357-.912.755.357,1.342.4,1.94-.094.933-2.1.86c-1.73-.052-1.521-1.458-1.646-4.079C218.085,159.918,218.767,158.817,222.29,158.523Z" transform="translate(-209.417 -128.351)" fill="#dcab8c"/>
                <path id="Tracé_1918" data-name="Tracé 1918" d="M224.271,159.14l-4.111.828a2.1,2.1,0,0,0,2.422,1.72,2.2,2.2,0,0,0,1.688-2.548Z" transform="translate(-209.321 -128.318)" fill="#b16668"/>
                <path id="Tracé_1919" data-name="Tracé 1919" d="M223.686,159.781a2.1,2.1,0,0,1,.514,0,2.181,2.181,0,0,1-1.7,1.867,2.1,2.1,0,0,1-.671,0,1.919,1.919,0,0,1,1.856-1.867Z" transform="translate(-209.239 -128.288)" fill="#f28f8f"/>
              </g>
            </g>
            <g id="Tie" transform="translate(11.759 37.335)">
              <path id="Tracé_1920" data-name="Tracé 1920" d="M221.626,186.581s-2.769-4.268-2.926-6.051l2.632-3.24,1.5,7.225Z" transform="translate(-216.291 -164.77)" fill="#008ab5"/>
              <path id="Tracé_1921" data-name="Tracé 1921" d="M224.91,184.246l4.635-3.786,4.363,2.4-7.236,4.541Z" transform="translate(-215.989 -164.616)" fill="#008ab5"/>
              <path id="Tracé_1922" data-name="Tracé 1922" d="M228.965,231.068c.367-10.256-3.566-37.9-3.618-41.528h-2.538c-1.363,4.478-3.765,33.39-3.387,40.4.178,3.377,3.891,9.1,5,9.239S228.881,233.249,228.965,231.068Z" transform="translate(-216.258 -164.174)" fill="#0097d3"/>
              <path id="Tracé_1923" data-name="Tracé 1923" d="M222.49,190.17a2.574,2.574,0,0,1,.168-.65H225.2a7.707,7.707,0,0,0,.063,1.133A4.415,4.415,0,0,1,222.49,190.17Z" transform="translate(-216.107 -164.174)" fill="#008ab5"/>
              <path id="Tracé_1924" data-name="Tracé 1924" d="M225.077,184.081a10.918,10.918,0,0,0-2.381.1,5.642,5.642,0,0,0-1.206,2.1,8.642,8.642,0,0,0,1.216,3.534,3,3,0,0,0,2.538,0,5.243,5.243,0,0,0,1.594-2.58,4.75,4.75,0,0,0-1.762-3.157Z" transform="translate(-216.155 -164.44)" fill="#0097d3"/>
              <path id="Tracé_1925" data-name="Tracé 1925" d="M224.51,184.96h.419a15.5,15.5,0,0,1,2.821-2.716c.682-.378,3.691,4.446,4.268,5.7s.482,1.258,2.2.063a34.459,34.459,0,0,0,7.75-7.771,22.023,22.023,0,0,0,3.44-6.775,24.883,24.883,0,0,1-3.083-3.24c-1.164-2-1.835-5.065-2.989-4.866l-.283,2.349c-.168,1.772-2.349,4.562-4.772,6.743s-5.673,4.446-6.607,5.38a36.8,36.8,0,0,0-3.167,5.128Z" transform="translate(-216.008 -165.351)" fill="#0097d3"/>
              <path id="Tracé_1926" data-name="Tracé 1926" d="M216.673,185.1c.294.713,2.464-4.971,3.6-4.876.545,0,2.034,3.031,3.073,4.625h.178c-.283-2.15-.587-4-.64-5.128-.084-2.1.157-5.673.157-5.673l-.252-4.625a11.15,11.15,0,0,0-1.112.1,5.35,5.35,0,0,0-.807,1.049c-1.049,1.825-3.838,6.04-4.195,8.2a18.687,18.687,0,0,0,0,6.324Z" transform="translate(-216.403 -165.153)" fill="#0097d3"/>
            </g>
          </g>
          <path id="Tracé_1927" data-name="Tracé 1927" d="M240.677,169.4s.524.64,5.181,2.706a65.018,65.018,0,0,0,11.064,3.377s4.635,8.872,3.975,24.707-.419,22.746.566,29.363c.86,5.747,2.412,50.4,3.5,62.386-3.429,4.813-12.06,8.956-20.691,7.488-3.975-24.319-6.2-94-5.862-106.641a173.693,173.693,0,0,1,2.265-23.386Z" transform="translate(-138.65 -127.819)" fill="#66b3e3"/>
          <path id="Tracé_1928" data-name="Tracé 1928" d="M238.658,164.77c2.443-.136,5.527,6.733,7.236,7.561,1.1,5.485-.094,15.8-.115,19.1s-5.841,7.9-5.841,7.9l5.422,8.494s-5.883,16-5.243,24.581c0,0-1.374-10.4-2.391-30.664-.545-10.98,1.395-22.285,1.175-33.956Z" transform="translate(-138.687 -128.044)" fill="#09a4f4"/>
          <path id="Tracé_1929" data-name="Tracé 1929" d="M223.565,172.12s-8.306,2.758-10.822,3.849c-5.243,7.561-6.659,13.371-7.823,25.242-.828,8.536-1.94,62.019-1.321,87.188.891,2.653,4.572,5.128,6.2,5.694-.126-7.058-.818-29.762-.084-68.165S223.565,172.12,223.565,172.12Z" transform="translate(-140.352 -127.686)" fill="#66b3e3"/>
          <path id="Tracé_1930" data-name="Tracé 1930" d="M223.255,169.43l.147,2.821a38.8,38.8,0,0,0-3.628,6.24,69.6,69.6,0,0,0-6.47,17.754,168.24,168.24,0,0,0-3.786,29.793c-.3-8.494-2.737-20.114-2.737-22.484,0-1.9,4.079-7.96,4.079-7.96s-2.36-4.7-1.709-6.869,5.369-11.064,7.844-15.038a17.828,17.828,0,0,1,3.545-4.195,18.1,18.1,0,0,0,2.716-.063Z" transform="translate(-140.188 -127.817)" fill="#09a4f4"/>
          <g id="Arm" transform="translate(64.499 47.664)">
            <path id="Tracé_1931" data-name="Tracé 1931" d="M206.615,223.6a7.844,7.844,0,0,1,1.552.4c.566.189,1.049.4,1.657.545s1.216.294,1.825.409c.86.178,1.72.4,2.59.514a19.715,19.715,0,0,0,4.971.063q.787-.094,1.573-.252c.241,0,.545-.178.524-.43a.545.545,0,0,0-.252-.325c-.64-.451-1.353-.786-2.024-1.185a4.646,4.646,0,0,1-1.688-1.594c-.262-.482-.608-1.825,0-2.213s1.363.252,1.772.44a17.114,17.114,0,0,0,2.727,1.049c1.049.262,2.1.367,3.073.608a10.739,10.739,0,0,1,3.67,1.688c1.049.745,1.971,1.646,3.073,2.307,2.1,1.237,5.537,1.049,8.62.692a173.421,173.421,0,0,0,17.586-3.775l-1.049-21.729c-1.29-6.5.86-21.687,4.446-23.7,1.531.524,5.621.954,8.9,6.428,1.783,2.989,2.527,10.12,3.324,22.159.566,8.568,1.049,13.853.86,21.582-.241,8.6-3.838,10.8-11.619,10.917-13.014.189-25.116-.2-27.979-.262s-5.631-.22-8.117-.493c-1.29-.147-2.559-.43-3.838-.5a8.39,8.39,0,0,1-4.614-1.468c-1.646-1.269-2.59-3.471-4.541-4.195a12.58,12.58,0,0,1-1.772-.587c-.954-.524-1.384-1.6-2.1-2.349a9.561,9.561,0,0,0-1.583-1.154l-1.783-1.237a9.051,9.051,0,0,1-1.237-.954,1.311,1.311,0,0,1-.294-.388C204.381,223.651,206.059,223.535,206.615,223.6Z" transform="translate(-204.785 -175.107)" fill="#dcab8c"/>
            <path id="Tracé_1932" data-name="Tracé 1932" d="M256.571,175.2c10.088,2.15,11.924,5.432,12.9,9.648,1.29,5.663,2.2,14.325,3.282,28.2.828,10.487.482,15.951.168,18.153s-.828,6.46-8.19,7.341c-5.5.682-18.541,0-18.541,0s3.219-7.96-.619-13.476l10-2.664-3.639-22.547S249.943,180.653,256.571,175.2Z" transform="translate(-202.799 -175.2)" fill="#09a4f4"/>
            <path id="Tracé_1933" data-name="Tracé 1933" d="M255.127,220.329s7.058-1.468,10.13-.262c0,0-2.664-2.527-10.487-1.72Z" transform="translate(-202.351 -173.107)" opacity="0.1"/>
          </g>
        </g>
      </g>
      <g id="Character-2" data-name="Character" transform="translate(28.075 141.101)">
        <g id="Couch" transform="translate(0 18.873)">
          <path id="Tracé_1934" data-name="Tracé 1934" d="M50.586,388.976l-6.166-3.555.126-23.061,7.582,4.384Z" transform="translate(-35.747 -204.111)" fill="#040419"/>
          <path id="Tracé_1935" data-name="Tracé 1935" d="M216.188,376.419l-6.156-3.555-7.592-18.6,7.592,4.384Z" transform="translate(-28.054 -204.505)" fill="#040419"/>
          <path id="Tracé_1936" data-name="Tracé 1936" d="M227.256,349.4,122.23,410.024v7.11l1.164-.671-1.164,16.685,6.166-3.555,4.614-18.677,82.458-47.6,4.625,13.339,6.156-3.555-1.164-15.342,2.171-1.248Z" transform="translate(-31.959 -204.742)" fill="#01011c"/>
          <path id="Tracé_1937" data-name="Tracé 1937" d="M126.232,412.335l105.026-60.624L145.046,301.94,40.02,362.564v7.11l80.141,46.258-.084,15.971,6.156,3.555,1.552-22.232-1.552-.891Z" transform="translate(-35.962 -207.052)" fill="#040419"/>
          <path id="Tracé_1938" data-name="Tracé 1938" d="M50.3,389.061l1.542-22.232,10.77-6.219-6.156,24.9Z" transform="translate(-35.461 -204.196)" fill="#01011c"/>
          <path id="Tracé_1939" data-name="Tracé 1939" d="M231.551,312.344V349.9a13.35,13.35,0,0,1-6.019,10.434l-1.73,1.049h-.084a13.633,13.633,0,0,1-7.53,1.29l-75.925,40.364a13.455,13.455,0,0,1-5.946,10h-.063l-1.73,1.049a2.294,2.294,0,0,1-.451.231,1.406,1.406,0,0,1-.252.126h-.073a13.728,13.728,0,0,1-9.344.43c-.357-.115-.7-.241-1.049-.388l-.168-.073a6.474,6.474,0,0,1-.713-.357L42.179,368.868a13.339,13.339,0,0,1-6.019-10.434V277.066a13.392,13.392,0,0,1,6.019-10.424L135.187,212.9a13.308,13.308,0,0,1,12.039,0l4.908,2.821a15.992,15.992,0,0,1,6.942,10.371l4.73,40.165,61.747,35.655a13.35,13.35,0,0,1,6,10.434Z" transform="translate(-36.15 -211.458)" fill="#545454"/>
          <path id="Tracé_1940" data-name="Tracé 1940" d="M152.111,215.728l-4.9-2.831a13.308,13.308,0,0,0-12.039,0L42.167,266.642c-.357.21-.734.472-.619.388a13.79,13.79,0,0,0-5.338,9.029c.44-3.073,2.947-4.195,5.946-2.464l4.908,2.831a13.308,13.308,0,0,0,12.039,0l93.008-53.745C155.435,220.762,155.435,217.647,152.111,215.728Z" transform="translate(-36.147 -211.458)" fill="#606060"/>
          <path id="Tracé_1941" data-name="Tracé 1941" d="M226.265,309.8v37.553a13.35,13.35,0,0,1-6.019,10.434l-1.73,1.049h-.084a12.867,12.867,0,0,1-7.058,1.332,11.882,11.882,0,0,1-4.908-1.374L150.749,326.61a13.36,13.36,0,0,1-6.019-10.424V278.622a13.3,13.3,0,0,1,6.019-10.424l7.75-4.488,61.747,35.655a13.35,13.35,0,0,1,6.019,10.434Z" transform="translate(-30.864 -208.914)" fill="#232323"/>
          <path id="Tracé_1942" data-name="Tracé 1942" d="M158.335,263.71l-7.75,4.5c-3.314,1.909-3.314,5.034,0,6.942l55.727,32.174a13.392,13.392,0,0,1,6.019,10.434v37.564c0,3.828,2.706,5.39,6.019,3.482l1.73-1.049a13.371,13.371,0,0,0,6.019-10.434V309.789a13.329,13.329,0,0,0-6.019-10.424Z" transform="translate(-30.7 -208.914)" fill="#606060"/>
          <path id="Tracé_1943" data-name="Tracé 1943" d="M209.432,315.885v37.564c0,3.828,2.706,5.39,6.019,3.482l1.73-1.049a13.371,13.371,0,0,0,6.019-10.434V307.925A12.312,12.312,0,0,0,221.429,302l-13.769,7.949a12.322,12.322,0,0,1,1.772,5.936Z" transform="translate(-27.8 -207.05)" fill="#545454"/>
          <path id="Tracé_1944" data-name="Tracé 1944" d="M213.432,357.92a14.243,14.243,0,0,1-2.2,3.314,26.219,26.219,0,0,1-5.663,3.964c-21.173,12.228-38.686,22.379-59.859,34.607a6.691,6.691,0,0,1-6.019,0L120.1,388.5,80.909,365.89c-3.324-1.919-6.019-6.4-6.019-9.994s2.7-8.075,6.019-9.994l22.211-12.825,16.978-9.784,20.649-11.966a13.329,13.329,0,0,1,12.039,0l55.7,32.237c3.324,1.919,6.019,3.4,6.019,7.813A22.316,22.316,0,0,1,213.432,357.92Z" transform="translate(-34.264 -206.665)" fill="#232323"/>
          <path id="Tracé_1945" data-name="Tracé 1945" d="M142.52,384.975l65.826-38.046c1.657-.965,3.01-.178,3.01,1.741v6.082a6.691,6.691,0,0,1-3.01,5.243L142.52,398.042c-1.667.954-3.01.178-3.01-1.741v-6.093a6.67,6.67,0,0,1,3.01-5.233Z" transform="translate(-31.118 -204.882)" fill="#545454"/>
          <path id="Tracé_1946" data-name="Tracé 1946" d="M140.024,291.067,80.909,325.223a13.3,13.3,0,0,0-6.019,10.424V339.7a13.3,13.3,0,0,0,6.019,10.424L136.637,382.3a13.308,13.308,0,0,0,12.039,0L207.8,348.126A13.3,13.3,0,0,0,213.82,337.7v-4.048A13.308,13.308,0,0,0,207.8,323.22l-55.727-32.153a13.308,13.308,0,0,0-12.049,0Z" transform="translate(-34.264 -207.652)" fill="#545454"/>
          <path id="Tracé_1947" data-name="Tracé 1947" d="M142.656,364.112v17.964a12.343,12.343,0,0,1-6.019-1.447L80.909,348.455a13.3,13.3,0,0,1-6.019-10.424v-4.048A13.444,13.444,0,0,1,80.249,324c-2.7,1.93-2.485,4.761.619,6.554l55.727,32.174a12.259,12.259,0,0,0,6.061,1.384Z" transform="translate(-34.264 -205.978)" fill="#232323"/>
          <path id="Tracé_1948" data-name="Tracé 1948" d="M148.512,364.349l59.125-34.177c3.324-1.919,3.324-5.034,0-6.953L151.91,291.067a13.308,13.308,0,0,0-12.049,0L80.746,325.223c-3.324,1.919-3.324,5.034,0,6.953l55.727,32.174A13.308,13.308,0,0,0,148.512,364.349Z" transform="translate(-34.1 -207.652)" fill="#606060"/>
          <g id="Cushion" transform="translate(28.25 51.869)">
            <path id="Tracé_1949" data-name="Tracé 1949" d="M109.316,260.941c-3.859-.378-7.047,4.069-13.476,7.2-11.976,5.862-17.366,11.189-22.935,17.681s-7.687,5.4-9.438,9.438,3.01,5.789,5.243,11.536c3.786,9.679,8.494,16.192,13.392,20.219,8.641,7.131,7.341,12.091,11.263,12.039,4.195,0,3.88-3.639,10.487-6.2,15.583-6.051,22.022-11.441,29.185-22.1,2.81-4.195,6.4-3.817,7.068-7.834.346-2.013-2.58-3.094-5.243-9.438-4.383-10.487-11.389-20.313-18.205-25.42C113.742,265.891,113.238,261.34,109.316,260.941Z" transform="translate(-63.089 -260.918)" fill="#66b3e3"/>
            <path id="Tracé_1950" data-name="Tracé 1950" d="M109.316,260.941c-3.859-.378-7.047,4.069-13.476,7.2-11.976,5.862-17.366,11.189-22.935,17.681s-7.687,5.4-9.438,9.438,3.01,5.789,5.243,11.536c3.786,9.679,8.494,16.192,13.392,20.219,8.641,7.131,7.341,12.091,11.263,12.039,4.195,0,3.88-3.639,10.487-6.2,15.583-6.051,22.022-11.441,29.185-22.1,2.81-4.195,6.4-3.817,7.068-7.834.346-2.013-2.58-3.094-5.243-9.438-4.383-10.487-11.389-20.313-18.205-25.42C113.742,265.891,113.238,261.34,109.316,260.941Z" transform="translate(-63.089 -260.918)" opacity="0.3"/>
            <path id="Tracé_1951" data-name="Tracé 1951" d="M67.616,300.392c3.293,4.667,2.852,9.323,9.627,17.9,6.5,8.232,11.2,10.55,13.151,14.241,1.625,3.073,3.838,4.509,4.363.912s-2.3-13.864-8.83-22.694c-7.54-10.13-12.354-14.01-15.615-15.489C65.184,292.925,65.026,296.721,67.616,300.392Z" transform="translate(-62.948 -259.281)" opacity="0.2"/>
            <path id="Tracé_1952" data-name="Tracé 1952" d="M102.548,326.913c-4.3,1.489-4.478,5.3-6.638,8.243a17.062,17.062,0,0,1,6.376-4.279c7.1-2.758,12.291-5.38,16.517-8.389C113.308,325.35,105.673,325.843,102.548,326.913Zm26.92-19.747c-2.664,2.454-2.4,6.816-5.6,11.032a61.423,61.423,0,0,0,7.6-9.438c2.569-3.807,5.768-3.849,6.827-6.89-2.36,3.01-5.589,2.339-8.83,5.3Z" transform="translate(-61.491 -258.925)" opacity="0.2"/>
          </g>
          <path id="Tracé_1953" data-name="Tracé 1953" d="M126.5,407.759V370.185a13.35,13.35,0,0,0-6.019-10.424L58.739,324.105l-4.73-40.165a15.971,15.971,0,0,0-6.942-10.371l-4.9-2.831c-3.314-1.909-6.019-.346-6.019,3.482v81.357a13.371,13.371,0,0,0,6.019,10.434l78.316,45.209C123.8,413.149,126.5,411.576,126.5,407.759Z" transform="translate(-36.15 -208.611)" fill="#232323"/>
          <path id="Tracé_1954" data-name="Tracé 1954" d="M139.235,359.987v37.574a2.41,2.41,0,0,1,0,.388,13.455,13.455,0,0,1-5.946,10h-.063L131.5,409a2.294,2.294,0,0,1-.451.231,1.407,1.407,0,0,1-.252.126h-.073a3.965,3.965,0,0,1-.482.178,13.916,13.916,0,0,1-8.861.252c-.357-.115-.7-.241-1.049-.388,2.884,1.2,5.128-.43,5.139-3.891V367.957a13.35,13.35,0,0,0-6.019-10.487l-10.927-6.292L57.7,321.815l7.76-4.488a13.371,13.371,0,0,1,12.039,0l44.8,25.944,10.906,6.292a13.35,13.35,0,0,1,6.03,10.424Z" transform="translate(-35.101 -206.373)" fill="#606060"/>
          <path id="Tracé_1955" data-name="Tracé 1955" d="M122.549,366.185v37.574c0,3.461-2.255,5.086-5.139,3.891a10.309,10.309,0,0,0,1.049.388,13.916,13.916,0,0,0,8.861-.252,3.971,3.971,0,0,0,.482-.178h.073a1.405,1.405,0,0,0,.252-.126,2.3,2.3,0,0,0,.451-.231l1.73-1.049h.063a13.454,13.454,0,0,0,5.946-10,2.408,2.408,0,0,0,0-.388v-37.6a12.28,12.28,0,0,0-1.772-5.925l-13.769,7.96A12.3,12.3,0,0,1,122.549,366.185Z" transform="translate(-32.194 -204.601)" fill="#545454"/>
        </g>
        <g id="Character-3" data-name="Character" transform="translate(74.893)">
          <g id="Bottom-2" data-name="Bottom" transform="translate(0.575 111.076)">
            <path id="Tracé_1956" data-name="Tracé 1956" d="M192.924,394.167,191.55,377h20.774s-1.049,12.039-1.374,19.034a10.2,10.2,0,0,0,1.94,5.516s-7.7,4.457-11.861,2.978-7.184-7.792-7.142-8.977Z" transform="translate(-104.053 -295.601)" fill="#ffa8a7"/>
            <path id="Tracé_1957" data-name="Tracé 1957" d="M236.779,418.573c.273,0,.524,2.569-1,3.849a20,20,0,0,1-14.147,3.492c-6.785-.87-10.487-2.926-13.171-5.16s-6.512-5.38-9.585-6.051a22.023,22.023,0,0,1-7.624-3.754c-.912-.86-.766-4.709-.766-4.709Z" transform="translate(-104.105 -294.177)" fill="#232323"/>
            <path id="Tracé_1958" data-name="Tracé 1958" d="M192.744,391.91s-.357.189-.535,1.049c-.22,1.049-.451,4.195-.9,5.894a30.7,30.7,0,0,0-.7,9.354c.378,1.971,5.789,4.342,8.757,5.453a37.689,37.689,0,0,1,9.616,5.967c3.146,2.59,9.889,5.243,14.315,5.243,5.243,0,11.137-1.709,12.5-4.09,1.678-2.947,2.9-6.376-4.855-9.91-1.458-.671-6.617-3.67-8.389-4.751-4.751-2.947-8.085-5.642-10.267-10.854a2.926,2.926,0,0,0-1.112-1.594,2.538,2.538,0,0,0-1.51-.126c-1.29.178-6.46.87-7.634,1.426s-2.527,1.049-2.506,2.37a4.583,4.583,0,0,0,.283,1.332c.094.262.168.619-.073.776s-.524,0-.724-.2a19.629,19.629,0,0,1-2.1-2.464,22.434,22.434,0,0,0-1.992-2.234,12.869,12.869,0,0,1-1.321-.839,2.989,2.989,0,0,1-.85-1.8Z" transform="translate(-104.103 -294.875)" fill="#606060"/>
            <path id="Tracé_1959" data-name="Tracé 1959" d="M208.315,418.812c-1.353-1.049-2.79-2.15-4.195-3.094h0s9.113,5.443,12.815,2.968c2.381-1.594,1.258-3.524,1.2-4.142s8.389-4.992,10.665-5.243h0a15.733,15.733,0,0,0,1.521.787c6.051,2.38,6.848,5.453,5.831,9.312-1.353,2.381-6.628,4.845-13.392,4.845C218.3,424.212,211.492,421.4,208.315,418.812Z" transform="translate(-103.441 -294.028)" fill="#545454"/>
            <path id="Tracé_1960" data-name="Tracé 1960" d="M218.069,413.6c4.824,1.888,2.758,2.779,1.405,2.968s-9.438-4.467-14.409-8.316c-5.16-4.016-9.176-9.438-11.1-10.885-.713-.545-1.479-1.227-2.16-1.856.126-1.049.231-1.992.336-2.5a4.426,4.426,0,0,1,.608-1.51,6.418,6.418,0,0,0,.8,2.265,12.855,12.855,0,0,0,1.321.839,22.43,22.43,0,0,1,1.993,2.234,19.63,19.63,0,0,0,2.1,2.464C203.157,404.609,213.245,411.7,218.069,413.6Z" transform="translate(-104.04 -294.895)" fill="#545454"/>
            <path id="Tracé_1961" data-name="Tracé 1961" d="M217.892,415.016a.461.461,0,0,1-.3-.115.451.451,0,0,1-.063-.661c1.363-1.636,7.834-5.527,11.389-5.139a.461.461,0,0,1,.419.514.472.472,0,0,1-.524.419c-3.324-.357-9.438,3.5-10.55,4.8a.482.482,0,0,1-.367.178Z" transform="translate(-102.794 -294.039)" fill="#232323"/>
            <path id="Tracé_1962" data-name="Tracé 1962" d="M213.882,412.586a.451.451,0,0,1-.3-.1.461.461,0,0,1-.063-.661c1.363-1.636,7.834-5.527,11.389-5.149a.472.472,0,1,1-.1.933c-3.324-.346-9.438,3.513-10.55,4.8a.482.482,0,0,1-.367.178Z" transform="translate(-102.989 -294.158)" fill="#232323"/>
            <path id="Tracé_1963" data-name="Tracé 1963" d="M209.862,410.275a.44.44,0,0,1-.294-.1.472.472,0,0,1-.073-.661c1.374-1.636,7.844-5.527,11.4-5.139a.465.465,0,1,1-.1.923c-3.324-.346-9.438,3.513-10.55,4.813A.472.472,0,0,1,209.862,410.275Z" transform="translate(-103.184 -294.27)" fill="#232323"/>
            <path id="Tracé_1964" data-name="Tracé 1964" d="M206.152,407.666a.556.556,0,0,1-.3-.1.472.472,0,0,1-.063-.661c1.363-1.646,7.855-5.527,11.389-5.149a.472.472,0,1,1-.1.933c-3.314-.346-9.438,3.5-10.55,4.8a.482.482,0,0,1-.367.178Z" transform="translate(-103.365 -294.397)" fill="#232323"/>
            <path id="Tracé_1965" data-name="Tracé 1965" d="M202.512,405.04a.441.441,0,0,1-.294-.1.451.451,0,0,1-.073-.65c1.877-2.328,8.652-5.579,12.2-5.243a.472.472,0,0,1,.43.514.5.5,0,0,1-.535.419c-3.146-.346-9.679,2.779-11.347,4.834a.5.5,0,0,1-.378.231Z" transform="translate(-103.542 -294.529)" fill="#232323"/>
            <path id="Tracé_1966" data-name="Tracé 1966" d="M161.414,412.771l-2.244-16.055L179.1,394.01s-.409,12.742-.115,18.572c.136,2.748,2.244,7.865,2.244,7.865s-7.771,4.321-11.924,2.779-7.047-7.907-6.984-9.082Z" transform="translate(-105.629 -294.773)" fill="#ffa8a7"/>
            <path id="Tracé_1967" data-name="Tracé 1967" d="M204.808,437.785c.273,0,.482,2.569-1.049,3.828a20.04,20.04,0,0,1-14.21,3.324c-6.775-.975-10.413-3.146-13.088-5.38s-6.418-5.485-9.438-6.2a21.906,21.906,0,0,1-7.561-3.88c-.9-.881-.692-4.73-.692-4.73Z" transform="translate(-105.649 -293.276)" fill="#232323"/>
            <path id="Tracé_1968" data-name="Tracé 1968" d="M161.237,410.44s-.367.178-.566,1.049a59.191,59.191,0,0,1-1.049,5.873,30.581,30.581,0,0,0-.849,9.344c.336,1.971,5.715,4.436,8.662,5.6a37.521,37.521,0,0,1,9.512,6.124c3.146,2.632,9.805,5.432,14.231,5.474,5.243,0,11.168-1.521,12.584-3.891,1.73-2.915,3.01-6.292-4.677-9.983-1.458-.692-6.565-3.775-8.306-4.9-4.7-3.02-8-5.768-10.088-11.011a2.926,2.926,0,0,0-1.049-1.615,2.506,2.506,0,0,0-1.5-.157c-1.3.157-6.47.776-7.666,1.311s-2.538,1.049-2.538,2.318a4.488,4.488,0,0,0,.262,1.342c.094.273.157.629-.084.776a.6.6,0,0,1-.724-.21,20.4,20.4,0,0,1-2.045-2.5,22.4,22.4,0,0,0-1.951-2.265,11.535,11.535,0,0,1-1.321-.87,2.957,2.957,0,0,1-.839-1.814Z" transform="translate(-105.651 -293.973)" fill="#606060"/>
            <path id="Tracé_1969" data-name="Tracé 1969" d="M176.345,437.577a43.3,43.3,0,0,0-4.195-3.146h0s9.029,5.589,12.762,3.146c2.412-1.552,1.321-3.5,1.269-4.132s8.389-4.845,10.749-5.076h0c.64.357,1.164.661,1.51.807,6.009,2.475,6.764,5.558,5.673,9.438-1.395,2.37-6.7,4.74-13.465,4.635C186.244,443.135,179.491,440.21,176.345,437.577Z" transform="translate(-104.997 -293.1)" fill="#545454"/>
            <path id="Tracé_1970" data-name="Tracé 1970" d="M186.2,432.514c4.792,1.972,2.716,2.821,1.363,2.989s-9.438-4.625-14.283-8.557c-5.086-4.1-9.008-9.554-10.906-11.064a25.428,25.428,0,0,1-2.1-1.888c.147-1.049.262-1.992.367-2.485.2-.891.566-1.049.566-1.049a5.6,5.6,0,0,0,.828,1.835,11.526,11.526,0,0,0,1.321.87,22.4,22.4,0,0,1,1.951,2.265,20.4,20.4,0,0,0,2.045,2.5C171.417,423.233,181.39,430.532,186.2,432.514Z" transform="translate(-105.575 -293.972)" fill="#545454"/>
            <path id="Tracé_1971" data-name="Tracé 1971" d="M186.021,433.938a.5.5,0,0,1-.3-.115.461.461,0,0,1,0-.661c1.395-1.615,7.928-5.39,11.473-4.95a.472.472,0,0,1,.419.514.461.461,0,0,1-.535.409c-3.314-.4-9.522,3.356-10.623,4.635a.482.482,0,0,1-.43.168Z" transform="translate(-104.343 -293.109)" fill="#232323"/>
            <path id="Tracé_1972" data-name="Tracé 1972" d="M182.022,431.447a.451.451,0,0,1-.294-.115.461.461,0,0,1-.063-.661c1.395-1.615,7.928-5.39,11.473-4.95a.465.465,0,1,1-.115.923c-3.314-.4-9.522,3.356-10.623,4.635A.482.482,0,0,1,182.022,431.447Z" transform="translate(-104.539 -293.231)" fill="#232323"/>
            <path id="Tracé_1973" data-name="Tracé 1973" d="M178.021,429.077a.482.482,0,0,1-.3-.1.461.461,0,0,1,0-.661c1.395-1.615,7.928-5.4,11.473-4.96a.472.472,0,1,1-.115.933c-3.314-.409-9.522,3.345-10.634,4.635A.461.461,0,0,1,178.021,429.077Z" transform="translate(-104.733 -293.346)" fill="#232323"/>
            <path id="Tracé_1974" data-name="Tracé 1974" d="M174.372,426.4a.5.5,0,0,1-.3-.115.462.462,0,0,1-.052-.661c1.395-1.615,7.939-5.39,11.473-4.95a.465.465,0,1,1-.115.923c-3.314-.4-9.522,3.356-10.634,4.635a.461.461,0,0,1-.367.168Z" transform="translate(-104.912 -293.477)" fill="#232323"/>
            <path id="Tracé_1975" data-name="Tracé 1975" d="M170.771,423.709a.44.44,0,0,1-.294-.1.472.472,0,0,1-.063-.661c1.919-2.286,8.746-5.422,12.291-4.981a.461.461,0,0,1,.409.514.472.472,0,0,1-.535.409c-3.146-.388-9.721,2.622-11.431,4.656a.44.44,0,0,1-.378.168Z" transform="translate(-105.087 -293.609)" fill="#232323"/>
            <path id="Tracé_1976" data-name="Tracé 1976" d="M219.092,344.358c.472-8.264.073-13.182-9.176-19.243-11.263-7.393-34.47-20.911-42.818-25.735l-21.792,1.751L108.288,306c-.713,13.56.252,27.266,13.077,36.61,10.917,7.918,24.728,15.29,36.526,21.928a83.9,83.9,0,0,0,.2,20.2,222.316,222.316,0,0,0,4.069,23.91,34.942,34.942,0,0,0,19.768.357s1.72-23.26,2.045-30.076c.745-15.73,1.374-22.746.545-27.685-.6-3.566-1.751-5.422-6.135-9.438l14.315,7.855c-.461,5.516-.4,10.067.807,19.453,1.531,11.609,2.58,20.879,2.58,20.879,4.446,2.8,13.224,3.87,19.925-.4C216.082,389.588,217.771,367.775,219.092,344.358Z" transform="translate(-108.115 -299.38)" fill="#00002f"/>
            <path id="Tracé_1977" data-name="Tracé 1977" d="M195.69,355.317c.1-1.51.273-2.779.419-3.9.409-3.01.65-4.824-1.321-6.187-2.339-1.625-23.669-13.717-30.034-17.219l-1.877-1.7s4.845-7.341,3.943-15.73a21.886,21.886,0,0,1-9.91,15.814s8.924,6.806,19.1,14.891l14.315,7.855-11.976-8.756L167.124,330.19c8.274,4.614,25.168,14.22,27.266,15.657,1.594,1.112,1.405,2.569,1.049,5.474-.157,1.133-.325,2.422-.43,3.964-.461,7.184,1.248,28.661,1.825,35.571l.766.241C196.991,384.533,195.229,362.563,195.69,355.317Z" transform="translate(-105.739 -298.835)" fill="#01011c"/>
            <path id="Tracé_1978" data-name="Tracé 1978" d="M191.3,382.06c3.7,3.681,14.619,5.306,21.257.241l-.535,6.093s-2.727,3.041-10.424,3-9.658-3.482-9.658-3.482Z" transform="translate(-104.065 -295.355)" fill="#00002f"/>
            <path id="Tracé_1979" data-name="Tracé 1979" d="M163.471,370.241c.073-1.447.157-2.7.231-3.765.357-5.013.461-6.523-2.433-8.1-4.31-2.318-23.239-13.455-31.922-20.89-7.634-6.523-8.746-13.067-8.893-33.4l-.734.1c.157,20.523,1.3,27.15,9.145,33.852,8.736,7.477,27.727,18.656,32.048,20.974,2.485,1.342,2.412,2.38,2.1,7.341-.073,1.049-.157,2.328-.231,3.786-.4,7.645,1.395,28.168,2.9,39.189l.766.126C164.887,398.608,163.073,377.917,163.471,370.241Z" transform="translate(-107.55 -299.151)" fill="#01011c"/>
            <path id="Tracé_1980" data-name="Tracé 1980" d="M158.72,400.24c3.7,3.691,14.619,5.317,21.257.241l-.535,6.093s-2.727,3.041-10.424,3-9.658-3.482-9.658-3.482Z" transform="translate(-105.651 -294.47)" fill="#00002f"/>
          </g>
          <g id="Top-3" data-name="Top">
            <path id="Chest-2" data-name="Chest" d="M168.006,238.471c-4.4-1.814-8.526-3.219-14.231-2.349-6.984,1.049-18.551,6.019-26.773,10.4s-9.291,7.792-14.745,29.363c-2.716,10.76-4.792,31.544-4.688,42.2,4.656,4.782,11.619,7.708,26.511,6.659,19.317-1.363,34.607-13.507,35.267-21.278-.461-3.534-2.443-13.4.189-21.928,3.062-9.879,4.719-15.552,5.537-22.673C175.787,252.608,175.137,241.4,168.006,238.471Z" transform="translate(-107.566 -191.396)" fill="#f0f0f0"/>
            <g id="Head-3" data-name="Head" transform="translate(29.929)">
              <path id="Tracé_1981" data-name="Tracé 1981" d="M141.9,235.848c.388-4.509-2.737-10.141-3.691-14.409s-1.29-7.225-.189-10.581c.65-1.992,2.632-4.394,4.289-4.583a9.711,9.711,0,0,1,9.952-9.921,31.461,31.461,0,0,0,4.446-.073c1.8-.252,2.506-1.468,4.111-2.244,2.769-1.321,6.586-.378,7.278,2.9,2-1.552,4.037-.975,6.292.241a4.2,4.2,0,0,1,1.9,5.359,3.649,3.649,0,0,1,3.146-.189,4.719,4.719,0,0,1,2.433,2.1c.566,1.049.294,2.622,1.751,2.957a1.8,1.8,0,0,0,1.646-.472,3.765,3.765,0,0,1-4.132,3.052,5.034,5.034,0,0,1,1.657,3.566,2.926,2.926,0,0,1-2.37,2.852,2.632,2.632,0,0,1-.241,2.737,3.041,3.041,0,0,1-3.052.776,6.418,6.418,0,0,1-4.772,4.31c-3.587.682-7.246.262-10.864.073l-4.3-.21c-.241,0-1.5-.262-1.7-.094Z" transform="translate(-136.046 -193.46)" fill="#01011c"/>
              <path id="Tracé_1982" data-name="Tracé 1982" d="M138.187,228.167a4.31,4.31,0,0,0,5.128,1.185l-3.4,12.259c1.363,7.991,10.99,17,16.5,19.139,1.216-3.23,1.175-11.043.912-14.682l.87-2.265a42.178,42.178,0,0,0,5.243,1.112c3.513.419,6.775-1.657,8.694-5.076a39.326,39.326,0,0,0,4.195-14.43,13.162,13.162,0,0,1,.745-3.6,17.178,17.178,0,0,0,.933-7.907c-2.936-3.975-11.294-7.246-20.607-4.457-.315,5.034-3.146,8.389-7.11,9.249-.178,1.332-.87,4.635-2.978,4.027-1.51-.44-1.122-2.391-2.244-4.488s-4.677-3.513-6.743-1.384a8.526,8.526,0,0,0-.136,11.315Z" transform="translate(-136.106 -192.733)" fill="#ffa8a7"/>
              <path id="Tracé_1983" data-name="Tracé 1983" d="M162.12,244.684a7.76,7.76,0,0,0,4.467-1.049,9.91,9.91,0,0,0,3.345-3.146,22.452,22.452,0,0,0,2.1-4.132,46.018,46.018,0,0,0,2.464-8.966c.126-.766.21-1.531.283-2.307a13.9,13.9,0,0,1,.388-2.349c.189-.776.514-1.51.755-2.234a14.062,14.062,0,0,0,.566-2.244,26.614,26.614,0,0,0,.22-4.667,23.428,23.428,0,0,1,.063,4.7,14.462,14.462,0,0,1-.493,2.318c-.231.766-.524,1.479-.682,2.234a18.437,18.437,0,0,0-.315,2.286c-.063.787-.147,1.573-.262,2.349a43.471,43.471,0,0,1-.975,4.614,41.544,41.544,0,0,1-1.531,4.467,19.789,19.789,0,0,1-2.2,4.195,10.245,10.245,0,0,1-3.576,3.146A7.645,7.645,0,0,1,162.12,244.684Z" transform="translate(-134.84 -192.48)" fill="#f28f8f"/>
              <path id="Tracé_1984" data-name="Tracé 1984" d="M169.071,230.1l-5.4.8.745-10.938C166.281,221.365,167.907,225.549,169.071,230.1Z" transform="translate(-134.764 -192.17)" fill="#f28f8f"/>
              <path id="Tracé_1985" data-name="Tracé 1985" d="M157.124,232.982a3.229,3.229,0,0,0,.189.587A2.674,2.674,0,0,0,159.074,235a2.1,2.1,0,0,0,1.814-.346.514.514,0,0,0-.126-.891,4.95,4.95,0,0,1-1.919-1.709c-.231-.346-.818-1.049-1.3-.776a1.646,1.646,0,0,0-.419,1.709Z" transform="translate(-135.087 -191.623)" fill="#b16668"/>
              <path id="Tracé_1986" data-name="Tracé 1986" d="M159.875,235.014a1.626,1.626,0,0,0,.944-.388.514.514,0,0,0-.126-.891,4.95,4.95,0,0,1-1.919-1.709,2.76,2.76,0,0,0-.252-.325,1.019,1.019,0,0,1-.052.388,3.513,3.513,0,0,0,1.405,2.926Z" transform="translate(-135.018 -191.599)" fill="#f28f8f"/>
              <path id="Tracé_1987" data-name="Tracé 1987" d="M157.762,242.9c-5.243-2.034-9.134-3.681-10.917-8.306a34.607,34.607,0,0,1-1.583-7.2,27.066,27.066,0,0,0,.22,8.578c.7,2.842,3.146,6.292,11.41,9.2Z" transform="translate(-135.672 -191.809)" fill="#f28f8f"/>
              <path id="Tracé_1988" data-name="Tracé 1988" d="M160.087,223.7a2.968,2.968,0,0,1-.787.241,3.324,3.324,0,0,1-.912,0,3.984,3.984,0,0,1-.849-.262,2.873,2.873,0,0,1-.44-.22,1.28,1.28,0,0,1-.325-.3c-.052-.063-.084.073-.073.1a2.192,2.192,0,0,0,1.6,1.049,2.1,2.1,0,0,0,1.049,0,1.437,1.437,0,0,0,.734-.608S160.161,223.7,160.087,223.7Z" transform="translate(-135.104 -192.016)" fill="#f28f8f"/>
              <path id="Tracé_1989" data-name="Tracé 1989" d="M171.713,225.487a.8.8,0,0,1-.22,0l-.22.052a2.306,2.306,0,0,1-.388.073,2.465,2.465,0,0,1-.828-.063,3.712,3.712,0,0,1-.912-.346,8.4,8.4,0,0,1-.682-.524s-.063,0-.052.073a2.328,2.328,0,0,0,1.688,1.216,2.8,2.8,0,0,0,.933.052.776.776,0,0,0,.692-.493S171.755,225.467,171.713,225.487Z" transform="translate(-134.534 -191.941)" fill="#f28f8f"/>
              <path id="Tracé_1990" data-name="Tracé 1990" d="M163.822,214.924a1.2,1.2,0,0,0-.608-.451,1.646,1.646,0,0,0-.388-.052.651.651,0,0,0-.2,0,.136.136,0,0,0-.126.084.157.157,0,0,0,0,.136.293.293,0,0,0,.136,0h.2a1.2,1.2,0,0,1,.315.094l.115.063h0a.975.975,0,0,1,.052.1h0v.147h0v.2l-.1.241a.2.2,0,0,0,0,.084v.241c0,.063.063.2.147.178a.723.723,0,0,0,.178-.1.378.378,0,0,0,.147-.1.629.629,0,0,0,.084-.084c0-.052.052-.115.084-.168a.921.921,0,0,0,0-.157,1.049,1.049,0,0,0-.031-.451Z" transform="translate(-134.822 -192.44)" fill="#f28f8f"/>
              <path id="Tracé_1991" data-name="Tracé 1991" d="M169.759,215.7a1.175,1.175,0,0,1,.713.273,1.384,1.384,0,0,1,.252.3.954.954,0,0,1,.094.178.147.147,0,0,1,0,.157.157.157,0,0,1-.136,0c-.052,0-.073,0-.1-.094a.9.9,0,0,1-.136-.147,2.4,2.4,0,0,0-.241-.22h-.556v.052l-.094.1-.147.21-.063.063h-.052l-.126.126c-.063,0-.21.063-.231,0a.7.7,0,0,1,0-.21.441.441,0,0,1,0-.168v-.115a.567.567,0,0,1,.094-.157.671.671,0,0,1,.1-.136,1.049,1.049,0,0,1,.629-.22Z" transform="translate(-134.509 -192.378)" fill="#f28f8f"/>
              <path id="Tracé_1992" data-name="Tracé 1992" d="M155.12,223.086c.126.86.933-.545,2-.7s2,1,1.888.147a2.013,2.013,0,0,0-3.891.556Z" transform="translate(-135.181 -192.109)" fill="#01011c"/>
              <path id="Tracé_1993" data-name="Tracé 1993" d="M169.655,223.385c-.535.682.965.231,1.741.828s.545,2.024,1.049,1.342a1.793,1.793,0,0,0-2.821-2.171Z" transform="translate(-134.478 -192.03)" fill="#01011c"/>
              <path id="Tracé_1994" data-name="Tracé 1994" d="M170.09,217.23l2.517,2.884a1.835,1.835,0,0,1-2.664-.126,1.982,1.982,0,0,1,.147-2.758Z" transform="translate(-134.483 -192.303)" fill="#01011c"/>
              <path id="Tracé_1995" data-name="Tracé 1995" d="M162.057,215.56l-3.607,1.447a1.867,1.867,0,0,0,2.464,1.112A2.034,2.034,0,0,0,162.057,215.56Z" transform="translate(-135.018 -192.385)" fill="#263238"/>
            </g>
            <path id="Tracé_1996" data-name="Tracé 1996" d="M135.764,303.831a141.886,141.886,0,0,0,21.5,6,7.068,7.068,0,0,0,6.292-1.29c3.146-2.234,8.389-2.391,11.766-3.607,2.622-.944,3.828-2.1,4.31-1.573a2.643,2.643,0,0,1,.136,3.9c-1.049,1.332-3.587,2.685-5.107,3.429a15.1,15.1,0,0,0-2.3,1.049c-.975.734,0,1.185.7,1.426a15.728,15.728,0,0,0,4.048.461,29.657,29.657,0,0,0,6.177-.115c3.4-.545,6.575-2.265,10.015-2.5a4.719,4.719,0,0,1,1.94.315,1.562,1.562,0,0,1,1.049,1.625c-.545.818-1.049.849-2.706,1.814a6.134,6.134,0,0,0-.2,1.164,3.471,3.471,0,0,1-1.447,2.244,5.693,5.693,0,0,0-1.049.734,4.362,4.362,0,0,0-.745,1.573c-.818,2.1-2.852,3.314-4.792,4.383a37.966,37.966,0,0,1-4.541,2.234,11.231,11.231,0,0,1-2.443.776c-4.195.577-10.487-.524-18.121-2.475s-24.6-2.422-32.394-3.293c-10.571-1.185-10.487-3.649-11.955-11.452-.954-5.243-2.171-21.918-3.2-31.66-1.563-14.755.283-20.009,8.243-25.368,4.719,1.206,11.536,9.04,12.8,26.584S135.764,303.831,135.764,303.831Z" transform="translate(-107.341 -190.531)" fill="#ffa8a7"/>
            <path id="Tracé_1997" data-name="Tracé 1997" d="M180.93,314.541c3.02-.241,6.04-.755,9.134-1.1" transform="translate(-103.995 -187.619)" fill="#f28f8f"/>
            <path id="Tracé_1998" data-name="Tracé 1998" d="M180.93,314.541c1.51-.325,3.02-.566,4.541-.776a31.78,31.78,0,0,1,4.593-.325,41.941,41.941,0,0,1-4.53.839,25.973,25.973,0,0,1-4.6.262Z" transform="translate(-103.995 -187.619)" fill="#f28f8f"/>
            <line id="Ligne_6" data-name="Ligne 6" y1="1.038" x2="6.124" transform="translate(76.505 129.229)" fill="#f28f8f"/>
            <path id="Tracé_1999" data-name="Tracé 1999" d="M180.52,317.729a18.657,18.657,0,0,1,6.124-1.049,18.656,18.656,0,0,1-6.124,1.049Z" transform="translate(-104.015 -187.461)" fill="#f28f8f"/>
            <path id="Tracé_2000" data-name="Tracé 2000" d="M122.876,248.38c-5.432,2.171-8.389,4.488-10.4,9.438s-1.531,7.341-1.531,18.226c11.116,1.049,16.58.745,25.168-1.93l-1.2-5.359C133.5,260.954,129.158,252.4,122.876,248.38Z" transform="translate(-107.404 -190.787)" fill="#f0f0f0"/>
            <path id="Tracé_2001" data-name="Tracé 2001" d="M166.35,242.06c7.425.787,11.452,1.951,16.422,8.767s23.218,37.312,23.218,37.312l-16.129,10.487L171.1,270.312Z" transform="translate(-104.704 -191.094)" fill="#f28f8f"/>
            <path id="Tracé_2002" data-name="Tracé 2002" d="M178.691,312.269a16.265,16.265,0,0,0-10.088.357c-1.437.524-3.2,1.185-5.306,2.034-7.54,3.02-7.267,2.548-4.9,4.625,1.646,1.447,6.67,1.6,7.634,2.831s7.54.189,7.54.189,6.764-3.4,6.858-3.681,1.646-5.38,1.646-5.38Z" transform="translate(-105.164 -187.707)" fill="#f28f8f"/>
            <path id="Tracé_2003" data-name="Tracé 2003" d="M189.176,295.342a124.789,124.789,0,0,1-10.9,16.38,8.954,8.954,0,0,1-1.531,1.552,6,6,0,0,1-3.419,1.206c-3.377.3-7.005,3.251-9.931,4.363-2.286.87-3.733.818-3.775,1.426a2.328,2.328,0,0,0,2.1,2.685,15.47,15.47,0,0,0,5.38-.65,12.7,12.7,0,0,1,2.1-.629c1.049-.073.7.776.346,1.353a13.445,13.445,0,0,1-2.433,2.632,25.535,25.535,0,0,1-4.195,3.471c-2.58,1.594-5.684,2.265-8.117,4.1a4.111,4.111,0,0,0-1.112,1.321,1.384,1.384,0,0,0,.231,1.7c.839.231,1.2-.052,2.842-.357a7.03,7.03,0,0,1,.808.671,3.02,3.02,0,0,0,2.255.661,5.1,5.1,0,0,1,1.122-.115,4.089,4.089,0,0,1,1.405.619c1.72.912,3.807.577,5.715.178a34.246,34.246,0,0,0,4.31-1.122,9.587,9.587,0,0,0,2.1-.881c3.146-2,6.691-6.366,10.676-12.07s15.017-15.73,19.715-20.806c6.376-6.869,6.292-9.365,2.706-15.395-2.37-4.027-9.942-16.192-14.849-23.281-7.446-10.749-14.2-12-22.589-11-2.464,3.513-2.527,12.679,6.733,25.105S189.176,295.342,189.176,295.342Z" transform="translate(-105.33 -190.558)" fill="#ffa8a7"/>
            <path id="Tracé_2004" data-name="Tracé 2004" d="M166.35,241.7c5.883.755,8.452,1.248,11.536,3.733s11.976,14,11.976,14c-4.824,6.974-11.934,10.13-19.065,11.724l-4.446-4.593Z" transform="translate(-104.704 -191.112)" fill="#f0f0f0"/>
          </g>
        </g>
        <path id="Tracé_2005" data-name="Tracé 2005" d="M142.668,204.55s28.944,5.18,39.514,6a4.467,4.467,0,0,1,.357,2.328c-1.049,5.631-4.614,7.907-5.485,8.389,0,0-39.535-5.16-39.724-6.386a11.378,11.378,0,0,1,1.353-5.736A23.386,23.386,0,0,1,142.668,204.55Z" transform="translate(-31.224 -192.921)" fill="#fff" stroke="#222221" stroke-miterlimit="10" stroke-width="0.25"/>
        <path id="Tracé_2006" data-name="Tracé 2006" d="M139.94,207s23.931,6.292,42.283,6.68" transform="translate(-31.097 -192.801)" fill="none" stroke="#222221" stroke-miterlimit="10" stroke-width="0.25"/>
        <path id="Tracé_2007" data-name="Tracé 2007" d="M137.88,210.45s24.487,6.292,42.849,6.7" transform="translate(-31.197 -192.633)" fill="none" stroke="#222221" stroke-miterlimit="10" stroke-width="0.25"/>
      </g>
      <g id="Table" transform="translate(284.599 227.384)">
        <g id="Table-2" data-name="Table" transform="translate(0 38.258)">
          <g id="Table-3" data-name="Table">
            <path id="Tracé_2008" data-name="Tracé 2008" d="M335.337,341.693a.975.975,0,0,0-.64-.724,2.989,2.989,0,0,0-2.7.273.975.975,0,0,0-.482.829l6.649,49.645h0a.692.692,0,0,0,.451.493,2.1,2.1,0,0,0,1.9-.178.713.713,0,0,0,.346-.577h0Z" transform="translate(-278.294 -310.829)" fill="#545454"/>
            <path id="Tracé_2009" data-name="Tracé 2009" d="M334.7,341.009a2.989,2.989,0,0,0-2.7.273.975.975,0,0,0-.482.828l1.3,9.7a11.777,11.777,0,0,0,3.419-1.961l-.9-8.117a.975.975,0,0,0-.64-.724Z" transform="translate(-278.294 -310.827)" fill="#232323"/>
            <path id="Tracé_2010" data-name="Tracé 2010" d="M292.116,341.693a.975.975,0,0,1,.629-.724,2.989,2.989,0,0,1,2.7.273.923.923,0,0,1,.482.828l-6.638,49.645h0a.65.65,0,0,1-.44.493,2.1,2.1,0,0,1-1.909-.178.7.7,0,0,1-.336-.577h0Z" transform="translate(-280.481 -310.829)" fill="#545454"/>
            <path id="Tracé_2011" data-name="Tracé 2011" d="M292.531,341.009a2.989,2.989,0,0,1,2.7.273.923.923,0,0,1,.482.828l-1.237,9.291a12.082,12.082,0,0,1-3.471-2l.86-7.729A.975.975,0,0,1,292.531,341.009Z" transform="translate(-280.267 -310.827)" fill="#232323"/>
            <path id="Tracé_2012" data-name="Tracé 2012" d="M315.488,350.781a.965.965,0,0,0-.566-.786,3,3,0,0,0-2.706,0,.965.965,0,0,0-.566.787l.566,49.9h0a.671.671,0,0,0,.4.535,2.1,2.1,0,0,0,1.909,0,.671.671,0,0,0,.4-.535h0Z" transform="translate(-279.261 -310.395)" fill="#545454"/>
            <path id="Tracé_2013" data-name="Tracé 2013" d="M315.425,355.257l.063-4.436a.965.965,0,0,0-.566-.786,3,3,0,0,0-2.706,0,.965.965,0,0,0-.566.786l.063,4.436Z" transform="translate(-279.261 -310.393)" fill="#232323"/>
            <g id="Table-4" data-name="Table">
              <path id="Tracé_2014" data-name="Tracé 2014" d="M349.372,332.709h0c0-5.065-3.314-10.13-10.015-14-13.392-7.739-35.12-7.739-48.512,0-6.7,3.87-10.025,8.935-10.015,14h0v2.727h0c.073,5,3.429,9.994,10.046,13.811,13.392,7.729,35.12,7.729,48.512,0,6.617-3.817,9.973-8.809,10.046-13.811h0Z" transform="translate(-280.762 -312.185)" fill="#232323"/>
              <path id="Tracé_2015" data-name="Tracé 2015" d="M290.817,318.019c-13.4,7.739-13.4,20.282,0,28.01s35.12,7.739,48.512,0,13.4-20.271,0-28.01S304.208,310.29,290.817,318.019Z" transform="translate(-280.765 -312.219)" fill="#232323"/>
              <path id="Tracé_2016" data-name="Tracé 2016" d="M290.817,318.019c-13.4,7.739-13.4,20.282,0,28.01s35.12,7.739,48.512,0,13.4-20.271,0-28.01S304.208,310.29,290.817,318.019Z" transform="translate(-280.765 -312.219)" fill="#fff" opacity="0.6"/>
            </g>
          </g>
        </g>
        <g id="Briefcase" transform="translate(6.759)">
          <path id="Tracé_2017" data-name="Tracé 2017" d="M287.21,302.052v34.261c0,1.657,1.175,2.622,2.611,3.461l3.607,2.1a3.461,3.461,0,0,0,2.81.556,7.626,7.626,0,0,0,1.919-.8.158.158,0,0,0,.073,0l.2-.115,36.8-21.3a8.7,8.7,0,0,0,4.342-7.53v-31.2a2.454,2.454,0,0,0-1.122-1.94l-6.114-3.534a2.4,2.4,0,0,0-2.234,0l-41.769,24.12a2.244,2.244,0,0,0-.8.828,2.3,2.3,0,0,0-.325,1.091Z" transform="translate(-287.21 -275.737)" fill="#606060"/>
          <path id="Tracé_2018" data-name="Tracé 2018" d="M287.21,300.881v34.261c0,1.657,1.175,2.622,2.611,3.461l3.607,2.1a3.461,3.461,0,0,0,2.81.556,7.626,7.626,0,0,0,1.919-.8h0c-1.437.671-2.559-.073-2.559-1.772v-32.3a3.335,3.335,0,0,1,.493-1.667l-8.557-4.939a2.3,2.3,0,0,0-.325,1.1Z" transform="translate(-287.21 -274.567)" fill="#232323"/>
          <path id="Tracé_2019" data-name="Tracé 2019" d="M295.2,307.292a3.733,3.733,0,0,1,1.7-2.926l39.483-22.8c1.563-.9,2.831-.168,2.831,1.636v29.248a8.7,8.7,0,0,1-4.354,7.541l-36.828,21.256c-1.563.9-2.842.168-2.842-1.636Z" transform="translate(-286.821 -275.472)" fill="#545454"/>
          <path id="Tracé_2020" data-name="Tracé 2020" d="M300.453,308.147a4.856,4.856,0,0,0-.7,2.234v24.33l32.7-18.876a5.411,5.411,0,0,0,2.286-3.964V287.54l-32.7,18.876a4.929,4.929,0,0,0-1.584,1.73Z" transform="translate(-286.599 -275.163)" fill="#fff" opacity="0.3"/>
          <path id="Tracé_2021" data-name="Tracé 2021" d="M334.173,277.08l-41.843,24.4a3.922,3.922,0,0,0-1.951,3.377v35.267l.64.367V304.839a3.282,3.282,0,0,1,1.625-2.821l42.168-24.592Z" transform="translate(-287.056 -275.672)" fill="#66b3e3"/>
          <path id="Tracé_2022" data-name="Tracé 2022" d="M290.9,301.72a3.869,3.869,0,0,0-.524,1.94v35.267l.64.367V303.639a3.261,3.261,0,0,1,.44-1.625Z" transform="translate(-287.056 -274.472)" opacity="0.2"/>
          <path id="Tracé_2023" data-name="Tracé 2023" d="M291.436,303.214a3.241,3.241,0,0,1,1.185-1.2l42.168-24.592-.64-.367-41.843,24.4a3.9,3.9,0,0,0-1.426,1.437" transform="translate(-287.031 -275.673)" opacity="0.2"/>
          <path id="Tracé_2024" data-name="Tracé 2024" d="M318,281.3v5.306l2.1,1.2v-7.047c0-.367-.262-.5-.577-.325Z" transform="translate(-285.711 -275.512)" fill="#66b3e3"/>
          <path id="Tracé_2025" data-name="Tracé 2025" d="M318,281.3v5.306l2.1,1.2v-7.047c0-.367-.262-.5-.577-.325Z" transform="translate(-285.711 -275.512)" opacity="0.4"/>
          <path id="Tracé_2026" data-name="Tracé 2026" d="M304.06,286.711V295.3l1.982,1.143,1.332-.776V288.63a1.269,1.269,0,0,1,.566-.986l10.109-5.841,2.1-1.206a.358.358,0,0,1,.577.325v7.047l1.332-.776v-8.578a.431.431,0,0,0,0-.115,1.258,1.258,0,0,0-.566-.87l-.839-.493a1.269,1.269,0,0,0-1.133,0l-14.881,8.589a1.248,1.248,0,0,0-.577.986Z" transform="translate(-286.39 -275.676)" fill="#66b3e3"/>
          <path id="Tracé_2027" data-name="Tracé 2027" d="M306,287.8v8.589l1.332-.776v-7.037a1.269,1.269,0,0,1,.566-.986l10.109-5.841,2.1-1.206a.357.357,0,0,1,.577.325v7.047l1.332-.776v-8.578a.433.433,0,0,0,0-.115c0-.283-.283-.378-.566-.22l-14.87,8.589a1.3,1.3,0,0,0-.577.986Z" transform="translate(-286.295 -275.62)" opacity="0.2"/>
          <path id="Tracé_2028" data-name="Tracé 2028" d="M318.965,297.431c-5.118,3.618-8.589,11.536-7.739,17.649s5.694,8.169,10.812,4.551a14.811,14.811,0,0,0,2.475-2.213c-4.646,2.737-8.861.671-9.637-4.939s2.1-12.584,6.554-16.37a10.708,10.708,0,0,0-2.464,1.321" transform="translate(-286.047 -274.745)" fill="#fff"/>
        </g>
      </g>
    </g>
  </g>
</svg>
