<svg xmlns="http://www.w3.org/2000/svg" xmlns:xlink="http://www.w3.org/1999/xlink" width="1066.422" height="902.775" viewBox="0 0 1066.422 902.775">
  <defs>
    <filter id="Rectangle_2127" x="521" y="46.635" width="494.61" height="805.14" filterUnits="userSpaceOnUse">
      <feOffset input="SourceAlpha"/>
      <feGaussianBlur stdDeviation="6" result="blur"/>
      <feFlood flood-color="#dfdfdf" flood-opacity="0.231" result="color"/>
      <feComposite operator="out" in="SourceGraphic" in2="blur"/>
      <feComposite operator="in" in="color"/>
      <feComposite operator="in" in2="SourceGraphic"/>
    </filter>
    <clipPath id="clip-path">
      <rect id="Rectangle_2124" data-name="Rectangle 2124" width="495.108" height="805.14" rx="6" fill="#e8eff7" opacity="0.37"/>
    </clipPath>
  </defs>
  <g id="Groupe_252" data-name="Groupe 252" transform="translate(90 -2.475)">
    <g id="latérale" transform="translate(-241.592 -1626.889)">
      <text id="aide-soignante" transform="translate(302.592 2477.363) rotate(-90)" fill="#09a4f4" font-size="140" font-family="SegoeUI-Bold, Segoe UI" font-weight="700" opacity="0.09"><tspan x="0" y="0">AIDE-</tspan><tspan x="0" y="147">SOIGNANTS </tspan></text>
    </g>
    <g id="aide-soignant" transform="translate(420.204 -20.838)">
      <rect id="Rectangle_2128" data-name="Rectangle 2128" width="514.422" height="771.354" rx="54" transform="translate(-9.204 103.733)" fill="rgba(162,162,162,0.22)" opacity="0.3"/>
      <g data-type="innerShadowGroup">
        <rect id="Rectangle_2127-2" data-name="Rectangle 2127" width="494.61" height="805.14" rx="54" transform="translate(10.796 69.947)" fill="#fff"/>
        <g transform="matrix(1, 0, 0, 1, -510.2, 23.31)" filter="url(#Rectangle_2127)">
          <rect id="Rectangle_2127-3" data-name="Rectangle 2127" width="494.61" height="805.14" rx="54" transform="translate(521 46.63)" fill="#fff"/>
        </g>
      </g>
      <g id="Groupe_de_masques_27" data-name="Groupe de masques 27" transform="translate(9.796 69.947)" clip-path="url(#clip-path)">
        <g id="aide_soignante2_illustration" data-name="aide soignante2 illustration" transform="translate(-84.57 127.575)">
          <g id="Background_Simple" data-name="Background Simple" transform="translate(51.904 0)">
            <path id="Tracé_265" data-name="Tracé 265" d="M515.3,91.753S436.963,25.308,315.5,22.807,137.916,85.494,141.871,149.425,34.816,247.214,28.284,313.659,66.151,459.078,134.044,472.931s65.288,33.858,129.268,68.959,138.39,56.416,194.542,31.344,69.2-70.216,125.4-116.59,73.115-166.708,39.176-241.964S515.3,91.753,515.3,91.753Z" transform="translate(-27.649 -22.737)" fill="#09a4f4"/>
            <g id="Groupe_5" data-name="Groupe 5" opacity="0.7">
              <path id="Tracé_266" data-name="Tracé 266" d="M515.3,91.753S436.963,25.308,315.5,22.807,137.916,85.494,141.871,149.425,34.816,247.214,28.284,313.659,66.151,459.078,134.044,472.931s65.288,33.858,129.268,68.959,138.39,56.416,194.542,31.344,69.2-70.216,125.4-116.59,73.115-166.708,39.176-241.964S515.3,91.753,515.3,91.753Z" transform="translate(-27.649 -22.737)" fill="#fff"/>
            </g>
          </g>
          <g id="Floor" transform="translate(0 573.24)">
            <rect id="Rectangle_19" data-name="Rectangle 19" width="722.632" height="1.323" fill="#263238"/>
          </g>
          <g id="Windows" transform="translate(56.233 21.993)">
            <path id="Tracé_267" data-name="Tracé 267" d="M31.479,332.938a.689.689,0,0,1-.689-.662V40.022a.676.676,0,0,1,.689-.662h187.68a.676.676,0,0,1,.689.662V152.4a.69.69,0,0,1-1.378,0V40.683H32.168V332.276A.676.676,0,0,1,31.479,332.938Z" transform="translate(-30.79 -39.36)" fill="#263238"/>
            <path id="Tracé_268" data-name="Tracé 268" d="M219.159,333.238H31.479a.676.676,0,0,1-.689-.662V312.73a.69.69,0,0,1,1.378,0v19.211H218.484V132.832a.676.676,0,0,1,.689-.662.689.689,0,0,1,.689.662V332.616A.678.678,0,0,1,219.159,333.238Z" transform="translate(-30.79 -9.375)" fill="#263238"/>
            <path id="Tracé_269" data-name="Tracé 269" d="M365.959,363.223H178.279a.676.676,0,0,1-.689-.662V40.022a.676.676,0,0,1,.689-.662h187.68a.676.676,0,0,1,.689.662V62.514a.689.689,0,0,1-.689.662.676.676,0,0,1-.689-.662V40.683h-186.3V361.9h186.3V74.792a.69.69,0,0,1,1.378,0V362.561A.676.676,0,0,1,365.959,363.223Z" transform="translate(24.696 -39.36)" fill="#263238"/>
            <path id="Tracé_270" data-name="Tracé 270" d="M512.745,363.223H325.079a.676.676,0,0,1-.689-.662V40.022a.676.676,0,0,1,.689-.662H512.745a.676.676,0,0,1,.689.662V179.858a.69.69,0,0,1-1.378,0V40.683H325.768V361.9H512.056V192.162a.689.689,0,0,1,.689-.662.676.676,0,0,1,.689.662v170.4A.676.676,0,0,1,512.745,363.223Z" transform="translate(80.183 -39.36)" fill="#263238"/>
            <path id="Tracé_271" data-name="Tracé 271" d="M52.587,153.884a.761.761,0,0,1-.482-.185.656.656,0,0,1,0-.939l18.134-17.412a.709.709,0,0,1,.978,0,.656.656,0,0,1,0,.939L53.083,153.7A.762.762,0,0,1,52.587,153.884Z" transform="translate(-22.809 -8.412)" fill="#263238"/>
            <path id="Tracé_272" data-name="Tracé 272" d="M70.4,158.408a.761.761,0,0,1-.482-.185.643.643,0,0,1,0-.939L183.309,48.408a.709.709,0,0,1,.978,0,.618.618,0,0,1,0,.926L70.894,158.223A.762.762,0,0,1,70.4,158.408Z" transform="translate(-16.079 -36.5)" fill="#263238"/>
            <path id="Tracé_273" data-name="Tracé 273" d="M46.47,177.484a.718.718,0,0,1-.5-.2.656.656,0,0,1,0-.939l40.347-38.74a.724.724,0,0,1,.978,0,.643.643,0,0,1,0,.939l-40.347,38.74A.7.7,0,0,1,46.47,177.484Z" transform="translate(-25.126 -7.68)" fill="#263238"/>
            <path id="Tracé_274" data-name="Tracé 274" d="M196.28,184.711a.761.761,0,0,1-.5-.185.656.656,0,0,1,0-.939l59.625-57.21a.7.7,0,0,1,.965,0,.637.637,0,0,1,0,.926L196.79,184.526A.734.734,0,0,1,196.28,184.711Z" transform="translate(31.498 -11.309)" fill="#263238"/>
            <path id="Tracé_275" data-name="Tracé 275" d="M406.7,242.665a.762.762,0,0,1-.5-.185.656.656,0,0,1,0-.939l7.606-7.3a.712.712,0,0,1,.978,0,.646.646,0,0,1,0,.939l-7.606,7.3A.733.733,0,0,1,406.7,242.665Z" transform="translate(111.031 23.538)" fill="#263238"/>
            <path id="Tracé_276" data-name="Tracé 276" d="M417.581,241.229a.761.761,0,0,1-.5-.185.655.655,0,0,1,0-.939l47.885-45.977a.712.712,0,0,1,.978,0,.646.646,0,0,1,0,.939l-47.885,45.977A.733.733,0,0,1,417.581,241.229Z" transform="translate(115.144 10.579)" fill="#263238"/>
            <path id="Tracé_277" data-name="Tracé 277" d="M439.04,201.272a.7.7,0,0,1-.482-.2.618.618,0,0,1,0-.926l15.488-14.871a.71.71,0,0,1,.965,0,.643.643,0,0,1,0,.939l-15.475,14.858A.718.718,0,0,1,439.04,201.272Z" transform="translate(123.256 7.721)" fill="#263238"/>
            <path id="Tracé_278" data-name="Tracé 278" d="M374.348,90.082a.662.662,0,0,1-.482-.185.643.643,0,0,1,0-.939l40.816-39.19a.709.709,0,0,1,.978,0,.656.656,0,0,1,0,.939L374.83,89.9a.648.648,0,0,1-.482.185Z" transform="translate(98.806 -36.061)" fill="#263238"/>
            <path id="Tracé_279" data-name="Tracé 279" d="M365.84,80.074a.661.661,0,0,1-.482-.2.618.618,0,0,1,0-.926l14.069-13.522a.712.712,0,0,1,.978,0,.646.646,0,0,1,0,.939L366.322,79.876a.661.661,0,0,1-.482.2Z" transform="translate(95.588 -31.001)" fill="#263238"/>
            <path id="Tracé_280" data-name="Tracé 280" d="M603.125,304.213H85.669a.662.662,0,1,1,0-1.323H603.125a.689.689,0,0,1,.689.662A.676.676,0,0,1,603.125,304.213Z" transform="translate(-10.308 45.781)" fill="#263238"/>
            <path id="Tracé_281" data-name="Tracé 281" d="M95.038,304.213H32.189a.662.662,0,1,1,0-1.323H95.038a.689.689,0,0,1,.689.662A.676.676,0,0,1,95.038,304.213Z" transform="translate(-30.522 45.781)" fill="#263238"/>
          </g>
          <g id="Plant" transform="translate(65.063 311.434)">
            <path id="Tracé_289" data-name="Tracé 289" d="M104.451,325.385h0a.141.141,0,0,0,0-.162.155.155,0,0,0-.157-.06.148.148,0,0,0-.117.117A176.723,176.723,0,0,0,94.268,355.1a267.2,267.2,0,0,0-5.512,30.92l-.785,7.819c-.11,1.323-.262,2.646-.358,3.969l-.221,3.969c-.124,2.646-.289,5.226-.372,7.846l.083,7.859.083,3.969c0,1.323.165,2.646.262,3.969.207,2.646.372,5.213.62,7.819.524,5.213,1.378,10.386,2.177,15.546a.136.136,0,0,0,.138.119.14.14,0,0,0,.1-.043.129.129,0,0,0,.035-.1h0c0-2.646-.124-5.226-.193-7.833s-.3-5.2-.276-7.793,0-5.2-.083-7.806l-.083-3.89.083-3.89v-7.78l.221-7.78.083-3.89c0-1.323.165-2.646.234-3.89l.5-7.78a265.263,265.263,0,0,1,4.685-31.053,174.9,174.9,0,0,1,8.764-29.994Z" transform="translate(-18.367 -236.466)" fill="#263238"/>
            <path id="Tracé_290" data-name="Tracé 290" d="M103.574,356.134a.158.158,0,0,0-.1-.172.143.143,0,0,0-.111.008.133.133,0,0,0-.068.084,181.118,181.118,0,0,0-5.774,19.806,177.166,177.166,0,0,0-3.4,20.309c-.717,6.814-1.516,13.628-1.612,20.481a162.387,162.387,0,0,0,.7,20.494.149.149,0,0,0,.124.119.142.142,0,0,0,.111-.024.131.131,0,0,0,.055-.1c.827-6.814,1.378-13.628,1.819-20.415s.565-13.614,1.033-20.415a195.341,195.341,0,0,1,7.165-40.182Z" transform="translate(-16.318 -226.516)" fill="#263238"/>
            <path id="Tracé_291" data-name="Tracé 291" d="M125.618,366.919a.142.142,0,0,0-.193,0,71.2,71.2,0,0,0-15.75,13.112,61.437,61.437,0,0,0-6.132,8.2l-1.268,2.289-.992,2.381a19.306,19.306,0,0,0-.854,2.408c-.262.807-.537,1.614-.772,2.434A93.5,93.5,0,0,0,96.4,417.593a110.746,110.746,0,0,0,.868,20.1.122.122,0,0,0,.124.119.164.164,0,0,0,.165-.132l1.778-19.846a171.42,171.42,0,0,1,2.618-19.568c.193-.794.427-1.574.648-2.368a19.251,19.251,0,0,1,.717-2.342l.841-2.289,1.075-2.17a58.43,58.43,0,0,1,5.636-8.2A69.578,69.578,0,0,1,125.631,367.1h0a.129.129,0,0,0-.014-.185Z" transform="translate(-14.867 -222.986)" fill="#263238"/>
            <path id="Tracé_292" data-name="Tracé 292" d="M112.941,386.18a22.2,22.2,0,0,0-7.152,8.243,47.458,47.458,0,0,0-4,10.108,24.527,24.527,0,0,0-.7,2.646l-.648,2.646a44.22,44.22,0,0,0-.7,5.358q0,2.7,0,5.4a46.828,46.828,0,0,0,.73,5.359.163.163,0,0,0,.124.106.142.142,0,0,0,.106-.019.132.132,0,0,0,.059-.087,44.923,44.923,0,0,0,.992-5.292c.289-1.746.579-3.48.785-5.213s.51-3.453.648-5.2a34.259,34.259,0,0,1,.785-5.173,44.918,44.918,0,0,1,3.059-10.016,22.13,22.13,0,0,1,5.994-8.6h0a.141.141,0,0,0,0-.185A.135.135,0,0,0,112.941,386.18Z" transform="translate(-13.559 -216.751)" fill="#263238"/>
            <path id="Tracé_293" data-name="Tracé 293" d="M89.293,420.336c-.772-8.812-2.287-17.531-3.721-26.237s-3-17.412-4.671-26.091S77.388,350.7,75.39,342.076a.166.166,0,0,0-.165-.106.146.146,0,0,0-.124.159c1.571,8.693,2.99,17.4,4.341,26.118s2.728,17.425,3.872,26.157,2,17.5,3.128,26.224L89.8,446.85a.146.146,0,0,0,.289-.013c.1-2.21.1-4.419.165-6.615s-.1-4.419-.138-6.615C90.037,429.148,89.638,424.742,89.293,420.336Z" transform="translate(-22.873 -231.035)" fill="#263238"/>
            <path id="Tracé_294" data-name="Tracé 294" d="M87.805,415.428c-.5-3.493-1.157-6.959-1.86-10.426l-1.282-5.134c-.427-1.72-.827-3.44-1.378-5.133a141.385,141.385,0,0,0-7-20.031l-1.1-2.421-1.226-2.368c-.772-1.6-1.722-3.122-2.6-4.657a39.29,39.29,0,0,0-6.628-8.428.138.138,0,0,0-.193.2h0a38.556,38.556,0,0,1,6.049,8.613c.8,1.575,1.64,3.109,2.329,4.723l1.075,2.408.951,2.448a137.617,137.617,0,0,1,6.118,20.031c.841,3.387,1.378,6.84,2.067,10.254l.868,5.173c.3,1.707.689,3.413.937,5.147.579,3.44,1.24,6.88,1.86,10.32s1.213,6.906,1.97,10.36a.165.165,0,0,0,.152.106.135.135,0,0,0,.138-.132q0-5.292-.262-10.585C88.618,422.427,88.191,418.921,87.805,415.428Z" transform="translate(-26.882 -226.246)" fill="#263238"/>
            <path id="Tracé_295" data-name="Tracé 295" d="M79.562,407.916a146.86,146.86,0,0,0-5.815-13.588,120.707,120.707,0,0,0-7.3-12.86.157.157,0,0,0-.193,0,.128.128,0,0,0,0,.185,116.977,116.977,0,0,1,6.242,13.231c1.86,4.512,3.541,9.076,4.947,13.72s2.411,9.3,3.638,14.025,2.439,9.354,3.941,14.077a.138.138,0,0,0,.276,0,68.011,68.011,0,0,0-1.378-14.66,88.961,88.961,0,0,0-4.354-14.13Z" transform="translate(-26.232 -218.284)" fill="#263238"/>
            <path id="Tracé_296" data-name="Tracé 296" d="M80.626,417.888a31.09,31.09,0,0,0-4.037-8.124,33.474,33.474,0,0,0-5.884-7.012,26.235,26.235,0,0,0-3.734-2.712,15.246,15.246,0,0,0-4.244-1.839.139.139,0,0,0-.161.089.131.131,0,0,0,.079.162h0a20.814,20.814,0,0,1,7.028,5.292,31.517,31.517,0,0,1,4.906,7.131c1.378,2.527,2.108,5.292,3.321,7.938.537,1.323,1.061,2.646,1.681,3.969a32.406,32.406,0,0,0,1.846,4.075h0a.152.152,0,0,0,.124.079.141.141,0,0,0,.106-.034.129.129,0,0,0,.045-.1,30.807,30.807,0,0,0-.165-4.512C81.315,420.825,81,419.357,80.626,417.888Z" transform="translate(-27.613 -212.868)" fill="#263238"/>
            <path id="Tracé_297" data-name="Tracé 297" d="M83.764,374.383a25.487,25.487,0,0,1-18.492-18.867c-3.472-15.546,7.7-8.878-2.315-33.315s-7.717-29.968-4.244-37.046,5.4-4.8,8.475,4.446,14.262,23.683,18.506,50.7S83.764,374.383,83.764,374.383Z" transform="translate(-30.186 -250.733)" fill="#07b5e7"/>
            <path id="Tracé_298" data-name="Tracé 298" d="M100.478,355.5s-10.018-3.321-10.4-21.46,7.317-14.435,8.475-37.046,2.756-38.488,6.89-38.859,15.42,11.1,19.292,36.266-5,41.822-12.719,49.218S100.478,355.5,100.478,355.5Z" transform="translate(-17.218 -258.123)" fill="#07b5e7"/>
            <path id="Tracé_299" data-name="Tracé 299" d="M83.577,381.59s-2.315-13.323-6.89-19.621S62.04,350.127,55.494,337.916,41.618,319.776,42,337.175s8.475,26.276,18.492,32.2S83.577,381.59,83.577,381.59Z" transform="translate(-35.387 -236.096)" fill="#07b5e7"/>
            <path id="Tracé_300" data-name="Tracé 300" d="M81.144,396.335S71.9,379.307,58.408,366.724s-24.239-18.867-20.435-12.582,8.475,5.928,15.034,17.028,4.589,19.3,13.876,25.535S81.144,396.335,81.144,396.335Z" transform="translate(-37.198 -227.898)" fill="#07b5e7"/>
            <path id="Tracé_301" data-name="Tracé 301" d="M78.646,406.816c-.386-1.111-.772-9.262-13.876-15.877s-25.437-4.075-23.894-.741,9.646,8.878,17.735,12.212S78.646,406.816,78.646,406.816Z" transform="translate(-35.858 -216.548)" fill="#07b5e7"/>
            <path id="Tracé_302" data-name="Tracé 302" d="M98.055,385.285s-5.774-7.039-2.756-21.844,10.032-11.1,17.735-18.867,6.228-8.891,13.876-17.041,14.648-12.582,17.734-9.262-1.543,13.694-6.173,19.608-11.947,8.891-15.42,16.287-1.929,19.251-10.79,24.794S98.055,385.285,98.055,385.285Z" transform="translate(-15.567 -239.05)" fill="#07b5e7"/>
            <path id="Tracé_303" data-name="Tracé 303" d="M111.05,381.8s13.876-15.162,23.894-26.276,13.876-19.608,14.262-12.212,3.473,13.323-4.63,22.955S111.05,381.8,111.05,381.8Z" transform="translate(-9.284 -231.5)" fill="#07b5e7"/>
            <path id="Tracé_304" data-name="Tracé 304" d="M105.73,398.269s-.386-5.927,21.593-19.621,31.211-16.287,28.937-10.73-11.961,11.1-22.365,21.09S105.73,398.269,105.73,398.269Z" transform="translate(-11.295 -223.535)" fill="#07b5e7"/>
            <path id="Tracé_305" data-name="Tracé 305" d="M82.265,369.715a.668.668,0,0,1-.675-.542c0-.265-5.223-26.739-10.541-45.368s-8.833-30.219-8.86-30.338a.658.658,0,0,1,.469-.82.708.708,0,0,1,.854.45c0,.119,3.528,11.7,8.86,30.365s10.514,45.21,10.569,45.474a.664.664,0,0,1-.551.767Z" transform="translate(-27.763 -246.978)" fill="#263238"/>
            <path id="Tracé_306" data-name="Tracé 306" d="M97.19,353.337h-.207a.67.67,0,0,1-.408-.318.625.625,0,0,1-.047-.5c.1-.291,9.384-28.936,12.4-46.083,2.756-15.52.248-27.467-1.378-35.366-.193-.9-.358-1.733-.524-2.527a.664.664,0,0,1,.551-.767.7.7,0,0,1,.512.1.647.647,0,0,1,.287.419c.165.794.344,1.627.524,2.514,1.681,8,4.134,20.084,1.378,35.842-3.059,17.2-12.4,45.977-12.484,46.308a.677.677,0,0,1-.606.384Z" transform="translate(-14.785 -255.01)" fill="#263238"/>
            <path id="Tracé_307" data-name="Tracé 307" d="M80.557,379.1a.68.68,0,0,1-.606-.344,140.413,140.413,0,0,0-14.124-19.317c-2.177-2.461-4.134-4.6-6.118-6.615-5.512-5.914-9.977-10.585-12.884-17.57a.625.625,0,0,1,0-.509.664.664,0,0,1,.384-.351.716.716,0,0,1,.528.007.675.675,0,0,1,.368.364c2.756,6.761,7.138,11.365,12.622,17.2,1.943,2.077,3.969,4.221,6.146,6.695A142.8,142.8,0,0,1,81.15,378.185a.626.626,0,0,1,.068.5.654.654,0,0,1-.33.4.632.632,0,0,1-.331.013Z" transform="translate(-33.58 -233.498)" fill="#263238"/>
            <path id="Tracé_308" data-name="Tracé 308" d="M97.24,384.112h-.083a.68.68,0,0,1-.448-.263.628.628,0,0,1-.117-.492c.124-.741,3.2-18.034,10.542-27.322,2.839-3.585,6.752-7.938,10.886-12.5,6.545-7.25,13.311-14.752,16.825-20.362a.672.672,0,0,1,.416-.309.7.7,0,0,1,.521.071.665.665,0,0,1,.315.41.639.639,0,0,1-.081.5c-3.569,5.716-10.376,13.231-16.963,20.561-4.134,4.565-8.006,8.878-10.831,12.437-7.138,9.023-10.238,26.554-10.28,26.726A.683.683,0,0,1,97.24,384.112Z" transform="translate(-14.752 -237.215)" fill="#263238"/>
            <path id="Tracé_309" data-name="Tracé 309" d="M73.873,405.518a.752.752,0,0,1-.372-.106c-.124-.079-13.049-8.137-22.158-12.516a.649.649,0,0,1-.3-.887.667.667,0,0,1,.4-.334.7.7,0,0,1,.526.043c9.177,4.406,22.158,12.5,22.3,12.583a.645.645,0,0,1,.193.913.668.668,0,0,1-.579.3Z" transform="translate(-31.994 -214.986)" fill="#263238"/>
            <path id="Tracé_310" data-name="Tracé 310" d="M105.456,478.544H88.438a7.454,7.454,0,0,1-6.89-4.379C76.037,461.41,61.21,424.589,70.125,414.15c8.488-9.936,45.087-9.936,53.576,0,8.915,10.439-5.884,47.26-11.437,60.015a7.422,7.422,0,0,1-6.807,4.379Z" transform="translate(-25.807 -210.122)" fill="#575757"/>
            <path id="Tracé_311" data-name="Tracé 311" d="M105.638,479.32H88.62a8.142,8.142,0,0,1-7.51-4.8c-6.394-14.739-20.325-50.145-11.3-60.637,4.85-5.676,17.294-7.7,27.325-7.7s22.475,2.011,27.325,7.7c9,10.585-4.933,45.937-11.327,60.676a8.144,8.144,0,0,1-7.5,4.763ZM97.15,407.463c-12.209,0-22.516,2.831-26.181,7.211-8.764,10.267,6.614,48.014,11.534,59.34a6.763,6.763,0,0,0,6.228,3.969h16.908a6.763,6.763,0,0,0,6.228-3.969c4.919-11.326,20.3-49.073,11.534-59.34-3.776-4.379-14.083-7.211-26.292-7.211Z" transform="translate(-25.989 -210.29)" fill="#263238"/>
          </g>
          <g id="Glass" transform="translate(265.939 320.949)">
            <path id="Tracé_282" data-name="Tracé 282" d="M239.422,286.4H214.93l2.448,35.017h19.581Z" transform="translate(-214.104 -285.665)" fill="#6ec2d9"/>
            <path id="Tracé_283" data-name="Tracé 283" d="M237.964,322.386H216.945L214.39,285.9h26.129Zm-19.581-1.469h18.159l2.341-33.548H216.027Z" transform="translate(-214.39 -285.9)" fill="#263238"/>
          </g>
          <g id="Table" transform="translate(121.022 355.981)">
            <rect id="Rectangle_20" data-name="Rectangle 20" width="29.158" height="192.008" transform="translate(117.977 36.78)" fill="#575757"/>
            <path id="Tracé_284" data-name="Tracé 284" d="M226.968,527.752H196.28V334.29h30.688Zm-29.158-1.469h27.628V335.759H197.81Z" transform="translate(-79.068 -298.244)" fill="#263238"/>
            <rect id="Rectangle_21" data-name="Rectangle 21" width="47.041" height="31.551" transform="translate(109.043 6.551)" fill="#575757"/>
            <path id="Tracé_285" data-name="Tracé 285" d="M239.011,346.73H190.44V313.71h48.571Zm-47.041-1.469h45.511V315.179H191.97Z" transform="translate(-82.161 -307.893)" fill="#263238"/>
            <rect id="Rectangle_22" data-name="Rectangle 22" width="210.239" height="7.462" transform="translate(27.444 6.551)" fill="#575757"/>
            <path id="Tracé_286" data-name="Tracé 286" d="M348.869,322.641H137.1V313.71H348.869ZM138.63,321.172H347.339v-5.993H138.63Z" transform="translate(-110.42 -307.893)" fill="#263238"/>
            <rect id="Rectangle_23" data-name="Rectangle 23" width="190.459" height="7.462" transform="translate(37.327 228.582)" fill="#575757"/>
            <path id="Tracé_287" data-name="Tracé 287" d="M335.549,473.85H143.56v-8.93H335.549ZM145.09,472.382H334.019v-5.993H145.09Z" transform="translate(-106.998 -236.999)" fill="#263238"/>
            <rect id="Rectangle_24" data-name="Rectangle 24" width="263.598" height="6.463" transform="translate(0.765 0.734)" fill="#8c8c8c"/>
            <path id="Tracé_288" data-name="Tracé 288" d="M384.834,317.682H119.66V309.75H384.834Zm-263.6-1.469H383.3v-4.994H121.19Z" transform="translate(-119.66 -309.75)" fill="#263238"/>
          </g>
          <g id="Characters" transform="translate(282.369 95.955)">
            <path id="Tracé_312" data-name="Tracé 312" d="M426.905,447.9s-6.945,8.181-9.791,10-14.824,9.386-17.99,10.605-6,3.628-5.676,5.758,9.179,2.717,19.887,4.539,36.914-2.13,36.914-2.13,10.709.294,10.709-3.643-4.1-26.66-4.1-26.66Z" transform="translate(-135.969 14.33)" fill="#fff"/>
            <path id="Tracé_313" data-name="Tracé 313" d="M421.085,480.265a47.393,47.393,0,0,1-7.649-.5c-2.692-.455-5.262-.823-7.649-1.175-8.72-1.292-12.59-1.939-12.9-3.98-.382-2.6,2.815-5.259,6.119-6.551,2.861-1.1,13.768-7.976,17.837-10.532,2.723-1.733,9.561-9.768,9.622-9.856l.214-.25,30.994-1.572.122.646c.168.925,4.115,22.841,4.115,26.792a2.772,2.772,0,0,1-.979,2.115c-2.585,2.409-9.729,2.277-10.54,2.262A241.4,241.4,0,0,1,421.085,480.265Zm6.487-31.419c-1.209,1.469-7.083,8.211-9.73,9.9-.153.1-14.533,9.3-18.128,10.678-3.059,1.19-5.446,3.422-5.217,4.979.168,1.043,6.517,1.983,11.611,2.732,2.371.352,4.957.734,7.649,1.19,10.495,1.777,36.424-2.086,36.715-2.13,2.142,0,7.771-.176,9.576-1.851a1.445,1.445,0,0,0,.505-1.057c0-3.466-3.32-22.18-3.978-25.9Z" transform="translate(-136.268 14.087)" fill="#263238"/>
            <path id="Tracé_314" data-name="Tracé 314" d="M460.982,465.763a36.761,36.761,0,0,0-.367-3.863c-8.521,1.924-25.364,5.288-37.817,5.082a176.174,176.174,0,0,1-28.209-2.805,3.609,3.609,0,0,0-1.148,2.805c.321,2.115,9.179,2.717,19.887,4.539s36.914-2.13,36.914-2.13S460.982,469.7,460.982,465.763Z" transform="translate(-135.962 21.612)" fill="#fff"/>
            <path id="Tracé_315" data-name="Tracé 315" d="M421.077,473.05a47.387,47.387,0,0,1-7.649-.5c-2.692-.455-5.262-.822-7.649-1.175-8.72-1.293-12.59-1.939-12.9-3.981a4.31,4.31,0,0,1,1.331-3.378l.291-.323h.444A175.342,175.342,0,0,0,423,466.484c12.33.235,28.852-3.085,37.633-5.053l.826-.191.107.808a34.563,34.563,0,0,1,.382,3.951,2.772,2.772,0,0,1-.979,2.115c-2.585,2.409-9.729,2.277-10.54,2.262A241.409,241.409,0,0,1,421.077,473.05Zm-25.884-7.756a2.739,2.739,0,0,0-.7,1.895c.168,1.043,6.517,1.983,11.611,2.732,2.371.353,4.957.735,7.649,1.19,10.494,1.777,36.424-2.086,36.715-2.13,2.126,0,7.771-.176,9.576-1.851a1.445,1.445,0,0,0,.5-1.058c0-.558-.092-1.469-.26-2.938-9.041,2.012-25.088,5.141-37.174,4.921a178.558,178.558,0,0,1-27.919-2.761Z" transform="translate(-136.261 21.302)" fill="#263238"/>
            <path id="Tracé_316" data-name="Tracé 316" d="M365.929,443.59s-8.735,7.124-12.835,8.945-17.363,7.271-17.363,7.271-3.151.294-3.151,1.2.948,4.245,3.473,5.156,23.987,3.643,30.6,2.732,17.99-1.219,19.566-1.469,9.791,3.026,12.942-.309.627-20.006.627-20.006Z" transform="translate(-168.204 13.027)" fill="#fff"/>
            <path id="Tracé_317" data-name="Tracé 317" d="M363.441,470.053c-8.8,0-25.18-2.159-27.4-2.938-3.06-1.087-3.962-4.862-3.962-5.875,0-1.263,1.989-1.748,3.717-1.924,1.27-.529,13.386-5.508,17.241-7.227s12.575-8.813,12.667-8.813l.245-.206,34.849,3.584.092.558c.26,1.748,2.478,17.112-.826,20.564-2.555,2.688-7.649,1.616-10.984.911a12.4,12.4,0,0,0-2.371-.382c-.643.118-2.417.22-5.507.4-4.253.235-10.081.573-14.1,1.116A26.947,26.947,0,0,1,363.441,470.053Zm-29.831-8.666c.092.793.887,3.584,2.968,4.333,2.509.911,23.681,3.6,30.244,2.688,4.085-.558,9.944-.881,14.227-1.131,2.539-.147,4.742-.264,5.293-.367a9.267,9.267,0,0,1,3.06.382c3.06.646,7.557,1.6,9.515-.47,2.295-2.424,1.224-13.91.52-18.831L366.485,444.6c-1.53,1.2-8.965,7.153-12.758,8.813-4.069,1.807-17.256,7.227-17.378,7.344h-.23a6.733,6.733,0,0,0-2.509.632Z" transform="translate(-168.469 12.783)" fill="#263238"/>
            <path id="Tracé_318" data-name="Tracé 318" d="M336.042,460.631c2.524.911,23.987,3.643,30.6,2.732s17.99-1.219,19.566-1.469,9.791,3.026,12.942-.308a9.042,9.042,0,0,0,1.53-5.082,52.021,52.021,0,0,0-8.108-.676c-6.639,0-15.788,3.026-35.032,3.334S332.6,455.52,332.6,455.52C332.57,456.328,333.518,459.662,336.042,460.631Z" transform="translate(-168.194 18.62)" fill="#fff"/>
            <path id="Tracé_319" data-name="Tracé 319" d="M363.441,464.722c-8.8,0-25.18-2.159-27.4-2.938h0c-3.06-1.087-3.962-4.862-3.962-5.876V454.44l1.209.837s5.783,3.79,24.477,3.5a175.713,175.713,0,0,0,25.777-2.321,66.6,66.6,0,0,1,9.27-1.014,54.441,54.441,0,0,1,8.23.676l.688.118v.676a9.33,9.33,0,0,1-1.668,5.523c-2.555,2.688-7.649,1.616-10.984.911a12.393,12.393,0,0,0-2.371-.382c-.642.118-2.417.22-5.507.4-4.253.235-10.081.573-14.1,1.116A26.925,26.925,0,0,1,363.441,464.722Zm-26.894-4.333c2.509.911,23.681,3.6,30.244,2.688,4.085-.558,9.944-.881,14.227-1.131,2.539-.147,4.742-.264,5.293-.367a9.263,9.263,0,0,1,3.06.382c3.06.646,7.557,1.6,9.515-.47a7.05,7.05,0,0,0,1.224-3.966,50.967,50.967,0,0,0-7.282-.558,64.034,64.034,0,0,0-9.026,1A176.183,176.183,0,0,1,357.8,460.3c-14.12.235-21.065-1.821-23.85-2.938a4.943,4.943,0,0,0,2.646,3.085Z" transform="translate(-168.469 18.114)" fill="#263238"/>
            <path id="Tracé_320" data-name="Tracé 320" d="M356.935,327.8s-1.1,58.445,0,75.6,3.641,106.036,3.641,106.036-4.742.705-5.094,2.805a30.652,30.652,0,0,1-1.1,4.2s10.2,2.806,15.68,4.2,18.22,1.4,18.22,1.4,1.821-12.25,2.188-17.846,6.119-58.445,6.93-72.8-.367-29.377,0-32.9,5.094-30.846,5.094-30.846,13.86,54.3,18.618,61.266,19.306,59.855,20.775,63.7,4.008,20.99,4.008,20.99a4.917,4.917,0,0,0-2.187,4.2,74.714,74.714,0,0,1,.367,7.7,68.259,68.259,0,0,0,17.134,2.1,58.085,58.085,0,0,0,18.22-3.143s-.734-14.688-1.453-22.4-3.656-46.548-8.383-60.546-10.938-38.5-10.938-38.5,3.274-43.052,3.641-47.943,4.008-24.5,2.922-33.255-4.375-24.148-5.109-27.644a21.454,21.454,0,0,0-2.188-5.964l-100.232,9.107Z" transform="translate(-156.655 -59.823)" fill="#000032"/>
            <path id="Tracé_321" data-name="Tracé 321" d="M378.858,194.639s-35.568,27.629-36.333,31.433,4.666,43.169,4.666,49.045,9.714,38.337,9.714,38.337l-1.071,65.981s34.894,7.594,49.993,6.213,41.381-7.256,41.381-7.256l6.838-27.908,5.385,26.939a36.132,36.132,0,0,0,8.643-1.733,93.855,93.855,0,0,0,10.785-5.875s-7.909-31.419-12.942-42.479l-9-19.683s-4.681-96.033-6.838-100.866-6.119-6.9-12.238-11.4-32.263-10.458-32.263-10.458Z" transform="translate(-162.974 -108.245)" fill="#07b5e7"/>
            <path id="Tracé_322" data-name="Tracé 322" d="M401.906,386.821c-16.353,0-44.67-6.125-45.97-6.4l-.612-.132v-.6l1.071-65.863c-.7-2.38-9.714-32.638-9.714-38.44,0-2.5-1.01-11.384-2.1-20.784-1.744-15.305-2.953-26.292-2.57-28.393.734-3.878,30.6-27.232,36.608-31.874l.214-.117,26.94-9.841h.229c1.086.235,26.389,6.052,32.569,10.576l3.06,2.233c4.375,3.085,7.526,5.317,9.378,9.459,2.157,4.862,6.609,95.475,6.884,100.983.5,1.1,4.253,9.283,8.934,19.565,5,10.987,12.927,42.288,13,42.6l.122.5-.459.279a91.845,91.845,0,0,1-10.923,5.949,36.655,36.655,0,0,1-8.858,1.777h-.673l-4.8-24.074-6.119,25.073-.459.1c-.26,0-26.481,5.875-41.473,7.271Q404.231,386.821,401.906,386.821Zm-45.037-7.638c4.712,1,35.461,7.344,49.167,6.066s37.22-6.345,40.8-7.124l7.542-30.846,5.951,29.671a33.267,33.267,0,0,0,7.726-1.616,88.5,88.5,0,0,0,10.2-5.523c-1.04-4.1-8.169-31.756-12.774-41.862-5.033-11.046-9-19.683-9-19.683V308c-1.3-26.674-5.048-96.738-6.777-100.6s-4.589-5.8-8.873-8.813c-.979-.69-2.019-1.469-3.06-2.233-5.614-4.128-29.173-9.68-31.758-10.282l-26.511,9.5c-13.692,10.62-35.476,28.349-35.965,30.919-.382,2.042,1.254,16.422,2.585,27.908,1.086,9.445,2.1,18.361,2.1,20.946,0,5.7,9.592,37.823,9.684,38.19v.206Z" transform="translate(-163.243 -108.508)" fill="#263238"/>
            <rect id="Rectangle_25" data-name="Rectangle 25" width="22.274" height="31.595" transform="translate(230.784 135.659)" fill="#fff"/>
            <path id="Tracé_323" data-name="Tracé 323" d="M399.294,257.629h-23.8V224.58h23.8ZM377.02,256.16h20.744V226.049H377.02Z" transform="translate(-145.471 -89.655)" fill="#263238"/>
            <rect id="Rectangle_26" data-name="Rectangle 26" width="5.568" height="12.632" transform="translate(237.867 126.42)" fill="#000032"/>
            <path id="Tracé_324" data-name="Tracé 324" d="M374.77,143.352s5.171-4.583,11.5-4.216c9.026.529,20.514,6.052,23.8,24.177s-7.113,29.95-14.778,30.479-7.114-4.994-7.389-8.416-3.824-11.031-3.824-11.031S385.723,149.874,374.77,143.352Z" transform="translate(-145.852 -129.725)" fill="#000032"/>
            <path id="Tracé_325" data-name="Tracé 325" d="M394.713,194.78a7.236,7.236,0,0,1-4.849-1.469c-1.989-1.689-2.126-4.407-2.249-6.61v-1.043c-.26-3.246-3.733-10.708-3.763-10.781v-.411c0-.235,1.53-24.074-8.949-30.332l-.9-.514.75-.646c.214-.206,5.446-4.788,12.055-4.407,6.119.367,20.652,3.481,24.477,24.779,1.759,9.68-.214,18.875-5.385,25.22-2.968,3.657-6.655,5.875-10.1,6.125Zm-9.454-20.314c.535,1.16,3.564,7.858,3.824,11.1v1.087c.107,2.027.229,4.3,1.744,5.582a6.474,6.474,0,0,0,4.758,1.072c2.968-.206,6.333-2.277,9-5.552,4.911-6.037,6.762-14.806,5.094-24.074-3.671-20.255-17.378-23.222-23.1-23.5a16.8,16.8,0,0,0-10.173,3.422C386.361,150.67,385.4,172.057,385.259,174.466Z" transform="translate(-146.26 -129.993)" fill="#263238"/>
            <path id="Tracé_326" data-name="Tracé 326" d="M339.434,180.216s-6.027,2.1-12.59-3.158-4.589-15.5.811-21.019,10.708-4.407,10.708-4.407,10.4-13.66,27.643-17.626,37.2,8.137,42.681,19.1,3.274,22.033,1.362,31.007-7.649,12.353-7.649,12.353a5.667,5.667,0,0,1-4.926,3.937c-4.1.529-9.576,0-10.708-8.4s-1.1-16.818-4.589-14.688-5.477,8.4-9.026,7.888-20.53-8.945-23.819-13.925-8.75-5.523-9.026,0A81.083,81.083,0,0,1,339.434,180.216Z" transform="translate(-173.437 -132.482)" fill="#000032"/>
            <path id="Tracé_327" data-name="Tracé 327" d="M395.615,201.564a9.164,9.164,0,0,1-5.6-1.63,10.718,10.718,0,0,1-3.748-7.565c-.2-1.6-.367-3.217-.535-4.744-.444-4.23-.948-9.048-2.157-9.621-.076,0-.275-.118-.8.191a14.238,14.238,0,0,0-3.6,3.79c-1.667,2.247-3.411,4.553-5.951,4.186-3.824-.558-20.882-9-24.339-14.263-1.928-2.938-4.329-3.878-5.737-3.525-1.132.279-1.79,1.469-1.882,3.173-.275,5.493-.811,8.813-.826,9l-.077.441-.413.147c-.26.088-6.517,2.174-13.34-3.275a11.809,11.809,0,0,1-4.406-8.813,17.917,17.917,0,0,1,5.155-13.293c4.788-4.833,9.408-4.877,10.892-4.744,1.79-2.189,12.039-13.939,27.8-17.538,16.828-3.848,37.6,7.565,43.553,19.58,5.706,11.5,3.228,23.046,1.423,31.463-1.744,8.167-6.578,11.868-7.756,12.661A6.423,6.423,0,0,1,397.8,201.4,19.358,19.358,0,0,1,395.615,201.564Zm-12.238-25.059a1.978,1.978,0,0,1,.857.191c1.882.881,2.341,4.495,3.06,10.781.168,1.469.337,3.114.551,4.7a9.274,9.274,0,0,0,3.151,6.58,8.877,8.877,0,0,0,6.655,1.19,4.9,4.9,0,0,0,4.283-3.378v-.294l.26-.162s5.492-3.393,7.312-11.868c1.759-8.226,4.176-19.477-1.3-30.537-5.033-10.135-24.278-22.782-41.824-18.787-16.828,3.834-27.093,17.185-27.2,17.332l-.291.382-.474-.1c-.2,0-4.88-.867-9.959,4.26a16.712,16.712,0,0,0-4.758,12.191,10.448,10.448,0,0,0,3.871,7.755,13.515,13.515,0,0,0,11.412,3.143c.153-1.116.52-4.142.734-8.4.122-2.409,1.224-4.069,3.06-4.524,2.417-.6,5.4,1.072,7.435,4.171,3.167,4.818,19.964,13.1,23.268,13.587,1.53.235,3.06-1.616,4.482-3.584a15.307,15.307,0,0,1,4.039-4.2,2.691,2.691,0,0,1,1.392-.426Z" transform="translate(-173.703 -132.722)" fill="#263238"/>
            <path id="Tracé_328" data-name="Tracé 328" d="M331.066,156.665s-1.086,13.925,1.912,18.9,10.081,5.978,9.806,13.073-4.589,7.946-.765,9.533a12.017,12.017,0,0,0,7.649.264s12.468,10.282,14.12,11.619a9.007,9.007,0,0,0,8.2.264c2.188-1.322,5.308-3.746,5.308-3.746l6.287,8.666a128.631,128.631,0,0,0-1.086,22.033c.551,11.031,7.114,13.925,15.864-4.73a299.98,299.98,0,0,0,13.416-33.372s-8.766-5.773-10.953-8.137a11.8,11.8,0,0,1-2.738-4.407s-1.637,2.1-7.113-.264a9.189,9.189,0,0,1-5.737-7.344s3.824-9.724,1.086-15.5-8.475-6.052-11.489-2.629-3.06,9.195-3.06,9.195a59.235,59.235,0,0,1-15.038-3.158c-6.854-2.629-1.652-7.095-9.316-11.031S331.066,156.665,331.066,156.665Z" transform="translate(-169.107 -122.592)" fill="#ffead9"/>
            <path id="Tracé_329" data-name="Tracé 329" d="M387.358,247.066a3.523,3.523,0,0,1-.688-.073c-2.708-.485-4.421-3.922-4.7-9.415a129.982,129.982,0,0,1,1.056-21.915l-5.645-7.8a49.733,49.733,0,0,1-4.742,3.3c-2.371,1.469-7.144,1.263-9.179-.323-1.53-1.175-11.856-9.738-13.768-11.369a12.573,12.573,0,0,1-7.787-.4c-1.117-.47-1.7-.925-1.928-1.469a3.782,3.782,0,0,1,.551-2.512,13.748,13.748,0,0,0,1.683-6.2c.153-4.039-2.234-5.875-4.987-7.976a17.624,17.624,0,0,1-4.712-4.7c-3.06-5.126-2.065-18.757-2.019-19.33v-.4l.367-.191c.367-.206,9.179-4.877,17.149-.793a8.957,8.957,0,0,1,5.369,6.58,5.277,5.277,0,0,0,3.855,4.407,57.825,57.825,0,0,0,14.028,3.041,15.745,15.745,0,0,1,3.167-8.813,7.138,7.138,0,0,1,6.333-2.424,8.589,8.589,0,0,1,6.44,5.214c2.677,5.64-.5,14.556-1.01,15.908a8.388,8.388,0,0,0,5.278,6.58c4.727,2.042,6.2.5,6.2.485l.964-1.087.383,1.351a11.152,11.152,0,0,0,2.57,4.171c2.1,2.262,10.709,7.961,10.8,8.02l.459.308-.153.514a305.9,305.9,0,0,1-13.447,33.446C395.007,242.2,390.892,247.066,387.358,247.066Zm-9.668-41.333,6.945,9.562v.279a129.329,129.329,0,0,0-1.086,21.93c.23,4.627,1.53,7.7,3.442,8.049,1.055.191,4.926-.191,10.969-13.043a308.839,308.839,0,0,0,13.2-32.77,90.1,90.1,0,0,1-10.617-7.946,14.2,14.2,0,0,1-2.539-3.79c-1.117.529-3.274.881-7.052-.764a9.851,9.851,0,0,1-6.2-7.976V178.9c0-.088,3.687-9.5,1.117-14.938a6.985,6.985,0,0,0-5.262-4.407,5.622,5.622,0,0,0-4.956,1.91c-2.784,3.173-2.83,8.666-2.83,8.725v.778h-.811a60.2,60.2,0,0,1-15.3-3.2,6.706,6.706,0,0,1-4.773-5.42,7.49,7.49,0,0,0-4.589-5.655c-6.349-3.261-13.631-.191-15.3.6-.138,2.306-.734,13.807,1.851,18.081a15.985,15.985,0,0,0,4.345,4.289c2.815,2.159,5.737,4.407,5.553,9.18a15.183,15.183,0,0,1-1.82,6.771c-.291.573-.6,1.175-.52,1.366s.214.323,1.1.69a11.207,11.207,0,0,0,7.114.235l.413-.132.337.279c.122.1,12.5,10.282,14.12,11.6a8.232,8.232,0,0,0,7.312.206c2.111-1.263,5.2-3.657,5.232-3.687Z" transform="translate(-169.409 -122.82)" fill="#263238"/>
            <path id="Tracé_330" data-name="Tracé 330" d="M361.18,191.743l7.251-5.773-.964,14.439Z" transform="translate(-153.052 -107.757)" fill="#000032"/>
            <path id="Tracé_331" data-name="Tracé 331" d="M342.833,173.721c1.086,1.366,1.407,2.938.719,3.378s-2.126-.191-3.2-1.557-1.407-2.864-.734-3.378S341.747,172.355,342.833,173.721Z" transform="translate(-164.658 -114.309)" fill="#000032"/>
            <path id="Tracé_332" data-name="Tracé 332" d="M336.37,172a3.5,3.5,0,0,1,1.147-2.644,6.313,6.313,0,0,1,4.987-1.131l-.168,1.469a4.95,4.95,0,0,0-3.748.72,2.064,2.064,0,0,0-.688,1.469Z" transform="translate(-166.196 -116.131)" fill="#263238"/>
            <path id="Tracé_333" data-name="Tracé 333" d="M347.671,187.334l-.841-1.219a12.221,12.221,0,0,0,4.758-7.785l1.53.25a13.356,13.356,0,0,1-5.446,8.754Z" transform="translate(-160.654 -111.339)" fill="#263238"/>
            <path id="Tracé_334" data-name="Tracé 334" d="M270.269,440.81l-6.5,12.03s-14.732,9.577-20.362,12.911-17.776,5.875-17.776,7.9,9.179,3.746,16.476,4.568,27.184,2.938,32.126.837,18.648-1.66,18.648-1.66,5.63,1.66,8.23-1.248,2.6-6.243.428-11.237-3.473-8.328-3.473-9.577V443.278Z" transform="translate(-224.865 11.723)" fill="#eeae8c"/>
            <path id="Tracé_335" data-name="Tracé 335" d="M266.214,480.987a234.562,234.562,0,0,1-23.9-1.733c-11.366-1.278-17.149-3.07-17.149-5.3,0-1.6,2.754-2.615,8.444-4.583a59.828,59.828,0,0,0,9.7-3.951c5.232-3.1,18.556-11.751,20.178-12.779l6.655-12.338,28.928,2.6v12.735c0,1.278,1.82,5.64,3.412,9.3,2.325,5.361,2.157,8.945-.551,11.986s-8.093,1.733-8.934,1.469c-1.239,0-13.768-.279-18.22,1.6A26.149,26.149,0,0,1,266.214,480.987Zm4.8-39.13-6.349,11.751-.168.1c-.138.088-14.808,9.621-20.392,12.911a59.46,59.46,0,0,1-10.02,4.083c-3.06,1.043-7.144,2.468-7.435,3.232,0,.617,3.977,2.482,15.8,3.819,16.919,1.91,28.469,2.233,31.667.881,4.987-2.086,18.358-1.733,18.969-1.719h.2s5.186,1.469,7.435-1.028,2.4-5.626.306-10.473c-2.539-5.875-3.534-8.607-3.534-9.856v-11.3Z" transform="translate(-225.109 11.484)" fill="#263238"/>
            <path id="Tracé_336" data-name="Tracé 336" d="M225.64,469.833c0,2.071,1.973,4.1,9.332,4.921s34.313,2.541,39.193.485,18.648-1.66,18.648-1.66,5.63,1.66,8.23-1.249,2.6-6.243.428-11.237c-1.163-2.7-2.081-4.891-2.677-6.551l-.8.309c-13.432,5.875-27.292,2.086-27.292,2.086a14.586,14.586,0,0,0-2.172-5.42,6.188,6.188,0,0,0-4.773-2.5S249.031,458.6,243.4,461.931,225.64,467.748,225.64,469.833Z" transform="translate(-224.86 15.573)" fill="#fff"/>
            <path id="Tracé_337" data-name="Tracé 337" d="M263.008,477.152c-10.2,0-23.559-.969-27.858-1.469-6.731-.764-10.02-2.615-10.02-5.655,0-1.6,2.754-2.615,8.444-4.583a59.833,59.833,0,0,0,9.7-3.951c5.553-3.29,20.193-12.794,20.331-12.882l.2-.132h.23a6.946,6.946,0,0,1,5.415,2.835,14.792,14.792,0,0,1,2.188,5.214c2.494.558,14.655,2.938,26.328-2.159l.474-.191,1.086-.426.275.749c.551,1.542,1.392,3.613,2.647,6.507,2.325,5.361,2.157,8.945-.551,11.986s-8.093,1.733-8.934,1.469c-1.239,0-13.768-.279-18.22,1.6C272.936,476.932,268.408,477.152,263.008,477.152Zm-36.348-7.08c0,2.115,2.952,3.525,8.674,4.171,7.649.852,34.221,2.453,38.8.529,4.987-2.086,18.357-1.733,18.969-1.719h.2s5.186,1.469,7.435-1.028,2.4-5.626.306-10.473c-1.086-2.482-1.866-4.407-2.417-5.875h0a46.331,46.331,0,0,1-27.8,2.218l-.474-.132-.077-.47a13.54,13.54,0,0,0-2.05-5.112,5.357,5.357,0,0,0-3.9-2.159c-1.836,1.19-14.977,9.694-20.193,12.779a59.479,59.479,0,0,1-10.02,4.069c-3.06,1.058-7.113,2.468-7.45,3.246Z" transform="translate(-225.13 15.32)" fill="#263238"/>
            <path id="Tracé_338" data-name="Tracé 338" d="M291.253,461.576c-10.265,2.541-19.535,5.082-33.1,5.082-10.357,0-25.349-2.218-31.85-3.261-.413.294-.658.588-.658.881,0,2.071,1.973,4.1,9.332,4.921s34.313,2.541,39.193.485,18.648-1.66,18.648-1.66,5.63,1.66,8.23-1.249a7.334,7.334,0,0,0,1.989-5.112A23.486,23.486,0,0,0,291.253,461.576Z" transform="translate(-224.86 21.128)" fill="#fff"/>
            <path id="Tracé_339" data-name="Tracé 339" d="M263.008,471.614c-10.2,0-23.559-.969-27.858-1.469-6.731-.764-10.02-2.615-10.02-5.655a2.049,2.049,0,0,1,.964-1.469l.26-.191h.336c6.119.984,21.325,3.261,31.728,3.261,12.605,0,21.524-2.218,30.963-4.568l1.943-.485a24.087,24.087,0,0,1,12.238.088l.566.147v.558a8.038,8.038,0,0,1-2.172,5.582c-2.723,3.055-8.093,1.733-8.934,1.469-1.239,0-13.768-.279-18.22,1.6C272.936,471.394,268.408,471.614,263.008,471.614ZM226.782,464.4a.505.505,0,0,0-.122.147c0,2.086,2.922,3.511,8.674,4.157,7.649.852,34.221,2.453,38.8.529,4.987-2.086,18.357-1.733,18.969-1.718h.2s5.186,1.469,7.435-1.028a6.594,6.594,0,0,0,1.79-4.069,22.645,22.645,0,0,0-10.816,0l-1.943.485c-9.546,2.365-18.541,4.612-31.345,4.612-10.326.147-25.3-2.056-31.636-3.07Z" transform="translate(-225.13 20.858)" fill="#263238"/>
            <path id="Tracé_340" data-name="Tracé 340" d="M259.327,369.25,249.72,474.86s16.828,5.993,22.09,6.463,18.189.1,18.189.1l6.792-39.776Z" transform="translate(-212.102 -21.827)" fill="#000032"/>
            <path id="Tracé_341" data-name="Tracé 341" d="M297.553,447.147l2.341,9.3a31.965,31.965,0,0,1-9.011,7.7c-5.675,3.2-26.006,11.531-29.708,13.132s-.673,4.172.658,5.449,19.367,1.6,31.376.969,24.706-3.525,33.044-3.848,10.357-.955,12.7-3.848-12.361-35.575-12.361-35.575Z" transform="translate(-206.974 11.541)" fill="#eeae8c"/>
            <path id="Tracé_342" data-name="Tracé 342" d="M279.993,484.962c-8.536,0-17.271-.367-18.434-1.469l-.229-.22c-1.071-1.013-2.692-2.556-2.387-4.2a3.245,3.245,0,0,1,2.172-2.218l4.3-1.822c7.312-3.07,20.912-8.813,25.333-11.281a32.147,32.147,0,0,0,8.582-7.227l-2.432-9.68,30.4-7.036.26.558c3.488,7.77,14.686,33.328,12.238,36.325s-4.742,3.8-13.263,4.127q-7.108.479-14.135,1.66c-5.874.867-12.529,1.851-18.893,2.189C290.227,484.83,285.148,484.962,279.993,484.962Zm18.74-37.044,2.249,8.916-.214.264a32.021,32.021,0,0,1-9.179,7.9c-4.589,2.541-18.159,8.284-25.5,11.354l-4.283,1.821c-.78.338-1.224.72-1.3,1.131-.153.9,1.178,2.159,1.974,2.938l.229.22c1.346.9,17.516,1.469,30.795.749,6.287-.338,12.911-1.307,18.74-2.174q7.1-1.19,14.3-1.675c8.414-.323,10.051-1.013,12.116-3.569,1.193-1.748-5.232-18.684-12.238-34.253Z" transform="translate(-207.236 11.255)" fill="#263238"/>
            <path id="Tracé_343" data-name="Tracé 343" d="M338.971,470.863c1.086-1.351-1.53-9.254-4.681-17.274-12.942,3.511-29.372,6.7-29.372,6.7a32.261,32.261,0,0,0-2-6.727c-1.331-2.938-3.06-2.247-3.06-2.247a31.966,31.966,0,0,1-9.01,7.7c-5.676,3.2-26.006,11.53-29.709,13.131s-.673,4.172.658,5.449,19.367,1.6,31.376.969,24.706-3.525,33.044-3.848S336.63,473.756,338.971,470.863Z" transform="translate(-206.995 16.615)" fill="#fff"/>
            <path id="Tracé_344" data-name="Tracé 344" d="M279.993,479.821c-8.536,0-17.271-.367-18.434-1.469l-.229-.22c-1.071-1.013-2.692-2.556-2.387-4.2a3.245,3.245,0,0,1,2.172-2.218l4.3-1.821c7.312-3.07,20.912-8.813,25.333-11.281a31.287,31.287,0,0,0,8.781-7.491l.122-.176.214-.073c.092,0,2.371-.867,3.993,2.629a31.361,31.361,0,0,1,1.912,6.155c3.381-.676,17.348-3.51,28.546-6.536l.688-.191.245.632c6.211,15.952,5.048,17.376,4.589,17.993h0c-2.524,3.1-4.742,3.8-13.263,4.128q-7.107.479-14.135,1.66c-5.874.867-12.529,1.851-18.893,2.189C290.227,479.689,285.148,479.821,279.993,479.821Zm20.591-27.614a32.771,32.771,0,0,1-9.056,7.653c-4.589,2.541-18.159,8.284-25.5,11.354l-4.283,1.821c-.78.338-1.224.72-1.3,1.131-.153.9,1.178,2.159,1.973,2.938l.229.22c1.346.9,17.516,1.469,30.795.749,6.287-.338,12.911-1.307,18.74-2.174q7.1-1.19,14.3-1.675c8.4-.323,10.051-1.013,12.116-3.555.168-.264.75-2.262-4.589-15.952-12.713,3.408-28.592,6.507-28.745,6.536l-.78.147-.122-.749A32.19,32.19,0,0,0,302.4,454.1C301.7,452.427,300.921,452.207,300.584,452.207Z" transform="translate(-207.236 16.396)" fill="#263238"/>
            <path id="Tracé_345" data-name="Tracé 345" d="M338.939,466.439c.52-.646.184-2.805-.658-5.758-6.3-.162-11.428,4.128-31.055,8.005-20.071,3.951-41.014,2.056-47.806,1.249a7.123,7.123,0,0,0,2.4,3.232c1.331,1.293,19.367,1.6,31.376.969s24.706-3.525,33.044-3.848S336.6,469.333,338.939,466.439Z" transform="translate(-206.963 21.038)" fill="#fff"/>
            <path id="Tracé_346" data-name="Tracé 346" d="M280.033,475.409c-8.536,0-17.271-.367-18.434-1.469l-.214-.206a7.056,7.056,0,0,1-2.4-3.452l-.153-.94.994.117c6.119.705,27.414,2.717,47.561-1.249a148.747,148.747,0,0,0,21.08-5.714c4.222-1.469,6.976-2.379,10.143-2.306h.581l.138.529c1.3,4.6.994,5.875.52,6.4-2.524,3.1-4.742,3.8-13.263,4.127q-7.108.479-14.135,1.66c-5.874.867-12.529,1.851-18.893,2.189C290.267,475.276,285.188,475.409,280.033,475.409ZM260.956,471a11.421,11.421,0,0,0,1.53,1.63l.214.206c1.346.9,17.516,1.469,30.795.749,6.287-.338,12.911-1.307,18.74-2.174q7.1-1.19,14.3-1.674c8.4-.323,10.051-1.013,12.116-3.555,0-.073.4-.778-.627-4.583a30.875,30.875,0,0,0-9.041,2.218,148.445,148.445,0,0,1-21.279,5.773c-19.122,3.8-39.285,2.247-46.75,1.454Z" transform="translate(-207.276 20.809)" fill="#263238"/>
            <path id="Tracé_347" data-name="Tracé 347" d="M320.437,292.082s-36.073-26.16-42.13-28.554S265.2,261.1,266.451,265s3.289,15.5,6.563,18.17,10.846,4.847,10.846,4.847l32.783,33.167S321.447,302.247,320.437,292.082Z" transform="translate(-203.316 -72.17)" fill="#ffead9"/>
            <path id="Tracé_348" data-name="Tracé 348" d="M317.341,322.854l-33.655-34.019c-1.255-.367-7.833-2.409-10.923-4.921-2.647-2.144-4.421-9.239-5.706-14.424-.413-1.675-.78-3.129-1.086-4.083a2.585,2.585,0,0,1,.673-2.938c2.172-1.895,7.909-1.1,12.238.617,6.119,2.438,40.8,27.6,42.284,28.672l.26.191v.323c1.01,10.179-3.6,28.525-3.794,29.3ZM270.8,262.808a5.024,5.024,0,0,0-3.06.72,1.2,1.2,0,0,0-.26,1.469c.321,1,.688,2.482,1.117,4.186,1.178,4.7,2.952,11.751,5.2,13.645,3.06,2.526,10.51,4.671,10.571,4.7h.2l.138.147,31.82,32.182c1.025-4.406,4.192-18.728,3.473-27.174-3.4-2.394-36.072-25.984-41.641-28.261a20.982,20.982,0,0,0-7.557-1.616Z" transform="translate(-203.601 -72.405)" fill="#263238"/>
            <path id="Tracé_349" data-name="Tracé 349" d="M300.173,280.966s-11.351-16-13.37-16.716-11.351-3.393-13.11-4.113-8.322-7.271-9.837-3.158S268.14,264,270.4,264.97a26.824,26.824,0,0,1,4.8,2.938s4.589,10.9,6.808,12.838a28.6,28.6,0,0,0,7.557,3.628" transform="translate(-204.745 -75.096)" fill="#ffead9"/>
            <path id="Tracé_350" data-name="Tracé 350" d="M289.6,285.285a29.161,29.161,0,0,1-7.833-3.79c-2.233-1.909-6.2-11.163-6.93-12.926a25.826,25.826,0,0,0-4.467-2.688c-2.662-1.131-8.674-4.274-6.976-8.9a2.648,2.648,0,0,1,1.729-1.748c2.1-.587,4.957,1.469,7.251,3.187a14.354,14.354,0,0,0,1.882,1.278c.964.4,4.421,1.469,7.465,2.35,2.417.734,4.727,1.469,5.63,1.748,2.081.749,11.03,13.22,13.768,16.98l-1.27.837c-5.446-7.682-11.81-15.937-13-16.436-.857-.308-3.06-1-5.538-1.733-3.228-.969-6.578-1.983-7.649-2.394a14.4,14.4,0,0,1-2.218-1.469c-1.7-1.249-4.589-3.32-5.874-2.938-.2,0-.5.206-.719.823-1.285,3.466,3.87,6.11,6.119,7.08a27.646,27.646,0,0,1,4.957,2.938l.153.132v.176c1.239,2.938,4.865,11.06,6.609,12.559a28.494,28.494,0,0,0,7.3,3.481Z" transform="translate(-205.016 -75.332)" fill="#263238"/>
            <path id="Tracé_351" data-name="Tracé 351" d="M301.554,311.482l-22.671,16.01L241.54,284.47l28.332-20.02Z" transform="translate(-216.436 -70.962)" fill="#fff"/>
            <path id="Tracé_352" data-name="Tracé 352" d="M279.141,328.839,240.82,284.686l29.632-20.946,32.523,48.252Zm-36.1-43.9,36.3,41.892,21.417-15.2-30.84-45.784Z" transform="translate(-216.818 -71.295)" fill="#263238"/>
            <path id="Tracé_2775" data-name="Tracé 2775" d="M0,0,37.875.731l.2,10.238L.2,10.238Z" transform="matrix(0.805, -0.593, 0.593, 0.805, 17.708, 206.424)" fill="#6ec2d9"/>
            <path id="Tracé_353" data-name="Tracé 353" d="M243.129,289.75,236,280.438,268.126,257.7l7.144,9.313Zm-5-9,5.324,6.948,29.709-20.99-5.324-6.948Z" transform="translate(-219.371 -74.127)" fill="#263238"/>
            <path id="Tracé_2776" data-name="Tracé 2776" d="M0,0,36.608.706l.054,2.787L.054,2.787Z" transform="matrix(0.805, -0.593, 0.593, 0.805, 16.542, 203.876)" fill="#6ec2d9"/>
            <path id="Tracé_354" data-name="Tracé 354" d="M237.841,281.866l-2.6-3.393,31.131-22.033,2.6,3.393Zm-.474-3.085.8,1.028,28.668-20.27-.8-1.014Z" transform="translate(-219.774 -74.718)" fill="#263238"/>
            <path id="Tracé_355" data-name="Tracé 355" d="M238.152,273.28l-4.222,3,9.378,3.731Z" transform="translate(-220.468 -66.822)" fill="#6ec2d9"/>
            <path id="Tracé_356" data-name="Tracé 356" d="M246.092,282.015l-13.172-5.244,5.936-4.2Zm-10.081-5.6,5.6,2.218-3.06-4.01Z" transform="translate(-221.003 -67.155)" fill="#263238"/>
            <path id="Tracé_357" data-name="Tracé 357" d="M258.27,261.745l7.664-5.405,16.415,26-1.958,1.381-15.084-20.667-4.069,2.879Z" transform="translate(-207.573 -74.765)" fill="#6ec2d9"/>
            <path id="Tracé_358" data-name="Tracé 358" d="M280.583,285.081l-15.1-20.667-4.085,2.938-3.809-5.391,8.919-6.3,17.21,27.247Zm-14.717-22.752,15.1,20.681.75-.543L266.1,257.731l-6.349,4.509,2.1,2.938Z" transform="translate(-207.933 -75.083)" fill="#263238"/>
            <path id="Tracé_359" data-name="Tracé 359" d="M271.546,261.839s-11.076-1.572-11.076,1.043a5,5,0,0,0,4.375,4.73c2.325.529,10.785.778,10.785-1.572S271.546,261.839,271.546,261.839Z" transform="translate(-206.407 -72.406)" fill="#ffead9"/>
            <path id="Tracé_360" data-name="Tracé 360" d="M269.546,268.937a25.464,25.464,0,0,1-4.589-.367A5.692,5.692,0,0,1,260,263.12a1.606,1.606,0,0,1,.627-1.263c2.08-1.719,9.791-.734,11.32-.514l.214.073c.459.206,4.589,2.1,4.589,4.862a1.757,1.757,0,0,1-.8,1.469C274.64,268.658,271.994,268.937,269.546,268.937Zm-4.023-6.6a7.932,7.932,0,0,0-3.947.632c-.092.073-.092.117-.092.147a4.344,4.344,0,0,0,3.779,4.01c2.2.5,8.184.558,9.638-.558.214-.162.214-.264.214-.294,0-1.469-2.524-3.011-3.549-3.5a47.248,47.248,0,0,0-6.043-.441Z" transform="translate(-206.656 -72.644)" fill="#263238"/>
            <path id="Tracé_361" data-name="Tracé 361" d="M265.1,265.86s-2.8,1.469-2.341,2.321a4.925,4.925,0,0,0,3.5,3.143c2.341.426,10.709-.206,11.932-1.674s-.474-2.938-.474-2.938l-4.681-.837Z" transform="translate(-205.222 -70.301)" fill="#ffead9"/>
            <path id="Tracé_362" data-name="Tracé 362" d="M268.639,272.425a15.937,15.937,0,0,1-2.249-.132,5.293,5.293,0,0,1-3.87-3.231l-.168-.309c-.719-1.293,1.346-2.615,2.647-3.3l.168-.088H273.3l5.033.9.168.147a2.857,2.857,0,0,1,.551,3.922C277.879,271.823,272.127,272.425,268.639,272.425Zm-4.865-4.245.107.22a3.833,3.833,0,0,0,2.8,2.438c2.555.47,10.341-.382,11.167-1.4a1.426,1.426,0,0,0-.245-1.821l-4.437-.808h-7.649A6.269,6.269,0,0,0,263.774,268.18Zm0-.118Z" transform="translate(-205.489 -70.536)" fill="#263238"/>
            <path id="Tracé_363" data-name="Tracé 363" d="M265,270.114s.245,3.158,1.407,4.216,8.184.632,10.709-.426,2.1-2.1,1.163-3.158a8.022,8.022,0,0,1-1.392-2.306S268.564,270.335,265,270.114Z" transform="translate(-204.007 -69.092)" fill="#ffead9"/>
            <path id="Tracé_364" data-name="Tracé 364" d="M270.292,275.972a7.155,7.155,0,0,1-4.115-.822c-1.346-1.2-1.621-4.333-1.637-4.686v-.837h.872c3.32.206,11.611-1.645,11.688-1.66l.673-.147.229.617a7.276,7.276,0,0,0,1.254,2.086,2.658,2.658,0,0,1,.887,2.291c-.2.808-.948,1.469-2.341,2.012A23.945,23.945,0,0,1,270.292,275.972Zm-4.146-4.818a5.884,5.884,0,0,0,1.071,2.938c.811.72,7.374.485,9.928-.558,1.239-.5,1.423-.9,1.438-1a1.974,1.974,0,0,0-.551-1,8.637,8.637,0,0,1-1.27-1.939,70.546,70.546,0,0,1-10.617,1.557Z" transform="translate(-204.251 -69.382)" fill="#263238"/>
            <path id="Tracé_365" data-name="Tracé 365" d="M267.33,273.629a8.5,8.5,0,0,0,2.8,3.584c1.637.837,8.414-2.321,8.873-3.364s-3.06-1.689-3.06-1.689Z" transform="translate(-202.773 -67.348)" fill="#ffead9"/>
            <path id="Tracé_366" data-name="Tracé 366" d="M271.235,278.319a2.249,2.249,0,0,1-1.1-.22,8.97,8.97,0,0,1-3.151-3.951l-.352-.837,9.714-1.66h.138c.887.162,3.06.632,3.549,1.63a1.176,1.176,0,0,1,0,1.058c-.49,1.131-4.069,2.732-5.874,3.334a9.5,9.5,0,0,1-2.922.646Zm-2.417-3.892a6.13,6.13,0,0,0,2.05,2.38c.979.5,6.639-1.821,7.649-2.938a7.182,7.182,0,0,0-2.249-.764Z" transform="translate(-203.144 -67.587)" fill="#263238"/>
            <path id="Tracé_367" data-name="Tracé 367" d="M322.318,327.47s-40.065,15.8-52.426,24.779-16.721,6.727-18.358,17.949,26.221,77.291,26.221,77.291l11.351,53.525s15.3,1.924,23.36.632a233.308,233.308,0,0,0,22.7-5.758s-14.686-57.05-14.686-58.343-17.883-60.3-17.883-60.3l110.68.69a16.109,16.109,0,0,0,11.351-9.621c3.059-8.005-.658-22.9-.658-22.9Z" transform="translate(-211.178 -41.416)" fill="#000032"/>
            <path id="Tracé_368" data-name="Tracé 368" d="M311.6,252.1a72.756,72.756,0,0,0-9.041,31.272c-.9,17.949-.9,44.873-.9,44.873s-5.125,17.083-5.431,27.791.9,20.27,2.4,21.43,58.5,9.268,69.361,12.162a244.828,244.828,0,0,0,32.263,5.787c2.723,0,3.916-5.214,4.589-10.429s1.53-19.976-.612-28.657-4.3-19.7-4.3-19.7-.6-31.845-1.805-55.008-15.359-42.846-19.612-49.221-12.973-11.575-12.973-11.575Z" transform="translate(-187.489 -91.414)" fill="#07b5e7"/>
            <path id="Tracé_369" data-name="Tracé 369" d="M400.517,396.461a242.214,242.214,0,0,1-32.462-5.875c-5.706-1.469-24.37-4.509-40.83-7.153-21.646-3.466-28.056-4.568-28.806-5.141-2.035-1.557-2.968-12.426-2.692-22.033.291-10.385,4.956-26.322,5.431-27.908,0-1.851,0-27.614.9-44.815a74.411,74.411,0,0,1,9.179-31.61l.092-.162.168-.088,54.384-31.507.4.235c.352.22,8.934,5.376,13.2,11.751l.872,1.307c4.849,7.2,17.7,26.322,18.847,48.266,1.193,22.9,1.805,54.714,1.805,55.038h0s2.126,10.958,4.207,19.521c2.188,9.019,1.163,24.28.627,28.922C404.923,392.936,403.255,396.461,400.517,396.461ZM312.432,252.94a72.9,72.9,0,0,0-8.842,30.846c-.9,17.729-.9,44.58-.9,44.844v.206c0,.162-5.109,17.112-5.4,27.6-.321,11.31,1.071,20.035,2.126,20.843,1.071.5,14.808,2.7,28.087,4.833,16.506,2.644,35.185,5.64,40.983,7.183a246.643,246.643,0,0,0,32.126,5.772c.979,0,2.784-1.278,3.763-9.768.536-4.568,1.53-19.609-.581-28.422s-4.207-19.609-4.237-19.712c0-.441-.627-32.227-1.821-55.111-1.117-21.548-13.768-40.437-18.6-47.546l-.872-1.322c-3.58-5.391-10.6-10.018-12.33-11.1Z" transform="translate(-187.754 -91.723)" fill="#263238"/>
            <path id="Tracé_370" data-name="Tracé 370" d="M312.988,233.05l-8.444,8.108-3.014,12.735,7.236-7.52,5.125,3.466Z" transform="translate(-184.654 -85.684)" fill="#fff"/>
            <path id="Tracé_371" data-name="Tracé 371" d="M300.63,257.017l3.626-15.687,9.821-9.43,1.071,19.962-5.859-3.981Zm5.155-14.953-2.341,9.856,5.752-5.978,4.391,2.938-.734-13.631Z" transform="translate(-185.131 -86.223)" fill="#263238"/>
            <path id="Tracé_372" data-name="Tracé 372" d="M289.944,184.413a10.416,10.416,0,0,0-3.549,7.08c0,10.429-2.708,23.751-1.209,26.66s5.737,6.948,5.737,9.841-2.723,8.975-1.53,13.029,7.848,1.748,8.75,1.748,3.06,6.375,3.932,6.654,2.4,2.615,3.61,3.775,1.821,5.787,3.626,7.241,8.444,1.16,8.444,1.16l4.834,3.76,42.834-27.805s.306-4.921-.9-6.669a61.821,61.821,0,0,1-3.06-6.375c-.9-1.733.918-19.7-1.193-28.966s-12.973-20.564-26.863-23.164c-8.337-1.572-17.363.338-25.333,2.732a68.345,68.345,0,0,0-9.913,3.672,31.834,31.834,0,0,0-8.215,5.626Z" transform="translate(-193.552 -114.396)" fill="#eeae8c"/>
            <path id="Tracé_373" data-name="Tracé 373" d="M322.829,266.486l-5.048-3.937c-1.53,0-6.869.117-8.674-1.337a10.434,10.434,0,0,1-2.463-4.6,9.192,9.192,0,0,0-1.209-2.688,22.679,22.679,0,0,1-1.53-1.7,9.527,9.527,0,0,0-1.805-1.88c-.7-.22-1.163-1.131-2.325-3.643a22.82,22.82,0,0,0-1.53-2.938l-.6.132c-2.249.47-7.527,1.586-8.72-2.424-.826-2.761,0-6.213.749-9.254a20.018,20.018,0,0,0,.734-3.981c0-1.63-1.729-3.951-3.259-5.993a26.14,26.14,0,0,1-2.386-3.525c-.918-1.748-.535-6.066.153-12.955.459-4.407.964-9.548.964-14.027a10.963,10.963,0,0,1,3.763-7.594h0a32.61,32.61,0,0,1,8.475-5.773,70.163,70.163,0,0,1,10.02-3.716c6.685-2,16.613-4.407,25.716-2.747,14.227,2.673,25.318,14.395,27.444,23.737,1.316,5.728,1.147,14.689,1.025,21.166a46.668,46.668,0,0,0,.122,7.623,24.855,24.855,0,0,1,1.086,2.424,21.857,21.857,0,0,0,1.882,3.878c1.316,1.88,1.071,6.58,1.04,7.109v.353Zm-4.589-5.42,4.589,3.6,42.131-27.306c0-1.469,0-4.686-.8-5.875a23.1,23.1,0,0,1-2.035-4.142c-.367-.867-.7-1.674-1.025-2.306s-.4-3.261-.291-8.314c.122-6.434.291-15.261-.979-20.828-2.019-8.887-12.636-20.05-26.251-22.606-8.781-1.645-18.449.764-24.966,2.717a66.7,66.7,0,0,0-9.791,3.628,30.533,30.533,0,0,0-8.062,5.479h0a9.611,9.611,0,0,0-3.335,6.566c0,4.553-.5,9.665-.964,14.16-.551,5.508-1.071,10.708-.321,12.162a26.2,26.2,0,0,0,2.264,3.32c1.744,2.335,3.549,4.759,3.549,6.86a20.882,20.882,0,0,1-.765,4.318c-.7,2.864-1.53,6.11-.78,8.519s3.886,2.027,6.915,1.381a6.454,6.454,0,0,1,1.1-.176c.9,0,1.407.94,2.754,3.848a16.865,16.865,0,0,0,1.53,2.938c.612.176,1.315.984,2.4,2.306a20.1,20.1,0,0,0,1.407,1.572,9.1,9.1,0,0,1,1.53,3.261,9.682,9.682,0,0,0,1.989,3.937c1.147.925,5.461,1.1,7.924,1Z" transform="translate(-193.822 -114.611)" fill="#263238"/>
            <path id="Tracé_374" data-name="Tracé 374" d="M322.627,213.79c.9-.867,4.222-8.989,8.75-8.108s6.333,12.162,6.333,15.922-4.834,7.535-4.834,7.535,10.571,3.187,15.39,2.027a9.557,9.557,0,0,0,6.333-4.054s-.9,5.214,1.82,2.938a31.782,31.782,0,0,0,4.467-5.626c-.78-2.321.918-19.756-1.147-28.848s-12.973-20.564-26.863-23.164c-8.337-1.572-17.363.338-25.333,2.732a68.344,68.344,0,0,0-9.913,3.672,31.842,31.842,0,0,0-8.261,5.626,10.417,10.417,0,0,0-3.549,7.08,95.747,95.747,0,0,1,14.778-8.108c6.639-2.6,5.14-3.187,4.589,0s7.542,2.027,7.542,2.027a34.872,34.872,0,0,0-4.589,12.75c-.6,6.375.918,12.456,2.417,11s1.821,1.16,3.932,2.027,6.333,0,6.333,0S321.724,214.672,322.627,213.79Z" transform="translate(-192.977 -114.382)" fill="#c7c7c7"/>
            <path id="Tracé_375" data-name="Tracé 375" d="M345.99,232.393a56.74,56.74,0,0,1-13.049-2.306l-1.346-.411,1.1-.867s4.589-3.584,4.589-6.962c0-4.1-2-14.5-5.721-15.2-3.06-.573-5.6,3.892-6.991,6.3a8.04,8.04,0,0,1-1.071,1.6h0a1.194,1.194,0,0,1-1.132.323c-.826-.22-1.392-1.469-1.759-2.6a13.461,13.461,0,0,1-6.119-.176,5.777,5.777,0,0,1-2.188-1.763,3.7,3.7,0,0,0-.627-.632,1.36,1.36,0,0,0-.26.22,1.37,1.37,0,0,1-1.53.308c-1.866-.837-2.647-6.948-2.172-11.912a33.53,33.53,0,0,1,3.9-11.751c-1.928.147-5.048.147-6.349-1.131a2.087,2.087,0,0,1-.566-1.924,2.957,2.957,0,0,1,.168-.764c-.78.382-1.958.911-3.656,1.572a94.751,94.751,0,0,0-14.625,8.035l-1.208.823v-1.469a10.963,10.963,0,0,1,3.763-7.594,32.609,32.609,0,0,1,8.475-5.773,70.158,70.158,0,0,1,10.02-3.716c6.685-2,16.614-4.407,25.716-2.747,14.227,2.673,25.318,14.395,27.445,23.737,1.316,5.728,1.147,14.688,1.025,21.151a46.923,46.923,0,0,0,.122,7.609l.107.338-.184.294a30.042,30.042,0,0,1-4.589,5.773c-.887.764-1.652.969-2.295.632a2.215,2.215,0,0,1-.933-1.88,12.01,12.01,0,0,1-5.247,2.57A11.291,11.291,0,0,1,345.99,232.393Zm-11.29-3.349c2.937.793,10.081,2.512,13.677,1.66a8.843,8.843,0,0,0,5.844-3.687l2.218-4.142-.78,4.6a6.311,6.311,0,0,0,0,2.6,1.733,1.733,0,0,0,.551-.367,28.159,28.159,0,0,0,4.176-5.214,50.464,50.464,0,0,1-.107-7.741c.122-6.434.291-15.247-.979-20.814-2.019-8.887-12.636-20.05-26.251-22.606-8.781-1.645-18.449.764-24.966,2.717a66.688,66.688,0,0,0-9.791,3.628,30.523,30.523,0,0,0-8.062,5.479,10.954,10.954,0,0,0-3.151,5.067,87.753,87.753,0,0,1,13.539-7.344c2.05-.808,3.3-1.469,4.054-1.763s1.362-.661,1.836-.279.26.881.107,1.337a9.878,9.878,0,0,0-.428,1.469.614.614,0,0,0,.168.632c.887.881,4.345.852,6.517.544l1.53-.235-.826,1.337a34.316,34.316,0,0,0-4.421,12.427c-.5,5.376.52,9.562,1.193,10.355a1.965,1.965,0,0,1,1.346-.573,2.648,2.648,0,0,1,1.729,1.16,4.31,4.31,0,0,0,1.606,1.351,13.131,13.131,0,0,0,5.875,0l.719-.147.184.69a8.844,8.844,0,0,0,.75,1.954c.168-.25.382-.632.581-.969,1.53-2.732,4.589-7.8,8.643-7.021,5.278,1.014,6.945,13.22,6.945,16.642-.015,3.011-2.585,5.846-4.084,7.256Zm-12.376-15.6h0l.535.529Z" transform="translate(-193.21 -114.625)" fill="#263238"/>
            <path id="Tracé_376" data-name="Tracé 376" d="M289.1,207.023l-1.392-.6a8.876,8.876,0,0,1,8.643-4.406v1.469A7.543,7.543,0,0,0,289.1,207.023Z" transform="translate(-191.976 -100.256)" fill="#263238"/>
            <path id="Tracé_377" data-name="Tracé 377" d="M294.737,208.375c.887,1.337,1.04,2.747.383,3.158s-1.928-.352-2.8-1.689-1.04-2.747-.367-3.158S293.865,207.038,294.737,208.375Z" transform="translate(-189.947 -98.097)" fill="#000032"/>
            <path id="Tracé_378" data-name="Tracé 378" d="M297.751,226.1l-.551-1.381s6.043-2.247,7.251-6.683l1.53.367C304.543,223.577,298.026,226,297.751,226.1Z" transform="translate(-186.948 -92.722)" fill="#263238"/>
            <path id="Tracé_2777" data-name="Tracé 2777" d="M0,0,5.386.108,5.416,1.6.03,1.494Z" transform="matrix(0.765, -0.645, 0.645, 0.765, 104.964, 114.333)" fill="#263238"/>
            <path id="Tracé_379" data-name="Tracé 379" d="M294.316,222.8l-1.056-1.058a11.888,11.888,0,0,1,2.356-1.733,3.478,3.478,0,0,0-.459-2.5,2.625,2.625,0,0,0-1.53,0h-.153L293,216.221h.245c1.01-.279,4.727-1.175,6.9-.353l-.566,1.366a6.971,6.971,0,0,0-3.06-.147,4.959,4.959,0,0,1,.581,2.38c0,1.278-.49,1.777-.9,1.983a10.9,10.9,0,0,0-1.882,1.351Z" transform="translate(-189.173 -93.899)" fill="#263238"/>
            <path id="Tracé_380" data-name="Tracé 380" d="M319.025,238.227l-12.345,7.711,5.247,18.082,50.33-40.305-8.643-9.2Z" transform="translate(-181.926 -94.372)" fill="#fff"/>
            <path id="Tracé_381" data-name="Tracé 381" d="M311.821,265.627l-5.721-19.7,12.8-7.991L354.09,213.85l9.638,10.282Zm-3.947-19.1,4.788,16.48,48.8-39.115-7.649-8.137-34.1,23.4Z" transform="translate(-182.233 -94.686)" fill="#263238"/>
            <path id="Tracé_382" data-name="Tracé 382" d="M329.855,255.37s-7.832,14.688-8.138,25.47,0,41.128,0,41.128-4.222-.573-4.589,2.027a11.357,11.357,0,0,0,1.209,5.508s-1.53.279-1.805,2.6a34.4,34.4,0,0,0-.306,4.054l-3.855,3.819L338.3,361.7a179.749,179.749,0,0,0,18.1-10.429c8.138-5.493,8.444-7.52,8.444-7.52s5.721-2.615,6.027-4.642-2.417-8.681-2.708-9.841,5.125-37.926,6.333-47.488-2.417-27.791-6.119-31.845-12.361-9.841-14.166-10.135" transform="translate(-178.911 -82.519)" fill="#07b5e7"/>
            <path id="Tracé_383" data-name="Tracé 383" d="M338.58,362.761l-26.94-22.532,4.283-4.113a23.32,23.32,0,0,1,.291-3.834,3.83,3.83,0,0,1,1.53-2.864,11.054,11.054,0,0,1-.964-5.229,2.691,2.691,0,0,1,1.086-1.895,5.89,5.89,0,0,1,3.427-.852c0-4.876-.275-30.7,0-40.334.306-10.752,7.909-25.191,8.23-25.793l1.362.661c-.076.147-7.771,14.688-8.062,25.176s0,40.775,0,41.128v.852l-.887-.118a5.154,5.154,0,0,0-3.151.485,1.265,1.265,0,0,0-.5.9,10.422,10.422,0,0,0,1.132,5.082l.444.867-.979.191s-.979.264-1.193,1.968a36.681,36.681,0,0,0-.306,3.966v.309l-3.564,3.422,24.92,20.872a181.776,181.776,0,0,0,17.547-10.15c7.465-5.038,8.123-7.006,8.138-7.08v-.4l.367-.117c2.157-.984,5.431-2.938,5.6-4.069.2-1.351-1.362-5.684-2.1-7.77-.306-.837-.536-1.469-.612-1.792-.2-.749.857-8.563,3.9-30.185,1.025-7.344,1.989-14.189,2.417-17.626,1.239-9.827-2.539-27.57-5.859-31.272-3.549-4-12.147-9.636-13.768-9.885l.245-1.469c2.02.323,10.953,6.257,14.625,10.385s7.419,22.826,6.211,32.4c-.428,3.393-1.392,10.282-2.417,17.626-1.7,12.03-4.023,28.51-3.916,29.7a11.228,11.228,0,0,0,.551,1.6c1.224,3.422,2.4,6.9,2.172,8.461-.321,2.144-4.727,4.406-6.119,5.068-.444.911-2.126,3.2-8.613,7.594a181.8,181.8,0,0,1-18.189,10.473Z" transform="translate(-179.298 -82.773)" fill="#263238"/>
            <path id="Tracé_384" data-name="Tracé 384" d="M349.487,309.164c-11.887-4.1-25.1-8.034-27.536-7.785.811,1.043,4.666,2.424,9.622,3.481l-.336,1.469c-3.549-.749-9.668-2.321-10.709-4.3a1.417,1.417,0,0,1,0-1.337c.291-.661,1.193-2.659,29.6,7.124Z" transform="translate(-174.678 -54.264)" fill="#263238"/>
            <path id="Tracé_385" data-name="Tracé 385" d="M343.211,325.545c-.933,0-4.589-1.983-28.01-20.784l.994-1.131c7.557,6.081,19.031,15.085,24.293,18.8-1.912-2.056-4.972-4.994-7.817-7.565l1.04-1.087c2.31,2.086,9.867,9,10.189,10.84l.076.514-.489.338A.552.552,0,0,1,343.211,325.545Z" transform="translate(-177.412 -52.593)" fill="#263238"/>
            <path id="Tracé_386" data-name="Tracé 386" d="M340.521,308s-59.371,36.1-60.7,36.721-16.338,9.959-17.654,13.352-3.763,5.875-2.647,6.786,11.259-4.025,11.259-4.025,11.03-3.819,15.665-6.566a82.534,82.534,0,0,0,10.158-7.638l69.85-16.994Z" transform="translate(-207.062 -50.544)" fill="#eeae8c"/>
            <path id="Tracé_387" data-name="Tracé 387" d="M260.14,365.982a1.213,1.213,0,0,1-.841-.235c-1.178-.911-.337-2.379.719-4.23a26.417,26.417,0,0,0,1.7-3.378c1.438-3.7,16.828-13.146,18.036-13.763s40.188-24.309,60.626-36.721l.49-.294,27.46,22.973-71.074,17.288a80.5,80.5,0,0,1-10.127,7.594c-4.589,2.761-15.374,6.478-15.818,6.639C264.1,365.291,261.318,365.982,260.14,365.982Zm.122-1.469h0c1.239,0,6.257-2.042,10.433-4.054.2,0,11.106-3.848,15.619-6.536a84.007,84.007,0,0,0,10.051-7.55l.138-.117h.184L365.129,329.6l-24.477-20.432c-6.043,3.672-58.989,35.913-60.274,36.545-1.606.764-16.109,9.929-17.287,12.955a30.727,30.727,0,0,1-1.79,3.569,8.723,8.723,0,0,0-1.04,2.306Z" transform="translate(-207.331 -50.844)" fill="#263238"/>
            <path id="Tracé_388" data-name="Tracé 388" d="M392.22,409.98h-30.6a3.675,3.675,0,1,1,0-7.344h27.184l15.68-115.29a3.809,3.809,0,0,1,4.257-2.964,3.712,3.712,0,0,1,3.315,3.919L395.953,406.793a3.758,3.758,0,0,1-3.733,3.187Z" transform="translate(-154.843 -61.632)" fill="#fff"/>
            <path id="Tracé_389" data-name="Tracé 389" d="M392.485,411.014h-30.6a4.41,4.41,0,1,1,0-8.813H388.4l15.589-114.643a4.372,4.372,0,0,1,1.759-2.938,4.635,4.635,0,0,1,3.381-.867,4.445,4.445,0,0,1,3.962,4.935L396.967,407.18A4.527,4.527,0,0,1,392.485,411.014Zm-30.6-7.344a2.94,2.94,0,1,0,0,5.875h30.6a3.022,3.022,0,0,0,3.06-2.556l16.093-118.448a2.853,2.853,0,0,0-.612-2.159,3.132,3.132,0,0,0-3.246-1.032,2.975,2.975,0,0,0-2.215,2.5L389.793,403.773Z" transform="translate(-155.108 -61.932)" fill="#263238"/>
            <path id="Tracé_390" data-name="Tracé 390" d="M406.857,371.811H290.669a5.88,5.88,0,1,1,0-11.751H406.857a5.88,5.88,0,1,1,0,11.751Z" transform="translate(-193.65 -26.136)" fill="#5da2f0"/>
            <path id="Tracé_391" data-name="Tracé 391" d="M407.122,372.78H290.934a6.615,6.615,0,1,1,0-13.22H407.122a6.615,6.615,0,1,1,0,13.22ZM290.934,361.029a5.145,5.145,0,1,0,0,10.282H407.122a5.145,5.145,0,1,0,0-10.282Z" transform="translate(-193.915 -26.37)" fill="#263238"/>
            <path id="Tracé_392" data-name="Tracé 392" d="M390.327,384.9l-7.5-1.469,8.567-39.762a3.108,3.108,0,0,0-.688-2.673,3.327,3.327,0,0,0-2.6-1.19H303.1a3.39,3.39,0,0,0-2.6,1.181,3.107,3.107,0,0,0-.676,2.682l8.552,39.762-7.5,1.469-8.551-39.762a10.249,10.249,0,0,1,2.227-8.778,11.178,11.178,0,0,1,8.482-3.913h85.01a11.178,11.178,0,0,1,8.482,3.913,10.249,10.249,0,0,1,2.227,8.778Z" transform="translate(-189.649 -39.081)" fill="#fff"/>
            <path id="Tracé_393" data-name="Tracé 393" d="M391.19,386.018l-9-1.792,8.72-40.481a2.411,2.411,0,0,0-.552-2.041,2.63,2.63,0,0,0-1.987-.9H303.364a2.613,2.613,0,0,0-1.984.9,2.4,2.4,0,0,0-.541,2.04l8.7,40.481-8.98,1.792-8.72-40.481a10.963,10.963,0,0,1,2.4-9.422,11.959,11.959,0,0,1,9.123-4.164h85.011a11.958,11.958,0,0,1,9.123,4.164,10.962,10.962,0,0,1,2.4,9.423Zm-87.825-52.526a10.4,10.4,0,0,0-7.9,3.6,9.539,9.539,0,0,0-2.117,8.149l8.4,39.042,6-1.19-8.4-39.042a3.835,3.835,0,0,1,.84-3.288,4.183,4.183,0,0,1,3.183-1.456h85.011a4.184,4.184,0,0,1,3.193,1.451,3.835,3.835,0,0,1,.845,3.294L384,383.08l6,1.19,8.4-39.027a9.525,9.525,0,0,0-2.111-8.155,10.39,10.39,0,0,0-7.91-3.6Z" transform="translate(-189.915 -39.315)" fill="#263238"/>
            <path id="Tracé_394" data-name="Tracé 394" d="M432.021,522.083a3.783,3.783,0,0,1-3.779-3.07l-24.92-145.959H307.205l-24.92,145.959a3.814,3.814,0,0,1-4.4,3.033,3.7,3.7,0,0,1-3.159-4.223l25.456-149.029a3.766,3.766,0,0,1,3.763-3.085H406.565a3.782,3.782,0,0,1,3.779,3.085L435.8,517.824a3.707,3.707,0,0,1-3.167,4.216A4.284,4.284,0,0,1,432.021,522.083Z" transform="translate(-198.881 -23.487)" fill="#fff"/>
            <path id="Tracé_395" data-name="Tracé 395" d="M278.784,523.034a4.611,4.611,0,0,1-.765,0,4.431,4.431,0,0,1-3.779-5.053l25.441-149.029a4.541,4.541,0,0,1,4.589-3.7H406.889a4.541,4.541,0,0,1,4.589,3.7l25.456,149.029a4.431,4.431,0,0,1-3.763,5.082,4.577,4.577,0,0,1-5.293-3.613L403.065,374.034H308.217L283.4,519.45a4.538,4.538,0,0,1-4.513,3.687ZM304.209,366.66a3.027,3.027,0,0,0-3.059,2.468L275.755,518.157a2.849,2.849,0,0,0,.535,2.189,3.142,3.142,0,0,0,4.268.676,2.923,2.923,0,0,0,1.224-1.924L306.81,372.535h97.432l.092.617,24.92,145.959a2.925,2.925,0,0,0,1.236,1.912,3.159,3.159,0,0,0,2.283.511,3.079,3.079,0,0,0,1.989-1.175,2.848,2.848,0,0,0,.535-2.189l-25.44-149.044a3.027,3.027,0,0,0-3.06-2.468Z" transform="translate(-199.143 -23.703)" fill="#263238"/>
            <path id="Tracé_396" data-name="Tracé 396" d="M443.3,256.327s-17.149,6.331-32.768,10.355-23.972,5.332-23.972,5.332-16.063-2.747-18.48-3.378A7.889,7.889,0,0,0,361.7,270.1c-.658.837-7.909,4.216-11.657,5.273s-3.06,2.747-2.2,4.23,3.06,1.058,4.85.837,9.179-1.469,9.179-1.469-6.823,5.494-11,8.035-6.609,5.273-6.119,6.757,2.647,1.263,3.519.837,17.593-6.331,17.593-6.331-9.179,6.331-10.326,6.977-6.823,3.378-7.267,5.068a2.2,2.2,0,0,0,.344,1.992,2.4,2.4,0,0,0,1.859.946c1.53.206,10.708-2.747,10.708-2.747s-5.706,3.8-4.589,5.068a3.581,3.581,0,0,0,3.947.632,85.548,85.548,0,0,1,8.582-1.469s7.267-2.336,10.556-4.656,11.657-14.351,11.657-14.351,32.34,1.895,54.109-1.278,30.6-7.344,31.024-10.767-1.759-23.648-1.759-23.648Z" transform="translate(-161.789 -77.718)" fill="#ffead9"/>
            <path id="Tracé_397" data-name="Tracé 397" d="M359.362,307.562a4,4,0,0,1-3.06-1.234,1.427,1.427,0,0,1-.306-1.072,5.567,5.567,0,0,1,1.836-2.571,31.033,31.033,0,0,1-7.205,1.572,3.537,3.537,0,0,1-2.463-1.351,2.938,2.938,0,0,1-.367-2.5c.367-1.469,2.983-3.085,6.792-5.1l.811-.426c.52-.294,3.06-1.983,5.6-3.745-5.752,2.056-11.657,4.171-12.116,4.406a4.431,4.431,0,0,1-3.289.132,2.2,2.2,0,0,1-1.316-1.469c-.673-2.291,2.907-5.42,6.486-7.579,2.616-1.586,6.318-4.406,8.674-6.213-2.31.4-5.354.881-6.41,1.013h-.444c-1.713.22-4.085.514-5.155-1.278a3.583,3.583,0,0,1-.612-3.114,4.591,4.591,0,0,1,3.259-2.174,52.813,52.813,0,0,0,11.274-5.023,8.559,8.559,0,0,1,7.175-1.733c2.249.587,16.828,3.07,18.281,3.334,1.1-.176,9.408-1.542,23.773-5.244,15.4-3.951,32.523-10.282,32.692-10.282h.122l32.279-6.507.092.823c.092.823,2.2,20.388,1.759,23.81-.581,4.406-11.825,8.519-31.651,11.413-20.239,2.938-49.886,1.469-53.833,1.293-1.438,2.042-8.506,12.03-11.6,14.2a51.386,51.386,0,0,1-10.709,4.744,85.252,85.252,0,0,0-8.429,1.469A3.735,3.735,0,0,1,359.362,307.562Zm6.991-9.092-4.39,2.938c-2.325,1.557-4.436,3.5-4.436,4.083a3.02,3.02,0,0,0,2.922.411,55,55,0,0,1,8.888-1.6h0a52.727,52.727,0,0,0,10.219-4.509c3.151-2.218,11.382-14.057,11.473-14.174l.245-.352h.428c.321,0,32.508,1.851,53.956-1.263,28.179-4.1,30.244-9.166,30.366-10.135.367-2.938-1.27-18.875-1.683-22.679l-30.6,6.155c-1.117.411-17.776,6.492-32.8,10.355-15.481,3.981-23.972,5.288-24.048,5.288h-.26c-.658-.1-16.109-2.761-18.541-3.393a7.392,7.392,0,0,0-5.569,1.219c-.887,1.131-8.551,4.553-12.055,5.538-1.27.367-2.05.808-2.264,1.322s.122,1.175.52,1.836,1.82.764,3.626.529h.459c1.713-.22,9.179-1.469,9.179-1.469l2.815-.47-2.188,1.763c-.291.22-6.915,5.552-11.091,8.079s-6.119,5.112-5.828,5.875a.732.732,0,0,0,.459.485,2.843,2.843,0,0,0,1.989-.088c.887-.426,15.956-5.758,17.669-6.375l5.339-1.88-4.589,3.173c-.367.25-9.271,6.36-10.387,7.006l-.841.455c-3.824,2.012-5.874,3.422-6.119,4.157a1.545,1.545,0,0,0,.153,1.322,1.982,1.982,0,0,0,1.407.72,62.313,62.313,0,0,0,10.433-2.7Z" transform="translate(-162.05 -78.014)" fill="#263238"/>
            <path id="Tracé_398" data-name="Tracé 398" d="M356.009,286.845l-.719-1.292s5.14-2.571,10.586-5.082l.658,1.322C361.119,284.289,356.055,286.83,356.009,286.845Z" transform="translate(-156.173 -63.451)" fill="#263238"/>
            <path id="Tracé_399" data-name="Tracé 399" d="M355.373,291.149l-.413-1.469c.107,0,10.816-2.938,13.768-6.11l1.147.969C366.617,288.094,355.832,291.032,355.373,291.149Z" transform="translate(-156.347 -61.998)" fill="#263238"/>
            <path id="Tracé_400" data-name="Tracé 400" d="M400.344,210.42s-5.4,18.317-4.681,25.91,12.59,47.326,12.59,47.326,4.681,1.028,13.309-.352a158.777,158.777,0,0,0,16.919-3.76l13.309-4.495s-13.676-48.354-16.92-57.285-15.818-20.035-20.5-23.134-10.433,0-10.433,0" transform="translate(-134.818 -104.343)" fill="#07b5e7"/>
            <path id="Tracé_401" data-name="Tracé 401" d="M413.4,285.038a27.366,27.366,0,0,1-5.048-.382l-.444-.1-.122-.411c-.49-1.63-11.9-39.879-12.621-47.458s4.482-25.426,4.712-26.175l1.53.4c0,.176-5.354,18.258-4.589,25.646.658,7.006,11.137,42.376,12.437,46.739a42.178,42.178,0,0,0,12.575-.426,158.616,158.616,0,0,0,16.828-3.775l12.606-4.26c-1.652-5.875-13.768-48.34-16.705-56.624-3.151-8.813-15.573-19.7-20.209-22.782-4.237-2.82-9.576,0-9.622,0l-.75-1.278c.245-.132,6.226-3.29,11.229,0,4.161,2.761,17.332,13.9,20.805,23.5,3.2,8.9,16.828,56.9,16.92,57.388l.183.661-13.982,4.715a161.76,161.76,0,0,1-17.026,3.834A54.657,54.657,0,0,1,413.4,285.038Z" transform="translate(-135.084 -104.624)" fill="#263238"/>
          </g>
        </g>
      </g>
    </g>
  </g>
</svg>
