<svg xmlns="http://www.w3.org/2000/svg" xmlns:xlink="http://www.w3.org/1999/xlink" width="543.975" height="784.059" viewBox="0 0 543.975 784.059">
  <defs>
    <filter id="Rectangle_2127" x="71" y="17.214" width="422.163" height="715.845" filterUnits="userSpaceOnUse">
      <feOffset input="SourceAlpha"/>
      <feGaussianBlur stdDeviation="6" result="blur"/>
      <feFlood flood-color="#dfdfdf" flood-opacity="0.231" result="color"/>
      <feComposite operator="out" in="SourceGraphic" in2="blur"/>
      <feComposite operator="in" in="color"/>
      <feComposite operator="in" in2="SourceGraphic"/>
    </filter>
    <clipPath id="clip-path">
      <rect id="Rectangle_2124" data-name="Rectangle 2124" width="422.661" height="715.845" rx="6" transform="translate(0 69.947)" fill="#e8eff7" opacity="0.37"/>
    </clipPath>
  </defs>
  <g id="aide-soignant" transform="translate(60.204 -52.733)">
    <rect id="Rectangle_2128" data-name="Rectangle 2128" width="441.975" height="682.059" rx="54" transform="translate(-9.204 103.733)" fill="rgba(162,162,162,0.22)" opacity="0.3"/>
    <g data-type="innerShadowGroup">
      <rect id="Rectangle_2127-2" data-name="Rectangle 2127" width="422.163" height="715.845" rx="54" transform="translate(10.796 69.947)" fill="#fff"/>
      <g transform="matrix(1, 0, 0, 1, -60.2, 52.73)" filter="url(#Rectangle_2127)">
        <rect id="Rectangle_2127-3" data-name="Rectangle 2127" width="422.163" height="715.845" rx="54" transform="translate(71 17.21)" fill="#fff"/>
      </g>
    </g>
    <g id="Groupe_de_masques_27" data-name="Groupe de masques 27" transform="translate(9.796)" clip-path="url(#clip-path)">
      <g id="aide_soignante2_illustration" data-name="aide soignante2 illustration" transform="translate(-72.195 183.374)">
        <g id="Background_Simple" data-name="Background Simple" transform="translate(44.309 0)">
          <path id="Tracé_265" data-name="Tracé 265" d="M443.945,84.1S377.07,25.023,273.376,22.8,121.781,78.534,125.157,135.375s-91.39,86.943-96.966,146.019S60.517,410.685,118.475,423s55.735,30.1,110.352,61.311S346.968,534.472,394.9,512.18s59.076-62.428,107.047-103.659S564.367,260.3,535.393,193.392,443.945,84.1,443.945,84.1Z" transform="translate(-27.649 -22.737)" fill="#09a4f4"/>
          <g id="Groupe_5" data-name="Groupe 5" opacity="0.7">
            <path id="Tracé_266" data-name="Tracé 266" d="M443.945,84.1S377.07,25.023,273.376,22.8,121.781,78.534,125.157,135.375s-91.39,86.943-96.966,146.019S60.517,410.685,118.475,423s55.735,30.1,110.352,61.311S346.968,534.472,394.9,512.18s59.076-62.428,107.047-103.659S564.367,260.3,535.393,193.392,443.945,84.1,443.945,84.1Z" transform="translate(-27.649 -22.737)" fill="#fff"/>
          </g>
        </g>
        <g id="Floor" transform="translate(0 509.664)">
          <rect id="Rectangle_19" data-name="Rectangle 19" width="616.892" height="1.176" fill="#263238"/>
        </g>
        <g id="Windows" transform="translate(48.005 19.554)">
          <path id="Tracé_267" data-name="Tracé 267" d="M31.378,300.378a.6.6,0,0,1-.588-.588V39.948a.588.588,0,0,1,.588-.588H191.6a.588.588,0,0,1,.588.588v99.918a.588.588,0,0,1-1.176,0V40.536H31.966V299.79A.588.588,0,0,1,31.378,300.378Z" transform="translate(-30.79 -39.36)" fill="#263238"/>
          <path id="Tracé_268" data-name="Tracé 268" d="M191.6,310.938H31.378a.588.588,0,0,1-.588-.588V292.705a.588.588,0,0,1,1.176,0v17.08H191.019V132.758a.588.588,0,0,1,.588-.588.6.6,0,0,1,.588.588V310.385A.588.588,0,0,1,191.6,310.938Z" transform="translate(-30.79 -22.994)" fill="#263238"/>
          <path id="Tracé_269" data-name="Tracé 269" d="M338.4,327.3H178.178a.588.588,0,0,1-.588-.588V39.948a.588.588,0,0,1,.588-.588H338.4a.588.588,0,0,1,.588.588v20a.6.6,0,0,1-.588.588.588.588,0,0,1-.588-.588V40.536H178.766V326.128H337.807V70.862a.588.588,0,1,1,1.176,0V326.716A.588.588,0,0,1,338.4,327.3Z" transform="translate(-4.903 -39.36)" fill="#263238"/>
          <path id="Tracé_270" data-name="Tracé 270" d="M485.184,327.3H324.978a.588.588,0,0,1-.588-.588V39.948a.588.588,0,0,1,.588-.588H485.184a.588.588,0,0,1,.588.588V164.275a.588.588,0,1,1-1.176,0V40.536H325.566V326.128H484.6V175.215a.6.6,0,0,1,.588-.588.588.588,0,0,1,.588.588v151.5A.588.588,0,0,1,485.184,327.3Z" transform="translate(20.983 -39.36)" fill="#263238"/>
          <path id="Tracé_271" data-name="Tracé 271" d="M52.487,151.807a.635.635,0,0,1-.412-.165.6.6,0,0,1,0-.835l15.481-15.481a.588.588,0,0,1,.835,0,.6.6,0,0,1,0,.835L52.911,151.642A.635.635,0,0,1,52.487,151.807Z" transform="translate(-27.066 -22.468)" fill="#263238"/>
          <path id="Tracé_272" data-name="Tracé 272" d="M70.3,146.187a.635.635,0,0,1-.412-.165.588.588,0,0,1,0-.835l96.8-96.8a.588.588,0,0,1,.835,0,.565.565,0,0,1,0,.823l-96.8,96.813A.635.635,0,0,1,70.3,146.187Z" transform="translate(-23.926 -37.799)" fill="#263238"/>
          <path id="Tracé_273" data-name="Tracé 273" d="M46.369,173.04a.594.594,0,0,1-.423-1.012l34.443-34.443a.6.6,0,0,1,.835,0,.588.588,0,0,1,0,.835L46.781,172.864A.588.588,0,0,1,46.369,173.04Z" transform="translate(-28.147 -22.069)" fill="#263238"/>
          <path id="Tracé_274" data-name="Tracé 274" d="M196.179,178.22a.635.635,0,0,1-.423-.165.6.6,0,0,1,0-.835l50.9-50.865a.582.582,0,0,1,.823.823l-50.865,50.877A.612.612,0,0,1,196.179,178.22Z" transform="translate(-1.73 -24.049)" fill="#263238"/>
          <path id="Tracé_275" data-name="Tracé 275" d="M406.6,241.709a.635.635,0,0,1-.423-.165.6.6,0,0,1,0-.835l6.493-6.493a.591.591,0,1,1,.835.835l-6.493,6.493A.612.612,0,0,1,406.6,241.709Z" transform="translate(35.375 -5.03)" fill="#263238"/>
          <path id="Tracé_276" data-name="Tracé 276" d="M417.479,235.984a.635.635,0,0,1-.423-.165.6.6,0,0,1,0-.835l40.878-40.878a.591.591,0,1,1,.835.835l-40.878,40.878A.612.612,0,0,1,417.479,235.984Z" transform="translate(37.294 -12.103)" fill="#263238"/>
          <path id="Tracé_277" data-name="Tracé 277" d="M438.939,199.477a.588.588,0,0,1-.412-.176.565.565,0,0,1,0-.823l13.222-13.222a.586.586,0,0,1,.823.835l-13.21,13.21A.6.6,0,0,1,438.939,199.477Z" transform="translate(41.079 -13.663)" fill="#263238"/>
          <path id="Tracé_278" data-name="Tracé 278" d="M374.248,85.589a.553.553,0,0,1-.412-.165.588.588,0,0,1,0-.835l34.843-34.843a.588.588,0,0,1,.835,0,.6.6,0,0,1,0,.835L374.659,85.424a.541.541,0,0,1-.412.165Z" transform="translate(29.672 -37.559)" fill="#263238"/>
          <path id="Tracé_279" data-name="Tracé 279" d="M365.738,78.428a.553.553,0,0,1-.412-.176.565.565,0,0,1,0-.823l12.01-12.022a.591.591,0,1,1,.835.835L366.15,78.252a.553.553,0,0,1-.412.176Z" transform="translate(28.171 -34.798)" fill="#263238"/>
          <path id="Tracé_280" data-name="Tracé 280" d="M527.307,304.066H85.568a.588.588,0,0,1,0-1.176H527.307a.6.6,0,0,1,.588.588A.588.588,0,0,1,527.307,304.066Z" transform="translate(-21.234 7.111)" fill="#263238"/>
          <path id="Tracé_281" data-name="Tracé 281" d="M85.741,304.066H32.088a.588.588,0,1,1,0-1.176H85.741a.6.6,0,0,1,.588.588A.588.588,0,0,1,85.741,304.066Z" transform="translate(-30.665 7.111)" fill="#263238"/>
        </g>
        <g id="Plant" transform="translate(55.543 276.894)">
          <path id="Tracé_289" data-name="Tracé 289" d="M101.9,325.36h0a.129.129,0,1,0-.235-.094,161.72,161.72,0,0,0-8.458,26.515A246.517,246.517,0,0,0,88.5,379.272l-.671,6.952c-.094,1.176-.224,2.353-.306,3.529l-.188,3.529c-.106,2.353-.247,4.646-.318,6.976l.071,6.987.071,3.529c0,1.176.141,2.353.224,3.529.176,2.353.318,4.635.529,6.952.447,4.635,1.176,9.234,1.859,13.822a.118.118,0,0,0,.235-.023h0c0-2.353-.106-4.647-.165-6.964s-.259-4.623-.235-6.929,0-4.623-.071-6.94l-.071-3.458.071-3.458v-6.917l.188-6.917.071-3.458c0-1.176.141-2.353.2-3.458l.423-6.917a244.971,244.971,0,0,1,4-27.609A160.442,160.442,0,0,1,101.9,325.36Z" transform="translate(-28.413 -246.302)" fill="#263238"/>
          <path id="Tracé_290" data-name="Tracé 290" d="M101.945,356.114a.141.141,0,0,0-.082-.153.118.118,0,0,0-.153.082,166.168,166.168,0,0,0-4.929,17.61,163.516,163.516,0,0,0-2.906,18.057c-.612,6.058-1.294,12.116-1.376,18.21a150.336,150.336,0,0,0,.6,18.222.129.129,0,0,0,.106.106.118.118,0,0,0,.141-.106c.706-6.058,1.176-12.116,1.553-18.151s.482-12.1.882-18.151a180.194,180.194,0,0,1,6.117-35.725Z" transform="translate(-27.457 -240.872)" fill="#263238"/>
          <path id="Tracé_291" data-name="Tracé 291" d="M121.325,366.915a.118.118,0,0,0-.165,0,61.431,61.431,0,0,0-13.446,11.657,54.514,54.514,0,0,0-5.235,7.293L101.4,387.9l-.847,2.117a17.643,17.643,0,0,0-.729,2.141c-.224.717-.459,1.435-.659,2.164a86.292,86.292,0,0,0-2.776,17.645,102.51,102.51,0,0,0,.741,17.869.106.106,0,0,0,.106.106.141.141,0,0,0,.141-.118l1.517-17.645a158.4,158.4,0,0,1,2.235-17.4c.165-.706.365-1.4.553-2.106a17.645,17.645,0,0,1,.612-2.082l.718-2.035.918-1.929a52.084,52.084,0,0,1,4.811-7.293,60.443,60.443,0,0,1,12.6-12.257h0a.118.118,0,0,0-.012-.165Z" transform="translate(-26.78 -238.945)" fill="#263238"/>
          <path id="Tracé_292" data-name="Tracé 292" d="M111.009,386.18a19.527,19.527,0,0,0-6.105,7.329,43.243,43.243,0,0,0-3.411,8.987,22.535,22.535,0,0,0-.6,2.353l-.553,2.353a40.862,40.862,0,0,0-.6,4.764q0,2.4,0,4.8a43.266,43.266,0,0,0,.623,4.764.141.141,0,0,0,.106.094.118.118,0,0,0,.141-.094,41.43,41.43,0,0,0,.847-4.705c.247-1.553.494-3.094.671-4.635s.435-3.07.553-4.623a31.636,31.636,0,0,1,.671-4.6,41.169,41.169,0,0,1,2.611-8.9,19.7,19.7,0,0,1,5.117-7.646h0a.129.129,0,0,0,0-.165A.117.117,0,0,0,111.009,386.18Z" transform="translate(-26.17 -235.542)" fill="#263238"/>
          <path id="Tracé_293" data-name="Tracé 293" d="M87.216,411.645c-.659-7.834-1.953-15.587-3.176-23.327s-2.564-15.481-3.988-23.2-3-15.386-4.705-23.056a.141.141,0,0,0-.141-.094.129.129,0,0,0-.106.141c1.341,7.729,2.553,15.469,3.705,23.221s2.329,15.492,3.306,23.256,1.706,15.563,2.67,23.315l2.87,23.315a.124.124,0,0,0,.247-.012c.082-1.965.082-3.929.141-5.882s-.082-3.929-.118-5.882C87.852,419.479,87.51,415.562,87.216,411.645Z" transform="translate(-30.515 -243.338)" fill="#263238"/>
          <path id="Tracé_294" data-name="Tracé 294" d="M84.394,408.925c-.423-3.106-.988-6.188-1.588-9.27l-1.094-4.564c-.365-1.529-.706-3.058-1.176-4.564a129.247,129.247,0,0,0-5.976-17.81l-.941-2.153-1.047-2.106c-.659-1.423-1.47-2.776-2.223-4.141a34.762,34.762,0,0,0-5.658-7.493.118.118,0,0,0-.165,0,.129.129,0,0,0,0,.176h0a34.326,34.326,0,0,1,5.164,7.658c.682,1.4,1.4,2.764,1.988,4.2L72.595,371l.812,2.176a126.146,126.146,0,0,1,5.223,17.81c.718,3.011,1.176,6.082,1.765,9.117l.741,4.6c.259,1.517.588,3.035.8,4.576.494,3.059,1.059,6.117,1.588,9.175s1.035,6.14,1.682,9.211a.141.141,0,0,0,.129.094.118.118,0,0,0,.118-.118q0-4.705-.224-9.411C85.088,415.148,84.723,412.031,84.394,408.925Z" transform="translate(-32.385 -240.724)" fill="#263238"/>
          <path id="Tracé_295" data-name="Tracé 295" d="M77.608,404.979c-1.447-4.117-3.129-8.14-4.964-12.081a108.593,108.593,0,0,0-6.235-11.434.129.129,0,0,0-.165,0,.117.117,0,0,0,0,.165,106.014,106.014,0,0,1,5.329,11.763c1.588,4.011,3.023,8.07,4.223,12.2s2.059,8.27,3.106,12.469,2.082,8.317,3.364,12.516a.118.118,0,1,0,.235,0,62.9,62.9,0,0,0-1.176-13.034,81.532,81.532,0,0,0-3.717-12.563Z" transform="translate(-32.082 -236.379)" fill="#263238"/>
          <path id="Tracé_296" data-name="Tracé 296" d="M77.982,415.7a28.116,28.116,0,0,0-3.447-7.223,29.506,29.506,0,0,0-5.023-6.234,22.458,22.458,0,0,0-3.188-2.411A12.753,12.753,0,0,0,62.7,398.2a.118.118,0,0,0-.071.224h0a17.856,17.856,0,0,1,6,4.705,28.09,28.09,0,0,1,4.188,6.341c1.176,2.247,1.8,4.705,2.835,7.058.459,1.176.906,2.353,1.435,3.529a29.409,29.409,0,0,0,1.576,3.623h0a.129.129,0,0,0,.106.07.118.118,0,0,0,.129-.118,28.519,28.519,0,0,0-.141-4.011C78.57,418.316,78.3,417.01,77.982,415.7Z" transform="translate(-32.726 -233.423)" fill="#263238"/>
          <path id="Tracé_297" data-name="Tracé 297" d="M79.665,364.026a22.256,22.256,0,0,1-15.786-16.775c-2.964-13.822,6.576-7.893-1.976-29.62s-6.588-26.644-3.623-32.937,4.611-4.27,7.235,3.952,12.175,21.056,15.8,45.077S79.665,364.026,79.665,364.026Z" transform="translate(-33.927 -254.09)" fill="#07b5e7"/>
          <path id="Tracé_298" data-name="Tracé 298" d="M98.953,344.7s-8.552-2.953-8.881-19.08,6.246-12.834,7.234-32.937,2.353-34.22,5.882-34.549,13.163,9.87,16.469,32.244-4.27,37.184-10.858,43.76S98.953,344.7,98.953,344.7Z" transform="translate(-27.877 -258.123)" fill="#07b5e7"/>
          <path id="Tracé_299" data-name="Tracé 299" d="M77.492,375.459s-1.976-11.846-5.882-17.445-12.5-10.528-18.092-21.386S41.672,320.5,42,335.969s7.234,23.362,15.786,28.632S77.492,375.459,77.492,375.459Z" transform="translate(-36.353 -246.101)" fill="#07b5e7"/>
          <path id="Tracé_300" data-name="Tracé 300" d="M74.714,391.382s-7.893-15.14-19.41-26.327-20.692-16.775-17.445-11.187,7.234,5.27,12.834,15.14,3.917,17.163,11.846,22.7S74.714,391.382,74.714,391.382Z" transform="translate(-37.198 -241.626)" fill="#07b5e7"/>
          <path id="Tracé_301" data-name="Tracé 301" d="M73.1,404.6c-.329-.988-.659-8.234-11.846-14.116s-21.715-3.623-20.4-.659S49.091,397.715,56,400.679,73.1,404.6,73.1,404.6Z" transform="translate(-36.573 -235.431)" fill="#07b5e7"/>
          <path id="Tracé_302" data-name="Tracé 302" d="M97.524,377.729s-4.929-6.258-2.353-19.421,8.564-9.87,15.139-16.775,5.317-7.9,11.846-15.151,12.5-11.187,15.139-8.234-1.318,12.175-5.27,17.433-10.2,7.9-13.163,14.481-1.647,17.116-9.211,22.045S97.524,377.729,97.524,377.729Z" transform="translate(-27.107 -247.713)" fill="#07b5e7"/>
          <path id="Tracé_303" data-name="Tracé 303" d="M111.05,377.22s11.846-13.481,20.4-23.362S143.293,336.425,143.623,343s2.964,11.846-3.953,20.41S111.05,377.22,111.05,377.22Z" transform="translate(-24.175 -243.592)" fill="#07b5e7"/>
          <path id="Tracé_304" data-name="Tracé 304" d="M105.73,394.6s-.329-5.27,18.433-17.445,26.644-14.481,24.7-9.54-10.211,9.869-19.092,18.751S105.73,394.6,105.73,394.6Z" transform="translate(-25.113 -239.244)" fill="#07b5e7"/>
          <path id="Tracé_305" data-name="Tracé 305" d="M79.323,361.165a.576.576,0,0,1-.576-.482c0-.235-4.458-23.774-9-40.337s-7.54-26.868-7.564-26.973a.588.588,0,0,1,.4-.729.6.6,0,0,1,.729.4c0,.106,3.011,10.4,7.564,27s8.975,40.2,9.023,40.431a.588.588,0,0,1-.471.682Z" transform="translate(-32.796 -252.04)" fill="#263238"/>
          <path id="Tracé_306" data-name="Tracé 306" d="M97.089,343.846h-.176a.576.576,0,0,1-.388-.729c.082-.259,8.011-25.727,10.587-40.972,2.353-13.8.212-24.421-1.176-31.444-.165-.8-.306-1.541-.447-2.247a.588.588,0,0,1,.471-.682.576.576,0,0,1,.682.459c.141.706.294,1.447.447,2.235,1.435,7.117,3.529,17.857,1.176,31.867-2.611,15.292-10.587,40.878-10.658,41.172a.577.577,0,0,1-.518.341Z" transform="translate(-26.741 -256.424)" fill="#263238"/>
          <path id="Tracé_307" data-name="Tracé 307" d="M75.614,374.135a.576.576,0,0,1-.518-.306,124.746,124.746,0,0,0-12.057-17.175c-1.859-2.188-3.529-4.094-5.223-5.882-4.705-5.258-8.517-9.411-11-15.622a.576.576,0,0,1,.329-.765.588.588,0,0,1,.765.329c2.353,6.011,6.093,10.1,10.775,15.292,1.659,1.847,3.388,3.753,5.246,5.952a126.867,126.867,0,0,1,12.187,17.363.577.577,0,0,1-.224.8.518.518,0,0,1-.282.012Z" transform="translate(-35.51 -244.683)" fill="#263238"/>
          <path id="Tracé_308" data-name="Tracé 308" d="M97.144,377.316h-.071a.576.576,0,0,1-.482-.671c.106-.659,2.729-16.034,9-24.291,2.423-3.188,5.764-7.058,9.293-11.116,5.588-6.446,11.363-13.116,14.363-18.1a.576.576,0,0,1,.8-.212.588.588,0,0,1,.2.812c-3.047,5.082-8.858,11.763-14.481,18.28-3.529,4.058-6.835,7.893-9.246,11.058-6.093,8.023-8.74,23.609-8.775,23.762A.588.588,0,0,1,97.144,377.316Z" transform="translate(-26.726 -246.711)" fill="#263238"/>
          <path id="Tracé_309" data-name="Tracé 309" d="M70.521,403.979a.624.624,0,0,1-.318-.094c-.106-.071-11.14-7.234-18.916-11.128a.588.588,0,0,1-.259-.788.577.577,0,0,1,.788-.259c7.834,3.917,18.916,11.116,19.033,11.187a.588.588,0,0,1,.165.812.565.565,0,0,1-.494.271Z" transform="translate(-34.77 -234.579)" fill="#263238"/>
          <path id="Tracé_310" data-name="Tracé 310" d="M99.878,470.576H85.35a6.352,6.352,0,0,1-5.882-3.894c-4.705-11.34-17.363-44.077-9.752-53.359,7.246-8.834,38.49-8.834,45.736,0,7.611,9.281-5.023,42.019-9.764,53.359a6.329,6.329,0,0,1-5.811,3.894Z" transform="translate(-31.884 -231.924)" fill="#575757"/>
          <path id="Tracé_311" data-name="Tracé 311" d="M99.963,471.208H85.435a6.94,6.94,0,0,1-6.411-4.27c-5.458-13.1-17.351-44.583-9.646-53.912,4.141-5.046,14.763-6.846,23.327-6.846s19.186,1.788,23.327,6.846c7.681,9.411-4.211,40.843-9.67,53.947a6.94,6.94,0,0,1-6.4,4.235Zm-7.246-63.887c-10.422,0-19.221,2.517-22.35,6.411-7.482,9.128,5.646,42.689,9.846,52.759a5.764,5.764,0,0,0,5.317,3.529H99.963a5.764,5.764,0,0,0,5.317-3.529c4.2-10.069,17.327-43.63,9.846-52.759-3.223-3.894-12.022-6.411-22.445-6.411Z" transform="translate(-31.968 -232.015)" fill="#263238"/>
        </g>
        <g id="Glass" transform="translate(227.025 285.354)">
          <path id="Tracé_282" data-name="Tracé 282" d="M235.838,286.4H214.93l2.089,31.134h16.716Z" transform="translate(-214.225 -285.747)" fill="#6ec2d9"/>
          <path id="Tracé_283" data-name="Tracé 283" d="M234.515,318.34H216.571L214.39,285.9H236.7ZM217.8,317.034h15.5l2-29.828H215.787Z" transform="translate(-214.39 -285.9)" fill="#263238"/>
        </g>
        <g id="Table" transform="translate(103.313 316.5)">
          <rect id="Rectangle_20" data-name="Rectangle 20" width="24.891" height="170.713" transform="translate(100.714 32.701)" fill="#575757"/>
          <path id="Tracé_284" data-name="Tracé 284" d="M222.477,506.3h-26.2V334.29h26.2Zm-24.891-1.306h23.585V335.6H197.586Z" transform="translate(-96.219 -302.242)" fill="#263238"/>
          <rect id="Rectangle_21" data-name="Rectangle 21" width="40.158" height="28.052" transform="translate(93.088 5.824)" fill="#575757"/>
          <path id="Tracé_285" data-name="Tracé 285" d="M231.9,343.068H190.44V313.71H231.9Zm-40.158-1.306H230.6V315.016H191.746Z" transform="translate(-98.005 -308.538)" fill="#263238"/>
          <rect id="Rectangle_22" data-name="Rectangle 22" width="179.476" height="6.634" transform="translate(23.429 5.824)" fill="#575757"/>
          <path id="Tracé_286" data-name="Tracé 286" d="M317.882,321.65H137.1v-7.94H317.882Zm-179.476-1.306h178.17v-5.328H138.406Z" transform="translate(-114.324 -308.538)" fill="#263238"/>
          <rect id="Rectangle_23" data-name="Rectangle 23" width="162.59" height="6.634" transform="translate(31.865 203.231)" fill="#575757"/>
          <path id="Tracé_287" data-name="Tracé 287" d="M307.456,472.86H143.56v-7.94h163.9Zm-162.59-1.306H306.15v-5.328H144.866Z" transform="translate(-112.348 -262.277)" fill="#263238"/>
          <rect id="Rectangle_24" data-name="Rectangle 24" width="225.027" height="5.746" transform="translate(0.653 0.653)" fill="#8c8c8c"/>
          <path id="Tracé_288" data-name="Tracé 288" d="M346.032,316.8H119.66V309.75H346.032ZM121.005,315.5H344.726v-4.44H120.966Z" transform="translate(-119.66 -309.75)" fill="#263238"/>
        </g>
        <g id="Characters" transform="translate(241.051 85.313)">
          <path id="Tracé_312" data-name="Tracé 312" d="M422.006,447.728s-5.929,7.274-8.358,8.893-12.655,8.345-15.358,9.429-5.119,3.226-4.845,5.119,7.836,2.416,16.977,4.035,31.512-1.894,31.512-1.894,9.142.261,9.142-3.239-3.5-23.7-3.5-23.7Z" transform="translate(-173.642 -36.764)" fill="#fff"/>
          <path id="Tracé_313" data-name="Tracé 313" d="M416.955,476.448a38.871,38.871,0,0,1-6.53-.444c-2.3-.4-4.492-.731-6.53-1.045-7.444-1.149-10.748-1.724-11.009-3.539-.326-2.312,2.4-4.675,5.224-5.824,2.442-.979,11.753-7.091,15.227-9.364,2.325-1.541,8.162-8.685,8.214-8.763l.183-.222,26.458-1.4.1.574c.144.823,3.513,20.307,3.513,23.82a2.508,2.508,0,0,1-.836,1.881c-2.207,2.142-8.306,2.024-9,2.011A198.082,198.082,0,0,1,416.955,476.448Zm5.537-27.934c-1.032,1.306-6.047,7.3-8.306,8.8-.131.091-12.406,8.267-15.476,9.494-2.612,1.058-4.649,3.043-4.453,4.427.144.927,5.563,1.763,9.912,2.429,2.024.313,4.231.653,6.53,1.058,8.959,1.58,31.095-1.854,31.343-1.894,1.828,0,6.634-.157,8.175-1.646a1.306,1.306,0,0,0,.431-.94c0-3.082-2.834-19.72-3.4-23.024Z" transform="translate(-173.814 -36.923)" fill="#263238"/>
          <path id="Tracé_314" data-name="Tracé 314" d="M451.1,465.335a34,34,0,0,0-.313-3.435c-7.274,1.711-21.653,4.7-32.283,4.518a144.6,144.6,0,0,1-24.081-2.494,3.278,3.278,0,0,0-.98,2.494c.274,1.881,7.836,2.416,16.977,4.035s31.513-1.894,31.513-1.894S451.1,468.835,451.1,465.335Z" transform="translate(-173.638 -32.013)" fill="#fff"/>
          <path id="Tracé_315" data-name="Tracé 315" d="M416.95,471.74a38.865,38.865,0,0,1-6.53-.444c-2.3-.4-4.492-.731-6.53-1.045-7.444-1.149-10.748-1.724-11.009-3.539a3.918,3.918,0,0,1,1.136-3l.248-.287h.379A143.922,143.922,0,0,0,418.6,465.9c10.526.209,24.63-2.742,32.126-4.492l.705-.17.092.718a31.965,31.965,0,0,1,.326,3.513,2.508,2.508,0,0,1-.836,1.88c-2.207,2.142-8.306,2.024-9,2.011A198.1,198.1,0,0,1,416.95,471.74Zm-22.1-6.9a2.5,2.5,0,0,0-.6,1.685c.144.927,5.563,1.763,9.912,2.429,2.024.313,4.231.653,6.53,1.058,8.959,1.58,31.095-1.854,31.343-1.893,1.815,0,6.634-.157,8.175-1.646a1.306,1.306,0,0,0,.431-.94c0-.5-.078-1.306-.222-2.612C442.7,464.714,429,467.5,418.687,467.3a146.558,146.558,0,0,1-23.833-2.455Z" transform="translate(-173.81 -32.215)" fill="#263238"/>
          <path id="Tracé_316" data-name="Tracé 316" d="M361.05,443.59s-7.457,6.334-10.957,7.953-14.822,6.464-14.822,6.464-2.69.261-2.69,1.071.81,3.774,2.964,4.584,20.477,3.239,26.119,2.429,15.358-1.084,16.7-1.306,8.358,2.69,11.048-.274.535-17.787.535-17.787Z" transform="translate(-192.256 -37.615)" fill="#fff"/>
          <path id="Tracé_317" data-name="Tracé 317" d="M358.852,467.06c-7.509,0-21.5-1.92-23.389-2.612-2.612-.966-3.382-4.323-3.382-5.224,0-1.123,1.7-1.554,3.173-1.711,1.084-.47,11.427-4.9,14.718-6.425s10.735-7.836,10.813-7.836l.209-.183,29.749,3.187.078.5c.222,1.554,2.116,15.214-.705,18.283-2.181,2.39-6.53,1.437-9.377.81a10.192,10.192,0,0,0-2.024-.34c-.549.1-2.063.2-4.7.353-3.631.209-8.606.509-12.041.992A22.093,22.093,0,0,1,358.852,467.06Zm-25.466-7.705c.078.705.758,3.186,2.534,3.853,2.142.81,20.216,3.2,25.818,2.39,3.487-.5,8.489-.783,12.145-1.005,2.168-.131,4.048-.235,4.519-.327a7.615,7.615,0,0,1,2.612.34c2.612.575,6.451,1.423,8.123-.418,1.959-2.155,1.045-12.367.444-16.742l-28.13-3.017c-1.306,1.071-7.653,6.36-10.891,7.836-3.474,1.606-14.731,6.425-14.836,6.53h-.2a5.564,5.564,0,0,0-2.142.561Z" transform="translate(-192.409 -37.774)" fill="#263238"/>
          <path id="Tracé_318" data-name="Tracé 318" d="M335.539,460.064c2.155.81,20.477,3.239,26.119,2.429s15.358-1.084,16.7-1.306,8.358,2.69,11.048-.274a8.279,8.279,0,0,0,1.306-4.519,42.684,42.684,0,0,0-6.921-.6c-5.668,0-13.477,2.69-29.906,2.964S332.6,455.52,332.6,455.52C332.574,456.238,333.384,459.2,335.539,460.064Z" transform="translate(-192.25 -33.965)" fill="#fff"/>
          <path id="Tracé_319" data-name="Tracé 319" d="M358.852,463.581c-7.509,0-21.5-1.92-23.389-2.612h0c-2.612-.966-3.382-4.323-3.382-5.224V454.44l1.032.744s4.936,3.369,20.9,3.108a144.191,144.191,0,0,0,22.005-2.063,54.672,54.672,0,0,1,7.914-.9,44.667,44.667,0,0,1,7.026.6l.588.1v.6a8.541,8.541,0,0,1-1.423,4.91c-2.181,2.39-6.53,1.437-9.377.81a10.193,10.193,0,0,0-2.024-.34c-.548.1-2.063.2-4.7.353-3.631.209-8.606.509-12.041.993A22.083,22.083,0,0,1,358.852,463.581Zm-22.958-3.853c2.142.81,20.216,3.2,25.818,2.39,3.487-.5,8.489-.784,12.145-1.006,2.168-.131,4.048-.235,4.518-.326a7.612,7.612,0,0,1,2.612.34c2.612.575,6.451,1.423,8.123-.418a6.453,6.453,0,0,0,1.045-3.526,41.807,41.807,0,0,0-6.216-.5,52.578,52.578,0,0,0-7.705.888,144.574,144.574,0,0,1-22.2,2.077c-12.054.209-17.983-1.619-20.36-2.612a4.349,4.349,0,0,0,2.259,2.742Z" transform="translate(-192.409 -34.295)" fill="#263238"/>
          <path id="Tracé_320" data-name="Tracé 320" d="M356.561,323.405s-.94,51.963,0,67.217,3.108,94.276,3.108,94.276-4.049.627-4.349,2.494a28.164,28.164,0,0,1-.94,3.735s8.711,2.494,13.386,3.735S383.32,496.1,383.32,496.1s1.554-10.892,1.868-15.867,5.224-51.963,5.916-64.722-.313-26.119,0-29.253,4.349-27.425,4.349-27.425,11.832,48.281,15.893,54.471,16.481,53.217,17.735,56.639,3.422,18.662,3.422,18.662a4.427,4.427,0,0,0-1.867,3.735c.313,2.181.313,6.843.313,6.843a56.074,56.074,0,0,0,14.627,1.867,47.808,47.808,0,0,0,15.554-2.795s-.627-13.059-1.241-19.916-3.121-41.385-7.156-53.831-9.338-34.229-9.338-34.229,2.795-38.277,3.108-42.626,3.422-21.783,2.494-29.567-3.735-21.47-4.362-24.578a19.586,19.586,0,0,0-1.867-5.3l-85.565,8.1Z" transform="translate(-185.587 -85.152)" fill="#000032"/>
          <path id="Tracé_321" data-name="Tracé 321" d="M373.531,193.562s-30.363,24.565-31.016,27.947,3.983,38.382,3.983,43.605,8.293,34.085,8.293,34.085l-.914,58.663s29.788,6.752,42.678,5.524,35.326-6.451,35.326-6.451l5.838-24.813,4.6,23.951a29.768,29.768,0,0,0,7.379-1.541,79.18,79.18,0,0,0,9.207-5.224s-6.752-27.934-11.048-37.768l-7.679-17.5s-4-85.383-5.838-89.679-5.224-6.138-10.448-10.134-27.542-9.3-27.542-9.3Z" transform="translate(-189.236 -116.75)" fill="#07b5e7"/>
          <path id="Tracé_322" data-name="Tracé 322" d="M393.132,364.368c-13.96,0-38.134-5.446-39.243-5.694l-.522-.117v-.535l.914-58.558c-.6-2.116-8.293-29.018-8.293-34.177,0-2.22-.862-10.121-1.789-18.479-1.489-13.608-2.521-23.376-2.194-25.244.627-3.448,26.119-24.212,31.251-28.339l.183-.1,23-8.75h.2c.927.209,22.527,5.38,27.8,9.4l2.612,1.985c3.735,2.743,6.425,4.728,8.005,8.41,1.841,4.323,5.642,84.886,5.877,89.784.431.979,3.631,8.254,7.627,17.4,4.27,9.769,11.035,37.6,11.1,37.872l.1.444-.392.248a77.475,77.475,0,0,1-9.324,5.289,30.2,30.2,0,0,1-7.561,1.58h-.575l-4.1-21.4-5.224,22.292-.392.091c-.222,0-22.606,5.224-35.4,6.464Q395.117,364.368,393.132,364.368Zm-38.447-6.791c4.022.888,30.272,6.53,41.973,5.394s31.774-5.642,34.83-6.334l6.438-27.425,5.08,26.38a27.418,27.418,0,0,0,6.6-1.437,74.637,74.637,0,0,0,8.711-4.91c-.888-3.644-6.974-28.234-10.9-37.219-4.3-9.821-7.679-17.5-7.679-17.5v-.235c-1.11-23.716-4.31-86.009-5.785-89.444s-3.918-5.158-7.574-7.836c-.836-.614-1.724-1.306-2.612-1.985-4.793-3.67-24.9-8.606-27.111-9.142l-22.632,8.449c-11.688,9.442-30.285,25.2-30.7,27.49-.326,1.815,1.071,14.6,2.207,24.813.927,8.4,1.789,16.324,1.789,18.623,0,5.067,8.188,33.628,8.267,33.954v.183Z" transform="translate(-189.392 -116.921)" fill="#263238"/>
          <rect id="Rectangle_25" data-name="Rectangle 25" width="19.015" height="28.091" transform="translate(197.015 120.614)" fill="#fff"/>
          <path id="Tracé_323" data-name="Tracé 323" d="M395.811,253.964H375.49V224.58h20.32ZM376.8,252.658H394.5V225.886H376.8Z" transform="translate(-179.129 -104.619)" fill="#263238"/>
          <rect id="Rectangle_26" data-name="Rectangle 26" width="4.754" height="11.231" transform="translate(203.061 112.399)" fill="#000032"/>
          <path id="Tracé_324" data-name="Tracé 324" d="M374.77,142.882s4.414-4.075,9.821-3.748c7.705.47,17.513,5.38,20.32,21.5s-6.073,26.628-12.615,27.1-6.073-4.44-6.308-7.483-3.265-9.808-3.265-9.808S384.121,148.681,374.77,142.882Z" transform="translate(-179.349 -130.767)" fill="#000032"/>
          <path id="Tracé_325" data-name="Tracé 325" d="M391.682,188.543a6.007,6.007,0,0,1-4.14-1.306c-1.7-1.5-1.815-3.918-1.92-5.877v-.927c-.222-2.886-3.186-9.52-3.213-9.586v-.366c0-.209,1.306-21.4-7.64-26.968l-.771-.457.64-.575c.183-.183,4.649-4.257,10.291-3.918,5.224.326,17.63,3.1,20.9,22.031,1.5,8.606-.183,16.781-4.6,22.423-2.533,3.252-5.681,5.224-8.619,5.446Zm-8.071-18.061c.457,1.032,3.043,6.987,3.265,9.873v.966c.091,1.8.2,3.826,1.489,4.963a5.354,5.354,0,0,0,4.062.953c2.533-.183,5.407-2.024,7.679-4.936,4.192-5.367,5.772-13.164,4.349-21.4-3.134-18.009-14.835-20.647-19.72-20.9a13.973,13.973,0,0,0-8.684,3.043C384.552,149.326,383.729,168.34,383.612,170.482Z" transform="translate(-179.584 -130.941)" fill="#263238"/>
          <path id="Tracé_326" data-name="Tracé 326" d="M336.986,175.005s-5.145,1.867-10.748-2.808-3.918-13.778.692-18.688,9.142-3.918,9.142-3.918,8.88-12.145,23.6-15.671,31.76,7.235,36.436,16.977,2.795,19.589,1.162,27.568-6.53,10.983-6.53,10.983a4.884,4.884,0,0,1-4.205,3.5c-3.5.47-8.175,0-9.142-7.47s-.94-14.953-3.918-13.059-4.675,7.47-7.705,7.013-17.526-7.953-20.334-12.38-7.47-4.91-7.705,0A74.982,74.982,0,0,1,336.986,175.005Z" transform="translate(-195.278 -132.565)" fill="#000032"/>
          <path id="Tracé_327" data-name="Tracé 327" d="M384.872,193.929a7.6,7.6,0,0,1-4.78-1.45,9.677,9.677,0,0,1-3.2-6.726c-.17-1.423-.313-2.86-.457-4.218-.379-3.761-.81-8.045-1.841-8.554-.065,0-.235-.1-.679.17a12.459,12.459,0,0,0-3.069,3.369c-1.423,2-2.912,4.048-5.08,3.722-3.265-.5-17.826-8.005-20.778-12.681-1.646-2.612-3.7-3.448-4.9-3.134-.966.248-1.528,1.306-1.606,2.821-.235,4.884-.692,7.836-.705,8.005l-.065.392-.353.131c-.222.078-5.563,1.933-11.388-2.912a10.657,10.657,0,0,1-3.761-7.836,16.3,16.3,0,0,1,4.4-11.819c4.088-4.3,8.031-4.336,9.3-4.218,1.528-1.946,10.278-12.393,23.729-15.593,14.365-3.422,32.1,6.726,37.18,17.408,4.871,10.226,2.756,20.49,1.215,27.973-1.489,7.261-5.616,10.552-6.621,11.257a5.524,5.524,0,0,1-4.675,3.748A15.881,15.881,0,0,1,384.872,193.929Zm-10.448-22.279a1.633,1.633,0,0,1,.731.17c1.606.784,2,4,2.612,9.586.144,1.306.287,2.769.47,4.179a8.384,8.384,0,0,0,2.69,5.851,7.326,7.326,0,0,0,5.681,1.058,4.218,4.218,0,0,0,3.657-3v-.261l.222-.144s4.688-3.017,6.242-10.552c1.5-7.313,3.565-17.317-1.11-27.151-4.3-9.011-20.725-20.255-35.7-16.7-14.365,3.408-23.128,15.279-23.22,15.41l-.248.34-.4-.091c-.17,0-4.166-.77-8.5,3.787a15.2,15.2,0,0,0-4.062,10.839,9.429,9.429,0,0,0,3.3,6.9,11.218,11.218,0,0,0,9.742,2.795c.131-.993.444-3.683.627-7.47.1-2.142,1.045-3.617,2.612-4.022,2.063-.535,4.61.953,6.347,3.709,2.7,4.284,17.042,11.649,19.863,12.08,1.306.209,2.612-1.437,3.827-3.187a13.384,13.384,0,0,1,3.448-3.735,2.233,2.233,0,0,1,1.188-.379Z" transform="translate(-195.432 -132.722)" fill="#263238"/>
          <path id="Tracé_328" data-name="Tracé 328" d="M331.038,156.406s-.927,12.38,1.632,16.807,8.606,5.315,8.371,11.623-3.918,7.065-.653,8.476a9.873,9.873,0,0,0,6.53.235s10.643,9.142,12.054,10.33a7.418,7.418,0,0,0,7,.235c1.867-1.175,4.532-3.33,4.532-3.33l5.367,7.705a119.058,119.058,0,0,0-.927,19.589c.47,9.808,6.073,12.38,13.543-4.205A273.251,273.251,0,0,0,399.94,194.2s-7.483-5.132-9.351-7.235a10.565,10.565,0,0,1-2.338-3.918s-1.4,1.867-6.073-.235a8.123,8.123,0,0,1-4.9-6.53s3.265-8.645.927-13.778-7.235-5.38-9.808-2.338-2.612,8.175-2.612,8.175a48.83,48.83,0,0,1-12.837-2.808c-5.851-2.338-1.41-6.308-7.953-9.808S331.038,156.406,331.038,156.406Z" transform="translate(-192.778 -126.112)" fill="#ffead9"/>
          <path id="Tracé_329" data-name="Tracé 329" d="M379.01,236.727a2.892,2.892,0,0,1-.588-.065c-2.312-.431-3.774-3.487-4.009-8.371a120.312,120.312,0,0,1,.9-19.485l-4.819-6.935a42.477,42.477,0,0,1-4.048,2.938c-2.024,1.306-6.1,1.123-7.836-.287-1.306-1.045-10.121-8.658-11.753-10.108a10.33,10.33,0,0,1-6.647-.353c-.953-.418-1.45-.823-1.646-1.306a3.479,3.479,0,0,1,.47-2.233,12.617,12.617,0,0,0,1.436-5.511c.131-3.591-1.907-5.224-4.257-7.091a15.371,15.371,0,0,1-4.022-4.179c-2.612-4.558-1.763-16.677-1.724-17.186V156.2l.313-.17c.313-.183,7.836-4.336,14.64-.705A7.9,7.9,0,0,1,350,161.178,4.636,4.636,0,0,0,353.3,165.1a47.681,47.681,0,0,0,11.976,2.7,14.365,14.365,0,0,1,2.7-7.836,5.968,5.968,0,0,1,5.407-2.155,7.4,7.4,0,0,1,5.5,4.636c2.285,5.015-.431,12.942-.862,14.143a7.4,7.4,0,0,0,4.505,5.851c4.035,1.815,5.289.444,5.289.431l.823-.966.327,1.2a9.991,9.991,0,0,0,2.194,3.709c1.789,2.011,9.142,7.078,9.22,7.131l.392.274-.13.457a278.639,278.639,0,0,1-11.479,29.736C385.54,232.4,382.027,236.727,379.01,236.727Zm-8.254-36.749,5.929,8.5v.248a119.7,119.7,0,0,0-.927,19.5c.2,4.114,1.306,6.843,2.938,7.156.9.17,4.205-.17,9.364-11.6a281.3,281.3,0,0,0,11.27-29.136,77.248,77.248,0,0,1-9.063-7.065,12.669,12.669,0,0,1-2.168-3.369c-.953.47-2.795.784-6.02-.679a8.711,8.711,0,0,1-5.289-7.091v-.327c0-.078,3.147-8.449.953-13.281a6.033,6.033,0,0,0-4.492-3.918,4.7,4.7,0,0,0-4.231,1.7c-2.377,2.821-2.416,7.705-2.416,7.757v.692h-.692a49.624,49.624,0,0,1-13.059-2.847,5.89,5.89,0,0,1-4.075-4.819,6.609,6.609,0,0,0-3.918-5.028c-5.42-2.9-11.636-.17-13.059.535-.118,2.05-.627,12.276,1.58,16.076a13.933,13.933,0,0,0,3.709,3.813c2.4,1.92,4.9,3.918,4.741,8.162a13.936,13.936,0,0,1-1.554,6.02c-.248.509-.509,1.045-.444,1.215s.183.287.94.614a9.207,9.207,0,0,0,6.073.209l.353-.118.287.248c.1.091,10.67,9.142,12.054,10.317a6.778,6.778,0,0,0,6.242.183c1.8-1.123,4.44-3.252,4.466-3.278Z" transform="translate(-192.952 -126.26)" fill="#263238"/>
          <path id="Tracé_330" data-name="Tracé 330" d="M361.18,191.1l6.19-5.132-.823,12.837Z" transform="translate(-183.507 -116.432)" fill="#000032"/>
          <path id="Tracé_331" data-name="Tracé 331" d="M342.312,173.529c.927,1.215,1.2,2.612.614,3s-1.815-.17-2.729-1.384-1.2-2.547-.627-3S341.385,172.315,342.312,173.529Z" transform="translate(-190.209 -120.707)" fill="#000032"/>
          <path id="Tracé_332" data-name="Tracé 332" d="M336.37,171.571a3.174,3.174,0,0,1,.98-2.351,5.224,5.224,0,0,1,4.257-1.006l-.144,1.306a4.088,4.088,0,0,0-3.2.64,1.868,1.868,0,0,0-.588,1.306Z" transform="translate(-191.097 -121.896)" fill="#263238"/>
          <path id="Tracé_333" data-name="Tracé 333" d="M347.548,186.335l-.718-1.084a10.943,10.943,0,0,0,4.061-6.921l1.306.222a11.949,11.949,0,0,1-4.649,7.783Z" transform="translate(-187.897 -118.769)" fill="#263238"/>
          <path id="Tracé_334" data-name="Tracé 334" d="M263.737,440.81l-5.55,10.7s-12.576,8.515-17.382,11.479-15.175,5.224-15.175,7.026,7.836,3.33,14.065,4.062,23.207,2.612,27.425.744,15.92-1.476,15.92-1.476,4.806,1.476,7.026-1.11,2.22-5.55.366-9.991-2.965-7.4-2.965-8.515V443Z" transform="translate(-224.977 -38.465)" fill="#eeae8c"/>
          <path id="Tracé_335" data-name="Tracé 335" d="M260.208,476.474a192.391,192.391,0,0,1-20.4-1.541c-9.7-1.136-14.64-2.729-14.64-4.714,0-1.423,2.351-2.325,7.209-4.075a49.935,49.935,0,0,0,8.28-3.513c4.466-2.755,15.841-10.448,17.225-11.362l5.681-10.97,24.7,2.311v11.323c0,1.136,1.554,5.015,2.912,8.267,1.985,4.767,1.841,7.953-.47,10.656s-6.908,1.541-7.627,1.306c-1.058,0-11.753-.248-15.554,1.424A21.483,21.483,0,0,1,260.208,476.474Zm4.1-34.79-5.42,10.447-.144.091c-.117.078-12.641,8.554-17.408,11.479a49.624,49.624,0,0,1-8.554,3.63c-2.612.927-6.1,2.194-6.347,2.873,0,.548,3.4,2.207,13.49,3.4,14.444,1.7,24.3,1.985,27.033.784,4.257-1.854,15.671-1.541,16.194-1.528h.17s4.427,1.306,6.347-.914,2.05-5,.261-9.311c-2.168-5.224-3.017-7.653-3.017-8.763V443.826Z" transform="translate(-225.118 -38.621)" fill="#263238"/>
          <path id="Tracé_336" data-name="Tracé 336" d="M225.64,467.525c0,1.841,1.685,3.644,7.966,4.375s29.292,2.259,33.458.431,15.919-1.476,15.919-1.476,4.806,1.476,7.026-1.11,2.22-5.55.366-9.99c-.993-2.4-1.776-4.349-2.285-5.825l-.679.274c-11.466,5.224-23.3,1.855-23.3,1.855a13.281,13.281,0,0,0-1.854-4.819,5.224,5.224,0,0,0-4.075-2.22S245.608,457.535,240.8,460.5,225.64,465.671,225.64,467.525Z" transform="translate(-224.974 -35.953)" fill="#fff"/>
          <path id="Tracé_337" data-name="Tracé 337" d="M257.465,473.972c-8.711,0-20.112-.862-23.781-1.306-5.746-.679-8.554-2.325-8.554-5.028,0-1.424,2.351-2.325,7.209-4.075a49.938,49.938,0,0,0,8.28-3.513c4.741-2.925,17.238-11.375,17.356-11.453l.17-.117h.2a5.864,5.864,0,0,1,4.623,2.52,13.451,13.451,0,0,1,1.867,4.636c2.129.5,12.511,2.612,22.475-1.92l.4-.17.927-.379.235.666c.47,1.371,1.188,3.213,2.259,5.785,1.985,4.767,1.841,7.953-.47,10.656s-6.908,1.541-7.627,1.306c-1.058,0-11.754-.248-15.554,1.423C265.941,473.776,262.075,473.972,257.465,473.972Zm-31.029-6.295c0,1.881,2.52,3.134,7.4,3.709,6.53.758,29.214,2.181,33.119.47,4.257-1.854,15.671-1.541,16.194-1.528h.17s4.427,1.306,6.347-.914,2.05-5,.261-9.311c-.927-2.207-1.593-3.918-2.063-5.224h0a38.081,38.081,0,0,1-23.729,1.972l-.4-.118-.065-.418a12.327,12.327,0,0,0-1.75-4.545,4.531,4.531,0,0,0-3.33-1.92c-1.567,1.058-12.785,8.619-17.238,11.362a49.639,49.639,0,0,1-8.554,3.617c-2.612.94-6.073,2.194-6.36,2.886Z" transform="translate(-225.13 -36.119)" fill="#263238"/>
          <path id="Tracé_338" data-name="Tracé 338" d="M281.652,461.5c-8.763,2.259-16.677,4.519-28.261,4.519-8.841,0-21.639-1.972-27.19-2.9-.353.261-.562.522-.562.784,0,1.841,1.685,3.643,7.966,4.375s29.292,2.259,33.458.431,15.919-1.476,15.919-1.476,4.806,1.476,7.026-1.11a6.672,6.672,0,0,0,1.7-4.545A19.277,19.277,0,0,0,281.652,461.5Z" transform="translate(-224.974 -32.329)" fill="#fff"/>
          <path id="Tracé_339" data-name="Tracé 339" d="M257.465,470.358c-8.711,0-20.112-.862-23.781-1.306-5.746-.679-8.554-2.325-8.554-5.028a1.828,1.828,0,0,1,.823-1.306l.222-.17h.287c5.224.875,18.2,2.9,27.085,2.9,10.761,0,18.375-1.972,26.432-4.061l1.659-.431a19.771,19.771,0,0,1,10.448.078l.483.131v.5a7.313,7.313,0,0,1-1.854,4.963c-2.325,2.716-6.908,1.541-7.627,1.306-1.058,0-11.754-.248-15.554,1.423C265.941,470.162,262.075,470.358,257.465,470.358Zm-30.925-6.412a.446.446,0,0,0-.1.13c0,1.855,2.494,3.121,7.4,3.7,6.53.757,29.214,2.181,33.119.47,4.257-1.854,15.671-1.541,16.194-1.528h.17s4.427,1.306,6.347-.914a5.982,5.982,0,0,0,1.528-3.617,18.583,18.583,0,0,0-9.233,0l-1.658.431c-8.149,2.1-15.828,4.1-26.759,4.1-8.815.131-21.6-1.828-27.007-2.729Z" transform="translate(-225.13 -32.505)" fill="#263238"/>
          <path id="Tracé_340" data-name="Tracé 340" d="M257.921,369.25l-8.2,93.9s14.365,5.328,18.858,5.746,15.528.092,15.528.092l5.8-35.365Z" transform="translate(-217.607 -60.359)" fill="#000032"/>
          <path id="Tracé_341" data-name="Tracé 341" d="M291.97,446.4l2,8.267a27.622,27.622,0,0,1-7.692,6.843c-4.845,2.847-22.2,10.252-25.361,11.675s-.575,3.709.562,4.845,16.533,1.424,26.785.862,21.091-3.134,28.208-3.422,8.841-.849,10.839-3.422-10.552-31.63-10.552-31.63Z" transform="translate(-214.645 -38.585)" fill="#eeae8c"/>
          <path id="Tracé_342" data-name="Tracé 342" d="M276.907,479.955c-7.287,0-14.744-.327-15.737-1.306l-.2-.2c-.914-.9-2.3-2.272-2.037-3.735a2.834,2.834,0,0,1,1.854-1.972l3.67-1.62c6.242-2.729,17.852-7.836,21.626-10.029a27.753,27.753,0,0,0,7.326-6.425l-2.076-8.606,25.949-6.255.222.5c2.978,6.908,12.537,29.632,10.448,32.3s-4.048,3.382-11.323,3.67a117.773,117.773,0,0,0-12.067,1.476c-5.015.771-10.7,1.646-16.128,1.946C285.644,479.837,281.308,479.955,276.907,479.955Zm16-32.936,1.92,7.927-.183.235a27.682,27.682,0,0,1-7.836,7.026c-3.918,2.259-15.5,7.365-21.77,10.095l-3.657,1.619c-.666.3-1.045.64-1.11,1.006-.131.8,1.006,1.92,1.685,2.612l.2.2c1.149.8,14.953,1.306,26.289.666,5.367-.3,11.022-1.162,16-1.933a119.584,119.584,0,0,1,12.211-1.489c7.183-.287,8.58-.9,10.343-3.173,1.019-1.554-4.466-16.612-10.447-30.454Z" transform="translate(-214.797 -38.771)" fill="#263238"/>
          <path id="Tracé_343" data-name="Tracé 343" d="M327.321,468.687c.927-1.2-1.306-8.227-4-15.358-11.048,3.121-25.074,5.955-25.074,5.955a29.584,29.584,0,0,0-1.711-5.981c-1.136-2.612-2.612-2-2.612-2a27.62,27.62,0,0,1-7.692,6.843c-4.845,2.847-22.2,10.252-25.361,11.675s-.575,3.709.562,4.845,16.533,1.423,26.785.862,21.091-3.134,28.208-3.422S325.323,471.259,327.321,468.687Z" transform="translate(-214.658 -35.274)" fill="#fff"/>
          <path id="Tracé_344" data-name="Tracé 344" d="M276.907,476.6c-7.287,0-14.744-.327-15.737-1.306l-.2-.2c-.914-.9-2.3-2.272-2.037-3.735a2.834,2.834,0,0,1,1.854-1.972l3.67-1.619c6.242-2.729,17.852-7.836,21.626-10.03a27.032,27.032,0,0,0,7.5-6.66l.1-.157.183-.065c.078,0,2.024-.77,3.408,2.338a28.734,28.734,0,0,1,1.632,5.472c2.886-.6,14.809-3.121,24.369-5.811l.588-.17.209.561c5.3,14.182,4.31,15.449,3.918,16h0c-2.155,2.756-4.048,3.382-11.323,3.67a117.754,117.754,0,0,0-12.067,1.476c-5.015.771-10.7,1.646-16.128,1.946C285.644,476.482,281.308,476.6,276.907,476.6Zm17.578-24.552a28.3,28.3,0,0,1-7.731,6.8c-3.918,2.259-15.5,7.366-21.77,10.095l-3.657,1.619c-.666.3-1.045.64-1.11,1.006-.131.8,1.006,1.92,1.685,2.612l.2.2c1.149.8,14.953,1.306,26.289.666,5.367-.3,11.022-1.162,16-1.933a119.614,119.614,0,0,1,12.211-1.489c7.17-.287,8.58-.9,10.343-3.16.144-.235.64-2.011-3.918-14.183-10.852,3.03-24.408,5.785-24.539,5.811l-.666.131-.1-.666a29.518,29.518,0,0,0-1.672-5.824C295.439,452.244,294.773,452.048,294.485,452.048Z" transform="translate(-214.797 -35.417)" fill="#263238"/>
          <path id="Tracé_345" data-name="Tracé 345" d="M327.3,465.8c.444-.575.157-2.494-.562-5.119-5.38-.144-9.755,3.67-26.511,7.117-17.134,3.513-35.012,1.828-40.811,1.11a6.32,6.32,0,0,0,2.05,2.873c1.136,1.149,16.533,1.424,26.785.862s21.091-3.134,28.208-3.422S325.3,468.373,327.3,465.8Z" transform="translate(-214.639 -32.387)" fill="#fff"/>
          <path id="Tracé_346" data-name="Tracé 346" d="M276.93,473.72c-7.287,0-14.744-.327-15.737-1.306l-.183-.183a6.281,6.281,0,0,1-2.05-3.069l-.131-.836.849.1c5.224.627,23.4,2.416,40.6-1.11a123,123,0,0,0,18-5.08c3.6-1.306,5.955-2.116,8.658-2.05h.5l.117.47c1.11,4.088.849,5.224.444,5.694-2.155,2.756-4.048,3.382-11.322,3.67A117.774,117.774,0,0,0,304.6,471.5c-5.015.771-10.7,1.646-16.128,1.946C285.667,473.6,281.331,473.72,276.93,473.72ZM260.645,469.8a10,10,0,0,0,1.306,1.45l.183.183c1.149.8,14.953,1.306,26.289.666,5.367-.3,11.022-1.162,16-1.933a119.54,119.54,0,0,1,12.211-1.489c7.17-.287,8.58-.9,10.343-3.16,0-.065.34-.692-.535-4.075a25.5,25.5,0,0,0-7.718,1.972,122.757,122.757,0,0,1-18.166,5.132c-16.324,3.382-33.537,2-39.91,1.293Z" transform="translate(-214.82 -32.537)" fill="#263238"/>
          <path id="Tracé_347" data-name="Tracé 347" d="M312.516,288.732s-30.794-23.259-35.966-25.388-11.192-2.155-10.121,1.306,2.808,13.778,5.6,16.155,9.259,4.31,9.259,4.31L309.277,314.6S313.378,297.769,312.516,288.732Z" transform="translate(-212.533 -93.21)" fill="#ffead9"/>
          <path id="Tracé_348" data-name="Tracé 348" d="M309.794,316.036,281.063,285.79c-1.071-.326-6.686-2.142-9.324-4.375-2.259-1.907-3.774-8.214-4.871-12.824-.353-1.489-.666-2.782-.927-3.631a2.364,2.364,0,0,1,.575-2.612c1.854-1.685,6.752-.979,10.447.549,5.224,2.168,34.83,24.539,36.1,25.492l.222.17v.287c.862,9.05-3.069,25.361-3.239,26.054Zm-39.727-53.387a4.153,4.153,0,0,0-2.612.64,1.1,1.1,0,0,0-.222,1.306c.274.888.588,2.207.953,3.722,1.005,4.179,2.52,10.447,4.44,12.132,2.612,2.246,8.972,4.153,9.024,4.179h.17l.118.131L309.1,313.372c.875-3.918,3.578-16.651,2.965-24.16-2.9-2.129-30.794-23.1-35.548-25.126a17.305,17.305,0,0,0-6.451-1.436Z" transform="translate(-212.697 -93.363)" fill="#263238"/>
          <path id="Tracé_349" data-name="Tracé 349" d="M294.823,278.156s-9.69-14.222-11.414-14.862-9.69-3.017-11.192-3.657-7.1-6.464-8.4-2.808,3.657,6.242,5.589,7.1a22.754,22.754,0,0,1,4.1,2.612s3.918,9.69,5.811,11.414a24.012,24.012,0,0,0,6.451,3.226" transform="translate(-213.358 -95.119)" fill="#ffead9"/>
          <path id="Tracé_350" data-name="Tracé 350" d="M285.72,281.941a24.487,24.487,0,0,1-6.686-3.369c-1.907-1.7-5.289-9.925-5.916-11.492a21.89,21.89,0,0,0-3.813-2.39c-2.272-1.006-7.4-3.8-5.955-7.914a2.311,2.311,0,0,1,1.476-1.554c1.789-.522,4.231,1.306,6.19,2.834a12.238,12.238,0,0,0,1.606,1.136c.823.353,3.774,1.306,6.373,2.09,2.063.653,4.035,1.306,4.806,1.554,1.776.666,9.416,11.754,11.754,15.1l-1.084.744c-4.649-6.83-10.082-14.169-11.1-14.613-.731-.274-2.612-.888-4.728-1.541-2.755-.862-5.616-1.763-6.53-2.129a12.258,12.258,0,0,1-1.894-1.306c-1.449-1.11-3.918-2.951-5.015-2.612-.17,0-.431.183-.614.731-1.1,3.082,3.3,5.433,5.224,6.295a23.415,23.415,0,0,1,4.231,2.612l.131.117v.157c1.058,2.612,4.153,9.834,5.642,11.166a23.914,23.914,0,0,0,6.229,3.1Z" transform="translate(-213.515 -95.273)" fill="#263238"/>
          <path id="Tracé_351" data-name="Tracé 351" d="M292.772,306.266,273.418,320.5,241.54,282.25l24.186-17.8Z" transform="translate(-220.11 -92.421)" fill="#fff"/>
          <path id="Tracé_352" data-name="Tracé 352" d="M273.534,321.619,240.82,282.363l25.3-18.623,27.764,42.9Zm-30.82-39.035L273.7,319.83l18.283-13.517-26.328-40.706Z" transform="translate(-220.33 -92.639)" fill="#263238"/>
          <rect id="Rectangle_27" data-name="Rectangle 27" width="32.792" height="8.972" transform="matrix(0.805, -0.593, 0.593, 0.805, 15.117, 183.53)" fill="#6ec2d9"/>
          <path id="Tracé_353" data-name="Tracé 353" d="M242.086,286.2,236,277.916,263.425,257.7l6.1,8.28Zm-4.27-8.005,4.545,6.177,25.361-18.662-4.545-6.177Z" transform="translate(-221.804 -94.486)" fill="#263238"/>
          <rect id="Rectangle_28" data-name="Rectangle 28" width="31.695" height="2.442" transform="matrix(0.805, -0.593, 0.593, 0.805, 14.121, 181.265)" fill="#6ec2d9"/>
          <path id="Tracé_354" data-name="Tracé 354" d="M237.46,279.046l-2.22-3.017,26.576-19.589,2.22,3.017Zm-.4-2.743.679.914L262.208,259.2l-.679-.9Z" transform="translate(-222.037 -94.872)" fill="#263238"/>
          <path id="Tracé_355" data-name="Tracé 355" d="M237.534,273.28l-3.6,2.664,8.005,3.317Z" transform="translate(-222.438 -89.72)" fill="#6ec2d9"/>
          <path id="Tracé_356" data-name="Tracé 356" d="M244.164,280.967,232.92,276.3l5.067-3.735Zm-8.606-4.976,4.78,1.972-2.612-3.565Z" transform="translate(-222.747 -89.937)" fill="#263238"/>
          <path id="Tracé_357" data-name="Tracé 357" d="M258.27,261.146l6.543-4.806,14.013,23.115-1.672,1.228-12.877-18.375-3.474,2.56Z" transform="translate(-214.991 -94.903)" fill="#6ec2d9"/>
          <path id="Tracé_358" data-name="Tracé 358" d="M277.218,281.818l-12.89-18.375-3.487,2.612-3.252-4.793,7.614-5.6L279.9,279.885Zm-12.563-20.229,12.89,18.388.64-.483L264.851,257.5l-5.42,4.009,1.789,2.612Z" transform="translate(-215.199 -95.111)" fill="#263238"/>
          <path id="Tracé_359" data-name="Tracé 359" d="M269.925,261.787s-9.455-1.4-9.455.927a4.375,4.375,0,0,0,3.735,4.205c1.985.47,9.207.692,9.207-1.4S269.925,261.787,269.925,261.787Z" transform="translate(-214.318 -93.363)" fill="#ffead9"/>
          <path id="Tracé_360" data-name="Tracé 360" d="M268.149,268.042a20.893,20.893,0,0,1-3.918-.326A4.989,4.989,0,0,1,260,262.87a1.45,1.45,0,0,1,.535-1.123c1.776-1.528,8.358-.653,9.664-.457l.183.065c.392.183,3.918,1.867,3.918,4.323a1.58,1.58,0,0,1-.679,1.306C272.5,267.794,270.239,268.042,268.149,268.042Zm-3.435-5.864a6.531,6.531,0,0,0-3.369.562c-.078.065-.078.1-.078.131a3.8,3.8,0,0,0,3.226,3.565c1.88.444,6.987.5,8.227-.5.183-.144.183-.235.183-.261,0-1.306-2.155-2.677-3.03-3.108a38.761,38.761,0,0,0-5.158-.392Z" transform="translate(-214.462 -93.519)" fill="#263238"/>
          <path id="Tracé_361" data-name="Tracé 361" d="M264.748,265.86s-2.39,1.306-2,2.063a4.27,4.27,0,0,0,2.991,2.795c2,.379,9.142-.183,10.186-1.489s-.4-2.612-.4-2.612l-4-.744Z" transform="translate(-213.634 -91.99)" fill="#ffead9"/>
          <path id="Tracé_362" data-name="Tracé 362" d="M267.7,271.642a13.068,13.068,0,0,1-1.92-.118,4.571,4.571,0,0,1-3.3-2.873l-.144-.274c-.614-1.149,1.149-2.325,2.259-2.938l.144-.078h6.948l4.3.8.144.131a2.612,2.612,0,0,1,.47,3.487C275.585,271.106,270.675,271.642,267.7,271.642Zm-4.153-3.774.091.2a3.317,3.317,0,0,0,2.39,2.168c2.181.418,8.828-.34,9.533-1.241a1.306,1.306,0,0,0-.209-1.619l-3.787-.718h-6.53A5.389,5.389,0,0,0,263.544,267.867Zm0-.1Z" transform="translate(-213.788 -92.143)" fill="#263238"/>
          <path id="Tracé_363" data-name="Tracé 363" d="M265,269.929s.209,2.808,1.2,3.748,6.987.561,9.142-.379,1.789-1.867.993-2.808a7.2,7.2,0,0,1-1.188-2.05S268.043,270.125,265,269.929Z" transform="translate(-212.932 -91.201)" fill="#ffead9"/>
          <path id="Tracé_364" data-name="Tracé 364" d="M269.45,275.068a5.9,5.9,0,0,1-3.513-.731c-1.149-1.071-1.384-3.853-1.4-4.166v-.744h.744c2.834.183,9.912-1.463,9.977-1.476l.575-.131.2.548a6.527,6.527,0,0,0,1.071,1.855,2.416,2.416,0,0,1,.758,2.037c-.17.718-.81,1.306-2,1.789A19.693,19.693,0,0,1,269.45,275.068Zm-3.539-4.283a5.368,5.368,0,0,0,.914,2.612c.692.64,6.295.431,8.476-.5,1.058-.444,1.215-.8,1.228-.888a1.782,1.782,0,0,0-.47-.888,7.718,7.718,0,0,1-1.084-1.724,57.987,57.987,0,0,1-9.063,1.384Z" transform="translate(-213.073 -91.39)" fill="#263238"/>
          <path id="Tracé_365" data-name="Tracé 365" d="M267.33,273.466a7.522,7.522,0,0,0,2.39,3.187c1.4.744,7.183-2.063,7.575-2.991s-2.612-1.5-2.612-1.5Z" transform="translate(-212.219 -90.063)" fill="#ffead9"/>
          <path id="Tracé_366" data-name="Tracé 366" d="M270.561,277.579a1.854,1.854,0,0,1-.94-.2,7.928,7.928,0,0,1-2.69-3.513l-.3-.744,8.293-1.476h.118c.757.144,2.612.562,3.03,1.45a1.084,1.084,0,0,1,0,.94c-.418,1.006-3.474,2.429-5.015,2.964a7.833,7.833,0,0,1-2.494.575Zm-2.063-3.461a5.394,5.394,0,0,0,1.75,2.116c.836.444,5.668-1.619,6.53-2.612a5.967,5.967,0,0,0-1.92-.679Z" transform="translate(-212.433 -90.219)" fill="#263238"/>
          <path id="Tracé_367" data-name="Tracé 367" d="M311.95,327.47s-34.2,14.052-44.755,22.031-14.274,5.981-15.671,15.958,22.384,68.719,22.384,68.719l9.69,47.589s13.059,1.711,19.942.562a192.71,192.71,0,0,0,19.38-5.119s-12.537-50.723-12.537-51.872-15.266-53.609-15.266-53.609l94.485.614a13.922,13.922,0,0,0,9.69-8.554c2.612-7.117-.562-20.36-.562-20.36Z" transform="translate(-217.073 -73.141)" fill="#000032"/>
          <path id="Tracé_368" data-name="Tracé 368" d="M309.344,248.633a66.706,66.706,0,0,0-7.718,27.8c-.77,15.959-.77,39.9-.77,39.9s-4.375,15.188-4.636,24.708.771,18.022,2.05,19.054,49.939,8.24,59.211,10.813a201.487,201.487,0,0,0,27.542,5.145c2.325,0,3.343-4.636,3.918-9.272s1.306-17.761-.522-25.479-3.67-17.513-3.67-17.513-.509-28.313-1.541-48.908-13.112-38.094-16.742-43.762-11.074-10.291-11.074-10.291Z" transform="translate(-203.393 -105.767)" fill="#07b5e7"/>
          <path id="Tracé_369" data-name="Tracé 369" d="M385.177,376.909a199.355,199.355,0,0,1-27.712-5.224c-4.871-1.306-20.8-4.009-34.856-6.36-18.479-3.082-23.951-4.062-24.591-4.571-1.737-1.384-2.534-11.048-2.3-19.589.248-9.233,4.231-23.4,4.636-24.813,0-1.646,0-24.552.771-39.844a68.22,68.22,0,0,1,7.836-28.1l.078-.144.144-.078L355.61,220.17l.34.209c.3.2,7.627,4.78,11.27,10.448l.744,1.162c4.14,6.4,15.11,23.4,16.089,42.913,1.019,20.36,1.541,48.646,1.541,48.934h0s1.815,9.742,3.591,17.356c1.868,8.018.993,21.587.536,25.714C388.938,373.775,387.514,376.909,385.177,376.909Zm-75.2-127.6a66.851,66.851,0,0,0-7.548,27.425c-.77,15.763-.77,39.635-.77,39.87v.183c0,.144-4.362,15.214-4.61,24.539-.274,10.056.914,17.813,1.815,18.531.914.444,12.642,2.4,23.977,4.3,14.091,2.351,30.037,5.015,34.986,6.386a202.985,202.985,0,0,0,27.425,5.132c.836,0,2.377-1.136,3.213-8.684.457-4.061,1.306-17.434-.5-25.27s-3.591-17.434-3.617-17.526c0-.392-.535-28.652-1.554-49-.953-19.158-11.753-35.952-15.88-42.273l-.744-1.175c-3.056-4.793-9.05-8.907-10.526-9.873Z" transform="translate(-203.546 -105.968)" fill="#263238"/>
          <path id="Tracé_370" data-name="Tracé 370" d="M311.312,233.05l-7.209,7.209-2.573,11.323,6.177-6.686,4.375,3.082Z" transform="translate(-201.756 -102.028)" fill="#fff"/>
          <path id="Tracé_371" data-name="Tracé 371" d="M300.63,254.232l3.1-13.947,8.384-8.384.914,17.748-5-3.539Zm4.4-13.294-2,8.763,4.91-5.315L311.691,247l-.627-12.119Z" transform="translate(-202.031 -102.38)" fill="#263238"/>
          <path id="Tracé_372" data-name="Tracé 372" d="M289.182,183.015a9.4,9.4,0,0,0-3.03,6.295c0,9.272-2.311,21.117-1.032,23.7s4.9,6.177,4.9,8.75-2.325,7.979-1.306,11.584,6.7,1.554,7.47,1.554,2.612,5.668,3.356,5.916,2.05,2.325,3.082,3.356,1.554,5.145,3.1,6.438,7.209,1.032,7.209,1.032l4.127,3.343,36.566-24.722s.261-4.375-.771-5.929a55.988,55.988,0,0,1-2.612-5.668c-.771-1.541.784-17.513-1.019-25.753s-11.074-18.283-22.932-20.595c-7.117-1.4-14.822.3-21.626,2.429a56.886,56.886,0,0,0-8.462,3.265,27.164,27.164,0,0,0-7.013,5Z" transform="translate(-206.895 -120.764)" fill="#eeae8c"/>
          <path id="Tracé_373" data-name="Tracé 373" d="M317.18,255.935l-4.31-3.5c-1.306,0-5.864.1-7.4-1.188a9.4,9.4,0,0,1-2.1-4.088,8.341,8.341,0,0,0-1.032-2.39,19.919,19.919,0,0,1-1.306-1.515,8.33,8.33,0,0,0-1.541-1.672c-.6-.2-.993-1.006-1.985-3.239a20.6,20.6,0,0,0-1.306-2.612l-.509.118c-1.92.418-6.425,1.41-7.444-2.155-.705-2.455,0-5.524.64-8.227a18.461,18.461,0,0,0,.627-3.539c0-1.45-1.476-3.513-2.782-5.328a23.319,23.319,0,0,1-2.037-3.134c-.784-1.554-.457-5.394.131-11.518.392-3.918.823-8.489.823-12.472a9.9,9.9,0,0,1,3.213-6.752h0a27.818,27.818,0,0,1,7.235-5.132,58.4,58.4,0,0,1,8.554-3.3c5.707-1.776,14.182-3.918,21.953-2.442,12.145,2.377,21.613,12.8,23.429,21.1,1.123,5.093.979,13.059.875,18.819a43.207,43.207,0,0,0,.1,6.778,22.563,22.563,0,0,1,.927,2.155,19.787,19.787,0,0,0,1.606,3.448c1.123,1.672.914,5.851.888,6.321v.313Zm-3.918-4.819,3.918,3.2,35.966-24.277c0-1.306,0-4.166-.679-5.224a20.9,20.9,0,0,1-1.737-3.683c-.313-.77-.6-1.489-.875-2.05s-.34-2.9-.248-7.392c.1-5.72.248-13.569-.836-18.518-1.724-7.9-10.787-17.826-22.41-20.1-7.5-1.463-15.75.679-21.313,2.416a55.518,55.518,0,0,0-8.358,3.226,26.043,26.043,0,0,0-6.882,4.871h0a8.671,8.671,0,0,0-2.847,5.838c0,4.048-.431,8.593-.823,12.589-.47,4.9-.914,9.52-.274,10.813a23.359,23.359,0,0,0,1.933,2.951c1.489,2.076,3.03,4.231,3.03,6.1a19.263,19.263,0,0,1-.653,3.839c-.6,2.547-1.306,5.433-.666,7.574s3.317,1.8,5.9,1.228a5.308,5.308,0,0,1,.94-.157c.771,0,1.2.836,2.351,3.422a15.229,15.229,0,0,0,1.306,2.612c.522.157,1.123.875,2.05,2.05a17.645,17.645,0,0,0,1.2,1.4,8.241,8.241,0,0,1,1.306,2.9,8.748,8.748,0,0,0,1.7,3.5c.979.823,4.662.979,6.765.888Z" transform="translate(-207.05 -120.904)" fill="#263238"/>
          <path id="Tracé_374" data-name="Tracé 374" d="M317.241,209.138c.77-.771,3.6-7.992,7.47-7.209s5.407,10.813,5.407,14.156-4.127,6.7-4.127,6.7,9.024,2.834,13.138,1.8a8.136,8.136,0,0,0,5.407-3.6s-.77,4.636,1.554,2.612a28.1,28.1,0,0,0,3.813-5c-.666-2.063.784-17.565-.979-25.649s-11.074-18.283-22.932-20.595c-7.117-1.4-14.822.3-21.626,2.429a56.884,56.884,0,0,0-8.463,3.265,27.163,27.163,0,0,0-7.052,5,9.4,9.4,0,0,0-3.03,6.295,80.807,80.807,0,0,1,12.615-7.209c5.668-2.311,4.388-2.834,3.918,0s6.438,1.8,6.438,1.8a31.84,31.84,0,0,0-3.918,11.336c-.509,5.668.784,11.074,2.063,9.782s1.554,1.032,3.356,1.8,5.407,0,5.407,0S316.47,209.921,317.241,209.138Z" transform="translate(-206.562 -120.755)" fill="#c7c7c7"/>
          <path id="Tracé_375" data-name="Tracé 375" d="M337.121,225.62a46.7,46.7,0,0,1-11.14-2.05l-1.149-.366.94-.77s3.918-3.187,3.918-6.19c0-3.644-1.711-12.89-4.884-13.517-2.612-.509-4.78,3.461-5.968,5.6a7.178,7.178,0,0,1-.914,1.423h0a.993.993,0,0,1-.966.287c-.705-.2-1.188-1.306-1.5-2.312a11.047,11.047,0,0,1-5.224-.157A4.975,4.975,0,0,1,308.365,206a3.231,3.231,0,0,0-.536-.562,1.174,1.174,0,0,0-.222.2,1.136,1.136,0,0,1-1.306.274c-1.593-.744-2.259-6.177-1.854-10.591a30.671,30.671,0,0,1,3.33-10.448c-1.646.131-4.31.131-5.42-1.006a1.907,1.907,0,0,1-.483-1.711,2.722,2.722,0,0,1,.144-.679c-.666.34-1.672.81-3.121,1.4a79.97,79.97,0,0,0-12.485,7.144l-1.032.731v-1.306a9.9,9.9,0,0,1,3.213-6.752,27.817,27.817,0,0,1,7.235-5.132,58.4,58.4,0,0,1,8.554-3.3c5.707-1.776,14.183-3.918,21.953-2.442,12.145,2.377,21.613,12.8,23.429,21.1,1.123,5.093.979,13.059.875,18.806a43.442,43.442,0,0,0,.1,6.765l.091.3-.157.261a26.563,26.563,0,0,1-3.918,5.132c-.758.679-1.41.862-1.959.562a2,2,0,0,1-.8-1.672,10.1,10.1,0,0,1-4.479,2.285A9.27,9.27,0,0,1,337.121,225.62Zm-9.638-2.978c2.507.705,8.606,2.233,11.675,1.476a7.523,7.523,0,0,0,4.989-3.278l1.893-3.683-.666,4.088a5.838,5.838,0,0,0,0,2.312,1.477,1.477,0,0,0,.47-.327,24.89,24.89,0,0,0,3.565-4.636,46.719,46.719,0,0,1-.091-6.882c.1-5.72.248-13.556-.836-18.505-1.724-7.9-10.787-17.826-22.41-20.1-7.5-1.463-15.75.679-21.313,2.416a55.509,55.509,0,0,0-8.358,3.226,26.035,26.035,0,0,0-6.882,4.871,9.807,9.807,0,0,0-2.69,4.505,74.022,74.022,0,0,1,11.558-6.53c1.75-.718,2.821-1.306,3.461-1.567s1.162-.588,1.567-.248.222.784.091,1.188a9.061,9.061,0,0,0-.366,1.306.561.561,0,0,0,.144.561c.757.784,3.709.757,5.563.483l1.306-.209-.705,1.188a31.341,31.341,0,0,0-3.774,11.048c-.431,4.78.444,8.5,1.019,9.207a1.645,1.645,0,0,1,1.149-.509,2.26,2.26,0,0,1,1.476,1.032,3.721,3.721,0,0,0,1.371,1.2,10.774,10.774,0,0,0,5.015,0l.614-.131.157.614a8.064,8.064,0,0,0,.64,1.737c.144-.222.326-.561.5-.862,1.306-2.429,3.918-6.935,7.379-6.242,4.505.9,5.929,11.753,5.929,14.8-.013,2.677-2.207,5.2-3.487,6.451Zm-10.565-13.869h0l.457.47Z" transform="translate(-206.697 -120.913)" fill="#263238"/>
          <path id="Tracé_376" data-name="Tracé 376" d="M288.9,206.463l-1.188-.535a7.5,7.5,0,0,1,7.379-3.918v1.306A6.36,6.36,0,0,0,288.9,206.463Z" transform="translate(-205.984 -111.537)" fill="#263238"/>
          <path id="Tracé_377" data-name="Tracé 377" d="M294.269,208.175c.757,1.188.888,2.442.327,2.808s-1.646-.313-2.39-1.5-.888-2.442-.313-2.808S293.525,206.987,294.269,208.175Z" transform="translate(-204.812 -110.128)" fill="#000032"/>
          <path id="Tracé_378" data-name="Tracé 378" d="M297.67,225.21l-.47-1.228s5.158-2,6.19-5.942l1.306.326C303.469,222.963,297.905,225.118,297.67,225.21Z" transform="translate(-203.081 -106.62)" fill="#263238"/>
          <rect id="Rectangle_29" data-name="Rectangle 29" width="4.675" height="1.306" transform="matrix(0.765, -0.645, 0.645, 0.765, 89.605, 101.653)" fill="#263238"/>
          <path id="Tracé_379" data-name="Tracé 379" d="M294.123,221.995l-.9-.94a10.183,10.183,0,0,1,2.011-1.541,3.2,3.2,0,0,0-.392-2.22,2.155,2.155,0,0,0-1.306,0H293.4l-.4-1.149h.209c.862-.248,4.035-1.045,5.89-.313l-.483,1.215a5.721,5.721,0,0,0-2.612-.131,4.556,4.556,0,0,1,.5,2.116c0,1.136-.418,1.58-.77,1.763a9.322,9.322,0,0,0-1.606,1.2Z" transform="translate(-204.366 -107.388)" fill="#263238"/>
          <path id="Tracé_380" data-name="Tracé 380" d="M317.219,235.6l-10.539,6.856,4.479,16.076L354.125,222.7l-7.379-8.175Z" transform="translate(-200.18 -107.697)" fill="#fff"/>
          <path id="Tracé_381" data-name="Tracé 381" d="M310.984,259.884,306.1,242.372l10.931-7.1,30.037-21.417,8.227,9.142Zm-3.369-16.977L311.7,257.56l41.66-34.777-6.53-7.235-29.109,20.8Z" transform="translate(-200.358 -107.902)" fill="#263238"/>
          <path id="Tracé_382" data-name="Tracé 382" d="M327.3,253.643s-6.686,13.059-6.948,22.645,0,36.566,0,36.566-3.6-.509-3.918,1.8a10.448,10.448,0,0,0,1.032,4.9s-1.306.248-1.541,2.311a31.832,31.832,0,0,0-.261,3.6l-3.291,3.4,22.136,19.315a152.029,152.029,0,0,0,15.449-9.272c6.948-4.884,7.209-6.686,7.209-6.686s4.884-2.325,5.145-4.127-2.063-7.718-2.311-8.75,4.375-33.719,5.407-42.221-2.063-24.708-5.224-28.313-10.552-8.75-12.093-9.011" transform="translate(-198.44 -99.963)" fill="#07b5e7"/>
          <path id="Tracé_383" data-name="Tracé 383" d="M334.638,349.064l-23-20.033,3.657-3.657a21.579,21.579,0,0,1,.248-3.408,3.447,3.447,0,0,1,1.306-2.547,10.185,10.185,0,0,1-.823-4.649,2.415,2.415,0,0,1,.927-1.685,4.872,4.872,0,0,1,2.925-.758c0-4.336-.235-27.294,0-35.861.261-9.56,6.752-22.4,7.026-22.932l1.162.588c-.065.131-6.634,13.059-6.882,22.384s0,36.253,0,36.566v.757l-.757-.1a4.246,4.246,0,0,0-2.69.431,1.136,1.136,0,0,0-.431.8,9.587,9.587,0,0,0,.966,4.519l.379.771-.836.17s-.836.235-1.019,1.75a33.939,33.939,0,0,0-.261,3.526v.274L313.494,329l21.274,18.557a153.773,153.773,0,0,0,14.979-9.024c6.373-4.479,6.934-6.229,6.948-6.295v-.353l.313-.1c1.841-.875,4.636-2.612,4.78-3.617.17-1.2-1.162-5.054-1.789-6.908-.261-.744-.457-1.306-.522-1.593-.17-.666.731-7.614,3.33-26.837.875-6.53,1.7-12.615,2.063-15.671,1.058-8.737-2.168-24.513-5-27.8-3.03-3.552-10.369-8.567-11.754-8.789l.209-1.306c1.724.287,9.351,5.563,12.485,9.233s6.334,20.294,5.3,28.809c-.366,3.017-1.188,9.142-2.063,15.671-1.45,10.7-3.435,25.348-3.343,26.406a10.272,10.272,0,0,0,.47,1.423c1.045,3.043,2.05,6.138,1.854,7.522-.274,1.907-4.035,3.918-5.224,4.506-.379.81-1.815,2.847-7.352,6.752a153.758,153.758,0,0,1-15.528,9.311Z" transform="translate(-198.663 -100.128)" fill="#263238"/>
          <path id="Tracé_384" data-name="Tracé 384" d="M345.225,308.155c-10.147-3.643-21.431-7.143-23.507-6.921.692.927,3.983,2.155,8.214,3.1l-.287,1.306c-3.03-.666-8.254-2.063-9.142-3.826a1.306,1.306,0,0,1,0-1.188c.248-.588,1.019-2.364,25.27,6.334Z" transform="translate(-195.995 -81.525)" fill="#263238"/>
          <path id="Tracé_385" data-name="Tracé 385" d="M339.112,323.115c-.8,0-3.918-1.763-23.912-18.479l.849-1.005c6.451,5.407,16.246,13.412,20.738,16.716-1.632-1.828-4.244-4.44-6.673-6.726l.888-.966c1.972,1.854,8.423,8.005,8.7,9.638l.065.457-.418.3A.457.457,0,0,1,339.112,323.115Z" transform="translate(-197.574 -80.435)" fill="#263238"/>
          <path id="Tracé_386" data-name="Tracé 386" d="M328.626,308s-50.684,32.1-51.82,32.649-13.947,8.854-15.071,11.871-3.213,5.224-2.259,6.033,9.612-3.578,9.612-3.578,9.416-3.4,13.373-5.838a70.782,70.782,0,0,0,8.672-6.791l59.629-15.11Z" transform="translate(-214.696 -79.098)" fill="#eeae8c"/>
          <path id="Tracé_387" data-name="Tracé 387" d="M259.933,359.48a1.006,1.006,0,0,1-.718-.209c-1.006-.81-.287-2.116.614-3.761a23.885,23.885,0,0,0,1.449-3c1.228-3.291,14.365-11.688,15.4-12.237s34.307-21.613,51.755-32.649l.418-.261,23.442,20.425-60.674,15.371a69.027,69.027,0,0,1-8.645,6.752c-3.918,2.455-13.125,5.759-13.5,5.9C263.315,358.866,260.938,359.48,259.933,359.48Zm.1-1.306h0c1.058,0,5.341-1.815,8.907-3.6.17,0,9.481-3.422,13.334-5.811a72.041,72.041,0,0,0,8.58-6.713l.118-.1h.157l58.428-14.809-20.9-18.166c-5.158,3.265-50.357,31.93-51.454,32.492-1.371.679-13.752,8.828-14.757,11.518a27.785,27.785,0,0,1-1.528,3.173,7.915,7.915,0,0,0-.888,2.05Z" transform="translate(-214.852 -79.293)" fill="#263238"/>
          <path id="Tracé_388" data-name="Tracé 388" d="M387.184,396.047H361.065a3.265,3.265,0,1,1,0-6.53h23.207l13.386-102.5a3.265,3.265,0,0,1,6.464.849L390.37,393.213a3.252,3.252,0,0,1-3.187,2.834Z" transform="translate(-184.541 -86.333)" fill="#fff"/>
          <path id="Tracé_389" data-name="Tracé 389" d="M387.337,396.9H361.218a3.918,3.918,0,0,1,0-7.836H383.85l13.308-101.929a3.918,3.918,0,0,1,1.5-2.612,3.839,3.839,0,0,1,2.886-.771,3.918,3.918,0,0,1,3.382,4.388l-13.765,105.35A3.918,3.918,0,0,1,387.337,396.9Zm-26.119-6.53a2.612,2.612,0,0,0,0,5.224h26.119a2.612,2.612,0,0,0,2.612-2.272l13.739-105.311a2.61,2.61,0,1,0-5.185-.614L385.038,390.457Z" transform="translate(-184.694 -86.528)" fill="#263238"/>
          <path id="Tracé_390" data-name="Tracé 390" d="M388.96,370.507H289.774a5.224,5.224,0,0,1,0-10.448H388.96a5.224,5.224,0,0,1,0,10.448Z" transform="translate(-206.951 -63.17)" fill="#5da2f0"/>
          <path id="Tracé_391" data-name="Tracé 391" d="M389.113,371.313H289.927a5.877,5.877,0,1,1,0-11.754h99.186a5.877,5.877,0,0,1,0,11.754Zm-99.186-10.448a4.571,4.571,0,1,0,0,9.142h99.186a4.571,4.571,0,1,0,0-9.142Z" transform="translate(-207.104 -63.323)" fill="#263238"/>
          <path id="Tracé_392" data-name="Tracé 392" d="M375.954,379.085l-6.4-1.306,7.313-35.352a2.847,2.847,0,0,0-.588-2.377,2.8,2.8,0,0,0-2.22-1.058H301.489a2.847,2.847,0,0,0-2.795,3.435l7.3,35.352-6.4,1.306-7.3-35.352a9.39,9.39,0,0,1,9.142-11.283h72.571a9.39,9.39,0,0,1,9.142,11.283Z" transform="translate(-204.64 -71.617)" fill="#fff"/>
          <path id="Tracé_393" data-name="Tracé 393" d="M376.617,380.022l-7.679-1.593,7.444-35.992a2.207,2.207,0,0,0-2.168-2.612H301.643a2.194,2.194,0,0,0-2.155,2.612l7.431,35.992-7.666,1.593-7.444-35.992a10.043,10.043,0,0,1,9.834-12.08h72.571a10.043,10.043,0,0,1,9.834,12.08Zm-74.974-46.7a8.737,8.737,0,0,0-8.554,10.448l7.17,34.712,5.119-1.058-7.17-34.712a3.513,3.513,0,0,1,3.435-4.218h72.571a3.513,3.513,0,0,1,3.448,4.218l-7.183,34.7,5.119,1.058,7.17-34.7a8.724,8.724,0,0,0-8.554-10.448Z" transform="translate(-204.794 -71.77)" fill="#263238"/>
          <path id="Tracé_394" data-name="Tracé 394" d="M409,504.741a3.265,3.265,0,0,1-3.226-2.729L384.5,372.24H302.445L281.172,502.011a3.269,3.269,0,1,1-6.451-1.058l21.731-132.5a3.252,3.252,0,0,1,3.213-2.743h87.6a3.265,3.265,0,0,1,3.226,2.743l21.731,132.5a3.278,3.278,0,0,1-2.7,3.748A3.513,3.513,0,0,1,409,504.741Z" transform="translate(-209.972 -61.442)" fill="#fff"/>
          <path id="Tracé_395" data-name="Tracé 395" d="M278.111,505.534a3.774,3.774,0,0,1-.653,0,3.918,3.918,0,0,1-3.226-4.492l21.718-132.5a3.918,3.918,0,0,1,3.918-3.291h87.6a3.918,3.918,0,0,1,3.918,3.291l21.731,132.5a3.92,3.92,0,0,1-7.731,1.306L384.206,373.06H303.237L282.055,502.348a3.918,3.918,0,0,1-3.852,3.278Zm21.7-139.031A2.612,2.612,0,0,0,297.2,368.7L275.525,501.2a2.606,2.606,0,1,0,5.145.836l21.365-130.307h83.176l.078.549,21.274,129.771a2.613,2.613,0,1,0,5.159-.836L390,368.7a2.612,2.612,0,0,0-2.612-2.194Z" transform="translate(-210.123 -61.582)" fill="#263238"/>
          <path id="Tracé_396" data-name="Tracé 396" d="M428.871,255.629s-14.64,5.629-27.973,9.207-20.464,4.741-20.464,4.741-13.712-2.442-15.776-3a6.53,6.53,0,0,0-5.446,1.306c-.562.744-6.752,3.748-9.951,4.688s-2.612,2.442-1.881,3.761,2.612.94,4.14.744,7.836-1.306,7.836-1.306-5.824,4.884-9.39,7.143-5.642,4.688-5.224,6.007,2.259,1.123,3,.744,15.018-5.629,15.018-5.629-7.836,5.629-8.815,6.2-5.825,3-6.2,4.506a2.024,2.024,0,0,0,1.881,2.612c1.306.183,9.141-2.442,9.141-2.442s-4.871,3.382-3.918,4.506a2.965,2.965,0,0,0,3.369.561,70.375,70.375,0,0,1,7.326-1.306s6.2-2.076,9.011-4.14,9.951-12.759,9.951-12.759,27.608,1.685,46.191-1.136,26.119-6.53,26.485-9.573-1.5-21.026-1.5-21.026Z" transform="translate(-188.552 -96.83)" fill="#ffead9"/>
          <path id="Tracé_397" data-name="Tracé 397" d="M357.143,301.112a3.343,3.343,0,0,1-2.612-1.1,1.307,1.307,0,0,1-.261-.953,4.949,4.949,0,0,1,1.567-2.285,25.591,25.591,0,0,1-6.151,1.4,2.99,2.99,0,0,1-2.1-1.2,2.7,2.7,0,0,1-.314-2.22c.313-1.306,2.547-2.742,5.8-4.532l.692-.379c.444-.261,2.612-1.763,4.78-3.33-4.91,1.828-9.951,3.709-10.343,3.918a3.643,3.643,0,0,1-2.808.117,1.933,1.933,0,0,1-1.123-1.306c-.575-2.037,2.481-4.819,5.537-6.739,2.233-1.41,5.394-3.918,7.4-5.524-1.972.353-4.571.784-5.472.9h-.379c-1.463.2-3.487.457-4.4-1.136a3.291,3.291,0,0,1-.522-2.769,3.918,3.918,0,0,1,2.782-1.933,44.21,44.21,0,0,0,9.625-4.466,7.091,7.091,0,0,1,6.125-1.541c1.92.522,14.365,2.729,15.606,2.964.94-.157,8.032-1.371,20.294-4.662,13.151-3.513,27.764-9.142,27.908-9.142h.1l27.555-5.785.078.731c.078.731,1.88,18.126,1.5,21.169-.5,3.918-10.095,7.574-27.02,10.147-17.278,2.612-42.587,1.306-45.956,1.149-1.228,1.815-7.261,10.7-9.9,12.628A43.007,43.007,0,0,1,366,299.454a70.143,70.143,0,0,0-7.2,1.306A3.082,3.082,0,0,1,357.143,301.112Zm5.968-8.084-3.748,2.612c-1.985,1.384-3.787,3.108-3.787,3.631a2.494,2.494,0,0,0,2.494.366,45.266,45.266,0,0,1,7.587-1.423h0a44.122,44.122,0,0,0,8.724-4.009c2.69-1.972,9.716-12.5,9.794-12.6l.209-.313h.366c.274,0,27.751,1.645,46.061-1.123,24.055-3.644,25.818-8.149,25.923-9.011.313-2.612-1.084-16.781-1.437-20.164l-26.119,5.472c-.953.366-15.175,5.772-28,9.207-13.216,3.539-20.464,4.7-20.529,4.7h-.222c-.562-.091-13.752-2.455-15.828-3.017a6.112,6.112,0,0,0-4.754,1.084c-.757,1.006-7.3,4.048-10.291,4.923-1.084.327-1.75.718-1.933,1.175s.1,1.045.444,1.632,1.554.679,3.1.47h.392c1.463-.2,7.836-1.306,7.836-1.306l2.4-.418-1.867,1.567c-.248.2-5.9,4.936-9.468,7.183s-5.224,4.545-4.976,5.224a.641.641,0,0,0,.392.431,2.338,2.338,0,0,0,1.7-.078c.758-.379,13.621-5.119,15.084-5.668l4.558-1.672-3.918,2.821c-.313.222-7.914,5.655-8.867,6.229l-.718.4c-3.265,1.789-5.015,3.043-5.224,3.7a1.424,1.424,0,0,0,.131,1.175,1.671,1.671,0,0,0,1.2.64,51.492,51.492,0,0,0,8.907-2.4Z" transform="translate(-188.703 -97.023)" fill="#263238"/>
          <path id="Tracé_398" data-name="Tracé 398" d="M355.9,286.138l-.614-1.149s4.388-2.285,9.037-4.519l.562,1.175C360.266,283.865,355.943,286.125,355.9,286.138Z" transform="translate(-185.309 -87.52)" fill="#263238"/>
          <path id="Tracé_399" data-name="Tracé 399" d="M355.313,290.309,354.96,289c.091,0,9.233-2.612,11.753-5.433l.979.862C364.911,287.592,355.7,290.2,355.313,290.309Z" transform="translate(-185.409 -86.572)" fill="#263238"/>
          <path id="Tracé_400" data-name="Tracé 400" d="M399.649,208.516s-4.61,16.285-4,23.037S406.4,273.63,406.4,273.63s4,.914,11.362-.313a130.928,130.928,0,0,0,14.444-3.343l11.362-4s-11.675-42.992-14.444-50.932-13.5-17.813-17.5-20.569-8.907,0-8.907,0" transform="translate(-172.977 -114.204)" fill="#07b5e7"/>
          <path id="Tracé_401" data-name="Tracé 401" d="M410.72,274.792a22.453,22.453,0,0,1-4.31-.34l-.379-.091-.1-.366c-.418-1.45-10.16-35.456-10.774-42.195s3.826-22.606,4.022-23.272l1.306.353c0,.157-4.571,16.233-3.918,22.8.561,6.229,9.507,37.676,10.617,41.555a34.594,34.594,0,0,0,10.735-.379,130.818,130.818,0,0,0,14.365-3.356l10.761-3.787c-1.41-5.224-11.754-42.979-14.261-50.344-2.69-7.836-13.295-17.513-17.252-20.255-3.617-2.507-8.175,0-8.214,0l-.64-1.136c.209-.118,5.315-2.925,9.586,0,3.552,2.455,14.8,12.354,17.761,20.9,2.729,7.914,14.365,50.592,14.444,51.023l.157.588-11.936,4.192a133.4,133.4,0,0,1-14.535,3.408A44.854,44.854,0,0,1,410.72,274.792Z" transform="translate(-173.13 -114.387)" fill="#263238"/>
        </g>
      </g>
    </g>
  </g>
</svg>
