<svg id="Groupe_255" data-name="Groupe 255" xmlns="http://www.w3.org/2000/svg" xmlns:xlink="http://www.w3.org/1999/xlink" width="118.727" height="118.729" viewBox="0 0 118.727 118.729">
  <defs>
    <clipPath id="clip-path">
      <rect width="118.727" height="118.729" fill="none"/>
    </clipPath>
  </defs>
  <g id="Groupe_254" data-name="Groupe 254">
    <g id="circle" clip-path="url(#clip-path)">
      <g id="circle-2" data-name="circle">
        <g id="Ellipse_5" data-name="Ellipse 5" fill="#fff" stroke="#07b5e7" stroke-width="4">
          <ellipse cx="59.363" cy="59.365" rx="59.363" ry="59.365" stroke="none"/>
          <ellipse cx="59.363" cy="59.365" rx="57.363" ry="57.365" fill="none"/>
        </g>
        <g id="Groupe_169" data-name="Groupe 169" transform="translate(-5947.946 -2623.517)">
          <path id="Tracé_2057" data-name="Tracé 2057" d="M1163.333,381.457c-1.131-1.144-2.369-2.183-3.513-3.312-.992-.977-1.96-1.985-2.863-3.051a2.689,2.689,0,0,1-.6-1.426c-.124-1.466-.171-2.942-.174-4.416,0-1.689.171-3.381.1-5.066-.159-4.066-2.329-6.7-6.105-7.5a11.185,11.185,0,0,0-2.436-.248c-2.4.02-4.8.131-7.194.161a5.16,5.16,0,0,1-3.865-1.518c-.707-.712-1.389-1.446-2.094-2.158a52.347,52.347,0,0,0-4.364-4.351,7.262,7.262,0,0,0-9.792.1c-1.538,1.268-2.818,2.843-4.24,4.255-.97.965-1.943,1.935-2.977,2.816a2.977,2.977,0,0,1-1.563.655c-1.441.134-2.893.171-4.341.169-1.687,0-3.379-.169-5.063-.107-4.081.154-6.8,2.377-7.522,6.175a20.664,20.664,0,0,0-.248,3.863c0,1.9.144,3.793.161,5.693a5.194,5.194,0,0,1-1.508,3.872c-.714.7-1.439,1.394-2.153,2.1a53.56,53.56,0,0,0-4.217,4.17c-2.662,3.257-2.662,6.795,0,10.05a57.809,57.809,0,0,0,4.217,4.178c.992.992,1.955,1.985,2.863,3.051a2.661,2.661,0,0,1,.605,1.419c.122,1.488.169,3,.171,4.5,0,1.687-.169,3.379-.092,5.063.193,4.314,2.575,7,6.859,7.547a22.048,22.048,0,0,0,5.6,0c3.91-.511,6.966.558,9.407,3.8,2.069,2.741,4.446,5.267,8.07,6.016h1.9c3.684-.762,5.912-3.473,8.214-6.1.675-.774,1.411-1.488,2.133-2.233a5.17,5.17,0,0,1,3.873-1.5c1.925.022,3.848.161,5.77.166a20.249,20.249,0,0,0,3.783-.248c3.776-.724,5.954-3.371,6.162-7.442.079-1.657-.089-3.322-.087-4.984,0-1.523.042-3.054.161-4.575a2.657,2.657,0,0,1,.6-1.422c.9-1.059,1.868-2.071,2.863-3.051,1.144-1.129,2.377-2.168,3.51-3.309a9.97,9.97,0,0,0,2.655-4.962v-1.9A10.021,10.021,0,0,0,1163.333,381.457Zm-3.4,7.953a33.294,33.294,0,0,1-3.473,3.337,17.92,17.92,0,0,0-4.153,4.741c-1.223,2.143-1.312,4.532-1.263,6.919.03,1.4.169,2.793.228,4.192a15.929,15.929,0,0,1-.04,1.821c-.146,1.873-.839,2.64-2.7,2.746a32.975,32.975,0,0,1-4.428-.067,21.233,21.233,0,0,0-6.3.3c-2.615.571-4.465,2.29-6.227,4.138-1.161,1.225-2.2,2.568-3.4,3.756-2.111,2.111-3.384,2.1-5.51.022-.923-.9-1.722-1.933-2.639-2.843-1.24-1.24-2.5-2.481-3.85-3.619a8.22,8.22,0,0,0-5.381-1.8c-2.233,0-4.488.141-6.73.174a16.556,16.556,0,0,1-2.615-.2,1.923,1.923,0,0,1-1.737-1.717c-.146-.962-.2-1.937-.248-2.62.107-1.588.181-2.878.285-4.168a12.779,12.779,0,0,0-5.262-11.66,32.409,32.409,0,0,1-3.153-2.885c-1.923-1.985-1.925-3.247-.03-5.225.953-.992,2.012-1.866,3.024-2.793.623-.571,1.26-1.126,1.87-1.707,2.863-2.711,3.751-6.135,3.567-9.943-.089-1.794-.176-3.587-.226-5.381a7.226,7.226,0,0,1,.171-1.488,1.9,1.9,0,0,1,1.766-1.756c1.759-.107,3.528-.055,5.289-.089a55.265,55.265,0,0,0,5.6-.189c3.3-.409,5.458-2.669,7.537-5a46.47,46.47,0,0,1,3.57-3.7c1.347-1.211,2.458-1.221,3.813-.027a33.945,33.945,0,0,1,3.473,3.577,18.445,18.445,0,0,0,4.667,4.123c2.181,1.283,4.619,1.374,7.058,1.325,1.794-.037,3.585-.161,5.378-.211a7.369,7.369,0,0,1,1.412.159,1.936,1.936,0,0,1,1.8,1.823c.1,1.737.045,3.473.082,5.21a52.708,52.708,0,0,0,.2,5.676c.427,3.289,2.684,5.458,5.023,7.519a41.612,41.612,0,0,1,3.548,3.386C1161.289,386.823,1161.292,387.879,1159.937,389.41Z" transform="translate(4881.455 2295.58)" fill="#07b5e7"/>
          <path id="Tracé_2058" data-name="Tracé 2058" d="M1175.409,400.7a41.638,41.638,0,0,0-3.547-3.386c-2.339-2.071-4.6-4.23-5.024-7.519a50.914,50.914,0,0,1-.2-5.676c-.037-1.737.02-3.473-.082-5.21a1.938,1.938,0,0,0-1.8-1.823,7.366,7.366,0,0,0-1.411-.159c-1.794.05-3.585.174-5.378.211-2.438.05-4.877-.042-7.058-1.325a18.442,18.442,0,0,1-4.666-4.123,33.945,33.945,0,0,0-3.473-3.577c-1.355-1.193-2.466-1.183-3.813.027a46.507,46.507,0,0,0-3.57,3.7c-2.081,2.33-4.24,4.589-7.536,5a55.21,55.21,0,0,1-5.6.189c-1.761.035-3.53-.017-5.289.089a1.9,1.9,0,0,0-1.766,1.756,7.226,7.226,0,0,0-.171,1.488c.05,1.794.136,3.587.226,5.381.183,3.808-.7,7.232-3.567,9.943-.61.581-1.24,1.136-1.87,1.707-1.012.928-2.072,1.808-3.024,2.793-1.9,1.985-1.893,3.242.03,5.225a32.383,32.383,0,0,0,3.173,2.883,12.765,12.765,0,0,1,5.262,11.66c-.1,1.29-.179,2.58-.285,4.168.064.682.114,1.657.248,2.62a1.923,1.923,0,0,0,1.737,1.717,16.548,16.548,0,0,0,2.6.193c2.233-.032,4.485-.181,6.73-.174a8.193,8.193,0,0,1,5.381,1.8c1.349,1.126,2.6,2.374,3.85,3.619.918.91,1.717,1.94,2.64,2.843,2.126,2.079,3.4,2.089,5.51-.022,1.2-1.188,2.233-2.53,3.4-3.756,1.756-1.848,3.612-3.567,6.227-4.138a21.233,21.233,0,0,1,6.3-.3,32.98,32.98,0,0,0,4.428.067c1.865-.107,2.558-.873,2.7-2.746a15.985,15.985,0,0,0,.04-1.821c-.06-1.4-.2-2.793-.228-4.193-.05-2.386.04-4.775,1.263-6.919a17.919,17.919,0,0,1,4.153-4.741,33.312,33.312,0,0,0,3.473-3.337C1176.786,403.291,1176.783,402.234,1175.409,400.7Zm-49.7,11.947c-.682.337-1.377.653-2.136,1.012.677,1.461,1.367,2.875,1.985,4.322a3.722,3.722,0,0,1,.342,1.59,2.436,2.436,0,0,1-1.875,2.2,2.56,2.56,0,0,1-2.793-1.181,11.091,11.091,0,0,1-.526-1.062q-2.925-6.274-5.847-12.548c-.853-1.828-.4-3.066,1.429-3.925,1.359-.64,2.729-1.285,4.086-1.9a2.538,2.538,0,1,1,2.146,4.592c-.682.335-1.379.645-2.171,1.015l1.079,2.29c.744-.345,1.422-.665,2.109-.992a2.543,2.543,0,1,1,2.173,4.589Zm18.521-1.32a2.5,2.5,0,0,1-3.753,1.57c-.744-.412-1.444-.873-2.163-1.315l-2.359-1.439c.437.958.786,1.709,1.131,2.463a2.553,2.553,0,1,1-4.6,2.141q-3.1-6.631-6.187-13.27a2.524,2.524,0,0,1,1.377-3.706,26.426,26.426,0,0,1,4.9-1.95,5.685,5.685,0,0,1,6.17,2.627,6.043,6.043,0,0,1,.283,6.668c-.109.208-.248.407-.417.709,1.474.893,2.9,1.737,4.309,2.62A2.582,2.582,0,0,1,1144.233,411.324Zm9.99-3.56q-2.138,1.027-4.307,2a2.5,2.5,0,0,1-3.562-1.3q-3.176-6.77-6.314-13.557a2.529,2.529,0,0,1,1.322-3.557q2.143-1.02,4.3-2.007a2.535,2.535,0,1,1,2.176,4.577c-.7.352-1.419.675-2.181,1.034.352.762.68,1.474,1.047,2.272.856-.382,1.669-.791,2.515-1.119a2.525,2.525,0,0,1,2.481,4.329,5.377,5.377,0,0,1-.958.553c-.585.29-1.186.558-1.858.871l1.064,2.282c.764-.352,1.449-.677,2.141-.992a2.573,2.573,0,0,1,3.515,1.121,2.609,2.609,0,0,1-1.394,3.5Zm11.464-5.363q-2.136,1.027-4.3,2a2.507,2.507,0,0,1-3.547-1.327q-3.158-6.728-6.289-13.468a2.525,2.525,0,0,1,1.317-3.617q2.143-1.02,4.3-2a2.538,2.538,0,1,1,2.148,4.592c-.682.332-1.377.648-2.171,1.015l1.067,2.287c.744-.35,1.459-.682,2.173-.992a2.54,2.54,0,1,1,2.146,4.6c-.682.34-1.377.652-2.166,1.022.357.767.69,1.489,1.062,2.275.717-.325,1.4-.643,2.086-.95a2.535,2.535,0,1,1,2.163,4.572Z" transform="translate(4865.961 2280.168)" fill="#fff"/>
          <path id="Tracé_2059" data-name="Tracé 2059" d="M1205.288,494.7c-1.409-.878-2.836-1.737-4.309-2.62.181-.3.308-.5.417-.71a6.079,6.079,0,0,0-.283-6.668,5.714,5.714,0,0,0-6.17-2.627,26.862,26.862,0,0,0-4.9,1.95,2.537,2.537,0,0,0-1.377,3.706q3.081,6.641,6.187,13.27a2.553,2.553,0,1,0,4.6-2.141c-.345-.744-.695-1.506-1.131-2.463l2.359,1.439c.719.442,1.429.9,2.163,1.315a2.5,2.5,0,0,0,3.753-1.57A2.557,2.557,0,0,0,1205.288,494.7Zm-8.187-6.254c-.089,1.007-1.039,1.094-1.818,1.474-.362-.776-.7-1.5-1.052-2.262.8-.327,1.506-1.057,2.354-.412a1.583,1.583,0,0,1,.524,1.2Z" transform="translate(4803.586 2193.921)" fill="#07b5e7"/>
          <path id="Tracé_2060" data-name="Tracé 2060" d="M1249.847,461.167c.352.762.68,1.474,1.047,2.272.856-.385,1.67-.791,2.516-1.119a2.525,2.525,0,0,1,2.481,4.329,5.45,5.45,0,0,1-.955.553c-.588.29-1.188.558-1.86.871l1.064,2.282c.764-.352,1.449-.677,2.141-.992a2.547,2.547,0,1,1,2.141,4.609c-1.441.692-2.863,1.35-4.307,2a2.5,2.5,0,0,1-3.562-1.295q-3.175-6.773-6.311-13.56a2.527,2.527,0,0,1,1.322-3.557q2.141-1.02,4.3-2.007a2.533,2.533,0,1,1,2.173,4.575C1251.323,460.493,1250.606,460.815,1249.847,461.167Z" transform="translate(4761.768 2213.951)" fill="#07b5e7"/>
          <path id="Tracé_2061" data-name="Tracé 2061" d="M1299.318,446.493l1.059,2.275c.719-.327,1.4-.643,2.091-.95a2.54,2.54,0,1,1,2.171,4.58c-1.411.677-2.86,1.352-4.3,2a2.511,2.511,0,0,1-3.548-1.33q-3.158-6.728-6.289-13.471a2.523,2.523,0,0,1,1.317-3.615q2.143-1.02,4.3-2a2.537,2.537,0,1,1,2.148,4.589c-.682.337-1.379.648-2.168,1.017.352.762.692,1.488,1.064,2.287.744-.347,1.459-.685,2.173-.992a2.539,2.539,0,1,1,2.146,4.594C1300.807,445.81,1300.107,446.123,1299.318,446.493Z" transform="translate(4727 2230.179)" fill="#07b5e7"/>
          <path id="Tracé_2062" data-name="Tracé 2062" d="M1147.833,508.718c.372.794.7,1.5,1.077,2.292.744-.345,1.421-.67,2.109-.992a2.536,2.536,0,1,1,2.171,4.575c-.682.337-1.377.652-2.136,1.012.677,1.461,1.367,2.875,1.985,4.322a3.767,3.767,0,0,1,.342,1.593,2.439,2.439,0,0,1-1.873,2.2,2.563,2.563,0,0,1-2.8-1.181,10.332,10.332,0,0,1-.526-1.064q-2.925-6.269-5.85-12.543c-.851-1.831-.4-3.069,1.431-3.927,1.359-.64,2.729-1.283,4.086-1.9a2.538,2.538,0,1,1,2.146,4.592C1149.319,508.039,1148.622,508.349,1147.833,508.718Z" transform="translate(4838.483 2178.207)" fill="#07b5e7"/>
          <path id="Tracé_2063" data-name="Tracé 2063" d="M1213.192,505.252c-.36-.779-.7-1.5-1.052-2.265.8-.327,1.506-1.059,2.354-.412a1.575,1.575,0,0,1,.516,1.2C1214.921,504.783,1213.968,504.87,1213.192,505.252Z" transform="translate(4785.685 2178.587)" fill="#fff"/>
        </g>
      </g>
    </g>
  </g>
</svg>
