<svg xmlns="http://www.w3.org/2000/svg" xmlns:xlink="http://www.w3.org/1999/xlink" width="607.238" height="910.251" viewBox="0 0 607.238 910.251">
  <defs>
    <filter id="Rectangle_32" x="64" y="5" width="492" height="854.251" filterUnits="userSpaceOnUse">
      <feOffset input="SourceAlpha"/>
      <feGaussianBlur stdDeviation="6" result="blur"/>
      <feFlood flood-color="#dfdfdf" flood-opacity="0.231" result="color"/>
      <feComposite operator="out" in="SourceGraphic" in2="blur"/>
      <feComposite operator="in" in="color"/>
      <feComposite operator="in" in2="SourceGraphic"/>
    </filter>
    <clipPath id="clip-path">
      <rect id="Rectangle_2122" data-name="Rectangle 2122" width="492" height="854.251" rx="6" transform="translate(52.459)" fill="#e8eff7"/>
    </clipPath>
  </defs>
  <g id="inf" transform="translate(11.204 5)">
    <rect id="Rectangle_2125" data-name="Rectangle 2125" width="505.238" height="808.251" rx="54" transform="translate(39.796 46)" fill="rgba(162,162,162,0.22)" style="mix-blend-mode: multiply;isolation: isolate"/>
    <g data-type="innerShadowGroup">
      <rect id="Rectangle_32-2" data-name="Rectangle 32" width="492" height="854.251" rx="54" transform="translate(52.796)" fill="#fff"/>
      <g transform="matrix(1, 0, 0, 1, -11.2, -5)" filter="url(#Rectangle_32)">
        <rect id="Rectangle_32-3" data-name="Rectangle 32" width="492" height="854.251" rx="54" transform="translate(64 5)" fill="#fff"/>
      </g>
    </g>
    <g id="Groupe_de_masques_25" data-name="Groupe de masques 25" transform="translate(0.337)" clip-path="url(#clip-path)">
      <g id="infermier_illustration" data-name="infermier illustration" transform="translate(-50.85 168.374)">
        <g id="Background_Simple" data-name="Background Simple" transform="translate(13.969 0)">
          <path id="Tracé_6" data-name="Tracé 6" d="M704.1,173.641s-46.461-74.768-140.849-70.412C447.107,108.58,466.7,133.715,343.28,140.977S140.721,88.745,67.4,144.608s-76.96,206.9-4.357,280.27,182.176,5.1,255.556,13.071,230.866,36.3,318.706,12.345S749.837,236.078,704.1,173.641Z" transform="translate(-10.465 -38.856)" fill="#09a4f4"/>
          <g id="Groupe_1" data-name="Groupe 1" transform="translate(0 64.19)" opacity="0.7">
            <path id="Tracé_7" data-name="Tracé 7" d="M704.1,173.641s-46.461-74.768-140.849-70.412C447.107,108.58,466.7,133.715,343.28,140.977S140.721,88.745,67.4,144.608s-76.96,206.9-4.357,280.27,182.176,5.1,255.556,13.071,230.866,36.3,318.706,12.345S749.837,236.078,704.1,173.641Z" transform="translate(-10.465 -103.046)" fill="#fff"/>
          </g>
          <path id="Tracé_8" data-name="Tracé 8" d="M77.187,335.338a.637.637,0,0,1-.637-.637V53.3a.637.637,0,0,1,.637-.637H250.7a.637.637,0,0,1,.637.637v108.21a.637.637,0,1,1-1.274,0V53.934H77.824V334.7A.637.637,0,0,1,77.187,335.338Z" transform="translate(7.639 -52.66)" fill="#263238"/>
          <path id="Tracé_9" data-name="Tracé 9" d="M250.7,339.078H77.187a.65.65,0,0,1-.637-.637V319.331a.637.637,0,0,1,1.274,0v18.511H250.063v-191.7a.637.637,0,0,1,.637-.637.65.65,0,0,1,.637.637V338.5a.65.65,0,0,1-.637.573Z" transform="translate(7.639 -27.226)" fill="#263238"/>
          <path id="Tracé_10" data-name="Tracé 10" d="M397.5,364.512H223.987a.65.65,0,0,1-.637-.637V53.3a.637.637,0,0,1,.637-.637H397.5a.637.637,0,0,1,.637.637V74.954a.637.637,0,1,1-1.274,0V53.934H224.624v309.3H396.863V86.789a.637.637,0,0,1,.637-.637.65.65,0,0,1,.637.637V363.938a.65.65,0,0,1-.637.573Z" transform="translate(47.856 -52.66)" fill="#263238"/>
          <path id="Tracé_11" data-name="Tracé 11" d="M544.287,364.512h-173.5a.637.637,0,0,1-.637-.637V53.3a.637.637,0,0,1,.637-.637h173.5a.637.637,0,0,1,.637.637V187.941a.637.637,0,1,1-1.274,0V53.934H371.424v309.3H543.65V199.789a.65.65,0,0,1,.637-.637.637.637,0,0,1,.637.637V363.938A.637.637,0,0,1,544.287,364.512Z" transform="translate(88.073 -52.66)" fill="#263238"/>
          <path id="Tracé_12" data-name="Tracé 12" d="M98.3,166.488a.637.637,0,0,1-.446-1.083l16.8-16.765a.64.64,0,0,1,.9.9l-16.8,16.765A.637.637,0,0,1,98.3,166.488Z" transform="translate(13.424 -26.417)" fill="#263238"/>
          <path id="Tracé_13" data-name="Tracé 13" d="M116.136,167.63a.642.642,0,0,1-.446-1.1L220.524,61.7a.64.64,0,1,1,.9.9L116.6,167.439a.65.65,0,0,1-.459.191Z" transform="translate(18.31 -50.235)" fill="#263238"/>
          <path id="Tracé_14" data-name="Tracé 14" d="M92.138,189.295a.65.65,0,0,1-.459-.191.637.637,0,0,1,0-.892l37.4-37.3a.637.637,0,0,1,.9,0,.611.611,0,0,1,0,.892L92.635,189.1A.637.637,0,0,1,92.138,189.295Z" transform="translate(11.734 -25.795)" fill="#263238"/>
          <path id="Tracé_15" data-name="Tracé 15" d="M241.988,195.853a.643.643,0,0,1-.459-1.1l55.1-55.086a.612.612,0,0,1,.892,0,.637.637,0,0,1,0,.9l-55.086,55.086A.624.624,0,0,1,241.988,195.853Z" transform="translate(52.786 -28.876)" fill="#263238"/>
          <path id="Tracé_16" data-name="Tracé 16" d="M452.408,255.642a.637.637,0,0,1-.459-.178.65.65,0,0,1,0-.9l7.032-7.02a.631.631,0,0,1,.892.892l-7.019,7.032a.6.6,0,0,1-.446.178Z" transform="translate(110.432 0.678)" fill="#263238"/>
          <path id="Tracé_17" data-name="Tracé 17" d="M463.288,252.791a.637.637,0,0,1-.459-.178.65.65,0,0,1,0-.9L507.1,207.45a.635.635,0,1,1,.9.892l-44.27,44.245a.625.625,0,0,1-.446.2Z" transform="translate(113.412 -10.306)" fill="#263238"/>
          <path id="Tracé_18" data-name="Tracé 18" d="M484.746,213.971a.662.662,0,0,1-.446-.178.637.637,0,0,1,0-.9l14.319-14.319a.635.635,0,0,1,.892.9l-14.268,14.319A.688.688,0,0,1,484.746,213.971Z" transform="translate(119.293 -12.737)" fill="#263238"/>
          <path id="Tracé_19" data-name="Tracé 19" d="M420.056,101.9a.624.624,0,0,1-.446-.191.637.637,0,0,1,0-.9l37.735-37.76a.64.64,0,0,1,.9.9L420.5,101.7A.6.6,0,0,1,420.056,101.9Z" transform="translate(101.571 -49.868)" fill="#263238"/>
          <path id="Tracé_20" data-name="Tracé 20" d="M411.547,92.823a.6.6,0,0,1-.446-.191.611.611,0,0,1,0-.892l13.007-13.02a.64.64,0,0,1,.9.9l-13.02,13.007A.624.624,0,0,1,411.547,92.823Z" transform="translate(99.239 -45.572)" fill="#263238"/>
          <path id="Tracé_21" data-name="Tracé 21" d="M609.747,317.464H131.377a.637.637,0,1,1,0-1.274h478.37a.637.637,0,1,1,0,1.274Z" transform="translate(22.485 19.536)" fill="#263238"/>
          <path id="Tracé_22" data-name="Tracé 22" d="M136.01,317.464H77.867a.637.637,0,0,1-.637-.637.65.65,0,0,1,.637-.637H136.01a.65.65,0,0,1,.637.637.637.637,0,0,1-.637.637Z" transform="translate(7.825 19.536)" fill="#263238"/>
        </g>
        <g id="Characters" transform="translate(148.367 92.802)">
          <path id="Tracé_23" data-name="Tracé 23" d="M151.89,228.13s10.345.561,12.039,1.019,9.389.968,9.389.968-9.86,9.364-10.625,9.669-2,.153-5.1-1.847S151.89,228.13,151.89,228.13Z" transform="translate(-106.118 -97.391)" fill="#000032"/>
          <path id="Tracé_24" data-name="Tracé 24" d="M246.887,464.6h31.5L262.238,398.4l-6-46.079-22.868-.178,2.535,69.966Z" transform="translate(-83.796 -63.418)" fill="#eeae8d"/>
          <path id="Tracé_25" data-name="Tracé 25" d="M279.347,465.382H246.53l-11.122-43.111L232.86,351.63l24.091.191,6.064,46.627ZM247.5,464.108h30.193L261.728,398.69,255.791,353.1l-21.657-.178,2.548,69.24Z" transform="translate(-83.936 -63.558)" fill="#263238"/>
          <path id="Tracé_26" data-name="Tracé 26" d="M244.924,289.361l10.319,80.17H237S239.765,286.979,244.924,289.361Z" transform="translate(-82.802 -80.63)" fill="#fff"/>
          <path id="Tracé_27" data-name="Tracé 27" d="M256.114,370.3H236.47v-.662c.268-7.924,2.752-77.571,7.733-80.641a1.108,1.108,0,0,1,1.108-.076l.318.14v.357Zm-18.319-1.274h16.867l-10.115-78.59C241.744,294.734,239.018,333.194,237.795,369.031Z" transform="translate(-82.947 -80.767)" fill="#263238"/>
          <path id="Tracé_28" data-name="Tracé 28" d="M127.416,443.274l6.879,55.3H287.4l-13.555-84.438,1.669-60.666s3.35-51.264,2.357-58.971S275,282.462,272.507,280.08c-18.039-17.2-40.206-27.454-42.728-31.492s-10.192-6.7-10.192-6.7l-30.486-.344-22.09-5.809-5.4-7.644s-8.7,11.389-9.045,12.4-33.505,37.875-35.187,47.926-.662,42.232,0,64.348S127.416,443.274,127.416,443.274Z" transform="translate(-115.825 -97.402)" fill="#fff"/>
          <path id="Tracé_29" data-name="Tracé 29" d="M287.536,499.352h-153.1a.637.637,0,0,1-.637-.561l-6.867-55.29c-.127-.943-9.4-68.692-10.064-90.553v-.968c-.688-22.587-1.631-53.506,0-63.494,1.274-8.064,21.492-31.849,31.174-43.213,2.089-2.446,3.822-4.574,4.064-4.879.318-.955,7.058-9.822,9.122-12.51a.6.6,0,0,1,.51-.255.624.624,0,0,1,.51.268l5.261,7.4,21.785,5.733,30.422.344h.2c.318.115,7.949,2.8,10.561,6.981.9,1.465,5.1,4.115,10.434,7.478,8.434,5.338,21.186,13.4,32.18,23.887,2.828,2.7,4.586,7.4,5.554,14.791,1.006,7.644-2.2,57.01-2.344,59.112l-1.669,60.628,13.517,84.336a.637.637,0,0,1-.624.739Zm-152.544-1.274H286.784L273.37,414.367l1.669-60.78c0-.535,3.338-51.328,2.357-58.882-.917-6.994-2.548-11.58-5.172-14.014-10.892-10.408-23.084-18.1-31.976-23.734-5.886-3.72-9.771-6.179-10.841-7.886-2.229-3.554-8.918-6.09-9.809-6.37l-30.384-.331h-.153l-22.09-5.9a.624.624,0,0,1-.357-.242l-4.892-6.854c-3.3,4.344-8.128,10.79-8.434,11.542-.089.293-.535.828-4.268,5.223-8.854,10.434-29.607,34.881-30.893,42.588-1.631,9.848-.7,40.767,0,63.252v.968c.662,21.836,9.95,89.737,10.052,90.451h0Z" transform="translate(-115.961 -97.528)" fill="#263238"/>
          <rect id="Rectangle_2" data-name="Rectangle 2" width="75.415" height="1.272" transform="translate(23.607 385.036) rotate(-37.674)" fill="#263238"/>
          <rect id="Rectangle_3" data-name="Rectangle 3" width="36.295" height="1.274" transform="matrix(0.79, -0.614, 0.614, 0.79, 45.485, 364.595)" fill="#263238"/>
          <path id="Tracé_30" data-name="Tracé 30" d="M166.768,206.971l1.478,27.7-12.115,7.172s15.823,12.37,22.753,22.256,23.989,29.428,32.639,28.689,10.383-20.281,9.147-26.957-1.733-11.134-1.733-11.134l-.981-3.452s-14.345-3.223-20.778-8.166-26.753-36.346-27.938-37.085S166.768,206.971,166.768,206.971Z" transform="translate(-104.957 -103.507)" fill="#eeae8d"/>
          <path id="Tracé_31" data-name="Tracé 31" d="M211.291,293.573c-9.262,0-26.231-19.746-32.69-28.97-6.79-9.708-22.46-22-22.625-22.116l-.726-.586,12.587-7.44-1.44-27.53.127-.191c.586-.815,1.949-1.987,3.325-1.159.471.28,1.72,2.038,6.37,8.841,6.9,9.975,17.326,25.033,21.568,28.295,6.242,4.8,20.383,8,20.523,8.039l.369.076,1.083,3.822c0,.14.535,4.612,1.745,11.185.943,5.1.229,18.345-4.459,24.5a7.376,7.376,0,0,1-5.261,3.2,3.511,3.511,0,0,1-.5.038Zm-53.812-51.519c3.2,2.548,16.1,13.173,22.154,21.81,7.172,10.192,23.95,29.123,32.065,28.422a6.23,6.23,0,0,0,4.357-2.714c4.28-5.669,5.121-18.409,4.23-23.5-1.274-6.625-1.733-11.134-1.733-11.173l-.866-2.994c-2.344-.548-14.689-3.605-20.651-8.192-4.4-3.376-14.893-18.536-21.848-28.575-2.892-4.179-5.618-8.115-6.077-8.5s-1.172.357-1.452.675l1.491,27.836Z" transform="translate(-105.198 -103.646)" fill="#263238"/>
          <rect id="Rectangle_4" data-name="Rectangle 4" width="1.274" height="10.141" transform="translate(62.652 131.159)" fill="#263238"/>
          <path id="Tracé_32" data-name="Tracé 32" d="M204.351,267.826c-1.911-3.007-2.331-10.714-2.331-12.459,0-2.293,3.376-10.446,3.758-11.376l1.172.5c-1.006,2.433-3.656,9.16-3.656,10.88,0,2.255.51,9.223,2.128,11.771Z" transform="translate(-92.385 -93.046)" fill="#263238"/>
          <path id="Tracé_33" data-name="Tracé 33" d="M242.992,185.1s1.733,14.09,1.478,17.3-2.217,15.287-2.714,19.046-.739,9.886-2.229,14.829-10.141,20.982-11.415,23.53a14.663,14.663,0,0,1-8.408,7.911c-4.943,1.733-15.287-1.274-18.536-2.471s-21.02-18.294-24.982-22.5-7.911-19.288-7.911-19.288a31.021,31.021,0,0,1-9.389-8.153c-4.459-5.695-6.433-13.109-5.453-17.071s1.873-7.389,4.777-7.9a17.836,17.836,0,0,1,7.835.726c1.274.5-4.446-20.523-4.446-20.523s18.549-11.861,38.575-12.115S241.26,175.453,242.992,185.1Z" transform="translate(-105.763 -116.489)" fill="#eeae8d"/>
          <path id="Tracé_34" data-name="Tracé 34" d="M216.059,268.992a51.162,51.162,0,0,1-14.956-3.045c-3.427-1.274-21.339-18.549-25.212-22.664s-7.427-17.16-8-19.288a32.078,32.078,0,0,1-9.351-8.2c-4.726-6.039-6.535-13.7-5.554-17.606s1.949-7.784,5.274-8.37a18.651,18.651,0,0,1,7.478.535c-.217-2.472-2.408-11.466-4.586-19.543l-.127-.446.395-.255c.191-.115,18.931-11.962,38.907-12.217h.433c19.7,0,41.123,16.88,42.983,27.237h0c.076.586,1.745,14.2,1.491,17.441-.166,2.115-1.032,7.8-1.8,12.829-.395,2.548-.752,4.943-.93,6.242-.127.981-.242,2.14-.357,3.389a63.256,63.256,0,0,1-1.885,11.555c-1.274,4.089-7.2,15.491-10.064,20.982-.637,1.274-1.121,2.153-1.35,2.548a15.351,15.351,0,0,1-8.765,8.23,12.5,12.5,0,0,1-4.026.65Zm-55.544-78.081a11.792,11.792,0,0,0-2.038.166c-2.548.433-3.312,3.669-4.255,7.414s.841,10.79,5.325,16.561a30.575,30.575,0,0,0,9.185,7.975l.255.14v.268c0,.153,3.962,14.982,7.771,19.02,4.23,4.5,21.734,21.186,24.74,22.345s13.427,4.1,18.1,2.459a14.013,14.013,0,0,0,8.051-7.644c.229-.459.713-1.389,1.363-2.637,2.841-5.44,8.778-16.778,9.962-20.753a62.982,62.982,0,0,0,1.835-11.313c.127-1.274.242-2.433.369-3.427.178-1.274.535-3.644.93-6.268.726-4.752,1.631-10.676,1.784-12.74.242-3.057-1.4-16.561-1.478-17.16-1.592-8.778-22.1-26.409-42.13-26.167-18.026.229-35.059,10.09-37.849,11.771,5.325,19.721,4.561,20.383,4.23,20.7l-.293.255-.459-.127A17.48,17.48,0,0,0,160.515,190.911Z" transform="translate(-105.889 -116.634)" fill="#263238"/>
          <path id="Tracé_35" data-name="Tracé 35" d="M166.116,205.7s-.675,8.408,1.682,8.408a4.765,4.765,0,0,0,3.694-2.357l1.35-4.714,10.434-6.37-1.006-20.523,18.88,6.7,10.1,1.35s-17.835,4.37-15.147,5.72,10.434,3.694,19.517,3.363,18.855-5.1,18.855-5.1-2.357,5.72,0,5.1,12.115-5.389,16.485-10.765,0-13.81-4.37-20.536-15.861-24.906-27.607-28.613-31.3-1.682-37.7,2.026-26.626,29.9-27.275,35,4.038,22.205,4.038,22.205S167.122,202.666,166.116,205.7Z" transform="translate(-105.554 -122.796)" fill="#000032"/>
          <path id="Tracé_36" data-name="Tracé 36" d="M167.944,214.877a1.631,1.631,0,0,1-1.21-.548c-1.605-1.745-1.159-7.86-1.108-8.548v-.153c.6-1.771-4.217-5.949-7.822-8.357l-.2-.14-.064-.229c-.191-.7-4.726-17.339-4.051-22.46.713-5.338,21.326-31.849,27.581-35.467,6.879-3.987,26.638-5.707,38.219-2.077s22.7,20.791,27.454,28.129l.484.739c4.472,6.879,9.007,15.517,4.331,21.275-4.5,5.542-14.421,10.306-16.8,10.981a1.35,1.35,0,0,1-1.465-.318c-.713-.8-.319-2.663.166-4.14-3.045,1.274-10.523,4.217-17.708,4.484-8.841.331-16.714-1.873-19.823-3.427a.968.968,0,0,1-.624-1.006c.14-1.274,4.4-2.93,12.74-5.1l-6.943-.943-17.963-6.37.981,19.95-10.574,6.484-1.338,4.612A5.389,5.389,0,0,1,167.944,214.877Zm-1.057-8.918c-.178,2.408-.127,6.523.79,7.516a.331.331,0,0,0,.268.14,4.051,4.051,0,0,0,3.108-1.975l1.389-4.866,10.332-6.37L181.728,179.3l19.683,7.032,13.377,1.784-3.274.8c-6.191,1.529-13.16,3.644-14.7,4.688a46.524,46.524,0,0,0,18.893,3.147c8.854-.331,18.511-4.943,18.6-4.981l1.5-.726-.637,1.541c-.752,1.835-1.2,3.822-.943,4.23h.178c2.548-.726,12.052-5.478,16.179-10.561s-.178-13.262-4.421-19.785l-.484-.739c-4.675-7.211-15.619-24.1-26.753-27.607-11.886-3.733-31.3-1.452-37.187,1.962-6.484,3.758-26.358,30.091-26.957,34.537s3.414,19.7,3.962,21.734c1.924,1.3,9.058,6.383,8.153,9.593Z" transform="translate(-105.7 -122.93)" fill="#263238"/>
          <path id="Tracé_37" data-name="Tracé 37" d="M209.036,234.043h-.662a14.931,14.931,0,0,1-7.5-2.344l.752-1.032a14.013,14.013,0,0,0,6.828,2.1,6.956,6.956,0,0,0,5.325-1.605,1.873,1.873,0,0,0,.662-.981c0-.7-1.274-12.918-2.217-20.957v-.089l2.548-12.217,1.274.255-2.459,12.013c.28,2.471,2.217,20.014,2.217,20.995a2.93,2.93,0,0,1-1.057,1.911,8.1,8.1,0,0,1-5.707,1.949Z" transform="translate(-92.7 -105.941)" fill="#263238"/>
          <path id="Tracé_38" data-name="Tracé 38" d="M214.1,197.292l-.459-1.185c.331-.127,8.026-3.07,11.72-.42l-.739,1.032C221.437,194.477,214.1,197.267,214.1,197.292Z" transform="translate(-89.202 -106.581)" fill="#263238"/>
          <path id="Tracé_39" data-name="Tracé 39" d="M205.139,198.38c-.1,0-9.491-4.281-18.014-.255l-.535-1.147c9.058-4.293,18.676,0,19.109.242Z" transform="translate(-96.612 -106.446)" fill="#263238"/>
          <path id="Tracé_40" data-name="Tracé 40" d="M206.8,233.252a22.321,22.321,0,0,1-6.37-.726,42.487,42.487,0,0,1-8.064-4.026l.688-1.07a42.818,42.818,0,0,0,7.771,3.822c3.516,1.172,11.3.459,11.962.255l.408,1.2A34,34,0,0,1,206.8,233.252Z" transform="translate(-95.029 -97.583)" fill="#263238"/>
          <ellipse id="Ellipse_1" data-name="Ellipse 1" cx="2.471" cy="3.58" rx="2.471" ry="3.58" transform="translate(97.176 98.036)" fill="#000032"/>
          <path id="Tracé_41" data-name="Tracé 41" d="M219.113,205.773c0,1.975-1.108,3.58-2.471,3.58s-2.471-1.605-2.471-3.58,1.108-3.593,2.471-3.593S219.113,203.76,219.113,205.773Z" transform="translate(-89.056 -104.5)" fill="#000032"/>
          <path id="Tracé_42" data-name="Tracé 42" d="M334.9,336.323s-43.238-6.828-47.786-8.446-15.287-8.128-15.287-8.128-23.4-26.333-25.352-27.632-17.555,5.2-19.835,6.5-10.4,7.809-10.727,9.427,1.949,6.179,1.949,6.179,22.1,19.835,24.715,20.8,26.957,7.8,26.957,7.8S328.7,373.7,331.631,375.943s16.256,6.828,21.122,6.828,10.408-3.9,10.408-3.9l-6.179-37.059Z" transform="translate(-88.587 -79.908)" fill="#ffead9"/>
          <path id="Tracé_43" data-name="Tracé 43" d="M352.911,383.577c-5.1,0-18.434-4.561-21.517-6.956-2.268-1.771-41.467-22.383-61.927-33.123-1.669-.471-24.409-6.841-26.97-7.8s-22.638-18.842-24.906-20.88l-.14-.191c-.395-.79-2.357-4.828-2.013-6.574.42-2.064,9.211-8.816,11.032-9.86,1.274-.752,18.026-8.141,20.5-6.484,1.949,1.274,22.727,24.651,25.415,27.67,1.006.6,10.854,6.51,15.084,8.026,4.446,1.58,47.238,8.344,47.671,8.421h0l22.511,5.618,6.306,37.862-.318.242C363.447,379.717,357.931,383.577,352.911,383.577ZM218.534,313.955c8.854,7.937,22.587,19.925,24.409,20.6,2.548.956,26.753,7.72,26.931,7.784h.115c2.421,1.274,59.252,30.932,62.195,33.225s16.09,6.688,20.727,6.688c3.962,0,8.472-2.752,9.708-3.567l-6.039-36.244-21.657-5.414c-2.14-.331-43.315-6.854-47.875-8.472s-14.944-7.911-15.389-8.179l-.14-.127c-9.389-10.561-23.861-26.6-25.237-27.517s-16.1,4.777-19.109,6.523c-2.471,1.414-10.192,7.758-10.421,8.994C216.483,309.305,217.694,312.261,218.534,313.955Z" transform="translate(-88.72 -80.039)" fill="#263238"/>
          <path id="Tracé_44" data-name="Tracé 44" d="M231.2,300.08l-35.747,44.5,6.943,17.491,33.7,6.688,22.638-50.678-16.2-16.2Z" transform="translate(-94.185 -77.68)" fill="#07b5e7"/>
          <path id="Tracé_45" data-name="Tracé 45" d="M236.618,369.62l-34.537-6.854-7.211-18.154,36.219-45.073,11.886,1.885,16.663,16.663Zm-33.607-7.962,32.855,6.523,22.256-49.812-15.746-15.7-10.752-1.707L196.31,344.829Z" transform="translate(-94.344 -77.828)" fill="#263238"/>
          <path id="Tracé_46" data-name="Tracé 46" d="M315.879,364.114c6.459,3.936,12.931,7.313,12.931,7.313l7.312,86.323.535,43.467H515.279c-2.688-7.975-15.377-45.353-18.88-51.621-3.936-7.032-13.224-47.8-13.224-47.8L488,337.679s7.8-68.118,7.8-69.252-1.2-11.376-1.2-11.376-63.978-37.187-71.851-38.321-12.357,2.255-15.733,2.548-28.689,1.975-35.429,4.79c-4.841,2.013-28.791,12.141-41.939,17.7a15.4,15.4,0,0,0-9.376,13.071L313.662,345s-5.618,1.4-5.618,2.815a60.887,60.887,0,0,1-1.414,7.032,26.917,26.917,0,0,0,9.249,9.262Z" transform="translate(-63.727 -100.03)" fill="#07b5e7"/>
          <path id="Tracé_47" data-name="Tracé 47" d="M516.324,501.982H336.186l-.548-44.1-7.287-85.928c-1.363-.713-7.045-3.745-12.65-7.16a27.352,27.352,0,0,1-9.517-9.529l-.115-.217.064-.242a57.528,57.528,0,0,0,1.389-6.867c0-1.554,3.35-2.714,5.656-3.312l6.574-87.725a16,16,0,0,1,9.759-13.606c16.676-7.045,37.48-15.848,41.951-17.708,6.2-2.548,27.224-4.179,34.129-4.7l1.491-.115a16.091,16.091,0,0,0,3.542-.968,24.652,24.652,0,0,1,12.332-1.567c7.9,1.134,69.456,36.881,72.081,38.4l.267.166v.319c0,.42,1.21,10.294,1.21,11.466s-7.007,62.335-7.809,69.316l-4.765,63.991c.5,2.178,9.364,40.83,13.122,47.531,3.452,6.166,15.377,41.162,18.944,51.735Zm-178.876-1.274h177.08c-3.1-9.134-15.2-44.665-18.562-50.678-3.936-7.02-12.905-46.3-13.275-47.964v-.191l4.79-64.131c2.675-23.428,7.758-68,7.8-69.2,0-.854-.8-7.937-1.159-10.981-4.586-2.663-63.94-37.021-71.341-38.079A23.084,23.084,0,0,0,411.044,221a16.294,16.294,0,0,1-3.822,1.019l-1.491.115c-18.4,1.4-29.747,2.956-33.747,4.624-4.459,1.86-25.262,10.65-41.939,17.7a14.765,14.765,0,0,0-8.994,12.536l-6.637,88.629-.446.115c-2.548.624-4.994,1.682-5.1,2.2a49.935,49.935,0,0,1-1.363,6.918,26.931,26.931,0,0,0,8.918,8.828h0c6.37,3.886,12.829,7.262,12.893,7.287l.306.166v.357l7.3,86.323Z" transform="translate(-63.88 -100.158)" fill="#263238"/>
          <path id="Tracé_48" data-name="Tracé 48" d="M441.44,409.367l-.14-1.274c6.37-.7,7.351-.8,7.529-.8v1.274C448.562,408.577,446.09,408.844,441.44,409.367Z" transform="translate(-26.833 -48.309)" fill="#263238"/>
          <path id="Tracé_49" data-name="Tracé 49" d="M393.62,416.053l-.14-1.274s36.575-4.23,56.232-6.459l.14,1.274C430.208,411.823,393.62,416.053,393.62,416.053Z" transform="translate(-39.933 -48.027)" fill="#263238"/>
          <path id="Tracé_50" data-name="Tracé 50" d="M395.475,423.5l-.9-4.064,1.248-.268.65,2.917L460.4,414.01l.153,1.261Z" transform="translate(-39.635 -46.468)" fill="#263238"/>
          <ellipse id="Ellipse_2" data-name="Ellipse 2" cx="10.88" cy="11.313" rx="10.88" ry="11.313" transform="translate(284.167 205.1)" fill="#fff"/>
          <path id="Tracé_51" data-name="Tracé 51" d="M350.239,309.9a11.962,11.962,0,1,1,11.466-11.95A11.746,11.746,0,0,1,350.239,309.9Zm0-22.625a10.689,10.689,0,1,0,10.192,10.676A10.485,10.485,0,0,0,350.239,287.277Z" transform="translate(-55.193 -81.541)" fill="#263238"/>
          <path id="Tracé_52" data-name="Tracé 52" d="M356.506,297.024a7.364,7.364,0,1,1-7.363-7.644,7.516,7.516,0,0,1,7.363,7.644Z" transform="translate(-54.096 -80.611)" fill="#fff"/>
          <path id="Tracé_53" data-name="Tracé 53" d="M349.407,305.456a8.293,8.293,0,1,1,8-8.293A8.166,8.166,0,0,1,349.407,305.456Zm0-15.287a7.032,7.032,0,1,0,6.727,7.02,6.879,6.879,0,0,0-6.727-7.045Z" transform="translate(-54.36 -80.75)" fill="#263238"/>
          <path id="Tracé_54" data-name="Tracé 54" d="M346.362,318.82h-.1a1.274,1.274,0,0,1-1.21-1.274c2.013-45.493,19.326-96.451,19.5-96.961a1.274,1.274,0,0,1,2.408.828c-.166.51-17.364,51.124-19.364,96.247A1.274,1.274,0,0,1,346.362,318.82Z" transform="translate(-53.201 -99.682)" fill="#263238"/>
          <rect id="Rectangle_5" data-name="Rectangle 5" width="27.861" height="1.274" transform="translate(306.032 198.117) rotate(-46.98)" fill="#263238"/>
          <path id="Tracé_55" data-name="Tracé 55" d="M413.107,243.91l-1.147-.561a19.106,19.106,0,0,0,2.1-5.949l1.274.1a19.848,19.848,0,0,1-2.229,6.408Z" transform="translate(-34.871 -94.851)" fill="#263238"/>
          <path id="Tracé_56" data-name="Tracé 56" d="M371.867,305.626l-.917-.879c10.4-10.905,28.384-29.8,31.964-33.76A193.976,193.976,0,0,0,420.29,246.26l1.108.65a196.392,196.392,0,0,1-17.542,24.931C400.315,275.816,382.276,294.709,371.867,305.626Z" transform="translate(-46.106 -92.424)" fill="#263238"/>
          <rect id="Rectangle_6" data-name="Rectangle 6" width="7.567" height="1.274" transform="translate(316.612 220.877) rotate(-46.27)" fill="#263238"/>
          <path id="Tracé_57" data-name="Tracé 57" d="M413.7,228.763s-4.293-10.192-4.688-14.345-.382-19.033-.382-19.033C383.9,193.423,356,216.775,356,216.775l7.07,16.281.318,2.115a77.829,77.829,0,0,0,3.045,24.957c4.612,15.479,11.682,22.817,11.682,22.817s22.052-20.727,33.123-36.129C416.921,239.005,413.7,228.763,413.7,228.763Z" transform="translate(-50.201 -106.394)" fill="#ffead9"/>
          <path id="Tracé_58" data-name="Tracé 58" d="M378.285,283.973l-.433-.446c-.293-.306-7.223-7.644-11.835-23.084a79.23,79.23,0,0,1-3.07-25.173l-.306-1.9-7.211-16.651.357-.306c.28-.229,28.307-23.492,53.047-21.53h.586v.586c0,.153,0,14.931.382,18.969s4.6,14.014,4.637,14.154h0c.127.42,3.249,10.638-2.548,18.625-10.994,15.287-33,36-33.212,36.206ZM356.972,217.09l6.918,16,.331,2.115a78.134,78.134,0,0,0,3.019,24.829c3.822,12.982,9.529,20.23,11.109,22.078,3.274-3.108,22.549-21.657,32.575-35.582,5.236-7.274,2.548-16.905,2.331-17.466s-4.331-10.408-4.714-14.51c-.357-3.682-.395-15.644-.395-18.5-22.485-1.35-47.837,18.358-51.175,21.033Z" transform="translate(-50.357 -106.531)" fill="#263238"/>
          <path id="Tracé_59" data-name="Tracé 59" d="M391.823,220.67s-12.434,13.084-16.23,17.517-11.083,12.357-11.083,12.357a90.441,90.441,0,0,1-2.548-15.835,56.616,56.616,0,0,1,1.274-12.676Z" transform="translate(-48.569 -99.435)" fill="#000032"/>
          <path id="Tracé_60" data-name="Tracé 60" d="M324.007,358.865c-.752-11.147-2.395-32.906-3.223-35.416-1.274-3.669,0-54,3.5-72.029l1.274.229c-3.5,18.345-4.535,68.437-3.554,71.342,1.108,3.3,3.21,34.4,3.3,35.747Z" transform="translate(-59.981 -91.011)" fill="#263238"/>
          <path id="Tracé_61" data-name="Tracé 61" d="M355.33,135.289,341.316,155.57c-3.019,4.37-7.746,2.9-6.9,10.192s6.752,20.638,14.23,22.842a27.874,27.874,0,0,0,14.383.153s41.7,17.364,44.461,21.173,5.44,13.224,5.44,13.224,10.727-.713,14.2-1.975a38.42,38.42,0,0,0,8.306-5.2l-3.554-1.554s6.574-3.045,7.363-3.656a42.051,42.051,0,0,1,3.822-2.166l-5.822-7.185-1.274-7.644s2.765-12.816,4.344-22.256-.93-21.657-7.644-27.517-33.925-18.332-48.143-18S357.19,133.849,355.33,135.289Z" transform="translate(-56.143 -125.372)" fill="#000032"/>
          <path id="Tracé_62" data-name="Tracé 62" d="M412.619,224.026l-.153-.5c0-.089-2.675-9.364-5.338-13.033-1.936-2.675-27.288-13.912-43.977-20.88a28.282,28.282,0,0,1-14.523-.2c-8.153-2.408-13.886-16.5-14.676-23.377-.586-5.1,1.452-6.37,3.618-7.746a10.051,10.051,0,0,0,3.376-2.956c2.981-4.357,14.014-20.281,14.014-20.281l.14-.14c2.548-1.975,15.886-9.071,29.556-9.4,14.243-.306,41.722,12.166,48.64,18.218,7.2,6.293,9.4,18.906,7.873,28.1-1.491,8.918-4.051,20.842-4.331,22.167l1.274,7.351,6.217,7.644-.7.357a42.233,42.233,0,0,0-3.847,2.14c-.637.484-4.217,2.2-6.217,3.134l3.223,1.4-.815.662A37.659,37.659,0,0,1,427.5,222c-3.542,1.274-13.95,1.987-14.4,2.013Zm-49.391-35.747.2.076c4.293,1.8,41.939,17.555,44.729,21.39,2.459,3.4,4.79,10.918,5.389,12.943,2.166-.166,10.6-.854,13.529-1.911a33.24,33.24,0,0,0,7.287-4.446l-3.822-1.694,1.274-.6c2.548-1.159,6.7-3.159,7.236-3.58a31.13,31.13,0,0,1,3.261-1.873l-5.44-6.7-1.274-7.911v-.127c0-.127,2.79-12.905,4.344-22.218,1.44-8.637-.675-21.02-7.44-26.944s-33.823-18.269-47.773-17.835-26.944,7.771-28.74,9.083c-.866,1.274-11.071,16.014-13.924,20.192a11.389,11.389,0,0,1-3.758,3.312c-2.051,1.274-3.529,2.217-3.032,6.523.866,7.516,6.79,20.243,13.772,22.307a27.747,27.747,0,0,0,14.014.14Z" transform="translate(-56.269 -125.506)" fill="#263238"/>
          <path id="Tracé_63" data-name="Tracé 63" d="M403.2,234.348s-18.523,16.2-27.759,15.733-19.937-20.6-21.326-23.912-6.5-17.835-6.765-21.555-2.217-25.556-1.771-28.677S356.39,156,356.39,156s4.8,11.058,9.86,16.561,15.873,8.039,15.873,8.039l-2.14-5.491s9.173,6.523,13.886,7.032,10.446,1.376,10.446,1.376,4.574,7.1,5.733,8.268,4.561-.293,4.561-.293,6.879-7.172,10.841-5.172.624,14.307-2.242,19.542-9.045,9.313-9.045,9.313l-2.764.752a126.915,126.915,0,0,1-4.433,12.447" transform="translate(-53.076 -117.152)" fill="#ffead9"/>
          <path id="Tracé_64" data-name="Tracé 64" d="M375.958,251.022h-.395c-9.708-.484-20.574-21.2-21.874-24.307s-6.535-17.759-6.816-21.759c0-.688-.153-1.987-.293-3.694-.65-7.86-1.847-22.5-1.465-25.11.446-3.159,9.835-18.447,10.892-20.179l.65-1.032.484,1.121c0,.1,4.815,11.032,9.746,16.434,3.9,4.28,11.466,6.714,14.357,7.542l-2.459-6.37,1.733,1.274c.089.064,9.1,6.433,13.593,6.918s10.408,1.376,10.459,1.389h.293l.153.242c1.274,1.962,4.739,7.236,5.656,8.166.561.573,2.548.115,3.733-.395.892-.892,7.389-7.274,11.466-5.185a3.682,3.682,0,0,1,1.8,2.357c1.35,4.357-1.274,13.606-3.822,18.052-2.9,5.3-8.981,9.364-9.236,9.529l-.191.089-2.421.662a113.366,113.366,0,0,1-4.382,12.217l-1.121-.6a122.121,122.121,0,0,0,4.382-12.332l.1-.331,3.007-.815c.726-.51,6.166-4.331,8.752-9.032,2.28-4.153,4.9-13.084,3.669-17.071a2.548,2.548,0,0,0-1.147-1.592c-2.9-1.465-8.281,3.134-10.1,5.1l-.2.14c-.637.28-3.822,1.592-5.261.166-1.083-1.1-4.841-6.841-5.669-8.128-1.21-.178-6.077-.892-10.128-1.274-3.618-.382-9.567-4.051-12.485-5.975l1.835,4.714-1.172-.268c-.446-.115-11.071-2.548-16.2-8.23-4.179-4.6-8.115-12.74-9.478-15.7-3.2,5.249-9.771,16.383-10.09,18.663-.357,2.471.879,17.581,1.465,24.829.14,1.707.255,3.019.306,3.707.255,3.542,5.185,17.708,6.714,21.364,1.2,2.854,11.848,23.071,20.766,23.517s27.135-15.415,27.326-15.58l.828.968C402.992,235.772,385.449,251.022,375.958,251.022Z" transform="translate(-53.203 -117.442)" fill="#263238"/>
          <path id="Tracé_65" data-name="Tracé 65" d="M364.44,208.063a3.172,3.172,0,0,1-2.854-1.274c-1.554-2.382-.854-6.37-.815-6.6l1.274.229s-.65,3.72.637,5.682c.93,1.44,4.637.229,5.86-.306l.319-.14.28.178a2.65,2.65,0,0,0,2.548,0,1.2,1.2,0,0,0,.611-1.694l1.147-.561a2.472,2.472,0,0,1-1.185,3.389,4,4,0,0,1-3.491,0A12.957,12.957,0,0,1,364.44,208.063Z" transform="translate(-48.946 -105.045)" fill="#263238"/>
          <path id="Tracé_66" data-name="Tracé 66" d="M369.975,214.523a11.349,11.349,0,0,1-1.147,0c-6.077-.662-7.962-2.994-8.039-3.1l.994-.79s1.72,2.026,7.185,2.612,12.574-4.179,12.638-4.23l.726,1.045C382.065,210.268,375.759,214.523,369.975,214.523Z" transform="translate(-48.889 -102.626)" fill="#263238"/>
          <path id="Tracé_67" data-name="Tracé 67" d="M363.084,181.886a13.619,13.619,0,0,0-7.223-1.86c-3.987.2-5.287.981-5.3.994l-.7-1.07c.153-.1,1.592-.981,5.937-1.2a14.409,14.409,0,0,1,7.988,2.077Z" transform="translate(-51.883 -110.921)" fill="#263238"/>
          <path id="Tracé_68" data-name="Tracé 68" d="M391.466,184.736a17.249,17.249,0,0,0-7.644-2.446,84.812,84.812,0,0,0-12.956.79l-.166-1.274a82.98,82.98,0,0,1,13.211-.8,18.484,18.484,0,0,1,8.306,2.663Z" transform="translate(-46.174 -110.306)" fill="#263238"/>
          <path id="Tracé_69" data-name="Tracé 69" d="M399.058,198.323l-.688-1.083c1.032-.65,2.764-2.038,3.045-3.032s-.79-2.357-1.274-2.8l-.344-.331.242-.433c.14-.255,3.605-6.37,6.548-7.784a2.765,2.765,0,0,1,2.37-.089c1.758.79,2.548,3.389,2.548,3.5l-1.274.357a4.79,4.79,0,0,0-1.873-2.7,1.516,1.516,0,0,0-1.274.076c-1.987.955-4.637,4.968-5.758,6.867a4.344,4.344,0,0,1,1.274,3.694C402.128,196.336,399.364,198.119,399.058,198.323Z" transform="translate(-38.594 -109.88)" fill="#263238"/>
          <path id="Tracé_70" data-name="Tracé 70" d="M400.54,190.167l-.65-1.1c.2-.127,5.1-2.981,7.707-.841l-.815.994C405.126,187.912,401.725,189.428,400.54,190.167Z" transform="translate(-38.177 -108.539)" fill="#263238"/>
          <path id="Tracé_71" data-name="Tracé 71" d="M358.083,189.719c.076,2.153-.994,3.975-2.4,4.064s-2.548-1.592-2.637-3.745.994-3.987,2.4-4.077S358.083,187.553,358.083,189.719Z" transform="translate(-51.01 -108.945)" fill="#000032"/>
          <path id="Tracé_72" data-name="Tracé 72" d="M378.137,191.841c-.076,2.153-1.274,3.911-2.65,3.911s-2.51-1.745-2.4-3.911,1.274-3.911,2.65-3.911S378.2,189.688,378.137,191.841Z" transform="translate(-45.521 -108.404)" fill="#000032"/>
          <path id="Tracé_73" data-name="Tracé 73" d="M362.819,201.22l-1.274-.038.357-10.625L360.64,183.5l1.261-.229,1.274,7.2Z" transform="translate(-48.93 -109.681)" fill="#263238"/>
          <path id="Tracé_74" data-name="Tracé 74" d="M398.871,285.135a2.666,2.666,0,0,1-.446,0,1.924,1.924,0,0,1-1.414-2.306c0-.089,2.115-8.918,4.51-20.065a1.915,1.915,0,0,1,3.745.8c-2.408,11.134-4.523,20.052-4.535,20.141A1.924,1.924,0,0,1,398.871,285.135Z" transform="translate(-38.98 -88.316)" fill="#263238"/>
          <path id="Tracé_75" data-name="Tracé 75" d="M402.56,276.237h-.267a1.274,1.274,0,0,1-.981-1.516c5.351-24.766,7.86-40.626,7.07-44.588-1.542-8-7.2-9.389-7.44-9.44a1.278,1.278,0,0,1,.548-2.5c.306.076,7.516,1.745,9.4,11.466.866,4.484-1.516,19.848-7.083,45.684A1.274,1.274,0,0,1,402.56,276.237Z" transform="translate(-38.16 -100.12)" fill="#263238"/>
          <path id="Tracé_76" data-name="Tracé 76" d="M383.434,345.492h-.293a15.708,15.708,0,0,1-7.529-3.554,1.932,1.932,0,1,1,2.548-2.9,11.95,11.95,0,0,0,5.605,2.688,1.916,1.916,0,1,1-.28,3.822Z" transform="translate(-45.009 -67.14)" fill="#fff"/>
          <path id="Tracé_77" data-name="Tracé 77" d="M383.573,346.284h-.395a16.56,16.56,0,0,1-7.848-3.72,2.551,2.551,0,1,1,3.338-3.86,11.109,11.109,0,0,0,5.287,2.548,2.555,2.555,0,0,1-.382,5.1ZM377,339.341a1.274,1.274,0,0,0-.828,2.242,15.147,15.147,0,0,0,7.2,3.414,1.277,1.277,0,0,0,.4-2.522,12.549,12.549,0,0,1-5.937-2.828,1.275,1.275,0,0,0-.828-.306Z" transform="translate(-45.148 -67.269)" fill="#263238"/>
          <path id="Tracé_78" data-name="Tracé 78" d="M377.655,354.3a1.274,1.274,0,0,1-.828-.306c-2.9-2.548-5.988-7.223-4.293-15.5,2.548-12.74,11.529-44.461,11.618-44.78a1.278,1.278,0,1,1,2.459.7c-.089.319-9.007,32.015-11.58,44.588-1.172,5.682,0,10.077,3.452,13.058a1.274,1.274,0,0,1-.828,2.242Z" transform="translate(-45.804 -79.68)" fill="#fff"/>
          <path id="Tracé_79" data-name="Tracé 79" d="M377.8,355.068a1.936,1.936,0,0,1-1.274-.459c-3.019-2.548-6.255-7.529-4.5-16.128,2.484-12.128,10.689-41.467,11.618-44.767a1.913,1.913,0,1,1,3.694.994c-.089.306-9.007,32.014-11.568,44.588-1.121,5.44,0,9.631,3.249,12.447a1.886,1.886,0,0,1,.65,1.274,1.848,1.848,0,0,1-.459,1.389,1.886,1.886,0,0,1-1.414.663Zm7.733-61.507a.65.65,0,0,0-.624.459c-.93,3.338-9.134,32.639-11.606,44.729-1.643,7.988,1.274,12.51,4.077,14.893a.573.573,0,0,0,.9-.064.7.7,0,0,0,.217-.51.65.65,0,0,0-.217-.433c-3.656-3.147-4.879-7.746-3.669-13.67,2.548-12.574,11.466-44.334,11.593-44.588a.65.65,0,0,0-.446-.79Z" transform="translate(-45.947 -79.812)" fill="#263238"/>
          <path id="Tracé_80" data-name="Tracé 80" d="M385.169,342.014a22.831,22.831,0,0,1-8.421-1.86,1.915,1.915,0,1,1,1.427-3.554,18.549,18.549,0,0,0,7.376,1.58,1.912,1.912,0,0,1,.14,3.822Z" transform="translate(-44.846 -67.713)" fill="#fff"/>
          <path id="Tracé_81" data-name="Tracé 81" d="M385.333,342.8a23.3,23.3,0,0,1-8.65-1.911,2.548,2.548,0,1,1,1.885-4.726,18.141,18.141,0,0,0,7.134,1.529,2.549,2.549,0,0,1,.166,5.1Zm-7.707-5.5a1.274,1.274,0,0,0-.471,2.459,21.109,21.109,0,0,0,8.676,1.809,1.274,1.274,0,0,0,1.274-1.274,1.2,1.2,0,0,0-.408-.892,1.274,1.274,0,0,0-.892-.344,19.365,19.365,0,0,1-7.644-1.618A1.275,1.275,0,0,0,377.625,337.294Z" transform="translate(-45.01 -67.86)" fill="#263238"/>
          <path id="Tracé_82" data-name="Tracé 82" d="M383.724,352.543a1.274,1.274,0,1,1,0-2.548c4.484-.153,7.644-2.9,9.542-8.408,3.707-10.574,13.224-44.588,13.326-44.881a1.274,1.274,0,1,1,2.446.675c-.089.344-9.631,34.4-13.364,45.047-2.293,6.523-6.281,9.924-11.86,10.115Z" transform="translate(-42.955 -78.891)" fill="#fff"/>
          <path id="Tracé_83" data-name="Tracé 83" d="M383.858,353.293a1.911,1.911,0,0,1-1.389-3.21,1.937,1.937,0,0,1,1.274-.612c4.191-.14,7.134-2.752,8.918-7.975,3.656-10.421,12.918-43.455,13.3-44.856a1.911,1.911,0,0,1,.917-1.147,1.847,1.847,0,0,1,1.44-.178,1.9,1.9,0,0,1,1.274,2.357c-.395,1.4-9.682,34.562-13.376,45.085-2.382,6.79-6.574,10.344-12.434,10.536Zm24.052-56.767a.725.725,0,0,0-.319.076.637.637,0,0,0-.293.382c-.395,1.4-9.669,34.473-13.338,44.932-2.026,5.784-5.338,8.676-10.115,8.828a.726.726,0,0,0-.446.2.637.637,0,0,0,.459,1.07h0c5.3-.178,9.1-3.44,11.287-9.682,3.694-10.485,12.969-43.608,13.364-45.009a.65.65,0,0,0-.446-.79Z" transform="translate(-43.089 -79.005)" fill="#263238"/>
          <path id="Tracé_84" data-name="Tracé 84" d="M406.651,310.175a2,2,0,0,1-.471,0,1.911,1.911,0,0,1-1.376-2.331c2.548-9.784,4.5-21.543,3.44-23.415-.879-1.274-4.5-3.134-8.459-3.682-2.726-.382-5.007,0-6.1.892-2.675,2.293-7.3,13.517-9.593,20.065a1.912,1.912,0,0,1-3.605-1.274c.637-1.834,6.37-18,10.714-21.657,1.962-1.682,5.21-2.319,9.109-1.771s9.2,2.459,11.134,5.351c2.548,3.822-1.274,19.785-2.93,26.486A1.924,1.924,0,0,1,406.651,310.175Z" transform="translate(-43.524 -84.055)" fill="#263238"/>
          <path id="Tracé_85" data-name="Tracé 85" d="M253.574,304.379s-15.44-3.822-18.523-4.892-12.09-7.72-13.631-5.1,0,9.007,3.338,11.071,13.9,5.911,13.9,5.911,8.485,14.918,11.313,16.714,11.58,1.274,11.58,1.274" transform="translate(-87.235 -79.405)" fill="#ffead9"/>
          <path id="Tracé_86" data-name="Tracé 86" d="M258.946,330.179c-2.892,0-7.236-.229-9.172-1.465-2.777-1.758-10.115-14.472-11.466-16.727-1.567-.586-10.65-3.975-13.784-5.9-3.694-2.28-5.274-9.058-3.554-11.924,1.376-2.306,5.886.255,10.192,2.726a31.282,31.282,0,0,0,4.128,2.14c3.032,1.006,18.319,4.828,18.472,4.866l-.306,1.274c-.637-.153-15.491-3.822-18.574-4.892a31.971,31.971,0,0,1-4.357-2.242c-2.714-1.542-7.784-4.421-8.523-3.185-1.376,2.293.153,8.357,3.134,10.192,3.249,2,13.67,5.822,13.771,5.86l.217.076.115.2c2.344,4.115,8.918,15.1,11.109,16.5s8.829,1.274,11.2,1.185l.076,1.274C261.609,330.115,260.488,330.179,258.946,330.179Z" transform="translate(-87.384 -79.548)" fill="#263238"/>
          <path id="Tracé_87" data-name="Tracé 87" d="M133.388,334.851l21.084-3.452L142.535,311.27S131.26,326.354,133.388,334.851Z" transform="translate(-111.261 -74.614)" fill="#000032"/>
          <path id="Tracé_88" data-name="Tracé 88" d="M195.038,308.913l21.3,42.958s28.919,9.529,42.869,14.294S303.8,382.828,310.573,383.5a122.287,122.287,0,0,0,16.676,0s13.262-12.243,14.625-12.918a46.32,46.32,0,0,1,10.548-2.726c3.4-.344,15.287-4.077,15.287-4.077s6.472-5.784,7.491-1.363-3.4,8.166-5.453,9.529-7.478,3.057-9.185,3.733c0,0,14.969,1.363,15.988,1.363s14.294-3.057,14.294-3.057,13.631-7.211,15.287-5.58.471,3.516-1.172,5.1a29.367,29.367,0,0,0-3.274,4.217,57.181,57.181,0,0,1-6.561,11.466c-4.446,6.077-15.912,16.141-17.084,16.854s-21.071,4.446-42.372,5.1-55.481,1.643-67.889,1.172-47.761-5.618-59.226-7.733-21.071-2.331-22.931-6.37-9.593-13.58-18.727-26.919a380.812,380.812,0,0,1-22.931-40.5,61.73,61.73,0,0,0-4.9-8.421s9.122-15.924,22.7-20.383S195.038,308.913,195.038,308.913Z" transform="translate(-109.633 -77.442)" fill="#eeae8d"/>
          <path id="Tracé_89" data-name="Tracé 89" d="M276.929,413.283c-3.593,0-6.676,0-9.007-.127-12.5-.471-48.079-5.669-59.315-7.733-2.8-.522-5.44-.917-8-1.274-8.039-1.2-13.848-2.077-15.4-5.389-1.045-2.229-4.013-6.293-8.1-11.937-2.981-4.1-6.676-9.2-10.574-14.893-9.032-13.2-22.039-37.964-23.02-40.639a60.916,60.916,0,0,0-4.841-8.281l-.217-.331.191-.344c.382-.662,9.415-16.192,23.059-20.664s33.008,6.37,33.824,6.8l.166.1.089.178,21.186,42.716c2.892.955,29.518,9.733,42.614,14.2,4.14,1.414,9.771,3.465,15.721,5.631C289.019,376.313,306.09,382.53,310.8,383a124.433,124.433,0,0,0,16.345,0c1.962-1.822,13.249-12.2,14.6-12.88a47.757,47.757,0,0,1,10.778-2.79c3.108-.306,13.746-3.605,15.045-4.013.777-.675,4.433-3.707,6.765-2.981a2.548,2.548,0,0,1,1.656,2.051c1.274,5.274-4.535,9.415-5.707,10.192a37.458,37.458,0,0,1-6.625,2.841c4.968.446,12.408,1.1,13.071,1.1s8.994-1.86,14.013-3.032c4.268-2.242,14.179-7.185,15.95-5.414s1.274,3.656-1.172,6.051a28.775,28.775,0,0,0-3.185,4.1,55.154,55.154,0,0,1-6.574,11.466c-4.522,6.179-16.065,16.294-17.275,17.033s-21.109,4.523-42.678,5.236C325.53,412.328,294.943,413.283,276.929,413.283ZM139.953,322.6a56.651,56.651,0,0,1,4.752,8.23c.968,2.65,13.886,27.224,22.931,40.359,3.822,5.682,7.644,10.765,10.548,14.854,4.14,5.695,7.121,9.81,8.23,12.154,1.274,2.688,7.07,3.567,14.434,4.663,2.548.382,5.21.777,8.039,1.274,11.211,2.064,46.691,7.249,59.137,7.72,14.013.535,55.468-.764,67.838-1.172,21.657-.713,40.945-4.472,42.041-5.1s12.574-10.765,16.893-16.676a55.937,55.937,0,0,0,6.472-11.325,29.176,29.176,0,0,1,3.427-4.433c2.395-2.4,1.885-3.529,1.172-4.255s-7.542,2-14.536,5.695h-.153c-2.229.522-13.389,3.083-14.434,3.083s-15.428-1.274-16.039-1.363l-2.65-.242,2.471-.981c.446-.178,1.147-.433,1.987-.726a42.88,42.88,0,0,0,7.083-2.956c1.045-.7,6.2-4.4,5.172-8.854-.217-.93-.662-1.07-.8-1.108-1.338-.42-4.166,1.491-5.631,2.8l-.242.127c-.484.153-12,3.822-15.428,4.115a46.24,46.24,0,0,0-10.332,2.65c-.93.471-9.376,8.115-14.485,12.829l-.153.153h-.229a124.4,124.4,0,0,1-16.778,0c-4.867-.484-21.3-6.472-35.811-11.759-5.949-2.166-11.58-4.217-15.7-5.618-13.784-4.714-42.576-14.192-42.856-14.281l-.255-.089-21.339-43.021c-1.936-1.057-20.129-10.7-32.613-6.6C150,306.832,141.355,320.3,139.953,322.6Z" transform="translate(-109.8 -77.539)" fill="#263238"/>
          <path id="Tracé_90" data-name="Tracé 90" d="M322.33,377.273l-.51-1.172a77.465,77.465,0,0,1,10.421-1.962c1.147-.166,2.013-.306,2.331-.369,1.07-.217,4.293-2.382,6.637-4.472s11.211-9.682,11.3-9.759l.828.968c-.089.076-9.007,7.72-11.287,9.746s-5.746,4.472-7.223,4.765l-2.382.382A85.838,85.838,0,0,0,322.33,377.273Z" transform="translate(-59.565 -61.39)" fill="#263238"/>
          <path id="Tracé_91" data-name="Tracé 91" d="M324.721,381.382l-.471-1.172,11.466-4.6c.484-.344,3.605-2.548,4.548-3.287s5.631-4.344,5.631-4.344l.79.994-5.656,4.382c-1.032.764-4.637,3.338-4.637,3.338l-.127.076Z" transform="translate(-58.899 -59.078)" fill="#263238"/>
          <path id="Tracé_92" data-name="Tracé 92" d="M265.223,363.912c-3.669-1.338-7.019-2.548-9.733-3.452-14.014-4.765-42.869-14.294-42.869-14.294l-12.077-24.371c-29.607-.7-42.639,15.873-47.964,26.753,3.529,6.166,7.3,12.434,10.587,17.237,9.134,13.338,16.854,22.931,18.727,26.919s11.466,4.217,22.931,6.37c10.128,1.86,38.83,6.089,53.965,7.376-2.484-4.586-6.153-13.708-2.943-23.543a75.432,75.432,0,0,1,9.376-18.995Z" transform="translate(-105.929 -71.737)" fill="#07b5e7"/>
          <path id="Tracé_93" data-name="Tracé 93" d="M260.1,407.23l-1.185-.1c-15.147-1.274-44.1-5.554-54.028-7.376-2.8-.522-5.44-.917-8-1.274-8.039-1.2-13.848-2.077-15.4-5.389-1.045-2.229-4.013-6.293-8.1-11.937-2.981-4.1-6.676-9.2-10.574-14.893-2.968-4.331-6.535-10.192-10.625-17.288l-.166-.293.153-.293c5.1-10.421,18.23-27.81,48.55-27.072h.382l12.141,24.473c2.892.955,29.518,9.733,42.614,14.2,2.37.815,5.376,1.873,9.746,3.465l.777.28-.471.675a75.277,75.277,0,0,0-9.287,18.74c-3.134,9.618.471,18.574,2.9,23.059Zm-106.643-58.6c4,6.969,7.5,12.663,10.408,16.905,3.822,5.682,7.644,10.765,10.548,14.854,4.14,5.695,7.121,9.809,8.23,12.154,1.274,2.688,7.07,3.567,14.434,4.663,2.548.382,5.21.777,8.039,1.274,9.657,1.771,37.365,5.873,52.755,7.274-2.548-4.93-5.516-13.657-2.459-23.02a76.043,76.043,0,0,1,8.994-18.383c-3.962-1.427-6.739-2.42-8.918-3.172-13.784-4.714-42.576-14.192-42.856-14.281l-.255-.089L200.354,322.6c-29.033-.573-41.811,15.886-46.894,26.014Z" transform="translate(-106.083 -71.869)" fill="#263238"/>
          <path id="Tracé_94" data-name="Tracé 94" d="M179.514,374.971l-1.274-.395c3.1-9.453,10.408-26.218,24.422-32.346l.51,1.172C189.667,349.326,182.546,365.722,179.514,374.971Z" transform="translate(-98.9 -66.133)" fill="#263238"/>
          <path id="Tracé_95" data-name="Tracé 95" d="M177.724,375.313l-1.274-.242s.255-1.35.815-3.491l1.274.331C177.979,374,177.724,375.3,177.724,375.313Z" transform="translate(-99.39 -58.092)" fill="#263238"/>
          <path id="Tracé_96" data-name="Tracé 96" d="M187.957,333.359l-.357-1.274a32.9,32.9,0,0,1,6.752-1.185l.089,1.274A32.013,32.013,0,0,0,187.957,333.359Z" transform="translate(-96.335 -69.237)" fill="#263238"/>
          <path id="Tracé_97" data-name="Tracé 97" d="M164.175,363.283l-1.185-.471c.089-.2,8.064-19.683,23.938-28.511l.611,1.121C172.073,344.008,164.277,363.091,164.175,363.283Z" transform="translate(-103.077 -68.305)" fill="#263238"/>
          <path id="Tracé_98" data-name="Tracé 98" d="M201.293,390.868c-3.159-20.383,14.014-43.518,14.166-43.748l1.019.752c-.166.229-16.995,22.931-13.924,42.8Z" transform="translate(-92.69 -64.793)" fill="#263238"/>
          <path id="Tracé_99" data-name="Tracé 99" d="M220.006,386.026a50.7,50.7,0,0,1-.522-8.676h1.274a50.963,50.963,0,0,0,.51,8.459Z" transform="translate(-87.605 -56.511)" fill="#263238"/>
          <path id="Tracé_100" data-name="Tracé 100" d="M221.124,378.737l-1.274-.178a55.4,55.4,0,0,1,11.364-26.5l.955.841A54.054,54.054,0,0,0,221.124,378.737Z" transform="translate(-87.5 -63.44)" fill="#263238"/>
          <path id="Tracé_101" data-name="Tracé 101" d="M127.644,266.27s-8.625,22.651-7.555,29.492,14.383,44.589,14.74,46.015a56.46,56.46,0,0,0,2.166,5.4s16.893-24.09,33.123-27.7a85.2,85.2,0,0,1,30.142-1.07l-7.911-17.976a124.6,124.6,0,0,0-1.083-13.313c-.713-3.236-13.3-17.249-21.568-19.415" transform="translate(-114.855 -86.942)" fill="#fff"/>
          <path id="Tracé_102" data-name="Tracé 102" d="M136.994,348.491l-.459-1.019a53.366,53.366,0,0,1-2.191-5.5c-.076-.318-1.019-3.07-2.2-6.535-4.1-12-11.733-34.32-12.548-39.493-1.1-6.93,7.223-28.881,7.644-29.811l1.2.446c-.089.229-8.561,22.574-7.516,29.161.8,5.1,8.7,28.218,12.485,39.327,1.452,4.23,2.153,6.281,2.242,6.637a39.723,39.723,0,0,0,1.669,4.281c3.3-4.5,18.179-23.785,32.8-27.033a87.763,87.763,0,0,1,29.3-1.274l-7.5-17.16a128.167,128.167,0,0,0-1.057-13.185c-.624-2.777-12.982-16.816-21.122-18.931l.331-1.274c8.536,2.229,21.237,16.332,22.027,19.9a122.108,122.108,0,0,1,1.1,13.287l8.344,18.956-1.185-.2a85.152,85.152,0,0,0-29.951,1.07c-15.746,3.5-32.524,27.2-32.69,27.428Z" transform="translate(-114.994 -86.981)" fill="#263238"/>
          <path id="Tracé_103" data-name="Tracé 103" d="M172.7,288.833s-1.656-1.554-3.822-3.478l.854-.955c2.191,1.949,3.822,3.5,3.822,3.5Z" transform="translate(-101.464 -81.976)" fill="#263238"/>
          <path id="Tracé_104" data-name="Tracé 104" d="M170.437,284.411c-4.446-3.758-5.988-4.535-6.51-4.663-2.064-.522-8.752,2.013-11.16,3.019l-.5-1.172c.917-.382,9.122-3.822,11.962-3.083.42.1,1.682.42,7.032,4.93Z" transform="translate(-106.014 -83.617)" fill="#263238"/>
          <path id="Tracé_105" data-name="Tracé 105" d="M332.965,397.744s-14.115-4.077-19.007-5.975-14.128-7.07-16.842-8.153-16.842,0-18.472,0-8.688-1.631-10.052-.268.815,4.612,2.446,5.695,12.23,2.994,12.23,2.994l9.223,3.261L274.3,398.011l-17.109,3.261a5.261,5.261,0,0,0,2.714,2.714c2.178,1.083,10.587,2.446,10.587,2.446s20.918,8.153,26.078,8.918c4.039.65,14.434,1.389,18.765,1.682a22.152,22.152,0,0,0,3.9-.089c5.644-.637,22.205-2.548,32-4.344,11.95-2.178,52.232-10.039,60.487-12.268,31.378-8.561,63.3-31.416,64.666-32.231a33.363,33.363,0,0,0,6.242-5.975c.548-1.1,3.261-4.892,3.261-4.892L441.073,340.39l-3.4,2.382s-32.18,17.173-45.76,25.594-40.206,24.447-41.837,25.263S332.965,397.744,332.965,397.744Z" transform="translate(-77.271 -66.637)" fill="#ffead9"/>
          <path id="Tracé_106" data-name="Tracé 106" d="M317,417.894h-1.5c-4.293-.293-14.727-1.032-18.829-1.682-5.1-.8-24.638-8.4-26.142-8.981-.854-.14-8.548-1.414-10.7-2.484a6.013,6.013,0,0,1-3.045-3.083l-.229-.7,17.835-3.389,15.682-2.344-6.816-2.408c-.994-.166-10.676-1.936-12.37-3.057a7.8,7.8,0,0,1-3.134-4.79,2.255,2.255,0,0,1,.6-1.9c1.108-1.108,4.23-.764,8.179-.191a22.687,22.687,0,0,0,2.319.28,24.329,24.329,0,0,0,2.433-.115c7.274-.395,14.281-.637,16.268.166,1.159.459,3.427,1.618,6.039,2.956,3.554,1.822,7.975,4.089,10.8,5.185,4.535,1.758,17.262,5.465,18.8,5.911,6.2-1.274,15.67-3.414,16.8-3.988,1.58-.79,27.785-16.561,41.786-25.224,13.44-8.344,45.467-25.479,45.8-25.619l3.605-2.548,45.862,17.249-.471.675c-.752,1.045-2.79,3.949-3.21,4.8a31.847,31.847,0,0,1-6.5,6.23l-.93.637c-22.626,15.313-45.276,26.6-63.876,31.7-8.37,2.28-48.945,10.192-60.538,12.281-9.95,1.809-27.046,3.822-32.04,4.344A20.907,20.907,0,0,1,317,417.894Zm-58.6-16.026a5.48,5.48,0,0,0,2.026,1.682c2.064,1.032,10.332,2.37,10.408,2.4h.14c.2.089,20.906,8.141,25.938,8.918,4.038.637,14.434,1.376,18.714,1.669a20.724,20.724,0,0,0,3.822-.089c4.994-.56,22.052-2.548,31.964-4.344,11.58-2.1,52.092-9.975,60.436-12.256,18.472-5.1,41.021-16.217,63.507-31.492l.994-.662a33.3,33.3,0,0,0,6-5.72c.42-.841,2.026-3.134,2.841-4.293l-43.85-16.37-3.121,2.191c-.382.217-32.384,17.3-45.8,25.607-13.122,8.141-40.13,24.422-41.875,25.3s-15.67,3.822-17.262,4.128h-.318c-.573-.166-14.2-4.1-19.109-6-2.892-1.121-7.16-3.312-10.918-5.236-2.548-1.274-4.828-2.472-5.937-2.917-2.013-.8-11.618-.28-15.733,0-1.274,0-2.153.115-2.548.115a21.859,21.859,0,0,1-2.548-.293c-2.064-.293-6.37-.917-7.1-.166a.968.968,0,0,0-.242.866,6.65,6.65,0,0,0,2.548,3.822c1.108.739,7.937,2.166,11.975,2.892l11.759,4.128-20.74,3.1Z" transform="translate(-77.446 -66.774)" fill="#263238"/>
          <path id="Tracé_107" data-name="Tracé 107" d="M421.638,274.908l-11.249,61.01-7.312,9.007-4.217,25.3s19.109,9.848,31.492,12.37,30.932,1.694,30.932,1.694l6.472-32.626L468.6,331.7s8.153-72.539,7.644-75.354S451.22,243.416,446.43,242a46.446,46.446,0,0,0-7.644-1.682" transform="translate(-38.46 -94.052)" fill="#07b5e7"/>
          <path id="Tracé_108" data-name="Tracé 108" d="M454.211,385.186c-6.586,0-16.37-.306-23.836-1.834-12.306-2.548-31.467-12.332-31.658-12.434l-.408-.2,4.319-25.938,7.313-8.994,11.224-60.857,1.274.229L411.164,336.3l-7.3,8.994-4.14,24.689c2.841,1.44,19.759,9.822,30.906,12.1s27.25,1.809,30.282,1.694l6.37-32.116.828-19.874c3.274-29.11,7.988-73.112,7.644-75.163-.637-2.357-23.708-12.192-29.365-13.861a45.76,45.76,0,0,0-7.478-1.656l.127-1.274a46.865,46.865,0,0,1,7.707,1.707c3.261.955,29.556,11.338,30.256,14.829.561,2.828-6.752,68.118-7.58,75.558l-.841,19.912-6.574,33.212h-.51C461.4,385.058,458.466,385.186,454.211,385.186Z" transform="translate(-38.61 -94.183)" fill="#263238"/>
          <path id="Tracé_109" data-name="Tracé 109" d="M418.611,314.737l-.56-1.147c8.293-3.988,22.817-11.173,26.893-14.51l.8.994C441.784,303.31,428.8,309.832,418.611,314.737Z" transform="translate(-33.202 -77.954)" fill="#263238"/>
          <path id="Tracé_110" data-name="Tracé 110" d="M411.985,315.2l-.535-1.159s1.822-.828,4.637-2.166l.548,1.147Z" transform="translate(-35.01 -74.447)" fill="#263238"/>
          <path id="Tracé_111" data-name="Tracé 111" d="M430.631,306.261l-.7-1.057c7.988-5.236,21.39-20.269,21.53-20.383l.943.854C451.855,286.323,438.759,300.936,430.631,306.261Z" transform="translate(-29.948 -81.861)" fill="#263238"/>
        </g>
        <g id="Line" transform="translate(0 493.352)">
          <path id="Tracé_112" data-name="Tracé 112" d="M750.5,441.194H.137a.637.637,0,1,1,0-1.274H750.5a.637.637,0,1,1,0,1.274Z" transform="translate(0.5 -439.92)" fill="#263238"/>
        </g>
      </g>
    </g>
  </g>
</svg>
