<svg xmlns="http://www.w3.org/2000/svg" xmlns:xlink="http://www.w3.org/1999/xlink" width="616.608" height="869.139" viewBox="0 0 616.608 869.139">
  <defs>
    <filter id="Rectangle_33" x="73" y="13" width="492.608" height="805.139" filterUnits="userSpaceOnUse">
      <feOffset input="SourceAlpha"/>
      <feGaussianBlur stdDeviation="6" result="blur"/>
      <feFlood flood-color="#dfdfdf" flood-opacity="0.231" result="color"/>
      <feComposite operator="out" in="SourceGraphic" in2="blur"/>
      <feComposite operator="in" in="color"/>
      <feComposite operator="in" in2="SourceGraphic"/>
    </filter>
    <clipPath id="clip-path">
      <rect id="Rectangle_2123" data-name="Rectangle 2123" width="492.608" height="805.139" rx="6" transform="translate(35.718 25.3)" fill="#e8eff7" opacity="0.38"/>
    </clipPath>
  </defs>
  <g id="kiné" transform="translate(37.204 -12.3)">
    <rect id="Rectangle_2126" data-name="Rectangle 2126" width="514.608" height="767.139" rx="54" transform="translate(13.796 63.3)" fill="rgba(162,162,162,0.22)" opacity="0.5"/>
    <g data-type="innerShadowGroup">
      <rect id="Rectangle_33-2" data-name="Rectangle 33" width="492.608" height="805.139" rx="54" transform="translate(35.796 25.3)" fill="#fff"/>
      <g transform="matrix(1, 0, 0, 1, -37.2, 12.3)" filter="url(#Rectangle_33)">
        <rect id="Rectangle_33-3" data-name="Rectangle 33" width="492.608" height="805.139" rx="54" transform="translate(73 13)" fill="#fff"/>
      </g>
    </g>
    <g id="Groupe_de_masques_26" data-name="Groupe de masques 26" transform="translate(0.078)" clip-path="url(#clip-path)">
      <g id="kiné_illustration" data-name="kiné illustration" transform="translate(-18.12 158.933)">
        <g id="Background_Simple" data-name="Background Simple" transform="translate(62.764 2.747)">
          <path id="Tracé_113" data-name="Tracé 113" d="M533.344,132.579q-2.875-4.778-5.985-9.358c-27.65-40.641-73.7-68.44-118.451-81.07a255.369,255.369,0,0,0-59.816-9.121c-131.79-4.778-180.208,103.879-222.678,131.9S18.8,240.838,26.978,341.332C33.2,417.76,76.665,490.842,156.08,524.1a224.122,224.122,0,0,0,27.55,9.507,262.421,262.421,0,0,0,58.211,8.947c60.04,2.675,108.794-11.8,156.478-48.244,11.087-8.462,22.112-18.018,36.5-19.076,10.453-.759,20.37,3,9.432,13.1-12.842,11.884,1.979,35.24,34.593,19.014,54.453-27.115,76.864-85.587,87.416-145.055C579.211,289.368,572.927,198.53,533.344,132.579Z" transform="translate(-26.276 -32.877)" fill="#09a4f4"/>
          <g id="Groupe_2" data-name="Groupe 2" opacity="0.7">
            <path id="Tracé_114" data-name="Tracé 114" d="M533.344,132.579q-2.875-4.778-5.985-9.358c-27.65-40.641-73.7-68.44-118.451-81.07a255.369,255.369,0,0,0-59.816-9.121c-131.79-4.778-180.208,103.879-222.678,131.9S18.8,240.838,26.978,341.332C33.2,417.76,76.665,490.842,156.08,524.1a224.122,224.122,0,0,0,27.55,9.507,262.421,262.421,0,0,0,58.211,8.947c60.04,2.675,108.794-11.8,156.478-48.244,11.087-8.462,22.112-18.018,36.5-19.076,10.453-.759,20.37,3,9.432,13.1-12.842,11.884,1.979,35.24,34.593,19.014,54.453-27.115,76.864-85.587,87.416-145.055C579.211,289.368,572.927,198.53,533.344,132.579Z" transform="translate(-26.276 -32.877)" fill="#fff"/>
          </g>
        </g>
        <g id="Doors" transform="translate(70.67 0.162)">
          <g id="Groupe_3" data-name="Groupe 3" transform="translate(0)" opacity="0.3">
            <path id="Tracé_115" data-name="Tracé 115" d="M215.4,568.512H33.252a.622.622,0,0,1-.622-.622V31.422a.622.622,0,0,1,.622-.622H215.4a.622.622,0,0,1,.622.622V567.889A.622.622,0,0,1,215.4,568.512ZM33.874,567.267H214.767V32.044H33.874Z" transform="translate(-32.63 -30.8)"/>
            <path id="Tracé_116" data-name="Tracé 116" d="M173.588,282.954H109.8a.622.622,0,0,1-.622-.622v-61.21a.622.622,0,0,1,.622-.622h63.786a.622.622,0,0,1,.622.622v61.26A.622.622,0,0,1,173.588,282.954Zm-63.164-1.244h62.541V221.695H110.424Z" transform="translate(-13.924 15.555)"/>
            <path id="Tracé_117" data-name="Tracé 117" d="M173.588,171.834H109.8a.622.622,0,0,1-.622-.622v-61.26a.635.635,0,0,1,.622-.622h63.786a.635.635,0,0,1,.622.622v61.26A.622.622,0,0,1,173.588,171.834Zm-63.164-1.244h62.541V110.574H110.424Z" transform="translate(-13.924 -11.611)"/>
            <path id="Tracé_118" data-name="Tracé 118" d="M173.588,338.524H109.8a.622.622,0,0,1-.622-.622v-61.26a.622.622,0,0,1,.622-.622h63.786a.622.622,0,0,1,.622.622V337.9A.622.622,0,0,1,173.588,338.524Zm-63.164-1.244h62.541v-60.04H110.424Z" transform="translate(-13.924 29.121)"/>
            <path id="Tracé_119" data-name="Tracé 119" d="M173.588,116.4H109.8a.622.622,0,0,1-.622-.622V53.872a.622.622,0,0,1,.622-.622h63.786a.622.622,0,0,1,.622.622v61.907A.622.622,0,0,1,173.588,116.4Zm-63.164-1.244h62.541V54.494H110.424Z" transform="translate(-13.924 -25.314)"/>
            <path id="Tracé_120" data-name="Tracé 120" d="M115.658,116.4H51.822a.622.622,0,0,1-.622-.622V53.872a.622.622,0,0,1,.622-.622h63.836a.622.622,0,0,1,.622.622v61.907A.622.622,0,0,1,115.658,116.4Zm-63.213-1.244h62.529V54.494H52.444Z" transform="translate(-28.092 -25.314)"/>
            <path id="Tracé_121" data-name="Tracé 121" d="M173.588,227.4H109.8a.635.635,0,0,1-.622-.622v-61.26a.622.622,0,0,1,.622-.622h63.786a.622.622,0,0,1,.622.622v61.26A.635.635,0,0,1,173.588,227.4Zm-63.164-1.244h62.541V166.144H110.424Z" transform="translate(-13.924 1.968)"/>
            <path id="Tracé_122" data-name="Tracé 122" d="M115.658,227.4H51.822a.622.622,0,0,1-.622-.622v-61.26a.622.622,0,0,1,.622-.622h63.836a.622.622,0,0,1,.622.622v61.26a.622.622,0,0,1-.622.622ZM52.507,226.16h62.529V166.144H52.444Z" transform="translate(-28.092 1.968)"/>
            <path id="Tracé_123" data-name="Tracé 123" d="M173.588,384.963H109.8a.622.622,0,0,1-.622-.622V332.2a.635.635,0,0,1,.622-.622h63.786a.635.635,0,0,1,.622.622v52.163A.622.622,0,0,1,173.588,384.963Zm-63.164-1.244h62.541V332.824H110.424Z" transform="translate(-13.924 42.698)"/>
            <path id="Tracé_124" data-name="Tracé 124" d="M115.658,338.524H51.822a.622.622,0,0,1-.622-.622v-61.26a.622.622,0,0,1,.622-.622h63.836a.622.622,0,0,1,.622.622V337.9A.622.622,0,0,1,115.658,338.524ZM52.507,337.28h62.529v-60.04H52.444Z" transform="translate(-28.092 29.121)"/>
            <path id="Tracé_125" data-name="Tracé 125" d="M115.658,384.963H51.822a.622.622,0,0,1-.622-.622V332.2a.622.622,0,0,1,.622-.622h63.836a.622.622,0,0,1,.622.622v52.163A.622.622,0,0,1,115.658,384.963Zm-63.151-1.244h62.529V332.824H52.444Z" transform="translate(-28.092 42.698)"/>
            <path id="Tracé_126" data-name="Tracé 126" d="M115.658,282.954H51.822a.622.622,0,0,1-.622-.622v-61.21a.622.622,0,0,1,.622-.622h63.836a.622.622,0,0,1,.622.622v61.26A.622.622,0,0,1,115.658,282.954ZM52.507,281.71h62.529V221.695H52.444Z" transform="translate(-28.092 15.555)"/>
            <path id="Tracé_127" data-name="Tracé 127" d="M115.658,171.834H51.822a.622.622,0,0,1-.622-.622v-61.26a.622.622,0,0,1,.622-.622h63.836a.622.622,0,0,1,.622.622v61.26A.622.622,0,0,1,115.658,171.834ZM52.507,170.59h62.529V110.574H52.444Z" transform="translate(-28.092 -11.611)"/>
            <path id="Tracé_128" data-name="Tracé 128" d="M41.012,567.908a.622.622,0,0,1-.622-.622V32.212a.622.622,0,1,1,1.244,0V567.286A.622.622,0,0,1,41.012,567.908Z" transform="translate(-30.734 -30.607)"/>
            <path id="Tracé_129" data-name="Tracé 129" d="M361.781,568.512H179.632a.622.622,0,0,1-.622-.622V31.422a.622.622,0,0,1,.622-.622H361.781a.622.622,0,0,1,.622.622V567.889A.622.622,0,0,1,361.781,568.512Zm-181.527-1.244h180.9V32.044H180.242Z" transform="translate(3.139 -30.8)"/>
            <path id="Tracé_130" data-name="Tracé 130" d="M261.976,282.954H198.2a.622.622,0,0,1-.622-.622v-61.21a.622.622,0,0,1,.622-.622h63.773a.622.622,0,0,1,.622.622v61.26A.622.622,0,0,1,261.976,282.954Zm-63.151-1.244h62.529V221.695H198.824Z" transform="translate(7.677 15.555)"/>
            <path id="Tracé_131" data-name="Tracé 131" d="M261.976,171.834H198.2a.622.622,0,0,1-.622-.622v-61.26a.622.622,0,0,1,.622-.622h63.773a.622.622,0,0,1,.622.622v61.26A.622.622,0,0,1,261.976,171.834Zm-63.151-1.244h62.529V110.574H198.824Z" transform="translate(7.677 -11.611)"/>
            <path id="Tracé_132" data-name="Tracé 132" d="M261.976,338.524H198.2a.622.622,0,0,1-.622-.622v-61.26a.622.622,0,0,1,.622-.622h63.773a.622.622,0,0,1,.622.622V337.9A.622.622,0,0,1,261.976,338.524Zm-63.151-1.244h62.529v-60.04H198.824Z" transform="translate(7.677 29.121)"/>
            <path id="Tracé_133" data-name="Tracé 133" d="M261.976,116.4H198.2a.622.622,0,0,1-.622-.622V53.872a.622.622,0,0,1,.622-.622h63.773a.622.622,0,0,1,.622.622v61.907A.622.622,0,0,1,261.976,116.4Zm-63.151-1.244h62.529V54.494H198.824Z" transform="translate(7.677 -25.314)"/>
            <path id="Tracé_134" data-name="Tracé 134" d="M319.966,116.4H256.192a.622.622,0,0,1-.622-.622V53.872a.622.622,0,0,1,.622-.622h63.773a.622.622,0,0,1,.622.622v61.907A.622.622,0,0,1,319.966,116.4Zm-63.151-1.244h62.529V54.494H256.814Z" transform="translate(21.847 -25.314)"/>
            <path id="Tracé_135" data-name="Tracé 135" d="M261.976,227.4H198.2a.622.622,0,0,1-.622-.622v-61.26a.622.622,0,0,1,.622-.622h63.773a.622.622,0,0,1,.622.622v61.26a.622.622,0,0,1-.622.622Zm-63.151-1.244h62.529V166.144H198.824Z" transform="translate(7.677 1.968)"/>
            <path id="Tracé_136" data-name="Tracé 136" d="M319.966,227.4H256.192a.622.622,0,0,1-.622-.622v-61.26a.622.622,0,0,1,.622-.622h63.773a.622.622,0,0,1,.622.622v61.26A.635.635,0,0,1,319.966,227.4Zm-63.151-1.244h62.529V166.144H256.814Z" transform="translate(21.847 1.968)"/>
            <path id="Tracé_137" data-name="Tracé 137" d="M261.976,384.963H198.2a.622.622,0,0,1-.622-.622V332.2a.622.622,0,0,1,.622-.622h63.773a.622.622,0,0,1,.622.622v52.163A.622.622,0,0,1,261.976,384.963Zm-63.151-1.244h62.529V332.824H198.824Z" transform="translate(7.677 42.698)"/>
            <path id="Tracé_138" data-name="Tracé 138" d="M319.966,338.524H256.192a.622.622,0,0,1-.622-.622v-61.26a.622.622,0,0,1,.622-.622h63.773a.622.622,0,0,1,.622.622V337.9A.622.622,0,0,1,319.966,338.524Zm-63.151-1.244h62.529v-60.04H256.814Z" transform="translate(21.847 29.121)"/>
            <path id="Tracé_139" data-name="Tracé 139" d="M319.966,384.963H256.192a.622.622,0,0,1-.622-.622V332.2a.622.622,0,0,1,.622-.622h63.773a.635.635,0,0,1,.622.622v52.163A.622.622,0,0,1,319.966,384.963Zm-63.151-1.244h62.529V332.824H256.814Z" transform="translate(21.847 42.698)"/>
            <path id="Tracé_140" data-name="Tracé 140" d="M319.966,282.954H256.192a.622.622,0,0,1-.622-.622v-61.21a.622.622,0,0,1,.622-.622h63.773a.622.622,0,0,1,.622.622v61.26A.622.622,0,0,1,319.966,282.954Zm-63.151-1.244h62.529V221.695H256.814Z" transform="translate(21.847 15.555)"/>
            <path id="Tracé_141" data-name="Tracé 141" d="M319.966,171.834H256.192a.622.622,0,0,1-.622-.622v-61.26a.622.622,0,0,1,.622-.622h63.773a.635.635,0,0,1,.622.622v61.26A.622.622,0,0,1,319.966,171.834Zm-63.151-1.244h62.529V110.574H256.814Z" transform="translate(21.847 -11.611)"/>
            <path id="Tracé_142" data-name="Tracé 142" d="M318.242,567.908a.622.622,0,0,1-.622-.622V32.212a.622.622,0,1,1,1.244,0V567.286A.622.622,0,0,1,318.242,567.908Z" transform="translate(37.009 -30.607)"/>
          </g>
        </g>
        <g id="Plant" transform="translate(105.176 326.88)">
          <path id="Tracé_143" data-name="Tracé 143" d="M131.336,419.95H82.52L87.4,472.113h39.06Z" transform="translate(-54.945 -262.427)" fill="#000032"/>
          <path id="Tracé_144" data-name="Tracé 144" d="M127.145,472.858H86.977L82,419.45h50.148ZM88.1,471.613h37.916l4.766-50.919H83.331Z" transform="translate(-55.072 -262.549)" fill="#263238"/>
          <path id="Tracé_145" data-name="Tracé 145" d="M102.971,454.376h-.149a.622.622,0,0,1-.448-.759c.212-.784,21.079-79.353,45.867-135.311a.622.622,0,1,1,1.132.5c-24.738,55.872-45.593,134.391-45.792,135.137A.622.622,0,0,1,102.971,454.376Z" transform="translate(-50.098 -287.371)" fill="#263238"/>
          <path id="Tracé_146" data-name="Tracé 146" d="M135.112,337.349s-2.762-21.378,3.845-30.785a40.081,40.081,0,0,1,14.26-12.9s1.643,24.1-1.12,31.918S135.112,337.349,135.112,337.349Z" transform="translate(-42.234 -293.287)" fill="#5da2f0"/>
          <path id="Tracé_147" data-name="Tracé 147" d="M136.178,338.816s-5.413-2.29-7.23-14.447,2.489-31.009,2.489-31.009,5.587,14.547,7.217,24.053S136.178,338.816,136.178,338.816Z" transform="translate(-43.709 -293.36)" fill="#5da2f0"/>
          <path id="Tracé_148" data-name="Tracé 148" d="M134.67,333.929s7.976-13.476,17.981-16.475,26.057-4.094,26.057-4.094a34.505,34.505,0,0,1-19,15.89A90.2,90.2,0,0,1,134.67,333.929Z" transform="translate(-42.202 -288.473)" fill="#5da2f0"/>
          <path id="Tracé_149" data-name="Tracé 149" d="M131.824,359.543s2.489-2.165-2.825-12.444-11.834-14.459-11.834-14.459-3.235,15.48,1.518,22.4a119.759,119.759,0,0,0,8.711,11.361s-14.5-4.977-16.836-5.5-12.332-1.68-12.332-1.68-1.02,4.38,8.524,9.37a48.157,48.157,0,0,0,20.084,4.977s1.73,1.244,5.537,3.932,14.646,7.3,14.646,7.3.958-5.376-2.825-7.777a73.082,73.082,0,0,0-6.844-3.845s9.544,0,11.436-1.107,11.336-7.728,11.336-7.728-9.532.311-11.821.46a95.325,95.325,0,0,0-10.042,2.339s12.568-3.833,15.405-10.664a44.436,44.436,0,0,0,2.986-14.136S140.559,347.672,131.824,359.543Z" transform="translate(-51.115 -283.762)" fill="#5da2f0"/>
          <path id="Tracé_150" data-name="Tracé 150" d="M116.86,379.681s13.937-3.273,20.034-.7,13.85,14.932,13.85,14.932-10.913,4.057-19.723.349S116.86,379.681,116.86,379.681Z" transform="translate(-46.554 -272.679)" fill="#5da2f0"/>
          <path id="Tracé_151" data-name="Tracé 151" d="M122.51,381.02s-6.1-7.553-14.385-8.312a38,38,0,0,0-14.385,1.307s-.236,6.309,10.515,9.569a21.154,21.154,0,0,0,18.255-2.563Z" transform="translate(-52.203 -274.018)" fill="#5da2f0"/>
          <path id="Tracé_152" data-name="Tracé 152" d="M114.016,391.57s6.944.535,10.826,4.243,10.079,22.548,10.079,22.548-12.444-4.131-20.109-10.253S114.016,391.57,114.016,391.57Z" transform="translate(-47.94 -269.362)" fill="#5da2f0"/>
          <path id="Tracé_153" data-name="Tracé 153" d="M118.11,392.5s-8.711-6.371-14.771-4.305-8.947,8.9-8.91,14.211,0,9.283,0,9.283,10.3-3.347,13.128-5.525S118.11,392.5,118.11,392.5Z" transform="translate(-52.035 -270.288)" fill="#5da2f0"/>
          <path id="Tracé_154" data-name="Tracé 154" d="M102.458,459.835c-.112-.921-10.751-93.252-29.628-135.734l1.132-.51c18.989,42.669,29.628,135.174,29.728,136.145Z" transform="translate(-57.313 -285.973)" fill="#263238"/>
          <path id="Tracé_155" data-name="Tracé 155" d="M74.439,326.809s-3.609-4.343.722-15.181a90.068,90.068,0,0,1,8.711-17s6.135,11.933,6.5,19.163-7.591,15.9-7.591,15.9a17.42,17.42,0,0,1,8.325-3.982,54.754,54.754,0,0,1,13-.361s-3.248,5.786-6.869,7.591-13.688,3.982-15.181,3.621-.722.722-7.591,7.23a143.71,143.71,0,0,1-11.224,9.781s-2.489-11.56-.361-17.346S74.439,326.809,74.439,326.809Z" transform="translate(-59.955 -293.05)" fill="#5da2f0"/>
          <path id="Tracé_156" data-name="Tracé 156" d="M78.726,322.906a48.635,48.635,0,0,0-6.147-7.192c-2.887-2.489-8.312-3.26-10.477-3.621s-2.489,7.23,1.443,12.294,18.79,7.951,18.79,7.951Z" transform="translate(-60.322 -288.786)" fill="#5da2f0"/>
          <path id="Tracé_157" data-name="Tracé 157" d="M83.829,342.847s-2.9-3.26,5.052-8.711a32.577,32.577,0,0,1,15.181-5.786s-2.165,13.688-5.786,17.707-9.743,3.235-9.743,3.235,8.71.361,12.294,2.165,11.921,13.377,11.921,13.377,0,.361-7.951.361-14.459-6.508-14.459-6.508a45,45,0,0,1,1.817,7.591c.361,3.248-6.508,11.2-7.23,12.282s-6.869-7.952-7.591-11.921a17.868,17.868,0,0,1,0-6.869,17.644,17.644,0,0,0-5.786,5.064,39.959,39.959,0,0,0-5.413,10.117s-7.23-11.56-5.413-18.79,17.707-6.869,17.707-6.869a66.644,66.644,0,0,1-11.2-2.489c-3.609-1.443-6.869-4.691-6.869-6.508s1.817-2.489,9.407-1.8A40.578,40.578,0,0,1,83.829,342.847Z" transform="translate(-60.36 -284.81)" fill="#5da2f0"/>
          <path id="Tracé_158" data-name="Tracé 158" d="M93.176,374.229s-10.477-6.508-15.9-5.786-10.117,2.489-11.933,2.489,3.621,11.2,10.129,11.56S93.537,380,93.537,380s-6.508,3.97-9.034,8.312-3.621,12.655-3.621,12.655,9.407.361,13.377-3.26,2.489-16.985,2.489-16.985a11.2,11.2,0,0,1,5.425-2.165c3.26-.361,9.32,2.937,9.32,2.937s7.665-10.527-4.977-16.314S93.176,374.229,93.176,374.229Z" transform="translate(-59.23 -276.137)" fill="#5da2f0"/>
          <path id="Tracé_159" data-name="Tracé 159" d="M96.549,401.03s-7.23-3.982-11.573-.361-10.117,15.9-10.117,15.9,8.711,1.444,14.459-1.817S96.549,401.03,96.549,401.03Z" transform="translate(-56.817 -267.51)" fill="#5da2f0"/>
          <path id="Tracé_160" data-name="Tracé 160" d="M92.29,402.284A11.647,11.647,0,0,1,101,394.333c7.23-1.817,17.707,4.691,17.707,4.691s-3.248,3.26-11.56,5.786a17.421,17.421,0,0,1-14.858-2.526Z" transform="translate(-52.558 -268.765)" fill="#5da2f0"/>
          <rect id="Rectangle_9" data-name="Rectangle 9" width="7.665" height="52.923" transform="translate(9.656 155.906)" fill="#fff"/>
          <path id="Tracé_161" data-name="Tracé 161" d="M75.907,472.317H68.242a.622.622,0,0,1-.622-.622V418.772a.622.622,0,0,1,.622-.622h7.665a.622.622,0,0,1,.622.622v52.922A.635.635,0,0,1,75.907,472.317Zm-7.043-1.244h6.421V419.394H68.864Z" transform="translate(-58.586 -262.866)" fill="#263238"/>
          <rect id="Rectangle_10" data-name="Rectangle 10" width="7.665" height="52.923" transform="translate(83.372 155.906)" fill="#fff"/>
          <path id="Tracé_162" data-name="Tracé 162" d="M135.147,472.317h-7.665a.635.635,0,0,1-.622-.622V418.772a.622.622,0,0,1,.622-.622h7.665a.622.622,0,0,1,.622.622v52.922A.622.622,0,0,1,135.147,472.317Zm-7.043-1.244h6.4V419.394h-6.421Z" transform="translate(-44.11 -262.866)" fill="#263238"/>
          <rect id="Rectangle_11" data-name="Rectangle 11" width="86.707" height="10.913" transform="translate(7.653 154.686)" fill="#fff"/>
          <path id="Tracé_163" data-name="Tracé 163" d="M153.327,429.315H66.632a.622.622,0,0,1-.622-.622v-10.9a.622.622,0,0,1,.622-.622h86.694a.622.622,0,0,1,.622.622v10.9A.622.622,0,0,1,153.327,429.315ZM67.254,428.07H152.7v-9.656H67.242Z" transform="translate(-58.979 -263.106)" fill="#263238"/>
          <rect id="Rectangle_12" data-name="Rectangle 12" width="86.707" height="10.913" transform="translate(7.653 169.606)" fill="#fff"/>
          <path id="Tracé_164" data-name="Tracé 164" d="M153.327,441.317H66.632a.622.622,0,0,1-.622-.622V429.782a.622.622,0,0,1,.622-.622h86.694a.622.622,0,0,1,.622.622V440.7A.622.622,0,0,1,153.327,441.317Zm-86.072-1.244H152.7V430.4H67.242Z" transform="translate(-58.979 -260.176)" fill="#263238"/>
          <rect id="Rectangle_13" data-name="Rectangle 13" width="86.707" height="10.913" transform="translate(7.653 184.538)" fill="#fff"/>
          <path id="Tracé_165" data-name="Tracé 165" d="M153.327,453.317H66.632a.622.622,0,0,1-.622-.622V441.782a.622.622,0,0,1,.622-.622h86.694a.622.622,0,0,1,.622.622V452.7A.622.622,0,0,1,153.327,453.317Zm-86.072-1.244H152.7V442.4H67.242Z" transform="translate(-58.979 -257.244)" fill="#263238"/>
          <rect id="Rectangle_14" data-name="Rectangle 14" width="86.707" height="10.913" transform="translate(7.653 199.471)" fill="#fff"/>
          <path id="Tracé_166" data-name="Tracé 166" d="M153.327,465.3H66.632a.622.622,0,0,1-.622-.622v-10.9a.622.622,0,0,1,.622-.622h86.694a.622.622,0,0,1,.622.622v10.9A.622.622,0,0,1,153.327,465.3ZM67.254,464.06H152.7V454.4H67.242Z" transform="translate(-58.979 -254.312)" fill="#263238"/>
        </g>
        <g id="Picture" transform="translate(470.544 0)">
          <g id="Groupe_4" data-name="Groupe 4" opacity="0.3">
            <path id="Tracé_167" data-name="Tracé 167" d="M503.178,229.7H354.6a.622.622,0,0,1-.622-.622V31.292a.622.622,0,0,1,.622-.622H503.178a.622.622,0,0,1,.622.622V229.145A.622.622,0,0,1,503.178,229.7Zm-147.954-1.244H502.556V31.914H355.249Z" transform="translate(-353.98 -30.67)"/>
            <path id="Tracé_168" data-name="Tracé 168" d="M497.4,221.993H358.492a.635.635,0,0,1-.622-.622V36.472a.635.635,0,0,1,.622-.622H497.4a.635.635,0,0,1,.622.622v184.9A.635.635,0,0,1,497.4,221.993Zm-138.273-1.244H496.765V37.094H359.114Z" transform="translate(-353.029 -29.404)"/>
            <path id="Tracé_169" data-name="Tracé 169" d="M358.491,172.915a.622.622,0,0,1-.548-.336.635.635,0,0,1,.261-.846c14.4-7.466,48.866-28.994,58.112-67.88,7.665-32.179,18.454-53.731,34.058-67.817a.61.61,0,0,1,.871,0,.622.622,0,0,1,0,.883c-15.418,13.924-26.131,35.265-33.685,67.2-9.357,39.384-44.2,61.16-58.746,68.7A.572.572,0,0,1,358.491,172.915Z" transform="translate(-353.029 -29.404)"/>
            <path id="Tracé_170" data-name="Tracé 170" d="M414.805,221.016a.61.61,0,0,1-.585-.436c-9.955-32.179-21.515-92.082,12.1-132.225,17.993-21.465,38.028-37.766,59.542-48.443a.635.635,0,0,1,.834.286.61.61,0,0,1-.286.821c-21.353,10.614-41.25,26.8-59.132,48.132-33.237,39.645-21.7,99.126-11.871,131.056a.635.635,0,0,1-.411.784Z" transform="translate(-341.774 -28.426)"/>
            <path id="Tracé_171" data-name="Tracé 171" d="M358.491,122.841a.622.622,0,0,1-.4-1.1c7.951-6.819,17.931-19.648,20.246-42,2.2-21.254-4.828-35.054-11.1-42.881a.61.61,0,0,1,.087-.871.622.622,0,0,1,.871.087C374.63,44.1,381.823,58.2,379.57,79.873c-2.352,22.772-12.543,35.85-20.669,42.818a.647.647,0,0,1-.411.149Z" transform="translate(-353.028 -29.402)"/>
            <path id="Tracé_172" data-name="Tracé 172" d="M465.516,206.825a.6.6,0,0,1-.523-.286c-5.538-8.412-12.556-11.759-19.984-15.281-6.794-3.235-13.825-6.57-19.512-14.111a28.869,28.869,0,0,1-4.641-26.132c4.218-15.069,18.466-28.732,38.115-36.547A55.721,55.721,0,0,0,481.83,98.155a.628.628,0,1,1,.971.8,57.154,57.154,0,0,1-23.369,16.724c-19.3,7.678-33.262,21.03-37.331,35.726a27.662,27.662,0,0,0,4.392,25.012c5.5,7.292,12.444,10.565,19.051,13.688,7.255,3.447,14.771,7.018,20.482,15.741a.622.622,0,0,1-.174.859.7.7,0,0,1-.336.124Z" transform="translate(-337.957 -14.236)"/>
            <path id="Tracé_173" data-name="Tracé 173" d="M397.128,192.741h0a.635.635,0,0,1-.61-.635c.349-15.741-2.227-26.8-7.665-32.876a6.471,6.471,0,0,0-5.513-2.414c-6,.448-14.41,8.71-24.315,23.8a.625.625,0,1,1-1.045-.684c10.278-15.679,18.777-23.867,25.273-24.352a7.7,7.7,0,0,1,6.533,2.812c5.649,6.321,8.337,17.67,7.976,33.735a.609.609,0,0,1-.635.61Z" transform="translate(-353.028 -0.151)"/>
            <path id="Tracé_174" data-name="Tracé 174" d="M395.61,77.773a3.26,3.26,0,0,1-1.1-.174c-6.3-2.128-8.026-23.531-8.375-41.064a.622.622,0,0,1,.61-.635.61.61,0,0,1,.635.61c.473,23.929,3.21,38.5,7.528,39.956,1.406.473,3.123-.548,5.114-3.036,7.964-9.955,14.223-25.708,18.068-37.107a.647.647,0,0,1,.8-.4.622.622,0,0,1,.386.8C415.395,48.22,409.073,64.1,401,74.2,399.081,76.566,397.277,77.773,395.61,77.773Z" transform="translate(-346.121 -29.393)"/>
            <path id="Tracé_175" data-name="Tracé 175" d="M444.933,99.4c-2.078,0-3.372-.56-3.932-1.717-2.227-4.567,9.793-18.255,35.725-40.653a.626.626,0,0,1,.821.946c-24.041,20.731-37.269,35.365-35.427,39.16.535,1.107,2.675,1.331,6.222.647,9.694-1.891,19.238-7.466,28.409-16.674a.6.6,0,0,1,.871,0,.622.622,0,0,1,0,.883C468.24,91.337,458.485,97.061,448.53,99a18.665,18.665,0,0,1-3.6.4Z" transform="translate(-332.78 -24.266)"/>
          </g>
        </g>
        <g id="Character_2" data-name="Character 2" transform="translate(240.343 69.818)">
          <path id="Tracé_176" data-name="Tracé 176" d="M250.007,98.828s-2.663-10.888-19.91-11.51-17.421,6.147-22,8.287c-2.314,1.1-7.192,7.466-6.695,10.988l9.955-4.691s-22.809,13.812-23.431,36.609,8.71,41.649,27.127,41.649,26.7-5.55,26.492-18.9-2.874-36.348,1.244-49.5S250.007,98.828,250.007,98.828Z" transform="translate(-164.362 -86.655)" fill="#000032"/>
          <path id="Tracé_177" data-name="Tracé 177" d="M215.2,180.9a23.07,23.07,0,0,1-17.11-7.155c-7.155-7.354-11.025-20.159-10.627-35.128.436-16,11.759-27.712,18.665-33.349l-5.052,2.364-.112-.834c-.56-3.8,4.542-10.465,7.043-11.635a11.2,11.2,0,0,0,2.974-2.377c2.862-2.862,6.421-6.433,19.312-5.973,17.521.635,20.47,11.871,20.507,11.983l.2.821h-.809c-.212,0-2.949.846-6.6,12.444-3.086,9.955-2.29,25.646-1.643,38.314.2,4.007.386,7.79.436,10.988.1,5.786-1.356,10.117-4.43,13.24C233.656,178.9,226.451,180.9,215.2,180.9Zm-3.957-79.44.585,1.1c-.224.137-22.535,13.912-23.133,36.086-.4,14.634,3.347,27.1,10.278,34.22a21.863,21.863,0,0,0,16.177,6.782c10.739,0,17.869-1.941,21.789-5.936,2.837-2.874,4.169-6.906,4.081-12.332,0-3.186-.236-6.956-.436-10.95-.647-12.755-1.456-28.62,1.7-38.737,3.1-9.955,5.687-12.518,6.993-13.165-.809-2.2-4.666-9.955-19.163-10.477-12.344-.436-15.691,2.912-18.392,5.612a12.008,12.008,0,0,1-3.31,2.613c-1.9.9-6,6.222-6.359,9.457Z" transform="translate(-164.474 -86.778)" fill="#263238"/>
          <path id="Tracé_178" data-name="Tracé 178" d="M285.506,218.91l6.769,13.265s10.129,9.1,12.73,15.343,12.68,23.232,16.388,24.439c1.244.4,6.5,1.244,8.312,1.817s3.646,2.339,4.977,2.6,3.646.784,5.2,0a1.767,1.767,0,0,1,2.6,2.078c-.523,1.555-5.973,2.6-5.973,2.6l-7.8-1.555s6.5,4.417,5.463,6.757-15.866,4.679-17.16,4.679-3.049-1.817-7.2-4.977-5.239-9.669-5.239-9.669-23.444-21.03-27.376-26.219-8.586-17.16-8.586-17.944a64.509,64.509,0,0,0-2.078-6.5Z" transform="translate(-145.148 -54.49)" fill="#ffead9"/>
          <path id="Tracé_179" data-name="Tracé 179" d="M317.133,291.707c-1.145,0-2.339-.946-4.5-2.663-.846-.684-1.854-1.481-3.074-2.389-3.92-2.949-5.2-8.636-5.438-9.843-2.24-2.016-23.506-21.154-27.264-26.131s-8.71-17.16-8.71-18.317a58.2,58.2,0,0,0-2.041-6.222l-.212-.6,20.047-7.255,6.956,13.688c1.058.958,10.291,9.42,12.817,15.48,2.713,6.52,12.7,23.021,15.99,24.091.585.187,2.252.523,3.87.846s3.5.7,4.43.971a11.511,11.511,0,0,1,2.924,1.531,7.215,7.215,0,0,0,1.966,1.058h.174c1.244.249,3.335.672,4.629,0a2.489,2.489,0,0,1,2.812.286,2.352,2.352,0,0,1,.659,2.551c-.6,1.767-5.089,2.75-6.458,3.011h-.124l-5.251-1.045c1.966,1.63,4.293,4.057,3.484,5.861C333.558,289.567,317.792,291.707,317.133,291.707Zm-49.65-65.5a44.987,44.987,0,0,1,1.9,6.122c.137,1.02,4.679,12.518,8.462,17.57s27.027,25.92,27.264,26.132l.162.137v.224s1.083,6.334,4.977,9.27c1.244.921,2.24,1.73,3.1,2.4,1.829,1.443,3.024,2.4,3.733,2.4,1.7,0,15.778-2.489,16.587-4.306.56-1.244-2.8-4.33-5.239-6l-2.489-1.73,10.689,2.14c2.427-.473,5.152-1.443,5.388-2.165a1.1,1.1,0,0,0-.3-1.244,1.244,1.244,0,0,0-1.431-.112c-1.692.846-4.044.361-5.438.087h-.162a7.577,7.577,0,0,1-2.414-1.244,11.027,11.027,0,0,0-2.576-1.369c-.9-.249-2.65-.6-4.343-.946s-3.36-.672-4.007-.883c-4.057-1.257-14.26-18.678-16.749-24.788s-12.444-15.044-12.593-15.119l-.137-.174-6.508-12.78Z" transform="translate(-145.304 -54.641)" fill="#263238"/>
          <path id="Tracé_180" data-name="Tracé 180" d="M318.932,277.107a1.767,1.767,0,0,1-1.157-.373c-1.1-.859-1.817-4.417-2.016-5.537a2.327,2.327,0,0,1,.6-2.688,2.489,2.489,0,0,1,2.713,0c1.543.871,3.945,4.069,3.733,5.786a3.833,3.833,0,0,1-2.489,2.489A3.733,3.733,0,0,1,318.932,277.107Zm-1.344-7.752a.822.822,0,0,0-.473.137c-.286.224-.336.734-.149,1.406h0c.361,2,1.07,4.417,1.568,4.816.162.137.622.149,1.244-.1.883-.348,1.643-1.033,1.717-1.518.149-.983-1.754-3.733-3.086-4.542a1.854,1.854,0,0,0-.821-.2Z" transform="translate(-133.166 -42.468)" fill="#263238"/>
          <path id="Tracé_181" data-name="Tracé 181" d="M316.892,270.515s-2.315-.61-3.223.423.908,6.707,1.58,7.155,3.422-.224,3.646-.8a11.5,11.5,0,0,0-2-6.782Z" transform="translate(-133.69 -41.924)" fill="#ffead9"/>
          <path id="Tracé_182" data-name="Tracé 182" d="M316.128,278.985a1.966,1.966,0,0,1-1.083-.249c-.8-.535-1.817-3.833-2.053-5.7a3.024,3.024,0,0,1,.336-2.4c1.132-1.244,3.571-.672,3.845-.6l.236.062.124.2c1.954,2.912,2.4,6.533,2.066,7.354,0,.149-.236.61-1.543,1.008A7.155,7.155,0,0,1,316.128,278.985Zm-.572-7.9a1.742,1.742,0,0,0-1.244.386c-.5.672.821,5.562,1.506,6.222a4.841,4.841,0,0,0,2.725-.622,12.12,12.12,0,0,0-1.854-5.911,5.36,5.36,0,0,0-1.17-.075Z" transform="translate(-133.822 -42.044)" fill="#263238"/>
          <path id="Tracé_183" data-name="Tracé 183" d="M313.667,272.96s-2.165-3.061-2.962-.8a11.735,11.735,0,0,0,.112,6.72c.461.672,2.613.908,2.962-.348a23.533,23.533,0,0,0-.112-5.575Z" transform="translate(-134.46 -41.681)" fill="#ffead9"/>
          <path id="Tracé_184" data-name="Tracé 184" d="M312.4,280.175a2.488,2.488,0,0,1-2-.834,12.046,12.046,0,0,1-.174-7.255c.323-.933.871-1.244,1.244-1.244,1.244-.174,2.489,1.543,2.775,1.891l.1.137v.174a4,4,0,0,0,.087.983,17.587,17.587,0,0,1,0,4.791,1.854,1.854,0,0,1-1.605,1.319A2.916,2.916,0,0,1,312.4,280.175Zm-.709-8.1h0c-.062,0-.174.149-.274.423a11.473,11.473,0,0,0,0,6.16,1.568,1.568,0,0,0,1.244.249.562.562,0,0,0,.585-.411,17.144,17.144,0,0,0,0-4.355,3.605,3.605,0,0,0-.062-.834C312.65,272.647,311.978,272.074,311.692,272.074Z" transform="translate(-134.587 -41.803)" fill="#263238"/>
          <path id="Tracé_185" data-name="Tracé 185" d="M310.775,273.763s-1.593-2.738-2.837-.8a7.367,7.367,0,0,0-.348,6.135,1.593,1.593,0,0,0,2.613-.572A23.089,23.089,0,0,0,310.775,273.763Z" transform="translate(-135.238 -41.451)" fill="#ffead9"/>
          <path id="Tracé_186" data-name="Tracé 186" d="M308.734,280.319a1.83,1.83,0,0,1-1.531-.734,7.864,7.864,0,0,1,.336-6.844,1.7,1.7,0,0,1,1.568-.971c1.244,0,2.227,1.618,2.327,1.792l.087.162v.174a22.474,22.474,0,0,1-.61,4.977,2.339,2.339,0,0,1-1.891,1.419Zm.336-7.3c-.187,0-.373.224-.485.411a6.906,6.906,0,0,0-.361,5.438.647.647,0,0,0,.647.2,1.058,1.058,0,0,0,.883-.635,21.029,21.029,0,0,0,.523-4.38c-.311-.473-.846-1.02-1.244-1.033Z" transform="translate(-135.362 -41.573)" fill="#263238"/>
          <path id="Tracé_187" data-name="Tracé 187" d="M176.6,215l-1.493,15.978a62.218,62.218,0,0,0-4.243,13.688c-1.244,7.242-1.244,44.436-1.244,51.927s-.5,18.217.249,22.4a36.894,36.894,0,0,0,4.243,10.49c.759,1.244,4.977,2.24,6.5,1.991s5.239-3.484,5.239-3.484a2.041,2.041,0,0,0-1.991-1.755,4.193,4.193,0,0,1-3.5-1.493c-.5-.747,1.244-7.242,1.244-7.242s1.244,5.737,2.252,4.977,2.24.249,2.24-2.738a47.972,47.972,0,0,0-.5-6.222,21.887,21.887,0,0,0,0-7.74c-.747-4.492-4.243-8.238-4.243-10.988s9.743-30.449,12.73-41.437a109.35,109.35,0,0,0,3.5-20.719l1.991-12.655Z" transform="translate(-168.868 -55.445)" fill="#ffead9"/>
          <path id="Tracé_188" data-name="Tracé 188" d="M180.2,332.38c-1.966,0-5.637-.933-6.483-2.327a37.964,37.964,0,0,1-4.318-10.7c-.548-3.111-.436-9.519-.336-15.729,0-2.389.075-4.741.075-6.844,0-16.712.162-45.693,1.244-52.039a63.564,63.564,0,0,1,4.256-13.775l1.543-16.575,24.228,5.264-2.078,13.315a111.411,111.411,0,0,1-3.509,20.781c-1.344,4.915-4.007,13.091-6.583,21-3.011,9.27-6.135,18.852-6.135,20.271a11.2,11.2,0,0,0,1.692,4.392,22.127,22.127,0,0,1,2.489,6.5,22.574,22.574,0,0,1,0,7.852,48.637,48.637,0,0,1,.485,6.222c0,2.2-.635,2.75-1.817,3.011a1.593,1.593,0,0,0-.672.236.908.908,0,0,1-.883.137c-.684-.261-1.244-1.568-1.73-3.086a18.142,18.142,0,0,0-.709,4.418,3.733,3.733,0,0,0,2.974,1.195,2.626,2.626,0,0,1,2.613,2.29v.336l-.261.212c-.4.348-3.92,3.372-5.55,3.646A4.906,4.906,0,0,1,180.2,332.38ZM177.316,215.9l-1.531,15.43a63.114,63.114,0,0,0-4.193,13.688c-.8,4.641-1.244,23.046-1.244,51.827,0,2.1,0,4.467-.075,6.869-.1,6.147-.212,12.444.324,15.492a35.611,35.611,0,0,0,4.156,10.266c.547.908,4.455,1.941,5.861,1.7.9-.149,3.2-1.879,4.641-3.1a1.319,1.319,0,0,0-1.244-.908,4.8,4.8,0,0,1-4.019-1.779c-.436-.647,0-3.248,1.17-7.74l.66-2.489.547,2.489a17.482,17.482,0,0,0,1.481,4.492,3.05,3.05,0,0,1,.946-.324c.56-.124.834-.187.834-1.792a48.969,48.969,0,0,0-.485-6.135v-.236a18.728,18.728,0,0,0-2.489-13.613,11.846,11.846,0,0,1-1.829-4.977c0-1.506,2.339-8.81,6.222-20.656,2.576-7.889,5.226-16.065,6.558-20.943a108.812,108.812,0,0,0,3.472-20.594l1.916-12.207Z" transform="translate(-168.984 -55.594)" fill="#263238"/>
          <path id="Tracé_189" data-name="Tracé 189" d="M238.1,131.05s2.675,13.327-.585,20.432-18.665,15.256-21.627,17.185-22.224,5.923-29.927,18.516-12.22,48.8-12.22,50.894l28.458,6.968s-.46,14.634-.46,19.673-8.225,21.5-11.9,51.255,11.9,100.668,11.9,100.668-1.369,20.594-2.277,33.859,2.277,67.27,2.277,67.27-2.277,9.146-4.977,11.436-11.9,7.777-12.356,10.067,1.369,2.75,3.658,3.658,34.319,0,34.319,0,3.658-2.29,3.21-10.527-.46-12.344-.46-12.344,1.829-7.329,2.75-10.988.448-10.067.908-15.554S235.2,415.261,235.2,408.9s8.711-80.087,8.711-80.087l5.488,78.706s3.2,104.526,4.579,107.711a25.918,25.918,0,0,0,3.2,5.488l-.908,4.579.908,7.777s-2.29,10.067,0,10.067h27.911s4.579-4.119,2.75-8.238-4.119-8.225-4.119-8.225l-3.2-9.159s2.738-5.488,2.738-8.238v-13.3c0-6.408,5.488-98.105,5.488-98.105s5.04-41.636,6.408-71.389-5.948-50.334-8.71-56.743a57.24,57.24,0,0,1-3.671-12.8l.921-14.186,4.119,6.856,30.6-10.067-16.936-47.124s-9.606-13.688-14.646-17.857-17.807-7.043-21.963-9.88c-3.223-2.215-5.239-17.272-5.239-17.272Z" transform="translate(-167.822 -75.959)" fill="#07b5e7"/>
          <path id="Tracé_190" data-name="Tracé 190" d="M198.431,544.249c-5.338,0-9.669-.112-10.515-.448l-.622-.249c-2.028-.784-3.945-1.531-3.422-4.119.336-1.7,3.833-4.243,8.71-7.64,1.543-1.083,3.011-2.1,3.833-2.775,2.091-1.755,4.156-8.462,4.8-11.025-.149-2.588-3.173-54.353-2.277-67.2s2.178-32.353,2.277-33.784c-.622-2.862-15.467-71.75-11.884-100.793a220.252,220.252,0,0,1,9.507-42c1.381-4.368,2.377-7.528,2.377-9.171,0-4.455.373-16.575.448-19.188l-28.446-6.956v-.5c0-1.543,4.467-38.388,12.319-51.218,6.048-9.955,19.014-14.547,25.982-17.048a26.89,26.89,0,0,0,4.119-1.667c.473-.3,1.244-.759,2.215-1.331,4.977-2.924,16.525-9.756,19.188-15.579,3.136-6.844.572-19.91.547-20.059l-.324-1.618L260.325,147.4v.261c.548,4.119,2.489,15.156,4.977,16.849a48.715,48.715,0,0,0,8.711,3.733c4.828,1.767,10.3,3.733,13.24,6.222,5.04,4.119,14.36,17.421,14.758,17.969l.075.149,17.147,47.734L287.5,250.73l-3.36-5.575-.772,12.132a57.083,57.083,0,0,0,3.609,12.593c2.4,5.612,10.154,26.343,8.71,57.016-1.356,29.417-6.359,71.015-6.408,71.426,0,.883-5.488,91.709-5.488,98.03v13.2c0,2.563-2.153,7.167-2.688,8.275l3.111,8.91h0s2.29,4.119,4.106,8.188c1.991,4.48-2.7,8.773-2.9,8.959l-.187.149h-28a1.319,1.319,0,0,1-1.045-.51c-1.381-1.73,0-8.586.411-10.2l-.908-7.777.884-4.393a26.73,26.73,0,0,1-3.111-5.4c-1.381-3.223-4.305-97.234-4.629-107.936l-4.977-72.048c-2.128,18.242-7.914,68.24-7.914,73.417,0,6.72-6.346,83.932-6.408,84.7-.187,2.153-.224,4.455-.249,6.682a44.872,44.872,0,0,1-.684,8.972l-2.725,10.913c0,.6,0,4.716.46,12.244.473,8.5-3.335,10.988-3.5,11.087l-.149.087h-.162C220.381,543.9,207.85,544.249,198.431,544.249ZM174.514,237.888l28.446,6.956v.5c0,.149-.46,14.7-.46,19.661,0,1.829-.971,4.9-2.489,9.544a220.154,220.154,0,0,0-9.457,41.785c-3.609,29.292,11.734,99.748,11.884,100.457v.174s-1.369,20.594-2.29,33.859,2.265,66.648,2.29,67.2v.187c-.1.373-2.377,9.37-5.239,11.759-.859.722-2.277,1.7-3.92,2.85-3.173,2.2-7.951,5.525-8.225,6.869s.411,1.842,2.651,2.713l.635.249c1.58.635,21.042.324,33.871,0,.585-.485,3.173-3.011,2.8-9.88-.46-8.151-.46-12.344-.46-12.381v-.162l2.75-10.975a44.624,44.624,0,0,0,.647-8.711c0-2.252.075-4.579.249-6.782.759-9.121,6.408-78.494,6.408-84.616,0-6.371,8.337-77.15,8.71-80.161h1.244L250.1,407.73c1.244,41.848,3.546,104.986,4.529,107.512a26.431,26.431,0,0,0,3.111,5.338l.187.224-.958,4.766.921,7.79v.1c-.747,3.273-1.443,8.3-.672,9.27h27.724c.772-.759,3.858-4.131,2.427-7.354-1.792-4.044-4.069-8.151-4.094-8.188l-3.31-9.457.124-.237c0-.062,2.675-5.4,2.675-7.964V496.266c0-6.359,5.264-94.4,5.5-98.143,0-.448,5.04-42,6.4-71.376,1.406-30.412-6.222-50.907-8.636-56.469a58.63,58.63,0,0,1-3.733-12.966v-.125l1.045-16.177,4.89,8.138,29.578-9.706-16.687-46.452c-.734-1.045-9.743-13.787-14.472-17.657-2.775-2.265-8.151-4.231-12.879-5.961a48.674,48.674,0,0,1-9.046-3.895c-3.223-2.2-5.139-15.007-5.475-17.421l-20.084-15.243c.61,3.733,1.767,13.414-.908,19.238-2.837,6.222-14.211,12.9-19.686,16.177-.958.572-1.7,1.008-2.165,1.244a26.418,26.418,0,0,1-4.38,1.792c-6.819,2.489-19.524,7.006-25.348,16.525-7.391,12.008-11.734,45.519-12.157,50.1Z" transform="translate(-167.949 -76.243)" fill="#263238"/>
          <path id="Tracé_191" data-name="Tracé 191" d="M287.778,249.612l30.636-10.067-16.936-47.124s-9.606-13.688-14.646-17.857-17.807-7.043-21.963-9.88c-3.223-2.215-5.239-17.272-5.239-17.272L238.078,131.05s2.675,13.327-.585,20.432-18.665,15.256-21.627,17.185-22.224,5.923-29.927,18.516-12.22,48.8-12.22,50.894l28.458,6.968s-.46,14.634-.46,19.673c0,4.094-5.438,15.741-9.445,35.937,11.871,3.733,32.241,8.81,53.433,8.051a330.374,330.374,0,0,0,48.717-5.351,120.192,120.192,0,0,0-8.039-33.6,57.242,57.242,0,0,1-3.671-12.8l.921-14.186Z" transform="translate(-167.826 -75.959)" fill="#07b5e7"/>
          <path id="Tracé_192" data-name="Tracé 192" d="M241.493,309.7c-19.126,0-37.156-4.343-49.264-8.151l-.535-.162.112-.547a232.536,232.536,0,0,1,7.056-26.654c1.381-4.368,2.377-7.528,2.377-9.171,0-4.455.373-16.575.448-19.188l-28.446-6.956v-.5c0-1.543,4.467-38.4,12.307-51.218,6.06-9.955,19.026-14.547,25.995-17.048a28.277,28.277,0,0,0,4.119-1.667c.473-.3,1.244-.759,2.215-1.331,4.977-2.924,16.525-9.756,19.188-15.579,3.136-6.844.572-19.91.547-20.059l-.324-1.618,23.058,17.508v.261c.56,4.119,2.489,15.156,4.977,16.849a48.714,48.714,0,0,0,8.711,3.733c4.828,1.767,10.3,3.733,13.24,6.222,5.04,4.119,14.36,17.421,14.758,17.969l.075.149,17.147,47.734-31.731,10.415-3.36-5.575-.771,12.132A57.078,57.078,0,0,0,287,269.84c1.817,4.231,6.222,16.015,8.088,33.784l.062.572-.56.1a330.2,330.2,0,0,1-48.829,5.363Q243.683,309.7,241.493,309.7Zm-48.356-9.183c12.941,4.019,32.428,8.586,52.686,7.852a331.616,331.616,0,0,0,48.07-5.226c-1.867-17.284-6.222-28.72-7.939-32.863a58.632,58.632,0,0,1-3.733-12.966v-.124l1.045-16.177,4.89,8.138,29.578-9.706L301.11,193c-.734-1.045-9.743-13.787-14.472-17.657-2.775-2.265-8.151-4.231-12.879-5.96a48.68,48.68,0,0,1-9.046-3.895c-3.223-2.2-5.139-15.007-5.475-17.421l-20.084-15.243c.61,3.733,1.767,13.414-.908,19.238-2.837,6.222-14.211,12.9-19.686,16.177-.958.572-1.7,1.008-2.165,1.244a26.412,26.412,0,0,1-4.38,1.792c-6.819,2.489-19.524,7.006-25.348,16.525-7.342,12.008-11.685,45.481-12.108,50.1l28.446,6.956v.5c0,.149-.46,14.7-.46,19.661,0,1.829-.971,4.9-2.489,9.544a235,235,0,0,0-6.919,25.957Z" transform="translate(-167.944 -76.252)" fill="#263238"/>
          <rect id="Rectangle_15" data-name="Rectangle 15" width="25.522" height="1.244" transform="matrix(0.84, -0.543, 0.543, 0.84, 78.763, 184.887)" fill="#263238"/>
          <rect id="Rectangle_16" data-name="Rectangle 16" width="5.239" height="1.244" transform="matrix(0.84, -0.543, 0.543, 0.84, 103.914, 168.637)" fill="#263238"/>
          <rect id="Rectangle_17" data-name="Rectangle 17" width="13.526" height="1.244" transform="translate(89.865 183.008) rotate(-30.07)" fill="#263238"/>
          <path id="Tracé_193" data-name="Tracé 193" d="M239.977,196.324h-1.244A102.148,102.148,0,0,0,235,170.641l1.244-.361A103.281,103.281,0,0,1,239.977,196.324Z" transform="translate(-152.852 -66.373)" fill="#263238"/>
          <path id="Tracé_194" data-name="Tracé 194" d="M238.924,173.743a1.891,1.891,0,1,1,1.879-1.879A1.892,1.892,0,0,1,238.924,173.743Zm0-2.489a.647.647,0,1,0,.635.647.635.635,0,0,0-.635-.747Z" transform="translate(-152.359 -66.451)" fill="#263238"/>
          <path id="Tracé_195" data-name="Tracé 195" d="M240.644,181.423a1.891,1.891,0,1,1,1.879-1.891,1.892,1.892,0,0,1-1.879,1.891Zm0-2.489a.647.647,0,1,0,.635.635.635.635,0,0,0-.635-.672Z" transform="translate(-151.938 -64.575)" fill="#263238"/>
          <path id="Tracé_196" data-name="Tracé 196" d="M242.369,189.138a1.879,1.879,0,1,1,1.879-1.879A1.879,1.879,0,0,1,242.369,189.138Zm0-2.489a.265.265,0,1,0,0-.025Z" transform="translate(-151.511 -62.683)" fill="#263238"/>
          <path id="Tracé_197" data-name="Tracé 197" d="M230.3,174.739c10.54,5.662,21.851.6,28.745-7.765a26.132,26.132,0,0,1-4.8-2.29C251.017,162.47,249,147.413,249,147.413L227.449,131.05s2.675,13.327-.585,20.432c-1.468,3.21-5.4,6.62-9.544,9.569A27.6,27.6,0,0,0,230.3,174.739Z" transform="translate(-157.172 -75.959)" fill="#ffead9"/>
          <path id="Tracé_198" data-name="Tracé 198" d="M239.733,178.039a19.91,19.91,0,0,1-9.582-2.489h0a28.322,28.322,0,0,1-13.265-13.987l-.187-.46.411-.286c4.977-3.571,8.138-6.707,9.333-9.32,3.136-6.844.572-19.91.548-20.059l-.324-1.618,23.058,17.508v.261c.56,4.119,2.489,15.156,4.977,16.849a26.965,26.965,0,0,0,4.679,2.215l.8.311-.548.66C254.864,173.509,247.535,178.039,239.733,178.039Zm-8.972-3.546c10.776,5.786,21.353,0,27.376-6.968a22.646,22.646,0,0,1-4.106-2.028c-3.223-2.2-5.139-15.007-5.475-17.421l-20.084-15.243c.61,3.733,1.767,13.414-.908,19.238-1.244,2.75-4.405,5.948-9.345,9.532a27.289,27.289,0,0,0,12.444,12.916Z" transform="translate(-157.324 -76.26)" fill="#263238"/>
          <path id="Tracé_199" data-name="Tracé 199" d="M234.59,149.14s5.338,6,7.566,8.71a20.8,20.8,0,0,0,5.786,4.442l.884-8.449Z" transform="translate(-152.952 -71.539)" fill="#000032"/>
          <path id="Tracé_200" data-name="Tracé 200" d="M248.853,163.473l-.809-.4a21.052,21.052,0,0,1-5.973-4.6c-2.2-2.638-7.466-8.6-7.553-8.71L233,148.08l16.9,5.55ZM236.97,150.706c1.755,1.991,4.592,5.214,6.048,6.968a19.113,19.113,0,0,0,4.791,3.845l.734-7.018Z" transform="translate(-153.341 -71.798)" fill="#263238"/>
          <path id="Tracé_201" data-name="Tracé 201" d="M265.6,188.154l-1.244-.311c.585-2.24,1.145-4.243,1.145-4.243l1.244.336S266.177,185.927,265.6,188.154Z" transform="translate(-145.678 -63.118)" fill="#263238"/>
          <path id="Tracé_202" data-name="Tracé 202" d="M262.74,228.617l-1.12-.535c0-.1,4.579-9.594,4.791-15.5.149-4.144-1.12-11.3-1.966-16.027a41.427,41.427,0,0,1-.659-4.293,11.949,11.949,0,0,1,.411-2.426l1.244.274a12.931,12.931,0,0,0-.373,2.153c0,.423.3,2.115.647,4.069.846,4.791,2.128,12.02,1.979,16.289C267.431,218.836,262.927,228.256,262.74,228.617Z" transform="translate(-146.347 -61.596)" fill="#263238"/>
          <path id="Tracé_203" data-name="Tracé 203" d="M197.822,226.323l-1.232-.174L199,198.387l1.232.1-1.468,16.961,5.052-24.788,1.219.249Z" transform="translate(-162.238 -61.393)" fill="#263238"/>
          <path id="Tracé_204" data-name="Tracé 204" d="M267.482,451.708l-3.2-9.158s-9.494-6.222-14.223-4.243a9.955,9.955,0,0,0-5.749,6.072l-3.372,1.369-.908,4.579.908,7.777s-2.29,10.067,0,10.067h27.911s4.579-4.119,2.75-8.238S267.482,451.708,267.482,451.708Z" transform="translate(-151.649 -0.974)" fill="#fff"/>
          <path id="Tracé_205" data-name="Tracé 205" d="M269.21,468.885H241.063a1.319,1.319,0,0,1-1.045-.51c-1.381-1.73,0-8.586.411-10.2l-.908-7.777,1-4.977,3.36-1.406a10.689,10.689,0,0,1,6.01-6.222c4.977-2.14,14.41,4.032,14.808,4.293l.174.124,3.26,9.3c.261.473,2.4,4.38,4.119,8.238,1.991,4.48-2.7,8.773-2.9,8.959Zm-28.434-18.441.921,7.79v.1c-.747,3.273-1.443,8.3-.672,9.27H268.75c.771-.759,3.858-4.131,2.426-7.354-1.792-4.044-4.069-8.151-4.094-8.188v-.1l-3.136-8.947c-1.244-.821-9.432-5.824-13.464-4.081a9.146,9.146,0,0,0-5.376,5.662l-.075.3-3.36,1.369Z" transform="translate(-151.773 -1.115)" fill="#263238"/>
          <path id="Tracé_206" data-name="Tracé 206" d="M223.462,457.411c-.348-6.222-.436-10.067-.46-11.6l-6.147.436s-2.7-6.757-8.1-8.1-9.1,4.629-9.1,4.629-2.277,9.146-4.977,11.436-11.9,7.777-12.356,10.067,1.369,2.75,3.658,3.658,34.319,0,34.319,0S223.91,465.649,223.462,457.411Z" transform="translate(-165.741 -0.965)" fill="#fff"/>
          <path id="Tracé_207" data-name="Tracé 207" d="M196.356,469.1c-5.338,0-9.669-.112-10.515-.448l-.622-.249c-2.028-.784-3.945-1.531-3.422-4.119.336-1.7,3.833-4.243,8.711-7.64,1.543-1.083,3.011-2.1,3.833-2.775,2.128-1.779,4.206-8.623,4.828-11.112l.075-.187c.162-.249,3.994-6.346,9.768-4.9,4.9,1.244,7.64,6.508,8.35,8.063l6.371-.46v.66c0,1.742.124,5.55.46,11.585h0c.473,8.5-3.335,10.988-3.5,11.087l-.149.087h-.162C218.307,468.747,205.776,469.1,196.356,469.1Zm4.019-25.982c-.274,1.07-2.489,9.382-5.214,11.66-.859.722-2.277,1.7-3.92,2.849-3.173,2.2-7.951,5.525-8.225,6.869s.411,1.842,2.651,2.713l.635.249c1.58.635,21.042.324,33.871,0,.585-.485,3.173-3.011,2.8-9.88h0c-.3-5.376-.411-9.009-.448-10.963l-5.936.423-.174-.423c0-.062-2.65-6.483-7.678-7.74C204.133,437.725,200.811,442.491,200.375,443.114Z" transform="translate(-165.874 -1.09)" fill="#263238"/>
          <path id="Tracé_208" data-name="Tracé 208" d="M221.713,127.588s-1.493-14.708,4.455-24.365S247,91.19,256.953,94.314,275.071,106.5,276.4,113.178s-.585,16.637-1.481,19.312-2.825,3.857-2.825,6.384.448,10.4-2.489,15.007-8.312,13.364-10.838,14.932-6.533,1.244-8.325.6a16.863,16.863,0,0,1-2.812-1.244s-10.1-5.04-13.377-8.611-5.052-8.014-6.682-12.033-2.974-8.71-2.974-8.71Z" transform="translate(-156.14 -85.252)" fill="#ffead9"/>
          <path id="Tracé_209" data-name="Tracé 209" d="M254.216,170.749a12.778,12.778,0,0,1-3.907-.572,16.512,16.512,0,0,1-2.937-1.244c-.386-.2-10.216-5.127-13.526-8.711s-5.1-8.051-6.707-12.008l-.087-.212c-1.63-3.994-2.986-8.785-3-8.835l-2.837-11.386c-.062-.61-1.443-15.032,4.542-24.75s21.055-12.444,31.47-9.183c10.216,3.21,18.529,12.58,19.91,19.337s-.5,16.637-1.506,19.623a12.093,12.093,0,0,1-1.506,2.924,5.824,5.824,0,0,0-1.244,3.273v.884c0,3.3.149,10.141-2.638,14.459l-1.344,2.1c-3.111,4.89-7.391,11.6-9.681,13.078a9.158,9.158,0,0,1-5,1.219Zm-31.768-43.154,2.812,11.2s1.344,4.741,2.937,8.71l.087.224c1.58,3.845,3.347,8.213,6.483,11.622s13.091,8.437,13.19,8.487a18.507,18.507,0,0,0,2.738,1.157c1.506.5,5.388,1.02,7.79-.535,2.066-1.331,6.421-8.175,9.308-12.7l1.344-2.115c2.576-3.982,2.489-10.589,2.489-13.75v-.908a6.944,6.944,0,0,1,1.481-3.957,11.112,11.112,0,0,0,1.381-2.626c.933-2.812,2.738-12.58,1.456-18.989s-9.3-15.318-19.088-18.379-24.277-.709-30.039,8.636C221.215,112.787,222.373,126.711,222.447,127.595Z" transform="translate(-156.265 -85.371)" fill="#263238"/>
          <path id="Tracé_210" data-name="Tracé 210" d="M276.357,113.177c-1.331-6.682-9.457-15.754-19.412-18.864s-24.813-.747-30.748,8.91-4.455,24.365-4.455,24.365l2.016,8.1,5.114-2.9s4.753-2.09,5.04-4.9,1.941-3.273,4.318-5.5,2.663-14.858,15.592-16.637c10.341-1.431,17.633,1.916,22.8,8.71Q276.494,113.837,276.357,113.177Z" transform="translate(-156.132 -85.251)" fill="#000032"/>
          <path id="Tracé_211" data-name="Tracé 211" d="M223.475,136.767l-2.227-8.9c-.075-.7-1.456-15.119,4.529-24.887s21.055-12.444,31.47-9.183c10.216,3.21,18.529,12.58,19.91,19.337h0c.1.448.174.921.236,1.394l.311,2.339-1.431-1.879c-5.313-7.08-12.58-9.868-22.212-8.549-9.158,1.244-11.709,8.163-13.389,12.717a10.541,10.541,0,0,1-1.866,3.733c-.622.585-1.244,1.045-1.692,1.456-1.443,1.17-2.227,1.8-2.426,3.658-.324,3.148-5.214,5.313-5.413,5.4Zm24.514-43.017c-8.275,0-16.985,3.136-21.154,9.955-5.761,9.358-4.38,23.829-4.368,23.979l1.817,7.217,4.393-2.489c1.244-.572,4.529-2.414,4.741-4.43.249-2.352,1.406-3.3,2.874-4.492.485-.386,1.033-.834,1.618-1.394a10.5,10.5,0,0,0,1.555-3.273c1.68-4.554,4.492-12.157,14.385-13.526,9.183-1.244,16.338,1.058,21.776,7.08-1.891-6.222-9.494-14.4-18.752-17.3A29.678,29.678,0,0,0,247.988,93.749Z" transform="translate(-156.259 -85.384)" fill="#263238"/>
          <path id="Tracé_212" data-name="Tracé 212" d="M231.013,137.925s-2.377,2.377-4.9,1.033-5.948-4.9-6.682-11.884,2.974-9.806,6.981-7.466,4.754,9.221,4.754,9.221" transform="translate(-156.68 -78.952)" fill="#ffead9"/>
          <path id="Tracé_213" data-name="Tracé 213" d="M227.864,140.12a3.932,3.932,0,0,1-1.916-.5c-1.419-.747-6.11-3.858-7.018-12.356-.423-3.945.523-6.956,2.576-8.275a4.977,4.977,0,0,1,5.338.236c4.231,2.489,4.977,9.395,5.052,9.681l-1.244.137s-.759-6.558-4.455-8.71a3.733,3.733,0,0,0-4.032-.261c-1.618,1.033-2.377,3.733-2.016,7.093.846,7.9,5.089,10.726,6.359,11.4,2.091,1.107,4.156-.908,4.181-.933l.871.883A5.836,5.836,0,0,1,227.864,140.12Z" transform="translate(-156.803 -79.068)" fill="#263238"/>
          <path id="Tracé_214" data-name="Tracé 214" d="M252.725,144.239a2.265,2.265,0,0,1-1.1-.236l.622-1.083a6.109,6.109,0,0,0,3.3-.585c1.17-.46,1.792-.971,1.879-1.244.174-.585-.61-2.252-1.244-3.472a10.389,10.389,0,0,1-1.244-3.472,77.575,77.575,0,0,1,1.954-9.221l.087-.311L261,123.16l.423,1.17-3.41,1.244a73.929,73.929,0,0,0-1.829,8.586,10.292,10.292,0,0,0,1.107,2.937c.8,1.717,1.555,3.322,1.244,4.368s-1.58,1.667-2.6,2.078A10.2,10.2,0,0,1,252.725,144.239Z" transform="translate(-148.789 -77.887)" fill="#263238"/>
          <path id="Tracé_215" data-name="Tracé 215" d="M253.078,146.117c-7.466,0-9.669-4.318-9.768-4.517l1.12-.548-.56.274.56-.286c.075.174,2.2,4.094,9.37,3.82V146.1Z" transform="translate(-150.822 -73.518)" fill="#263238"/>
          <path id="Tracé_216" data-name="Tracé 216" d="M248.813,130.72a19.649,19.649,0,0,1-7.653-1.667l.523-1.132a17.732,17.732,0,0,0,9.718,1.244l.249,1.244A13.977,13.977,0,0,1,248.813,130.72Z" transform="translate(-151.347 -76.724)" fill="#263238"/>
          <path id="Tracé_217" data-name="Tracé 217" d="M241.938,122.361l-.548-1.12c5.376-2.6,11.946-.274,12.22-.174l-.423,1.17C253.124,122.224,246.828,120,241.938,122.361Z" transform="translate(-151.291 -78.656)" fill="#263238"/>
          <path id="Tracé_218" data-name="Tracé 218" d="M246.507,131.755a8.076,8.076,0,0,1-2.937-.734l.473-1.157a5.587,5.587,0,0,0,2.65.635l.622-.859,1.008.722-.933,1.244a1.617,1.617,0,0,1-.884.149Z" transform="translate(-150.758 -76.304)" fill="#263238"/>
          <path id="Tracé_219" data-name="Tracé 219" d="M260.567,131.839a11.56,11.56,0,0,1-4.977-1.244l.585-1.1a9.569,9.569,0,0,0,6.408.771l.373,1.244A7.814,7.814,0,0,1,260.567,131.839Z" transform="translate(-147.821 -76.338)" fill="#263238"/>
          <path id="Tracé_220" data-name="Tracé 220" d="M259.4,132.806a5.077,5.077,0,0,1-2.041-.56l.523-1.132a3.372,3.372,0,0,0,1.531.448l.336-.672,1.12.548-.622,1.12A1.244,1.244,0,0,1,259.4,132.806Z" transform="translate(-147.388 -75.998)" fill="#263238"/>
          <path id="Tracé_221" data-name="Tracé 221" d="M263.045,125.763c-.423-1.381-2.551-1.058-2.576-1.058l-.2-1.244c1.12-.187,3.372,0,3.97,1.916Z" transform="translate(-146.677 -77.827)" fill="#263238"/>
        </g>
        <g id="Character_1" data-name="Character 1" transform="translate(179.709 197.882)">
          <path id="Tracé_222" data-name="Tracé 222" d="M180.133,391.274s-12.605-5.55-25.609-3.882c-15.231,1.941-24.962,10.689-30.474,23.979s-5.3,36.982,8.71,51.865a56.867,56.867,0,0,0,20.818,14.4,51.668,51.668,0,0,0,17.794,3.111h91.908a18.976,18.976,0,0,0,16.338-9.308c5.04-8.536,10.851-22.05,8.711-36.721-3.559-24.638-20.1-31.445-21.714-32.092S180.133,391.274,180.133,391.274Z" transform="translate(-120.151 -141.461)" fill="#9e9e9e"/>
          <path id="Tracé_223" data-name="Tracé 223" d="M263.437,481.487H171.528a52.012,52.012,0,0,1-17.993-3.148c-7.118-2.6-14.783-7.9-21.067-14.547-14.683-15.567-14.036-40.093-8.872-52.537,5.936-14.3,16.351-22.5,30.972-24.364,12.444-1.593,24.7,3.422,25.845,3.907,9.109,1.145,84.977,10.714,86.62,11.373,3.074,1.244,18.665,8.586,22.1,32.577,2.128,14.746-3.609,28.334-8.81,37.132a19.685,19.685,0,0,1-16.886,9.606ZM159.62,387.824a38.719,38.719,0,0,0-4.915.3c-14.136,1.8-24.228,9.756-29.977,23.643-4.977,12.145-5.674,36.086,8.636,51.205a56.83,56.83,0,0,0,20.582,14.235,50.808,50.808,0,0,0,17.583,3.074h91.908a18.429,18.429,0,0,0,15.8-9c5.089-8.623,10.726-21.925,8.648-36.323-3.372-23.344-18.367-30.437-21.341-31.681-1.8-.56-57.24-7.64-86.383-11.3h-.174a57.239,57.239,0,0,0-20.37-4.156Z" transform="translate(-120.256 -141.583)" fill="#263238"/>
          <path id="Tracé_224" data-name="Tracé 224" d="M225.029,199.993s5.264,6.06,6.856,11.859a29.181,29.181,0,0,0,4.218,9.756c1.045,1.58,7.118,5.276,7.118,8.711S239,235.594,239,235.594s.523,11.336.784,14.771.8,4.977-1.058,6.856a31.567,31.567,0,0,1-5.8,3.957s-12.655,13.4-14.248,15.007-37.443-12.444-37.443-12.444,1.058-3.422,1.854-5.264l.784-1.854s-11.6-21.614-14.235-32.689,15.032-27.376,20.831-31.109,24.514-2.638,29.529-2.115,7.391,1.369,7.391,4.231v2.9l3.173-1.058S229.247,201.039,225.029,199.993Z" transform="translate(-108.254 -189.583)" fill="#eeae8c"/>
          <path id="Tracé_225" data-name="Tracé 225" d="M218.417,276.941c-4.579,0-24.887-7.628-37.268-12.444a.635.635,0,0,1-.373-.759,54.13,54.13,0,0,1,1.879-5.338l.672-1.568c-1.394-2.626-11.66-22.087-14.161-32.577-2.8-11.784,16.04-28.62,21.154-31.793,6.906-4.393,29.7-2.227,29.927-2.2,4.5.473,7.939,1.132,7.939,4.841v2.041l2.352-.784a.635.635,0,0,1,.635.149.61.61,0,0,1,.149.622,5.239,5.239,0,0,1-4.679,3.733,34.558,34.558,0,0,1,6.01,10.913,29.056,29.056,0,0,0,4.131,9.582,14.25,14.25,0,0,0,1.966,1.854c2.215,1.916,5.264,4.529,5.264,7.18,0,3.173-3.086,5.077-4.206,5.662.1,2.053.535,11.324.771,14.335a12.563,12.563,0,0,0,.137,1.468c.236,2.489.4,4.106-1.369,5.873a30.836,30.836,0,0,1-5.861,4.019c-1.107,1.182-12.655,13.439-14.186,14.932A1.245,1.245,0,0,1,218.417,276.941Zm-36.273-13.452c13.14,5.1,34.071,12.73,36.3,12.257,1.792-1.817,14.036-14.82,14.161-14.932l.162-.124a30,30,0,0,0,5.649-3.845c1.356-1.344,1.244-2.489,1.008-4.878,0-.448-.087-.946-.137-1.481-.261-3.4-.784-14.671-.784-14.783a.647.647,0,0,1,.373-.61s3.845-1.73,3.845-4.7c0-2.078-2.8-4.48-4.841-6.222a13.685,13.685,0,0,1-2.178-2.115A30.089,30.089,0,0,1,231.4,212.1c-1.518-5.587-6.67-11.56-6.719-11.61a.635.635,0,0,1-.062-.734.622.622,0,0,1,.684-.286,3.633,3.633,0,0,0,4.144-1.493l-1.73.585a.627.627,0,0,1-.821-.6V195.05c0-2.227-1.531-3.036-6.819-3.6-4.7-.5-23.444-1.605-29.13,2.016s-23.07,19.91-20.557,30.437c2.588,10.876,14.061,32.353,14.173,32.552a.622.622,0,0,1,0,.535l-.784,1.842C183.214,260.229,182.48,262.494,182.144,263.489Z" transform="translate(-108.374 -189.691)" fill="#263238"/>
          <path id="Tracé_226" data-name="Tracé 226" d="M216.851,199.985a72.57,72.57,0,0,0,8.175,0c4.218,1.045,5.537-3.173,5.537-3.173l-3.173,1.058v-2.937c0-2.9-2.364-3.733-7.379-4.218s-23.73-1.58-29.529,2.115-23.469,20.034-20.831,31.109,14.186,32.727,14.186,32.727,1.842,0,7.653-1.842,7.9-9.494,7.9-9.494-6.583-2.364-8.175-4.977.274-11.336,3.434-12.444,7.914,2.638,9.221,2.9,1.854-.8,2.912-2.377-.535-3.957-.535-5.276,6.334-8.437,7.653-11.336-8.972-8.437-8.437-11.075S212.632,199.724,216.851,199.985Z" transform="translate(-108.251 -189.575)" fill="#000032"/>
          <path id="Tracé_227" data-name="Tracé 227" d="M183.971,257.407a.634.634,0,0,1-.548-.324c-.473-.883-11.672-21.814-14.3-32.839-2.8-11.784,16.04-28.62,21.154-31.793,6.906-4.393,29.7-2.227,29.927-2.2,4.5.473,7.939,1.132,7.939,4.841v2.041l2.352-.784a.635.635,0,0,1,.635.149.61.61,0,0,1,.149.622,5.127,5.127,0,0,1-6.222,3.609,73.888,73.888,0,0,1-8.151,0c-.983-.062-2.066-.2-3.2-.324-3.036-.361-7.2-.859-7.466.61-.174.884,2.14,2.937,3.845,4.43,2.8,2.489,5.438,4.816,4.542,6.782a43.339,43.339,0,0,1-4.218,6.16,29.867,29.867,0,0,0-3.372,4.977,5.874,5.874,0,0,0,.361,1.443c.411,1.244.921,2.862,0,4.156l-.3.448c-.871,1.344-1.63,2.489-3.235,2.19a9.17,9.17,0,0,1-2.041-.946c-1.941-1.058-4.878-2.638-6.869-1.978-.933.311-1.867,1.593-2.588,3.509-1.1,2.962-1.319,6.608-.51,7.976,1.244,2,6.085,4.106,7.852,4.741a.622.622,0,0,1,.386.759c-.087.323-2.265,7.989-8.312,9.955C186.036,257.395,184.1,257.407,183.971,257.407Zm23.991-66.474c-6.608,0-13.875.548-17.06,2.576-5.824,3.733-23.07,19.91-20.557,30.437,2.4,10.092,12.444,29.329,13.987,32.192a40.067,40.067,0,0,0,7.093-1.792c4.542-1.443,6.732-6.794,7.329-8.524-1.667-.647-6.52-2.713-7.927-5.065-1.145-1.891-.684-6.085.411-9.047.846-2.3,2.041-3.82,3.347-4.256,2.489-.834,5.724.908,7.852,2.066a11.262,11.262,0,0,0,1.692.821c.7.137,1.02-.211,1.966-1.655l.3-.46c.523-.784.137-2-.212-3.074a6.221,6.221,0,0,1-.423-1.854c0-.809,1.045-2.265,3.621-5.662a45.371,45.371,0,0,0,4.081-5.923c.51-1.132-2.227-3.559-4.243-5.338-2.489-2.165-4.554-4.019-4.231-5.612.51-2.588,4.753-2.091,8.847-1.605,1.132.137,2.19.261,3.136.324a71.479,71.479,0,0,0,8.088,0h.2a3.633,3.633,0,0,0,4.144-1.493l-1.73.585a.627.627,0,0,1-.821-.6v-2.924c0-2.227-1.531-3.036-6.819-3.6-2.028-.137-6.819-.523-12.021-.523Z" transform="translate(-108.384 -189.694)" fill="#263238"/>
          <path id="Tracé_228" data-name="Tracé 228" d="M216.909,250a24.962,24.962,0,0,1-12.444-3.285c-6.222-3.733-7.105-7.354-7.143-7.466a.635.635,0,0,1,.473-.747.622.622,0,0,1,.747.473s.859,3.248,6.57,6.732a24.327,24.327,0,0,0,12.817,3.074.618.618,0,1,1,.087,1.232A10.134,10.134,0,0,1,216.909,250Z" transform="translate(-101.428 -177.771)" fill="#263238"/>
          <path id="Tracé_229" data-name="Tracé 229" d="M221.923,234.136c-5.55,0-7.889-3.036-7.989-3.161a.622.622,0,1,1,1-.747c.1.124,2.29,2.887,7.64,2.65a.622.622,0,0,1,.659.585.647.647,0,0,1-.6.66Z" transform="translate(-97.396 -179.849)" fill="#263238"/>
          <path id="Tracé_230" data-name="Tracé 230" d="M219.888,215.461c.51,1.506.373,2.924-.311,3.161s-1.655-.809-2.165-2.315-.386-2.924.3-3.161S219.365,213.918,219.888,215.461Z" transform="translate(-96.592 -183.971)" fill="#000032"/>
          <path id="Tracé_231" data-name="Tracé 231" d="M214.261,213.044a.548.548,0,0,1-.274,0,.61.61,0,0,1-.274-.834,5.189,5.189,0,0,1,6.359-2.738.626.626,0,1,1-.411,1.182c-3.161-1.12-4.778,1.979-4.841,2.115A.622.622,0,0,1,214.261,213.044Z" transform="translate(-97.437 -184.927)" fill="#263238"/>
          <path id="Tracé_232" data-name="Tracé 232" d="M303.168,440.94s2.787,8.947,10.2,14.223,17.969,6.707,19.847,8.312-1.331,3.5-1.331,3.5h-43.2l-.274-25.236Z" transform="translate(-79.167 -128.3)" fill="#000032"/>
          <path id="Tracé_233" data-name="Tracé 233" d="M332.174,467.721H288.186l-.286-26.443,15.841-.859.149.46c0,.087,2.812,8.81,9.955,13.9,4.579,3.26,10.39,4.978,14.621,6.309a19.018,19.018,0,0,1,5.276,2.041,2.016,2.016,0,0,1,.8,1.755c-.137,1.481-2.016,2.626-2.227,2.75Zm-42.756-1.244h42.408c.6-.386,1.431-1.12,1.493-1.7a.805.805,0,0,0-.373-.7,19.91,19.91,0,0,0-4.828-1.792c-4.318-1.307-10.229-3.111-14.932-6.5-6.62-4.7-9.594-12.145-10.278-14.074l-13.688.747Z" transform="translate(-79.291 -128.427)" fill="#263238"/>
          <path id="Tracé_234" data-name="Tracé 234" d="M295.456,358.046s13.962-3.484,16.1-.8,6.981,74.325,8.86,86.943,1.344,16.363,1.344,16.363L295.2,468.023s-6.222-31.669-12.879-44.013-19.91-43.2-11-54.466S295.456,358.046,295.456,358.046Z" transform="translate(-84.073 -148.999)" fill="#000032"/>
          <path id="Tracé_235" data-name="Tracé 235" d="M294.823,468.979l-.124-.66c-.062-.323-6.222-31.719-12.817-43.839-6.222-11.361-20.171-43.4-10.95-55.15,8.611-10.963,23.369-11.734,24.564-11.784,2.489-.622,14.41-3.4,16.662-.572,1.331,1.655,3.136,21.963,5.749,52.761,1.244,15.194,2.489,29.541,3.248,34.494,1.867,12.556,1.356,16.388,1.331,16.538v.411ZM307.8,356.987a58.091,58.091,0,0,0-12.07,1.817h-.149c-.149,0-15.106.411-23.643,11.3-8.81,11.2,4.977,42.644,11.062,53.806,6.222,11.436,11.859,38.774,12.8,43.552l25.509-7.2c.075-1.244.137-5.649-1.369-15.8-.747-4.977-1.966-19.35-3.26-34.568-1.792-21.154-4.256-50.284-5.475-52.089-.473-.61-1.742-.834-3.36-.834Z" transform="translate(-84.186 -149.122)" fill="#263238"/>
          <path id="Tracé_236" data-name="Tracé 236" d="M224.033,267.4s21.378,2.24,26.343,1.742,12.929-4.218,26.132-4.467,66.611-1.493,72.073-1.493,34.108-1.132,34.108-1.132,14.671-1,13.688,1-3.982,3.235-7.466,3.982a46.591,46.591,0,0,0-7.466,2.489l-6.458,1.73a50.1,50.1,0,0,0,6.458,1.244c1.493,0,7.466,1,6.222,2.24s-1.742,1.742-4.977,1.742-7.7-1-9.445-1-3.969,1-8.449,1.493-14.8.124-14.8.124l-18.143,2.489s-34.058,9.445-48.966,13.688-21.627,4.467-21.627,4.467-5.712.747-20.383,3.235-34.842,1.244-34.842,1.244Z" transform="translate(-99.294 -172.074)" fill="#000032"/>
          <path id="Tracé_237" data-name="Tracé 237" d="M218.1,303.251c-6.794,0-11.8-.3-11.9-.3a.61.61,0,0,1-.5-.323.572.572,0,0,1,0-.585L223.6,267.2a.572.572,0,0,1,.61-.336c.224,0,21.378,2.215,26.219,1.742a42.179,42.179,0,0,0,5.985-1.319,79.329,79.329,0,0,1,20.171-3.161l26.629-.572c19.7-.436,42.01-.921,45.456-.921,5.4,0,33.871-1.12,34.158-1.132,4.853-.324,13.178-.647,14.2.9a.983.983,0,0,1,.062,1.008c-.983,1.941-3.634,3.385-7.889,4.305a47.684,47.684,0,0,0-7.342,2.489l-4.156,1.132a25.961,25.961,0,0,0,3.907.66c.523,0,6.222.51,6.931,2.14a1.033,1.033,0,0,1-.274,1.157c-1.369,1.369-2.053,1.929-5.413,1.929a46.527,46.527,0,0,1-6.222-.622,29.864,29.864,0,0,0-3.285-.373,13.6,13.6,0,0,0-2.762.473,42,42,0,0,1-5.612,1.008,146.12,146.12,0,0,1-14.932.137l-18.031,2.489c-.261.075-34.145,9.469-48.878,13.688s-21.5,4.48-21.776,4.492c0,0-5.824.771-20.3,3.223A146.831,146.831,0,0,1,218.1,303.251Zm-10.863-1.493c4.169.2,21.079.846,33.7-1.244,14.509-2.489,20.345-3.235,20.407-3.235s6.894-.311,21.527-4.467,48.629-13.576,48.978-13.688l18.217-2.489h0c.261,0,10.453.348,14.82-.137a42.956,42.956,0,0,0,5.463-.983A14.082,14.082,0,0,1,373.4,275a28.976,28.976,0,0,1,3.472.386,44.416,44.416,0,0,0,5.973.61c2.9,0,3.323-.348,4.43-1.456A15.767,15.767,0,0,0,381.6,273.3a49.262,49.262,0,0,1-6.608-1.244.622.622,0,0,1,0-1.244l6.458-1.742a46.184,46.184,0,0,1,7.466-2.489c3.671-.784,6.072-1.991,6.943-3.472-1.244-.635-7.466-.647-12.979-.274-.311,0-28.819,1.132-34.232,1.132-3.434,0-25.746.485-45.419.921l-26.642.572a78.976,78.976,0,0,0-19.91,3.111,43.286,43.286,0,0,1-6.222,1.356c-4.642.473-22.934-1.381-26.044-1.692Z" transform="translate(-99.396 -172.212)" fill="#263238"/>
          <path id="Tracé_238" data-name="Tracé 238" d="M180.667,246.429s47.721,15.915,54.752,20.88,14.659,31.818,15.654,42.507,9.445,45.979,10.191,63.375-1.493,14.932-1.493,14.932-52.188,9.955-62.628,13.427-27.587,21.378-28.085,20.631-.5-15.156,1.493-23.369,3.733-29.578,3.733-29.578-10.44-41.5-10.938-54.926,5.475-42.744,8.2-51.442S178.938,245.682,180.667,246.429Z" transform="translate(-109.734 -175.841)" fill="#fff"/>
          <path id="Tracé_239" data-name="Tracé 239" d="M169.189,422.923h-.112a.735.735,0,0,1-.473-.286c-.772-1.157-.46-16.177,1.406-23.854s3.571-27.774,3.733-29.379c-.7-2.775-10.453-41.823-10.938-54.963-.5-13.688,5.612-43.329,8.238-51.653,2.24-7.143,6.346-15.567,8.9-16.737a1.406,1.406,0,0,1,1.107-.075c2.227.747,47.9,16,54.826,20.955,7.379,5.276,14.932,32.863,15.915,42.955.386,4.131,1.9,12.021,3.658,21.154,2.7,14.086,6.072,31.607,6.533,42.308.635,14.758-.846,15.355-1.468,15.617a.97.97,0,0,1-.771,0c-3.895.747-52.387,10.054-62.305,13.364-7.068,2.352-17.608,11.734-23.269,16.774C170.359,422.388,169.687,422.923,169.189,422.923Zm11.361-175.79c-1.145,0-5.413,6.682-8.35,16.015-2.6,8.262-8.71,37.654-8.175,51.23.5,13.2,10.814,54.391,10.925,54.752a1.249,1.249,0,0,1,0,.212c-.075.871-1.767,21.515-3.733,29.665-1.73,7.13-1.916,19.176-1.643,22.274.784-.622,2.227-1.9,3.733-3.248,6.135-5.45,16.388-14.6,23.643-17.023,10.353-3.459,60.575-13.041,62.716-13.451a.756.756,0,0,1,.336,0c.311-.51,1.132-2.962.647-14.31-.448-10.565-3.808-28.048-6.52-42.084-1.755-9.158-3.273-17.06-3.733-21.266-1.02-10.95-8.785-37.331-15.393-42.047-6.807-4.865-54.042-20.631-54.515-20.793h-.062ZM180.55,247.133Z" transform="translate(-109.866 -175.96)" fill="#263238"/>
          <path id="Tracé_240" data-name="Tracé 240" d="M214.12,291.055l28.471,41.4s-6.744-30.835-6.744-32-.3-12.63-.3-12.63Z" transform="translate(-97.32 -165.716)" fill="#000032"/>
          <path id="Tracé_241" data-name="Tracé 241" d="M242.714,333.2a.622.622,0,0,1-.51-.274l-28.483-41.4a.635.635,0,0,1,.423-.971l21.44-3.223a.622.622,0,0,1,.485.137.609.609,0,0,1,.224.46c0,.473.3,11.473.3,12.643s4.057,19.624,6.732,31.868a.635.635,0,0,1-.361.709.807.807,0,0,1-.249.05Zm-27.376-41.562L241.469,329.6c-1.867-8.561-6.085-28.01-6.085-29.031s-.212-9.395-.286-11.909Z" transform="translate(-97.443 -165.837)" fill="#263238"/>
          <path id="Tracé_242" data-name="Tracé 242" d="M224.743,264.028s21.378,2.24,26.343,1.742,12.929-4.231,26.132-4.48,66.61-1.481,72.086-1.481,33.212,2.725,33.212,2.725,14.671-1,13.688,1-3.982,3.235-7.466,3.982A46.593,46.593,0,0,0,381.271,270l-6.458,1.73a50.115,50.115,0,0,0,6.458,1.244c1.493,0,7.466,1,6.222,2.24s-1.742,1.742-4.977,1.742-7.7-1-9.445-1-3.969,1-8.449,1.493-13.912-3.733-13.912-3.733l-18.155,2.489S298.509,285.655,283.6,289.9s-21.627,4.48-21.627,4.48-5.724.747-20.383,3.235-34.842,1.244-34.842,1.244Z" transform="translate(-99.121 -172.56)" fill="#eeae8c"/>
          <path id="Tracé_243" data-name="Tracé 243" d="M218.811,299.883c-6.794,0-11.8-.3-11.9-.311a.635.635,0,0,1-.51-.311.61.61,0,0,1,0-.585L224.3,263.834a.635.635,0,0,1,.622-.336c.212,0,21.366,2.215,26.219,1.742a42.081,42.081,0,0,0,5.973-1.319,80.66,80.66,0,0,1,20.171-3.161c4.865-.087,15.231-.311,26.654-.56,19.673-.435,41.985-.921,45.444-.921,5.438,0,32.229,2.626,33.361,2.725,4.766-.324,13.091-.647,14.111.9a.983.983,0,0,1,.062,1.008c-.983,1.941-3.634,3.385-7.889,4.306a47.683,47.683,0,0,0-7.342,2.489l-4.156,1.132a25.963,25.963,0,0,0,3.907.659c.523,0,6.222.51,6.931,2.14a1.033,1.033,0,0,1-.274,1.157c-1.369,1.369-2.053,1.929-5.413,1.929a46.545,46.545,0,0,1-6.222-.622,29.883,29.883,0,0,0-3.285-.373,13.6,13.6,0,0,0-2.763.473,41.993,41.993,0,0,1-5.612,1.008c-4.318.473-12.755-3.123-14.086-3.733l-17.968,2.489c-.261.087-34.133,9.482-48.878,13.688s-21.49,4.48-21.764,4.492c0,0-5.824.772-20.308,3.223A146.638,146.638,0,0,1,218.811,299.883Zm-10.876-1.493c4.169.2,21.079.846,33.71-1.244,14.509-2.489,20.345-3.223,20.395-3.235s6.894-.3,21.54-4.455,48.629-13.576,48.965-13.688l18.23-2.489a.535.535,0,0,1,.336,0c.087,0,9.358,4.144,13.6,3.671a42.948,42.948,0,0,0,5.463-.983,14.091,14.091,0,0,1,3.049-.51,29,29,0,0,1,3.472.386,44.408,44.408,0,0,0,5.973.61c2.9,0,3.322-.348,4.43-1.456a15.767,15.767,0,0,0-5.674-1.244,49.244,49.244,0,0,1-6.608-1.244.622.622,0,1,1,0-1.244l6.458-1.742a46.183,46.183,0,0,1,7.466-2.489c3.671-.784,6.072-1.991,6.944-3.472-1.244-.635-7.466-.647-12.979-.274-.386,0-27.973-2.725-33.349-2.725-3.447,0-25.746.485-45.419.921-11.411.249-21.789.473-26.654.56a79.351,79.351,0,0,0-19.91,3.123,43.3,43.3,0,0,1-6.222,1.356c-4.654.46-22.933-1.381-26.044-1.7Z" transform="translate(-99.224 -172.69)" fill="#263238"/>
          <path id="Tracé_244" data-name="Tracé 244" d="M330.228,272.193a12.676,12.676,0,0,1-1.792-.137c-4.816-.759-6.222-2.29-6.346-2.489l.958-.8s1.244,1.344,5.587,2.028a14.833,14.833,0,0,0,8.71-1.9l.236-.087s3.733-.5,6.956-1a70.289,70.289,0,0,0,9.333-2.489,78.99,78.99,0,0,1,7.839-1.244l.137,1.244a72.966,72.966,0,0,0-7.578,1.244,72.565,72.565,0,0,1-9.544,2.489c-2.887.448-6.222.883-6.844.983a16.811,16.811,0,0,1-7.653,2.153Z" transform="translate(-70.937 -171.517)" fill="#263238"/>
          <path id="Tracé_245" data-name="Tracé 245" d="M181.46,263.583s17.421-3.584,25.845-3.969,27.587,5.96,27.587,5.96l-25.845,40.765s-20.631-1-21.627-1" transform="translate(-105.301 -172.612)" fill="#fff"/>
          <path id="Tracé_246" data-name="Tracé 246" d="M209.167,307.1h0c-7.13-.348-20.818-1-21.6-1a.635.635,0,0,1-.622-.622.622.622,0,0,1,.622-.622c.946,0,18.454.834,21.291.971l25.236-39.819c-3.634-1.17-19.337-6.023-26.6-5.687-8.3.373-25.584,3.92-25.758,3.957a.635.635,0,0,1-.249-1.244c.174,0,17.558-3.6,25.945-3.982s27.027,5.724,27.811,5.985a.622.622,0,0,1,.386.386.61.61,0,0,1,0,.547l-25.858,40.753a.61.61,0,0,1-.6.373Z" transform="translate(-105.421 -172.749)" fill="#263238"/>
          <path id="Tracé_247" data-name="Tracé 247" d="M184.369,342.627l-.859-.9c16.077-15.106,22.137-42.408,22.187-42.681l1.244.261C206.854,299.585,200.719,327.272,184.369,342.627Z" transform="translate(-104.8 -162.972)" fill="#263238"/>
          <path id="Tracé_248" data-name="Tracé 248" d="M199.925,331.211l-1.145-.485a145.255,145.255,0,0,0,9.893-35.626l1.244.149a146.273,146.273,0,0,1-9.992,35.962Z" transform="translate(-101.069 -163.937)" fill="#263238"/>
          <path id="Tracé_249" data-name="Tracé 249" d="M180.418,371.66l-.4-1.182c.2-.062,20.022-6.844,35.153-8.138l.112,1.244C200.3,364.854,180.617,371.585,180.418,371.66Z" transform="translate(-105.653 -147.506)" fill="#263238"/>
          <path id="Tracé_250" data-name="Tracé 250" d="M226.586,361.979c-8.238-1.891-20.432-.958-20.557-.958l-.1-1.244c.51,0,12.444-.958,20.93.983Z" transform="translate(-99.321 -148.19)" fill="#263238"/>
          <path id="Tracé_251" data-name="Tracé 251" d="M196.922,332.932l-1.132-.51c1.244-2.688,2.7-6.632,2.713-6.682l1.17.448S198.154,330.207,196.922,332.932Z" transform="translate(-101.799 -156.45)" fill="#263238"/>
          <path id="Tracé_252" data-name="Tracé 252" d="M216.894,319.127c-.485-8.81-2.949-22.9-2.974-23.046l1.244-.212c0,.149,2.489,14.31,2.986,23.195Z" transform="translate(-97.369 -163.749)" fill="#263238"/>
          <path id="Tracé_253" data-name="Tracé 253" d="M280.15,444.889s0,21.154,1.083,22.05,5.786.722,6.321.722h40.666s3.248-.535,3.434-2.713-8.138-4.517-8.86-4.517S299.151,447.988,298.4,446.88a57.125,57.125,0,0,1-2.489-5.96Z" transform="translate(-81.185 -128.305)" fill="#eeae8c"/>
          <path id="Tracé_254" data-name="Tracé 254" d="M286.432,468.44c-3.011,0-4.753-.274-5.475-.883-1.083-.9-1.307-12.742-1.307-22.523v-.485l16.737-4.218.187.523a52.951,52.951,0,0,0,2.489,5.824c1.17,1.244,22.846,12.966,23.991,13.29.622,0,6.931,1.73,8.773,3.733a1.916,1.916,0,0,1,.6,1.456c-.224,2.613-3.808,3.235-3.957,3.273H286.432Zm-5.537-22.921c0,9.582.336,20.121.933,21.154.174.125,1.244.572,5.587.51h40.927s2.675-.5,2.812-2.14a.71.71,0,0,0-.224-.448c-1.406-1.618-7.267-3.347-8.014-3.4-1.17,0-24.215-12.792-24.887-13.825a46.276,46.276,0,0,1-2.4-5.575Z" transform="translate(-81.307 -128.449)" fill="#263238"/>
          <path id="Tracé_255" data-name="Tracé 255" d="M239.05,413.4s26.268-5.712,37.8-14.559L271.49,388.1Z" transform="translate(-91.228 -141.212)" fill="#000032"/>
          <path id="Tracé_256" data-name="Tracé 256" d="M239.172,414.143a.609.609,0,0,1-.56-.361.635.635,0,0,1,.174-.759l32.44-25.285a.609.609,0,0,1,.523-.125.635.635,0,0,1,.423.336l5.363,10.727a.61.61,0,0,1-.174.771c-11.523,8.847-36.982,14.447-38.052,14.683Zm32.216-24.962L241.8,412.251c6.931-1.7,25.148-6.645,34.394-13.476Z" transform="translate(-91.35 -141.334)" fill="#263238"/>
          <path id="Tracé_257" data-name="Tracé 257" d="M167.88,395.672s.4,10.95,7.2,16.786,27.874,9.407,36.945,9.084,44.411,0,44.411,0a123.817,123.817,0,0,0,13.937-5.836c5.513-2.924,17.508-11.349,17.508-11.349s2.588,15.554,3.895,21.067,9.718,30.425,9.718,30.425l2.265,12.966,35.987-7.727s-3.248-23.991-5.513-40.84-9.071-53.171-11.025-59.331-1.618-6.147-7.13-6.147-24.962,1.618-44.4,4.206-42.47,5.836-59.654,10.054-5.824.971-19.773,6.807S167.88,395.672,167.88,395.672Z" transform="translate(-108.619 -149.356)" fill="#000032"/>
          <path id="Tracé_258" data-name="Tracé 258" d="M303.388,469.741l-2.377-13.6c-.324-.933-8.424-24.962-9.718-30.437-1.1-4.666-3.148-16.65-3.733-20.146-2.8,1.954-12.045,8.325-16.762,10.826a125.183,125.183,0,0,1-14.024,5.873h-.212c-.361,0-35.427-.323-44.386,0s-30.425-3.273-37.331-9.233-7.466-16.774-7.466-17.234v-.224l.137-.174c.1-.137,10.7-14.211,24.638-20.034a81.926,81.926,0,0,0,7.7-3.534c1.307-.7,1.381-.722,5.475-1.692l6.695-1.618c16.488-4.044,38.438-7.23,59.729-10.054,19.6-2.613,39.123-4.218,44.486-4.218s5.712.149,7.466,5.625l.3.958c2.041,6.446,8.847,43.1,11.05,59.431,2.265,16.849,5.5,40.84,5.5,40.84l.087.572ZM288.456,403.4l.162.983c0,.149,2.613,15.6,3.882,21.03s9.631,30.163,9.706,30.412l2.19,12.444,34.78-7.466c-.5-3.733-3.372-24.949-5.425-40.28-2.364-17.508-9.146-53.308-11-59.207l-.311-.983c-1.481-4.741-1.481-4.741-6.222-4.741-5.326,0-24.775,1.593-44.324,4.206-21.229,2.825-43.142,6-59.58,10.03-3.011.747-5.139,1.244-6.695,1.618-4.007.958-4.007.958-5.177,1.58a83.939,83.939,0,0,1-7.8,3.584c-12.78,5.351-22.722,17.819-23.991,19.462.1,1.543.971,10.975,6.968,16.114,6.744,5.774,27.737,9.258,36.534,8.935s42.146,0,44.324,0a122.721,122.721,0,0,0,13.713-5.836c5.413-2.874,17.321-11.2,17.421-11.311Z" transform="translate(-108.741 -149.486)" fill="#263238"/>
          <path id="Tracé_259" data-name="Tracé 259" d="M265.054,399.114l-1.244-.274c.087-.348,2-8.6,4.977-12.854a63.466,63.466,0,0,1,8.524-9.2l.821.933a63.7,63.7,0,0,0-8.325,8.972C267.008,390.739,265.067,399.039,265.054,399.114Z" transform="translate(-85.178 -143.975)" fill="#263238"/>
          <path id="Tracé_260" data-name="Tracé 260" d="M265.537,387.013l-1.157-.448c2.3-5.948,10.577-11.411,10.925-11.635l.684,1.033C275.9,376.025,267.7,381.438,265.537,387.013Z" transform="translate(-85.039 -144.43)" fill="#263238"/>
          <path id="Tracé_261" data-name="Tracé 261" d="M286.075,414.729l-1.095-.572c4.455-8.6,10.9-31.42,10.963-31.656l1.244.336C296.876,383.782,290.592,406.018,286.075,414.729Z" transform="translate(-80.005 -142.58)" fill="#263238"/>
          <path id="Tracé_262" data-name="Tracé 262" d="M286.075,445.19l-1.095-.56c5.712-11.125,10.577-50.932,10.627-51.33l1.244.149C296.64,395.042,291.9,433.829,286.075,445.19Z" transform="translate(-80.005 -139.941)" fill="#263238"/>
          <path id="Tracé_263" data-name="Tracé 263" d="M187.6,394.914l-1.083-.622c.112-.174,10.6-18.056,23.22-26.132l.672,1.045C198.043,377.119,187.7,394.739,187.6,394.914Z" transform="translate(-104.064 -146.084)" fill="#263238"/>
          <path id="Tracé_264" data-name="Tracé 264" d="M191,382.135l-1.095-.61c2.937-5.2,8.934-11.2,9.183-11.485l.884.883C199.9,370.986,193.832,377.083,191,382.135Z" transform="translate(-103.238 -145.625)" fill="#263238"/>
        </g>
        <g id="Floor" transform="translate(0 536.629)">
          <rect id="Rectangle_18" data-name="Rectangle 18" width="673.116" height="1.244" fill="#263238"/>
        </g>
      </g>
    </g>
  </g>
</svg>
