<svg id="circle" xmlns="http://www.w3.org/2000/svg" width="118.727" height="118.729" viewBox="0 0 118.727 118.729">
  <g id="Ellipse_5" data-name="Ellipse 5" fill="#fff" stroke="#07b5e7" stroke-width="4">
    <ellipse cx="59.363" cy="59.365" rx="59.363" ry="59.365" stroke="none"/>
    <ellipse cx="59.363" cy="59.365" rx="57.363" ry="57.365" fill="none"/>
  </g>
  <path id="Icon_awesome-user-plus" data-name="Icon awesome-user-plus" d="M63.676,21.225H57.145V14.694a1.638,1.638,0,0,0-1.633-1.633H52.247a1.638,1.638,0,0,0-1.633,1.633v6.531H44.083a1.638,1.638,0,0,0-1.633,1.633v3.265a1.638,1.638,0,0,0,1.633,1.633h6.531v6.531a1.638,1.638,0,0,0,1.633,1.633h3.265a1.638,1.638,0,0,0,1.633-1.633V27.756h6.531a1.638,1.638,0,0,0,1.633-1.633V22.858A1.638,1.638,0,0,0,63.676,21.225Zm-40.818,4.9A13.062,13.062,0,1,0,9.8,13.062,13.061,13.061,0,0,0,22.858,26.123ZM32,29.389H30.3a17.763,17.763,0,0,1-14.878,0h-1.7A13.718,13.718,0,0,0,0,43.1v4.245a4.9,4.9,0,0,0,4.9,4.9h35.92a4.9,4.9,0,0,0,4.9-4.9V43.1A13.718,13.718,0,0,0,32,29.389Z" transform="translate(26.709 31.269)" fill="#07b5e7"/>
</svg>
