<svg id="circle" xmlns="http://www.w3.org/2000/svg" width="118.727" height="118.729" viewBox="0 0 118.727 118.729">
  <g id="Ellipse_5" data-name="Ellipse 5" fill="#fff" stroke="#07b5e7" stroke-width="4">
    <ellipse cx="59.363" cy="59.365" rx="59.363" ry="59.365" stroke="none"/>
    <ellipse cx="59.363" cy="59.365" rx="57.363" ry="57.365" fill="none"/>
  </g>
  <path id="Icon_awesome-list" data-name="Icon awesome-list" d="M8.537,37.524H1.707A1.707,1.707,0,0,0,0,39.231v6.83a1.707,1.707,0,0,0,1.707,1.707h6.83a1.707,1.707,0,0,0,1.707-1.707v-6.83A1.707,1.707,0,0,0,8.537,37.524Zm0-34.149H1.707A1.707,1.707,0,0,0,0,5.082v6.83A1.707,1.707,0,0,0,1.707,13.62h6.83a1.707,1.707,0,0,0,1.707-1.707V5.082A1.707,1.707,0,0,0,8.537,3.375Zm0,17.074H1.707A1.707,1.707,0,0,0,0,22.157v6.83a1.707,1.707,0,0,0,1.707,1.707h6.83a1.707,1.707,0,0,0,1.707-1.707v-6.83A1.707,1.707,0,0,0,8.537,20.449ZM52.931,39.231H18.782a1.707,1.707,0,0,0-1.707,1.707v3.415a1.707,1.707,0,0,0,1.707,1.707H52.931a1.707,1.707,0,0,0,1.707-1.707V40.939A1.707,1.707,0,0,0,52.931,39.231Zm0-34.149H18.782A1.707,1.707,0,0,0,17.074,6.79V10.2a1.707,1.707,0,0,0,1.707,1.707H52.931A1.707,1.707,0,0,0,54.638,10.2V6.79A1.707,1.707,0,0,0,52.931,5.082Zm0,17.074H18.782a1.707,1.707,0,0,0-1.707,1.707v3.415a1.707,1.707,0,0,0,1.707,1.707H52.931a1.707,1.707,0,0,0,1.707-1.707V23.864A1.707,1.707,0,0,0,52.931,22.157Z" transform="translate(31.983 33.546)" fill="#07b5e7"/>
</svg>
