<svg id="circle" xmlns="http://www.w3.org/2000/svg" width="118.727" height="118.729" viewBox="0 0 118.727 118.729">
  <g id="Ellipse_5" data-name="Ellipse 5" fill="#fff" stroke="#07b5e7" stroke-width="4">
    <ellipse cx="59.363" cy="59.365" rx="59.363" ry="59.365" stroke="none"/>
    <ellipse cx="59.363" cy="59.365" rx="57.363" ry="57.365" fill="none"/>
  </g>
  <g id="Groupe_170" data-name="Groupe 170" transform="translate(-6355.501 -2618.305)">
    <path id="Tracé_2067" data-name="Tracé 2067" d="M1553.336,393.613a1.3,1.3,0,0,1-.112-1.144,5.105,5.105,0,0,1,2.682-2.939,5.877,5.877,0,0,0,3.234-6.656,6.021,6.021,0,0,1,1.028-4.825c1.842-2.68,1.831-4.839,0-7.512a6.366,6.366,0,0,1-1.046-4.825c.43-3.01-.2-4.818-2.918-6.438a6.758,6.758,0,0,1-3.335-4.269,5.6,5.6,0,0,0-5.617-4.372,5.511,5.511,0,0,1-4.246-2.06,5.656,5.656,0,0,0-7.217-1.71,5.624,5.624,0,0,1-4.791,0,5.655,5.655,0,0,0-7.219,1.712,5.438,5.438,0,0,1-4.1,2.06c-3.259.185-5.058,1.646-5.905,4.806a5.492,5.492,0,0,1-2.831,3.6,5.909,5.909,0,0,0-3.252,6.905,5.507,5.507,0,0,1-.957,4.42c-1.95,2.747-1.948,5.122,0,7.883a5.527,5.527,0,0,1,.943,4.427,6.013,6.013,0,0,0,3.191,6.882,5.664,5.664,0,0,1,1.6,1.144,6.527,6.527,0,0,1,1.163,2.222c.105.366-.316.915-.561,1.344q-3.172,5.514-6.363,11.011c-.366.634-.753,1.254-1.087,1.907a3.09,3.09,0,0,0,2.561,4.516,7.2,7.2,0,0,0,1.527-.144c1.515-.229,3.03-.458,4.578-.687.666,1.7,1.307,3.351,1.961,5a2.992,2.992,0,0,0,2.68,2.06,3.109,3.109,0,0,0,3.122-1.746q3.925-6.809,7.871-13.6a1.753,1.753,0,0,1,.668-.719,5.657,5.657,0,0,1,5.138-.2,2.326,2.326,0,0,1,1.186.975c2.568,4.479,5.173,8.94,7.741,13.419a3.188,3.188,0,0,0,3.2,1.872,3.14,3.14,0,0,0,2.795-2.339c.517-1.373,1.085-2.71,1.579-4.085.183-.5.4-.655.95-.558,1.6.286,3.227.517,4.848.735a3.083,3.083,0,0,0,3.392-2.27,3.315,3.315,0,0,0-.458-2.65Q1557.151,400.2,1553.336,393.613Zm-34.1,21.222c-.433-1.085-.817-2.046-1.2-3.01-.4-1.021-.79-2.044-1.2-3.06a1.6,1.6,0,0,0-2.012-1.126c-1.9.291-3.809.586-5.722.872-.19.03-.382.027-.687.048l7.04-12.174a7.369,7.369,0,0,0,4.644,1.623,4.665,4.665,0,0,1,3.229,1.488c.957.952,2.014,1.8,3.145,2.8Zm17.667-16.047a8.323,8.323,0,0,0-7.011.021c-1.662.739-2.6.531-3.756-.867a8.284,8.284,0,0,0-6.354-3.117,2.662,2.662,0,0,1-2.918-2.337,8.771,8.771,0,0,0-4.479-5.749c-1.6-.893-1.941-1.5-1.6-3.525a8.573,8.573,0,0,0-1.483-6.782c-1.193-1.657-1.183-2.662.021-4.328a8.466,8.466,0,0,0,1.467-6.718c-.355-2.06,0-2.7,1.675-3.621a8.59,8.59,0,0,0,4.349-5.58c.488-1.831,1.282-2.394,3.2-2.486a7.774,7.774,0,0,0,5.722-2.666c1.776-1.982,2.186-2.06,4.632-1.087a7.782,7.782,0,0,0,6.049-.011c2.4-.964,2.859-.867,4.578,1.064a7.858,7.858,0,0,0,5.793,2.7c1.886.085,2.682.661,3.177,2.518a8.353,8.353,0,0,0,4.381,5.557,2.732,2.732,0,0,1,1.769,2.781c-.066.531-.117,1.064-.2,1.6a6.706,6.706,0,0,0,1.2,5.344,4.066,4.066,0,0,1-.016,5.605c-1.373,1.788-1.453,3.907-1.1,6.077.33,2.039,0,2.708-1.733,3.662a8.423,8.423,0,0,0-4.255,5.395c-.538,1.994-1.144,2.486-3.17,2.607a8.235,8.235,0,0,0-6.15,3.067c-1.19,1.442-2.042,1.63-3.793.872Zm18.017,9.3c-.989-.146-1.978-.3-2.975-.458a1.577,1.577,0,0,0-1.964,1.1c-.7,1.762-1.373,3.534-2.078,5.3-.087.229-.188.442-.339.787l-7.24-12.517c1.144-1.032,2.255-1.943,3.275-2.937a4.578,4.578,0,0,1,3.136-1.357,7.332,7.332,0,0,0,4.6-1.625c2.341,4.044,4.665,8.054,7.063,12.2-1.254-.174-2.376-.33-3.488-.494Z" transform="translate(4881.455 2295.58)" fill="#07b5e7"/>
    <path id="Tracé_2068" data-name="Tracé 2068" d="M1567.75,381.868a6.7,6.7,0,0,1-1.2-5.344c.085-.529.135-1.062.2-1.6a2.732,2.732,0,0,0-1.769-2.781,8.374,8.374,0,0,1-4.381-5.557c-.494-1.847-1.291-2.424-3.177-2.518a7.858,7.858,0,0,1-5.793-2.7c-1.719-1.932-2.177-2.028-4.578-1.064a7.782,7.782,0,0,1-6.049.011c-2.447-.98-2.856-.895-4.632,1.087a7.816,7.816,0,0,1-5.722,2.666c-1.918.092-2.712.655-3.2,2.486a8.59,8.59,0,0,1-4.349,5.58c-1.671.916-2.03,1.572-1.675,3.621a8.492,8.492,0,0,1-1.467,6.718c-1.2,1.666-1.213,2.671-.021,4.328a8.533,8.533,0,0,1,1.483,6.782c-.35,2.021,0,2.632,1.6,3.525a8.77,8.77,0,0,1,4.479,5.749,2.662,2.662,0,0,0,2.918,2.337,8.284,8.284,0,0,1,6.354,3.117c1.144,1.4,2.094,1.6,3.756.867a8.323,8.323,0,0,1,7.011-.021c1.751.758,2.6.57,3.811-.883a8.227,8.227,0,0,1,6.15-3.067c2.03-.121,2.632-.613,3.17-2.607a8.427,8.427,0,0,1,4.255-5.395c1.724-.961,2.06-1.63,1.733-3.662-.353-2.17-.281-4.289,1.1-6.077A4.077,4.077,0,0,0,1567.75,381.868ZM1543.985,403.4a18.793,18.793,0,1,1,13.3-5.515A18.786,18.786,0,0,1,1543.985,403.4Z" transform="translate(4870.833 2285.197)" fill="#fff"/>
    <path id="Tracé_2069" data-name="Tracé 2069" d="M1529.794,583.832c-.433-1.087-.819-2.06-1.2-3.012-.4-1.018-.79-2.044-1.2-3.06a1.6,1.6,0,0,0-2.012-1.124l-5.722.87c-.19.03-.382.027-.687.048l7.043-12.174a7.368,7.368,0,0,0,4.644,1.623,4.666,4.666,0,0,1,3.229,1.488c.957.952,2.014,1.8,3.147,2.8C1534.727,575.3,1532.3,579.5,1529.794,583.832Z" transform="translate(4870.886 2126.592)" fill="#fff"/>
    <path id="Tracé_2070" data-name="Tracé 2070" d="M1665.609,583.769l-7.239-12.517c1.144-1.03,2.255-1.943,3.275-2.937a4.593,4.593,0,0,1,3.136-1.359,7.3,7.3,0,0,0,4.6-1.625c2.341,4.047,4.662,8.059,7.066,12.206-1.259-.181-2.376-.336-3.493-.5-.991-.146-1.977-.3-2.975-.458a1.577,1.577,0,0,0-1.964,1.1c-.7,1.762-1.373,3.534-2.078,5.3A6.218,6.218,0,0,1,1665.609,583.769Z" transform="translate(4763.399 2126.631)" fill="#fff"/>
    <path id="Tracé_2071" data-name="Tracé 2071" d="M1564.885,387a18.695,18.695,0,1,0,18.812,18.624A18.722,18.722,0,0,0,1564.885,387Zm.1,34.3a15.594,15.594,0,1,1,15.6-15.676,15.638,15.638,0,0,1-15.6,15.676Z" transform="translate(4849.92 2264.145)" fill="#07b5e7"/>
    <path id="Tracé_2072" data-name="Tracé 2072" d="M1575.327,400.618a15.594,15.594,0,1,0,15.77,15.511A15.642,15.642,0,0,0,1575.327,400.618Zm7.69,11.755c-.1.167-.211.325-.318.488l-5.642,8.443c-.97,1.453-1.865,1.533-3.12.284-1.373-1.373-2.767-2.747-4.14-4.136a1.583,1.583,0,0,1-.33-2.048,1.555,1.555,0,0,1,2.518-.172c1.06,1.039,2.09,2.106,3.2,3.236l4.781-7.15c.151-.229.288-.458.458-.666a1.556,1.556,0,0,1,2.589,1.726Z" transform="translate(4839.402 2253.643)" fill="#fff"/>
    <path id="Tracé_2073" data-name="Tracé 2073" d="M1606.91,450l4.781-7.15a7.626,7.626,0,0,1,.458-.666,1.538,1.538,0,0,1,2.135-.41,1.556,1.556,0,0,1,.458,2.129c-.1.169-.211.327-.318.488l-5.642,8.443c-.973,1.453-1.868,1.533-3.122.284-1.373-1.373-2.767-2.747-4.14-4.136a1.6,1.6,0,0,1-.33-2.06,1.556,1.556,0,0,1,2.518-.169C1604.763,447.8,1605.793,448.873,1606.91,450Z" transform="translate(4807.679 2222.111)" fill="#07b5e7"/>
  </g>
</svg>
