<svg id="circle" xmlns="http://www.w3.org/2000/svg" width="118.727" height="118.729" viewBox="0 0 118.727 118.729">
  <g id="Ellipse_5" data-name="Ellipse 5" fill="#fff" stroke="#07b5e7" stroke-width="4">
    <ellipse cx="59.363" cy="59.365" rx="59.363" ry="59.365" stroke="none"/>
    <ellipse cx="59.363" cy="59.365" rx="57.363" ry="57.365" fill="none"/>
  </g>
  <g id="Groupe_168" data-name="Groupe 168" transform="translate(-5540.811 -2634.066)">
    <path id="Tracé_2064" data-name="Tracé 2064" d="M751.079,369.734a1.1,1.1,0,0,0-.857-1.257c-10.252-3.691-20.49-7.439-30.745-11.14a2.412,2.412,0,0,0-1.5,0Q702.556,362.9,687.151,368.5a1.008,1.008,0,0,0-.791,1.136c.024,9.179,0,18.36.021,27.539,0,.981.045,1.964.137,2.942A34.576,34.576,0,0,0,700.489,425.4c5.744,4.357,11.652,8.5,17.464,12.767a1.061,1.061,0,0,0,1.516,0c5.607-4.115,11.282-8.146,16.871-12.305,9.717-7.249,14.609-16.987,14.715-29.113.034-4.155,0-8.306,0-12.461C751.065,379.448,751.052,374.589,751.079,369.734Zm-5.417,27.231A29.447,29.447,0,0,1,733.332,421.4c-4.666,3.5-9.427,6.878-14.148,10.31-.134.1-.264.19-.485.332-5.254-3.841-10.594-7.481-15.64-11.491A28.869,28.869,0,0,1,691.8,397.21c-.082-7.943-.016-15.885-.016-23.828v-.791l8.7-3.176q8.8-3.2,17.622-6.385a2.017,2.017,0,0,1,1.265,0c8.485,3.058,16.961,6.153,25.446,9.213a1.107,1.107,0,0,1,.886,1.236C745.664,381.3,745.727,389.135,745.661,396.964Z" transform="translate(4881.455 2295.58)" fill="#07b5e7"/>
    <path id="Tracé_2065" data-name="Tracé 2065" d="M760.758,389.415a1.107,1.107,0,0,0-.886-1.236c-8.486-3.06-16.961-6.155-25.446-9.213a2.017,2.017,0,0,0-1.265,0q-8.82,3.163-17.622,6.385l-8.7,3.177v.791c0,7.943-.066,15.885.016,23.828a28.9,28.9,0,0,0,11.272,23.34c5.045,4.009,10.386,7.645,15.64,11.491.211-.142.351-.235.485-.332,4.721-3.427,9.49-6.806,14.148-10.31a29.412,29.412,0,0,0,12.324-24.429C760.79,405.076,760.727,397.244,760.758,389.415ZM730.4,422.561,718.631,410.8c1.165-1.16,2.407-2.4,3.638-3.633l8.056,8.035,14.881-14.886,3.725,3.733Z" transform="translate(4866.392 2279.639)" fill="#fff"/>
    <path id="Tracé_2066" data-name="Tracé 2066" d="M763.334,475.126l14.878-14.886,3.727,3.73-18.527,18.516L751.64,470.721l3.638-3.63Z" transform="translate(4833.382 2219.715)" fill="#07b5e7"/>
  </g>
</svg>
