<svg id="circle" xmlns="http://www.w3.org/2000/svg" width="118.727" height="118.729" viewBox="0 0 118.727 118.729">
  <g id="Ellipse_5" data-name="Ellipse 5" fill="#fff" stroke="#07b5e7" stroke-width="4">
    <ellipse cx="59.363" cy="59.365" rx="59.363" ry="59.365" stroke="none"/>
    <ellipse cx="59.363" cy="59.365" rx="57.363" ry="57.365" fill="none"/>
  </g>
  <g id="Groupe_167" data-name="Groupe 167" transform="translate(-4995.33 -2592.502)">
    <path id="Tracé_2074" data-name="Tracé 2074" d="M215.928,354.371a12.667,12.667,0,0,0-2.359-2.631,1.738,1.738,0,0,1-.741-1.455,45.733,45.733,0,0,0-2.3-14.151c-3.558-10.331-10.674-17.041-20.982-20.39-7.325-2.384-14.883-2.692-22.508-2.005a43.04,43.04,0,0,0-12.8,3.01c-9.724,4.039-15.921,11.216-18.824,21.3a47.421,47.421,0,0,0-1.7,12.288,1.444,1.444,0,0,1-.724,1.373,6.916,6.916,0,0,0-3.3,5.507,85.2,85.2,0,0,0,0,9.971c.322,4.343,3.575,7.116,7.953,7.162,1.534.017,3.07.027,4.6,0a.878.878,0,0,1,1,.659,38.949,38.949,0,0,0,8.669,13.636,34.288,34.288,0,0,0,16.926,10,20.941,20.941,0,0,0,13.167-1.352c10.061-4.282,16.918-11.721,21.053-21.753a1.555,1.555,0,0,1,1.754-1.206,42.073,42.073,0,0,0,5.362-.111,7.59,7.59,0,0,0,6.589-6.109c.046-.245.109-.488.163-.73V356.961A12.264,12.264,0,0,0,215.928,354.371ZM198.36,372.838a33.665,33.665,0,0,1-18.931,19.582c-4.705,1.974-9.31,1.517-13.847-.628a34.276,34.276,0,0,1-13.4-11.315,2.793,2.793,0,0,1-.149-.345c.659.262,1.22.5,1.792.712a41.008,41.008,0,0,0,10.986,2.2,1.2,1.2,0,0,1,.8.32,7.49,7.49,0,0,0,5.6,3.029,8.85,8.85,0,0,0,7.164-1.99,4.194,4.194,0,0,0,.05-6.488c-3.215-2.976-9.889-2.79-12.581.695a.948.948,0,0,1-.7.324c-4.5-.356-8.908-1.095-12.9-3.393-.565-.324-1.113-.682-1.658-1.047a7.945,7.945,0,0,1-3.558-5.157,43.152,43.152,0,0,1-.971-11.426.672.672,0,0,1,.611-.735c6.7-1.492,10.812-5.831,13.067-12.077a34.214,34.214,0,0,0,1.1-5.4c.077-.408.1-.825.172-1.429,1.084,1.388,1.986,2.627,2.974,3.795,3.175,3.751,7.349,5.9,11.93,7.39,2.156.7,4.307,1.427,6.438,2.208.9.329,1.731.837,2.694,1.3a11.9,11.9,0,0,0-2.3-4.525c2.051.366,3.87.628,5.651,1.03a31.39,31.39,0,0,1,9.923,3.935A4.016,4.016,0,0,1,200.455,357C200.719,362.423,200.35,367.75,198.36,372.838Zm9.741-22.571h-2.752c-.584-2.357-1.047-4.7-1.746-6.965-2.168-7.039-5.986-12.9-12.405-16.819a30.152,30.152,0,0,0-12.267-4.086,41.691,41.691,0,0,0-16.556,1.067,26.9,26.9,0,0,0-17.79,15.444,43.151,43.151,0,0,0-3.215,11c-.019.107-.05.209-.084.358h-3.012c.184-1.932.308-3.822.557-5.7a31.473,31.473,0,0,1,5.475-14.6,25.679,25.679,0,0,1,11.53-8.866c7.453-3,15.224-3.443,23.125-2.754a39.436,39.436,0,0,1,11.721,2.744,25.748,25.748,0,0,1,14.149,13.343,37.487,37.487,0,0,1,3.244,13.843c.031.628.067,1.245.1,1.869.006.015-.025.044-.075.113Z" transform="translate(4881.455 2295.58)" fill="#07b5e7"/>
    <path id="Tracé_2075" data-name="Tracé 2075" d="M262.713,450.884a4.016,4.016,0,0,0-2.133-3.587,31.193,31.193,0,0,0-9.923-3.935c-1.785-.408-3.6-.664-5.651-1.03a11.9,11.9,0,0,1,2.3,4.525,29.61,29.61,0,0,0-2.694-1.3c-2.131-.781-4.282-1.507-6.438-2.208-4.588-1.486-8.761-3.64-11.93-7.39-.988-1.168-1.884-2.407-2.974-3.795-.071.6-.094,1.021-.172,1.43a35.2,35.2,0,0,1-1.1,5.4c-2.254,6.245-6.375,10.584-13.067,12.077a.666.666,0,0,0-.611.735,43.148,43.148,0,0,0,.971,11.426,7.925,7.925,0,0,0,3.558,5.157c.544.362,1.093.72,1.658,1.046,3.989,2.3,8.395,3.037,12.9,3.393a.948.948,0,0,0,.7-.324c2.692-3.485,9.366-3.671,12.581-.695a4.179,4.179,0,0,1-.05,6.488,8.762,8.762,0,0,1-7.164,1.99,7.5,7.5,0,0,1-5.6-3.029,1.152,1.152,0,0,0-.8-.32,41.005,41.005,0,0,1-10.986-2.2c-.571-.209-1.132-.45-1.792-.712a2.792,2.792,0,0,0,.149.345,34.188,34.188,0,0,0,13.4,11.315c4.538,2.149,9.142,2.606,13.847.628a33.641,33.641,0,0,0,18.931-19.582C262.591,461.638,262.96,456.311,262.713,450.884Zm-34.059,3.638A4.49,4.49,0,1,1,224.279,450,4.477,4.477,0,0,1,228.653,454.522Zm18.209,4.4a4.464,4.464,0,1,1,4.473-4.431,4.464,4.464,0,0,1-4.473,4.431Z" transform="translate(4819.213 2201.692)" fill="#fff"/>
    <path id="Tracé_2076" data-name="Tracé 2076" d="M267.2,526.3a4.471,4.471,0,1,1,3.214-1.232A4.483,4.483,0,0,1,267.2,526.3Z" transform="translate(4776.072 2134.306)" fill="#07b5e7"/>
    <path id="Tracé_2077" data-name="Tracé 2077" d="M375.876,526.268a4.464,4.464,0,1,1,4.473-4.431A4.464,4.464,0,0,1,375.876,526.268Z" transform="translate(4690.204 2134.341)" fill="#07b5e7"/>
  </g>
</svg>
