<svg id="circle" xmlns="http://www.w3.org/2000/svg" width="118.727" height="118.729" viewBox="0 0 118.727 118.729">
  <g id="Ellipse_5" data-name="Ellipse 5" fill="#fff" stroke="#07b5e7" stroke-width="4">
    <ellipse cx="59.363" cy="59.365" rx="59.363" ry="59.365" stroke="none"/>
    <ellipse cx="59.363" cy="59.365" rx="57.363" ry="57.365" fill="none"/>
  </g>
  <path id="Icon_awesome-file-signature" data-name="Icon awesome-file-signature" d="M27.109,52.7a1.377,1.377,0,0,0-1.264-.81,1.355,1.355,0,0,0-1.245.769l-.953,1.906a1.988,1.988,0,0,1-3.663-.26l-2.091-6.271L16.575,52a5.365,5.365,0,0,1-5.095,3.669H9.941a1.988,1.988,0,1,1,0-3.976h1.54a1.393,1.393,0,0,0,1.322-.952l2.26-6.789a2.983,2.983,0,0,1,5.66,0l1.725,5.174a5.576,5.576,0,0,1,8.2,1.759,1.41,1.41,0,0,0,1.163.778v-10.2l15.9-15.792V19.881h-16.9A2.991,2.991,0,0,1,27.834,16.9V0H2.982A2.975,2.975,0,0,0,0,2.982V60.637A2.975,2.975,0,0,0,2.982,63.62h41.75a2.975,2.975,0,0,0,2.982-2.982v-4.97l-15.9-.014A5.335,5.335,0,0,1,27.109,52.7ZM47.715,15.147a2.973,2.973,0,0,0-.87-2.1L34.68.87A2.98,2.98,0,0,0,32.568,0H31.81V15.9h15.9ZM35.786,43.112v8.579h8.572l20.09-20.227L56.014,23.03,35.786,43.112Zm34.859-22.32-3.96-3.96a3.165,3.165,0,0,0-4.474,0l-3.386,3.386,8.435,8.435,3.386-3.386A3.163,3.163,0,0,0,70.645,20.792Z" transform="translate(28.905 27.555)" fill="#07b5e7"/>
</svg>
